<svg xmlns="http://www.w3.org/2000/svg" width="37" height="36"><g fill="none" fill-rule="evenodd"><path d="M-18-18h72v72h-72z"/><g fill="#48484F"><path d="M18.5 36c-5.017 0-9.694-1.837-13.128-5.17C1.91 27.48 0 22.933 0 18.044 0 7.926 8.125 0 18.5 0S37 7.926 37 18.044c0 4.89-1.91 9.437-5.372 12.786C28.194 34.163 23.532 36 18.5 36zm0-33.126c-4.262 0-8.229 1.57-11.13 4.4-2.9 2.83-4.499 6.652-4.499 10.77 0 4.104 1.599 7.912 4.485 10.726 2.915 2.815 6.867 4.37 11.144 4.37s8.229-1.555 11.144-4.37c2.901-2.8 4.485-6.607 4.485-10.726 0-4.118-1.599-7.94-4.5-10.77-2.9-2.844-6.852-4.4-11.129-4.4z"/><path d="M21 8v4.569L26.414 18 21 23.431V28l10-10zM16 23.431L10.571 18 16 12.569V8L6 18l10 10z"/></g></g></svg>