<svg xmlns="http://www.w3.org/2000/svg" width="37" height="36"><g fill="none" fill-rule="evenodd"><path d="M-18-18h72v72h-72z"/><g fill="#48484F"><path d="M13.117 34.496c1.81.626 3.753.966 5.776.966 3.778 0 7.222-1.149 10.094-3.169a42.634 42.634 0 0 0-3.071-1.561c-1.717 1.898-3.197 2.906-3.368 3.052-.61.52-1.066.074-.533-.372a24.027 24.027 0 0 0 3.134-3.054 20.104 20.104 0 0 0-2.563-.902 16.912 16.912 0 0 1-3.236 2.619v1.932c0 .743-.914.668-.914 0v-1.412a17.305 17.305 0 0 1-5.319 1.901m18.05-17.241c-.115-4.903-2.384-9.182-4.572-11.781.822-.33 2.116-.98 3.24-1.666 3.985 3.146 6.627 8.006 6.765 13.446h-5.433m-20.843 9.997c3.815-.194 6.692-2.76 8.118-6.05h-7.748v-2.993h-3.11c0 1.495.304 5.609 2.74 9.043m-1.298-.018c-1.475-2.4-2.55-5.98-2.55-9.026H.054c.243 4.788 4.105 8.647 8.972 9.026m9.37-12.858h-7.702v2.89h-3.11c0-1.477.363-5.14 2.741-9.11 3.094.152 5.812 1.8 7.498 4.111h.573v2.109"/><path d="M19.369 12.258l7.061-.014c-.717-2.024-1.728-3.881-3.121-5.497.8-.218 1.556-.54 2.428-.905 3.923 4.896 4.444 9.643 4.444 11.418h-2.8a16.742 16.742 0 0 0-.322-2.891h-7.69v-2.111M9.103 8.168c-1.424 2.376-2.551 6.052-2.59 9.098H.053c.21-4.843 4.125-8.752 9.051-9.098m20.731 23.498c4.012-3.146 6.63-7.987 6.766-13.447h-5.433c-.114 5.275-2.355 9.149-4.547 11.768.968.457 2.02 1.013 3.214 1.679M19.355 3.373a17.336 17.336 0 0 1 3.231 2.644c.83-.226 1.654-.523 2.562-.909a24.27 24.27 0 0 0-3.133-3.047c-.533-.446-.076-.891.534-.371.172.147 1.7 1.183 3.428 3.086.96-.443 2.13-1.006 3.067-1.559A17.584 17.584 0 0 0 18.894.012a18.61 18.61 0 0 0-5.627.9 17.496 17.496 0 0 1 5.179 1.914l-.01-1.36c0-.668.914-.742.914 0v1.907h.005"/><path d="M25.766 29.648c3.94-4.904 4.424-9.657 4.424-11.434l-2.8-.001c-.113 3.997-1.636 7.65-4.102 10.504.757.206 1.664.585 2.478.931"/></g></g></svg>