<svg xmlns="http://www.w3.org/2000/svg" width="37" height="36"><g fill="none" fill-rule="evenodd"><path d="M-18-18h72v72h-72z"/><g fill="#48484F"><path d="M36.543 35.965H.175C.13 35.799.13.235.175.074h36.368c.048.167.048 35.728 0 35.89zM23.806 22.49c.342-.042.687-.065 1.025-.13a3.964 3.964 0 0 0 2.004-1.013c.787-.744 1.145-1.668 1.16-2.732.024-1.6-.833-2.937-2.316-3.566-1.076-.456-2.185-.488-3.302-.155-.74.221-1.373.616-1.866 1.208-.753.902-.99 1.947-.825 3.087.165 1.15.759 2.034 1.758 2.645.72.441 1.516.626 2.362.656zM9.159 15.411v-.309c0-.225-.014-.24-.235-.241-.602-.002-1.203-.002-1.804 0-.213 0-.23.016-.23.226v6.965c0 .212.018.229.227.23H8.96c.288 0 .288-.001.288-.285v-3.293c0-.335.005-.67.086-.997.105-.422.314-.761.759-.9.299-.095.605-.1.91-.024.233.06.419.195.531.405.074.138.141.288.167.44.045.266.076.538.077.808.008 1.186.004 2.372.004 3.558 0 .05 0 .1.002.152.002.082.043.129.129.133.045.002.09.002.134.002a5311.325 5311.325 0 0 0 1.958-.001c.084-.002.13-.044.134-.128.003-.05.003-.1.003-.15v-1.837c-.002-.82 0-1.64-.013-2.46a4.658 4.658 0 0 0-.243-1.47c-.282-.81-.847-1.304-1.698-1.474a4.402 4.402 0 0 0-1.866.03c-.41.093-.788.259-1.079.578-.011.013-.032.017-.084.042zm6.164 2.203h-.005v4.428c0 .222.016.239.238.24h1.9c.2-.001.22-.022.223-.217.001-.031 0-.063 0-.094v-4.978l.001-.15c.003-.067.04-.106.108-.11.044-.003.09-.002.134-.002.416.001.832.004 1.247.003.2 0 .222-.024.222-.219.002-.372 0-.744 0-1.117 0-.12.004-.24 0-.36-.005-.147-.03-.17-.183-.177-.051-.002-.103 0-.154 0h-1.19c-.173-.001-.184-.012-.184-.185-.002-.347-.006-.694.002-1.04.004-.157.023-.316.059-.469.077-.335.289-.536.64-.592.322-.05.637-.036.948.062.182.057.214.035.225-.152.03-.522.058-1.045.086-1.568.01-.179-.008-.206-.194-.235-.233-.036-.468-.072-.704-.085-.602-.033-1.203-.023-1.787.156-.707.216-1.198.653-1.436 1.355-.136.4-.191.812-.193 1.23-.007 1.425-.003 2.85-.003 4.276zm15.911-2.186c-.011-.082-.02-.117-.02-.152-.002-.082.003-.164 0-.246-.007-.135-.036-.16-.176-.169-.044-.002-.09 0-.134 0h-1.747c-.313 0-.313-.001-.313.3v6.833c0 .05 0 .1.003.151.004.082.047.129.132.134.044.002.089.002.134.002h1.823c.272 0 .278-.006.278-.276V19.07c0-.386.026-.769.11-1.147.183-.818.66-1.241 1.5-1.336a3.232 3.232 0 0 1 1.14.09c.16.039.2.016.2-.128.003-.568.003-1.135 0-1.703-.001-.137-.033-.17-.17-.175a6.714 6.714 0 0 0-.499.002c-.495.019-.98.09-1.447.261a2.364 2.364 0 0 0-.814.493zM5.71 18.568v-3.48l-.001-.095c-.004-.085-.052-.126-.134-.13-.051-.002-.103-.002-.154-.002H3.637c-.285 0-.286 0-.286.285v6.886c0 .244.01.254.261.255l1.88-.001c.2 0 .218-.022.218-.219v-3.5zm-.019-7.666c-.072.03-.12.043-.158.069-.68.458-1.36.92-2.04 1.377a.287.287 0 0 0-.144.267c.005.29 0 .58.002.87.002.187.024.21.209.21.645.001 1.29.002 1.936 0 .195 0 .215-.025.215-.222 0-.8 0-1.601-.002-2.402 0-.042-.009-.085-.018-.169z"/><path d="M25.63 18.57c.006.292-.037.577-.156.848-.196.45-.528.753-1.002.898a2.164 2.164 0 0 1-1.412-.035 1.507 1.507 0 0 1-.925-.927 2.193 2.193 0 0 1-.009-1.54c.176-.487.516-.82 1.019-.979.472-.149.948-.147 1.412.023.616.225.935.694 1.049 1.316.013.074.018.15.023.225.004.057 0 .114 0 .17"/></g></g></svg>