<svg xmlns="http://www.w3.org/2000/svg" width="250" height="98" viewBox="0 0 250 98">
  <path fill="#0C0C24" fill-rule="evenodd" d="M21.972,22.83 C21.651,23.472 21.33,24.221 20.367,24.114 C19.404,23.151 22.079,21.439 22.721,20.797 C23.684,19.727 24.754,18.443 26.573,18.122 C25.075,19.727 23.47,21.225 21.972,22.83 Z M67.875,12.344 C68.945,18.015 67.768,23.365 65.521,28.608 C63.702,32.674 61.134,36.205 58.138,39.415 C56.854,40.806 55.142,41.769 53.537,42.946 C50.327,45.3 46.582,46.584 42.944,48.082 C38.664,49.901 34.063,51.292 29.248,50.971 C28.178,53.753 27.215,56.535 25.931,59.21 C24.754,61.885 24.326,64.881 22.935,67.342 C21.972,69.054 21.544,70.873 20.581,72.478 C19.832,73.548 19.832,75.153 19.511,76.544 C19.511,77.186 19.618,78.042 18.655,78.363 C18.655,78.898 18.548,79.433 18.548,79.968 C18.655,80.396 18.655,80.931 18.12,80.931 C17.478,81.038 17.799,80.396 17.692,80.075 C16.943,74.511 18.227,69.161 19.618,63.918 C19.939,62.313 20.26,60.708 21.544,59.424 C22.186,58.782 21.33,57.819 21.758,56.963 C22.614,55.144 23.256,53.218 24.005,51.292 C19.511,51.827 15.124,52.362 10.737,51.827 C9.774,52.148 9.025,51.506 7.955,51.506 C8.597,51.078 9.239,51.399 9.774,51.292 C11.593,50.971 13.519,50.65 15.338,50.329 C16.087,50.222 16.729,50.222 17.371,50.115 C19.083,49.794 20.795,49.473 22.614,49.152 C24.112,49.152 25.182,48.51 25.61,46.798 C25.824,45.728 25.931,44.444 27.215,44.016 C27.322,43.909 27.429,43.695 27.429,43.588 C26.894,42.304 28.392,41.662 28.392,40.699 C28.392,39.736 29.89,39.201 29.034,38.024 C28.927,37.917 29.141,37.275 29.462,37.168 C30.425,36.633 30.639,35.67 30.639,34.707 C30.639,33.316 31.281,32.246 32.565,31.604 C31.174,31.283 32.137,30.641 32.351,29.999 C33.314,26.896 34.812,23.9 35.882,20.904 C36.738,18.55 37.594,16.196 38.45,13.735 C37.059,14.056 36.31,15.768 35.026,15.982 C31.602,18.764 28.392,21.76 25.182,24.756 C24.968,24.97 24.647,25.077 24.433,25.184 C24.326,25.398 24.112,25.612 24.005,25.719 C23.898,26.361 23.149,26.254 22.828,26.682 C22.828,27.003 22.614,27.11 22.293,27.324 C22.079,27.645 21.865,27.966 21.33,27.859 C16.515,32.995 11.807,38.345 7.634,44.016 C6.992,44.765 6.457,45.728 6.136,46.798 C5.708,48.296 4.638,49.473 3.675,50.65 C3.247,51.292 2.605,51.078 2.177,50.971 C1.428,50.65 1.107,49.901 1,49.045 C0.893,47.975 1.321,47.012 1.856,46.049 C3.14,43.588 4.531,41.234 6.35,38.987 C8.169,36.847 9.881,34.6 11.807,32.567 C12.449,31.925 13.519,32.246 14.054,31.497 C13.412,31.176 13.091,30.855 13.733,30.32 C14.268,28.929 15.445,31.39 15.873,29.464 C15.552,29.571 15.338,29.678 15.017,29.785 C15.017,29.464 14.482,29.357 15.124,28.822 C16.515,27.538 17.478,25.826 18.869,24.542 C19.404,24.221 20.795,23.686 19.832,24.649 C19.083,25.398 18.227,26.04 18.013,27.217 C17.371,27.217 17.157,27.752 16.836,28.18 C17.478,28.287 18.013,28.073 18.013,27.324 C19.083,27.003 19.297,25.719 20.367,25.398 C20.581,24.328 21.972,24.328 22.293,23.365 C24.968,20.583 27.857,18.229 30.853,16.303 C31.816,16.089 31.495,14.912 32.351,14.377 C33.849,13.521 35.133,12.237 36.524,11.167 C37.701,10.418 38.771,9.776 39.841,9.027 C40.055,8.278 39.734,8.278 39.199,8.599 C38.129,9.241 36.952,9.776 36.203,10.846 C33.956,11.916 32.137,13.628 30.211,15.126 C29.034,15.875 27.536,16.196 27.429,17.801 C26.252,17.801 27.108,17.052 27.215,16.945 C27.643,15.982 28.713,15.447 29.569,14.805 C32.779,11.916 35.989,9.134 39.948,7.315 C40.376,7.101 41.018,5.496 41.125,4.533 C41.232,3.784 40.59,2.714 41.767,2.286 C42.837,1.858 43.693,2.714 44.228,3.249 C45.405,4.426 46.047,5.068 47.545,3.356 C48.401,2.5 50.22,2.286 51.718,2.393 C52.253,1.751 52.895,2.179 53.537,2.072 C53.216,2.607 52.681,2.179 52.36,2.607 C53.216,2.821 53.965,2.393 54.714,2.393 C57.496,2.179 60.278,2.607 62.418,4.212 C65.307,6.138 67.126,8.92 67.875,12.344 Z M19.404,71.408 C19.618,71.087 19.832,70.766 19.618,70.124 C19.083,70.552 19.19,70.98 19.404,71.408 Z M13.733,51.185 C14.482,51.078 15.231,51.613 15.873,50.971 C15.124,50.971 14.482,51.078 13.733,51.078 C13.198,50.864 12.877,51.613 12.342,51.292 C12.877,51.72 13.305,51.506 13.733,51.185 Z M22.507,50.65 C23.042,50.115 24.219,50.65 24.326,49.58 C23.684,49.152 23.149,49.901 22.614,49.687 C20.795,50.008 18.976,50.329 17.05,50.65 C16.836,50.757 16.408,50.543 16.194,50.971 C18.334,51.185 20.367,50.65 22.507,50.65 Z M25.824,54.395 C25.289,53.539 27.001,53.004 26.038,52.148 C25.931,52.148 25.503,52.255 25.503,52.255 C25.503,53.004 24.433,53.218 24.647,53.967 C24.433,54.288 24.326,54.609 24.54,55.037 C24.754,54.823 24.647,54.395 24.968,54.288 C25.717,54.609 25.931,54.502 25.824,54.395 Z M47.759,4.533 C47.224,4.426 46.903,4.426 46.582,4.961 C47.117,5.175 47.545,5.068 47.759,4.533 Z M32.03,37.917 C31.281,38.131 31.388,38.773 31.388,39.308 C31.709,38.88 32.137,38.452 32.03,37.917 Z M31.067,40.592 C30.211,40.699 30.104,41.02 30.532,41.769 C30.746,41.341 30.853,41.02 31.067,40.592 Z M36.524,49.152 C36.631,49.152 36.738,49.045 36.738,48.938 C36.31,48.617 35.989,48.724 35.454,49.152 L36.524,49.152 Z M38.664,48.189 C39.092,48.082 39.52,48.082 39.627,47.654 C39.092,47.44 38.771,47.761 38.664,48.189 Z M38.985,46.156 C39.306,46.156 39.52,46.049 39.734,45.835 C40.055,45.728 40.697,45.942 40.376,45.193 C40.162,44.765 39.734,44.551 39.306,45.086 C39.199,45.3 38.771,45.086 38.664,45.514 C36.845,46.049 35.026,46.584 33.207,47.012 C32.565,47.119 31.923,47.119 31.388,47.654 C31.281,47.761 31.067,47.975 30.96,47.975 C30.318,48.082 30.318,48.51 30.425,48.831 C30.639,49.366 30.96,48.938 31.281,48.938 C32.137,48.831 32.886,48.617 33.742,48.51 C35.347,47.333 37.38,47.119 38.985,46.156 Z M40.804,47.547 C41.018,47.119 40.376,47.226 40.162,47.012 L39.841,47.654 C40.162,47.868 40.59,47.975 40.804,47.547 Z M41.981,46.691 C41.874,46.37 42.195,45.835 41.874,45.728 C41.446,45.621 41.446,46.049 41.446,46.37 C41.66,46.477 41.767,46.584 41.981,46.691 Z M45.298,43.267 C45.298,43.267 45.405,42.946 45.405,42.732 C45.405,42.518 45.191,42.518 44.977,42.625 C44.014,42.839 43.051,42.839 42.623,43.909 C42.302,43.909 41.981,43.374 41.66,44.016 C41.339,44.016 40.911,43.909 40.911,44.337 C40.911,44.658 41.232,44.979 41.553,45.086 C41.981,45.3 42.195,44.979 42.302,44.658 C42.516,44.551 42.944,44.765 42.837,44.337 C43.8,44.23 44.335,43.374 45.298,43.267 Z M64.665,12.237 C64.772,10.739 64.665,8.92 63.595,7.636 C62.097,5.924 60.278,5.389 58.245,5.389 C54.928,5.496 51.825,6.245 48.722,7.315 C47.545,7.743 46.047,8.064 45.405,9.241 C44.549,10.846 44.014,12.772 43.586,14.591 C42.516,18.871 40.911,23.044 39.199,27.11 C37.915,30.213 36.631,33.423 35.347,36.419 C34.491,38.238 33.849,40.164 32.993,41.876 C32.137,43.588 31.174,45.3 31.067,47.333 C31.602,46.905 32.244,46.691 32.886,46.798 C36.952,45.514 40.911,43.802 44.656,41.769 C47.545,40.271 50.22,38.345 53.002,36.419 C56.426,33.102 59.529,29.464 61.455,24.97 C63.274,20.904 64.451,16.731 64.665,12.237 Z M57.71,55.786 C57.603,55.786 57.496,55.679 57.389,55.572 L56.105,54.288 C55.998,54.502 54.714,52.79 55.249,51.078 C55.784,49.366 58.352,46.798 59.957,44.658 C61.348,42.839 63.167,41.448 65.307,40.485 C66.484,40.057 67.982,39.95 68.945,41.234 C69.587,41.983 70.015,41.662 70.336,41.02 C70.764,40.271 71.192,39.522 71.62,38.666 C72.048,37.489 73.011,37.168 73.974,37.917 C74.616,38.452 75.151,39.201 74.509,40.485 C73.118,43.053 71.299,45.514 70.55,48.403 C70.336,49.259 70.657,49.259 71.192,49.152 C71.62,48.938 72.048,48.724 72.476,48.403 L75.365,46.156 C76.542,44.979 80.822,41.983 81.571,42.304 C81.571,42.411 81.571,42.411 81.464,42.518 C80.608,44.444 78.682,45.728 77.612,47.547 C76.756,49.045 75.151,49.794 74.509,51.399 C74.402,51.72 73.974,51.827 73.76,52.041 C71.727,53.004 69.052,52.255 67.982,50.329 C67.875,50.115 67.447,49.901 67.554,49.473 C66.163,51.185 64.879,52.79 63.274,54.288 C61.669,55.786 59.85,56.321 57.71,55.786 Z M62.418,47.44 C60.813,49.045 59.315,50.971 58.459,53.432 C59.529,53.111 60.385,53.111 61.027,52.469 C63.702,50.008 66.377,47.547 68.089,44.23 C68.41,43.481 68.838,42.946 68.196,42.411 C67.768,42.09 67.233,42.625 66.698,42.946 C64.986,44.123 63.809,45.835 62.418,47.44 Z M96.123,34.493 C96.872,34.921 96.444,35.563 96.444,36.098 C96.444,37.061 95.802,37.596 95.374,38.345 C93.662,41.341 91.843,44.444 90.452,47.654 C89.81,49.152 88.954,50.757 89.168,52.469 C89.168,53.325 89.382,53.753 90.238,53.646 C90.88,53.646 91.415,53.646 91.736,53.218 C91.736,53.218 93.769,52.148 93.876,52.255 C94.518,53.432 91.95,55.358 91.736,55.572 C90.345,56.642 89.061,55.786 87.991,55.037 C86.921,54.288 86.065,53.218 86.065,51.399 C84.674,53.218 83.604,54.823 82.32,56.321 C81.785,56.963 81.357,58.033 80.073,57.498 C78.575,56.856 76.97,56.642 76.649,54.609 C76.221,51.613 79.966,41.662 80.608,40.057 C81.464,38.131 83.39,36.633 84.888,36.633 C85.423,36.633 85.744,36.74 85.851,37.382 C86.065,37.81 85.958,37.917 85.637,38.345 C84.46,39.95 83.283,41.448 82.534,43.16 C81.143,46.263 80.394,49.58 79.538,52.79 C79.431,53.111 79.324,53.539 79.645,53.646 C79.966,53.86 80.287,53.646 80.501,53.325 C82.962,50.543 85.209,47.547 87.349,44.444 C89.489,41.341 91.415,38.131 93.341,35.028 C94.09,33.851 95.053,34.065 96.123,34.493 Z M98.584,59.317 C98.477,59.638 100.296,59.745 98.798,60.173 C98.156,60.387 97.835,60.601 97.407,60.922 C97.086,61.243 96.551,60.601 96.444,60.28 C96.016,58.461 94.518,57.07 94.197,55.251 C93.769,52.576 94.625,50.115 95.053,47.654 C95.374,45.942 96.123,44.444 96.765,42.839 C96.872,42.518 96.872,41.876 97.514,41.876 C98.049,41.983 98.156,41.341 98.156,41.234 C97.514,38.88 99.333,37.382 99.975,35.563 C100.617,33.851 101.473,32.246 102.757,30.748 C102.864,30.641 102.971,30.641 103.078,30.534 C104.148,27.431 105.646,24.542 107.358,21.76 C109.391,18.336 111.424,15.019 113.885,11.809 C115.918,9.241 118.165,6.887 120.412,4.64 C122.017,3.035 123.515,1.644 125.655,1.002 C128.651,0.039 131.112,2.928 130.684,5.389 C130.577,5.924 130.256,6.352 129.828,6.352 C129.293,6.459 129.186,5.924 129.186,5.496 L129.186,5.389 C128.758,3.677 128.223,3.249 126.725,3.998 C124.264,5.175 122.445,7.315 120.84,9.348 C118.272,12.344 116.453,15.982 113.992,19.192 C112.066,21.546 110.675,24.435 109.177,27.11 C108.428,28.608 107.572,30.213 106.609,31.497 C105.539,32.888 105.432,35.028 103.613,35.777 C103.292,35.991 103.292,36.419 103.506,36.74 C104.041,37.382 103.292,37.596 103.185,37.917 C102.222,37.489 102.329,38.131 102.115,38.773 C101.687,39.95 101.366,41.341 100.724,42.197 C100.082,43.16 99.761,44.337 99.119,45.3 C97.835,47.012 97.514,49.259 96.979,51.292 C96.765,52.469 96.444,53.646 96.123,54.823 C95.909,55.786 96.551,56.535 96.444,57.605 C98.691,53.967 100.617,52.041 103.292,49.152 C105.004,47.226 108.856,42.09 109.177,42.518 C109.605,42.946 107.893,46.263 107.358,47.012 C104.469,50.971 101.366,54.823 99.012,59.21 C98.905,59.317 98.691,59.317 98.584,59.317 Z M137.96,31.176 C135.713,35.67 134.536,40.485 133.252,45.086 C132.717,47.012 132.61,49.045 132.075,51.078 C131.005,54.502 130.042,57.926 128.972,61.35 C128.544,62.527 128.009,63.704 127.367,64.774 C127.046,65.309 126.618,66.272 125.762,66.165 C124.799,65.951 123.194,66.486 123.301,64.453 C123.515,62.206 123.301,60.066 123.622,57.712 C124.371,52.362 125.441,47.012 126.297,41.662 C126.939,37.81 127.367,33.958 127.902,30.106 C128.544,25.184 129.186,20.155 129.828,15.233 C130.256,11.06 130.149,6.994 130.684,2.821 C130.791,1.751 131.647,1.858 132.396,1.644 C133.359,1.216 133.68,1.858 133.68,2.5 C133.68,4.426 133.573,6.352 133.359,8.171 C132.931,11.167 132.824,14.056 132.61,16.945 C132.503,18.55 132.075,20.048 131.861,21.653 C131.326,25.291 130.791,28.929 130.149,32.567 C129.293,37.168 128.972,41.769 128.223,46.37 L126.939,53.753 C126.511,56.214 126.19,58.782 125.976,61.671 C126.939,60.28 127.153,59.103 127.581,57.926 C129.507,52.148 130.577,46.37 132.075,40.592 C133.145,36.098 135.178,31.711 137.211,27.431 C137.318,27.11 137.532,26.896 137.532,26.682 C137.532,24.649 139.244,24.863 140.314,24.649 C141.491,24.328 141.491,25.505 141.598,26.361 C141.812,29.785 141.491,33.423 141.384,36.954 C141.277,40.271 140.849,43.695 142.24,46.584 C142.668,47.44 142.989,47.654 143.952,46.798 C145.343,45.621 146.413,44.337 147.269,42.839 C147.483,42.625 147.483,42.09 147.911,42.304 C148.125,42.411 148.66,42.411 148.553,43.053 C147.804,45.086 147.376,47.226 145.45,48.724 C144.38,49.58 142.026,49.687 140.742,48.938 C138.495,47.44 137.96,44.979 137.639,42.411 C137.425,39.736 137.853,37.061 137.96,34.386 C138.067,33.209 137.746,32.246 137.96,31.176 Z M154.652,53.967 C156.043,52.79 163.212,44.765 163.533,46.049 C163.747,47.226 157.969,54.502 155.615,56.535 C153.689,58.247 149.944,60.494 147.697,60.28 C145.985,60.066 144.273,57.819 144.166,55.786 C143.952,54.074 143.738,53.325 144.166,50.543 C144.594,47.868 147.162,43.053 147.911,41.769 C149.088,39.629 150.265,37.382 151.763,35.349 C153.047,33.423 155.401,32.781 157.434,33.53 C159.039,34.172 159.039,35.67 159.253,36.954 C159.681,39.415 157.755,43.802 154.973,45.407 C153.475,46.37 152.619,46.263 150.586,46.798 C150.051,46.905 149.623,47.012 149.302,47.012 C148.553,48.617 147.911,50.222 147.483,51.827 C146.948,53.646 147.055,55.358 147.376,57.07 C147.483,57.819 147.911,57.926 148.553,57.819 C151.121,57.284 152.726,55.572 154.652,53.967 Z M152.94,39.736 C151.977,41.02 151.549,42.411 150.907,43.695 C150.693,44.23 150.372,44.765 150.158,45.3 C151.121,45.621 154.331,43.267 154.652,42.732 C155.615,41.127 156.15,39.522 156.578,37.703 C156.792,37.061 156.257,36.526 156.15,35.563 C155.401,37.382 153.903,38.238 152.94,39.736 Z M181.081,31.497 C181.723,31.39 183.328,30.962 183.328,31.497 C183.328,31.925 182.579,32.353 182.579,32.353 C181.402,32.781 180.439,33.209 179.797,33.851 C177.336,36.312 174.661,38.452 172.2,40.806 C169.525,43.481 167.492,46.584 165.138,49.473 C163.64,51.399 162.677,53.753 161.5,55.786 C160.965,56.642 160.644,57.498 160.644,58.461 C160.537,59.959 159.146,60.922 157.648,60.494 C157.327,60.28 156.899,60.173 157.006,59.745 C157.22,58.568 157.006,57.284 157.755,56.214 C158.29,55.358 158.076,54.395 158.29,53.432 C158.718,52.148 158.932,50.864 159.467,49.687 C160.109,48.51 162.784,42.197 163.105,40.913 C163.212,40.271 163.319,39.522 163.64,38.88 C163.747,38.666 164.068,38.131 163.319,37.917 C162.784,37.703 162.998,37.168 163.212,36.74 C163.64,35.991 163.961,35.349 164.068,34.493 C164.175,33.53 166.743,33.316 167.492,34.065 C169.204,35.67 169.525,37.061 168.883,40.057 C170.381,38.666 171.772,37.382 173.056,36.205 C175.517,34.172 177.764,31.711 181.081,31.497 Z M164.603,60.494 C164.603,61.457 163.747,61.564 163.105,61.885 C163.105,60.922 163.747,60.708 164.496,60.494 C163.426,59.852 164.603,59.531 164.71,58.996 C165.138,59.424 164.603,60.066 164.924,60.494 L164.603,60.494 Z M165.78,59.959 C165.138,60.066 165.459,59.531 165.566,59.531 C165.887,59.21 166.101,58.675 166.636,58.782 C166.957,58.889 166.743,59.317 166.529,59.531 C166.315,59.745 166.101,60.066 165.78,59.959 Z M186.003,45.942 C185.468,46.37 185.04,45.835 184.398,45.835 C184.719,45.621 186.324,44.872 186.538,45.728 C186.538,46.156 186.11,45.942 186.003,45.942 Z M185.04,46.905 C184.612,46.905 183.97,46.049 183.756,47.226 C184.077,46.691 184.719,47.44 185.04,46.905 Z M165.78,58.568 C165.566,58.568 165.566,58.461 165.673,58.247 C165.78,58.033 165.673,57.712 166.101,57.712 C166.315,57.819 166.529,57.819 166.315,58.033 C166.315,58.354 166.208,58.568 165.78,58.568 Z M187.608,45.3 C187.501,45.514 187.287,45.514 187.073,45.3 C186.859,45.086 187.18,44.872 187.18,44.658 C187.929,43.695 187.715,44.551 188.571,44.551 C188.678,44.765 188.571,44.872 188.357,44.979 C188.143,45.086 187.929,45.193 187.608,45.3 Z M190.925,43.588 C190.39,43.909 190.39,43.909 190.176,43.481 L189.32,43.481 C189.641,43.053 189.962,42.732 190.283,43.267 C190.39,43.588 190.711,43.374 190.925,43.588 Z M162.035,62.527 C161.928,62.741 161.714,63.062 161.5,62.955 C161.286,62.955 161.393,62.527 161.714,62.527 C161.821,62.42 161.928,62.527 162.035,62.527 Z M179.583,50.115 C179.155,50.115 178.834,50.436 178.299,50.329 C178.727,50.115 179.048,49.687 179.583,49.901 L179.583,50.115 Z M178.513,49.152 C178.62,49.152 178.62,49.366 178.727,49.473 C178.62,49.58 178.513,49.794 178.406,49.794 C178.299,49.794 178.085,49.687 178.192,49.473 C178.299,49.366 178.299,49.152 178.513,49.152 Z M156.472598,67.2398191 C156.472069,67.2382143 156.471536,67.2366079 156.471,67.235 C156.471,67.2374064 156.471541,67.239001 156.472598,67.2398191 Z M156.472598,67.2398191 C156.518533,67.2753781 157.538594,65.844 157.434,65.844 C157.541,65.737 157.862,65.951 157.648,66.272 C158.718,65.844 158.932,64.774 159.681,64.132 C160.323,63.597 160.858,63.276 161.607,63.383 L159.681,65.63 C159.36,66.058 158.932,66.486 158.611,66.807 C158.183,67.235 157.862,67.663 157.434,68.091 C157.327,68.305 157.22,68.519 157.22,68.733 C158.076,68.412 158.504,67.663 158.932,66.914 C159.681,66.914 159.574,65.951 160.216,65.951 C160.537,64.988 161.714,64.774 161.821,63.704 C162.463,63.49 162.998,63.169 163.105,62.527 C164.175,62.313 164.71,61.564 165.031,60.601 C165.245,60.708 165.566,60.922 165.78,60.494 L166.529,59.745 L166.957,59.745 C167.385,59.424 167.813,59.103 168.134,58.782 C168.134,57.605 167.278,59.103 167.171,58.354 C167.813,58.033 168.027,57.07 168.99,56.963 C168.883,56.963 168.776,56.856 168.669,56.749 C168.348,56.535 168.562,56.321 168.776,56.214 C168.883,55.893 169.097,56.214 169.204,56.321 L169.525,56 C169.525,55.465 169.846,55.144 170.381,55.144 C170.702,55.144 170.595,55.572 170.702,55.893 C170.702,56.107 169.846,56.749 169.525,56.749 C169.525,57.177 169.311,57.177 169.204,57.498 C168.776,57.498 168.455,57.712 168.455,58.354 C168.99,58.461 168.883,57.819 169.204,57.712 C170.381,57.177 171.344,56.535 172.2,55.572 C172.414,55.251 172.521,55.572 172.628,55.572 C173.056,55.037 172.628,55.144 172.307,55.037 C171.986,55.037 171.344,55.572 171.237,54.823 C171.13,54.395 171.665,54.074 171.986,53.86 C172.093,53.753 172.307,53.646 172.414,53.539 C172.521,53.432 172.521,53.325 172.735,53.218 C172.949,53.004 172.842,52.255 173.377,52.683 C173.805,53.004 173.27,53.325 173.056,53.539 C173.163,53.646 173.27,53.753 173.377,53.753 L173.377,54.288 C173.805,54.716 174.126,54.502 174.447,54.074 L174.661,54.074 C175.196,53.646 175.731,53.218 176.373,52.897 C176.373,52.041 175.838,52.79 175.624,52.576 C175.41,52.683 175.089,52.897 174.875,53.111 C174.768,53.432 174.126,53.218 174.126,53.646 C173.912,53.646 173.805,53.539 173.591,53.539 C173.805,53.325 173.912,53.004 174.34,53.111 C174.661,52.576 175.196,52.469 175.624,52.148 C176.159,51.72 176.801,51.292 177.336,50.864 C176.908,50.65 177.122,50.329 177.443,50.222 C177.764,50.008 178.085,50.115 178.085,50.65 C177.978,50.65 177.871,50.757 177.871,50.864 C177.978,50.971 177.978,51.078 178.085,51.185 C179.155,51.934 179.583,51.185 180.118,50.436 C180.225,50.436 180.225,50.436 180.225,50.329 C180.118,50.115 179.904,49.901 179.797,49.687 C179.583,49.152 179.583,48.51 179.262,48.082 C177.764,45.835 177.229,43.267 176.908,40.699 C176.801,39.95 177.122,38.987 177.336,38.238 C177.871,36.847 178.299,35.456 178.941,34.172 C179.262,33.637 179.797,33.209 180.546,33.209 C181.616,33.209 182.686,33.209 183.649,34.172 C182.044,34.6 181.402,35.456 181.616,36.954 C181.616,37.275 181.402,37.703 181.188,37.917 C179.69,40.699 180.011,43.374 181.188,46.049 C181.402,46.477 181.509,47.119 182.365,46.798 C182.793,46.691 182.472,47.012 182.472,47.119 C182.044,47.868 182.686,47.654 183.007,47.654 C182.686,47.975 182.686,48.296 182.793,48.617 C183.221,48.51 183.328,48.189 183.328,47.761 C184.291,48.082 184.826,47.44 185.468,47.012 C187.608,46.37 189.32,44.979 191.46,44.23 C191.995,44.016 192.637,44.016 193.065,43.481 C193.6,43.695 193.493,43.053 193.814,42.946 C194.028,42.839 194.242,43.053 194.456,42.839 C194.349,42.518 194.028,42.518 193.814,42.518 L193.814,42.304 C193.814,42.197 193.814,42.09 193.707,41.876 C193.6,41.769 193.493,41.662 193.279,41.769 C193.172,41.876 192.744,41.876 192.851,42.304 L192.102,42.304 C191.888,42.732 191.674,43.053 191.139,42.625 C191.674,42.304 193.921,40.699 194.135,41.983 C194.349,41.662 194.563,41.769 194.777,41.769 L194.777,41.555 C195.098,41.555 195.419,41.555 195.74,41.234 C195.419,40.699 195.098,41.555 194.777,41.234 C195.098,40.592 195.633,40.378 196.275,40.592 C196.489,40.485 196.596,40.378 196.81,40.378 C197.345,39.95 198.094,39.843 198.736,39.629 C200.127,39.308 201.518,38.773 202.909,38.88 C204.942,38.987 206.547,39.629 208.045,41.341 C209.115,42.732 208.687,44.016 208.794,45.3 C208.901,45.621 208.687,45.728 208.366,45.728 C208.152,46.049 207.938,46.37 208.045,46.691 L208.045,46.905 C207.938,48.082 206.868,49.58 205.798,49.58 C205.263,49.687 204.942,50.329 204.407,50.115 C203.337,50.757 203.658,51.934 203.551,51.934 C202.909,52.148 203.123,53.004 202.695,53.432 C202.374,53.86 202.053,54.288 201.518,54.93 C201.411,53.646 202.481,53.218 202.374,52.362 C202.267,52.469 201.946,52.576 201.839,52.576 C201.411,52.362 201.839,52.041 201.946,51.827 C203.016,49.901 204.193,48.082 205.156,45.942 C205.691,44.765 206.119,43.588 206.226,42.197 C206.333,41.341 205.477,41.448 204.835,41.234 L202.909,41.234 C201.411,41.983 199.806,42.304 198.201,42.732 C197.559,42.946 197.024,43.481 196.275,43.267 C195.847,43.802 195.205,43.802 194.563,44.016 C192.851,45.407 190.711,45.835 188.785,46.798 C187.073,47.654 185.361,48.724 183.756,49.687 C184.184,50.971 185.147,51.934 185.896,53.111 C186.752,54.502 187.394,56 187.929,57.605 C188.25,58.889 188.571,60.28 188.571,61.564 C188.785,64.025 188.143,66.379 186.645,68.519 C185.04,70.873 183.007,73.013 181.081,75.153 C179.583,76.758 177.657,78.042 175.731,79.219 C174.34,80.182 172.949,81.038 171.451,81.787 C168.562,83.071 165.566,83.927 162.463,84.355 C159.788,84.676 157.22,84.355 154.759,83.285 C152.298,82.215 150.8,79.968 150.693,77.4 C150.586,75.26 151.656,73.227 152.94,71.515 C153.475,70.873 153.582,69.91 154.545,69.589 C154.545,69.161 154.759,68.733 155.187,68.626 C155.187,68.198 155.401,67.877 155.829,67.663 C156.15,68.091 155.936,68.412 155.508,68.626 C155.508,68.84 155.401,68.947 155.401,69.161 C155.935107,68.6268933 156.789142,68.1994295 156.472598,67.2398191 Z M204.835,41.234 C204.8885,41.1805 204.8885,41.15375 204.8885,41.127 C204.835,41.20725 204.835,41.234 204.835,41.234 Z M204.8885,41.127 C204.8885,41.10025 204.8885,41.0735 204.942,41.02 C204.8885,41.0735 204.86175,41.127 204.848375,41.167125 L204.8885,41.127 Z M178.085,51.292 C177.336,51.399 176.694,51.613 176.587,52.576 C177.336,52.362 177.764,51.934 178.085,51.292 Z M160.858,81.573 C161.393,81.68 161.821,81.787 162.356,81.466 C161.821,81.359 161.393,81.252 160.858,81.466 C160.43,81.252 160.002,81.466 159.574,81.573 C159.681,81.68 159.681,81.787 159.681,81.787 C160.109,82.001 160.43,81.68 160.858,81.573 Z M163.105,81.145 C163.426,81.145 163.961,81.359 163.961,80.61 C163.64,80.717 163.319,80.503 162.998,80.931 C163.105,80.931 163.105,81.038 163.105,81.145 Z M171.665,79.112 C172.414,79.005 173.056,78.684 173.698,78.149 C172.2,77.721 171.879,77.828 171.665,79.112 Z M184.719,57.926 C184.184,55.358 183.114,53.111 181.509,50.971 C180.974,50.971 180.439,51.292 180.011,51.613 C178.727,52.469 177.55,53.325 176.159,53.967 C175.731,54.074 175.41,54.395 175.089,54.823 C174.982,54.93 174.768,55.144 174.554,55.251 C174.126,55.358 174.019,55.679 173.912,56 C172.842,56.428 171.879,57.177 171.023,57.926 C169.739,58.996 168.348,60.066 167.064,61.136 C166.743,61.243 166.529,61.35 166.315,61.457 C165.994,61.671 165.78,61.885 165.566,62.206 C163.747,64.453 161.5,66.272 159.681,68.519 C157.541,71.087 155.829,74.083 154.331,77.079 C154.01,77.828 153.582,78.898 154.224,79.968 C154.759,80.503 155.615,80.61 156.364,80.717 C157.648,80.931 158.932,80.61 160.323,80.717 C160.858,80.717 161.393,80.717 161.928,80.61 C165.887,79.647 169.739,78.149 173.163,75.795 C175.089,74.404 177.015,73.12 178.513,71.301 C180.118,69.589 181.723,67.984 183.007,66.165 C184.719,63.597 185.468,60.922 184.719,57.926 Z M197.452,41.769 C197.773,41.769 198.308,41.769 198.308,41.341 C198.308,40.806 197.666,41.234 197.452,40.913 C197.345,40.913 197.238,40.806 197.131,40.806 C197.131,41.341 196.703,41.555 196.275,41.769 C195.74,41.662 195.312,41.876 194.777,42.09 L194.777,42.732 L195.312,42.732 C195.419,42.732 195.419,42.625 195.526,42.518 C195.954,42.625 196.061,42.304 196.275,42.09 C196.703,42.09 197.024,41.876 197.452,41.769 Z M201.625,40.057 C201.946,40.271 202.374,40.057 202.695,40.057 C202.588,39.522 202.267,39.522 201.946,39.522 C200.983,39.094 200.127,39.843 199.271,39.843 C199.057,40.271 198.415,39.843 198.308,40.271 C198.415,40.378 198.736,40.271 198.736,40.592 C198.629,41.448 199.164,41.234 199.485,41.02 C200.127,40.592 201.09,40.699 201.625,40.057 Z M210.827,49.152 C211.255,49.152 212.539,52.362 209.436,56.963 C208.152,58.782 206.547,59.745 205.37,61.35 C204.193,62.848 201.625,62.634 199.913,61.457 C199.699,61.35 199.592,61.243 199.592,60.922 C199.271,60.28 199.057,59.638 198.415,58.996 C197.559,58.033 198.415,56.642 198.736,55.465 C199.592,52.897 201.197,50.757 202.481,48.403 C203.765,45.942 205.584,43.909 206.761,41.448 C207.082,40.699 207.617,40.164 208.152,39.415 C207.938,39.415 207.724,39.308 207.617,39.308 C205.37,41.448 202.909,43.374 200.983,45.835 C199.271,47.975 197.452,50.008 196.168,52.148 C194.67,54.716 192.851,57.284 192.316,60.173 C192.102,61.35 192.102,62.634 191.674,63.811 C191.246,64.881 191.139,66.272 189.641,66.593 C188.999,66.807 188.892,67.342 188.892,67.877 C188.892,68.626 189.213,69.91 188.785,69.91 C188.357,70.017 187.822,67.77 187.715,66.593 C187.394,62.634 188.892,59.103 190.283,55.465 L195.74,40.699 C197.88,35.135 200.662,29.785 203.016,24.221 C203.016,24.007 203.23,23.9 203.658,23.472 C203.016,23.579 205.691,19.085 205.905,18.764 C206.44,17.587 207.51,16.517 208.045,15.233 C208.901,13.307 210.399,11.595 211.362,9.669 C211.897,8.813 212.539,8.064 213.181,7.315 C214.037,6.352 215.107,6.78 215.642,7.208 C216.177,7.636 216.177,8.706 215.642,9.455 C213.288,12.451 211.683,15.875 209.971,19.192 C210.506,19.192 208.152,23.365 207.831,24.007 C207.082,26.147 205.905,28.073 204.942,30.106 C202.802,34.386 200.876,38.773 199.271,43.267 C198.736,43.481 198.95,44.016 198.629,44.444 C199.485,44.444 199.271,43.802 199.592,43.588 C202.267,39.95 205.477,37.061 209.329,34.707 C210.185,34.172 210.399,34.279 211.255,35.242 C211.255,35.349 211.362,35.349 211.362,35.349 C214.465,35.991 212.111,37.81 212.004,38.987 C212.004,40.057 211.041,41.127 210.399,42.197 C209.115,44.551 207.724,46.798 206.654,49.259 C206.333,50.008 205.584,50.543 205.263,51.399 C204.514,52.897 204.3,54.609 203.444,56.214 C203.016,57.07 202.481,57.819 202.267,58.889 C203.337,58.782 203.979,58.033 204.514,57.498 C206.012,55.893 207.617,54.288 208.687,52.469 C209.329,51.399 210.506,49.152 210.827,49.152 Z M204.621,24.114 L204.193,25.719 C204.407,25.184 205.263,23.793 205.263,23.472 C205.263,23.365 205.049,23.258 204.942,23.258 C204.514,23.365 204.835,23.793 204.621,24.114 Z M203.337,27.645 C203.551,27.003 203.658,26.575 202.802,26.147 C203.016,26.789 203.23,27.11 203.337,27.645 Z M201.625,30.213 C201.411,30.855 200.769,31.497 201.197,32.353 C201.411,31.711 201.732,30.962 201.946,30.213 C202.374,29.571 203.016,29.036 202.802,27.966 C202.053,28.715 201.946,29.464 201.625,30.213 Z M200.220625,33.998125 C200.3945,33.7975 200.555,33.5835 200.341,33.316 C200.0735,33.4765 199.93975,33.66375 199.899625,33.87775 L200.220625,33.998125 Z M192.102,53.004 C192.637,52.79 192.958,52.683 192.851,51.934 C192.53,52.362 192.102,52.362 192.102,53.004 Z M194.242,48.296 C194.777,47.333 195.312,46.156 195.526,44.872 C195.098,45.621 194.242,47.226 194.242,48.296 Z M195.633,43.695 C196.81,43.481 197.559,41.341 197.345,40.164 C196.917,41.341 196.489,42.625 195.633,43.695 Z M197.666,39.629 C197.987,39.736 198.201,39.415 198.201,39.308 C198.522,37.168 199.271,37.382 199.485,35.028 C199.057,35.991 198.415,38.345 197.559,38.987 C197.345,39.201 197.345,39.415 197.666,39.629 Z M199.057,46.691 C199.378,46.156 200.02,46.049 199.699,45.3 C199.485,45.728 198.843,45.835 199.057,46.691 Z M202.053,42.625 C203.016,42.197 203.658,41.876 203.872,40.913 C202.909,41.127 202.695,41.876 202.053,42.625 Z M200.555,55.251 C201.197,54.288 202.16,53.432 202.267,51.827 C201.411,53.111 200.769,54.074 200.555,55.251 Z M208.687,56.321 C209.543,56 209.543,55.251 209.757,54.502 C209.008,54.93 208.045,55.144 208.045,56.214 C207.082,56.321 206.975,57.284 206.44,57.819 C207.082,57.177 208.366,57.498 208.687,56.321 Z M210.078,54.074 C210.292,54.181 210.399,53.967 210.399,53.753 C210.292,53.539 210.185,53.325 209.971,53.432 C209.757,53.539 209.543,53.753 209.65,53.967 C209.757,54.074 209.971,54.074 210.078,54.074 Z M223.56,53.967 C224.951,52.79 232.12,44.765 232.441,46.049 C232.655,47.226 226.877,54.502 224.523,56.535 C222.597,58.247 218.852,60.494 216.605,60.28 C214.893,60.066 213.181,57.819 213.074,55.786 C212.86,54.074 212.646,53.325 213.074,50.543 C213.502,47.868 216.07,43.053 216.819,41.769 C217.996,39.629 219.173,37.382 220.671,35.349 C221.955,33.423 224.309,32.781 226.342,33.53 C227.947,34.172 227.947,35.67 228.161,36.954 C228.589,39.415 226.663,43.802 223.881,45.407 C222.383,46.37 221.527,46.263 219.494,46.798 C218.959,46.905 218.531,47.012 218.21,47.012 C217.461,48.617 216.819,50.222 216.391,51.827 C215.856,53.646 215.963,55.358 216.284,57.07 C216.391,57.819 216.819,57.926 217.461,57.819 C220.029,57.284 221.634,55.572 223.56,53.967 Z M221.848,39.736 C220.885,41.02 220.457,42.411 219.815,43.695 C219.601,44.23 219.28,44.765 219.066,45.3 C220.029,45.621 223.239,43.267 223.56,42.732 C224.523,41.127 225.058,39.522 225.486,37.703 C225.7,37.061 225.165,36.526 225.058,35.563 C224.309,37.382 222.811,38.238 221.848,39.736 Z M250.524,35.028 C251.38,35.563 250.952,36.633 250.524,37.168 C248.705,39.736 246.886,42.304 245.388,45.193 C244.532,46.798 244.532,48.724 243.141,50.008 C242.285,50.971 241.857,52.255 241.429,53.325 C240.252,56.214 238.005,58.354 236.828,61.243 C236.079,63.276 234.688,65.095 233.618,67.128 C232.869,68.626 232.441,70.445 231.478,71.943 C230.408,73.441 230.087,75.26 228.91,76.758 C227.947,78.042 227.305,79.54 226.984,81.145 C226.877,81.787 226.128,81.894 225.914,82.536 C224.951,85.318 223.667,87.993 222.918,90.882 C222.704,91.952 222.49,93.129 222.169,94.199 C222.062,94.841 222.062,95.483 222.169,96.125 C222.276,96.66 222.811,97.195 222.062,97.516 C221.313,97.73 221.099,96.767 220.992,96.446 C220.243,94.52 220.029,92.594 220.35,90.561 C221.313,84.034 224.095,78.149 227.091,72.371 C228.268,70.017 229.124,67.556 230.408,65.309 C231.906,62.634 233.19,59.959 234.688,56.856 C232.976,57.712 231.371,58.568 229.873,57.605 C226.342,55.572 227.305,52.148 227.626,50.971 C228.054,48.296 229.338,45.942 230.943,43.695 C231.906,42.304 232.655,40.699 233.939,39.629 C234.688,38.88 235.33,38.131 236.721,39.094 C237.577,39.629 237.47,39.95 237.042,40.485 C235.544,42.197 234.367,44.016 233.19,45.942 C231.799,48.296 230.515,50.65 229.98,53.432 C229.873,53.967 230.087,54.288 230.408,54.716 C230.943,55.144 231.264,54.609 231.585,54.502 C233.832,53.325 235.33,51.399 237.149,49.687 C238.647,48.189 239.931,46.691 240.894,44.765 C242.071,42.411 243.783,40.164 244.96,37.703 C245.602,36.526 246.565,35.349 247.742,34.493 C248.491,33.958 249.668,34.386 250.524,35.028 Z M234.046,62.527 C234.474,62.206 234.688,61.885 234.367,61.35 C234.26,61.671 233.832,61.992 234.046,62.527 Z" transform="translate(-1)"/>
</svg>
