<svg xmlns="http://www.w3.org/2000/svg" width="250" height="98"><path fill="#0C0C24" fill-rule="evenodd" d="M20.972 22.83c-.321.642-.642 1.391-1.605 1.284-.963-.963 1.712-2.675 2.354-3.317.963-1.07 2.033-2.354 3.852-2.675-1.498 1.605-3.103 3.103-4.601 4.708zm45.903-10.486c1.07 5.671-.107 11.021-2.354 16.264-1.819 4.066-4.387 7.597-7.383 10.807-1.284 1.391-2.996 2.354-4.601 3.531-3.21 2.354-6.955 3.638-10.593 5.136-4.28 1.819-8.881 3.21-13.696 2.889-1.07 2.782-2.033 5.564-3.317 8.239-1.177 2.675-1.605 5.671-2.996 8.132-.963 1.712-1.391 3.531-2.354 5.136-.749 1.07-.749 2.675-1.07 4.066 0 .642.107 1.498-.856 1.819 0 .535-.107 1.07-.107 1.605.107.428.107.963-.428.963-.642.107-.321-.535-.428-.856-.749-5.564.535-10.914 1.926-16.157.321-1.605.642-3.21 1.926-4.494.642-.642-.214-1.605.214-2.461.856-1.819 1.498-3.745 2.247-5.671-4.494.535-8.881 1.07-13.268.535-.963.321-1.712-.321-2.782-.321.642-.428 1.284-.107 1.819-.214 1.819-.321 3.745-.642 5.564-.963.749-.107 1.391-.107 2.033-.214 1.712-.321 3.424-.642 5.243-.963 1.498 0 2.568-.642 2.996-2.354.214-1.07.321-2.354 1.605-2.782.107-.107.214-.321.214-.428-.535-1.284.963-1.926.963-2.889 0-.963 1.498-1.498.642-2.675-.107-.107.107-.749.428-.856.963-.535 1.177-1.498 1.177-2.461 0-1.391.642-2.461 1.926-3.103-1.391-.321-.428-.963-.214-1.605.963-3.103 2.461-6.099 3.531-9.095.856-2.354 1.712-4.708 2.568-7.169-1.391.321-2.14 2.033-3.424 2.247-3.424 2.782-6.634 5.778-9.844 8.774-.214.214-.535.321-.749.428-.107.214-.321.428-.428.535-.107.642-.856.535-1.177.963 0 .321-.214.428-.535.642-.214.321-.428.642-.963.535-4.815 5.136-9.523 10.486-13.696 16.157a7.728 7.728 0 0 0-1.498 2.782c-.428 1.498-1.498 2.675-2.461 3.852-.428.642-1.07.428-1.498.321C.428 50.65.107 49.901 0 49.045c-.107-1.07.321-2.033.856-2.996 1.284-2.461 2.675-4.815 4.494-7.062 1.819-2.14 3.531-4.387 5.457-6.42.642-.642 1.712-.321 2.247-1.07-.642-.321-.963-.642-.321-1.177.535-1.391 1.712 1.07 2.14-.856-.321.107-.535.214-.856.321 0-.321-.535-.428.107-.963 1.391-1.284 2.354-2.996 3.745-4.28.535-.321 1.926-.856.963.107-.749.749-1.605 1.391-1.819 2.568-.642 0-.856.535-1.177.963.642.107 1.177-.107 1.177-.856 1.07-.321 1.284-1.605 2.354-1.926.214-1.07 1.605-1.07 1.926-2.033a47.621 47.621 0 0 1 8.56-7.062c.963-.214.642-1.391 1.498-1.926 1.498-.856 2.782-2.14 4.173-3.21 1.177-.749 2.247-1.391 3.317-2.14.214-.749-.107-.749-.642-.428-1.07.642-2.247 1.177-2.996 2.247-2.247 1.07-4.066 2.782-5.992 4.28-1.177.749-2.675 1.07-2.782 2.675-1.177 0-.321-.749-.214-.856.428-.963 1.498-1.498 2.354-2.14 3.21-2.889 6.42-5.671 10.379-7.49.428-.214 1.07-1.819 1.177-2.782.107-.749-.535-1.819.642-2.247 1.07-.428 1.926.428 2.461.963 1.177 1.177 1.819 1.819 3.317.107.856-.856 2.675-1.07 4.173-.963.535-.642 1.177-.214 1.819-.321-.321.535-.856.107-1.177.535.856.214 1.605-.214 2.354-.214 2.782-.214 5.564.214 7.704 1.819 2.889 1.926 4.708 4.708 5.457 8.132zM18.404 71.408c.214-.321.428-.642.214-1.284-.535.428-.428.856-.214 1.284zm-5.671-20.223c.749-.107 1.498.428 2.14-.214-.749 0-1.391.107-2.14.107-.535-.214-.856.535-1.391.214.535.428.963.214 1.391-.107zm8.774-.535c.535-.535 1.712 0 1.819-1.07-.642-.428-1.177.321-1.712.107-1.819.321-3.638.642-5.564.963-.214.107-.642-.107-.856.321 2.14.214 4.173-.321 6.313-.321zm3.317 3.745c-.535-.856 1.177-1.391.214-2.247-.107 0-.535.107-.535.107 0 .749-1.07.963-.856 1.712-.214.321-.321.642-.107 1.07.214-.214.107-.642.428-.749.749.321.963.214.856.107zM46.759 4.533c-.535-.107-.856-.107-1.177.428.535.214.963.107 1.177-.428zM31.03 37.917c-.749.214-.642.856-.642 1.391.321-.428.749-.856.642-1.391zm-.963 2.675c-.856.107-.963.428-.535 1.177.214-.428.321-.749.535-1.177zm5.457 8.56a.23.23 0 0 0 .214-.214c-.428-.321-.749-.214-1.284.214h1.07zm2.14-.963c.428-.107.856-.107.963-.535-.535-.214-.856.107-.963.535zm.321-2.033c.321 0 .535-.107.749-.321.321-.107.963.107.642-.642-.214-.428-.642-.642-1.07-.107-.107.214-.535 0-.642.428-1.819.535-3.638 1.07-5.457 1.498-.642.107-1.284.107-1.819.642-.107.107-.321.321-.428.321-.642.107-.642.535-.535.856.214.535.535.107.856.107.856-.107 1.605-.321 2.461-.428 1.605-1.177 3.638-1.391 5.243-2.354zm1.819 1.391c.214-.428-.428-.321-.642-.535l-.321.642c.321.214.749.321.963-.107zm1.177-.856c-.107-.321.214-.856-.107-.963-.428-.107-.428.321-.428.642.214.107.321.214.535.321zm3.317-3.424s.107-.321.107-.535c0-.214-.214-.214-.428-.107-.963.214-1.926.214-2.354 1.284-.321 0-.642-.535-.963.107-.321 0-.749-.107-.749.321 0 .321.321.642.642.749.428.214.642-.107.749-.428.214-.107.642.107.535-.321.963-.107 1.498-.963 2.461-1.07zm19.367-31.03c.107-1.498 0-3.317-1.07-4.601-1.498-1.712-3.317-2.247-5.35-2.247-3.317.107-6.42.856-9.523 1.926-1.177.428-2.675.749-3.317 1.926-.856 1.605-1.391 3.531-1.819 5.35-1.07 4.28-2.675 8.453-4.387 12.519-1.284 3.103-2.568 6.313-3.852 9.309-.856 1.819-1.498 3.745-2.354 5.457-.856 1.712-1.819 3.424-1.926 5.457.535-.428 1.177-.642 1.819-.535 4.066-1.284 8.025-2.996 11.77-5.029 2.889-1.498 5.564-3.424 8.346-5.35 3.424-3.317 6.527-6.955 8.453-11.449 1.819-4.066 2.996-8.239 3.21-12.733zM56.71 55.786c-.107 0-.214-.107-.321-.214l-1.284-1.284c-.107.214-1.391-1.498-.856-3.21s3.103-4.28 4.708-6.42c1.391-1.819 3.21-3.21 5.35-4.173 1.177-.428 2.675-.535 3.638.749.642.749 1.07.428 1.391-.214.428-.749.856-1.498 1.284-2.354.428-1.177 1.391-1.498 2.354-.749.642.535 1.177 1.284.535 2.568-1.391 2.568-3.21 5.029-3.959 7.918-.214.856.107.856.642.749.428-.214.856-.428 1.284-.749l2.889-2.247c1.177-1.177 5.457-4.173 6.206-3.852 0 .107 0 .107-.107.214-.856 1.926-2.782 3.21-3.852 5.029-.856 1.498-2.461 2.247-3.103 3.852-.107.321-.535.428-.749.642-2.033.963-4.708.214-5.778-1.712-.107-.214-.535-.428-.428-.856-1.391 1.712-2.675 3.317-4.28 4.815-1.605 1.498-3.424 2.033-5.564 1.498zm4.708-8.346c-1.605 1.605-3.103 3.531-3.959 5.992 1.07-.321 1.926-.321 2.568-.963 2.675-2.461 5.35-4.922 7.062-8.239.321-.749.749-1.284.107-1.819-.428-.321-.963.214-1.498.535-1.712 1.177-2.889 2.889-4.28 4.494zm33.705-12.947c.749.428.321 1.07.321 1.605 0 .963-.642 1.498-1.07 2.247-1.712 2.996-3.531 6.099-4.922 9.309-.642 1.498-1.498 3.103-1.284 4.815 0 .856.214 1.284 1.07 1.177.642 0 1.177 0 1.498-.428 0 0 2.033-1.07 2.14-.963.642 1.177-1.926 3.103-2.14 3.317-1.391 1.07-2.675.214-3.745-.535-1.07-.749-1.926-1.819-1.926-3.638-1.391 1.819-2.461 3.424-3.745 4.922-.535.642-.963 1.712-2.247 1.177-1.498-.642-3.103-.856-3.424-2.889-.428-2.996 3.317-12.947 3.959-14.552.856-1.926 2.782-3.424 4.28-3.424.535 0 .856.107.963.749.214.428.107.535-.214.963-1.177 1.605-2.354 3.103-3.103 4.815-1.391 3.103-2.14 6.42-2.996 9.63-.107.321-.214.749.107.856.321.214.642 0 .856-.321 2.461-2.782 4.708-5.778 6.848-8.881 2.14-3.103 4.066-6.313 5.992-9.416.749-1.177 1.712-.963 2.782-.535zm2.461 24.824c-.107.321 1.712.428.214.856-.642.214-.963.428-1.391.749-.321.321-.856-.321-.963-.642-.428-1.819-1.926-3.21-2.247-5.029-.428-2.675.428-5.136.856-7.597.321-1.712 1.07-3.21 1.712-4.815.107-.321.107-.963.749-.963.535.107.642-.535.642-.642-.642-2.354 1.177-3.852 1.819-5.671.642-1.712 1.498-3.317 2.782-4.815.107-.107.214-.107.321-.214 1.07-3.103 2.568-5.992 4.28-8.774 2.033-3.424 4.066-6.741 6.527-9.951 2.033-2.568 4.28-4.922 6.527-7.169 1.605-1.605 3.103-2.996 5.243-3.638 2.996-.963 5.457 1.926 5.029 4.387-.107.535-.428.963-.856.963-.535.107-.642-.428-.642-.856v-.107c-.428-1.712-.963-2.14-2.461-1.391-2.461 1.177-4.28 3.317-5.885 5.35-2.568 2.996-4.387 6.634-6.848 9.844-1.926 2.354-3.317 5.243-4.815 7.918-.749 1.498-1.605 3.103-2.568 4.387-1.07 1.391-1.177 3.531-2.996 4.28-.321.214-.321.642-.107.963.535.642-.214.856-.321 1.177-.963-.428-.856.214-1.07.856-.428 1.177-.749 2.568-1.391 3.424-.642.963-.963 2.14-1.605 3.103-1.284 1.712-1.605 3.959-2.14 5.992-.214 1.177-.535 2.354-.856 3.531-.214.963.428 1.712.321 2.782 2.247-3.638 4.173-5.564 6.848-8.453 1.712-1.926 5.564-7.062 5.885-6.634.428.428-1.284 3.745-1.819 4.494-2.889 3.959-5.992 7.811-8.346 12.198-.107.107-.321.107-.428.107zm39.376-28.141c-2.247 4.494-3.424 9.309-4.708 13.91-.535 1.926-.642 3.959-1.177 5.992-1.07 3.424-2.033 6.848-3.103 10.272a19.974 19.974 0 0 1-1.605 3.424c-.321.535-.749 1.498-1.605 1.391-.963-.214-2.568.321-2.461-1.712.214-2.247 0-4.387.321-6.741.749-5.35 1.819-10.7 2.675-16.05.642-3.852 1.07-7.704 1.605-11.556.642-4.922 1.284-9.951 1.926-14.873.428-4.173.321-8.239.856-12.412.107-1.07.963-.963 1.712-1.177.963-.428 1.284.214 1.284.856 0 1.926-.107 3.852-.321 5.671-.428 2.996-.535 5.885-.749 8.774-.107 1.605-.535 3.103-.749 4.708-.535 3.638-1.07 7.276-1.712 10.914-.856 4.601-1.177 9.202-1.926 13.803l-1.284 7.383a80.235 80.235 0 0 0-.963 7.918c.963-1.391 1.177-2.568 1.605-3.745 1.926-5.778 2.996-11.556 4.494-17.334 1.07-4.494 3.103-8.881 5.136-13.161.107-.321.321-.535.321-.749 0-2.033 1.712-1.819 2.782-2.033 1.177-.321 1.177.856 1.284 1.712.214 3.424-.107 7.062-.214 10.593-.107 3.317-.535 6.741.856 9.63.428.856.749 1.07 1.712.214 1.391-1.177 2.461-2.461 3.317-3.959.214-.214.214-.749.642-.535.214.107.749.107.642.749-.749 2.033-1.177 4.173-3.103 5.671-1.07.856-3.424.963-4.708.214-2.247-1.498-2.782-3.959-3.103-6.527-.214-2.675.214-5.35.321-8.025.107-1.177-.214-2.14 0-3.21zm16.692 22.791c1.391-1.177 8.56-9.202 8.881-7.918.214 1.177-5.564 8.453-7.918 10.486-1.926 1.712-5.671 3.959-7.918 3.745-1.712-.214-3.424-2.461-3.531-4.494-.214-1.712-.428-2.461 0-5.243.428-2.675 2.996-7.49 3.745-8.774 1.177-2.14 2.354-4.387 3.852-6.42 1.284-1.926 3.638-2.568 5.671-1.819 1.605.642 1.605 2.14 1.819 3.424.428 2.461-1.498 6.848-4.28 8.453-1.498.963-2.354.856-4.387 1.391-.535.107-.963.214-1.284.214-.749 1.605-1.391 3.21-1.819 4.815-.535 1.819-.428 3.531-.107 5.243.107.749.535.856 1.177.749 2.568-.535 4.173-2.247 6.099-3.852zm-1.712-14.231c-.963 1.284-1.391 2.675-2.033 3.959-.214.535-.535 1.07-.749 1.605.963.321 4.173-2.033 4.494-2.568.963-1.605 1.498-3.21 1.926-5.029.214-.642-.321-1.177-.428-2.14-.749 1.819-2.247 2.675-3.21 4.173zm28.141-8.239c.642-.107 2.247-.535 2.247 0 0 .428-.749.856-.749.856-1.177.428-2.14.856-2.782 1.498-2.461 2.461-5.136 4.601-7.597 6.955-2.675 2.675-4.708 5.778-7.062 8.667-1.498 1.926-2.461 4.28-3.638 6.313-.535.856-.856 1.712-.856 2.675-.107 1.498-1.498 2.461-2.996 2.033-.321-.214-.749-.321-.642-.749.214-1.177 0-2.461.749-3.531.535-.856.321-1.819.535-2.782.428-1.284.642-2.568 1.177-3.745.642-1.177 3.317-7.49 3.638-8.774.107-.642.214-1.391.535-2.033.107-.214.428-.749-.321-.963-.535-.214-.321-.749-.107-1.177.428-.749.749-1.391.856-2.247.107-.963 2.675-1.177 3.424-.428 1.712 1.605 2.033 2.996 1.391 5.992a887.36 887.36 0 0 1 4.173-3.852c2.461-2.033 4.708-4.494 8.025-4.708zm-16.478 28.997c0 .963-.856 1.07-1.498 1.391 0-.963.642-1.177 1.391-1.391-1.07-.642.107-.963.214-1.498.428.428-.107 1.07.214 1.498h-.321zm1.177-.535c-.642.107-.321-.428-.214-.428.321-.321.535-.856 1.07-.749.321.107.107.535-.107.749-.214.214-.428.535-.749.428zm20.223-14.017c-.535.428-.963-.107-1.605-.107.321-.214 1.926-.963 2.14-.107 0 .428-.428.214-.535.214zm-.963.963c-.428 0-1.07-.856-1.284.321.321-.535.963.214 1.284-.321zm-19.26 11.663c-.214 0-.214-.107-.107-.321.107-.214 0-.535.428-.535.214.107.428.107.214.321 0 .321-.107.535-.535.535zM186.608 45.3c-.107.214-.321.214-.535 0-.214-.214.107-.428.107-.642.749-.963.535-.107 1.391-.107.107.214 0 .321-.214.428-.214.107-.428.214-.749.321zm3.317-1.712c-.535.321-.535.321-.749-.107h-.856c.321-.428.642-.749.963-.214.107.321.428.107.642.321zm-28.89 18.939c-.107.214-.321.535-.535.428-.214 0-.107-.428.214-.428.107-.107.214 0 .321 0zm17.548-12.412c-.428 0-.749.321-1.284.214.428-.214.749-.642 1.284-.428v.214zm-1.07-.963c.107 0 .107.214.214.321-.107.107-.214.321-.321.321-.107 0-.321-.107-.214-.321.107-.107.107-.321.321-.321zm-22.04 18.088zm0 0c.046.035 1.066-1.396.961-1.396.107-.107.428.107.214.428 1.07-.428 1.284-1.498 2.033-2.14.642-.535 1.177-.856 1.926-.749l-1.926 2.247c-.321.428-.749.856-1.07 1.177-.428.428-.749.856-1.177 1.284-.107.214-.214.428-.214.642.856-.321 1.284-1.07 1.712-1.819.749 0 .642-.963 1.284-.963.321-.963 1.498-1.177 1.605-2.247.642-.214 1.177-.535 1.284-1.177 1.07-.214 1.605-.963 1.926-1.926.214.107.535.321.749-.107l.749-.749h.428c.428-.321.856-.642 1.177-.963 0-1.177-.856.321-.963-.428.642-.321.856-1.284 1.819-1.391-.107 0-.214-.107-.321-.214-.321-.214-.107-.428.107-.535.107-.321.321 0 .428.107l.321-.321c0-.535.321-.856.856-.856.321 0 .214.428.321.749 0 .214-.856.856-1.177.856 0 .428-.214.428-.321.749-.428 0-.749.214-.749.856.535.107.428-.535.749-.642 1.177-.535 2.14-1.177 2.996-2.14.214-.321.321 0 .428 0 .428-.535 0-.428-.321-.535-.321 0-.963.535-1.07-.214-.107-.428.428-.749.749-.963.107-.107.321-.214.428-.321.107-.107.107-.214.321-.321.214-.214.107-.963.642-.535.428.321-.107.642-.321.856.107.107.214.214.321.214v.535c.428.428.749.214 1.07-.214h.214c.535-.428 1.07-.856 1.712-1.177 0-.856-.535-.107-.749-.321a3.252 3.252 0 0 0-.749.535c-.107.321-.749.107-.749.535-.214 0-.321-.107-.535-.107.214-.214.321-.535.749-.428.321-.535.856-.642 1.284-.963.535-.428 1.177-.856 1.712-1.284-.428-.214-.214-.535.107-.642.321-.214.642-.107.642.428a.23.23 0 0 0-.214.214c.107.107.107.214.214.321 1.07.749 1.498 0 2.033-.749.107 0 .107 0 .107-.107-.107-.214-.321-.428-.428-.642-.214-.535-.214-1.177-.535-1.605-1.498-2.247-2.033-4.815-2.354-7.383-.107-.749.214-1.712.428-2.461.535-1.391.963-2.782 1.605-4.066.321-.535.856-.963 1.605-.963 1.07 0 2.14 0 3.103.963-1.605.428-2.247 1.284-2.033 2.782 0 .321-.214.749-.428.963-1.498 2.782-1.177 5.457 0 8.132.214.428.321 1.07 1.177.749.428-.107.107.214.107.321-.428.749.214.535.535.535-.321.321-.321.642-.214.963.428-.107.535-.428.535-.856.963.321 1.498-.321 2.14-.749 2.14-.642 3.852-2.033 5.992-2.782.535-.214 1.177-.214 1.605-.749.535.214.428-.428.749-.535.214-.107.428.107.642-.107-.107-.321-.428-.321-.642-.321v-.214c0-.107 0-.214-.107-.428-.107-.107-.214-.214-.428-.107-.107.107-.535.107-.428.535h-.749c-.214.428-.428.749-.963.321.535-.321 2.782-1.926 2.996-.642.214-.321.428-.214.642-.214v-.214c.321 0 .642 0 .963-.321-.321-.535-.642.321-.963 0 .321-.642.856-.856 1.498-.642.214-.107.321-.214.535-.214.535-.428 1.284-.535 1.926-.749 1.391-.321 2.782-.856 4.173-.749 2.033.107 3.638.749 5.136 2.461 1.07 1.391.642 2.675.749 3.959.107.321-.107.428-.428.428-.214.321-.428.642-.321.963v.214c-.107 1.177-1.177 2.675-2.247 2.675-.535.107-.856.749-1.391.535-1.07.642-.749 1.819-.856 1.819-.642.214-.428 1.07-.856 1.498-.321.428-.642.856-1.177 1.498-.107-1.284.963-1.712.856-2.568-.107.107-.428.214-.535.214-.428-.214 0-.535.107-.749 1.07-1.926 2.247-3.745 3.21-5.885.535-1.177.963-2.354 1.07-3.745.107-.856-.749-.749-1.391-.963h-1.926c-1.498.749-3.103 1.07-4.708 1.498-.642.214-1.177.749-1.926.535-.428.535-1.07.535-1.712.749-1.712 1.391-3.852 1.819-5.778 2.782-1.712.856-3.424 1.926-5.029 2.889.428 1.284 1.391 2.247 2.14 3.424.856 1.391 1.498 2.889 2.033 4.494.321 1.284.642 2.675.642 3.959.214 2.461-.428 4.815-1.926 6.955-1.605 2.354-3.638 4.494-5.564 6.634-1.498 1.605-3.424 2.889-5.35 4.066-1.391.963-2.782 1.819-4.28 2.568a33.194 33.194 0 0 1-8.988 2.568c-2.675.321-5.243 0-7.704-1.07-2.461-1.07-3.959-3.317-4.066-5.885-.107-2.14.963-4.173 2.247-5.885.535-.642.642-1.605 1.605-1.926 0-.428.214-.856.642-.963 0-.428.214-.749.642-.963.321.428.107.749-.321.963 0 .214-.107.321-.107.535.534-.534 1.388-.962 1.072-1.921zm48.362-26.006c.053-.053.053-.08.053-.107-.053.08-.053.107-.053.107zm.053-.107c0-.027 0-.053.054-.107a.378.378 0 0 0-.094.147l.04-.04zm-26.803 10.165c-.749.107-1.391.321-1.498 1.284.749-.214 1.177-.642 1.498-1.284zm-17.227 30.281c.535.107.963.214 1.498-.107-.535-.107-.963-.214-1.498 0-.428-.214-.856 0-1.284.107.107.107.107.214.107.214.428.214.749-.107 1.177-.214zm2.247-.428c.321 0 .856.214.856-.535-.321.107-.642-.107-.963.321.107 0 .107.107.107.214zm8.56-2.033c.749-.107 1.391-.428 2.033-.963-1.498-.428-1.819-.321-2.033.963zm13.054-21.186c-.535-2.568-1.605-4.815-3.21-6.955-.535 0-1.07.321-1.498.642-1.284.856-2.461 1.712-3.852 2.354-.428.107-.749.428-1.07.856-.107.107-.321.321-.535.428-.428.107-.535.428-.642.749-1.07.428-2.033 1.177-2.889 1.926-1.284 1.07-2.675 2.14-3.959 3.21-.321.107-.535.214-.749.321a2.5 2.5 0 0 0-.749.749c-1.819 2.247-4.066 4.066-5.885 6.313-2.14 2.568-3.852 5.564-5.35 8.56-.321.749-.749 1.819-.107 2.889.535.535 1.391.642 2.14.749 1.284.214 2.568-.107 3.959 0 .535 0 1.07 0 1.605-.107 3.959-.963 7.811-2.461 11.235-4.815 1.926-1.391 3.852-2.675 5.35-4.494 1.605-1.712 3.21-3.317 4.494-5.136 1.712-2.568 2.461-5.243 1.712-8.239zm12.733-16.157c.321 0 .856 0 .856-.428 0-.535-.642-.107-.856-.428-.107 0-.214-.107-.321-.107 0 .535-.428.749-.856.963-.535-.107-.963.107-1.498.321v.642h.535c.107 0 .107-.107.214-.214.428.107.535-.214.749-.428.428 0 .749-.214 1.177-.321zm4.173-1.712c.321.214.749 0 1.07 0-.107-.535-.428-.535-.749-.535-.963-.428-1.819.321-2.675.321-.214.428-.856 0-.963.428.107.107.428 0 .428.321-.107.856.428.642.749.428.642-.428 1.605-.321 2.14-.963zm9.202 9.095c.428 0 1.712 3.21-1.391 7.811-1.284 1.819-2.889 2.782-4.066 4.387-1.177 1.498-3.745 1.284-5.457.107-.214-.107-.321-.214-.321-.535-.321-.642-.535-1.284-1.177-1.926-.856-.963 0-2.354.321-3.531.856-2.568 2.461-4.708 3.745-7.062 1.284-2.461 3.103-4.494 4.28-6.955.321-.749.856-1.284 1.391-2.033-.214 0-.428-.107-.535-.107-2.247 2.14-4.708 4.066-6.634 6.527-1.712 2.14-3.531 4.173-4.815 6.313-1.498 2.568-3.317 5.136-3.852 8.025-.214 1.177-.214 2.461-.642 3.638-.428 1.07-.535 2.461-2.033 2.782-.642.214-.749.749-.749 1.284 0 .749.321 2.033-.107 2.033-.428.107-.963-2.14-1.07-3.317-.321-3.959 1.177-7.49 2.568-11.128l5.457-14.766c2.14-5.564 4.922-10.914 7.276-16.478 0-.214.214-.321.642-.749-.642.107 2.033-4.387 2.247-4.708.535-1.177 1.605-2.247 2.14-3.531.856-1.926 2.354-3.638 3.317-5.564.535-.856 1.177-1.605 1.819-2.354.856-.963 1.926-.535 2.461-.107.535.428.535 1.498 0 2.247-2.354 2.996-3.959 6.42-5.671 9.737.535 0-1.819 4.173-2.14 4.815-.749 2.14-1.926 4.066-2.889 6.099-2.14 4.28-4.066 8.667-5.671 13.161-.535.214-.321.749-.642 1.177.856 0 .642-.642.963-.856 2.675-3.638 5.885-6.527 9.737-8.881.856-.535 1.07-.428 1.926.535 0 .107.107.107.107.107 3.103.642.749 2.461.642 3.638 0 1.07-.963 2.14-1.605 3.21-1.284 2.354-2.675 4.601-3.745 7.062-.321.749-1.07 1.284-1.391 2.14-.749 1.498-.963 3.21-1.819 4.815-.428.856-.963 1.605-1.177 2.675 1.07-.107 1.712-.856 2.247-1.391 1.498-1.605 3.103-3.21 4.173-5.029.642-1.07 1.819-3.317 2.14-3.317zm-6.206-25.038l-.428 1.605c.214-.535 1.07-1.926 1.07-2.247 0-.107-.214-.214-.321-.214-.428.107-.107.535-.321.856zm-1.284 3.531c.214-.642.321-1.07-.535-1.498.214.642.428.963.535 1.498zm-1.712 2.568c-.214.642-.856 1.284-.428 2.14.214-.642.535-1.391.749-2.14.428-.642 1.07-1.177.856-2.247-.749.749-.856 1.498-1.177 2.247zm-1.404 3.785c.173-.2.334-.414.12-.682-.268.16-.401.348-.441.562l.32.12zm-8.119 19.006c.535-.214.856-.321.749-1.07-.321.428-.749.428-.749 1.07zm2.14-4.708c.535-.963 1.07-2.14 1.284-3.424-.428.749-1.284 2.354-1.284 3.424zm1.391-4.601c1.177-.214 1.926-2.354 1.712-3.531-.428 1.177-.856 2.461-1.712 3.531zm2.033-4.066c.321.107.535-.214.535-.321.321-2.14 1.07-1.926 1.284-4.28-.428.963-1.07 3.317-1.926 3.959-.214.214-.214.428.107.642zm1.391 7.062c.321-.535.963-.642.642-1.391-.214.428-.856.535-.642 1.391zm2.996-4.066c.963-.428 1.605-.749 1.819-1.712-.963.214-1.177.963-1.819 1.712zm-1.498 12.626c.642-.963 1.605-1.819 1.712-3.424-.856 1.284-1.498 2.247-1.712 3.424zm8.132 1.07c.856-.321.856-1.07 1.07-1.819-.749.428-1.712.642-1.712 1.712-.963.107-1.07 1.07-1.605 1.605.642-.642 1.926-.321 2.247-1.498zm1.391-2.247c.214.107.321-.107.321-.321-.107-.214-.214-.428-.428-.321-.214.107-.428.321-.321.535.107.107.321.107.428.107zm13.482-.107c1.391-1.177 8.56-9.202 8.881-7.918.214 1.177-5.564 8.453-7.918 10.486-1.926 1.712-5.671 3.959-7.918 3.745-1.712-.214-3.424-2.461-3.531-4.494-.214-1.712-.428-2.461 0-5.243.428-2.675 2.996-7.49 3.745-8.774 1.177-2.14 2.354-4.387 3.852-6.42 1.284-1.926 3.638-2.568 5.671-1.819 1.605.642 1.605 2.14 1.819 3.424.428 2.461-1.498 6.848-4.28 8.453-1.498.963-2.354.856-4.387 1.391-.535.107-.963.214-1.284.214-.749 1.605-1.391 3.21-1.819 4.815-.535 1.819-.428 3.531-.107 5.243.107.749.535.856 1.177.749 2.568-.535 4.173-2.247 6.099-3.852zm-1.712-14.231c-.963 1.284-1.391 2.675-2.033 3.959-.214.535-.535 1.07-.749 1.605.963.321 4.173-2.033 4.494-2.568.963-1.605 1.498-3.21 1.926-5.029.214-.642-.321-1.177-.428-2.14-.749 1.819-2.247 2.675-3.21 4.173zm28.676-4.708c.856.535.428 1.605 0 2.14-1.819 2.568-3.638 5.136-5.136 8.025-.856 1.605-.856 3.531-2.247 4.815-.856.963-1.284 2.247-1.712 3.317-1.177 2.889-3.424 5.029-4.601 7.918-.749 2.033-2.14 3.852-3.21 5.885-.749 1.498-1.177 3.317-2.14 4.815-1.07 1.498-1.391 3.317-2.568 4.815-.963 1.284-1.605 2.782-1.926 4.387-.107.642-.856.749-1.07 1.391-.963 2.782-2.247 5.457-2.996 8.346-.214 1.07-.428 2.247-.749 3.317a5.818 5.818 0 0 0 0 1.926c.107.535.642 1.07-.107 1.391-.749.214-.963-.749-1.07-1.07-.749-1.926-.963-3.852-.642-5.885.963-6.527 3.745-12.412 6.741-18.19 1.177-2.354 2.033-4.815 3.317-7.062 1.498-2.675 2.782-5.35 4.28-8.453-1.712.856-3.317 1.712-4.815.749-3.531-2.033-2.568-5.457-2.247-6.634.428-2.675 1.712-5.029 3.317-7.276.963-1.391 1.712-2.996 2.996-4.066.749-.749 1.391-1.498 2.782-.535.856.535.749.856.321 1.391-1.498 1.712-2.675 3.531-3.852 5.457-1.391 2.354-2.675 4.708-3.21 7.49-.107.535.107.856.428 1.284.535.428.856-.107 1.177-.214 2.247-1.177 3.745-3.103 5.564-4.815 1.498-1.498 2.782-2.996 3.745-4.922 1.177-2.354 2.889-4.601 4.066-7.062.642-1.177 1.605-2.354 2.782-3.21.749-.535 1.926-.107 2.782.535zm-16.478 27.499c.428-.321.642-.642.321-1.177-.107.321-.535.642-.321 1.177z"/></svg>