<svg xmlns="http://www.w3.org/2000/svg" width="37" height="34"><g fill="none" fill-rule="evenodd"><path d="M-18-19h72v72h-72z"/><path d="M35.894 12.463c.471-2.642.117-5.167-1.06-7.516C32.657.662 28.302.016 25.948.016c-2.531 0-5.121.88-6.652 1.762 7.476 4.11 15.01 9.57 16.6 10.685M.636 8.12C-.776 15.81 5.64 25.263 18.236 33.6a72.49 72.49 0 0 0 7.122-5.402C23.004 26.203 9.818 15.164.638 8.119m26.427 18.377c4.06-3.934 6.827-7.926 8.064-11.684-1.649-1.41-9.065-7.751-17.01-12.39C16.47 1.366 14.174.016 10.465.016c-2.413 0-6.71.646-8.888 4.931-.352.705-.647 1.41-.823 2.114 9.711 6.518 23.956 17.615 26.31 19.435" fill="#48484F"/></g></svg>