<svg xmlns="http://www.w3.org/2000/svg" width="213" height="300"><g fill="none" fill-rule="evenodd"><path fill="#A29BF9" d="M0 0h212.263v300H0z"/><path fill="#000" fill-opacity=".1" d="M0 228h212.263v72H0z"/><path fill="#FFF" d="M69.984 264.996h-3.057L66.175 269H65.2l.752-4.004h-2.49v-.908h2.656l.81-4.307h-2.724v-.937h2.9l.772-4.063h.976l-.771 4.063h3.066l.772-4.063h.976l-.771 4.063h2.236v.937h-2.412l-.81 4.307h2.49v.908H70.96L70.209 269h-.977l.752-4.004zm-2.89-.908h3.066l.81-4.307h-3.066l-.81 4.307zm18.302.928H78.94L77.476 269h-1.26l5.38-14.219h1.143L88.12 269h-1.25l-1.474-3.984zm-6.084-1.026h5.703l-2.852-7.744-2.851 7.744zm20.06 5.01h-8.907v-.898l4.659-5.284c.436-.494.805-.94 1.108-1.338.303-.397.547-.766.732-1.108.186-.342.32-.664.4-.967.082-.302.123-.604.123-.903 0-.43-.064-.822-.19-1.177a2.553 2.553 0 0 0-.567-.923 2.544 2.544 0 0 0-.933-.605 3.536 3.536 0 0 0-1.279-.215c-.495 0-.94.083-1.333.25-.394.165-.73.395-1.006.688-.276.293-.49.64-.64 1.044-.15.404-.224.844-.224 1.319h-1.162c0-.586.1-1.14.298-1.66.198-.521.486-.977.864-1.368.378-.39.835-.7 1.372-.927.537-.228 1.147-.342 1.831-.342.638 0 1.214.086 1.729.259.514.172.95.423 1.308.752.358.328.633.729.825 1.2.192.473.288 1.008.288 1.607 0 .43-.078.863-.234 1.3-.156.435-.364.868-.625 1.298-.26.43-.56.856-.898 1.28-.339.422-.687.84-1.045 1.25l-3.965 4.482h7.47V269zm4.747-.908c1.003 0 1.847-.143 2.534-.43.687-.286 1.242-.683 1.665-1.191a4.76 4.76 0 0 0 .923-1.797c.192-.69.298-1.442.318-2.256a4.7 4.7 0 0 1-.674.786 4.158 4.158 0 0 1-2.89 1.138c-.665 0-1.25-.134-1.759-.4a3.904 3.904 0 0 1-1.279-1.065 4.69 4.69 0 0 1-.781-1.523 6.025 6.025 0 0 1-.264-1.778c0-.683.098-1.326.293-1.929a4.911 4.911 0 0 1 .845-1.586 3.995 3.995 0 0 1 1.347-1.08c.531-.263 1.135-.395 1.812-.395.762 0 1.426.14 1.992.42.567.28 1.037.67 1.411 1.172.375.501.655 1.1.84 1.797.186.696.278 1.458.278 2.285v1.133c0 .703-.044 1.381-.131 2.036a9.006 9.006 0 0 1-.44 1.84 6.538 6.538 0 0 1-.806 1.568 4.805 4.805 0 0 1-1.235 1.21 5.848 5.848 0 0 1-1.728.782c-.661.186-1.418.278-2.27.278h-.255l.01-1.015h.244zm2.022-4.756c.442 0 .85-.072 1.22-.215.371-.143.702-.332.991-.566a3.907 3.907 0 0 0 1.216-1.729v-.674c0-.748-.081-1.408-.244-1.977-.163-.57-.392-1.045-.688-1.426a2.928 2.928 0 0 0-1.06-.864 3.094 3.094 0 0 0-1.348-.293c-.494 0-.937.106-1.328.317-.39.212-.722.498-.996.86-.273.36-.482.78-.625 1.254a5.184 5.184 0 0 0-.215 1.504c0 .489.067.96.2 1.416.134.456.33.861.587 1.216.257.355.577.64.961.855.385.215.827.322 1.329.322zm8.38 5.664v-14.219h4.2c.722 0 1.37.073 1.942.22.573.146 1.06.371 1.46.674.4.303.708.688.923 1.157.215.469.323 1.025.323 1.67 0 .365-.05.708-.152 1.03-.1.322-.249.617-.444.884-.196.267-.432.5-.708.698-.277.199-.591.357-.943.474a3.55 3.55 0 0 1 1.133.454 3.41 3.41 0 0 1 1.426 1.782c.13.371.195.762.195 1.172 0 .651-.109 1.226-.327 1.724a3.408 3.408 0 0 1-.928 1.255c-.4.338-.88.594-1.44.766a6.28 6.28 0 0 1-1.855.259h-4.805zm1.201-6.836v5.82h3.604c.52 0 .987-.068 1.4-.205a3.013 3.013 0 0 0 1.056-.586c.29-.254.51-.564.664-.932.153-.368.23-.783.23-1.245 0-.398-.066-.77-.196-1.119a2.397 2.397 0 0 0-.6-.908 2.85 2.85 0 0 0-1.016-.605c-.407-.147-.887-.22-1.44-.22h-3.702zm0-1.006h3.281c1.003-.02 1.78-.255 2.33-.708.55-.452.825-1.111.825-1.977 0-.912-.285-1.584-.855-2.017-.57-.433-1.43-.65-2.583-.65h-2.998v5.352zm19.601 1.201h-6.63V269h-1.202v-14.219h8.809v1.026h-7.608v5.527h6.631v1.025zm5.529 5.733c1.002 0 1.847-.143 2.534-.43.687-.286 1.242-.683 1.665-1.191a4.76 4.76 0 0 0 .923-1.797c.192-.69.298-1.442.317-2.256a4.7 4.7 0 0 1-.674.786 4.158 4.158 0 0 1-2.89 1.138c-.664 0-1.25-.134-1.758-.4a3.904 3.904 0 0 1-1.28-1.065 4.69 4.69 0 0 1-.78-1.523 6.025 6.025 0 0 1-.264-1.778c0-.683.097-1.326.293-1.929a4.911 4.911 0 0 1 .844-1.586 3.995 3.995 0 0 1 1.348-1.08c.53-.263 1.135-.395 1.812-.395.761 0 1.425.14 1.992.42.566.28 1.037.67 1.41 1.172.375.501.655 1.1.84 1.797.186.696.28 1.458.28 2.285v1.133c0 .703-.045 1.381-.133 2.036a9.006 9.006 0 0 1-.44 1.84 6.538 6.538 0 0 1-.805 1.568 4.805 4.805 0 0 1-1.235 1.21 5.848 5.848 0 0 1-1.729.782c-.66.186-1.417.278-2.27.278h-.254l.01-1.015h.244zm2.021-4.756c.443 0 .85-.072 1.221-.215.371-.143.701-.332.991-.566a3.907 3.907 0 0 0 1.216-1.729v-.674c0-.748-.081-1.408-.244-1.977-.163-.57-.392-1.045-.689-1.426a2.928 2.928 0 0 0-1.06-.864 3.094 3.094 0 0 0-1.347-.293c-.495 0-.937.106-1.328.317-.39.212-.723.498-.996.86-.274.36-.482.78-.625 1.254a5.184 5.184 0 0 0-.215 1.504c0 .489.067.96.2 1.416.134.456.33.861.586 1.216.257.355.578.64.962.855.384.215.827.322 1.328.322z"/></g></svg>