<svg xmlns="http://www.w3.org/2000/svg" width="571" height="235"><g fill="none" fill-rule="evenodd"><path fill="#8B949B" d="M3.72 16.2h4.82l-2.4-7.56H6.1L3.72 16.2zM.5 22L5.12 7.56h2.02L11.7 22h-1.4l-1.46-4.72H3.38L1.9 22H.5zm15.274 0h-1.2V11.6h1.2v1.64c1.12-1.16 2.04-1.84 3.56-1.84 2.16 0 3.08 1.24 3.08 3.5V22h-1.2v-6.98c0-1.72-.52-2.66-2.12-2.66-1.28 0-2 .78-3.32 1.98V22zM34.05 7.56V22h-.84l-.2-1.36c-.76 1.08-1.92 1.56-3.34 1.56-2.7 0-4.18-1.92-4.18-5.46 0-3.06 1.68-5.34 4.1-5.34 1.4 0 2.24.48 3.26 1.56v-5.4h1.2zm-1.2 11.78v-5.12c-.4-.7-1.76-1.86-2.94-1.86-2.16 0-3.22 1.9-3.22 4.6 0 2.4.96 4.28 3.04 4.28 1.48 0 2.34-.82 3.12-1.9zM39.363 22h-1.2V11.6h1.2v1.98h.04c.56-1.28 1.68-2.18 3-2.18h.54v1.16h-.54c-1.32 0-3.04 1.56-3.04 3.56V22zm9.614-9.64c-2.14 0-3.08 1.62-3.08 4.44 0 2.82.94 4.44 3.08 4.44s3.08-1.62 3.08-4.44c0-2.82-.94-4.44-3.08-4.44zm0-.96c3.24 0 4.28 2.58 4.28 5.4 0 2.82-1.04 5.4-4.28 5.4s-4.28-2.58-4.28-5.4c0-2.82 1.04-5.4 4.28-5.4zm8.534.2V22h-1.2V11.6h1.2zm0-2.28h-1.2V7.56h1.2v1.76zm11.615-1.76V22h-.84l-.2-1.36c-.76 1.08-1.92 1.56-3.34 1.56-2.7 0-4.18-1.92-4.18-5.46 0-3.06 1.68-5.34 4.1-5.34 1.4 0 2.24.48 3.26 1.56v-5.4h1.2zm-1.2 11.78v-5.12c-.4-.7-1.76-1.86-2.94-1.86-2.16 0-3.22 1.9-3.22 4.6 0 2.4.96 4.28 3.04 4.28 1.48 0 2.34-.82 3.12-1.9zM3.32 38.64v5.68h3.56c1.92 0 3.12-1.06 3.12-2.84 0-1.78-1.04-2.84-3.12-2.84H3.32zm5 6.52L11.86 52h-1.44l-3.36-6.6H3.32V52H2V37.56h4.88c2.84 0 4.44 1.56 4.44 3.92 0 1.9-.94 3.16-3 3.68zm10.734-2.8c-2.14 0-3.08 1.62-3.08 4.44 0 2.82.94 4.44 3.08 4.44s3.08-1.62 3.08-4.44c0-2.82-.94-4.44-3.08-4.44zm0-.96c3.24 0 4.28 2.58 4.28 5.4 0 2.82-1.04 5.4-4.28 5.4s-4.28-2.58-4.28-5.4c0-2.82 1.04-5.4 4.28-5.4zM26.61 52V37.56h1.2v5.4c1.02-1.08 1.86-1.56 3.26-1.56 2.42 0 4.1 2.28 4.1 5.34 0 3.54-1.48 5.46-4.18 5.46-1.42 0-2.58-.48-3.34-1.56l-.2 1.36h-.84zm1.2-7.78v5.12c.78 1.08 1.64 1.9 3.12 1.9 2.08 0 3.04-1.88 3.04-4.28 0-2.7-1.06-4.6-3.22-4.6-1.18 0-2.54 1.16-2.94 1.86zm13.794-1.86c-2.14 0-3.08 1.62-3.08 4.44 0 2.82.94 4.44 3.08 4.44s3.08-1.62 3.08-4.44c0-2.82-.94-4.44-3.08-4.44zm0-.96c3.24 0 4.28 2.58 4.28 5.4 0 2.82-1.04 5.4-4.28 5.4s-4.28-2.58-4.28-5.4c0-2.82 1.04-5.4 4.28-5.4zm5.914.2h1.56v-3.4h1.2v3.4h2.28v.96h-2.28v7.62c0 .7.32 1.06 1.06 1.06.4 0 .84-.1 1.22-.22v1c-.4.06-.82.18-1.22.18-1.7 0-2.26-.56-2.26-1.82v-7.82h-1.56v-.96zm11.074.76c-2.14 0-3.08 1.62-3.08 4.44 0 2.82.94 4.44 3.08 4.44s3.08-1.62 3.08-4.44c0-2.82-.94-4.44-3.08-4.44zm0-.96c3.24 0 4.28 2.58 4.28 5.4 0 2.82-1.04 5.4-4.28 5.4s-4.28-2.58-4.28-5.4c0-2.82 1.04-5.4 4.28-5.4z"/><path fill="#222" d="M59.012 203.734H23.27L15.242 226H3.641l32.578-85.313h9.843L78.7 226H67.156l-8.144-22.266zm-32.344-9.257h29.004L41.14 154.574l-14.473 39.903zM132.625 226c-.39-.781-.703-1.768-.938-2.959a51.201 51.201 0 0 1-.585-3.72 28.87 28.87 0 0 1-3.428 3.017 24.553 24.553 0 0 1-4.16 2.52 23.685 23.685 0 0 1-4.893 1.699c-1.758.41-3.613.615-5.566.615-3.243 0-6.182-.488-8.819-1.465-2.636-.977-4.882-2.305-6.738-3.984a17.553 17.553 0 0 1-4.307-5.948c-1.015-2.285-1.523-4.736-1.523-7.353 0-3.399.664-6.397 1.992-8.994 1.328-2.598 3.233-4.776 5.713-6.533 2.48-1.758 5.479-3.086 8.994-3.985 3.516-.898 7.442-1.347 11.778-1.347h10.78v-4.981c0-3.79-1.132-6.807-3.398-9.053-2.265-2.246-5.605-3.369-10.02-3.369-2.03 0-3.886.274-5.566.82-1.68.547-3.115 1.28-4.306 2.198-1.192.918-2.12 1.982-2.783 3.193-.665 1.211-.997 2.48-.997 3.809H92.957c0-2.266.596-4.512 1.787-6.739 1.192-2.226 2.881-4.228 5.069-6.005 2.187-1.778 4.833-3.223 7.939-4.336 3.105-1.114 6.572-1.67 10.4-1.67 3.438 0 6.612.44 9.522 1.318 2.91.879 5.4 2.207 7.47 3.984 2.07 1.778 3.692 3.995 4.864 6.65 1.172 2.657 1.758 5.763 1.758 9.317v29.473c0 2.148.185 4.404.556 6.767.371 2.364.928 4.405 1.67 6.124V226h-11.367zm-17.988-8.262c1.953 0 3.789-.273 5.508-.82 1.718-.547 3.28-1.26 4.687-2.139 1.406-.879 2.627-1.884 3.662-3.017 1.035-1.133 1.846-2.305 2.432-3.516v-13.008h-9.024c-6.21 0-10.996.967-14.355 2.9-3.36 1.934-5.04 4.854-5.04 8.76 0 1.524.255 2.95.763 4.278a8.965 8.965 0 0 0 2.314 3.428c1.035.957 2.305 1.718 3.809 2.285 1.503.566 3.252.85 5.244.85zm97.367-194.16H200.09L197.414 31h-3.867l10.86-28.438h3.28L218.567 31h-3.848l-2.715-7.422zm-10.781-3.086h9.668l-4.844-13.3-4.824 13.3zM234.875 31c-.13-.26-.234-.59-.313-.986-.078-.397-.143-.81-.195-1.24-.338.351-.72.686-1.142 1.005a8.184 8.184 0 0 1-1.387.84c-.501.241-1.045.43-1.631.567a8.144 8.144 0 0 1-1.855.205c-1.081 0-2.061-.163-2.94-.489-.879-.325-1.627-.768-2.246-1.328a5.851 5.851 0 0 1-1.436-1.982 5.967 5.967 0 0 1-.507-2.451c0-1.133.221-2.133.664-2.998a5.98 5.98 0 0 1 1.904-2.178c.827-.586 1.826-1.029 2.998-1.328 1.172-.3 2.48-.45 3.926-.45h3.594v-1.66c0-1.263-.378-2.269-1.133-3.017-.755-.749-1.869-1.123-3.34-1.123-.677 0-1.296.09-1.856.273a4.728 4.728 0 0 0-1.435.733c-.397.306-.706.66-.928 1.064a2.604 2.604 0 0 0-.332 1.27h-3.633c0-.756.199-1.504.596-2.247.397-.742.96-1.409 1.69-2.001.729-.593 1.61-1.075 2.646-1.446 1.035-.37 2.19-.556 3.467-.556 1.146 0 2.204.146 3.174.439.97.293 1.8.736 2.49 1.328a6.139 6.139 0 0 1 1.62 2.217c.392.885.587 1.92.587 3.105v9.825c0 .716.062 1.468.185 2.255.124.788.31 1.469.557 2.041V31h-3.789zm-5.996-2.754c.651 0 1.263-.091 1.836-.273a6.855 6.855 0 0 0 1.562-.713 5.817 5.817 0 0 0 1.221-1.006c.345-.378.615-.768.81-1.172v-4.336h-3.007c-2.07 0-3.666.322-4.785.967-1.12.644-1.68 1.618-1.68 2.92 0 .508.085.983.254 1.426.17.442.426.823.771 1.142.345.32.769.573 1.27.762.501.189 1.084.283 1.748.283zM254.055 31V2.562h9.297c1.458 0 2.76.147 3.906.44 1.146.293 2.119.749 2.92 1.367a6.01 6.01 0 0 1 1.836 2.354c.423.95.634 2.09.634 3.418 0 1.328-.377 2.503-1.132 3.525-.756 1.022-1.784 1.813-3.086 2.373.794.221 1.5.547 2.119.977.618.43 1.14.937 1.562 1.523a6.63 6.63 0 0 1 .967 1.973c.221.729.332 1.49.332 2.285 0 1.328-.224 2.503-.674 3.525a7.053 7.053 0 0 1-1.904 2.578c-.82.697-1.81 1.221-2.969 1.573-1.159.351-2.448.527-3.867.527h-9.941zm3.75-13.3v10.234h6.191c.899 0 1.696-.12 2.393-.362.696-.24 1.285-.58 1.767-1.015a4.28 4.28 0 0 0 1.104-1.602c.254-.631.38-1.338.38-2.12 0-.78-.104-1.49-.312-2.128a3.962 3.962 0 0 0-.986-1.621c-.45-.443-1.02-.785-1.71-1.025-.69-.241-1.51-.362-2.46-.362h-6.367zm0-3.009h5.664c.807 0 1.543-.104 2.207-.312a5.028 5.028 0 0 0 1.709-.899 3.99 3.99 0 0 0 1.103-1.435c.26-.566.39-1.208.39-1.924 0-1.562-.455-2.698-1.366-3.408-.912-.71-2.298-1.065-4.16-1.065h-5.547v9.043zm38.476 5.977c0 1.55-.182 2.978-.547 4.287-.364 1.309-.898 2.441-1.601 3.399a7.501 7.501 0 0 1-2.578 2.236c-1.016.534-2.175.8-3.477.8-1.393 0-2.598-.244-3.613-.732a7.111 7.111 0 0 1-2.578-2.1L281.71 31h-3.32V1h3.613v11.191a7.17 7.17 0 0 1 2.539-2.011c.99-.47 2.155-.703 3.496-.703 1.328 0 2.503.26 3.525.78a7.273 7.273 0 0 1 2.579 2.198c.696.944 1.227 2.077 1.591 3.399.365 1.321.547 2.79.547 4.404v.41zm-3.613-.41a14.49 14.49 0 0 0-.293-2.979c-.195-.93-.511-1.748-.947-2.45a4.879 4.879 0 0 0-1.71-1.67c-.702-.411-1.562-.616-2.577-.616-.664 0-1.263.085-1.797.254a5.172 5.172 0 0 0-1.436.703c-.423.3-.79.651-1.103 1.055-.313.403-.58.84-.801 1.308v9.14c.234.47.511.906.83 1.31a5.172 5.172 0 0 0 2.549 1.758c.534.169 1.133.253 1.797.253.976 0 1.81-.202 2.5-.605a4.991 4.991 0 0 0 1.699-1.64c.443-.691.768-1.502.976-2.433.209-.93.313-1.923.313-2.978v-.41zm39.55 1.719a13.13 13.13 0 0 1-.986 3.74 9.04 9.04 0 0 1-2.08 2.988c-.885.84-1.966 1.497-3.242 1.973-1.276.475-2.767.713-4.473.713-1.68 0-3.203-.313-4.57-.938a9.919 9.919 0 0 1-3.506-2.666c-.97-1.152-1.718-2.536-2.246-4.15-.527-1.615-.79-3.418-.79-5.41v-2.852c0-1.992.266-3.799.8-5.42s1.296-3.008 2.285-4.16a10.141 10.141 0 0 1 3.604-2.676c1.412-.631 2.998-.947 4.756-.947 1.601 0 3.02.234 4.257.703 1.237.469 2.289 1.123 3.155 1.963a9.331 9.331 0 0 1 2.06 3.008c.508 1.165.834 2.45.977 3.857h-3.77a12.767 12.767 0 0 0-.664-2.676 6.019 6.019 0 0 0-1.24-2.03c-.527-.56-1.182-.99-1.963-1.29-.781-.3-1.719-.45-2.812-.45-1.263 0-2.374.245-3.33.733a6.745 6.745 0 0 0-2.403 2.051c-.644.879-1.13 1.94-1.455 3.184-.325 1.243-.488 2.614-.488 4.11v2.892c0 1.393.146 2.701.44 3.925.292 1.224.738 2.295 1.337 3.213a6.613 6.613 0 0 0 2.285 2.168c.925.528 2.018.791 3.281.791 1.198 0 2.208-.143 3.028-.43.82-.286 1.5-.7 2.04-1.24.541-.54.961-1.204 1.26-1.992.3-.788.528-1.683.684-2.685h3.77zm13.028 6.464a5.44 5.44 0 0 0 3.389-1.171c.449-.365.814-.798 1.094-1.3a4.04 4.04 0 0 0 .498-1.63h3.418a6.31 6.31 0 0 1-.772 2.685 7.853 7.853 0 0 1-1.826 2.246 8.99 8.99 0 0 1-2.627 1.543 8.744 8.744 0 0 1-3.174.577c-1.588 0-2.972-.284-4.15-.85-1.179-.566-2.158-1.331-2.94-2.295-.781-.963-1.364-2.083-1.748-3.36a13.953 13.953 0 0 1-.576-4.042v-.82c0-1.42.192-2.767.576-4.044.384-1.276.967-2.395 1.748-3.359a8.443 8.443 0 0 1 2.93-2.295c1.172-.566 2.552-.85 4.14-.85 1.238 0 2.36.196 3.37.586 1.009.391 1.881.928 2.617 1.612a7.364 7.364 0 0 1 1.728 2.431 8.38 8.38 0 0 1 .704 3.028h-3.418a5.502 5.502 0 0 0-.46-1.826 4.842 4.842 0 0 0-1.025-1.485 4.787 4.787 0 0 0-1.533-1.006c-.592-.247-1.253-.37-1.982-.37-1.12 0-2.048.22-2.784.663a5.248 5.248 0 0 0-1.777 1.748 7.318 7.318 0 0 0-.947 2.442 13.765 13.765 0 0 0-.274 2.724v.82c0 .938.091 1.86.274 2.764.182.905.495 1.716.937 2.432a5.164 5.164 0 0 0 1.778 1.738c.742.443 1.68.664 2.812.664zM368.176 31V2.562h8.027c1.875 0 3.58.313 5.117.938a11.198 11.198 0 0 1 3.955 2.676c1.1 1.159 1.954 2.565 2.559 4.219.605 1.653.908 3.509.908 5.566v1.68c0 2.057-.303 3.912-.908 5.566s-1.465 3.057-2.578 4.209c-1.113 1.152-2.464 2.038-4.053 2.656-1.588.619-3.366.928-5.332.928h-7.695zm3.75-25.352v22.286h3.945c1.51 0 2.839-.245 3.984-.733 1.146-.488 2.103-1.181 2.872-2.08.768-.898 1.344-1.98 1.728-3.242.384-1.263.576-2.676.576-4.238v-1.739c0-1.627-.195-3.076-.586-4.345-.39-1.27-.963-2.344-1.718-3.223a7.306 7.306 0 0 0-2.774-2.002c-1.094-.456-2.344-.684-3.75-.684h-4.277zm21.035 14.61c0-1.615.199-3.083.596-4.404.397-1.322.96-2.455 1.69-3.399a7.723 7.723 0 0 1 2.626-2.197c1.022-.521 2.165-.781 3.428-.781 1.289 0 2.415.218 3.379.654a7.136 7.136 0 0 1 2.5 1.885V1h3.613v30h-3.32l-.176-2.266a7.061 7.061 0 0 1-2.54 1.973c-.989.456-2.154.684-3.495.684-1.237 0-2.367-.267-3.389-.801a7.842 7.842 0 0 1-2.627-2.236c-.73-.958-1.292-2.09-1.69-3.399-.396-1.309-.595-2.738-.595-4.287v-.41zm3.613.41c0 1.055.108 2.047.322 2.978.215.931.55 1.742 1.006 2.432a5.107 5.107 0 0 0 1.739 1.64c.703.404 1.543.606 2.52.606.637 0 1.21-.075 1.718-.224a5.028 5.028 0 0 0 2.47-1.612 6.62 6.62 0 0 0 .83-1.25v-9.707a6.906 6.906 0 0 0-.82-1.191 5.039 5.039 0 0 0-1.084-.947 5.208 5.208 0 0 0-1.377-.625 5.998 5.998 0 0 0-1.699-.225c-.99 0-1.839.205-2.549.615-.71.41-1.292.967-1.748 1.67-.455.703-.79 1.52-1.006 2.451a13.22 13.22 0 0 0-.322 2.979v.41zm46.367-2.813h-12.324v10.079h14.317V31h-18.067V2.562h17.871v3.086h-14.12v9.141h12.323v3.066zm14.864 13.536c-1.472 0-2.803-.254-3.994-.762a8.914 8.914 0 0 1-3.057-2.12c-.846-.904-1.497-1.982-1.953-3.232-.456-1.25-.684-2.617-.684-4.101v-.82c0-1.72.257-3.256.772-4.61.514-1.354 1.2-2.493 2.06-3.418a8.91 8.91 0 0 1 2.95-2.119 8.476 8.476 0 0 1 3.456-.732c1.51 0 2.813.263 3.907.79a7.408 7.408 0 0 1 2.705 2.178c.71.925 1.234 2.019 1.572 3.282.339 1.263.508 2.636.508 4.12v1.622H451.73a9.05 9.05 0 0 0 .479 2.734 6.67 6.67 0 0 0 1.25 2.207 5.942 5.942 0 0 0 1.953 1.485c.762.364 1.624.546 2.588.546 1.276 0 2.357-.26 3.242-.78a8.146 8.146 0 0 0 2.324-2.071l2.207 1.719a9.652 9.652 0 0 1-1.23 1.513 8.393 8.393 0 0 1-1.69 1.309 8.889 8.889 0 0 1-2.216.918c-.834.228-1.778.342-2.832.342zm-.45-18.946c-.729 0-1.4.134-2.011.4a5.007 5.007 0 0 0-1.64 1.163c-.483.508-.883 1.14-1.202 1.894-.32.756-.537 1.621-.654 2.598h10.586v-.273c-.04-.704-.153-1.4-.342-2.09a5.675 5.675 0 0 0-.88-1.856 4.53 4.53 0 0 0-1.532-1.328c-.625-.338-1.4-.508-2.325-.508zm39.024 5.996h-11.934V31h-3.75V2.562h17.618v3.086h-13.868v9.727h11.934v3.066zM504.016 31V12.66h-3.34V9.867h3.34V7.641c0-1.133.16-2.139.478-3.018.32-.879.778-1.618 1.377-2.217a5.79 5.79 0 0 1 2.188-1.357c.859-.306 1.829-.46 2.91-.46.833 0 1.66.112 2.48.333l-.195 2.93a10.913 10.913 0 0 0-1.953-.176c-1.172 0-2.077.342-2.715 1.025-.638.684-.957 1.664-.957 2.94v2.226h4.512v2.793h-4.512V31h-3.613zm43.574-3.73c-.274.39-.651.823-1.133 1.298-.482.476-1.117.922-1.904 1.338-.788.417-1.755.768-2.9 1.055-1.146.286-2.52.43-4.122.43-1.732 0-3.323-.306-4.775-.918a10.541 10.541 0 0 1-3.75-2.647c-1.048-1.152-1.865-2.565-2.451-4.238-.586-1.673-.88-3.571-.88-5.693v-2.227c0-2.122.251-4.017.753-5.684.501-1.666 1.237-3.079 2.207-4.238a9.517 9.517 0 0 1 3.584-2.656c1.419-.612 3.047-.918 4.883-.918 1.627 0 3.053.218 4.277.654 1.224.436 2.266 1.042 3.125 1.817a8.726 8.726 0 0 1 2.05 2.763 12.12 12.12 0 0 1 1.036 3.496h-3.75a9.63 9.63 0 0 0-.674-2.177 5.71 5.71 0 0 0-1.26-1.797c-.534-.515-1.191-.921-1.972-1.221-.782-.3-1.72-.45-2.813-.45-1.328 0-2.474.242-3.437.723a6.29 6.29 0 0 0-2.383 2.07c-.625.9-1.09 1.986-1.397 3.262-.306 1.277-.459 2.715-.459 4.317v2.266c0 1.64.196 3.105.586 4.394.39 1.29.941 2.383 1.65 3.281a7.063 7.063 0 0 0 2.56 2.051c.995.469 2.099.703 3.31.703 1.015 0 1.878-.068 2.588-.205.71-.137 1.308-.306 1.797-.508.488-.201.882-.423 1.181-.664.3-.24.547-.465.742-.674v-6.386h-6.582V16.84h10.313v10.43zm4.824-7.012c0-1.615.192-3.083.576-4.404.384-1.322.938-2.455 1.66-3.399a7.602 7.602 0 0 1 2.627-2.197c1.029-.521 2.188-.781 3.477-.781 1.341 0 2.506.234 3.496.703a7.082 7.082 0 0 1 2.54 2.03l.175-2.343h3.3v20.684c0 1.393-.217 2.633-.654 3.72-.436 1.088-1.051 2.006-1.845 2.754a7.99 7.99 0 0 1-2.832 1.71c-1.094.39-2.305.585-3.633.585-.547 0-1.175-.062-1.885-.185a11.332 11.332 0 0 1-2.148-.606 9.638 9.638 0 0 1-2.08-1.123 6.745 6.745 0 0 1-1.7-1.738l1.875-2.168a8.471 8.471 0 0 0 1.367 1.367c.47.365.941.658 1.416.88.476.22.958.38 1.446.478.488.097.973.146 1.455.146.846 0 1.614-.12 2.305-.361.69-.241 1.279-.602 1.767-1.084a4.809 4.809 0 0 0 1.123-1.768c.26-.696.39-1.507.39-2.431V28.89a7.11 7.11 0 0 1-2.509 1.855c-.97.43-2.106.645-3.408.645-1.263 0-2.406-.267-3.428-.801a7.748 7.748 0 0 1-2.617-2.236c-.723-.958-1.28-2.09-1.67-3.399-.39-1.309-.586-2.738-.586-4.287v-.41zm3.633.41c0 1.055.107 2.047.322 2.978.215.931.547 1.742.996 2.432a5.02 5.02 0 0 0 1.729 1.64c.703.404 1.543.606 2.52.606.637 0 1.213-.078 1.728-.234a5.216 5.216 0 0 0 1.387-.645c.41-.273.771-.599 1.083-.976.313-.378.586-.795.82-1.25V15.57a7.247 7.247 0 0 0-.82-1.2 5.028 5.028 0 0 0-2.46-1.602 5.998 5.998 0 0 0-1.7-.225c-.99 0-1.836.205-2.539.615a5.133 5.133 0 0 0-1.738 1.67c-.456.703-.791 1.52-1.006 2.451a13.22 13.22 0 0 0-.322 2.979v.41zM218.157 96h-3.77V82.855H200.05V96h-3.75V67.562h3.75V79.79h14.336V67.562h3.77V96zm9.706-18.574a8.104 8.104 0 0 1 2.715-2.168c1.055-.521 2.233-.781 3.535-.781 1.029 0 1.96.14 2.793.42.834.28 1.543.729 2.13 1.347.585.619 1.038 1.413 1.357 2.383.319.97.478 2.145.478 3.525V96h-3.613V82.113c0-.82-.091-1.52-.274-2.1-.182-.579-.452-1.05-.81-1.415a3.194 3.194 0 0 0-1.328-.801c-.528-.17-1.136-.254-1.826-.254-1.172 0-2.201.312-3.086.937a6.366 6.366 0 0 0-2.07 2.461V96h-3.614V66h3.613v11.426zM260.773 96h-3.75V67.562h3.75V96zm10.215 0h-3.613V74.867h3.613V96zm-3.906-26.738c0-.586.18-1.081.537-1.485.358-.403.889-.605 1.592-.605.703 0 1.237.202 1.601.605.365.404.547.899.547 1.485 0 .586-.182 1.074-.546 1.465-.365.39-.899.585-1.602.585-.703 0-1.234-.195-1.592-.585-.358-.391-.537-.88-.537-1.465zm32.07-1.7h3.77V87.7c0 1.406-.221 2.653-.664 3.74-.443 1.088-1.065 1.996-1.865 2.725-.801.73-1.752 1.283-2.852 1.66-1.1.378-2.301.567-3.603.567-1.316 0-2.52-.166-3.614-.498-1.094-.332-2.038-.84-2.832-1.524-.794-.683-1.413-1.543-1.855-2.578-.443-1.035-.664-2.25-.664-3.643h3.75c0 .899.13 1.674.39 2.325.26.65.619 1.188 1.075 1.611a4.263 4.263 0 0 0 1.64.937 6.967 6.967 0 0 0 2.11.303c.742 0 1.432-.12 2.07-.361a4.63 4.63 0 0 0 1.66-1.065c.469-.468.833-1.054 1.094-1.757.26-.704.39-1.517.39-2.442V67.563zm13.32 7.305V98.52c0 1.953-.455 3.444-1.367 4.472-.911 1.029-2.298 1.543-4.16 1.543-.338 0-.716-.032-1.132-.097a6.231 6.231 0 0 1-1.075-.254v-2.891c.26.065.544.107.85.127.306.02.57.03.79.03.808 0 1.423-.219 1.847-.655.423-.436.634-1.195.634-2.275V74.867h3.614zm-3.984-5.605c0-.573.18-1.065.537-1.475.358-.41.883-.615 1.573-.615.703 0 1.237.202 1.601.605.365.404.547.899.547 1.485 0 .586-.182 1.074-.547 1.465-.364.39-.898.585-1.601.585s-1.23-.195-1.582-.585c-.352-.391-.528-.88-.528-1.465zm27.5 13.515l-3.476 3.614V96h-3.75V67.562h3.75v14.063l3.086-3.438 9.55-10.624h4.532L338.488 80.12 350.558 96h-4.492l-10.078-13.223zm23.184 3.438l-2.266 2.363V96h-3.613V66h3.613v18.145l1.934-2.325 6.582-6.953h4.394l-8.222 8.828L370.774 96h-4.239l-7.363-9.785zm28.613 6.719h13.477V96h-17.246V67.562h3.77v25.372zM408.898 96h-3.613V66h3.613v30zm21.094-28.438l9.297 23.204 9.297-23.204h4.863V96h-3.75V84.926l.352-11.953L440.715 96h-2.871l-9.317-22.969.371 11.895V96h-3.75V67.562h4.844zm32.91 7.305l.098 2.344a7.674 7.674 0 0 1 2.646-2.012c1.036-.482 2.243-.722 3.624-.722 1.367 0 2.574.27 3.623.81 1.048.54 1.852 1.403 2.412 2.588a8.006 8.006 0 0 1 2.744-2.46c1.126-.626 2.458-.938 3.994-.938 1.133 0 2.135.146 3.008.439a5.446 5.446 0 0 1 2.217 1.377c.605.625 1.064 1.42 1.377 2.383.312.963.468 2.11.468 3.437V96H485.5V82.094c0-.886-.107-1.621-.322-2.207-.215-.586-.518-1.055-.908-1.407a3.239 3.239 0 0 0-1.426-.732 7.823 7.823 0 0 0-1.856-.205c-.742 0-1.4.117-1.972.352a4.593 4.593 0 0 0-1.475.947c-.41.397-.736.866-.977 1.406a5.697 5.697 0 0 0-.459 1.729V96h-3.632V82.113c0-.82-.108-1.52-.323-2.1-.214-.579-.517-1.05-.908-1.415a3.572 3.572 0 0 0-1.416-.801 6.367 6.367 0 0 0-1.865-.254c-1.29 0-2.324.28-3.106.84a5.178 5.178 0 0 0-1.757 2.187V96h-3.614V74.867h3.418zM526.887 96h-3.77l-14.316-21.914V96h-3.77V67.562h3.77l14.355 22.012V67.563h3.73V96zm9.511-21.133l.118 2.656a8.168 8.168 0 0 1 2.734-2.236c1.068-.54 2.266-.81 3.594-.81 1.028 0 1.96.14 2.793.42.833.28 1.543.729 2.129 1.347.586.619 1.038 1.413 1.357 2.383.32.97.479 2.145.479 3.525V96h-3.614V82.113c0-.82-.09-1.52-.273-2.1-.182-.579-.453-1.05-.81-1.415a3.195 3.195 0 0 0-1.329-.801c-.527-.17-1.136-.254-1.826-.254-1.172 0-2.2.312-3.086.937a6.366 6.366 0 0 0-2.07 2.461V96h-3.614V74.867h3.418zM218.176 147.7c0 2.136-.27 4.046-.81 5.733-.541 1.686-1.306 3.121-2.296 4.306a9.82 9.82 0 0 1-3.593 2.715c-1.407.625-2.976.938-4.707.938-1.68 0-3.223-.313-4.63-.938a10.176 10.176 0 0 1-3.632-2.715c-1.016-1.185-1.804-2.62-2.363-4.306-.56-1.687-.84-3.597-.84-5.733v-1.797c0-2.122.28-4.033.84-5.732.56-1.7 1.34-3.141 2.343-4.326a10.096 10.096 0 0 1 3.614-2.725c1.406-.631 2.949-.947 4.628-.947 1.732 0 3.304.316 4.717.947a9.985 9.985 0 0 1 3.614 2.725c.996 1.185 1.764 2.627 2.304 4.326.54 1.7.81 3.61.81 5.732v1.797zm-3.73-1.836c0-1.692-.173-3.19-.518-4.492-.345-1.302-.85-2.396-1.514-3.281a6.508 6.508 0 0 0-2.432-2.012c-.957-.456-2.04-.683-3.252-.683-1.158 0-2.213.227-3.164.683a6.61 6.61 0 0 0-2.431 2.012c-.67.885-1.188 1.979-1.553 3.281s-.547 2.8-.547 4.492v1.836c0 1.706.186 3.21.557 4.512.37 1.302.895 2.399 1.572 3.291.677.892 1.49 1.566 2.441 2.021.951.456 2.006.684 3.165.684 1.223 0 2.31-.228 3.261-.684a6.416 6.416 0 0 0 2.412-2.021c.658-.892 1.156-1.989 1.494-3.291.339-1.302.508-2.806.508-4.512v-1.836zm7.831 4.375c0-1.536.225-2.959.674-4.267.45-1.309 1.087-2.445 1.914-3.409a8.76 8.76 0 0 1 3.018-2.265c1.185-.547 2.513-.82 3.984-.82 1.498 0 2.842.273 4.033.82a8.834 8.834 0 0 1 3.037 2.266c.834.963 1.472 2.1 1.915 3.408.442 1.308.664 2.73.664 4.267v.43c0 1.536-.222 2.959-.664 4.268-.443 1.308-1.081 2.44-1.915 3.398a8.807 8.807 0 0 1-3.027 2.246c-1.185.54-2.52.81-4.004.81-1.484 0-2.819-.27-4.004-.81a8.807 8.807 0 0 1-3.027-2.246c-.833-.957-1.475-2.09-1.924-3.398-.449-1.31-.674-2.732-.674-4.268v-.43zm3.633.43c0 1.055.124 2.05.371 2.988.248.938.622 1.761 1.123 2.471a5.612 5.612 0 0 0 1.875 1.69c.749.416 1.625.624 2.627.624.99 0 1.862-.208 2.617-.625a5.49 5.49 0 0 0 1.875-1.689c.495-.71.87-1.533 1.123-2.47.254-.938.381-1.934.381-2.989v-.43a11.42 11.42 0 0 0-.38-2.978c-.254-.944-.632-1.771-1.133-2.48a5.68 5.68 0 0 0-1.885-1.7c-.755-.423-1.634-.635-2.637-.635-.99 0-1.855.212-2.597.635a5.744 5.744 0 0 0-1.866 1.7c-.501.709-.875 1.536-1.123 2.48a11.704 11.704 0 0 0-.37 2.978v.43zm34.356-.8V161h-3.75v-28.438h10.488c1.614 0 3.04.215 4.277.645 1.237.43 2.276 1.032 3.115 1.807a7.668 7.668 0 0 1 1.915 2.754c.436 1.06.654 2.223.654 3.486 0 1.367-.218 2.588-.654 3.662a7.02 7.02 0 0 1-1.915 2.705c-.84.73-1.878 1.286-3.115 1.67-1.237.384-2.663.576-4.277.576h-6.738zm0-3.067h6.738c1.094 0 2.034-.137 2.822-.41.788-.274 1.432-.655 1.934-1.143a4.435 4.435 0 0 0 1.103-1.738 6.68 6.68 0 0 0 .352-2.217 6.49 6.49 0 0 0-.352-2.12 4.837 4.837 0 0 0-1.103-1.806c-.502-.52-1.146-.937-1.934-1.25-.788-.312-1.728-.469-2.822-.469h-6.738v11.153zm38.77 3.867c0 1.55-.183 2.978-.548 4.287-.364 1.309-.895 2.441-1.592 3.399a7.412 7.412 0 0 1-2.568 2.236c-1.016.534-2.174.8-3.476.8-1.329 0-2.49-.208-3.487-.624a7.107 7.107 0 0 1-2.568-1.817v10.176h-3.613v-29.258h3.3l.176 2.344a7.165 7.165 0 0 1 2.598-2.031c1.015-.47 2.194-.703 3.535-.703 1.328 0 2.503.26 3.525.78a7.36 7.36 0 0 1 2.588 2.198c.703.944 1.234 2.077 1.592 3.399.358 1.321.537 2.79.537 4.404v.41zm-3.614-.41c0-1.055-.11-2.048-.332-2.979-.222-.93-.567-1.748-1.035-2.45a5.25 5.25 0 0 0-1.778-1.67c-.716-.411-1.569-.616-2.558-.616a6.07 6.07 0 0 0-1.67.215 5.042 5.042 0 0 0-1.358.605c-.403.26-.761.57-1.074.928a6.928 6.928 0 0 0-.82 1.162v10.098c.234.416.508.804.82 1.162.313.358.67.664 1.074.918s.86.452 1.368.596a6.254 6.254 0 0 0 1.699.214c.976 0 1.82-.208 2.53-.625a5.375 5.375 0 0 0 1.767-1.68c.468-.702.813-1.526 1.035-2.47a13.1 13.1 0 0 0 .332-2.998v-.41zm40.39-2.559c0 2.748-.436 5.114-1.308 7.1-.872 1.986-2.096 3.538-3.672 4.658l5.078 3.984-2.558 2.364-5.997-4.766a12.2 12.2 0 0 1-2.968.352c-1.68 0-3.223-.313-4.63-.938a10.176 10.176 0 0 1-3.632-2.715c-1.016-1.185-1.803-2.62-2.363-4.306-.56-1.687-.84-3.597-.84-5.733v-1.797c0-2.122.28-4.033.84-5.732.56-1.7 1.34-3.141 2.343-4.326a10.096 10.096 0 0 1 3.614-2.725c1.406-.631 2.949-.947 4.629-.947 1.731 0 3.304.316 4.716.947 1.413.632 2.62 1.54 3.623 2.725 1.003 1.185 1.775 2.627 2.315 4.326.54 1.7.81 3.61.81 5.732v1.797zm-3.75-1.836c0-1.692-.172-3.19-.517-4.492-.345-1.302-.846-2.396-1.504-3.281a6.428 6.428 0 0 0-2.422-2.012c-.957-.456-2.047-.683-3.271-.683-1.16 0-2.21.227-3.155.683-.944.456-1.75 1.126-2.422 2.012-.67.885-1.188 1.979-1.552 3.281-.365 1.302-.547 2.8-.547 4.492v1.836c0 1.706.185 3.21.557 4.512.37 1.302.891 2.399 1.562 3.291.67.892 1.481 1.566 2.432 2.021.95.456 2.005.684 3.164.684 1.224 0 2.31-.228 3.261-.684a6.416 6.416 0 0 0 2.413-2.021c.657-.892 1.155-1.989 1.494-3.291.338-1.302.507-2.806.507-4.512v-1.836zm8.086 4.395c0-1.615.19-3.083.567-4.404.377-1.322.928-2.455 1.65-3.399a7.55 7.55 0 0 1 2.647-2.197c1.041-.521 2.226-.781 3.554-.781 1.29 0 2.422.214 3.399.644a6.988 6.988 0 0 1 2.52 1.875l.156-2.129h3.32v29.258h-3.613v-10.078a7.149 7.149 0 0 1-2.5 1.738c-.964.404-2.07.606-3.32.606-1.316 0-2.49-.267-3.526-.801a7.598 7.598 0 0 1-2.627-2.236c-.716-.958-1.266-2.09-1.65-3.399-.385-1.309-.577-2.738-.577-4.287v-.41zm3.614.41c0 1.055.11 2.054.332 2.998.221.944.566 1.768 1.035 2.47a5.375 5.375 0 0 0 1.767 1.68c.71.417 1.553.625 2.53.625 1.198 0 2.194-.267 2.988-.8a6.335 6.335 0 0 0 1.934-2.051v-10.352a6.798 6.798 0 0 0-.85-1.113 5.254 5.254 0 0 0-1.084-.879 5.519 5.519 0 0 0-1.338-.586 5.709 5.709 0 0 0-1.611-.215c-.99 0-1.843.212-2.559.635a5.402 5.402 0 0 0-1.777 1.7c-.469.709-.814 1.536-1.035 2.48a13.1 13.1 0 0 0-.332 2.998v.41zm40.898-1.172h-6.68V161h-3.77v-28.438h9.415c3.203 0 5.667.73 7.393 2.188 1.725 1.458 2.587 3.58 2.587 6.367 0 1.771-.478 3.314-1.435 4.63-.957 1.314-2.288 2.297-3.994 2.948l6.68 12.07V161h-4.024l-6.172-11.504zm-6.68-3.066h5.762c1.016 0 1.904-.14 2.666-.42.762-.28 1.397-.658 1.904-1.133a4.565 4.565 0 0 0 1.143-1.68c.254-.644.38-1.338.38-2.08 0-.82-.12-1.566-.36-2.236a4.396 4.396 0 0 0-1.123-1.729c-.508-.481-1.153-.853-1.934-1.113-.781-.26-1.712-.39-2.793-.39h-5.645v10.78zm30.528-3.32a9.557 9.557 0 0 0-1.778-.137c-1.25 0-2.268.273-3.056.82-.788.547-1.377 1.283-1.768 2.207v15h-3.613v-21.133h3.516l.058 2.442c.547-.873 1.23-1.563 2.051-2.07.82-.509 1.816-.762 2.988-.762.26 0 .56.029.899.087.338.059.573.12.703.186v3.36zm28.945 10.702c0-.664-.1-1.25-.303-1.757-.201-.508-.56-.974-1.074-1.397-.514-.423-1.208-.82-2.08-1.191-.872-.371-1.98-.752-3.32-1.143a28.205 28.205 0 0 1-3.819-1.377c-1.139-.514-2.109-1.107-2.91-1.777-.8-.67-1.416-1.436-1.845-2.295-.43-.86-.645-1.842-.645-2.95a6.9 6.9 0 0 1 .693-3.075 7.35 7.35 0 0 1 1.963-2.461c.847-.697 1.862-1.24 3.047-1.631 1.185-.39 2.507-.586 3.965-.586 1.602 0 3.027.24 4.277.723 1.25.481 2.302 1.12 3.155 1.914a8.015 8.015 0 0 1 1.943 2.754 8.162 8.162 0 0 1 .664 3.222h-3.77c0-.794-.126-1.53-.38-2.207a4.64 4.64 0 0 0-1.162-1.758c-.521-.494-1.172-.879-1.954-1.152-.78-.273-1.705-.41-2.773-.41-1.003 0-1.875.117-2.617.351-.742.235-1.354.557-1.836.967a3.84 3.84 0 0 0-1.074 1.455 4.707 4.707 0 0 0-.352 1.836c0 .6.127 1.146.381 1.64.254.496.648.951 1.182 1.368.533.417 1.22.8 2.06 1.152.84.352 1.846.69 3.018 1.016 1.614.456 3.008.96 4.18 1.514 1.171.553 2.138 1.181 2.9 1.884.762.704 1.328 1.491 1.699 2.364.371.872.557 1.862.557 2.968 0 1.16-.235 2.207-.703 3.145a6.878 6.878 0 0 1-2.002 2.402c-.866.664-1.908 1.175-3.125 1.534-1.218.358-2.575.537-4.073.537-.872 0-1.744-.082-2.617-.245a12.956 12.956 0 0 1-2.51-.732c-.8-.325-1.543-.73-2.226-1.21a8.603 8.603 0 0 1-1.787-1.68 7.519 7.519 0 0 1-1.192-2.149c-.286-.794-.43-1.667-.43-2.617h3.77c0 .976.192 1.813.576 2.51a5.112 5.112 0 0 0 1.543 1.728 6.686 6.686 0 0 0 2.227 1.006c.84.215 1.722.322 2.646.322 1.98 0 3.496-.403 4.551-1.21 1.055-.808 1.582-1.908 1.582-3.302zm20.313 1.583c0-.391-.059-.759-.176-1.104-.117-.345-.348-.67-.694-.977-.345-.306-.836-.589-1.474-.85-.638-.26-1.478-.5-2.52-.722a23.854 23.854 0 0 1-3.164-.879c-.937-.338-1.735-.745-2.392-1.22-.658-.476-1.162-1.039-1.514-1.69-.352-.65-.527-1.413-.527-2.285 0-.833.185-1.624.556-2.373a6.075 6.075 0 0 1 1.573-1.973c.677-.566 1.497-1.015 2.46-1.347.964-.332 2.038-.498 3.223-.498 1.263 0 2.393.172 3.389.517.996.345 1.842.817 2.539 1.416a6.059 6.059 0 0 1 1.592 2.1c.364.8.547 1.657.547 2.568h-3.633c0-.43-.098-.863-.293-1.299a3.54 3.54 0 0 0-.86-1.172 4.433 4.433 0 0 0-1.386-.84c-.547-.214-1.179-.322-1.895-.322-.755 0-1.396.088-1.924.264-.527.176-.96.41-1.298.703a2.701 2.701 0 0 0-.743.996 2.918 2.918 0 0 0-.234 1.143c0 .39.065.742.195 1.054.13.313.378.596.742.85.365.254.863.488 1.495.703.631.215 1.448.433 2.45.655 1.29.299 2.41.638 3.36 1.015.95.378 1.738.817 2.363 1.318.625.502 1.09 1.078 1.397 1.729.306.651.459 1.406.459 2.266 0 .924-.192 1.77-.576 2.539a5.632 5.632 0 0 1-1.65 1.972c-.717.547-1.576.974-2.579 1.28-1.002.306-2.116.459-3.34.459-1.406 0-2.646-.196-3.72-.586-1.075-.39-1.976-.909-2.705-1.553a6.581 6.581 0 0 1-1.66-2.207 6.074 6.074 0 0 1-.567-2.549h3.613c.04.742.218 1.364.537 1.865.32.502.72.909 1.202 1.221.481.313 1.009.534 1.582.664.573.13 1.145.195 1.718.195.743 0 1.394-.078 1.954-.234.56-.156 1.031-.371 1.416-.644.384-.274.673-.596.869-.967a2.54 2.54 0 0 0 .293-1.201zm38.437-19.747h-9.14V161h-3.731v-25.352h-9.121v-3.085h21.992v3.085zm8.555-.898v5.117h3.945v2.793h-3.945v13.106c0 .547.065.986.195 1.318.13.332.303.59.518.771.215.183.462.303.742.362.28.058.57.088.869.088.3 0 .615-.03.947-.088.332-.059.59-.108.772-.147V161c-.287.078-.658.163-1.113.254-.456.091-1.01.137-1.66.137a6.17 6.17 0 0 1-1.885-.284 3.797 3.797 0 0 1-1.553-.947c-.443-.443-.794-1.025-1.055-1.748-.26-.723-.39-1.611-.39-2.666V142.66h-3.848v-2.793h3.848v-5.117h3.613zm38.652-2.188v19.258c0 1.602-.28 3.002-.84 4.2-.56 1.197-1.312 2.194-2.256 2.988-.944.794-2.04 1.39-3.29 1.787s-2.566.596-3.946.596c-1.445 0-2.793-.199-4.043-.596-1.25-.397-2.334-.993-3.252-1.787-.918-.794-1.64-1.79-2.168-2.988-.527-1.198-.79-2.598-.79-4.2v-19.257h3.71v19.257c0 1.107.16 2.067.479 2.881.319.814.765 1.491 1.338 2.031.572.54 1.26.941 2.06 1.202.8.26 1.69.39 2.666.39.99 0 1.888-.13 2.695-.39a5.374 5.374 0 0 0 2.07-1.202c.574-.54 1.016-1.217 1.329-2.03.312-.815.469-1.775.469-2.882v-19.257h3.77zm18.399 26.348c-.664.781-1.504 1.39-2.52 1.826-1.016.437-2.24.655-3.672.655-1.041 0-1.985-.147-2.832-.44a5.512 5.512 0 0 1-2.187-1.387c-.612-.631-1.084-1.445-1.416-2.441-.332-.996-.498-2.197-.498-3.603v-13.653h3.613v13.692c0 .95.11 1.735.332 2.353.221.619.514 1.107.879 1.465.364.358.781.605 1.25.742s.95.205 1.445.205c1.471 0 2.653-.28 3.545-.84a5.005 5.005 0 0 0 1.963-2.246v-15.37h3.613V161h-3.437l-.078-2.09zm-356.094 62.11l8.125-23.458h4.101L207.395 226h-3.32l-10.528-28.438h4.082l8.086 23.458zm22.441.078l5.235-16.23h3.691L229.504 226h-2.754l-7.656-21.133h3.691l5.371 16.23zm29.004-4.063l.547 3.75.8-3.379 5.626-19.844h3.164l5.488 19.844.781 3.438.606-3.828 4.414-19.453h3.77L275.46 226h-3.418l-5.86-20.723-.449-2.168-.449 2.168L259.211 226h-3.418l-6.875-28.438h3.75l4.492 19.473zm47.5 3.985l4.063-16.153h3.613L306.184 226h-2.93l-5.137-16.016-5 16.016h-2.93l-6.132-21.133h3.593l4.16 15.82 4.922-15.82h2.91l5.02 16.153zm31.094-12.56l6.816-10.898h4.414L338 211.665 347.2 226h-4.454l-6.992-11.094L328.723 226h-4.434l9.219-14.336-9.004-14.101h4.394l6.856 10.898zm22.324 4.122l4.688-7.715h4.218l-6.914 10.45L367.2 226h-4.18l-4.883-7.91-4.883 7.91h-4.2l7.13-10.684-6.914-10.449h4.18l4.628 7.715zm31.875-.742l7.422-14.278h4.258l-9.805 17.833V226h-3.75v-10.605l-9.805-17.833h4.297l7.383 14.278zm21.7 8.867l4.921-15.84h3.867l-8.496 24.395c-.195.52-.449 1.087-.761 1.699a7.285 7.285 0 0 1-1.221 1.709 6.594 6.594 0 0 1-1.807 1.328c-.703.358-1.53.537-2.48.537-.143 0-.313-.013-.508-.039a18.177 18.177 0 0 1-1.133-.185c-.17-.033-.3-.062-.39-.088v-2.93c.052.013.123.023.214.03a60.08 60.08 0 0 0 .557.038c.085.007.153.01.205.01.612 0 1.152-.058 1.621-.176.469-.117.886-.309 1.25-.576.365-.267.68-.622.947-1.064.267-.443.512-.99.733-1.64l.8-2.15-7.538-20.898h3.945l5.273 15.84zm25.292 2.227h16.27V226h-20.703v-2.813l15.586-22.539h-15.332v-3.085h19.824v2.753l-15.645 22.618zm23.965.117h12.363V226h-16.777v-2.656l11.66-15.489h-11.484v-2.988h16.015v2.559L460.91 223.05z"/></g></svg>