<svg xmlns="http://www.w3.org/2000/svg" width="274" height="180"><g fill="none" fill-rule="evenodd"><path fill="#25E297" d="M0 0h274v180H0z"/><path fill="#FAFAFF" d="M24.48 147.22l1.14-.86c.68.98 1.68 1.6 2.98 1.6 1.56 0 2.24-.84 2.24-1.72 0-2.64-6.16-1.24-6.04-5.04.06-1.8 1.44-2.82 3.44-2.8 1.36.02 2.86.76 3.56 1.82l-1 .88c-.8-.98-1.56-1.46-2.68-1.46-1.22 0-1.88.62-1.88 1.54 0 2.26 6.04 1.1 6.04 4.98 0 2.02-1.76 3.04-3.64 3.04-1.62 0-3.2-.7-4.16-1.98zM42.47 149h-1.44v-1.4h-.04c-.82.92-1.9 1.6-3.08 1.6-1.54 0-3-.8-3-3.04v-7.56h1.44v7.52c0 1.38.66 1.84 1.7 1.84 1.08 0 2.32-.88 2.98-1.58v-7.78h1.44V149zm10.89-7.78l-1.34.48c-.4-1.26-1.22-2.06-2.46-2.06-1.78 0-2.82 1.52-2.82 4.16s1.04 4.16 2.82 4.16c1.32 0 2.06-.44 2.86-1.92l1.16.52c-1.04 1.76-1.96 2.64-4.02 2.64-2.6 0-4.26-2.04-4.26-5.4 0-3.36 1.66-5.4 4.26-5.4 2.14 0 3.14 1.2 3.8 2.82zm10.25 0l-1.34.48c-.4-1.26-1.22-2.06-2.46-2.06-1.78 0-2.82 1.52-2.82 4.16s1.04 4.16 2.82 4.16c1.32 0 2.06-.44 2.86-1.92l1.16.52c-1.04 1.76-1.96 2.64-4.02 2.64-2.6 0-4.26-2.04-4.26-5.4 0-3.36 1.66-5.4 4.26-5.4 2.14 0 3.14 1.2 3.8 2.82zm9.59 4.98l1.12.58c-.68 1.18-1.64 2.42-4 2.42-2.32 0-4.52-1.6-4.52-5.4 0-3.36 1.68-5.4 4.24-5.4 2.16 0 3.96 1.4 3.96 4.72v.96h-6.76c0 2.28 1.36 3.88 3.08 3.88 1.28 0 2.28-.68 2.88-1.76zm-5.92-3.36h5.28c0-1.92-.92-3.2-2.48-3.2-1.74 0-2.68 1.28-2.8 3.2zm8.45 4.38l1.14-.86c.68.98 1.68 1.6 2.98 1.6 1.56 0 2.24-.84 2.24-1.72 0-2.64-6.16-1.24-6.04-5.04.06-1.8 1.44-2.82 3.44-2.8 1.36.02 2.86.76 3.56 1.82l-1 .88c-.8-.98-1.56-1.46-2.68-1.46-1.22 0-1.88.62-1.88 1.54 0 2.26 6.04 1.1 6.04 4.98 0 2.02-1.76 3.04-3.64 3.04-1.62 0-3.2-.7-4.16-1.98zm9.13 0l1.14-.86c.68.98 1.68 1.6 2.98 1.6 1.56 0 2.24-.84 2.24-1.72 0-2.64-6.16-1.24-6.04-5.04.06-1.8 1.44-2.82 3.44-2.8 1.36.02 2.86.76 3.56 1.82l-1 .88c-.8-.98-1.56-1.46-2.68-1.46-1.22 0-1.88.62-1.88 1.54 0 2.26 6.04 1.1 6.04 4.98 0 2.02-1.76 3.04-3.64 3.04-1.62 0-3.2-.7-4.16-1.98z"/></g></svg>