<svg xmlns="http://www.w3.org/2000/svg" width="320" height="87"><g fill="none" fill-rule="evenodd"><path fill="#8B949B" d="M.797 48V33.781h4.2c.722 0 1.37.073 1.942.22.573.146 1.06.371 1.46.674.4.303.708.688.923 1.157.215.469.323 1.025.323 1.67 0 .365-.05.708-.152 1.03-.1.322-.249.617-.444.884s-.431.5-.708.698c-.277.199-.591.357-.943.474a3.55 3.55 0 0 1 1.133.454 3.41 3.41 0 0 1 1.426 1.782c.13.371.195.762.195 1.172 0 .651-.109 1.226-.327 1.724a3.408 3.408 0 0 1-.928 1.255c-.4.338-.88.594-1.44.766A6.28 6.28 0 0 1 5.602 48H.797zm1.201-6.836v5.82h3.604c.52 0 .988-.068 1.4-.205a3.013 3.013 0 0 0 1.056-.586c.29-.254.51-.564.664-.932.153-.368.23-.783.23-1.245 0-.398-.066-.77-.196-1.119a2.397 2.397 0 0 0-.6-.908 2.85 2.85 0 0 0-1.016-.605c-.407-.147-.887-.22-1.44-.22H1.997zm0-1.006h3.281c1.003-.02 1.78-.255 2.33-.708.55-.452.825-1.111.825-1.977 0-.912-.285-1.584-.855-2.017-.57-.433-1.43-.65-2.583-.65H1.998v5.352zm10.851 2.403c0-.769.112-1.478.337-2.13a5.044 5.044 0 0 1 .952-1.684c.41-.472.905-.841 1.484-1.108.58-.267 1.224-.4 1.934-.4.723 0 1.375.133 1.958.4s1.08.636 1.49 1.108c.41.472.725 1.034.947 1.685.221.65.332 1.36.332 2.129v.322c0 .768-.111 1.478-.332 2.129a4.979 4.979 0 0 1-.948 1.684c-.41.472-.905.84-1.484 1.104-.58.263-1.227.395-1.943.395-.717 0-1.364-.132-1.944-.395a4.351 4.351 0 0 1-1.489-1.104 4.998 4.998 0 0 1-.957-1.684 6.488 6.488 0 0 1-.337-2.13v-.321zm1.172.322c0 .58.078 1.131.234 1.655.157.524.384.983.684 1.377.3.394.67.708 1.113.942.443.235.95.352 1.524.352.573 0 1.079-.117 1.518-.352.44-.234.81-.548 1.109-.942.299-.394.527-.853.683-1.377a5.763 5.763 0 0 0 .235-1.655v-.322c0-.567-.079-1.112-.235-1.636a4.322 4.322 0 0 0-.683-1.382 3.363 3.363 0 0 0-1.119-.952c-.446-.238-.955-.357-1.528-.357-.566 0-1.07.12-1.509.357-.44.237-.809.555-1.108.952-.3.397-.527.858-.684 1.382a5.695 5.695 0 0 0-.234 1.636v.322zm10.92-.264c0-.82.094-1.56.282-2.222.19-.66.46-1.225.811-1.694a3.63 3.63 0 0 1 1.284-1.084c.505-.254 1.073-.38 1.704-.38.749 0 1.392.149 1.929.449.537.299.981.712 1.333 1.24V33h1.162v15h-1.094l-.048-1.406a3.71 3.71 0 0 1-1.343 1.177c-.544.283-1.196.424-1.958.424a3.573 3.573 0 0 1-1.69-.395 3.77 3.77 0 0 1-1.279-1.104c-.352-.472-.622-1.036-.81-1.694a7.874 7.874 0 0 1-.284-2.178v-.205zm1.18.205c0 .619.063 1.193.186 1.724.124.53.313.991.567 1.382.254.39.574.696.962.918.387.221.848.332 1.382.332.397 0 .756-.048 1.079-.142a2.896 2.896 0 0 0 1.514-1.001c.185-.234.343-.488.473-.762v-4.96a4.736 4.736 0 0 0-.43-.772 2.92 2.92 0 0 0-1.484-1.118 3.426 3.426 0 0 0-1.133-.171c-.54 0-1.006.112-1.396.337-.39.224-.713.532-.967.923-.254.39-.443.853-.567 1.386a7.602 7.602 0 0 0-.185 1.72v.204zm14.465 3.496l3.086-8.886h1.26l-4.473 12.255c-.09.241-.206.512-.346.811-.14.3-.323.58-.547.84-.225.26-.505.48-.84.659-.335.18-.744.269-1.226.269-.065 0-.14-.005-.224-.015a6.782 6.782 0 0 1-.254-.034 3.97 3.97 0 0 1-.42-.088l-.01-.967c.078.013.184.026.317.04a2.59 2.59 0 0 0 1.118-.103c.242-.082.451-.202.63-.362.18-.16.337-.36.474-.6.137-.241.26-.518.371-.83l.508-1.397-3.984-10.478h1.279l3.281 8.886zM11.334 78h-1.211v-6.816H1.998V78H.797V63.781h1.201v6.387h8.125v-6.387h1.211V78zm10.724 0a3.357 3.357 0 0 1-.151-.669 9.257 9.257 0 0 1-.074-.806 4.152 4.152 0 0 1-1.435 1.172 4.701 4.701 0 0 1-2.148.498 4.15 4.15 0 0 1-1.402-.224c-.42-.15-.778-.36-1.074-.63a2.846 2.846 0 0 1-.933-2.144c0-.514.11-.978.332-1.391a3.01 3.01 0 0 1 .957-1.055c.417-.29.923-.511 1.519-.664a8.078 8.078 0 0 1 2.007-.23h2.168v-1.2c0-.756-.233-1.35-.699-1.783-.465-.433-1.144-.65-2.036-.65-.41 0-.787.056-1.133.167a2.86 2.86 0 0 0-.893.459 2.18 2.18 0 0 0-.586.678 1.7 1.7 0 0 0-.21.826l-1.172-.01c0-.397.098-.781.293-1.153.195-.37.47-.701.825-.99.355-.29.782-.523 1.28-.699a4.946 4.946 0 0 1 1.655-.264c.56 0 1.076.072 1.548.215.472.143.877.358 1.216.645.338.286.602.644.79 1.074.19.43.284.93.284 1.504v5.117c0 .182.006.371.02.566.012.196.033.384.063.567.03.182.063.356.102.522.04.166.085.311.137.435V78h-1.25zm-3.672-.84c.423 0 .816-.054 1.177-.161.361-.107.688-.256.981-.444.293-.19.547-.409.762-.66a3.32 3.32 0 0 0 .518-.815v-2.324h-2.002a7.27 7.27 0 0 0-1.607.161c-.472.107-.87.262-1.196.464a2.19 2.19 0 0 0-.747.737c-.173.29-.259.617-.259.982 0 .286.055.555.166.805.11.25.269.469.474.655.205.185.454.332.747.439.293.107.622.161.986.161zm13.312-8.73a4.365 4.365 0 0 0-.79-.069c-.398 0-.756.059-1.075.176-.32.117-.6.282-.845.493-.244.212-.45.463-.615.752a4.17 4.17 0 0 0-.396.962V78h-1.162V67.434h1.143l.02 1.68a3.497 3.497 0 0 1 1.166-1.373c.492-.335 1.096-.503 1.812-.503.143 0 .29.013.44.04.15.025.26.055.331.087l-.029 1.065zm3.625-.996l.039 1.718c.175-.286.379-.548.61-.786.231-.237.49-.44.776-.605.287-.166.6-.295.938-.386a4.194 4.194 0 0 1 1.094-.137c.774 0 1.438.163 1.992.489.553.325.947.846 1.181 1.562.17-.293.373-.565.61-.815a3.84 3.84 0 0 1 .811-.65 4.129 4.129 0 0 1 1.001-.43 4.286 4.286 0 0 1 1.182-.156c.547 0 1.035.074 1.465.22.43.146.792.378 1.089.693.296.316.522.718.678 1.206.157.489.235 1.075.235 1.758V78h-1.172v-6.895c0-.56-.062-1.023-.186-1.391-.123-.368-.3-.66-.527-.879-.228-.218-.5-.37-.815-.454a4.01 4.01 0 0 0-1.04-.127c-.495.006-.928.096-1.3.268-.37.173-.685.391-.942.655a2.974 2.974 0 0 0-.6.884 2.98 2.98 0 0 0-.254.947V78h-1.172v-6.982c0-.528-.062-.967-.186-1.319a2.101 2.101 0 0 0-.527-.85 1.962 1.962 0 0 0-.815-.458 3.778 3.778 0 0 0-1.05-.137c-.443 0-.834.07-1.172.21-.339.14-.633.327-.884.561-.25.235-.457.502-.62.801a5.01 5.01 0 0 0-.39.928V78h-1.173V67.434h1.124zm16.73 5.127c0-.769.112-1.478.336-2.13a5.044 5.044 0 0 1 .953-1.684c.41-.472.904-.841 1.484-1.108.58-.267 1.224-.4 1.933-.4.723 0 1.376.133 1.958.4.583.267 1.08.636 1.49 1.108.41.472.726 1.034.947 1.685.221.65.332 1.36.332 2.129v.322c0 .768-.11 1.478-.332 2.129a4.979 4.979 0 0 1-.947 1.684c-.41.472-.905.84-1.485 1.104-.58.263-1.227.395-1.943.395s-1.364-.132-1.943-.395a4.351 4.351 0 0 1-1.49-1.104 4.998 4.998 0 0 1-.957-1.684 6.488 6.488 0 0 1-.337-2.13v-.321zm1.171.322c0 .58.078 1.131.235 1.655.156.524.384.983.683 1.377.3.394.67.708 1.114.942.442.235.95.352 1.523.352s1.08-.117 1.519-.352c.439-.234.808-.548 1.108-.942.3-.394.527-.853.684-1.377a5.763 5.763 0 0 0 .234-1.655v-.322c0-.567-.078-1.112-.234-1.636a4.322 4.322 0 0 0-.684-1.382 3.363 3.363 0 0 0-1.118-.952c-.446-.238-.956-.357-1.529-.357-.566 0-1.069.12-1.508.357-.44.237-.81.555-1.109.952-.3.397-.527.858-.683 1.382a5.695 5.695 0 0 0-.235 1.636v.322zm12.502-5.45l.039 1.807c.182-.3.392-.573.63-.82a3.834 3.834 0 0 1 2.817-1.182c.527 0 1 .072 1.416.215.417.143.77.371 1.06.684.29.312.51.714.664 1.206.153.491.23 1.085.23 1.782V78h-1.163v-6.885c0-.547-.059-1.002-.176-1.367-.117-.365-.283-.658-.498-.879a1.812 1.812 0 0 0-.786-.473 3.52 3.52 0 0 0-1.03-.142c-.417 0-.794.07-1.133.21-.339.14-.638.327-.898.561a3.74 3.74 0 0 0-.674.806 4.626 4.626 0 0 0-.45.933V78h-1.162V67.434h1.114zM77.622 78H76.45V67.434h1.172V78zm-1.377-13.623c0-.221.071-.409.215-.562.143-.153.338-.23.585-.23.248 0 .445.077.591.23.147.153.22.34.22.562a.765.765 0 0 1-.22.557c-.146.15-.343.224-.59.224-.248 0-.443-.075-.586-.224a.774.774 0 0 1-.215-.557zM88.18 78a3.357 3.357 0 0 1-.152-.669 9.257 9.257 0 0 1-.073-.806 4.152 4.152 0 0 1-1.435 1.172 4.701 4.701 0 0 1-2.148.498 4.15 4.15 0 0 1-1.402-.224c-.42-.15-.778-.36-1.074-.63a2.846 2.846 0 0 1-.933-2.144c0-.514.11-.978.332-1.391a3.01 3.01 0 0 1 .957-1.055c.417-.29.923-.511 1.519-.664a8.078 8.078 0 0 1 2.006-.23h2.168v-1.2c0-.756-.232-1.35-.698-1.783-.465-.433-1.144-.65-2.036-.65-.41 0-.788.056-1.133.167a2.86 2.86 0 0 0-.893.459 2.18 2.18 0 0 0-.586.678 1.7 1.7 0 0 0-.21.826l-1.172-.01c0-.397.097-.781.293-1.153.195-.37.47-.701.825-.99.355-.29.781-.523 1.28-.699a4.946 4.946 0 0 1 1.655-.264c.56 0 1.075.072 1.547.215.472.143.878.358 1.216.645.339.286.602.644.791 1.074.189.43.283.93.283 1.504v5.117c0 .182.007.371.02.566.013.196.034.384.063.567.03.182.064.356.103.522.039.166.085.311.137.435V78h-1.25zm-3.672-.84c.423 0 .815-.054 1.177-.161.36-.107.688-.256.981-.444.293-.19.547-.409.762-.66a3.32 3.32 0 0 0 .517-.815v-2.324h-2.002a7.27 7.27 0 0 0-1.606.161c-.472.107-.87.262-1.196.464a2.19 2.19 0 0 0-.747.737c-.173.29-.26.617-.26.982 0 .286.056.555.167.805.11.25.268.469.473.655.205.185.455.332.747.439.293.107.622.161.987.161zm22.327-2.656c0-.39-.064-.737-.19-1.04a2.183 2.183 0 0 0-.645-.83c-.303-.25-.702-.48-1.196-.689a16.065 16.065 0 0 0-1.856-.625 17.344 17.344 0 0 1-1.933-.659 6.048 6.048 0 0 1-1.46-.835 3.46 3.46 0 0 1-.928-1.103c-.218-.417-.327-.905-.327-1.465 0-.547.117-1.045.351-1.494.235-.45.563-.835.987-1.158a4.776 4.776 0 0 1 1.513-.752 6.559 6.559 0 0 1 1.924-.268c.749 0 1.424.11 2.026.332a4.64 4.64 0 0 1 1.539.908 3.98 3.98 0 0 1 1.318 3.008h-1.211c0-.462-.081-.89-.244-1.284a2.838 2.838 0 0 0-.713-1.02 3.347 3.347 0 0 0-1.152-.675c-.456-.162-.977-.244-1.563-.244s-1.102.07-1.548.21c-.446.14-.817.33-1.113.567a2.39 2.39 0 0 0-.674.835 2.32 2.32 0 0 0-.23 1.015c0 .339.064.651.191.938.127.286.34.552.64.796s.693.472 1.181.683c.489.212 1.09.412 1.807.6a16.63 16.63 0 0 1 2.002.684c.586.248 1.08.54 1.484.874.404.336.71.722.918 1.158.209.436.313.94.313 1.513 0 .58-.122 1.099-.366 1.558a3.448 3.448 0 0 1-1.016 1.167 4.769 4.769 0 0 1-1.548.732 7.16 7.16 0 0 1-1.953.254c-.423 0-.848-.035-1.274-.107a6.709 6.709 0 0 1-1.23-.327 5.333 5.333 0 0 1-1.104-.562 3.86 3.86 0 0 1-.89-.815 3.796 3.796 0 0 1-.595-1.084 4 4 0 0 1-.22-1.362h1.202c0 .598.123 1.105.37 1.518.248.413.567.747.958 1.001.39.254.83.438 1.318.552.488.114.977.17 1.465.17.553 0 1.056-.063 1.509-.19.452-.127.84-.307 1.162-.542.322-.234.57-.516.742-.844.173-.33.259-.695.259-1.1zM117.745 78a3.357 3.357 0 0 1-.152-.669 9.257 9.257 0 0 1-.073-.806 4.152 4.152 0 0 1-1.436 1.172 4.701 4.701 0 0 1-2.148.498 4.15 4.15 0 0 1-1.402-.224c-.42-.15-.778-.36-1.074-.63a2.846 2.846 0 0 1-.932-2.144c0-.514.11-.978.332-1.391a3.01 3.01 0 0 1 .957-1.055c.416-.29.923-.511 1.518-.664a8.078 8.078 0 0 1 2.007-.23h2.168v-1.2c0-.756-.233-1.35-.698-1.783-.466-.433-1.144-.65-2.036-.65-.41 0-.788.056-1.133.167a2.86 2.86 0 0 0-.894.459 2.18 2.18 0 0 0-.586.678 1.7 1.7 0 0 0-.21.826l-1.171-.01c0-.397.097-.781.292-1.153.196-.37.47-.701.826-.99.355-.29.78-.523 1.279-.699a4.946 4.946 0 0 1 1.655-.264c.56 0 1.076.072 1.548.215.472.143.877.358 1.216.645.338.286.602.644.791 1.074.189.43.283.93.283 1.504v5.117c0 .182.007.371.02.566.013.196.034.384.063.567.03.182.064.356.103.522.039.166.084.311.136.435V78h-1.25zm-3.672-.84c.423 0 .815-.054 1.176-.161.362-.107.689-.256.982-.444.293-.19.547-.409.761-.66a3.32 3.32 0 0 0 .518-.815v-2.324h-2.002a7.27 7.27 0 0 0-1.606.161c-.472.107-.871.262-1.197.464a2.19 2.19 0 0 0-.747.737c-.172.29-.259.617-.259.982 0 .286.056.555.167.805.11.25.268.469.473.655.205.185.454.332.747.439.293.107.622.161.987.161zm9.542-9.726l.039 1.806c.182-.3.392-.573.63-.82a3.834 3.834 0 0 1 2.817-1.182c.528 0 1 .072 1.416.215.417.143.77.371 1.06.684.29.312.51.714.664 1.206.153.491.23 1.085.23 1.782V78h-1.163v-6.885c0-.547-.058-1.002-.175-1.367-.118-.365-.284-.658-.499-.879a1.812 1.812 0 0 0-.786-.473 3.52 3.52 0 0 0-1.03-.142c-.417 0-.794.07-1.133.21-.338.14-.638.327-.898.561a3.74 3.74 0 0 0-.674.806 4.626 4.626 0 0 0-.45.933V78h-1.161V67.434h1.113zm16.915 7.88c0-.214-.037-.43-.112-.644a1.54 1.54 0 0 0-.42-.61c-.205-.192-.491-.372-.86-.538-.367-.166-.844-.31-1.43-.434a12.34 12.34 0 0 1-1.567-.43 4.511 4.511 0 0 1-1.162-.59 2.334 2.334 0 0 1-.718-.826c-.163-.319-.244-.693-.244-1.123 0-.39.086-.762.259-1.113.172-.352.42-.658.742-.918s.713-.467 1.172-.62a4.88 4.88 0 0 1 1.547-.23c.612 0 1.16.08 1.646.24.485.159.895.38 1.23.664.336.283.591.616.767 1 .176.385.264.801.264 1.25h-1.172c0-.273-.06-.54-.18-.8-.121-.26-.297-.49-.528-.689a2.728 2.728 0 0 0-.86-.483 3.416 3.416 0 0 0-1.167-.186c-.455 0-.844.056-1.167.166a2.4 2.4 0 0 0-.79.43 1.634 1.634 0 0 0-.591 1.25c0 .234.035.448.107.64s.21.37.415.537c.205.166.492.319.86.459.367.14.847.278 1.44.415.638.15 1.188.316 1.65.498.463.182.845.399 1.148.65.302.25.527.536.674.859.146.322.22.695.22 1.118 0 .436-.092.835-.274 1.196-.182.361-.443.67-.781.928a3.807 3.807 0 0 1-1.23.6 5.644 5.644 0 0 1-1.612.215c-.67 0-1.263-.086-1.778-.258a3.984 3.984 0 0 1-1.298-.699 2.939 2.939 0 0 1-.796-1.01 2.758 2.758 0 0 1-.269-1.187h1.172c.026.417.134.763.322 1.04.19.277.423.498.703.664.28.166.591.285.933.357a4.92 4.92 0 0 0 1.01.107 3.99 3.99 0 0 0 1.173-.156 2.72 2.72 0 0 0 .854-.42c.231-.176.405-.378.523-.606a1.54 1.54 0 0 0 .175-.713z"/><path fill="#222" d="M171.854 84L205.77.796h9.028L247.738 84h-11.102l-8.54-22.448h-36.844L182.59 84h-10.736zm31.842-54.778l-9.028 23.302h30.012L215.896 29.1c-1.708-4.514-4.27-11.956-5.734-16.836h-.488c-1.586 5.124-4.148 12.2-5.978 16.958zm115.615-3.66V84h-9.638v-7.808h-.244c-4.27 5.124-11.468 9.882-21.35 9.882-15.86 0-30.012-12.322-30.012-31.354 0-18.056 13.176-31.11 30.622-31.11 10.614 0 16.836 5.612 20.862 10.37h.122v-8.418h9.638zm-51.24 29.158c0 11.224 6.954 22.814 21.35 22.814 10.98 0 21.106-9.272 21.106-22.448 0-13.908-9.394-23.058-20.862-23.058-14.64 0-21.594 11.468-21.594 22.692z"/></g></svg>