<svg xmlns="http://www.w3.org/2000/svg" width="320" height="84"><g fill="none" fill-rule="evenodd"><path fill="#8B949B" d="M12.334 35h-1.211v-6.816H2.998V35H1.797V20.781h1.201v6.387h8.125v-6.387h1.211V35zm8.146.195c-.69 0-1.325-.128-1.904-.385a4.46 4.46 0 0 1-1.5-1.075 4.938 4.938 0 0 1-.98-1.635 5.936 5.936 0 0 1-.352-2.08v-.42c0-.814.122-1.551.366-2.212.244-.661.574-1.224.991-1.69a4.445 4.445 0 0 1 1.44-1.079 4.024 4.024 0 0 1 1.724-.38c.67 0 1.266.12 1.787.36.521.241.959.577 1.314 1.006.354.43.623.941.805 1.534.183.592.274 1.24.274 1.943v.713h-7.54v.225c0 .579.089 1.124.264 1.635.176.511.424.956.743 1.333.319.378.7.676 1.142.894.443.218.934.327 1.475.327.625 0 1.176-.114 1.655-.342.479-.228.913-.592 1.304-1.094l.732.557c-.176.254-.38.495-.61.723-.231.228-.5.426-.806.595-.306.17-.65.303-1.035.4a5.237 5.237 0 0 1-1.29.147zm-.215-9.96a2.973 2.973 0 0 0-2.231.976c-.29.312-.528.688-.713 1.128-.186.44-.311.926-.376 1.46h6.338v-.127a4.715 4.715 0 0 0-.215-1.284c-.13-.414-.32-.78-.571-1.099a2.816 2.816 0 0 0-.933-.767c-.371-.192-.804-.288-1.299-.288zM34.105 35a3.357 3.357 0 0 1-.152-.669 9.257 9.257 0 0 1-.073-.806 4.152 4.152 0 0 1-1.436 1.172 4.701 4.701 0 0 1-2.148.498 4.15 4.15 0 0 1-1.402-.224c-.42-.15-.778-.36-1.074-.63a2.846 2.846 0 0 1-.932-2.144c0-.514.11-.978.332-1.391a3.01 3.01 0 0 1 .957-1.055c.416-.29.922-.511 1.518-.664a8.078 8.078 0 0 1 2.007-.23h2.168v-1.2c0-.756-.233-1.35-.698-1.783-.466-.433-1.144-.65-2.036-.65-.41 0-.788.056-1.133.167a2.86 2.86 0 0 0-.894.459 2.18 2.18 0 0 0-.586.678 1.7 1.7 0 0 0-.21.826l-1.172-.01c0-.397.098-.781.293-1.153.196-.37.47-.701.826-.99.354-.29.78-.523 1.279-.699a4.946 4.946 0 0 1 1.655-.264c.56 0 1.076.072 1.548.215.472.143.877.358 1.216.645.338.286.602.644.79 1.074.19.43.284.93.284 1.504v5.117c0 .182.007.371.02.566.013.196.034.384.063.567.03.182.064.356.103.522.039.166.084.311.136.435V35h-1.25zm-3.673-.84c.424 0 .816-.054 1.177-.161.362-.107.689-.256.982-.444.293-.19.547-.409.761-.66a3.32 3.32 0 0 0 .518-.815v-2.324h-2.002a7.27 7.27 0 0 0-1.606.161c-.472.107-.871.262-1.197.464a2.19 2.19 0 0 0-.747.737c-.172.29-.259.617-.259.982 0 .286.056.555.166.805.111.25.269.469.474.655.205.185.454.332.747.439.293.107.622.161.986.161zm7.96-4.54c0-.821.095-1.562.284-2.223.189-.66.459-1.225.81-1.694a3.63 3.63 0 0 1 1.285-1.084c.504-.254 1.072-.38 1.704-.38.749 0 1.391.149 1.929.448.537.3.981.713 1.333 1.24V20h1.162v15h-1.094l-.049-1.406a3.71 3.71 0 0 1-1.343 1.177c-.543.283-1.196.424-1.958.424a3.573 3.573 0 0 1-1.69-.395 3.77 3.77 0 0 1-1.278-1.104c-.352-.472-.622-1.036-.81-1.694a7.874 7.874 0 0 1-.284-2.178v-.205zm1.182.204c0 .619.062 1.193.186 1.724.124.53.313.991.566 1.382.254.39.575.696.962.918.388.221.848.332 1.382.332.397 0 .757-.048 1.08-.142.322-.094.608-.226.859-.395.25-.17.468-.372.654-.606.186-.234.343-.488.474-.762v-4.96a4.736 4.736 0 0 0-.43-.772 2.92 2.92 0 0 0-1.484-1.118 3.426 3.426 0 0 0-1.133-.171c-.54 0-1.006.112-1.397.337-.39.224-.713.532-.967.923-.253.39-.442.853-.566 1.386a7.602 7.602 0 0 0-.186 1.72v.204zM51.998 35h-1.172V24.434h1.172V35zM50.62 21.377c0-.221.071-.409.215-.562.143-.153.338-.23.586-.23.247 0 .444.077.59.23.147.153.22.34.22.562a.765.765 0 0 1-.22.557c-.146.15-.343.224-.59.224-.248 0-.443-.075-.586-.224a.774.774 0 0 1-.215-.557zm6.378 3.057l.04 1.806c.182-.3.391-.573.63-.82a3.834 3.834 0 0 1 2.816-1.182c.528 0 1 .072 1.417.215.416.143.77.371 1.06.684.289.312.51.714.663 1.206.153.491.23 1.085.23 1.782V35h-1.162v-6.885c0-.547-.06-1.002-.176-1.367-.117-.365-.283-.658-.498-.879a1.812 1.812 0 0 0-.786-.473 3.52 3.52 0 0 0-1.03-.142c-.417 0-.795.07-1.134.21-.338.14-.638.327-.898.561a3.74 3.74 0 0 0-.674.806 4.626 4.626 0 0 0-.449.933V35h-1.162V24.434h1.113zm10.119 5.185c0-.82.093-1.56.278-2.222.186-.66.454-1.225.806-1.694a3.63 3.63 0 0 1 1.284-1.084c.504-.254 1.076-.38 1.714-.38.755 0 1.403.15 1.943.453.54.303.986.725 1.338 1.265l.059-1.523h1.093v10.38c0 .684-.1 1.298-.302 1.841a3.89 3.89 0 0 1-.855 1.382 3.7 3.7 0 0 1-1.333.87 4.804 4.804 0 0 1-1.748.302c-.332 0-.67-.037-1.016-.112a4.656 4.656 0 0 1-1.914-.898 3.722 3.722 0 0 1-.752-.797l.655-.703c.43.528.885.913 1.367 1.157a3.45 3.45 0 0 0 1.582.367c.501 0 .946-.077 1.333-.23.387-.153.714-.374.981-.664.267-.29.47-.641.61-1.055.14-.413.21-.883.21-1.41v-1.231c-.35.488-.797.87-1.337 1.147-.54.277-1.185.415-1.934.415-.631 0-1.198-.132-1.699-.395a3.77 3.77 0 0 1-1.28-1.104c-.35-.472-.62-1.036-.805-1.694a8.004 8.004 0 0 1-.278-2.178v-.205zm1.181.205c0 .619.062 1.193.186 1.724.124.53.312.991.566 1.382.254.39.575.696.962.918.388.221.848.332 1.382.332a3.75 3.75 0 0 0 1.089-.147c.322-.097.607-.233.854-.405.248-.173.463-.376.645-.61.182-.235.339-.492.469-.772v-4.912a4.091 4.091 0 0 0-.425-.786 2.94 2.94 0 0 0-1.48-1.123 3.426 3.426 0 0 0-1.132-.171c-.54 0-1.006.112-1.397.337-.39.224-.713.532-.967.923-.254.39-.442.853-.566 1.386a7.602 7.602 0 0 0-.186 1.72v.204zM5.967 58.535l4.346-7.754h1.386l-5.136 8.867V65H5.36v-5.352L.234 50.781H1.66l4.307 7.754zm14.005 3.78c0-.215-.037-.43-.112-.645a1.54 1.54 0 0 0-.42-.61c-.205-.192-.492-.372-.86-.538-.367-.166-.844-.31-1.43-.434a12.34 12.34 0 0 1-1.568-.43 4.511 4.511 0 0 1-1.162-.59 2.334 2.334 0 0 1-.717-.826c-.163-.319-.245-.693-.245-1.123 0-.39.087-.762.26-1.113.172-.352.42-.658.741-.918.323-.26.713-.467 1.172-.62a4.88 4.88 0 0 1 1.548-.23c.612 0 1.16.08 1.646.24.485.159.895.38 1.23.664.335.283.59.616.767 1 .175.385.263.801.263 1.25h-1.171c0-.273-.06-.54-.181-.8-.12-.26-.296-.49-.528-.689a2.728 2.728 0 0 0-.859-.483 3.416 3.416 0 0 0-1.167-.186c-.456 0-.845.056-1.167.166a2.4 2.4 0 0 0-.79.43 1.634 1.634 0 0 0-.592 1.25c0 .234.036.448.108.64.071.192.21.37.415.537.205.166.491.319.86.459.367.14.847.278 1.44.415.638.15 1.188.316 1.65.498.462.182.845.399 1.147.65.303.25.528.536.674.859.147.322.22.695.22 1.118 0 .436-.091.835-.273 1.196-.183.361-.443.67-.782.928a3.807 3.807 0 0 1-1.23.6 5.644 5.644 0 0 1-1.612.215c-.67 0-1.263-.086-1.777-.258a3.984 3.984 0 0 1-1.299-.699 2.939 2.939 0 0 1-.796-1.01 2.758 2.758 0 0 1-.268-1.187h1.172c.026.417.133.763.322 1.04s.423.498.703.664c.28.166.59.285.933.357a4.92 4.92 0 0 0 1.01.107 3.99 3.99 0 0 0 1.172-.156 2.72 2.72 0 0 0 .855-.42c.231-.176.405-.378.522-.606a1.54 1.54 0 0 0 .176-.713zm3.869-2.754c0-.769.112-1.478.337-2.13a5.044 5.044 0 0 1 .952-1.684c.41-.472.905-.841 1.484-1.108.58-.267 1.224-.4 1.934-.4.722 0 1.375.133 1.958.4.582.267 1.079.636 1.489 1.108.41.472.726 1.034.947 1.685.222.65.332 1.36.332 2.129v.322c0 .768-.11 1.478-.332 2.129a4.979 4.979 0 0 1-.947 1.684c-.41.472-.905.84-1.484 1.104-.58.263-1.228.395-1.944.395s-1.364-.132-1.943-.395a4.351 4.351 0 0 1-1.49-1.104 4.998 4.998 0 0 1-.956-1.684 6.488 6.488 0 0 1-.337-2.13v-.321zm1.172.322c0 .58.078 1.131.234 1.655.156.524.384.983.684 1.377.299.394.67.708 1.113.942.443.235.95.352 1.523.352s1.08-.117 1.519-.352c.44-.234.809-.548 1.108-.942.3-.394.528-.853.684-1.377a5.763 5.763 0 0 0 .234-1.655v-.322c0-.567-.078-1.112-.234-1.636a4.322 4.322 0 0 0-.684-1.382 3.363 3.363 0 0 0-1.118-.952c-.446-.238-.955-.357-1.528-.357-.567 0-1.07.12-1.51.357-.439.237-.808.555-1.107.952-.3.397-.528.858-.684 1.382a5.695 5.695 0 0 0-.234 1.636v.322zm19.894-.059c0 .794-.09 1.52-.269 2.178-.18.658-.441 1.222-.786 1.694a3.68 3.68 0 0 1-1.27 1.104c-.501.263-1.07.395-1.709.395-.774 0-1.437-.146-1.987-.44a3.784 3.784 0 0 1-1.353-1.2L37.485 65H36.39V50h1.162v5.967a3.764 3.764 0 0 1 1.338-1.275c.54-.302 1.195-.454 1.963-.454.644 0 1.217.127 1.719.381a3.6 3.6 0 0 1 1.274 1.084c.348.469.612 1.034.791 1.694.179.661.269 1.402.269 2.222v.205zm-1.172-.205c0-.612-.059-1.185-.176-1.719a4.222 4.222 0 0 0-.552-1.386 2.774 2.774 0 0 0-.962-.923c-.39-.225-.86-.337-1.406-.337-.443 0-.833.06-1.172.18a2.93 2.93 0 0 0-1.504 1.177c-.17.26-.306.53-.41.81v4.767a3.9 3.9 0 0 0 .464.786 2.977 2.977 0 0 0 1.533 1.054c.329.101.698.152 1.108.152.528 0 .985-.111 1.373-.332.387-.222.708-.528.961-.918.254-.39.442-.852.562-1.382.12-.53.18-1.105.18-1.724v-.205zm8.556 5.576c-.69 0-1.325-.128-1.905-.385a4.46 4.46 0 0 1-1.499-1.075 4.938 4.938 0 0 1-.981-1.635 5.936 5.936 0 0 1-.352-2.08v-.42c0-.814.122-1.551.367-2.212.244-.661.574-1.224.99-1.69a4.445 4.445 0 0 1 1.441-1.079 4.024 4.024 0 0 1 1.724-.38c.67 0 1.266.12 1.787.36.52.241.959.577 1.313 1.006.355.43.624.941.806 1.534.182.592.274 1.24.274 1.943v.713h-7.54v.225c0 .579.088 1.124.264 1.635.176.511.423.956.742 1.333.32.378.7.676 1.143.894.443.218.934.327 1.475.327.625 0 1.176-.114 1.655-.342.478-.228.913-.592 1.304-1.094l.732.557c-.176.254-.38.495-.61.723-.232.228-.5.426-.806.595-.306.17-.651.303-1.035.4a5.237 5.237 0 0 1-1.29.147zm-.215-9.96a2.973 2.973 0 0 0-2.232.976c-.29.312-.527.688-.712 1.128-.186.44-.311.926-.376 1.46h6.337v-.127a4.715 4.715 0 0 0-.214-1.284c-.13-.414-.321-.78-.572-1.099a2.816 2.816 0 0 0-.932-.767c-.371-.192-.804-.288-1.3-.288zM60.554 65h-1.172V50h1.172v15zm10.94-5.791V65h-1.201V50.781h4.844c.781 0 1.47.104 2.065.313.596.208 1.096.5 1.5.874.403.374.707.822.912 1.343.205.52.308 1.093.308 1.718 0 .658-.103 1.245-.308 1.763a3.428 3.428 0 0 1-.908 1.313c-.4.359-.9.632-1.499.82-.599.19-1.289.284-2.07.284h-3.643zm0-1.016h3.643c.631 0 1.175-.08 1.63-.239.456-.16.827-.38 1.114-.664.286-.283.498-.617.635-1 .136-.385.205-.798.205-1.241a3.77 3.77 0 0 0-.205-1.245 2.784 2.784 0 0 0-.635-1.035c-.287-.297-.658-.531-1.113-.704-.456-.172-1-.258-1.631-.258h-3.643v6.386zm16.437-2.763a4.365 4.365 0 0 0-.79-.069c-.398 0-.756.059-1.075.176-.32.117-.6.282-.845.493-.244.212-.45.463-.615.752a4.17 4.17 0 0 0-.396.962V65h-1.162V54.434h1.143l.02 1.68a3.497 3.497 0 0 1 1.166-1.373c.492-.335 1.096-.503 1.812-.503.143 0 .29.013.44.04.15.025.26.055.331.087l-.029 1.065zm1.72 4.13c0-.768.113-1.477.337-2.128a5.044 5.044 0 0 1 .952-1.685c.41-.472.905-.841 1.485-1.108.58-.267 1.224-.4 1.933-.4.723 0 1.376.133 1.958.4.583.267 1.08.636 1.49 1.108.41.472.725 1.034.947 1.685.221.65.332 1.36.332 2.129v.322c0 .768-.11 1.478-.332 2.129a4.979 4.979 0 0 1-.947 1.684c-.41.472-.905.84-1.485 1.104-.58.263-1.227.395-1.943.395s-1.364-.132-1.944-.395a4.351 4.351 0 0 1-1.489-1.104 4.998 4.998 0 0 1-.957-1.684 6.488 6.488 0 0 1-.337-2.13v-.321zm1.172.323c0 .58.078 1.131.234 1.655.157.524.385.983.684 1.377.3.394.67.708 1.113.942.443.235.95.352 1.524.352.573 0 1.079-.117 1.518-.352.44-.234.81-.548 1.109-.942.3-.394.527-.853.683-1.377a5.763 5.763 0 0 0 .235-1.655v-.322c0-.567-.078-1.112-.235-1.636a4.322 4.322 0 0 0-.683-1.382 3.363 3.363 0 0 0-1.118-.952c-.446-.238-.956-.357-1.529-.357-.566 0-1.07.12-1.509.357-.439.237-.808.555-1.108.952-.3.397-.527.858-.684 1.382a5.695 5.695 0 0 0-.234 1.636v.322z"/><path fill="#222" d="M219.14 82v-4.266l10.446-1.53-6.29-17.391H194.97l-6.727 17.39 10.281 1.531V82h-25.539v-4.266l7.766-1.53L210.063.023h7.875l28 76.18 8.476 1.53V82h-35.273zm-9.515-61.14h-.328L197.43 52.085h23.515l-11.32-31.227zm88.625 62.015v-7.164h-.492a20.629 20.629 0 0 1-2.926 3.336 17.106 17.106 0 0 1-3.582 2.516c-1.313.692-2.78 1.22-4.402 1.585-1.623.365-3.437.547-5.442.547-2.698 0-5.113-.373-7.246-1.12-2.133-.748-3.928-1.796-5.387-3.145a13.45 13.45 0 0 1-3.336-4.813c-.765-1.86-1.148-3.92-1.148-6.18 0-3.755.857-6.835 2.57-9.242 1.714-2.406 4.056-4.366 7.028-5.879 2.971-1.513 6.444-2.725 10.418-3.636 3.974-.912 8.24-1.75 12.797-2.516v-6.836c0-7.073-3.209-10.61-9.625-10.61-2.48 0-4.64.292-6.48.876-1.842.583-3.237 1.221-4.185 1.914 1.24 1.057 2.115 2.16 2.625 3.308.51 1.149.766 2.179.766 3.09 0 .912-.182 1.778-.547 2.598a6.77 6.77 0 0 1-1.476 2.133 6.798 6.798 0 0 1-2.215 1.422c-.857.346-1.796.52-2.817.52-2.187 0-3.946-.703-5.277-2.106-1.33-1.404-1.996-3.236-1.996-5.496 0-1.97.538-3.81 1.613-5.524 1.076-1.713 2.616-3.217 4.621-4.512 2.006-1.294 4.43-2.315 7.274-3.062 2.844-.747 6.034-1.121 9.57-1.121 3.792 0 7.11.392 9.953 1.176 2.844.783 5.205 2.041 7.082 3.773 1.878 1.732 3.29 3.992 4.239 6.781.947 2.79 1.421 6.19 1.421 10.2v30.515l7.875 1.531V82l-21.273.875zm-11.758-6.125c1.787 0 3.445-.52 4.977-1.559 1.531-1.039 2.77-2.47 3.718-4.293.839-1.494 1.368-3.372 1.586-5.632.22-2.26.329-5.16.329-8.696v-3.664c-3.063.657-5.706 1.331-7.93 2.024-2.224.692-4.074 1.567-5.55 2.625a9.552 9.552 0 0 0-3.282 4.074c-.711 1.659-1.067 3.782-1.067 6.371 0 1.24.164 2.388.493 3.445.328 1.058.802 1.978 1.421 2.762a6.798 6.798 0 0 0 2.27 1.86c.893.455 1.905.683 3.035.683z"/></g></svg>