<svg class="invisible" xmlns="http://www.w3.org/2000/svg" xmlns:xlink="http://www.w3.org/1999/xlink"><symbol viewBox="0 0 37 36" id="CodeSchool" xmlns="http://www.w3.org/2000/svg"><g fill="none" fill-rule="evenodd"><path d="M-18-18h72v72h-72z"/><g fill="#48484F"><path d="M18.5 36c-5.017 0-9.694-1.837-13.128-5.17C1.91 27.48 0 22.933 0 18.044 0 7.926 8.125 0 18.5 0S37 7.926 37 18.044c0 4.89-1.91 9.437-5.372 12.786C28.194 34.163 23.532 36 18.5 36zm0-33.126c-4.262 0-8.229 1.57-11.13 4.4-2.9 2.83-4.499 6.652-4.499 10.77 0 4.104 1.599 7.912 4.485 10.726 2.915 2.815 6.867 4.37 11.144 4.37s8.229-1.555 11.144-4.37c2.901-2.8 4.485-6.607 4.485-10.726 0-4.118-1.599-7.94-4.5-10.77-2.9-2.844-6.852-4.4-11.129-4.4z"/><path d="M21 8v4.569L26.414 18 21 23.431V28l10-10zm-5 15.431L10.571 18 16 12.569V8L6 18l10 10z"/></g></g></symbol><symbol viewBox="0 0 46 23" id="EA" xmlns="http://www.w3.org/2000/svg"><g fill="none" fill-rule="evenodd"><path d="M-13-25h72v72h-72z"/><path fill="#48484F" fill-rule="nonzero" d="M20.7 17.703H8.272l2.74-4.408h8.42l2.74-4.368H4.537l-2.74 4.408h4.05L.33 22.111h22.834l8.538-13.7 3.058 4.884h-2.542l-2.74 4.408H37.5l2.74 4.408h5.202l-13.74-22-11 17.592zM28.128.111H10.019L7.279 4.52h18.108l2.74-4.408z"/></g></symbol><symbol viewBox="0 0 37 36" id="Gannett" xmlns="http://www.w3.org/2000/svg"><g fill="none" fill-rule="evenodd"><path d="M-18-18h72v72h-72z"/><g fill="#48484F"><path d="M13.117 34.496c1.81.626 3.753.966 5.776.966 3.778 0 7.222-1.149 10.094-3.169a42.634 42.634 0 0 0-3.071-1.561c-1.717 1.898-3.197 2.906-3.368 3.052-.61.52-1.066.074-.533-.372a24.027 24.027 0 0 0 3.134-3.054 20.104 20.104 0 0 0-2.563-.902 16.912 16.912 0 0 1-3.236 2.619v1.932c0 .743-.914.668-.914 0v-1.412a17.305 17.305 0 0 1-5.319 1.901m18.05-17.241c-.115-4.903-2.384-9.182-4.572-11.781.822-.33 2.116-.98 3.24-1.666 3.985 3.146 6.627 8.006 6.765 13.446h-5.433m-20.843 9.997c3.815-.194 6.692-2.76 8.118-6.05h-7.748v-2.993h-3.11c0 1.495.304 5.609 2.74 9.043m-1.298-.018c-1.475-2.4-2.55-5.98-2.55-9.026H.054c.243 4.788 4.105 8.647 8.972 9.026m9.37-12.858h-7.702v2.89h-3.11c0-1.477.363-5.14 2.741-9.11 3.094.152 5.812 1.8 7.498 4.111h.573v2.109"/><path d="M19.369 12.258l7.061-.014c-.717-2.024-1.728-3.881-3.121-5.497.8-.218 1.556-.54 2.428-.905 3.923 4.896 4.444 9.643 4.444 11.418h-2.8a16.742 16.742 0 0 0-.322-2.891h-7.69v-2.111M9.103 8.168c-1.424 2.376-2.551 6.052-2.59 9.098H.053c.21-4.843 4.125-8.752 9.051-9.098m20.731 23.498c4.012-3.146 6.63-7.987 6.766-13.447h-5.433c-.114 5.275-2.355 9.149-4.547 11.768.968.457 2.02 1.013 3.214 1.679M19.355 3.373a17.336 17.336 0 0 1 3.231 2.644c.83-.226 1.654-.523 2.562-.909a24.27 24.27 0 0 0-3.133-3.047c-.533-.446-.076-.891.534-.371.172.147 1.7 1.183 3.428 3.086.96-.443 2.13-1.006 3.067-1.559A17.584 17.584 0 0 0 18.894.012a18.61 18.61 0 0 0-5.627.9 17.496 17.496 0 0 1 5.179 1.914l-.01-1.36c0-.668.914-.742.914 0v1.907h.005"/><path d="M25.766 29.648c3.94-4.904 4.424-9.657 4.424-11.434l-2.8-.001c-.113 3.997-1.636 7.65-4.102 10.504.757.206 1.664.585 2.478.931"/></g></g></symbol><symbol viewBox="0 0 36 36" id="Pluralsight" xmlns="http://www.w3.org/2000/svg"><g fill="none" fill-rule="evenodd"><path d="M-18-18h72v72h-72z"/><circle cx="18" cy="18" r="18" fill="#48484F"/><path fill="#FFF" fill-rule="nonzero" d="M13.846 8.308l16.616 9.502-16.616 8.96V8.307zm1.623 15.748l11.66-6.288-11.66-6.668v12.956z"/><path fill="#FFF" fill-rule="nonzero" d="M9.23 10.154l13.847 7.602L9.23 24.923v-14.77zm1.623 12.149l8.863-4.588-8.863-4.866v9.454z"/></g></symbol><symbol viewBox="0 0 37 34" id="Southwest" xmlns="http://www.w3.org/2000/svg"><g fill="none" fill-rule="evenodd"><path d="M-18-19h72v72h-72z"/><path d="M35.894 12.463c.471-2.642.117-5.167-1.06-7.516C32.657.662 28.302.016 25.948.016c-2.531 0-5.121.88-6.652 1.762 7.476 4.11 15.01 9.57 16.6 10.685M.636 8.12c-1.412 7.69 5.004 17.143 17.6 25.48a72.49 72.49 0 0 0 7.122-5.402C23.004 26.203 9.818 15.164.638 8.119m26.427 18.377c4.06-3.934 6.827-7.926 8.064-11.684-1.649-1.41-9.065-7.751-17.01-12.39C16.47 1.366 14.174.016 10.465.016c-2.413 0-6.71.646-8.888 4.931-.352.705-.647 1.41-.823 2.114 9.711 6.518 23.956 17.615 26.31 19.435" fill="#48484F"/></g></symbol><symbol viewBox="0 0 37 36" id="infor" xmlns="http://www.w3.org/2000/svg"><g fill="none" fill-rule="evenodd"><path d="M-18-18h72v72h-72z"/><g fill="#48484F"><path d="M36.543 35.965H.175C.13 35.799.13.235.175.074h36.368c.048.167.048 35.728 0 35.89zM23.806 22.49c.342-.042.687-.065 1.025-.13a3.964 3.964 0 0 0 2.004-1.013c.787-.744 1.145-1.668 1.16-2.732.024-1.6-.833-2.937-2.316-3.566-1.076-.456-2.185-.488-3.302-.155-.74.221-1.373.616-1.866 1.208-.753.902-.99 1.947-.825 3.087.165 1.15.759 2.034 1.758 2.645.72.441 1.516.626 2.362.656zM9.159 15.411v-.309c0-.225-.014-.24-.235-.241-.602-.002-1.203-.002-1.804 0-.213 0-.23.016-.23.226v6.965c0 .212.018.229.227.23H8.96c.288 0 .288-.001.288-.285v-3.293c0-.335.005-.67.086-.997.105-.422.314-.761.759-.9.299-.095.605-.1.91-.024.233.06.419.195.531.405.074.138.141.288.167.44.045.266.076.538.077.808.008 1.186.004 2.372.004 3.558 0 .05 0 .1.002.152.002.082.043.129.129.133.045.002.09.002.134.002a5311.325 5311.325 0 0 0 1.958-.001c.084-.002.13-.044.134-.128.003-.05.003-.1.003-.15v-1.837c-.002-.82 0-1.64-.013-2.46a4.658 4.658 0 0 0-.243-1.47c-.282-.81-.847-1.304-1.698-1.474a4.402 4.402 0 0 0-1.866.03c-.41.093-.788.259-1.079.578-.011.013-.032.017-.084.042zm6.164 2.203h-.005v4.428c0 .222.016.239.238.24h1.9c.2-.001.22-.022.223-.217.001-.031 0-.063 0-.094v-4.978l.001-.15c.003-.067.04-.106.108-.11.044-.003.09-.002.134-.002.416.001.832.004 1.247.003.2 0 .222-.024.222-.219.002-.372 0-.744 0-1.117 0-.12.004-.24 0-.36-.005-.147-.03-.17-.183-.177-.051-.002-.103 0-.154 0h-1.19c-.173-.001-.184-.012-.184-.185-.002-.347-.006-.694.002-1.04.004-.157.023-.316.059-.469.077-.335.289-.536.64-.592.322-.05.637-.036.948.062.182.057.214.035.225-.152.03-.522.058-1.045.086-1.568.01-.179-.008-.206-.194-.235a7.231 7.231 0 0 0-.704-.085c-.602-.033-1.203-.023-1.787.156-.707.216-1.198.653-1.436 1.355-.136.4-.191.812-.193 1.23-.007 1.425-.003 2.85-.003 4.276zm15.911-2.186c-.011-.082-.02-.117-.02-.152-.002-.082.003-.164 0-.246-.007-.135-.036-.16-.176-.169-.044-.002-.09 0-.134 0h-1.747c-.313 0-.313-.001-.313.3v6.833c0 .05 0 .1.003.151.004.082.047.129.132.134.044.002.089.002.134.002h1.823c.272 0 .278-.006.278-.276V19.07c0-.386.026-.769.11-1.147.183-.818.66-1.241 1.5-1.336a3.232 3.232 0 0 1 1.14.09c.16.039.2.016.2-.128.003-.568.003-1.135 0-1.703-.001-.137-.033-.17-.17-.175a6.714 6.714 0 0 0-.499.002c-.495.019-.98.09-1.447.261a2.364 2.364 0 0 0-.814.493zM5.71 18.568v-3.48l-.001-.095c-.004-.085-.052-.126-.134-.13-.051-.002-.103-.002-.154-.002H3.637c-.285 0-.286 0-.286.285v6.886c0 .244.01.254.261.255l1.88-.001c.2 0 .218-.022.218-.219v-3.5zm-.019-7.666c-.072.03-.12.043-.158.069-.68.458-1.36.92-2.04 1.377a.287.287 0 0 0-.144.267c.005.29 0 .58.002.87.002.187.024.21.209.21.645.001 1.29.002 1.936 0 .195 0 .215-.025.215-.222 0-.8 0-1.601-.002-2.402 0-.042-.009-.085-.018-.169z"/><path d="M25.63 18.57a1.98 1.98 0 0 1-.156.848 1.54 1.54 0 0 1-1.002.898 2.164 2.164 0 0 1-1.412-.035 1.507 1.507 0 0 1-.925-.927 2.193 2.193 0 0 1-.009-1.54c.176-.487.516-.82 1.019-.979a2.143 2.143 0 0 1 1.412.023c.616.225.935.694 1.049 1.316.013.074.018.15.023.225.004.057 0 .114 0 .17"/></g></g></symbol><symbol viewBox="0 0 250 98" id="logo" xmlns="http://www.w3.org/2000/svg"><path fill="#0C0C24" fill-rule="evenodd" d="M20.972 22.83c-.321.642-.642 1.391-1.605 1.284-.963-.963 1.712-2.675 2.354-3.317.963-1.07 2.033-2.354 3.852-2.675-1.498 1.605-3.103 3.103-4.601 4.708zm45.903-10.486c1.07 5.671-.107 11.021-2.354 16.264-1.819 4.066-4.387 7.597-7.383 10.807-1.284 1.391-2.996 2.354-4.601 3.531-3.21 2.354-6.955 3.638-10.593 5.136-4.28 1.819-8.881 3.21-13.696 2.889-1.07 2.782-2.033 5.564-3.317 8.239-1.177 2.675-1.605 5.671-2.996 8.132-.963 1.712-1.391 3.531-2.354 5.136-.749 1.07-.749 2.675-1.07 4.066 0 .642.107 1.498-.856 1.819 0 .535-.107 1.07-.107 1.605.107.428.107.963-.428.963-.642.107-.321-.535-.428-.856-.749-5.564.535-10.914 1.926-16.157.321-1.605.642-3.21 1.926-4.494.642-.642-.214-1.605.214-2.461.856-1.819 1.498-3.745 2.247-5.671-4.494.535-8.881 1.07-13.268.535-.963.321-1.712-.321-2.782-.321.642-.428 1.284-.107 1.819-.214 1.819-.321 3.745-.642 5.564-.963.749-.107 1.391-.107 2.033-.214 1.712-.321 3.424-.642 5.243-.963 1.498 0 2.568-.642 2.996-2.354.214-1.07.321-2.354 1.605-2.782.107-.107.214-.321.214-.428-.535-1.284.963-1.926.963-2.889 0-.963 1.498-1.498.642-2.675-.107-.107.107-.749.428-.856.963-.535 1.177-1.498 1.177-2.461 0-1.391.642-2.461 1.926-3.103-1.391-.321-.428-.963-.214-1.605.963-3.103 2.461-6.099 3.531-9.095a535.653 535.653 0 0 0 2.568-7.169c-1.391.321-2.14 2.033-3.424 2.247-3.424 2.782-6.634 5.778-9.844 8.774-.214.214-.535.321-.749.428-.107.214-.321.428-.428.535-.107.642-.856.535-1.177.963 0 .321-.214.428-.535.642-.214.321-.428.642-.963.535-4.815 5.136-9.523 10.486-13.696 16.157a7.728 7.728 0 0 0-1.498 2.782c-.428 1.498-1.498 2.675-2.461 3.852-.428.642-1.07.428-1.498.321C.428 50.65.107 49.901 0 49.045c-.107-1.07.321-2.033.856-2.996 1.284-2.461 2.675-4.815 4.494-7.062 1.819-2.14 3.531-4.387 5.457-6.42.642-.642 1.712-.321 2.247-1.07-.642-.321-.963-.642-.321-1.177.535-1.391 1.712 1.07 2.14-.856-.321.107-.535.214-.856.321 0-.321-.535-.428.107-.963 1.391-1.284 2.354-2.996 3.745-4.28.535-.321 1.926-.856.963.107-.749.749-1.605 1.391-1.819 2.568-.642 0-.856.535-1.177.963.642.107 1.177-.107 1.177-.856 1.07-.321 1.284-1.605 2.354-1.926.214-1.07 1.605-1.07 1.926-2.033a47.621 47.621 0 0 1 8.56-7.062c.963-.214.642-1.391 1.498-1.926 1.498-.856 2.782-2.14 4.173-3.21 1.177-.749 2.247-1.391 3.317-2.14.214-.749-.107-.749-.642-.428-1.07.642-2.247 1.177-2.996 2.247-2.247 1.07-4.066 2.782-5.992 4.28-1.177.749-2.675 1.07-2.782 2.675-1.177 0-.321-.749-.214-.856.428-.963 1.498-1.498 2.354-2.14 3.21-2.889 6.42-5.671 10.379-7.49.428-.214 1.07-1.819 1.177-2.782.107-.749-.535-1.819.642-2.247 1.07-.428 1.926.428 2.461.963 1.177 1.177 1.819 1.819 3.317.107.856-.856 2.675-1.07 4.173-.963.535-.642 1.177-.214 1.819-.321-.321.535-.856.107-1.177.535.856.214 1.605-.214 2.354-.214 2.782-.214 5.564.214 7.704 1.819 2.889 1.926 4.708 4.708 5.457 8.132zM18.404 71.408c.214-.321.428-.642.214-1.284-.535.428-.428.856-.214 1.284zm-5.671-20.223c.749-.107 1.498.428 2.14-.214-.749 0-1.391.107-2.14.107-.535-.214-.856.535-1.391.214.535.428.963.214 1.391-.107zm8.774-.535c.535-.535 1.712 0 1.819-1.07-.642-.428-1.177.321-1.712.107-1.819.321-3.638.642-5.564.963-.214.107-.642-.107-.856.321 2.14.214 4.173-.321 6.313-.321zm3.317 3.745c-.535-.856 1.177-1.391.214-2.247-.107 0-.535.107-.535.107 0 .749-1.07.963-.856 1.712-.214.321-.321.642-.107 1.07.214-.214.107-.642.428-.749.749.321.963.214.856.107zM46.759 4.533c-.535-.107-.856-.107-1.177.428.535.214.963.107 1.177-.428zM31.03 37.917c-.749.214-.642.856-.642 1.391.321-.428.749-.856.642-1.391zm-.963 2.675c-.856.107-.963.428-.535 1.177.214-.428.321-.749.535-1.177zm5.457 8.56a.23.23 0 0 0 .214-.214c-.428-.321-.749-.214-1.284.214h1.07zm2.14-.963c.428-.107.856-.107.963-.535-.535-.214-.856.107-.963.535zm.321-2.033c.321 0 .535-.107.749-.321.321-.107.963.107.642-.642-.214-.428-.642-.642-1.07-.107-.107.214-.535 0-.642.428-1.819.535-3.638 1.07-5.457 1.498-.642.107-1.284.107-1.819.642-.107.107-.321.321-.428.321-.642.107-.642.535-.535.856.214.535.535.107.856.107.856-.107 1.605-.321 2.461-.428 1.605-1.177 3.638-1.391 5.243-2.354zm1.819 1.391c.214-.428-.428-.321-.642-.535l-.321.642c.321.214.749.321.963-.107zm1.177-.856c-.107-.321.214-.856-.107-.963-.428-.107-.428.321-.428.642.214.107.321.214.535.321zm3.317-3.424s.107-.321.107-.535c0-.214-.214-.214-.428-.107-.963.214-1.926.214-2.354 1.284-.321 0-.642-.535-.963.107-.321 0-.749-.107-.749.321 0 .321.321.642.642.749.428.214.642-.107.749-.428.214-.107.642.107.535-.321.963-.107 1.498-.963 2.461-1.07zm19.367-31.03c.107-1.498 0-3.317-1.07-4.601-1.498-1.712-3.317-2.247-5.35-2.247-3.317.107-6.42.856-9.523 1.926-1.177.428-2.675.749-3.317 1.926-.856 1.605-1.391 3.531-1.819 5.35-1.07 4.28-2.675 8.453-4.387 12.519-1.284 3.103-2.568 6.313-3.852 9.309-.856 1.819-1.498 3.745-2.354 5.457-.856 1.712-1.819 3.424-1.926 5.457.535-.428 1.177-.642 1.819-.535 4.066-1.284 8.025-2.996 11.77-5.029 2.889-1.498 5.564-3.424 8.346-5.35 3.424-3.317 6.527-6.955 8.453-11.449 1.819-4.066 2.996-8.239 3.21-12.733zM56.71 55.786c-.107 0-.214-.107-.321-.214l-1.284-1.284c-.107.214-1.391-1.498-.856-3.21s3.103-4.28 4.708-6.42c1.391-1.819 3.21-3.21 5.35-4.173 1.177-.428 2.675-.535 3.638.749.642.749 1.07.428 1.391-.214.428-.749.856-1.498 1.284-2.354.428-1.177 1.391-1.498 2.354-.749.642.535 1.177 1.284.535 2.568-1.391 2.568-3.21 5.029-3.959 7.918-.214.856.107.856.642.749.428-.214.856-.428 1.284-.749l2.889-2.247c1.177-1.177 5.457-4.173 6.206-3.852 0 .107 0 .107-.107.214-.856 1.926-2.782 3.21-3.852 5.029-.856 1.498-2.461 2.247-3.103 3.852-.107.321-.535.428-.749.642-2.033.963-4.708.214-5.778-1.712-.107-.214-.535-.428-.428-.856-1.391 1.712-2.675 3.317-4.28 4.815-1.605 1.498-3.424 2.033-5.564 1.498zm4.708-8.346c-1.605 1.605-3.103 3.531-3.959 5.992 1.07-.321 1.926-.321 2.568-.963 2.675-2.461 5.35-4.922 7.062-8.239.321-.749.749-1.284.107-1.819-.428-.321-.963.214-1.498.535-1.712 1.177-2.889 2.889-4.28 4.494zm33.705-12.947c.749.428.321 1.07.321 1.605 0 .963-.642 1.498-1.07 2.247-1.712 2.996-3.531 6.099-4.922 9.309-.642 1.498-1.498 3.103-1.284 4.815 0 .856.214 1.284 1.07 1.177.642 0 1.177 0 1.498-.428 0 0 2.033-1.07 2.14-.963.642 1.177-1.926 3.103-2.14 3.317-1.391 1.07-2.675.214-3.745-.535-1.07-.749-1.926-1.819-1.926-3.638-1.391 1.819-2.461 3.424-3.745 4.922-.535.642-.963 1.712-2.247 1.177-1.498-.642-3.103-.856-3.424-2.889-.428-2.996 3.317-12.947 3.959-14.552.856-1.926 2.782-3.424 4.28-3.424.535 0 .856.107.963.749.214.428.107.535-.214.963-1.177 1.605-2.354 3.103-3.103 4.815-1.391 3.103-2.14 6.42-2.996 9.63-.107.321-.214.749.107.856.321.214.642 0 .856-.321 2.461-2.782 4.708-5.778 6.848-8.881 2.14-3.103 4.066-6.313 5.992-9.416.749-1.177 1.712-.963 2.782-.535zm2.461 24.824c-.107.321 1.712.428.214.856-.642.214-.963.428-1.391.749-.321.321-.856-.321-.963-.642-.428-1.819-1.926-3.21-2.247-5.029-.428-2.675.428-5.136.856-7.597.321-1.712 1.07-3.21 1.712-4.815.107-.321.107-.963.749-.963.535.107.642-.535.642-.642-.642-2.354 1.177-3.852 1.819-5.671.642-1.712 1.498-3.317 2.782-4.815.107-.107.214-.107.321-.214 1.07-3.103 2.568-5.992 4.28-8.774 2.033-3.424 4.066-6.741 6.527-9.951 2.033-2.568 4.28-4.922 6.527-7.169 1.605-1.605 3.103-2.996 5.243-3.638 2.996-.963 5.457 1.926 5.029 4.387-.107.535-.428.963-.856.963-.535.107-.642-.428-.642-.856v-.107c-.428-1.712-.963-2.14-2.461-1.391-2.461 1.177-4.28 3.317-5.885 5.35-2.568 2.996-4.387 6.634-6.848 9.844-1.926 2.354-3.317 5.243-4.815 7.918-.749 1.498-1.605 3.103-2.568 4.387-1.07 1.391-1.177 3.531-2.996 4.28-.321.214-.321.642-.107.963.535.642-.214.856-.321 1.177-.963-.428-.856.214-1.07.856-.428 1.177-.749 2.568-1.391 3.424-.642.963-.963 2.14-1.605 3.103-1.284 1.712-1.605 3.959-2.14 5.992-.214 1.177-.535 2.354-.856 3.531-.214.963.428 1.712.321 2.782 2.247-3.638 4.173-5.564 6.848-8.453 1.712-1.926 5.564-7.062 5.885-6.634.428.428-1.284 3.745-1.819 4.494-2.889 3.959-5.992 7.811-8.346 12.198-.107.107-.321.107-.428.107zm39.376-28.141c-2.247 4.494-3.424 9.309-4.708 13.91-.535 1.926-.642 3.959-1.177 5.992-1.07 3.424-2.033 6.848-3.103 10.272a19.974 19.974 0 0 1-1.605 3.424c-.321.535-.749 1.498-1.605 1.391-.963-.214-2.568.321-2.461-1.712.214-2.247 0-4.387.321-6.741.749-5.35 1.819-10.7 2.675-16.05.642-3.852 1.07-7.704 1.605-11.556.642-4.922 1.284-9.951 1.926-14.873.428-4.173.321-8.239.856-12.412.107-1.07.963-.963 1.712-1.177.963-.428 1.284.214 1.284.856 0 1.926-.107 3.852-.321 5.671-.428 2.996-.535 5.885-.749 8.774-.107 1.605-.535 3.103-.749 4.708-.535 3.638-1.07 7.276-1.712 10.914-.856 4.601-1.177 9.202-1.926 13.803l-1.284 7.383a80.235 80.235 0 0 0-.963 7.918c.963-1.391 1.177-2.568 1.605-3.745 1.926-5.778 2.996-11.556 4.494-17.334 1.07-4.494 3.103-8.881 5.136-13.161.107-.321.321-.535.321-.749 0-2.033 1.712-1.819 2.782-2.033 1.177-.321 1.177.856 1.284 1.712.214 3.424-.107 7.062-.214 10.593-.107 3.317-.535 6.741.856 9.63.428.856.749 1.07 1.712.214 1.391-1.177 2.461-2.461 3.317-3.959.214-.214.214-.749.642-.535.214.107.749.107.642.749-.749 2.033-1.177 4.173-3.103 5.671-1.07.856-3.424.963-4.708.214-2.247-1.498-2.782-3.959-3.103-6.527-.214-2.675.214-5.35.321-8.025.107-1.177-.214-2.14 0-3.21zm16.692 22.791c1.391-1.177 8.56-9.202 8.881-7.918.214 1.177-5.564 8.453-7.918 10.486-1.926 1.712-5.671 3.959-7.918 3.745-1.712-.214-3.424-2.461-3.531-4.494-.214-1.712-.428-2.461 0-5.243.428-2.675 2.996-7.49 3.745-8.774 1.177-2.14 2.354-4.387 3.852-6.42 1.284-1.926 3.638-2.568 5.671-1.819 1.605.642 1.605 2.14 1.819 3.424.428 2.461-1.498 6.848-4.28 8.453-1.498.963-2.354.856-4.387 1.391-.535.107-.963.214-1.284.214-.749 1.605-1.391 3.21-1.819 4.815-.535 1.819-.428 3.531-.107 5.243.107.749.535.856 1.177.749 2.568-.535 4.173-2.247 6.099-3.852zm-1.712-14.231c-.963 1.284-1.391 2.675-2.033 3.959-.214.535-.535 1.07-.749 1.605.963.321 4.173-2.033 4.494-2.568.963-1.605 1.498-3.21 1.926-5.029.214-.642-.321-1.177-.428-2.14-.749 1.819-2.247 2.675-3.21 4.173zm28.141-8.239c.642-.107 2.247-.535 2.247 0 0 .428-.749.856-.749.856-1.177.428-2.14.856-2.782 1.498-2.461 2.461-5.136 4.601-7.597 6.955-2.675 2.675-4.708 5.778-7.062 8.667-1.498 1.926-2.461 4.28-3.638 6.313-.535.856-.856 1.712-.856 2.675-.107 1.498-1.498 2.461-2.996 2.033-.321-.214-.749-.321-.642-.749.214-1.177 0-2.461.749-3.531.535-.856.321-1.819.535-2.782.428-1.284.642-2.568 1.177-3.745.642-1.177 3.317-7.49 3.638-8.774.107-.642.214-1.391.535-2.033.107-.214.428-.749-.321-.963-.535-.214-.321-.749-.107-1.177.428-.749.749-1.391.856-2.247.107-.963 2.675-1.177 3.424-.428 1.712 1.605 2.033 2.996 1.391 5.992a887.36 887.36 0 0 1 4.173-3.852c2.461-2.033 4.708-4.494 8.025-4.708zm-16.478 28.997c0 .963-.856 1.07-1.498 1.391 0-.963.642-1.177 1.391-1.391-1.07-.642.107-.963.214-1.498.428.428-.107 1.07.214 1.498h-.321zm1.177-.535c-.642.107-.321-.428-.214-.428.321-.321.535-.856 1.07-.749.321.107.107.535-.107.749-.214.214-.428.535-.749.428zm20.223-14.017c-.535.428-.963-.107-1.605-.107.321-.214 1.926-.963 2.14-.107 0 .428-.428.214-.535.214zm-.963.963c-.428 0-1.07-.856-1.284.321.321-.535.963.214 1.284-.321zm-19.26 11.663c-.214 0-.214-.107-.107-.321.107-.214 0-.535.428-.535.214.107.428.107.214.321 0 .321-.107.535-.535.535zM186.608 45.3c-.107.214-.321.214-.535 0-.214-.214.107-.428.107-.642.749-.963.535-.107 1.391-.107.107.214 0 .321-.214.428-.214.107-.428.214-.749.321zm3.317-1.712c-.535.321-.535.321-.749-.107h-.856c.321-.428.642-.749.963-.214.107.321.428.107.642.321zm-28.89 18.939c-.107.214-.321.535-.535.428-.214 0-.107-.428.214-.428.107-.107.214 0 .321 0zm17.548-12.412c-.428 0-.749.321-1.284.214.428-.214.749-.642 1.284-.428v.214zm-1.07-.963c.107 0 .107.214.214.321-.107.107-.214.321-.321.321-.107 0-.321-.107-.214-.321.107-.107.107-.321.321-.321zm-22.04 18.088zm0 0c.046.035 1.066-1.396.961-1.396.107-.107.428.107.214.428 1.07-.428 1.284-1.498 2.033-2.14.642-.535 1.177-.856 1.926-.749l-1.926 2.247c-.321.428-.749.856-1.07 1.177-.428.428-.749.856-1.177 1.284-.107.214-.214.428-.214.642.856-.321 1.284-1.07 1.712-1.819.749 0 .642-.963 1.284-.963.321-.963 1.498-1.177 1.605-2.247.642-.214 1.177-.535 1.284-1.177 1.07-.214 1.605-.963 1.926-1.926.214.107.535.321.749-.107l.749-.749h.428c.428-.321.856-.642 1.177-.963 0-1.177-.856.321-.963-.428.642-.321.856-1.284 1.819-1.391-.107 0-.214-.107-.321-.214-.321-.214-.107-.428.107-.535.107-.321.321 0 .428.107l.321-.321c0-.535.321-.856.856-.856.321 0 .214.428.321.749 0 .214-.856.856-1.177.856 0 .428-.214.428-.321.749-.428 0-.749.214-.749.856.535.107.428-.535.749-.642 1.177-.535 2.14-1.177 2.996-2.14.214-.321.321 0 .428 0 .428-.535 0-.428-.321-.535-.321 0-.963.535-1.07-.214-.107-.428.428-.749.749-.963.107-.107.321-.214.428-.321.107-.107.107-.214.321-.321.214-.214.107-.963.642-.535.428.321-.107.642-.321.856.107.107.214.214.321.214v.535c.428.428.749.214 1.07-.214h.214c.535-.428 1.07-.856 1.712-1.177 0-.856-.535-.107-.749-.321a3.252 3.252 0 0 0-.749.535c-.107.321-.749.107-.749.535-.214 0-.321-.107-.535-.107.214-.214.321-.535.749-.428.321-.535.856-.642 1.284-.963.535-.428 1.177-.856 1.712-1.284-.428-.214-.214-.535.107-.642.321-.214.642-.107.642.428a.23.23 0 0 0-.214.214c.107.107.107.214.214.321 1.07.749 1.498 0 2.033-.749.107 0 .107 0 .107-.107-.107-.214-.321-.428-.428-.642-.214-.535-.214-1.177-.535-1.605-1.498-2.247-2.033-4.815-2.354-7.383-.107-.749.214-1.712.428-2.461.535-1.391.963-2.782 1.605-4.066.321-.535.856-.963 1.605-.963 1.07 0 2.14 0 3.103.963-1.605.428-2.247 1.284-2.033 2.782 0 .321-.214.749-.428.963-1.498 2.782-1.177 5.457 0 8.132.214.428.321 1.07 1.177.749.428-.107.107.214.107.321-.428.749.214.535.535.535-.321.321-.321.642-.214.963.428-.107.535-.428.535-.856.963.321 1.498-.321 2.14-.749 2.14-.642 3.852-2.033 5.992-2.782.535-.214 1.177-.214 1.605-.749.535.214.428-.428.749-.535.214-.107.428.107.642-.107-.107-.321-.428-.321-.642-.321v-.214c0-.107 0-.214-.107-.428-.107-.107-.214-.214-.428-.107-.107.107-.535.107-.428.535h-.749c-.214.428-.428.749-.963.321.535-.321 2.782-1.926 2.996-.642.214-.321.428-.214.642-.214v-.214c.321 0 .642 0 .963-.321-.321-.535-.642.321-.963 0 .321-.642.856-.856 1.498-.642.214-.107.321-.214.535-.214.535-.428 1.284-.535 1.926-.749 1.391-.321 2.782-.856 4.173-.749 2.033.107 3.638.749 5.136 2.461 1.07 1.391.642 2.675.749 3.959.107.321-.107.428-.428.428-.214.321-.428.642-.321.963v.214c-.107 1.177-1.177 2.675-2.247 2.675-.535.107-.856.749-1.391.535-1.07.642-.749 1.819-.856 1.819-.642.214-.428 1.07-.856 1.498-.321.428-.642.856-1.177 1.498-.107-1.284.963-1.712.856-2.568-.107.107-.428.214-.535.214-.428-.214 0-.535.107-.749 1.07-1.926 2.247-3.745 3.21-5.885.535-1.177.963-2.354 1.07-3.745.107-.856-.749-.749-1.391-.963h-1.926c-1.498.749-3.103 1.07-4.708 1.498-.642.214-1.177.749-1.926.535-.428.535-1.07.535-1.712.749-1.712 1.391-3.852 1.819-5.778 2.782-1.712.856-3.424 1.926-5.029 2.889.428 1.284 1.391 2.247 2.14 3.424.856 1.391 1.498 2.889 2.033 4.494.321 1.284.642 2.675.642 3.959.214 2.461-.428 4.815-1.926 6.955-1.605 2.354-3.638 4.494-5.564 6.634-1.498 1.605-3.424 2.889-5.35 4.066-1.391.963-2.782 1.819-4.28 2.568a33.194 33.194 0 0 1-8.988 2.568c-2.675.321-5.243 0-7.704-1.07-2.461-1.07-3.959-3.317-4.066-5.885-.107-2.14.963-4.173 2.247-5.885.535-.642.642-1.605 1.605-1.926 0-.428.214-.856.642-.963 0-.428.214-.749.642-.963.321.428.107.749-.321.963 0 .214-.107.321-.107.535.534-.534 1.388-.962 1.072-1.921zm48.362-26.006c.053-.053.053-.08.053-.107-.053.08-.053.107-.053.107zm.053-.107c0-.027 0-.053.054-.107a.378.378 0 0 0-.094.147l.04-.04zm-26.803 10.165c-.749.107-1.391.321-1.498 1.284.749-.214 1.177-.642 1.498-1.284zm-17.227 30.281c.535.107.963.214 1.498-.107-.535-.107-.963-.214-1.498 0-.428-.214-.856 0-1.284.107a.331.331 0 0 1 .107.214c.428.214.749-.107 1.177-.214zm2.247-.428c.321 0 .856.214.856-.535-.321.107-.642-.107-.963.321.107 0 .107.107.107.214zm8.56-2.033c.749-.107 1.391-.428 2.033-.963-1.498-.428-1.819-.321-2.033.963zm13.054-21.186c-.535-2.568-1.605-4.815-3.21-6.955-.535 0-1.07.321-1.498.642-1.284.856-2.461 1.712-3.852 2.354-.428.107-.749.428-1.07.856-.107.107-.321.321-.535.428-.428.107-.535.428-.642.749-1.07.428-2.033 1.177-2.889 1.926-1.284 1.07-2.675 2.14-3.959 3.21a5.217 5.217 0 0 0-.749.321 2.5 2.5 0 0 0-.749.749c-1.819 2.247-4.066 4.066-5.885 6.313-2.14 2.568-3.852 5.564-5.35 8.56-.321.749-.749 1.819-.107 2.889.535.535 1.391.642 2.14.749 1.284.214 2.568-.107 3.959 0 .535 0 1.07 0 1.605-.107 3.959-.963 7.811-2.461 11.235-4.815 1.926-1.391 3.852-2.675 5.35-4.494 1.605-1.712 3.21-3.317 4.494-5.136 1.712-2.568 2.461-5.243 1.712-8.239zm12.733-16.157c.321 0 .856 0 .856-.428 0-.535-.642-.107-.856-.428-.107 0-.214-.107-.321-.107 0 .535-.428.749-.856.963-.535-.107-.963.107-1.498.321v.642h.535c.107 0 .107-.107.214-.214.428.107.535-.214.749-.428.428 0 .749-.214 1.177-.321zm4.173-1.712c.321.214.749 0 1.07 0-.107-.535-.428-.535-.749-.535-.963-.428-1.819.321-2.675.321-.214.428-.856 0-.963.428.107.107.428 0 .428.321-.107.856.428.642.749.428.642-.428 1.605-.321 2.14-.963zm9.202 9.095c.428 0 1.712 3.21-1.391 7.811-1.284 1.819-2.889 2.782-4.066 4.387-1.177 1.498-3.745 1.284-5.457.107-.214-.107-.321-.214-.321-.535-.321-.642-.535-1.284-1.177-1.926-.856-.963 0-2.354.321-3.531.856-2.568 2.461-4.708 3.745-7.062 1.284-2.461 3.103-4.494 4.28-6.955.321-.749.856-1.284 1.391-2.033-.214 0-.428-.107-.535-.107-2.247 2.14-4.708 4.066-6.634 6.527-1.712 2.14-3.531 4.173-4.815 6.313-1.498 2.568-3.317 5.136-3.852 8.025-.214 1.177-.214 2.461-.642 3.638-.428 1.07-.535 2.461-2.033 2.782-.642.214-.749.749-.749 1.284 0 .749.321 2.033-.107 2.033-.428.107-.963-2.14-1.07-3.317-.321-3.959 1.177-7.49 2.568-11.128l5.457-14.766c2.14-5.564 4.922-10.914 7.276-16.478 0-.214.214-.321.642-.749-.642.107 2.033-4.387 2.247-4.708.535-1.177 1.605-2.247 2.14-3.531.856-1.926 2.354-3.638 3.317-5.564.535-.856 1.177-1.605 1.819-2.354.856-.963 1.926-.535 2.461-.107.535.428.535 1.498 0 2.247-2.354 2.996-3.959 6.42-5.671 9.737.535 0-1.819 4.173-2.14 4.815-.749 2.14-1.926 4.066-2.889 6.099-2.14 4.28-4.066 8.667-5.671 13.161-.535.214-.321.749-.642 1.177.856 0 .642-.642.963-.856 2.675-3.638 5.885-6.527 9.737-8.881.856-.535 1.07-.428 1.926.535 0 .107.107.107.107.107 3.103.642.749 2.461.642 3.638 0 1.07-.963 2.14-1.605 3.21-1.284 2.354-2.675 4.601-3.745 7.062-.321.749-1.07 1.284-1.391 2.14-.749 1.498-.963 3.21-1.819 4.815-.428.856-.963 1.605-1.177 2.675 1.07-.107 1.712-.856 2.247-1.391 1.498-1.605 3.103-3.21 4.173-5.029.642-1.07 1.819-3.317 2.14-3.317zm-6.206-25.038l-.428 1.605c.214-.535 1.07-1.926 1.07-2.247 0-.107-.214-.214-.321-.214-.428.107-.107.535-.321.856zm-1.284 3.531c.214-.642.321-1.07-.535-1.498.214.642.428.963.535 1.498zm-1.712 2.568c-.214.642-.856 1.284-.428 2.14.214-.642.535-1.391.749-2.14.428-.642 1.07-1.177.856-2.247-.749.749-.856 1.498-1.177 2.247zm-1.404 3.785c.173-.2.334-.414.12-.682-.268.16-.401.348-.441.562l.32.12zm-8.119 19.006c.535-.214.856-.321.749-1.07-.321.428-.749.428-.749 1.07zm2.14-4.708c.535-.963 1.07-2.14 1.284-3.424-.428.749-1.284 2.354-1.284 3.424zm1.391-4.601c1.177-.214 1.926-2.354 1.712-3.531-.428 1.177-.856 2.461-1.712 3.531zm2.033-4.066c.321.107.535-.214.535-.321.321-2.14 1.07-1.926 1.284-4.28-.428.963-1.07 3.317-1.926 3.959-.214.214-.214.428.107.642zm1.391 7.062c.321-.535.963-.642.642-1.391-.214.428-.856.535-.642 1.391zm2.996-4.066c.963-.428 1.605-.749 1.819-1.712-.963.214-1.177.963-1.819 1.712zm-1.498 12.626c.642-.963 1.605-1.819 1.712-3.424-.856 1.284-1.498 2.247-1.712 3.424zm8.132 1.07c.856-.321.856-1.07 1.07-1.819-.749.428-1.712.642-1.712 1.712-.963.107-1.07 1.07-1.605 1.605.642-.642 1.926-.321 2.247-1.498zm1.391-2.247c.214.107.321-.107.321-.321-.107-.214-.214-.428-.428-.321-.214.107-.428.321-.321.535.107.107.321.107.428.107zm13.482-.107c1.391-1.177 8.56-9.202 8.881-7.918.214 1.177-5.564 8.453-7.918 10.486-1.926 1.712-5.671 3.959-7.918 3.745-1.712-.214-3.424-2.461-3.531-4.494-.214-1.712-.428-2.461 0-5.243.428-2.675 2.996-7.49 3.745-8.774 1.177-2.14 2.354-4.387 3.852-6.42 1.284-1.926 3.638-2.568 5.671-1.819 1.605.642 1.605 2.14 1.819 3.424.428 2.461-1.498 6.848-4.28 8.453-1.498.963-2.354.856-4.387 1.391-.535.107-.963.214-1.284.214-.749 1.605-1.391 3.21-1.819 4.815-.535 1.819-.428 3.531-.107 5.243.107.749.535.856 1.177.749 2.568-.535 4.173-2.247 6.099-3.852zm-1.712-14.231c-.963 1.284-1.391 2.675-2.033 3.959-.214.535-.535 1.07-.749 1.605.963.321 4.173-2.033 4.494-2.568.963-1.605 1.498-3.21 1.926-5.029.214-.642-.321-1.177-.428-2.14-.749 1.819-2.247 2.675-3.21 4.173zm28.676-4.708c.856.535.428 1.605 0 2.14-1.819 2.568-3.638 5.136-5.136 8.025-.856 1.605-.856 3.531-2.247 4.815-.856.963-1.284 2.247-1.712 3.317-1.177 2.889-3.424 5.029-4.601 7.918-.749 2.033-2.14 3.852-3.21 5.885-.749 1.498-1.177 3.317-2.14 4.815-1.07 1.498-1.391 3.317-2.568 4.815-.963 1.284-1.605 2.782-1.926 4.387-.107.642-.856.749-1.07 1.391-.963 2.782-2.247 5.457-2.996 8.346-.214 1.07-.428 2.247-.749 3.317a5.818 5.818 0 0 0 0 1.926c.107.535.642 1.07-.107 1.391-.749.214-.963-.749-1.07-1.07-.749-1.926-.963-3.852-.642-5.885.963-6.527 3.745-12.412 6.741-18.19 1.177-2.354 2.033-4.815 3.317-7.062 1.498-2.675 2.782-5.35 4.28-8.453-1.712.856-3.317 1.712-4.815.749-3.531-2.033-2.568-5.457-2.247-6.634.428-2.675 1.712-5.029 3.317-7.276.963-1.391 1.712-2.996 2.996-4.066.749-.749 1.391-1.498 2.782-.535.856.535.749.856.321 1.391-1.498 1.712-2.675 3.531-3.852 5.457-1.391 2.354-2.675 4.708-3.21 7.49-.107.535.107.856.428 1.284.535.428.856-.107 1.177-.214 2.247-1.177 3.745-3.103 5.564-4.815 1.498-1.498 2.782-2.996 3.745-4.922 1.177-2.354 2.889-4.601 4.066-7.062.642-1.177 1.605-2.354 2.782-3.21.749-.535 1.926-.107 2.782.535zm-16.478 27.499c.428-.321.642-.642.321-1.177-.107.321-.535.642-.321 1.177z"/></symbol></svg>
