<svg xmlns="http://www.w3.org/2000/svg" width="651" height="228"><g fill="none" fill-rule="evenodd"><path fill="#8B949B" d="M12.334 16h-1.211V9.184H2.998V16H1.797V1.781h1.201v6.387h8.125V1.781h1.211V16zm8.146.195c-.69 0-1.325-.128-1.904-.385a4.46 4.46 0 0 1-1.5-1.075 4.938 4.938 0 0 1-.98-1.635 5.936 5.936 0 0 1-.352-2.08v-.42c0-.814.122-1.551.366-2.212.244-.661.574-1.224.991-1.69a4.445 4.445 0 0 1 1.44-1.079 4.024 4.024 0 0 1 1.724-.38c.67 0 1.266.12 1.787.36.521.241.959.577 1.314 1.006.354.43.623.941.805 1.534.183.592.274 1.24.274 1.943v.713h-7.54v.225c0 .579.089 1.124.264 1.635.176.511.424.956.743 1.333.319.378.7.676 1.142.894.443.218.934.327 1.475.327.625 0 1.176-.114 1.655-.342.479-.228.913-.592 1.304-1.094l.732.557c-.176.254-.38.495-.61.723-.231.228-.5.426-.806.595-.306.17-.65.303-1.035.4a5.237 5.237 0 0 1-1.29.147zm-.215-9.96a2.973 2.973 0 0 0-2.231.976c-.29.312-.528.688-.713 1.128-.186.44-.311.926-.376 1.46h6.338v-.127a4.715 4.715 0 0 0-.215-1.284c-.13-.414-.32-.78-.571-1.099a2.816 2.816 0 0 0-.933-.767c-.371-.192-.804-.288-1.299-.288zM34.105 16a3.357 3.357 0 0 1-.152-.669 9.257 9.257 0 0 1-.073-.806 4.152 4.152 0 0 1-1.436 1.172 4.701 4.701 0 0 1-2.148.498 4.15 4.15 0 0 1-1.402-.224c-.42-.15-.778-.36-1.074-.63a2.846 2.846 0 0 1-.932-2.144c0-.514.11-.978.332-1.391a3.01 3.01 0 0 1 .957-1.055c.416-.29.922-.511 1.518-.664a8.078 8.078 0 0 1 2.007-.23h2.168v-1.2c0-.756-.233-1.35-.698-1.783-.466-.433-1.144-.65-2.036-.65-.41 0-.788.056-1.133.167a2.86 2.86 0 0 0-.894.459 2.18 2.18 0 0 0-.586.678 1.7 1.7 0 0 0-.21.826l-1.172-.01c0-.397.098-.781.293-1.153.196-.37.47-.701.826-.99.354-.29.78-.523 1.279-.699a4.946 4.946 0 0 1 1.655-.264c.56 0 1.076.072 1.548.215.472.143.877.358 1.216.645.338.286.602.644.79 1.074.19.43.284.93.284 1.504v5.117c0 .182.007.371.02.566.013.196.034.384.063.567.03.182.064.356.103.522.039.166.084.311.136.435V16h-1.25zm-3.673-.84c.424 0 .816-.054 1.177-.161.362-.107.689-.256.982-.444.293-.19.547-.409.761-.66a3.32 3.32 0 0 0 .518-.815v-2.324h-2.002a7.27 7.27 0 0 0-1.606.161c-.472.107-.871.262-1.197.464a2.19 2.19 0 0 0-.747.737c-.172.29-.259.617-.259.982 0 .286.056.555.166.805.111.25.269.469.474.655.205.185.454.332.747.439.293.107.622.161.986.161zm7.96-4.54c0-.821.095-1.562.284-2.223.189-.66.459-1.225.81-1.694a3.63 3.63 0 0 1 1.285-1.084c.504-.254 1.072-.38 1.704-.38.749 0 1.391.149 1.929.449.537.299.981.712 1.333 1.24V1h1.162v15h-1.094l-.049-1.406a3.71 3.71 0 0 1-1.343 1.177c-.543.283-1.196.424-1.958.424a3.573 3.573 0 0 1-1.69-.395 3.77 3.77 0 0 1-1.278-1.104c-.352-.472-.622-1.036-.81-1.694a7.874 7.874 0 0 1-.284-2.178v-.205zm1.182.204c0 .619.062 1.193.186 1.724.124.53.313.991.566 1.382.254.39.575.696.962.918.388.221.848.332 1.382.332.397 0 .757-.048 1.08-.142.322-.094.608-.226.859-.395.25-.17.468-.372.654-.606.186-.234.343-.488.474-.762v-4.96a4.736 4.736 0 0 0-.43-.772 2.92 2.92 0 0 0-1.484-1.118 3.426 3.426 0 0 0-1.133-.171c-.54 0-1.006.112-1.397.337-.39.224-.713.532-.967.923-.253.39-.442.853-.566 1.386a7.602 7.602 0 0 0-.186 1.72v.204zM51.998 16h-1.172V5.434h1.172V16zM50.62 2.377c0-.221.071-.409.215-.562.143-.153.338-.23.586-.23.247 0 .444.077.59.23.147.153.22.34.22.562a.765.765 0 0 1-.22.557c-.146.15-.343.224-.59.224-.248 0-.443-.075-.586-.224a.774.774 0 0 1-.215-.557zm6.378 3.057l.04 1.806c.182-.3.391-.573.63-.82a3.834 3.834 0 0 1 2.816-1.182c.528 0 1 .072 1.417.215.416.143.77.371 1.06.684.289.312.51.714.663 1.206.153.491.23 1.085.23 1.782V16h-1.162V9.115c0-.547-.06-1.002-.176-1.367-.117-.365-.283-.658-.498-.879a1.812 1.812 0 0 0-.786-.473 3.52 3.52 0 0 0-1.03-.142c-.417 0-.795.07-1.134.21-.338.14-.638.327-.898.561a3.74 3.74 0 0 0-.674.806 4.626 4.626 0 0 0-.449.933V16h-1.162V5.434h1.113zm10.119 5.185c0-.82.093-1.56.278-2.222.186-.66.454-1.225.806-1.694a3.63 3.63 0 0 1 1.284-1.084c.504-.254 1.076-.38 1.714-.38.755 0 1.403.15 1.943.453.54.303.986.725 1.338 1.265l.059-1.523h1.093v10.38c0 .684-.1 1.298-.302 1.841a3.89 3.89 0 0 1-.855 1.382 3.7 3.7 0 0 1-1.333.87 4.804 4.804 0 0 1-1.748.302c-.332 0-.67-.037-1.016-.112a4.656 4.656 0 0 1-1.914-.898 3.722 3.722 0 0 1-.752-.797l.655-.703c.43.528.885.913 1.367 1.157a3.45 3.45 0 0 0 1.582.367c.501 0 .946-.077 1.333-.23.387-.153.714-.374.981-.664.267-.29.47-.641.61-1.055.14-.413.21-.883.21-1.41v-1.231c-.35.488-.797.87-1.337 1.147-.54.277-1.185.415-1.934.415-.631 0-1.198-.132-1.699-.395a3.77 3.77 0 0 1-1.28-1.104c-.35-.472-.62-1.036-.805-1.694a8.004 8.004 0 0 1-.278-2.178v-.205zm1.181.205c0 .619.062 1.193.186 1.724.124.53.312.991.566 1.382.254.39.575.696.962.918.388.221.848.332 1.382.332a3.75 3.75 0 0 0 1.089-.147c.322-.097.607-.233.854-.405.248-.173.463-.376.645-.61.182-.235.339-.492.469-.772V8.334a4.091 4.091 0 0 0-.425-.786 2.94 2.94 0 0 0-1.48-1.123 3.426 3.426 0 0 0-1.132-.171c-.54 0-1.006.112-1.397.337-.39.224-.713.532-.967.923-.254.39-.442.853-.566 1.386a7.602 7.602 0 0 0-.186 1.72v.204zM5.967 39.535l4.346-7.754h1.386l-5.136 8.867V46H5.36v-5.352L.234 31.781H1.66l4.307 7.754zm14.005 3.78c0-.215-.037-.43-.112-.645a1.54 1.54 0 0 0-.42-.61c-.205-.192-.492-.372-.86-.538-.367-.166-.844-.31-1.43-.434a12.34 12.34 0 0 1-1.568-.43 4.511 4.511 0 0 1-1.162-.59 2.334 2.334 0 0 1-.717-.826c-.163-.319-.245-.693-.245-1.123 0-.39.087-.762.26-1.113.172-.352.42-.658.741-.918.323-.26.713-.467 1.172-.62a4.88 4.88 0 0 1 1.548-.23c.612 0 1.16.08 1.646.24.485.159.895.38 1.23.664.335.283.59.616.767 1 .175.385.263.801.263 1.25h-1.171c0-.273-.06-.54-.181-.8-.12-.26-.296-.49-.528-.689a2.728 2.728 0 0 0-.859-.483 3.416 3.416 0 0 0-1.167-.186c-.456 0-.845.056-1.167.166a2.4 2.4 0 0 0-.79.43 1.634 1.634 0 0 0-.592 1.25c0 .234.036.448.108.64.071.192.21.37.415.537.205.166.491.319.86.459.367.14.847.278 1.44.415.638.15 1.188.316 1.65.498.462.182.845.399 1.147.65.303.25.528.536.674.859.147.322.22.695.22 1.118 0 .436-.091.835-.273 1.196-.183.361-.443.67-.782.928a3.807 3.807 0 0 1-1.23.6 5.644 5.644 0 0 1-1.612.215c-.67 0-1.263-.086-1.777-.258a3.984 3.984 0 0 1-1.299-.699 2.939 2.939 0 0 1-.796-1.01 2.758 2.758 0 0 1-.268-1.187h1.172c.026.417.133.763.322 1.04s.423.498.703.664c.28.166.59.285.933.357a4.92 4.92 0 0 0 1.01.107 3.99 3.99 0 0 0 1.172-.156 2.72 2.72 0 0 0 .855-.42c.231-.176.405-.378.522-.606a1.54 1.54 0 0 0 .176-.713zm3.869-2.754c0-.769.112-1.478.337-2.13a5.044 5.044 0 0 1 .952-1.684c.41-.472.905-.841 1.484-1.108.58-.267 1.224-.4 1.934-.4.722 0 1.375.133 1.958.4.582.267 1.079.636 1.489 1.108.41.472.726 1.034.947 1.685.222.65.332 1.36.332 2.129v.322c0 .768-.11 1.478-.332 2.129a4.979 4.979 0 0 1-.947 1.684c-.41.472-.905.84-1.484 1.104-.58.263-1.228.395-1.944.395s-1.364-.132-1.943-.395a4.351 4.351 0 0 1-1.49-1.104 4.998 4.998 0 0 1-.956-1.684 6.488 6.488 0 0 1-.337-2.13v-.321zm1.172.322c0 .58.078 1.131.234 1.655.156.524.384.983.684 1.377.299.394.67.708 1.113.942.443.235.95.352 1.523.352s1.08-.117 1.519-.352c.44-.234.809-.548 1.108-.942.3-.394.528-.853.684-1.377a5.763 5.763 0 0 0 .234-1.655v-.322c0-.567-.078-1.112-.234-1.636a4.322 4.322 0 0 0-.684-1.382 3.363 3.363 0 0 0-1.118-.952c-.446-.238-.955-.357-1.528-.357-.567 0-1.07.12-1.51.357-.439.237-.808.555-1.107.952-.3.397-.528.858-.684 1.382a5.695 5.695 0 0 0-.234 1.636v.322zm19.894-.059c0 .794-.09 1.52-.269 2.178-.18.658-.441 1.222-.786 1.694a3.68 3.68 0 0 1-1.27 1.104c-.501.263-1.07.395-1.709.395-.774 0-1.437-.146-1.987-.44a3.784 3.784 0 0 1-1.353-1.2L37.485 46H36.39V31h1.162v5.967a3.764 3.764 0 0 1 1.338-1.275c.54-.302 1.195-.454 1.963-.454.644 0 1.217.127 1.719.381a3.6 3.6 0 0 1 1.274 1.084c.348.469.612 1.034.791 1.694.179.661.269 1.402.269 2.222v.205zm-1.172-.205c0-.612-.059-1.185-.176-1.719a4.222 4.222 0 0 0-.552-1.386 2.774 2.774 0 0 0-.962-.923c-.39-.225-.86-.337-1.406-.337-.443 0-.833.06-1.172.18a2.93 2.93 0 0 0-1.504 1.177c-.17.26-.306.53-.41.81v4.767a3.9 3.9 0 0 0 .464.786 2.977 2.977 0 0 0 1.533 1.054c.329.101.698.152 1.108.152.528 0 .985-.111 1.373-.332.387-.222.708-.528.961-.918.254-.39.442-.852.562-1.382.12-.53.18-1.105.18-1.724v-.205zm8.556 5.576c-.69 0-1.325-.128-1.905-.385a4.46 4.46 0 0 1-1.499-1.075 4.938 4.938 0 0 1-.981-1.635 5.936 5.936 0 0 1-.352-2.08v-.42c0-.814.122-1.551.367-2.212.244-.661.574-1.224.99-1.69a4.445 4.445 0 0 1 1.441-1.079 4.024 4.024 0 0 1 1.724-.38c.67 0 1.266.12 1.787.36.52.241.959.577 1.313 1.006.355.43.624.941.806 1.534.182.592.274 1.24.274 1.943v.713h-7.54v.225c0 .579.088 1.124.264 1.635.176.511.423.956.742 1.333.32.378.7.676 1.143.894.443.218.934.327 1.475.327.625 0 1.176-.114 1.655-.342.478-.228.913-.592 1.304-1.094l.732.557c-.176.254-.38.495-.61.723-.232.228-.5.426-.806.595-.306.17-.651.303-1.035.4a5.237 5.237 0 0 1-1.29.147zm-.215-9.96a2.973 2.973 0 0 0-2.232.976c-.29.312-.527.688-.712 1.128-.186.44-.311.926-.376 1.46h6.337v-.127a4.715 4.715 0 0 0-.214-1.284c-.13-.414-.321-.78-.572-1.099a2.816 2.816 0 0 0-.932-.767c-.371-.192-.804-.288-1.3-.288zM60.554 46h-1.172V31h1.172v15zm10.94-5.791V46h-1.201V31.781h4.844c.781 0 1.47.104 2.065.313.596.208 1.096.5 1.5.874.403.374.707.822.912 1.343.205.52.308 1.093.308 1.718 0 .658-.103 1.245-.308 1.763a3.428 3.428 0 0 1-.908 1.313c-.4.359-.9.632-1.499.82-.599.19-1.289.284-2.07.284h-3.643zm0-1.016h3.643c.631 0 1.175-.08 1.63-.239.456-.16.827-.38 1.114-.664.286-.283.498-.617.635-1 .136-.385.205-.798.205-1.241a3.77 3.77 0 0 0-.205-1.245 2.784 2.784 0 0 0-.635-1.035c-.287-.297-.658-.531-1.113-.704-.456-.172-1-.258-1.631-.258h-3.643v6.386zm16.437-2.763a4.365 4.365 0 0 0-.79-.069c-.398 0-.756.059-1.075.176-.32.117-.6.282-.845.493-.244.212-.45.463-.615.752a4.17 4.17 0 0 0-.396.962V46h-1.162V35.434h1.143l.02 1.68a3.497 3.497 0 0 1 1.166-1.373c.492-.335 1.096-.503 1.812-.503.143 0 .29.013.44.04.15.025.26.055.331.087l-.029 1.065zm1.72 4.13c0-.768.113-1.477.337-2.128a5.044 5.044 0 0 1 .952-1.685c.41-.472.905-.841 1.485-1.108.58-.267 1.224-.4 1.933-.4.723 0 1.376.133 1.958.4.583.267 1.08.636 1.49 1.108.41.472.725 1.034.947 1.685.221.65.332 1.36.332 2.129v.322c0 .768-.11 1.478-.332 2.129a4.979 4.979 0 0 1-.947 1.684c-.41.472-.905.84-1.485 1.104-.58.263-1.227.395-1.943.395s-1.364-.132-1.944-.395a4.351 4.351 0 0 1-1.489-1.104 4.998 4.998 0 0 1-.957-1.684 6.488 6.488 0 0 1-.337-2.13v-.321zm1.172.323c0 .58.078 1.131.234 1.655.157.524.385.983.684 1.377.3.394.67.708 1.113.942.443.235.95.352 1.524.352.573 0 1.079-.117 1.518-.352.44-.234.81-.548 1.109-.942.3-.394.527-.853.683-1.377a5.763 5.763 0 0 0 .235-1.655v-.322c0-.567-.078-1.112-.235-1.636a4.322 4.322 0 0 0-.683-1.382 3.363 3.363 0 0 0-1.118-.952c-.446-.238-.956-.357-1.529-.357-.566 0-1.07.12-1.509.357-.439.237-.808.555-1.108.952-.3.397-.527.858-.684 1.382a5.695 5.695 0 0 0-.234 1.636v.322z"/><path fill="#222" d="M58.559 221v-5.027l12.31-1.805-7.412-20.496H30.07l-7.927 20.496 12.117 1.805V221H4.16v-5.027l9.152-1.805 34.547-89.783h9.282l33 89.783 9.99 1.805V221H58.559zm-11.215-72.059h-.387l-13.986 36.803h27.715l-13.342-36.803zm103.468 73.09v-8.443h-.58a24.313 24.313 0 0 1-3.448 3.932 20.16 20.16 0 0 1-4.222 2.964c-1.546.817-3.276 1.44-5.188 1.87-1.912.43-4.05.644-6.413.644-3.18 0-6.026-.44-8.54-1.321-2.514-.881-4.63-2.116-6.349-3.706a15.852 15.852 0 0 1-3.931-5.672c-.903-2.192-1.354-4.62-1.354-7.283 0-4.426 1.01-8.057 3.03-10.893 2.019-2.836 4.78-5.145 8.282-6.929 3.502-1.783 7.594-3.212 12.278-4.286 4.684-1.074 9.71-2.062 15.082-2.965v-8.056c0-8.336-3.781-12.504-11.344-12.504-2.922 0-5.468.344-7.637 1.031-2.17.688-3.814 1.44-4.931 2.256 1.46 1.246 2.492 2.546 3.094 3.9.601 1.353.902 2.567.902 3.64a7.455 7.455 0 0 1-.645 3.062 7.98 7.98 0 0 1-1.74 2.514 8.012 8.012 0 0 1-2.61 1.676c-1.01.408-2.116.612-3.32.612-2.578 0-4.65-.827-6.22-2.481-1.568-1.655-2.352-3.814-2.352-6.478 0-2.32.634-4.49 1.902-6.51 1.267-2.02 3.083-3.792 5.446-5.317 2.363-1.525 5.22-2.728 8.572-3.61 3.352-.88 7.111-1.32 11.28-1.32 4.468 0 8.378.461 11.73 1.385 3.352.924 6.134 2.406 8.347 4.447 2.213 2.041 3.878 4.705 4.995 7.993 1.117 3.287 1.676 7.294 1.676 12.02v35.965l9.28 1.805V221l-25.072 1.031zm-13.857-7.219c2.106 0 4.06-.612 5.865-1.836 1.805-1.225 3.266-2.912 4.383-5.06.988-1.762 1.611-3.975 1.87-6.639.257-2.664.386-6.08.386-10.248v-4.318c-3.61.773-6.725 1.568-9.346 2.385-2.62.816-4.801 1.847-6.542 3.093a11.257 11.257 0 0 0-3.867 4.802c-.838 1.955-1.257 4.458-1.257 7.509 0 1.46.194 2.814.58 4.06.387 1.247.946 2.332 1.676 3.255a8.012 8.012 0 0 0 2.675 2.192c1.053.537 2.245.805 3.577.805zM307.311 26v-1.295l3.17-.465-1.909-5.28h-8.6l-2.041 5.28 3.12.465V26H293.3v-1.295l2.357-.465 8.899-23.126h2.39l8.5 23.126 2.574.465V26H307.31zm-2.89-18.56h-.099l-3.602 9.479h7.138l-3.436-9.48zm26.435 18.826V24.09h-.15a6.262 6.262 0 0 1-.887 1.013 5.193 5.193 0 0 1-1.088.763c-.398.21-.844.371-1.336.482a7.552 7.552 0 0 1-1.652.166c-.819 0-1.552-.114-2.2-.34-.647-.228-1.192-.546-1.635-.955a4.083 4.083 0 0 1-1.013-1.461 4.882 4.882 0 0 1-.348-1.876c0-1.14.26-2.075.78-2.806.52-.73 1.231-1.325 2.133-1.785.902-.459 1.956-.827 3.163-1.104a67.282 67.282 0 0 1 3.885-.763V13.35c0-2.148-.974-3.221-2.922-3.221-.753 0-1.409.088-1.968.266-.558.177-.982.37-1.27.58.377.322.642.656.797 1.005.155.349.233.661.233.938 0 .277-.056.54-.166.789-.111.249-.26.464-.449.647a2.064 2.064 0 0 1-.672.432 2.26 2.26 0 0 1-.855.157c-.664 0-1.198-.213-1.602-.639-.404-.426-.606-.982-.606-1.668 0-.598.163-1.157.49-1.677.326-.52.794-.977 1.403-1.37.608-.393 1.344-.702 2.208-.93.863-.226 1.831-.34 2.905-.34 1.151 0 2.158.12 3.021.357.864.238 1.58.62 2.15 1.146.57.525 1 1.212 1.287 2.058.288.847.432 1.88.432 3.097v9.263l2.39.465V26l-6.458.266zm-3.57-1.86c.543 0 1.047-.157 1.512-.473.465-.315.84-.75 1.129-1.303.254-.454.415-1.024.481-1.71.066-.686.1-1.566.1-2.64v-1.112c-.93.2-1.732.404-2.408.614-.675.21-1.236.476-1.685.797a2.9 2.9 0 0 0-.996 1.237c-.216.504-.323 1.148-.323 1.934 0 .376.05.725.149 1.046.1.32.243.6.432.838.188.238.417.426.689.565.27.138.578.207.92.207zm21.227.3l2.856-.466V3.39l-2.856-.449V1.63h10.276c1.66 0 3.072.13 4.234.39s2.114.645 2.855 1.154c.742.509 1.281 1.132 1.619 1.868.338.736.506 1.58.506 2.531 0 .786-.135 1.503-.406 2.15a5.123 5.123 0 0 1-1.154 1.702 5.846 5.846 0 0 1-1.818 1.187c-.714.304-1.514.495-2.399.573v.265c1.04.022 1.976.166 2.806.432.83.265 1.538.653 2.125 1.162a5.093 5.093 0 0 1 1.353 1.868c.315.736.473 1.59.473 2.565 0 .996-.202 1.895-.606 2.697-.404.803-1.018 1.486-1.843 2.05-.824.565-1.868 1.002-3.13 1.312-1.261.31-2.744.465-4.449.465h-10.442v-1.295zm8.4-12.17c.797 0 1.564-.044 2.3-.133.736-.088 1.38-.296 1.934-.622.553-.327.996-.8 1.328-1.42.332-.62.498-1.46.498-2.523 0-.808-.097-1.491-.29-2.05a2.844 2.844 0 0 0-.938-1.345c-.432-.338-.988-.581-1.669-.73-.68-.15-1.508-.225-2.482-.225H356.2v9.048h.713zm.997 11.588c.84 0 1.618-.05 2.332-.15.714-.099 1.334-.315 1.86-.647.525-.332.937-.805 1.236-1.42.3-.614.449-1.435.449-2.465 0-.985-.142-1.804-.424-2.457-.282-.653-.675-1.173-1.179-1.56-.503-.388-1.1-.659-1.792-.814a10.45 10.45 0 0 0-2.283-.232h-1.91v9.745h1.71zm25.023 2.39c-1.196 0-2.228-.235-3.096-.705a6.086 6.086 0 0 1-2.167-1.984l-1.975 2.407h-1.428V2.841l-2.49-.299V1.214l6.906-.548V10.76h.133a5.793 5.793 0 0 1 1.967-1.793c.78-.432 1.724-.648 2.83-.648 1.063 0 2.029.213 2.897.64a6.38 6.38 0 0 1 2.233 1.826c.62.791 1.099 1.74 1.436 2.847.338 1.107.507 2.34.507 3.702 0 1.306-.164 2.518-.49 3.636-.327 1.118-.813 2.089-1.46 2.913a6.749 6.749 0 0 1-2.425 1.934c-.968.465-2.094.698-3.378.698zm-.614-2.075c1.206 0 2.108-.589 2.706-1.768.597-1.178.896-2.902.896-5.171 0-1.107-.075-2.089-.224-2.947-.15-.858-.37-1.582-.664-2.175-.293-.592-.661-1.043-1.104-1.353-.443-.31-.957-.464-1.544-.464-.675 0-1.256.202-1.743.606-.487.403-.886.935-1.196 1.593a8.73 8.73 0 0 0-.68 2.225 14.412 14.412 0 0 0-.216 2.482c0 1.118.058 2.108.174 2.971.117.864.319 1.591.606 2.184.288.592.673 1.043 1.154 1.353.482.31 1.093.464 1.835.464zm38.176-13.812l-2.358-6.143a6.768 6.768 0 0 0-.705-.473 5.932 5.932 0 0 0-.938-.44 7.177 7.177 0 0 0-1.195-.323 8.046 8.046 0 0 0-1.478-.125c-.94 0-1.796.221-2.565.664-.77.443-1.425 1.115-1.967 2.017-.542.902-.96 2.031-1.254 3.387-.293 1.356-.44 2.947-.44 4.773 0 1.616.153 3.055.457 4.316.304 1.262.744 2.33 1.32 3.204.575.875 1.275 1.539 2.1 1.993.825.453 1.757.68 2.797.68 1.207 0 2.341-.177 3.404-.531a15.892 15.892 0 0 0 3.187-1.494l1.03 1.527c-.432.31-.927.634-1.486.971-.56.338-1.182.645-1.868.922-.686.276-1.442.506-2.266.689-.825.182-1.718.274-2.681.274-1.838 0-3.462-.319-4.873-.955-1.411-.636-2.598-1.516-3.56-2.64-.964-1.123-1.692-2.454-2.184-3.992-.493-1.539-.739-3.215-.739-5.03 0-1.096.108-2.173.324-3.23.216-1.057.534-2.058.955-3.004.42-.947.943-1.821 1.568-2.623a10.174 10.174 0 0 1 2.175-2.076 10.11 10.11 0 0 1 2.773-1.361c1.023-.326 2.144-.49 3.361-.49.72 0 1.367.042 1.943.125.575.083 1.096.196 1.56.34.465.144.889.313 1.27.506.382.194.75.402 1.104.623l.913-1.428h1.495l.315 9.347h-1.494zm13.369 15.888c-1.207 0-2.302-.227-3.287-.681a7.507 7.507 0 0 1-2.524-1.868c-.697-.791-1.234-1.723-1.61-2.797-.376-1.074-.564-2.23-.564-3.47 0-1.361.213-2.617.639-3.768.426-1.151 1.026-2.142 1.8-2.972a8.226 8.226 0 0 1 2.765-1.942c1.068-.465 2.244-.698 3.528-.698.896 0 1.73.108 2.498.324.77.216 1.431.52 1.984.913.554.393.988.858 1.304 1.395.315.536.473 1.12.473 1.751a2.767 2.767 0 0 1-.714 1.876 2.39 2.39 0 0 1-.789.573 2.359 2.359 0 0 1-.988.207c-.365 0-.694-.063-.987-.19a2.238 2.238 0 0 1-1.386-2.083c0-.444.113-.864.34-1.263.227-.398.512-.725.855-.98-.21-.187-.515-.359-.913-.514-.399-.155-.913-.232-1.544-.232-.675 0-1.268.16-1.777.481-.509.321-.935.783-1.278 1.386-.343.604-.6 1.34-.772 2.208-.171.87-.257 1.851-.257 2.947 0 1.273.102 2.36.307 3.262.205.902.5 1.641.888 2.217.387.575.858.999 1.411 1.27.554.27 1.173.406 1.86.406.343 0 .713-.036 1.112-.107a15.84 15.84 0 0 0 2.407-.647c.387-.14.742-.275 1.063-.408l.68 1.395A14.763 14.763 0 0 1 437.201 26a10.791 10.791 0 0 1-3.337.515zm18.238-1.81l2.855-.465V3.39l-2.855-.449V1.63h8.035c1.262 0 2.38.025 3.353.075.974.05 1.846.135 2.615.257.77.122 1.458.285 2.067.49a9.21 9.21 0 0 1 1.71.772c.764.442 1.466.99 2.108 1.643a10.216 10.216 0 0 1 1.669 2.266c.47.858.838 1.815 1.104 2.872.266 1.057.398 2.217.398 3.478 0 .941-.06 1.868-.182 2.781s-.33 1.79-.623 2.632a10.947 10.947 0 0 1-1.17 2.382 9.15 9.15 0 0 1-1.826 2.034 10.643 10.643 0 0 1-2.059 1.37c-.697.348-1.483.619-2.357.813-.875.193-1.868.326-2.98.398a61.845 61.845 0 0 1-3.927.108h-7.935v-1.295zm9.114-.581c.642 0 1.217-.017 1.727-.05.509-.033.976-.097 1.402-.19a7.018 7.018 0 0 0 1.196-.374c.37-.155.744-.354 1.12-.598 1.107-.72 1.904-1.879 2.391-3.478.487-1.6.73-3.583.73-5.952 0-.675-.027-1.342-.083-2a16.91 16.91 0 0 0-.265-1.9 12.751 12.751 0 0 0-.465-1.72 7.49 7.49 0 0 0-.68-1.452 5.35 5.35 0 0 0-1.204-1.403c-.46-.37-.988-.67-1.586-.896a8.763 8.763 0 0 0-2.017-.482 20.12 20.12 0 0 0-2.498-.14h-1.196v20.635h1.428zm30.037 2.142v-2.673h-.133c-.586.985-1.298 1.718-2.133 2.2-.836.48-1.868.722-3.096.722-1.107 0-2.095-.236-2.964-.706a6.68 6.68 0 0 1-2.2-1.91c-.597-.802-1.054-1.74-1.37-2.813a12.074 12.074 0 0 1-.472-3.42c0-1.372.174-2.634.523-3.785.348-1.151.844-2.136 1.486-2.955a6.837 6.837 0 0 1 2.332-1.918c.913-.459 1.934-.689 3.063-.689.531 0 1.024.058 1.478.175A5.231 5.231 0 0 1 490 9.68c.293.265.55.548.771.846h.15V2.841l-3.204-.299V1.214l7.62-.548V24.24l2.474.465V26l-6.558.266zm-4.15-2.026c.575 0 1.104-.15 1.585-.448.481-.299.896-.739 1.245-1.32.349-.58.617-1.29.805-2.125.188-.835.283-1.796.283-2.88 0-1.074-.092-2.04-.274-2.897-.183-.858-.438-1.583-.764-2.175-.327-.592-.72-1.046-1.179-1.361a2.625 2.625 0 0 0-1.519-.473c-.697 0-1.278.196-1.743.589-.465.393-.836.916-1.112 1.569-.277.653-.473 1.4-.59 2.241a19.03 19.03 0 0 0-.174 2.606c0 .864.055 1.7.166 2.507.11.808.299 1.52.564 2.134.266.614.618 1.106 1.055 1.477.437.37.987.556 1.652.556zm21.99 1.76v-1.295l2.855-.465V3.39l-2.856-.449V1.63h18.91l.348 8.317h-1.394l-2.358-6.458h-7.82v9.015h3.82l1.527-4.217h1.394v10.542h-1.394l-1.56-4.482h-3.786v9.778h7.952l2.723-7.039h1.394L528.417 26h-19.325zm28.426-8.052c.011 1.151.13 2.128.357 2.93.227.803.542 1.456.946 1.96.404.503.888.868 1.453 1.095.564.227 1.19.34 1.876.34.442 0 .888-.038 1.336-.116a14.084 14.084 0 0 0 2.648-.73c.432-.166.847-.338 1.245-.515l.68 1.395c-.564.343-1.117.65-1.66.921-.542.271-1.095.504-1.66.697-.564.194-1.156.34-1.776.44-.62.1-1.29.15-2.009.15-1.261 0-2.398-.224-3.411-.673a7.513 7.513 0 0 1-2.59-1.867c-.714-.797-1.262-1.746-1.644-2.848-.381-1.1-.572-2.299-.572-3.594 0-1.317.21-2.537.63-3.66.421-1.124 1.002-2.098 1.744-2.922a8.001 8.001 0 0 1 2.623-1.934c1.007-.465 2.103-.698 3.287-.698 1.206 0 2.277.21 3.212.631a6.75 6.75 0 0 1 2.358 1.727 7.544 7.544 0 0 1 1.452 2.565c.332.98.498 2.022.498 3.13v1.576H537.52zm6.358-3.071c0-.708-.05-1.356-.15-1.942-.099-.587-.26-1.09-.48-1.511a2.55 2.55 0 0 0-.872-.98c-.36-.232-.8-.348-1.32-.348-.974 0-1.774.498-2.399 1.494s-.993 2.457-1.104 4.383h6.325v-1.096zm33.96-4.93l-2.358-6.459h-7.786v9.347h3.852l1.494-4.217h1.428V19.16h-1.428l-1.527-4.482h-3.819v9.562l3.238.465V26h-10.924v-1.295l2.855-.465V3.39l-2.855-.449V1.63h18.876l.348 8.317h-1.394zM582.324 26v-1.295l2.656-.465V10.91h-3.054V8.833h3.054V7.506c0-1.14.194-2.139.581-2.997a6.018 6.018 0 0 1 1.586-2.141c.67-.57 1.45-.996 2.34-1.279a9.375 9.375 0 0 1 2.848-.423c.752 0 1.43.083 2.033.249.604.166 1.116.396 1.536.689.42.293.744.634.971 1.021.227.387.34.802.34 1.245 0 .73-.21 1.309-.63 1.735-.42.426-.947.64-1.577.64-.664 0-1.187-.18-1.57-.54a1.762 1.762 0 0 1-.572-1.337c0-.376.102-.71.307-1.004a3.35 3.35 0 0 1 .722-.756 2.382 2.382 0 0 0-.589-.199 4.097 4.097 0 0 0-.805-.066c-.52 0-.974.102-1.362.307-.387.205-.71.534-.97.988-.26.453-.455 1.046-.582 1.776-.127.73-.19 1.621-.19 2.673v.747h4.017v2.075h-4.018V24.24l2.939.465V26h-10.011zm43.539-9.513v9.845h-1.528l-1.079-1.826c-.874.62-1.876 1.11-3.005 1.47-1.129.359-2.451.539-3.967.539-1.605 0-3.091-.285-4.458-.855a10.057 10.057 0 0 1-3.544-2.466c-.996-1.073-1.777-2.374-2.341-3.901-.565-1.527-.847-3.248-.847-5.163s.269-3.67.805-5.263c.537-1.594 1.298-2.966 2.283-4.117a10.227 10.227 0 0 1 3.57-2.681c1.394-.637 2.949-.955 4.664-.955.72 0 1.376.039 1.968.116.592.078 1.137.186 1.635.324.498.139.952.307 1.361.507.41.199.792.415 1.146.647l.93-1.428h1.494l.298 9.347h-1.494l-2.34-6.143a15.983 15.983 0 0 0-.78-.498 5.27 5.27 0 0 0-.955-.44 7.439 7.439 0 0 0-1.212-.307 9.315 9.315 0 0 0-1.57-.116c-.984 0-1.872.221-2.664.664-.791.443-1.466 1.115-2.025 2.017-.559.902-.99 2.045-1.295 3.428-.304 1.384-.457 3.016-.457 4.898 0 1.583.128 3.013.382 4.291.255 1.279.642 2.369 1.162 3.27.52.903 1.174 1.597 1.96 2.084.785.487 1.715.73 2.788.73.897 0 1.73-.124 2.499-.373a7.545 7.545 0 0 0 2.133-1.087v-6.558l-3.57-.481V14.71h9.895v1.295l-1.842.481zm22.167-5.445l-3.187-.315c.51.52.874 1.06 1.096 1.618.221.56.332 1.187.332 1.884 0 .82-.172 1.57-.515 2.25a5.06 5.06 0 0 1-1.486 1.76c-.647.492-1.433.877-2.357 1.154-.924.276-1.967.415-3.13.415h-1.693c-.764 0-1.323.116-1.677.348-.354.233-.531.504-.531.814 0 .221.053.406.158.556.105.15.28.274.523.373.243.1.567.177.97.233.405.055.906.1 1.503.133l3.238.199c.431.033.882.075 1.353.124.47.05.932.133 1.386.25.454.116.883.27 1.287.464.403.194.758.448 1.062.764.304.315.545.697.722 1.145.177.449.266.983.266 1.602 0 1.849-.758 3.263-2.275 4.242-1.516.98-3.735 1.47-6.657 1.47-1.184 0-2.247-.09-3.187-.266-.941-.177-1.74-.435-2.4-.772-.658-.338-1.161-.756-1.51-1.254a2.908 2.908 0 0 1-.523-1.71c0-.398.08-.783.24-1.153.161-.371.413-.703.756-.996.343-.294.778-.54 1.303-.74.526-.198 1.154-.337 1.885-.414v-.133c-.598-.078-1.11-.216-1.536-.415a3.436 3.436 0 0 1-1.038-.714 2.594 2.594 0 0 1-.58-.921 3.084 3.084 0 0 1-.183-1.055c0-.464.091-.882.274-1.253a3.19 3.19 0 0 1 .722-.963 4.142 4.142 0 0 1 1.004-.672c.371-.177.75-.31 1.137-.399v-.15a5.865 5.865 0 0 1-1.211-.655 4.776 4.776 0 0 1-1.751-2.258 4.485 4.485 0 0 1-.275-1.602c0-.808.15-1.558.448-2.25a4.892 4.892 0 0 1 1.362-1.809c.608-.514 1.378-.918 2.307-1.212.93-.293 2.02-.44 3.27-.44.565 0 1.132.047 1.702.141.57.095 1.077.219 1.52.374h5.876v2.208zm-9.147 7.172c.974 0 1.713-.382 2.216-1.146.504-.763.756-1.831.756-3.204 0-1.25-.252-2.222-.756-2.913-.503-.692-1.214-1.038-2.133-1.038-.498 0-.932.1-1.303.299-.371.2-.684.481-.938.847a3.94 3.94 0 0 0-.573 1.32 7.163 7.163 0 0 0-.19 1.718c0 1.284.256 2.29.771 3.021.515.73 1.231 1.096 2.15 1.096zm-.1 12.584a9.36 9.36 0 0 0 2.109-.216c.62-.144 1.145-.349 1.577-.614.432-.266.764-.581.996-.947.232-.365.349-.769.349-1.211 0-.664-.222-1.16-.664-1.486-.443-.327-1.185-.534-2.225-.623a162.147 162.147 0 0 0-1.967-.174 15.017 15.017 0 0 0-.532-.033 9.791 9.791 0 0 0-.39-.009c-.453 0-.874.07-1.261.208-.388.138-.723.33-1.005.573a2.52 2.52 0 0 0-.888 1.942c0 .83.332 1.47.996 1.917.664.449 1.633.673 2.905.673zM308.24 91v-1.295l2.856-.465v-9.795h-9.43v9.795l2.855.465V91H293.98v-1.295l2.856-.465V68.39l-2.856-.449V66.63h10.542v1.311l-2.855.449v8.882h9.43v-8.882l-2.856-.449V66.63h10.526v1.311l-2.856.449V89.24l2.856.465V91H308.24zm24.924 0v-1.295l2.357-.465v-8.433c0-.808-.047-1.506-.14-2.092-.095-.587-.247-1.071-.457-1.453a2.028 2.028 0 0 0-.839-.846c-.348-.183-.777-.274-1.286-.274-.676 0-1.26.14-1.752.423a3.498 3.498 0 0 0-1.228 1.204c-.327.52-.57 1.153-.73 1.9-.161.748-.242 1.591-.242 2.532v7.04l2.341.464V91h-9.247v-1.295l2.49-.465v-21.4l-2.49-.298v-1.328l6.906-.548v10.575h.133c.266-.42.57-.81.913-1.17.343-.36.736-.67 1.18-.93a5.85 5.85 0 0 1 1.485-.606 7.224 7.224 0 0 1 1.834-.216c1.052 0 1.932.172 2.64.515a4.382 4.382 0 0 1 1.71 1.436c.432.614.739 1.342.921 2.183.183.841.274 1.765.274 2.773v9.014l2.507.465V91h-9.28zm20.28 0v-1.295l3.021-.465V68.39l-3.021-.449V66.63h10.84v1.311l-2.988.449V89.24l2.989.465V91h-10.841zm18.416-20.204a3.5 3.5 0 0 1-1.13-.174 2.693 2.693 0 0 1-.88-.482 2.156 2.156 0 0 1-.572-.755 2.343 2.343 0 0 1-.207-.996c0-.753.254-1.359.763-1.818.51-.46 1.184-.69 2.026-.69.819 0 1.477.23 1.975.69.498.46.747 1.065.747 1.818 0 .354-.063.68-.19.98-.128.298-.31.553-.549.763a2.53 2.53 0 0 1-.863.49 3.425 3.425 0 0 1-1.12.174zM367.128 91v-1.295l2.856-.465V75.46l-2.856-.298v-1.328l7.272-.515V89.24l2.822.465V91h-10.094zm29.743-22.611v16.12c0 1.184-.033 2.271-.1 3.262a21.73 21.73 0 0 1-.348 2.748 11.671 11.671 0 0 1-.69 2.299 8.617 8.617 0 0 1-1.12 1.917 6.34 6.34 0 0 1-1.03 1.055c-.409.337-.865.633-1.369.888a8.383 8.383 0 0 1-1.627.614 7.026 7.026 0 0 1-1.818.232c-.885 0-1.635-.09-2.25-.274-.613-.182-1.114-.423-1.502-.722-.387-.299-.67-.636-.846-1.012a2.666 2.666 0 0 1-.108-2.059c.105-.299.263-.564.473-.797.21-.232.476-.42.797-.564.32-.144.697-.216 1.129-.216.365 0 .691.05.98.15.287.099.533.237.738.414.205.177.36.38.465.606.105.227.158.462.158.706 0 .376-.064.697-.191.963a2.98 2.98 0 0 1-.457.697c.122.033.263.064.423.091.16.028.319.042.474.042.53 0 .987-.169 1.37-.507.381-.337.69-.902.929-1.693.238-.791.412-1.84.523-3.146.11-1.306.166-2.933.166-4.88V68.388l-3.37-.449V66.63h11.19v1.311l-2.99.449zm10.646 2.407c-.41 0-.783-.058-1.12-.174a2.81 2.81 0 0 1-.88-.482 2.114 2.114 0 0 1-.581-.755 2.343 2.343 0 0 1-.208-.996c0-.377.067-.717.2-1.021.132-.305.32-.568.564-.789a2.58 2.58 0 0 1 .871-.515 3.283 3.283 0 0 1 1.121-.182c.41 0 .783.06 1.12.182.338.122.629.294.872.515.244.221.432.484.565.789.132.304.199.644.199 1.02 0 .72-.246 1.301-.739 1.744-.492.443-1.154.664-1.984.664zm-4.283 26.728c-.63 0-1.198-.066-1.702-.199a4.086 4.086 0 0 1-1.295-.573 2.688 2.688 0 0 1-.83-.888 2.322 2.322 0 0 1-.29-1.162c0-.265.047-.528.14-.788a1.99 1.99 0 0 1 .433-.698c.193-.204.431-.37.713-.498a2.34 2.34 0 0 1 .972-.19c.254 0 .498.04.73.124.233.083.437.202.614.357.177.155.319.34.424.556.105.216.157.45.157.706 0 .343-.069.644-.207.904-.138.26-.296.479-.473.656.11.055.232.091.365.108.133.017.26.025.382.025.31 0 .622-.122.938-.365.315-.244.561-.598.739-1.063.199-.564.345-1.358.44-2.382.094-1.024.14-2.371.14-4.043v-12.65l-2.822-.299v-1.328l7.239-.515v14.593c0 1.65-.141 3.088-.424 4.317-.282 1.228-.733 2.235-1.353 3.021-.265.354-.586.67-.963.946a6.724 6.724 0 0 1-1.228.714 7.016 7.016 0 0 1-2.839.614zM436.48 91v-1.295l2.69-.398-6.592-9.961-1.743 1.826v8.068l2.756.465V91h-10.442v-1.295l2.855-.465V68.39l-2.855-.449V66.63h10.442v1.311l-2.756.449v9.861l9.38-9.861-3.387-.449V66.63h9.247v1.311l-2.855.449-7.388 7.587 8.948 13.297 2.275.432V91H436.48zm24.16 0v-1.295l1.909-.465-4.599-7.039-1.527 1.312v5.727l2.274.465V91h-9.18v-1.295l2.49-.465v-21.4l-2.49-.298v-1.328l6.906-.548v15.307l6.325-5.412-3.121-.432v-1.295h8.832v1.295l-2.59.465-4.715 3.984 6.359 9.662 2.042.465V91h-8.915zm39.122 0H480.24v-1.295l2.855-.465V68.39l-2.855-.449V66.63h10.89v1.311l-3.204.449v20.47h8.268l2.474-7.405h1.427L499.762 91zm3.143 0v-1.295l2.855-.465v-21.4l-2.855-.298v-1.328l7.271-.548V89.24l2.822.465V91h-10.093zm40.069 0v-1.295l2.855-.465V70.53h-.2L538.824 91h-2.175l-7.105-20.47h-.2v18.743l3.122.399V91h-8.467v-1.295l3.138-.465V68.39l-3.138-.449V66.63h9.114l5.96 17.133 5.711-17.133h8.733v1.311l-2.856.449V89.24l2.856.465V91h-10.542zm34.884 0v-1.295l2.258-.465v-8.433c0-1.65-.185-2.84-.556-3.57-.37-.73-.982-1.095-1.835-1.095-.62 0-1.159.143-1.618.431-.46.288-.841.698-1.146 1.229-.304.531-.531 1.17-.68 1.917-.15.747-.225 1.575-.225 2.482v7.04l2.242.464V91h-8.899v-1.295l2.241-.465v-8.433c0-.83-.044-1.539-.132-2.125-.089-.587-.23-1.068-.424-1.445-.193-.376-.445-.653-.755-.83-.31-.177-.68-.265-1.112-.265-1.196 0-2.106.525-2.731 1.577-.626 1.051-.938 2.545-.938 4.482v7.04l2.24.464V91h-9.147v-1.295l2.49-.465V75.46l-2.49-.298v-1.328l6.608-.515v3.503h.133c.498-1.107 1.198-1.967 2.1-2.581.902-.615 2.006-.922 3.312-.922.73 0 1.358.1 1.884.3.526.198.974.458 1.345.78.37.32.675.691.913 1.112.238.42.429.846.573 1.278h.132c.587-1.14 1.334-2.003 2.242-2.59.907-.586 2.03-.88 3.37-.88.974 0 1.795.166 2.465.498.67.332 1.212.803 1.627 1.412.415.608.717 1.344.905 2.208.188.863.282 1.826.282 2.888v8.915l2.54.465V91h-9.214zm42.012-22.611v22.843h-2.175l-13.813-19.141h-.199v17.15l3.47.43V91h-8.849v-1.295l3.138-.465V68.704l-.233-.315-2.905-.449V66.63h7.288l11.82 16.452h.216V68.39l-3.47-.449V66.63h8.833v1.311l-3.121.449zM637.356 91v-1.295l2.357-.465v-8.433c0-.808-.047-1.506-.141-2.092-.094-.587-.246-1.071-.457-1.453a2.028 2.028 0 0 0-.838-.846c-.349-.183-.777-.274-1.287-.274-.675 0-1.259.14-1.751.423a3.498 3.498 0 0 0-1.229 1.204c-.326.52-.57 1.153-.73 1.9-.16.748-.24 1.591-.24 2.532v7.04l2.34.464V91h-9.247v-1.295l2.49-.465V75.46l-2.49-.298v-1.328l6.607-.515v3.503h.133c.587-1.162 1.348-2.036 2.283-2.623.935-.586 2.078-.88 3.428-.88 1.052 0 1.931.172 2.64.515a4.382 4.382 0 0 1 1.71 1.436c.431.614.739 1.342.921 2.183.183.841.274 1.765.274 2.773v9.014l2.507.465V91h-9.28zm-331.44 65.515c-1.229 0-2.368-.16-3.42-.482a10.879 10.879 0 0 1-2.864-1.336 10.62 10.62 0 0 1-2.274-2.034 12.234 12.234 0 0 1-1.66-2.581 13.753 13.753 0 0 1-1.021-2.972 14.764 14.764 0 0 1-.349-3.213c0-1.793.28-3.466.839-5.022.558-1.555 1.347-2.908 2.365-4.059a10.932 10.932 0 0 1 3.686-2.714c1.439-.658 3.038-.988 4.798-.988 1.67 0 3.21.324 4.615.971a10.803 10.803 0 0 1 3.619 2.682c1.007 1.14 1.793 2.484 2.357 4.034.565 1.55.847 3.226.847 5.03 0 1.206-.133 2.36-.398 3.461a13.542 13.542 0 0 1-1.13 3.063c-.486.941-1.076 1.79-1.767 2.549a11.217 11.217 0 0 1-2.316 1.942c-.852.537-1.78.95-2.781 1.237-1.002.288-2.05.432-3.146.432zm.033-2.01c1.107 0 2.048-.265 2.822-.796.775-.531 1.409-1.262 1.901-2.191.493-.93.85-2.023 1.071-3.28a23.51 23.51 0 0 0 .332-4.075c0-1.627-.11-3.115-.332-4.466-.221-1.35-.575-2.512-1.062-3.486-.487-.974-1.126-1.732-1.918-2.274-.791-.543-1.751-.814-2.88-.814-1.14 0-2.103.266-2.889.797-.786.531-1.425 1.264-1.917 2.2-.493.935-.847 2.039-1.063 3.312a24.653 24.653 0 0 0-.324 4.117c0 1.616.111 3.093.332 4.432.222 1.34.579 2.493 1.071 3.462.493.968 1.137 1.72 1.934 2.258.797.536 1.771.805 2.922.805zm23.778 2.01c-1.261 0-2.415-.236-3.461-.706a8.262 8.262 0 0 1-2.706-1.934 8.846 8.846 0 0 1-1.768-2.872c-.42-1.096-.631-2.274-.631-3.536 0-1.25.202-2.43.606-3.536a8.806 8.806 0 0 1 1.726-2.906 8.247 8.247 0 0 1 2.698-1.975c1.052-.487 2.22-.73 3.503-.73 1.24 0 2.382.235 3.428.705a8.414 8.414 0 0 1 2.715 1.926 8.77 8.77 0 0 1 1.784 2.872 9.736 9.736 0 0 1 .64 3.544c0 1.262-.208 2.446-.623 3.553a9.038 9.038 0 0 1-1.743 2.905 8.146 8.146 0 0 1-2.698 1.967c-1.051.482-2.208.723-3.47.723zm0-1.81c1.229 0 2.159-.609 2.79-1.826.63-1.218.946-3.066.946-5.545 0-2.413-.318-4.217-.955-5.412-.636-1.195-1.574-1.793-2.814-1.793-1.284 0-2.23.634-2.839 1.9-.608 1.268-.913 3.091-.913 5.471 0 1.151.075 2.172.224 3.063.15.89.38 1.644.69 2.258.31.614.702 1.082 1.178 1.403.476.32 1.04.481 1.693.481zM349.874 156v-1.295l2.856-.465V133.39l-2.856-.449v-1.311h10.609c1.273 0 2.482.119 3.627.357 1.146.238 2.147.628 3.005 1.17a6.033 6.033 0 0 1 2.042 2.134c.504.88.756 1.967.756 3.262 0 1.051-.202 1.995-.606 2.83a5.912 5.912 0 0 1-1.769 2.142c-.774.592-1.726 1.046-2.855 1.361-1.129.316-2.413.473-3.852.473h-3.27v8.882l3.204.465V156h-10.89zm9.762-12.518c.742 0 1.42-.083 2.034-.249a3.923 3.923 0 0 0 1.585-.83c.443-.387.783-.896 1.021-1.527.238-.63.357-1.417.357-2.357 0-.963-.116-1.769-.348-2.416-.233-.647-.587-1.165-1.063-1.552-.476-.388-1.07-.662-1.785-.822-.713-.16-1.552-.24-2.515-.24h-1.361v9.993h2.075zm24.94 13.033a5.5 5.5 0 0 1-1.46-.183 5.84 5.84 0 0 1-1.22-.481c-.372-.2-.706-.432-1.005-.698a5.573 5.573 0 0 1-.78-.846h-.133v6.458l2.922.464v1.295h-9.829v-1.295l2.49-.464V140.46l-2.49-.299v-1.328l6.608-.515v2.856h.133c.564-.963 1.264-1.68 2.1-2.15.835-.47 1.856-.706 3.063-.706 1.14 0 2.147.238 3.021.714a6.742 6.742 0 0 1 2.208 1.918c.598.802 1.049 1.737 1.353 2.805.305 1.068.457 2.189.457 3.362 0 1.384-.174 2.65-.523 3.802-.349 1.151-.847 2.142-1.494 2.972a6.84 6.84 0 0 1-2.341 1.934c-.913.459-1.94.689-3.08.689zm-.963-2.242c.709 0 1.293-.199 1.752-.597.46-.399.827-.924 1.104-1.577.277-.653.47-1.4.581-2.242.11-.84.166-1.704.166-2.59 0-.863-.055-1.698-.166-2.506-.11-.808-.299-1.52-.564-2.134-.266-.614-.62-1.106-1.063-1.477-.443-.37-1.002-.556-1.677-.556-.575 0-1.1.15-1.577.448-.476.299-.883.739-1.22 1.32-.338.58-.6 1.292-.789 2.133-.188.841-.282 1.799-.282 2.872 0 1.085.091 2.053.274 2.905.183.853.437 1.575.764 2.167.326.592.72 1.046 1.178 1.361.46.316.966.473 1.52.473zm38.741 7.82c-.918 0-1.754-.11-2.507-.332a10.056 10.056 0 0 1-2.066-.855 10.623 10.623 0 0 1-1.719-1.187 32.03 32.03 0 0 1-1.469-1.328l-1.32-1.27a8.4 8.4 0 0 0-1.278-1.021c-1.361-.366-2.568-.947-3.62-1.744a11.35 11.35 0 0 1-2.647-2.822 12.676 12.676 0 0 1-1.619-3.594 14.998 14.998 0 0 1-.548-4.043c0-1.793.28-3.466.839-5.022.559-1.555 1.347-2.908 2.365-4.059a10.932 10.932 0 0 1 3.686-2.714c1.439-.658 3.038-.988 4.798-.988 1.671 0 3.21.324 4.615.971a10.803 10.803 0 0 1 3.62 2.682c1.006 1.14 1.792 2.484 2.357 4.034.564 1.55.846 3.226.846 5.03 0 1.516-.202 2.936-.606 4.258a12.814 12.814 0 0 1-1.701 3.57 11.429 11.429 0 0 1-2.623 2.714 10.53 10.53 0 0 1-3.37 1.66c.42.354.838.745 1.253 1.17.415.427.847.825 1.295 1.196.448.37.924.68 1.428.93.503.249 1.06.373 1.668.373.498 0 .968-.047 1.411-.141a10.24 10.24 0 0 0 1.195-.324l.582 1.461c-.21.122-.485.26-.822.415-.338.155-.72.307-1.146.457-.426.15-.885.274-1.378.373-.492.1-.999.15-1.519.15zm-7.172-7.587c1.107 0 2.048-.266 2.823-.797.774-.531 1.408-1.262 1.9-2.191.493-.93.85-2.023 1.071-3.28a23.51 23.51 0 0 0 .332-4.075c0-1.627-.11-3.115-.332-4.466-.221-1.35-.575-2.512-1.062-3.486-.487-.974-1.126-1.732-1.918-2.274-.791-.543-1.751-.814-2.88-.814-1.14 0-2.103.266-2.889.797-.785.531-1.425 1.264-1.917 2.2-.493.935-.847 2.039-1.063 3.312a24.652 24.652 0 0 0-.323 4.117c0 1.616.11 3.093.332 4.432.221 1.34.578 2.493 1.07 3.462.493.968 1.138 1.72 1.935 2.258.796.536 1.77.805 2.921.805zm24.326 8.018v-1.295l2.955-.464v-6.707h-.132a6.116 6.116 0 0 1-1.943 1.793c-.763.442-1.715.664-2.855.664-1.052 0-2.012-.216-2.88-.648a6.504 6.504 0 0 1-2.233-1.826c-.62-.786-1.102-1.735-1.445-2.847-.343-1.112-.514-2.344-.514-3.694 0-1.306.166-2.518.498-3.636.332-1.118.821-2.089 1.469-2.913a6.749 6.749 0 0 1 2.424-1.934c.968-.465 2.089-.698 3.361-.698 1.207 0 2.25.238 3.13.714a5.76 5.76 0 0 1 2.133 1.976l1.976-2.424h1.427v22.18l2.524.464v1.295h-9.895zm-.713-8.25c.664 0 1.236-.205 1.718-.615.481-.41.877-.943 1.187-1.602.31-.658.537-1.4.68-2.224.144-.825.216-1.647.216-2.466 0-1.15-.06-2.16-.182-3.03-.122-.868-.33-1.596-.623-2.183-.293-.586-.68-1.026-1.162-1.32-.481-.293-1.082-.44-1.801-.44-1.173 0-2.062.573-2.665 1.719-.603 1.145-.905 2.875-.905 5.188 0 2.224.285 3.943.855 5.155.57 1.211 1.464 1.817 2.682 1.817zM475.759 156l-4.217-8.7a6.91 6.91 0 0 0-.697-1.211 3.786 3.786 0 0 0-.706-.739 2.054 2.054 0 0 0-.755-.373 3.553 3.553 0 0 0-.863-.1h-.615v9.363l2.856.465V156H460.22v-1.295l2.855-.465V133.39l-2.855-.449v-1.311h10.957c1.206 0 2.346.102 3.42.307 1.073.205 2.014.556 2.822 1.054a5.471 5.471 0 0 1 1.918 1.992c.47.83.705 1.865.705 3.105 0 .166-.014.41-.041.73-.028.321-.103.681-.224 1.08a6.43 6.43 0 0 1-.557 1.261 4.954 4.954 0 0 1-1.045 1.262c-.449.398-1.013.758-1.694 1.079-.68.321-1.508.564-2.482.73v.183c.498.133.977.432 1.436.897.46.464.866 1.057 1.22 1.776l3.57 7.188 2.374.432V156h-6.84zm-6.657-12.982c.752 0 1.475-.05 2.166-.15a4.524 4.524 0 0 0 1.835-.664c.531-.343.954-.838 1.27-1.486.315-.647.473-1.513.473-2.598 0-1.583-.393-2.75-1.179-3.503-.786-.752-2.014-1.129-3.685-1.129h-2.076v9.53h1.196zM485.525 156v-1.295l2.49-.465v-13.78l-2.49-.298v-1.328l6.608-.515v3.37h.133c.343-.431.7-.852 1.07-1.261.371-.41.775-.77 1.212-1.08.438-.31.913-.558 1.428-.746a4.923 4.923 0 0 1 1.702-.283c.531 0 1.004.086 1.42.258.414.171.763.404 1.045.697.282.293.495.636.64 1.03.143.392.215.81.215 1.253 0 .453-.064.85-.19 1.187a2.501 2.501 0 0 1-.524.855 2.165 2.165 0 0 1-.763.523 2.372 2.372 0 0 1-.897.174c-.686 0-1.237-.174-1.652-.523-.415-.349-.622-.872-.622-1.569 0-.387.085-.741.257-1.062.171-.321.368-.593.59-.814a1.001 1.001 0 0 0-.241-.033h-.241c-.177 0-.39.075-.64.224-.248.15-.511.34-.788.573a11.381 11.381 0 0 0-1.527 1.577 6.736 6.736 0 0 0-.598.863 5.12 5.12 0 0 0-.407.888c-.105.305-.185.631-.24.98a7.387 7.387 0 0 0-.083 1.154v7.686l3.403.465V156h-10.31zm35.786.515c-1.317 0-2.476-.141-3.478-.424-1.002-.282-1.94-.7-2.814-1.253l-.98 1.494h-1.527l-.216-9.347h1.544l2.308 5.994c.653.542 1.442.938 2.366 1.187.924.249 1.9.373 2.93.373.642 0 1.245-.091 1.81-.274a4.397 4.397 0 0 0 1.46-.78c.41-.338.734-.75.972-1.237.238-.487.357-1.04.357-1.66 0-.686-.114-1.27-.34-1.752a3.364 3.364 0 0 0-.989-1.228c-.431-.338-.965-.623-1.602-.855a21.017 21.017 0 0 0-2.166-.648c-1.616-.376-2.977-.816-4.084-1.32-1.107-.503-1.998-1.087-2.673-1.75a5.851 5.851 0 0 1-1.453-2.25c-.293-.836-.44-1.78-.44-2.83 0-.964.183-1.86.548-2.69a6.364 6.364 0 0 1 1.56-2.167c.676-.614 1.481-1.098 2.416-1.452.936-.355 1.979-.532 3.13-.532.72 0 1.372.047 1.959.141.586.094 1.115.216 1.585.366.47.149.891.318 1.262.506.37.188.706.382 1.004.581l.963-1.428h1.494l.166 8.434h-1.494l-2.175-5.196a8.853 8.853 0 0 0-2.033-1.021c-.758-.272-1.624-.407-2.598-.407-.62 0-1.187.088-1.702.265a3.89 3.89 0 0 0-1.32.748c-.365.32-.65.705-.855 1.153a3.494 3.494 0 0 0-.307 1.47c0 .642.127 1.192.382 1.651.254.46.628.861 1.12 1.204.493.343 1.107.642 1.843.897a27.87 27.87 0 0 0 2.549.73c1.295.321 2.434.689 3.42 1.104.985.415 1.804.924 2.457 1.527a5.816 5.816 0 0 1 1.477 2.167c.332.841.498 1.86.498 3.055 0 1.162-.196 2.205-.59 3.129a6.521 6.521 0 0 1-1.668 2.35c-.72.641-1.593 1.13-2.623 1.468-1.029.338-2.18.507-3.453.507zm19.23 0c-1.04 0-1.954-.103-2.74-.307a7.211 7.211 0 0 1-2.125-.922l-.647.946H533.7v-6.49h1.328l1.394 3.768c.631.387 1.27.672 1.918.855.647.182 1.38.274 2.2.274.365 0 .716-.058 1.054-.175.337-.116.633-.28.888-.49.254-.21.46-.467.614-.771.155-.305.232-.65.232-1.038 0-.332-.044-.636-.132-.913a1.806 1.806 0 0 0-.473-.747c-.227-.221-.54-.423-.938-.606-.399-.183-.908-.346-1.528-.49l-1.428-.348c-.819-.2-1.552-.44-2.2-.723a5.612 5.612 0 0 1-1.643-1.062 4.299 4.299 0 0 1-1.03-1.52c-.237-.586-.356-1.283-.356-2.091 0-.797.147-1.525.44-2.183a4.941 4.941 0 0 1 1.228-1.693 5.534 5.534 0 0 1 1.868-1.088c.72-.254 1.51-.382 2.374-.382.985 0 1.804.117 2.457.349a8.037 8.037 0 0 1 1.694.813l.58-.896h1.329v5.644h-1.328l-1.329-3.12a7.604 7.604 0 0 0-1.535-.706c-.548-.183-1.17-.274-1.868-.274-.41 0-.783.052-1.12.158-.338.105-.631.257-.88.456-.25.2-.443.443-.581.73a2.194 2.194 0 0 0-.208.964c0 .376.07.7.208.97.138.272.343.51.614.715.271.204.606.376 1.004.514.399.139.858.263 1.378.374l1.229.282c.907.2 1.696.454 2.365.764.67.31 1.223.694 1.66 1.153.438.46.764 1.002.98 1.627.216.626.324 1.359.324 2.2 0 .841-.152 1.6-.457 2.275a5.103 5.103 0 0 1-1.253 1.726 5.537 5.537 0 0 1-1.884 1.096 7.042 7.042 0 0 1-2.35.382zm35.586-16.536l-1.793-6.208h-4.665v20.47l2.922.464V156h-10.675v-1.295l2.922-.465v-20.47h-4.649l-1.776 6.21h-1.494v-9.314h1.494l.548.963h16.635l.531-.963h1.494v9.313h-1.494zm11.825 16.536c-.82 0-1.533-.086-2.142-.258-.608-.171-1.115-.453-1.519-.846-.404-.393-.705-.913-.904-1.56-.2-.648-.3-1.448-.3-2.4V140.91H580.1v-2.075h2.989v-5.346l4.416-1.012v6.358h4.864v2.075h-4.864v10.094c0 .653.03 1.187.091 1.602.06.415.158.739.29.971.133.233.308.393.523.482.216.088.48.132.79.132.464 0 .94-.047 1.427-.14a10.955 10.955 0 0 0 1.677-.49l.614 1.427c-.332.2-.695.39-1.088.573a10.89 10.89 0 0 1-1.228.482c-.426.138-.863.251-1.312.34a6.882 6.882 0 0 1-1.336.133zm36.533-23.126v13.065c0 1.04-.045 1.962-.133 2.764a10.43 10.43 0 0 1-.448 2.15 6.374 6.374 0 0 1-.855 1.702 7.79 7.79 0 0 1-1.353 1.436 6.933 6.933 0 0 1-1.345.871c-.498.25-1.03.46-1.594.631-.564.172-1.154.3-1.768.382-.614.083-1.242.125-1.884.125-1.417 0-2.684-.155-3.802-.465-1.118-.31-2.07-.814-2.855-1.51-.786-.698-1.387-1.611-1.802-2.74-.415-1.13-.622-2.507-.622-4.134v-14.277l-2.856-.449v-1.311h10.542v1.311l-2.855.449v14.592c0 2.159.44 3.752 1.32 4.782.88 1.029 2.244 1.544 4.092 1.544.863 0 1.657-.128 2.382-.382a4.697 4.697 0 0 0 1.876-1.212c.526-.553.933-1.265 1.22-2.133.288-.87.432-1.918.432-3.146v-14.045l-3.436-.449v-1.311h9.18v1.311l-3.436.449zm19.91 22.877v-3.254h-.15c-.564 1.129-1.322 1.995-2.274 2.598-.952.603-2.097.905-3.437.905-1.084 0-1.984-.177-2.697-.532a4.318 4.318 0 0 1-1.702-1.469c-.42-.625-.72-1.361-.897-2.208a13.507 13.507 0 0 1-.265-2.764v-9.081l-2.49-.299v-1.328l6.906-.515v10.708c0 .797.044 1.486.133 2.067.088.581.238 1.066.448 1.453.21.387.487.675.83.863.343.188.77.282 1.278.282.664 0 1.243-.132 1.735-.398a3.394 3.394 0 0 0 1.237-1.162c.332-.51.581-1.124.747-1.843.166-.72.25-1.538.25-2.457v-7.371l-2.475-.299v-1.328l6.89-.515v15.921l2.39.465V156l-6.457.266zm-329.597 42.123l-8.102 23.126h-2.507l-8.466-23.126-2.424-.449v-1.311h10.276v1.311l-2.922.449 6.043 16.867 5.827-16.867-3.685-.449v-1.311h8.367v1.311l-2.407.449zm12.522 23.126l-6.773-15.921-2.109-.432v-1.328h9.38v1.328l-2.573.432 4.217 10.475 3.768-10.475-2.54-.432v-1.328h6.823v1.328l-2.141.432-5.977 15.92h-2.075zm51.11-23.126l-6.874 23.126h-2.573l-4.93-15.855h-.217l-4.681 15.855h-2.59l-7.47-23.126-2.292-.449v-1.311h9.695v1.311l-2.54.449 4.997 16.087h.2l3.635-12.717-1.045-3.37-2.524-.449v-1.311h10.41v1.311l-3.271.449 4.964 16.087h.199l4.731-16.087-3.503-.449v-1.311h8.168v1.311l-2.49.449zm22.582 23.126l-4.117-10.742-4.25 10.742h-1.893l-6.159-15.921-2.009-.432v-1.328h8.816v1.328l-2.291.432 3.752 10.143 2.955-7.786-.88-2.357-1.91-.432v-1.328h8.7v1.328l-2.44.432 3.668 10.027 3.27-10.027-2.39-.432v-1.328h6.491v1.328l-1.925.432-5.446 15.92h-1.942zM433.41 221v-1.295l3.237-.465-5.445-8.267-5.412 8.267 3.918.465V221h-9.463v-1.295l3.071-.465 6.657-10.11-7.005-10.741-2.44-.449v-1.311h11.006v1.311l-3.154.449 4.864 7.42 4.748-7.42-3.769-.449v-1.311h9.115v1.311l-2.922.449-5.96 9.247 7.587 11.604 2.69.465V221H433.41zm22.882 0v-1.295l2.523-.465-3.669-5.013-3.918 5.013 2.59.465V221h-7.388v-1.295l2.291-.465 5.263-6.508-5.33-7.138-2.074-.432v-1.328h9.38v1.328l-2.391.432 3.337 4.565 3.702-4.565-2.606-.432v-1.328h7.171v1.328l-2.042.432-5.096 5.993 5.71 7.653 2.043.465V221h-9.496zm39.155-22.611l-6.458 12.351v8.5l3.337.465V221h-11.521v-1.295l3.37-.465v-8.068l-7.006-12.783-2.29-.449v-1.311h10.724v1.311l-3.138.449 5.412 10.027 5.263-10.027-3.636-.449v-1.311h8.633v1.311l-2.69.449zm8.356 29.135a4.802 4.802 0 0 1-1.503-.215 3.33 3.33 0 0 1-1.104-.59 2.42 2.42 0 0 1-.672-.871 2.64 2.64 0 0 1-.066-1.959 2.3 2.3 0 0 1 .448-.756c.193-.216.434-.387.722-.514.288-.128.614-.191.98-.191.586 0 1.073.166 1.46.498.388.332.581.791.581 1.378 0 .265-.055.514-.166.747a2.3 2.3 0 0 1-.381.58c.055.023.13.04.224.05.094.012.19.017.29.017.21 0 .443-.072.697-.216.255-.143.52-.365.797-.664a7.35 7.35 0 0 0 .847-1.153c.288-.47.576-1.033.863-1.686l.2-.464-6.807-15.921-2.175-.432v-1.328h9.38v1.328l-2.54.432 4.316 10.509 3.802-10.51-2.507-.43v-1.329h6.79v1.328l-2.108.432-5.844 15.44a23.267 23.267 0 0 1-1.27 2.838c-.437.808-.916 1.483-1.436 2.025a5.3 5.3 0 0 1-1.718 1.22c-.626.272-1.326.407-2.1.407zM547.176 221h-18.178v-1.727l12.783-20.785h-8.102l-2.374 6.458h-1.394l.332-8.317h16.967v1.76l-12.75 20.735h8.981l2.623-7.371h1.395l-.283 9.247zm3.724 0v-1.594l9.645-13.68h-5.943l-1.942 3.819h-1.329l.283-5.711h13.796v1.76l-9.48 13.497h6.226l1.793-4.1h1.328V221H550.9z"/></g></svg>