<svg xmlns="http://www.w3.org/2000/svg" width="648" height="223"><g fill="none" fill-rule="evenodd"><path fill="#8B949B" d="M9.473 12.016H3.018L1.553 16H.293l5.38-14.219h1.143L12.197 16h-1.25l-1.474-3.984zM3.389 10.99h5.703L6.24 3.246 3.39 10.99zm15.245 4.219c.371 0 .728-.054 1.07-.161.341-.108.646-.265.913-.474a2.461 2.461 0 0 0 .957-1.836h1.123a3.284 3.284 0 0 1-.376 1.387c-.225.423-.521.788-.889 1.094a4.172 4.172 0 0 1-1.274.718c-.482.172-.99.258-1.524.258-.742 0-1.393-.135-1.953-.405a4.024 4.024 0 0 1-1.411-1.118 4.888 4.888 0 0 1-.86-1.675 7.202 7.202 0 0 1-.288-2.075v-.41c0-.742.097-1.434.289-2.075a4.883 4.883 0 0 1 .854-1.67 4.04 4.04 0 0 1 1.411-1.119c.563-.273 1.213-.41 1.948-.41.567 0 1.093.088 1.578.264.485.176.908.426 1.27.752.36.325.649.72.863 1.186.215.466.336.985.362 1.558h-1.123a3.124 3.124 0 0 0-.279-1.152 2.75 2.75 0 0 0-.634-.87 2.733 2.733 0 0 0-.918-.551 3.24 3.24 0 0 0-1.119-.19c-.605 0-1.118.117-1.538.35-.42.235-.763.551-1.03.948-.267.397-.46.853-.581 1.367a7.045 7.045 0 0 0-.18 1.612v.41c0 .566.06 1.108.18 1.626.12.517.313.973.576 1.367.264.394.609.708 1.035.942.427.235.943.352 1.548.352zm11.017 0c.371 0 .728-.054 1.07-.161.341-.108.646-.265.913-.474a2.461 2.461 0 0 0 .957-1.836h1.123a3.284 3.284 0 0 1-.376 1.387c-.225.423-.521.788-.889 1.094a4.172 4.172 0 0 1-1.274.718c-.482.172-.99.258-1.524.258-.742 0-1.393-.135-1.953-.405a4.024 4.024 0 0 1-1.411-1.118 4.888 4.888 0 0 1-.86-1.675 7.202 7.202 0 0 1-.287-2.075v-.41c0-.742.096-1.434.288-2.075a4.883 4.883 0 0 1 .854-1.67 4.04 4.04 0 0 1 1.411-1.119c.563-.273 1.213-.41 1.948-.41.567 0 1.093.088 1.578.264.485.176.908.426 1.27.752.36.325.649.72.863 1.186.215.466.336.985.362 1.558H32.59a3.124 3.124 0 0 0-.279-1.152 2.75 2.75 0 0 0-.634-.87 2.733 2.733 0 0 0-.918-.551 3.24 3.24 0 0 0-1.119-.19c-.605 0-1.118.117-1.538.35-.42.235-.763.551-1.03.948-.267.397-.46.853-.581 1.367a7.045 7.045 0 0 0-.18 1.612v.41c0 .566.06 1.108.18 1.626.12.517.313.973.576 1.367.264.394.609.708 1.035.942.427.235.943.352 1.548.352zm11.203.986c-.69 0-1.325-.128-1.905-.385a4.46 4.46 0 0 1-1.499-1.075 4.938 4.938 0 0 1-.981-1.635 5.936 5.936 0 0 1-.352-2.08v-.42c0-.814.123-1.551.367-2.212.244-.661.574-1.224.99-1.69a4.445 4.445 0 0 1 1.441-1.079 4.024 4.024 0 0 1 1.724-.38c.67 0 1.266.12 1.787.36.52.241.959.577 1.314 1.006.354.43.623.941.805 1.534.182.592.274 1.24.274 1.943v.713h-7.54v.225c0 .579.088 1.124.264 1.635.176.511.423.956.742 1.333.32.378.7.676 1.143.894.443.218.934.327 1.475.327.625 0 1.176-.114 1.655-.342.478-.228.913-.592 1.304-1.094l.732.557c-.176.254-.38.495-.61.723-.231.228-.5.426-.806.595-.306.17-.651.303-1.035.4a5.237 5.237 0 0 1-1.29.147zm-.215-9.96a2.973 2.973 0 0 0-2.231.976c-.29.312-.528.688-.713 1.128-.186.44-.311.926-.376 1.46h6.338v-.127a4.715 4.715 0 0 0-.215-1.284c-.13-.414-.321-.78-.572-1.099a2.816 2.816 0 0 0-.932-.767c-.371-.192-.804-.288-1.299-.288zm8.283-.801l.039 1.806c.182-.3.392-.573.63-.82a3.834 3.834 0 0 1 2.817-1.182c.527 0 1 .072 1.416.215.417.143.77.371 1.06.684.29.312.51.714.664 1.206.153.491.23 1.085.23 1.782V16h-1.163V9.115c0-.547-.059-1.002-.176-1.367-.117-.365-.283-.658-.498-.879a1.812 1.812 0 0 0-.786-.473 3.52 3.52 0 0 0-1.03-.142c-.417 0-.795.07-1.133.21-.339.14-.638.327-.899.561a3.74 3.74 0 0 0-.673.806 4.626 4.626 0 0 0-.45.933V16h-1.162V5.434h1.114zm12.403-2.705v2.705h2.188v.957h-2.188v7.04c0 .372.038.67.113.894.075.225.175.4.302.528a.942.942 0 0 0 .44.253c.166.043.34.064.522.064.176 0 .345-.011.508-.034.163-.023.31-.044.44-.064l.048.957c-.143.052-.33.093-.561.122a5.47 5.47 0 0 1-.689.044 3.1 3.1 0 0 1-.922-.132 1.654 1.654 0 0 1-.728-.454c-.202-.214-.36-.5-.474-.854-.114-.355-.17-.796-.17-1.323V6.39H58.21v-.957h1.943V2.729h1.172zM5.967 39.535l4.346-7.754h1.386l-5.136 8.867V46H5.36v-5.352L.234 31.781H1.66l4.307 7.754zm14.005 3.78c0-.215-.037-.43-.112-.645a1.54 1.54 0 0 0-.42-.61c-.205-.192-.492-.372-.86-.538-.367-.166-.844-.31-1.43-.434a12.34 12.34 0 0 1-1.568-.43 4.511 4.511 0 0 1-1.162-.59 2.334 2.334 0 0 1-.717-.826c-.163-.319-.245-.693-.245-1.123 0-.39.087-.762.26-1.113.172-.352.42-.658.741-.918.323-.26.713-.467 1.172-.62a4.88 4.88 0 0 1 1.548-.23c.612 0 1.16.08 1.646.24.485.159.895.38 1.23.664.335.283.59.616.767 1 .175.385.263.801.263 1.25h-1.171c0-.273-.06-.54-.181-.8-.12-.26-.296-.49-.528-.689a2.728 2.728 0 0 0-.859-.483 3.416 3.416 0 0 0-1.167-.186c-.456 0-.845.056-1.167.166a2.4 2.4 0 0 0-.79.43 1.634 1.634 0 0 0-.592 1.25c0 .234.036.448.108.64.071.192.21.37.415.537.205.166.491.319.86.459.367.14.847.278 1.44.415.638.15 1.188.316 1.65.498.462.182.845.399 1.147.65.303.25.528.536.674.859.147.322.22.695.22 1.118 0 .436-.091.835-.273 1.196-.183.361-.443.67-.782.928a3.807 3.807 0 0 1-1.23.6 5.644 5.644 0 0 1-1.612.215c-.67 0-1.263-.086-1.777-.258a3.984 3.984 0 0 1-1.299-.699 2.939 2.939 0 0 1-.796-1.01 2.758 2.758 0 0 1-.268-1.187h1.172c.026.417.133.763.322 1.04s.423.498.703.664c.28.166.59.285.933.357a4.92 4.92 0 0 0 1.01.107 3.99 3.99 0 0 0 1.172-.156 2.72 2.72 0 0 0 .855-.42c.231-.176.405-.378.522-.606a1.54 1.54 0 0 0 .176-.713zm3.869-2.754c0-.769.112-1.478.337-2.13a5.044 5.044 0 0 1 .952-1.684c.41-.472.905-.841 1.484-1.108.58-.267 1.224-.4 1.934-.4.722 0 1.375.133 1.958.4.582.267 1.079.636 1.489 1.108.41.472.726 1.034.947 1.685.222.65.332 1.36.332 2.129v.322c0 .768-.11 1.478-.332 2.129a4.979 4.979 0 0 1-.947 1.684c-.41.472-.905.84-1.484 1.104-.58.263-1.228.395-1.944.395s-1.364-.132-1.943-.395a4.351 4.351 0 0 1-1.49-1.104 4.998 4.998 0 0 1-.956-1.684 6.488 6.488 0 0 1-.337-2.13v-.321zm1.172.322c0 .58.078 1.131.234 1.655.156.524.384.983.684 1.377.299.394.67.708 1.113.942.443.235.95.352 1.523.352s1.08-.117 1.519-.352c.44-.234.809-.548 1.108-.942.3-.394.528-.853.684-1.377a5.763 5.763 0 0 0 .234-1.655v-.322c0-.567-.078-1.112-.234-1.636a4.322 4.322 0 0 0-.684-1.382 3.363 3.363 0 0 0-1.118-.952c-.446-.238-.955-.357-1.528-.357-.567 0-1.07.12-1.51.357-.439.237-.808.555-1.107.952-.3.397-.528.858-.684 1.382a5.695 5.695 0 0 0-.234 1.636v.322zm19.894-.059c0 .794-.09 1.52-.269 2.178-.18.658-.441 1.222-.786 1.694a3.68 3.68 0 0 1-1.27 1.104c-.501.263-1.07.395-1.709.395-.774 0-1.437-.146-1.987-.44a3.784 3.784 0 0 1-1.353-1.2L37.485 46H36.39V31h1.162v5.967a3.764 3.764 0 0 1 1.338-1.275c.54-.302 1.195-.454 1.963-.454.644 0 1.217.127 1.719.381a3.6 3.6 0 0 1 1.274 1.084c.348.469.612 1.034.791 1.694.179.661.269 1.402.269 2.222v.205zm-1.172-.205c0-.612-.059-1.185-.176-1.719a4.222 4.222 0 0 0-.552-1.386 2.774 2.774 0 0 0-.962-.923c-.39-.225-.86-.337-1.406-.337-.443 0-.833.06-1.172.18a2.93 2.93 0 0 0-1.504 1.177c-.17.26-.306.53-.41.81v4.767a3.9 3.9 0 0 0 .464.786 2.977 2.977 0 0 0 1.533 1.054c.329.101.698.152 1.108.152.528 0 .985-.111 1.373-.332.387-.222.708-.528.961-.918.254-.39.442-.852.562-1.382.12-.53.18-1.105.18-1.724v-.205zm8.556 5.576c-.69 0-1.325-.128-1.905-.385a4.46 4.46 0 0 1-1.499-1.075 4.938 4.938 0 0 1-.981-1.635 5.936 5.936 0 0 1-.352-2.08v-.42c0-.814.122-1.551.367-2.212.244-.661.574-1.224.99-1.69a4.445 4.445 0 0 1 1.441-1.079 4.024 4.024 0 0 1 1.724-.38c.67 0 1.266.12 1.787.36.52.241.959.577 1.313 1.006.355.43.624.941.806 1.534.182.592.274 1.24.274 1.943v.713h-7.54v.225c0 .579.088 1.124.264 1.635.176.511.423.956.742 1.333.32.378.7.676 1.143.894.443.218.934.327 1.475.327.625 0 1.176-.114 1.655-.342.478-.228.913-.592 1.304-1.094l.732.557c-.176.254-.38.495-.61.723-.232.228-.5.426-.806.595-.306.17-.651.303-1.035.4a5.237 5.237 0 0 1-1.29.147zm-.215-9.96a2.973 2.973 0 0 0-2.232.976c-.29.312-.527.688-.712 1.128-.186.44-.311.926-.376 1.46h6.337v-.127a4.715 4.715 0 0 0-.214-1.284c-.13-.414-.321-.78-.572-1.099a2.816 2.816 0 0 0-.932-.767c-.371-.192-.804-.288-1.3-.288zM60.554 46h-1.172V31h1.172v15zm9.739 0V31.781h3.975c.885 0 1.7.153 2.446.46a5.49 5.49 0 0 1 1.924 1.308 6.004 6.004 0 0 1 1.255 2.04c.3.795.449 1.68.449 2.657v1.299c0 .976-.15 1.862-.45 2.656-.299.794-.719 1.473-1.26 2.036a5.54 5.54 0 0 1-1.943 1.304c-.755.306-1.588.459-2.5.459h-3.896zm1.201-13.193v12.177h2.695c.762 0 1.449-.131 2.061-.395a4.422 4.422 0 0 0 1.562-1.113c.43-.479.76-1.052.992-1.72.23-.666.346-1.404.346-2.211v-1.328c0-.82-.117-1.564-.351-2.232a4.919 4.919 0 0 0-.991-1.704 4.397 4.397 0 0 0-1.538-1.089c-.6-.257-1.267-.385-2.002-.385h-2.774zM85.138 46h-1.172V35.434h1.172V46zm-1.377-13.623c0-.221.072-.409.215-.562.143-.153.339-.23.586-.23.247 0 .444.077.59.23.147.153.22.34.22.562a.765.765 0 0 1-.22.557c-.146.15-.343.224-.59.224-.247 0-.443-.075-.586-.224a.774.774 0 0 1-.215-.557zm11.593 10.937c0-.214-.037-.43-.112-.644a1.54 1.54 0 0 0-.42-.61c-.205-.192-.491-.372-.86-.538-.367-.166-.844-.31-1.43-.434a12.34 12.34 0 0 1-1.567-.43 4.511 4.511 0 0 1-1.162-.59 2.334 2.334 0 0 1-.718-.826c-.163-.319-.244-.693-.244-1.123 0-.39.086-.762.258-1.113.173-.352.42-.658.743-.918.322-.26.713-.467 1.172-.62a4.88 4.88 0 0 1 1.547-.23c.612 0 1.16.08 1.646.24.485.159.895.38 1.23.664.336.283.591.616.767 1 .176.385.264.801.264 1.25h-1.172c0-.273-.06-.54-.18-.8-.121-.26-.297-.49-.528-.689a2.728 2.728 0 0 0-.86-.483 3.416 3.416 0 0 0-1.167-.186c-.455 0-.844.056-1.167.166a2.4 2.4 0 0 0-.79.43 1.634 1.634 0 0 0-.591 1.25c0 .234.035.448.107.64s.21.37.415.537c.205.166.492.319.86.459.367.14.847.278 1.44.415.638.15 1.188.316 1.65.498.462.182.845.399 1.148.65.302.25.527.536.674.859.146.322.22.695.22 1.118 0 .436-.092.835-.274 1.196-.183.361-.443.67-.781.928a3.807 3.807 0 0 1-1.23.6 5.644 5.644 0 0 1-1.612.215c-.67 0-1.263-.086-1.778-.258a3.984 3.984 0 0 1-1.298-.699 2.939 2.939 0 0 1-.796-1.01 2.758 2.758 0 0 1-.269-1.187h1.172c.026.417.133.763.322 1.04.19.277.423.498.703.664.28.166.591.285.933.357a4.92 4.92 0 0 0 1.01.107 3.99 3.99 0 0 0 1.173-.156 2.72 2.72 0 0 0 .854-.42c.231-.176.405-.378.523-.606a1.54 1.54 0 0 0 .175-.713zm13.01-2.49c0 .794-.09 1.52-.269 2.178-.179.658-.441 1.222-.786 1.694-.345.472-.767.84-1.265 1.104-.498.263-1.066.395-1.704.395-.755 0-1.408-.135-1.958-.405a3.745 3.745 0 0 1-1.362-1.118v5.39h-1.162V35.434h1.084l.058 1.494c.358-.528.81-.941 1.358-1.24.547-.3 1.198-.45 1.953-.45.644 0 1.219.127 1.723.381.505.254.93.615 1.275 1.084.345.469.607 1.034.786 1.694.179.661.269 1.402.269 2.222v.205zm-1.172-.205c0-.612-.064-1.185-.19-1.719a4.316 4.316 0 0 0-.577-1.386 2.83 2.83 0 0 0-.981-.923c-.397-.225-.863-.337-1.397-.337-.423 0-.797.055-1.123.166a2.99 2.99 0 0 0-.854.444c-.245.186-.453.4-.625.645-.173.244-.315.5-.425.766v5.069c.124.267.278.514.464.742.185.228.403.425.654.59.25.167.535.297.854.391.32.095.678.142 1.075.142.534 0 .996-.112 1.386-.337.391-.225.715-.534.972-.928s.45-.857.576-1.391a7.46 7.46 0 0 0 .19-1.729v-.205zM112.974 46h-1.172V31h1.172v15zm10.558 0a3.357 3.357 0 0 1-.151-.669 9.256 9.256 0 0 1-.073-.806 4.152 4.152 0 0 1-1.436 1.172 4.701 4.701 0 0 1-2.148.498 4.15 4.15 0 0 1-1.402-.224c-.42-.15-.778-.36-1.074-.63a2.846 2.846 0 0 1-.932-2.144c0-.514.11-.978.332-1.391a3.01 3.01 0 0 1 .957-1.055c.416-.29.922-.511 1.518-.664a8.078 8.078 0 0 1 2.007-.23h2.168v-1.2c0-.756-.233-1.35-.698-1.783-.466-.433-1.144-.65-2.036-.65-.41 0-.788.056-1.133.167a2.86 2.86 0 0 0-.894.459 2.18 2.18 0 0 0-.586.678 1.7 1.7 0 0 0-.21.826l-1.172-.01c0-.397.098-.781.293-1.153.196-.37.47-.701.826-.99.354-.29.78-.523 1.279-.699a4.946 4.946 0 0 1 1.655-.264c.56 0 1.076.072 1.548.215.472.143.877.358 1.216.645.338.286.602.644.79 1.074.19.43.284.93.284 1.504v5.117c0 .182.007.371.02.566.013.196.034.384.063.567.03.182.064.356.103.522.039.166.084.311.136.435V46h-1.25zm-3.672-.84c.424 0 .816-.054 1.177-.161.362-.107.689-.256.982-.444.293-.19.547-.409.761-.66a3.32 3.32 0 0 0 .518-.815v-2.324h-2.002a7.27 7.27 0 0 0-1.606.161c-.472.107-.871.262-1.197.464a2.19 2.19 0 0 0-.747.737c-.172.29-.259.617-.259.982 0 .286.056.555.166.805.111.25.269.469.474.655.205.185.454.332.747.439.293.107.622.161.986.161zm11.633-.84l3.086-8.886h1.26l-4.473 12.255c-.091.241-.207.512-.347.811-.14.3-.322.58-.547.84-.224.26-.504.48-.84.659-.335.18-.743.269-1.225.269-.065 0-.14-.005-.225-.015a6.783 6.783 0 0 1-.254-.034 3.97 3.97 0 0 1-.42-.088l-.01-.967c.079.013.185.026.318.04a2.59 2.59 0 0 0 1.118-.103c.241-.082.451-.202.63-.362.18-.16.337-.36.474-.6.136-.241.26-.518.37-.83l.509-1.397-3.985-10.478h1.28l3.28 8.886z"/><path fill="#222" d="M62.084 217v-3.735l12.744-1.978-10.107-29.224H28.026l-10.4 29.224 12.598 1.978V217H2.172v-3.735l8.716-1.978L48.68 105.232h4.54l37.5 106.055 9.449 1.978V217H62.084zm-15.308-87.598L30.37 175.618h32.153l-15.747-46.216zm106.006 88.77v-8.35a54.256 54.256 0 0 1-4.138 3.443 31.82 31.82 0 0 1-4.944 3.04 29.291 29.291 0 0 1-5.86 2.16c-2.099.537-4.37.806-6.81.806-3.321 0-6.25-.489-8.79-1.465-2.539-.977-4.687-2.344-6.445-4.102-1.758-1.758-3.088-3.857-3.992-6.299-.903-2.441-1.355-5.102-1.355-7.983 0-3.32.5-6.201 1.502-8.643 1-2.441 2.392-4.54 4.175-6.299 1.782-1.757 3.942-3.247 6.481-4.467 2.54-1.221 5.347-2.283 8.423-3.186 3.076-.904 6.385-1.697 9.925-2.38 3.54-.684 7.214-1.392 11.023-2.125v-8.276c0-6.299-1.062-10.828-3.186-13.587-2.125-2.758-5.555-4.138-10.291-4.138-1.855 0-3.564.208-5.127.623-1.562.415-2.978.915-4.248 1.501-1.27.586-2.38 1.221-3.333 1.905-.952.683-1.72 1.294-2.307 1.83 1.514.977 2.698 2.161 3.553 3.553.854 1.392 1.281 2.869 1.281 4.431 0 2.393-.732 4.26-2.197 5.603s-3.296 2.014-5.493 2.014c-2.49 0-4.431-.818-5.823-2.453-1.391-1.636-2.087-3.772-2.087-6.41 0-2.636.732-5.053 2.197-7.25s3.455-4.102 5.97-5.713c2.514-1.611 5.456-2.869 8.825-3.772 3.37-.903 6.958-1.355 10.767-1.355 4.199 0 7.91.476 11.132 1.428 3.223.953 5.933 2.454 8.13 4.505 2.198 2.05 3.858 4.675 4.98 7.873 1.124 3.199 1.685 7.044 1.685 11.536v45.117l9.01 1.831V217l-22.633 1.172zm-.805-40.357c-4.786.977-8.863 1.954-12.232 2.93-3.369.977-6.116 2.197-8.24 3.662-2.124 1.465-3.686 3.333-4.687 5.603-1.001 2.27-1.502 5.164-1.502 8.68 0 1.904.245 3.65.733 5.236.488 1.587 1.208 2.954 2.16 4.102a10.15 10.15 0 0 0 3.516 2.71c1.392.659 3.015.989 4.87.989 1.32 0 2.686-.208 4.102-.623a20.906 20.906 0 0 0 4.138-1.721 26.272 26.272 0 0 0 3.882-2.6 20.57 20.57 0 0 0 3.26-3.26v-25.708zM305.624 24v-.772l2.634-.409-2.09-6.04h-7.583l-2.149 6.04 2.604.409V24h-5.798v-.772l1.801-.409L302.854.901h.938l7.75 21.918 1.953.409V24h-7.871zM302.46 5.896l-3.39 9.552h6.645l-3.255-9.552zm24.817 18.346v-1.725c-.263.242-.548.479-.856.711a6.576 6.576 0 0 1-1.021.628 6.053 6.053 0 0 1-1.211.447 5.668 5.668 0 0 1-1.408.166c-.686 0-1.292-.1-1.816-.302a3.768 3.768 0 0 1-1.332-.848 3.564 3.564 0 0 1-.825-1.302 4.72 4.72 0 0 1-.28-1.65c0-.686.103-1.281.31-1.786.207-.505.494-.938.863-1.302a4.927 4.927 0 0 1 1.34-.923 11.48 11.48 0 0 1 1.74-.658c.636-.187 1.32-.351 2.051-.492l2.278-.44v-1.71c0-1.302-.22-2.238-.658-2.808-.44-.57-1.148-.855-2.127-.855a4.12 4.12 0 0 0-1.06.129c-.322.086-.615.189-.877.31a4.19 4.19 0 0 0-.69.394 5.248 5.248 0 0 0-.476.378c.313.202.558.447.734.734.177.288.265.593.265.916 0 .494-.151.88-.454 1.158-.303.277-.681.416-1.135.416-.515 0-.916-.169-1.204-.507-.287-.338-.431-.78-.431-1.324 0-.545.151-1.045.454-1.499a4.133 4.133 0 0 1 1.234-1.18 6.459 6.459 0 0 1 1.824-.78 8.562 8.562 0 0 1 2.225-.28c.868 0 1.634.098 2.3.295.666.197 1.227.507 1.68.93.455.425.798.967 1.03 1.628.232.661.348 1.456.348 2.384v9.324l1.862.379V24l-4.677.242zm-.167-8.34a32.83 32.83 0 0 0-2.528.605c-.696.202-1.264.454-1.703.757a2.72 2.72 0 0 0-.968 1.158c-.207.47-.31 1.067-.31 1.794 0 .393.05.754.15 1.082.102.328.25.61.447.848.197.237.44.424.727.56.287.136.623.204 1.006.204.273 0 .555-.043.848-.129a4.32 4.32 0 0 0 .855-.355 5.43 5.43 0 0 0 .803-.538c.257-.206.481-.431.673-.673v-5.313zm37.81 1.862c0 .958-.188 1.821-.567 2.588-.378.767-.946 1.42-1.703 1.96-.757.54-1.703.956-2.838 1.249-1.135.293-2.46.439-3.973.439h-8.28v-.772l2.286-.409V2.551l-2.286-.408V1.37h8.28c1.433 0 2.666.128 3.7.386 1.035.257 1.883.623 2.544 1.097.66.474 1.148 1.052 1.46 1.733.313.681.47 1.45.47 2.309 0 1.392-.43 2.55-1.287 3.473-.858.924-2.114 1.542-3.77 1.855.849.08 1.636.247 2.362.5a5.858 5.858 0 0 1 1.892 1.059c.535.454.954 1.009 1.257 1.665.302.656.454 1.428.454 2.316zm-4.313-10.657c0-.787-.109-1.463-.326-2.028a3.203 3.203 0 0 0-1.014-1.392c-.459-.364-1.047-.634-1.763-.81-.717-.177-1.574-.265-2.573-.265h-1.862v9.082h1.559c.474 0 .95-.02 1.43-.06.48-.041.941-.12 1.385-.235.444-.116.858-.28 1.241-.492a3.596 3.596 0 0 0 1.007-.825 3.67 3.67 0 0 0 .674-1.234c.161-.484.242-1.064.242-1.74zm.832 10.793c0-.939-.164-1.723-.492-2.354a4.127 4.127 0 0 0-1.324-1.521 5.405 5.405 0 0 0-1.93-.817 10.76 10.76 0 0 0-2.323-.243h-2.301v9.794h2.119c.807 0 1.587-.073 2.339-.22a5.733 5.733 0 0 0 1.998-.772 4.083 4.083 0 0 0 1.392-1.49c.348-.626.522-1.418.522-2.377zm23.893-1.65c0 1.231-.133 2.354-.4 3.368-.268 1.014-.672 1.88-1.212 2.596a5.497 5.497 0 0 1-2.036 1.665c-.817.393-1.77.59-2.86.59-.98 0-1.847-.174-2.604-.522a6.675 6.675 0 0 1-1.953-1.34l-1.332 1.605h-.968V2.4l-1.953-.257V1.37l4.934-.47v9.34A8.202 8.202 0 0 1 377 8.795a5.347 5.347 0 0 1 2.384-.537c.98 0 1.84.2 2.581.598a5.343 5.343 0 0 1 1.862 1.665c.5.711.876 1.556 1.128 2.535.252.979.378 2.044.378 3.194zm-3.315.348c0-1.06-.065-2.008-.196-2.846-.132-.837-.333-1.549-.606-2.134-.272-.585-.626-1.034-1.06-1.347-.433-.313-.953-.47-1.559-.47-.393 0-.767.061-1.12.182a5.373 5.373 0 0 0-.991.454 6.2 6.2 0 0 0-.848.598c-.257.217-.487.427-.689.629v9.944c.283.243.553.454.81.636.258.182.522.33.795.447.272.116.565.204.878.265.313.06.66.09 1.044.09 1.221 0 2.117-.56 2.687-1.68.57-1.12.855-2.71.855-4.768zm36.736 5.48a12.749 12.749 0 0 1-3.254 1.74c-1.19.434-2.462.651-3.815.651-1.463 0-2.802-.272-4.018-.817a8.804 8.804 0 0 1-3.126-2.339c-.868-1.014-1.544-2.243-2.028-3.686-.485-1.443-.727-3.057-.727-4.843 0-1.756.24-3.366.719-4.829.48-1.463 1.153-2.72 2.02-3.769a9.137 9.137 0 0 1 3.111-2.445c1.206-.58 2.536-.87 3.989-.87.646 0 1.226.043 1.74.129.515.086.98.202 1.393.348.414.146.792.323 1.135.53.343.207.666.431.97.673l.74-1.392h.924l.197 6.993h-.908l-1.484-4.33a6.448 6.448 0 0 0-.749-.574 6.12 6.12 0 0 0-.976-.523 6.6 6.6 0 0 0-2.65-.522c-.907 0-1.763.212-2.565.636-.802.424-1.498 1.07-2.089 1.937-.59.868-1.057 1.973-1.4 3.315-.343 1.342-.515 2.927-.515 4.753 0 1.574.17 2.982.508 4.223.338 1.242.817 2.294 1.438 3.156.62.863 1.37 1.522 2.247 1.976.878.454 1.857.68 2.937.68 1.07 0 2.084-.156 3.042-.468a12.546 12.546 0 0 0 2.634-1.196l.56.863zm17.611-10.142c0 .606-.164 1.092-.492 1.46-.328.37-.764.553-1.309.553-.293 0-.547-.048-.764-.144a1.592 1.592 0 0 1-.545-.386 1.708 1.708 0 0 1-.447-1.135c0-.434.121-.812.364-1.135a3.13 3.13 0 0 1 .847-.787 3.813 3.813 0 0 0-1.014-.674c-.414-.197-.923-.295-1.529-.295-.666 0-1.246.159-1.74.477-.495.318-.909.77-1.242 1.355-.333.585-.583 1.284-.749 2.096-.167.812-.25 1.708-.25 2.687 0 1.1.089 2.076.265 2.929.177.852.44 1.574.787 2.164.348.59.777 1.04 1.287 1.347.51.308 1.097.462 1.763.462.697 0 1.363-.088 1.998-.265a10.457 10.457 0 0 0 1.817-.688l.424.862c-.838.535-1.665.944-2.483 1.226a8.103 8.103 0 0 1-2.664.424c-.959 0-1.837-.197-2.634-.59a6.21 6.21 0 0 1-2.058-1.635c-.575-.696-1.022-1.524-1.34-2.482-.318-.959-.477-2.003-.477-3.134 0-1.22.167-2.343.5-3.368.333-1.024.81-1.907 1.43-2.648a6.464 6.464 0 0 1 2.27-1.734c.894-.413 1.9-.62 3.02-.62.697 0 1.345.09 1.946.272.6.182 1.125.437 1.574.765.449.328.802.716 1.06 1.165.257.45.385.941.385 1.476zm35.041.318c0 1.948-.225 3.653-.674 5.116-.449 1.463-1.175 2.687-2.18 3.67-1.003.985-2.31 1.724-3.92 2.218-1.61.495-3.57.742-5.88.742h-6.66v-.772l2.285-.409V2.551l-2.285-.408V1.37h6.1c1.12 0 2.099.027 2.936.083.838.055 1.587.141 2.248.257a11.32 11.32 0 0 1 1.77.447c.52.181 1.023.403 1.507.666a7.899 7.899 0 0 1 1.801 1.385 9.312 9.312 0 0 1 1.522 2.058c.439.792.787 1.69 1.044 2.695.257 1.004.386 2.101.386 3.292zm-3.572.06c0-.666-.036-1.332-.106-1.998a15.55 15.55 0 0 0-.326-1.93 11.804 11.804 0 0 0-.56-1.763 7.561 7.561 0 0 0-.81-1.498 5.796 5.796 0 0 0-1.06-1.128 5.013 5.013 0 0 0-1.392-.78 8.827 8.827 0 0 0-1.854-.454c-.701-.1-1.516-.151-2.445-.151h-1.68v20.147h2.09c1.553 0 2.852-.245 3.897-.734 1.044-.49 1.88-1.189 2.505-2.097.626-.908 1.072-2.005 1.34-3.292.267-1.287.4-2.727.4-4.322zm19.972 11.928v-1.695c-.303.272-.61.525-.923.757a6.27 6.27 0 0 1-1 .605 5.735 5.735 0 0 1-1.15.409c-.413.1-.872.151-1.377.151-.928 0-1.76-.189-2.498-.567a5.454 5.454 0 0 1-1.877-1.59c-.514-.68-.908-1.493-1.18-2.437-.273-.943-.409-1.985-.409-3.125 0-1.292.17-2.463.507-3.512.338-1.05.795-1.943 1.37-2.68.575-.736 1.244-1.304 2.006-1.702a5.136 5.136 0 0 1 2.414-.598c.858 0 1.61.131 2.255.393a6.385 6.385 0 0 1 1.802 1.12V2.4l-2.074-.257V1.37l5.056-.47V22.82l1.861.379V24l-4.783.242zm-.06-13.108c-.555-.485-1.105-.833-1.65-1.045-.545-.212-1.06-.318-1.544-.318-.656 0-1.224.177-1.703.53-.48.353-.878.838-1.196 1.453-.318.616-.555 1.34-.711 2.173a14.465 14.465 0 0 0-.235 2.671c0 .818.058 1.61.174 2.377.116.767.31 1.448.583 2.043.272.595.638 1.075 1.097 1.438.46.363 1.032.545 1.718.545.313 0 .634-.05.962-.151.327-.101.643-.238.946-.41.302-.17.587-.365.855-.582.267-.217.502-.441.704-.673V11.134zM523.996 24h-15.742v-.772l2.195-.409V2.551l-2.195-.408V1.37h15.44l.302 6.04h-.953l-1.56-4.769h-7.81v9.112h4.223l.893-3.163h.893v7.84h-.893l-.893-3.375h-4.223v9.642h8.007l1.756-5.267h.969L523.996 24zm9.937-7.75c.01 1.18.119 2.192.325 3.035.207.843.5 1.534.878 2.074.379.54.835.933 1.37 1.18.535.248 1.135.371 1.802.371.393 0 .756-.023 1.09-.068.332-.045.665-.119.998-.22.333-.1.674-.226 1.022-.378.348-.151.73-.333 1.143-.545l.454.908c-.444.283-.88.538-1.31.765-.428.227-.87.421-1.324.583a9.202 9.202 0 0 1-1.423.378c-.494.09-1.019.136-1.574.136-1.05 0-1.99-.207-2.823-.62a6.305 6.305 0 0 1-2.119-1.696c-.58-.716-1.024-1.559-1.332-2.528a10.294 10.294 0 0 1-.462-3.133c0-1.18.164-2.275.492-3.284.328-1.01.792-1.88 1.393-2.612a6.516 6.516 0 0 1 2.142-1.718c.827-.413 1.74-.62 2.74-.62 1.009 0 1.889.179 2.64.537.753.358 1.38.848 1.885 1.468.505.621.883 1.35 1.136 2.188.252.837.378 1.74.378 2.71v1.089h-9.521zm6.327-2.165c0-.645-.053-1.253-.159-1.824a4.985 4.985 0 0 0-.507-1.49 2.872 2.872 0 0 0-.885-1.007c-.359-.247-.79-.37-1.295-.37-.514 0-.97.133-1.37.4-.398.268-.739.643-1.021 1.128-.283.484-.51 1.07-.681 1.756a13.415 13.415 0 0 0-.348 2.27h6.266v-.863zm33.512-6.675l-1.514-4.768h-7.326v9.324h4.314l.893-3.194h.878v7.856h-.878l-.893-3.39h-4.314v9.581l2.452.409V24h-7.901v-.772l2.225-.409V2.551l-2.225-.408V1.37h14.94l.303 6.04h-.954zm17.944-3.708c0 .292-.043.55-.129.772a1.67 1.67 0 0 1-.355.567 1.527 1.527 0 0 1-.522.356 1.6 1.6 0 0 1-.614.121c-.464 0-.842-.136-1.135-.409a1.33 1.33 0 0 1-.439-1.014c0-.343.086-.65.258-.923.171-.273.403-.5.696-.681a1.817 1.817 0 0 0-.757-.394 3.606 3.606 0 0 0-.878-.106c-.565 0-1.03.124-1.392.371-.364.247-.646.608-.848 1.082-.202.475-.34 1.062-.416 1.764a22.916 22.916 0 0 0-.114 2.43V8.5h3.603v1.302h-3.603v13.017l2.422.409V24h-7.311v-.772l1.922-.409V9.802h-2.74V8.5h2.74V6.956c0-.999.139-1.874.417-2.626.277-.752.668-1.383 1.173-1.892a4.88 4.88 0 0 1 1.8-1.15c.697-.258 1.464-.387 2.302-.387.585 0 1.117.074 1.597.22.479.146.89.345 1.233.598.343.252.61.547.803.885.191.338.287.704.287 1.098zm31.65 11.398v9.203h-.954l-1.12-1.953c-.403.303-.814.583-1.233.84a9.15 9.15 0 0 1-1.332.674c-.47.192-.974.34-1.514.446a9.251 9.251 0 0 1-1.779.16c-1.443 0-2.775-.278-3.996-.833a9.277 9.277 0 0 1-3.17-2.362c-.894-1.019-1.593-2.242-2.097-3.67-.505-1.428-.757-3.015-.757-4.76 0-1.696.237-3.273.711-4.731.475-1.458 1.158-2.725 2.051-3.8a9.498 9.498 0 0 1 3.262-2.527c1.282-.61 2.73-.916 4.345-.916 1.22 0 2.29.151 3.209.454a8.537 8.537 0 0 1 2.421 1.226l.712-1.392h.969l.181 6.993h-.893l-1.498-4.33a6.6 6.6 0 0 0-.833-.574 7.444 7.444 0 0 0-1.082-.523 7.827 7.827 0 0 0-1.31-.378 7.632 7.632 0 0 0-1.513-.144c-1.11 0-2.104.235-2.982.704-.878.47-1.625 1.158-2.24 2.066-.616.908-1.088 2.023-1.416 3.345-.328 1.322-.492 2.83-.492 4.526 0 1.292.134 2.54.402 3.747.267 1.205.688 2.278 1.264 3.216a6.875 6.875 0 0 0 2.202 2.256c.893.565 1.97.847 3.232.847.827 0 1.581-.116 2.263-.348.68-.232 1.324-.62 1.93-1.166V15.1l-2.71-.424v-.787h7.599v.787l-1.832.424zm13.66-6.842c.424 0 .82.025 1.189.075.368.051.699.117.991.197h4.98v1.68l-2.755-.348c.515.374.934.883 1.257 1.53.323.645.484 1.397.484 2.254 0 .757-.136 1.464-.409 2.12a4.788 4.788 0 0 1-1.188 1.703c-.52.479-1.163.855-1.93 1.127-.767.273-1.64.409-2.618.409-.465 0-.911-.033-1.34-.099a5.34 5.34 0 0 1-1.203-.325c-.515.293-.906.57-1.174.833-.267.262-.4.57-.4.923 0 .171.05.32.15.446.102.127.276.235.523.326.247.09.583.166 1.007.227.423.06.958.11 1.604.151l2.982.212c.605.05 1.206.144 1.801.28a4.972 4.972 0 0 1 1.59.651c.464.298.84.694 1.127 1.188.288.495.432 1.126.432 1.892 0 .777-.17 1.471-.507 2.082-.338.61-.828 1.127-1.469 1.551-.64.424-1.425.75-2.353.977-.929.227-1.983.34-3.164.34-.999 0-1.892-.08-2.68-.242-.786-.161-1.455-.401-2.005-.719-.55-.318-.971-.716-1.264-1.196-.292-.48-.439-1.032-.439-1.657 0-.313.05-.623.152-.931.1-.308.272-.606.514-.893.243-.288.565-.565.97-.833a7.958 7.958 0 0 1 1.498-.75c-.919-.2-1.562-.519-1.93-.953-.369-.434-.553-.953-.553-1.559 0-.353.066-.673.197-.96.131-.289.31-.548.537-.78.227-.233.49-.442.787-.629.298-.186.608-.355.931-.507-.787-.484-1.387-1.095-1.8-1.831-.415-.737-.622-1.595-.622-2.574 0-.847.154-1.604.462-2.27a4.82 4.82 0 0 1 1.28-1.688 5.81 5.81 0 0 1 1.93-1.06 7.641 7.641 0 0 1 2.429-.37zm3.134 5.388c0-.615-.068-1.183-.204-1.702a4.213 4.213 0 0 0-.606-1.355 2.937 2.937 0 0 0-.984-.9c-.388-.218-.835-.326-1.34-.326-.433 0-.84.096-1.218.287a2.828 2.828 0 0 0-.984.84 4.302 4.302 0 0 0-.658 1.348c-.162.53-.242 1.132-.242 1.808 0 .606.068 1.169.204 1.688.136.52.338.974.605 1.363.268.388.596.69.984.908.389.217.835.325 1.34.325.565 0 1.044-.108 1.438-.325a2.63 2.63 0 0 0 .961-.908c.247-.389.426-.843.537-1.363.111-.52.167-1.082.167-1.688zm1.68 12.519c0-.666-.262-1.176-.787-1.53-.525-.352-1.367-.574-2.528-.665l-2.361-.182c-.232-.02-.457-.038-.674-.053a4.068 4.068 0 0 1-.598-.083 5.13 5.13 0 0 0-.696.56 4.454 4.454 0 0 0-.598.704 3.425 3.425 0 0 0-.416.825c-.101.292-.152.6-.152.923 0 .949.339 1.64 1.015 2.074.676.434 1.65.65 2.921.65.747 0 1.42-.067 2.02-.204.601-.136 1.113-.34 1.537-.613.424-.272.75-.608.976-1.006.228-.399.341-.866.341-1.4zM306.457 88v-.772l2.225-.409v-9.884h-9.703v9.884l2.24.409V88h-7.69v-.772l2.226-.409V66.551l-2.225-.408v-.772h7.69v.772l-2.241.408v8.991h9.703v-8.99l-2.225-.41v-.771h7.689v.772l-2.24.408V86.82l2.24.409V88h-7.69zm22.47 0v-.772l1.846-.409v-8.143c0-.697-.038-1.322-.113-1.877-.076-.555-.212-1.027-.409-1.415a2.128 2.128 0 0 0-.817-.894c-.349-.206-.79-.31-1.325-.31-.363 0-.719.058-1.067.174a6.141 6.141 0 0 0-1.007.44 7.467 7.467 0 0 0-.915.59c-.288.217-.553.43-.795.643v10.792l1.832.409V88h-6.66v-.772l1.861-.409V66.4l-1.952-.256v-.772l4.919-.47v9.673c.737-.727 1.496-1.294 2.278-1.703.782-.409 1.647-.613 2.596-.613.878 0 1.61.154 2.195.461a3.662 3.662 0 0 1 1.4 1.272c.348.54.595 1.176.742 1.907.146.732.22 1.521.22 2.37v8.551l1.861.409V88h-6.69zm22.356 0v-.772l2.255-.409V66.551l-2.255-.408v-.772h7.78v.772l-2.3.408V86.82l2.3.409V88h-7.78zm18.489-20.495c0 .545-.184.991-.553 1.34-.368.348-.855.522-1.46.522-.293 0-.563-.046-.81-.137-.248-.09-.46-.219-.636-.386a1.816 1.816 0 0 1-.568-1.34c0-.544.18-.99.538-1.339.358-.348.84-.522 1.445-.522.606 0 1.098.174 1.476.522.378.348.568.795.568 1.34zM364.534 88v-.772l1.862-.409V73.741l-1.952-.242v-.787l4.934-.454v14.561l1.953.409V88h-6.797zm32.574-21.449v12.61c0 .726-.02 1.46-.06 2.202-.041.741-.13 1.455-.266 2.141a9.226 9.226 0 0 1-.605 1.938 5.096 5.096 0 0 1-1.082 1.582c-.455.449-1.017.802-1.688 1.06-.671.257-1.481.385-2.43.385a6.44 6.44 0 0 1-1.68-.212 4.413 4.413 0 0 1-1.377-.62 3.19 3.19 0 0 1-.939-.992 2.504 2.504 0 0 1-.348-1.31c0-.272.043-.529.129-.771a1.788 1.788 0 0 1 .923-1.052c.217-.106.457-.159.72-.159.544 0 .965.164 1.263.492.298.328.447.74.447 1.234a2 2 0 0 1-.235.893c-.156.313-.411.565-.764.757.171.201.41.345.719.43.307.087.618.13.93.13.737 0 1.312-.212 1.726-.636.414-.424.724-1.002.93-1.733.208-.732.336-1.592.387-2.581.05-.99.076-2.049.076-3.179V66.551l-2.377-.408v-.772h7.901v.772l-2.3.408zm12.918.954c-.01.262-.065.507-.166.734-.101.227-.237.424-.409.59a1.864 1.864 0 0 1-.62.394 2.12 2.12 0 0 1-.787.144c-.293 0-.566-.046-.818-.137-.252-.09-.47-.219-.65-.386a1.764 1.764 0 0 1-.576-1.34c0-.272.048-.521.144-.748.096-.227.232-.424.409-.59.176-.167.388-.296.635-.387.248-.09.523-.136.825-.136.303 0 .578.045.825.136.247.091.46.22.636.386.177.167.313.364.409.59.096.228.143.477.143.75zm-.363 19.012c0 .666-.028 1.327-.083 1.983a12.55 12.55 0 0 1-.303 1.892 8.643 8.643 0 0 1-.59 1.687c-.247.52-.565.972-.954 1.355a4.153 4.153 0 0 1-1.4.9c-.545.218-1.18.326-1.907.326-.404 0-.8-.05-1.188-.151a3.378 3.378 0 0 1-1.045-.462 2.49 2.49 0 0 1-.741-.764 1.977 1.977 0 0 1-.28-1.06c0-.454.146-.842.438-1.165.293-.323.682-.485 1.166-.485.212 0 .406.038.583.114.176.075.328.179.454.31s.227.283.303.454c.075.172.113.353.113.545 0 .252-.063.495-.19.727-.125.232-.32.434-.582.605.131.101.28.17.447.204.166.036.38.053.643.053.343 0 .633-.1.87-.302.237-.202.434-.472.59-.81.157-.338.28-.734.372-1.188.09-.454.158-.931.204-1.43.045-.5.073-1.01.083-1.53.01-.52.015-1.021.015-1.506V73.741l-1.983-.242v-.787l4.965-.454v14.259zM439.18 88v-.802l2.361-.379-7.008-10.474-2.24 2.391v8.083l2.24.409V88h-7.75v-.772l2.286-.409V66.551l-2.286-.408v-.772h7.81v.772l-2.3.408v10.233l9.672-10.233-2.997-.408v-.772h7.1v.772l-2.302.408-7.16 7.63 8.674 12.638 1.832.379V88h-7.932zm22.092 0v-.772l1.892-.409-4.617-7.19-1.499 1.272v5.918l1.892.409V88h-6.72v-.772l1.862-.409V66.4l-1.953-.256v-.772l4.92-.47v14.35l6.478-5.6-2.604-.379V72.5h6.479v.772l-1.983.409-4.829 4.208 5.767 8.93 1.635.409V88h-6.72zm37.795 0h-15.621v-.772l2.225-.409V66.551l-2.286-.408v-.772h7.78v.772l-2.27.408v20.147h7.886l1.726-5.676h.908L499.066 88zm5.94 0v-.772l1.863-.409V66.4l-1.953-.256v-.772l4.92-.47V86.82l1.952.409V88h-6.781zm38.901 0v-.772l2.27-.409V67.596L539.473 88h-1.241l-6.963-20.465V86.82l2.604.409V88h-6.479v-.772l2.377-.409V66.551l-2.377-.408v-.772h6.57l5.857 17.513 5.707-17.513h6.16v.772l-2.285.408V86.82l2.285.409V88h-7.78zm30.795 0v-.772l1.832-.409v-8.143c0-.697-.03-1.325-.09-1.885-.061-.56-.18-1.032-.357-1.415a2.066 2.066 0 0 0-.734-.886c-.313-.206-.716-.31-1.21-.31-.324 0-.641.05-.954.152-.313.1-.62.234-.924.4a7.36 7.36 0 0 0-.885.576 10.84 10.84 0 0 0-.825.689c.06.312.106.656.136 1.029.03.373.046.817.046 1.332v8.461l1.74.409V88h-6.569v-.772l1.862-.409v-8.143c0-.686-.033-1.307-.099-1.862-.065-.555-.184-1.027-.355-1.415a2.06 2.06 0 0 0-.727-.901c-.313-.212-.716-.318-1.21-.318-.324 0-.644.056-.962.167a5.106 5.106 0 0 0-.923.431 6.177 6.177 0 0 0-.84.598c-.263.222-.5.439-.712.65V86.82l1.726.409V88h-6.57v-.772l1.862-.409V73.741l-1.952-.242v-.787l4.889-.454v2.316c.313-.323.636-.626.969-.908a6.862 6.862 0 0 1 1.044-.735c.363-.206.747-.37 1.15-.492a4.401 4.401 0 0 1 1.272-.181c.535 0 1.011.06 1.43.181.419.122.782.293 1.09.515.308.222.57.49.787.802.217.313.396.661.538 1.045.363-.364.731-.699 1.105-1.007a7.792 7.792 0 0 1 1.173-.802 6.305 6.305 0 0 1 1.279-.537 4.943 4.943 0 0 1 1.407-.197c.858 0 1.57.156 2.135.47a3.568 3.568 0 0 1 1.347 1.293c.333.55.565 1.196.696 1.938.131.741.197 1.541.197 2.399v8.461l1.862.409V88h-6.676zm39.779-21.449v21.66h-1.03l-12.7-18.844v17.452l2.756.409V88h-6.63v-.772l2.376-.409V66.551l-2.376-.408v-.772h4.889l11.231 16.62V66.55l-2.74-.408v-.772h6.646v.772l-2.422.408zM631.244 88v-.772l1.862-.409v-8.143c0-.697-.038-1.322-.113-1.877-.076-.555-.215-1.027-.417-1.415a2.178 2.178 0 0 0-.825-.894c-.348-.206-.79-.31-1.324-.31-.363 0-.719.058-1.067.174a6.141 6.141 0 0 0-1.007.44 7.014 7.014 0 0 0-.908.59c-.283.217-.545.43-.787.643v10.792l1.816.409V88h-6.66v-.772l1.862-.409V73.741l-1.953-.242v-.787l4.89-.454v2.346c.756-.747 1.523-1.324 2.3-1.733.777-.409 1.635-.613 2.574-.613.888 0 1.627.154 2.217.461a3.59 3.59 0 0 1 1.4 1.272c.343.54.585 1.176.727 1.907.141.732.212 1.521.212 2.37v8.551l1.892.409V88h-6.69zm-317.598 52.723c0 1.746-.24 3.34-.719 4.783-.479 1.443-1.15 2.68-2.013 3.709a9.097 9.097 0 0 1-3.088 2.399c-1.195.57-2.51.855-3.943.855-1.614 0-3.04-.315-4.276-.946a9.219 9.219 0 0 1-3.11-2.55c-.838-1.07-1.471-2.311-1.9-3.724a15.29 15.29 0 0 1-.643-4.465c0-1.756.23-3.363.688-4.821.46-1.459 1.12-2.712 1.983-3.762a9.043 9.043 0 0 1 3.141-2.452c1.231-.585 2.614-.878 4.148-.878 1.433 0 2.747.285 3.943.855a8.944 8.944 0 0 1 3.08 2.415c.858 1.039 1.524 2.288 1.998 3.746.474 1.458.711 3.07.711 4.836zm-3.542.303c0-1.685-.13-3.202-.393-4.549-.262-1.347-.656-2.492-1.18-3.436-.525-.943-1.181-1.667-1.969-2.172-.787-.504-1.7-.757-2.74-.757-1.1 0-2.045.265-2.837.795-.793.53-1.446 1.259-1.96 2.187-.515.929-.894 2.021-1.136 3.277a21.476 21.476 0 0 0-.363 4.065c0 1.624.126 3.098.378 4.42.253 1.321.641 2.457 1.166 3.405.525.949 1.188 1.68 1.99 2.195.803.515 1.754.772 2.854.772 1.039 0 1.947-.262 2.724-.787.777-.525 1.423-1.246 1.938-2.165.514-.918.898-1.998 1.15-3.239.252-1.241.378-2.578.378-4.011zm23.364 3.285c0 1.18-.167 2.27-.5 3.27-.333.998-.8 1.86-1.4 2.587a6.3 6.3 0 0 1-2.172 1.696c-.848.403-1.786.605-2.816.605-1.09 0-2.066-.21-2.929-.628a6.368 6.368 0 0 1-2.187-1.726c-.595-.731-1.05-1.589-1.362-2.573a10.41 10.41 0 0 1-.47-3.17c0-1.151.16-2.221.477-3.21.318-.989.775-1.847 1.37-2.573a6.367 6.367 0 0 1 2.172-1.71c.853-.414 1.82-.621 2.9-.621 1.089 0 2.06.207 2.913.62a6.367 6.367 0 0 1 2.172 1.71c.595.727 1.05 1.58 1.362 2.559.313.979.47 2.033.47 3.164zm-3.285 0c0-2.26-.303-3.979-.908-5.155-.606-1.175-1.514-1.763-2.725-1.763-.605 0-1.133.159-1.582.477-.449.318-.825.777-1.127 1.377-.303.6-.528 1.335-.674 2.203-.146.868-.22 1.851-.22 2.951 0 1.06.071 2.016.212 2.869.142.852.359 1.579.651 2.18.293.6.669 1.062 1.128 1.384.46.323 1.007.485 1.642.485.586 0 1.103-.157 1.552-.47.449-.312.825-.769 1.128-1.37.302-.6.532-1.334.688-2.202.157-.867.235-1.856.235-2.966zm35.797-8.583c0 .969-.171 1.844-.514 2.626a5.478 5.478 0 0 1-1.499 2.006c-.656.555-1.458.981-2.407 1.279-.948.298-2.028.446-3.239.446h-3.315v8.734l2.392.409V152h-7.902v-.772l2.286-.409v-20.268l-2.286-.408v-.772h8.371c1.13 0 2.19.108 3.179.325.989.217 1.849.575 2.58 1.075a5.27 5.27 0 0 1 1.726 1.96c.419.807.628 1.806.628 2.997zm-3.405 0c0-.918-.111-1.7-.333-2.346-.222-.646-.563-1.173-1.022-1.582-.46-.409-1.042-.709-1.748-.9-.707-.192-1.544-.288-2.513-.288h-1.953v10.232h2.513c.787 0 1.49-.1 2.112-.302a4.104 4.104 0 0 0 1.589-.931c.439-.42.774-.951 1.006-1.597.233-.646.349-1.408.349-2.286zm23.938 8.431c0 1.292-.146 2.452-.44 3.482-.292 1.029-.713 1.902-1.263 2.618a5.482 5.482 0 0 1-2.02 1.643c-.798.378-1.696.567-2.695.567-.878 0-1.64-.126-2.286-.378a6.87 6.87 0 0 1-1.65-.893v6.281l1.983.41v.771H371.3v-.772l1.893-.409v-19.738l-1.983-.242v-.787l4.889-.454v1.983c.636-.636 1.317-1.125 2.043-1.469.727-.343 1.534-.514 2.422-.514.979 0 1.842.202 2.589.605a5.354 5.354 0 0 1 1.861 1.665c.495.707.868 1.542 1.12 2.505.253.964.379 2.006.379 3.126zm-3.285.44c0-1.05-.065-1.994-.197-2.831-.13-.838-.338-1.552-.62-2.142-.283-.59-.646-1.042-1.09-1.355-.444-.313-.974-.47-1.59-.47-.383 0-.746.056-1.09.167a4.924 4.924 0 0 0-.968.432 6.832 6.832 0 0 0-.84.575 8.377 8.377 0 0 0-.674.598v10.202c.273.212.53.393.772.545a4.346 4.346 0 0 0 1.604.605c.304.05.652.076 1.045.076.646 0 1.199-.156 1.658-.47.459-.312.835-.751 1.127-1.316.293-.565.51-1.241.651-2.028.142-.788.212-1.65.212-2.589zm40.157 11.654a6.934 6.934 0 0 1-1.65.697 6.636 6.636 0 0 1-1.816.257c-.686 0-1.32-.078-1.9-.235a8.358 8.358 0 0 1-1.627-.62 10.05 10.05 0 0 1-1.438-.893 26.91 26.91 0 0 1-1.325-1.052c-.428-.364-.855-.727-1.279-1.09a17.396 17.396 0 0 0-1.301-1.014 8.598 8.598 0 0 1-3.096-1.166c-.974-.595-1.829-1.382-2.566-2.361-.736-.979-1.321-2.14-1.755-3.482-.434-1.342-.651-2.845-.651-4.51 0-1.756.23-3.363.688-4.821.46-1.459 1.12-2.712 1.983-3.762a9.043 9.043 0 0 1 3.141-2.452c1.231-.585 2.614-.878 4.148-.878 1.433 0 2.747.285 3.943.855a8.944 8.944 0 0 1 3.08 2.415c.858 1.039 1.524 2.288 1.998 3.746.474 1.458.712 3.07.712 4.836 0 1.484-.172 2.853-.515 4.11-.343 1.256-.825 2.371-1.446 3.345a9.495 9.495 0 0 1-2.247 2.467 8.867 8.867 0 0 1-2.922 1.476c.464.424.898.845 1.302 1.264.404.419.812.795 1.226 1.128.414.333.85.603 1.31.81.459.206.976.31 1.55.31.374 0 .712-.033 1.015-.099.303-.065.656-.159 1.06-.28l.378 1zm-4.253-15.227c0-1.685-.132-3.202-.394-4.549-.262-1.347-.656-2.492-1.18-3.436-.525-.943-1.181-1.667-1.968-2.172-.787-.504-1.7-.757-2.74-.757-1.1 0-2.046.265-2.838.795-.792.53-1.446 1.259-1.96 2.187-.515.929-.894 2.021-1.136 3.277a21.476 21.476 0 0 0-.363 4.065c0 1.624.126 3.098.378 4.42.253 1.321.641 2.457 1.166 3.405.525.949 1.188 1.68 1.99 2.195.803.515 1.754.772 2.854.772 1.04 0 1.947-.262 2.724-.787.777-.525 1.423-1.246 1.938-2.165.514-.918.898-1.998 1.15-3.239.253-1.241.379-2.578.379-4.011zM437 158.66v-.772l2.013-.409v-6.872a6.918 6.918 0 0 1-1.96 1.363c-.721.333-1.521.5-2.4.5-.978 0-1.84-.195-2.587-.584a5.331 5.331 0 0 1-1.877-1.627c-.505-.696-.886-1.526-1.143-2.49-.258-.963-.386-2.02-.386-3.17 0-1.222.149-2.342.446-3.361.298-1.02.727-1.897 1.287-2.634a5.95 5.95 0 0 1 2.059-1.726c.812-.413 1.728-.62 2.747-.62 1.03 0 1.91.171 2.641.514.732.344 1.36.788 1.885 1.332l1.332-1.604h.938v20.98l1.892.408v.772H437zm2.013-19.556c-.252-.212-.5-.407-.741-.583a4.694 4.694 0 0 0-.765-.454 3.94 3.94 0 0 0-.863-.288 4.992 4.992 0 0 0-1.036-.098c-.626 0-1.169.161-1.628.484-.459.323-.837.782-1.135 1.377-.298.596-.517 1.312-.658 2.15a16.913 16.913 0 0 0-.212 2.8c0 1.03.078 1.948.234 2.755.157.807.381 1.486.674 2.036.293.55.656.969 1.09 1.256.434.288.928.432 1.483.432.394 0 .762-.053 1.105-.16.343-.105.664-.244.961-.415.298-.172.57-.369.818-.59.247-.223.471-.45.673-.682v-10.02zM473.206 152l-3.966-8.128a8.046 8.046 0 0 0-.719-1.204 3.358 3.358 0 0 0-.756-.757 2.577 2.577 0 0 0-.856-.393 4.186 4.186 0 0 0-1.014-.114h-1.12v9.415l2.392.409V152h-7.902v-.772l2.286-.409v-20.268l-2.286-.408v-.772h8.764c1.06 0 2.057.095 2.99.287.933.192 1.748.515 2.445.969a4.888 4.888 0 0 1 1.65 1.801c.403.747.605 1.68.605 2.8 0 .192-.018.447-.053.765a5.121 5.121 0 0 1-.242 1.044c-.126.379-.313.77-.56 1.173-.248.404-.583.79-1.007 1.158-.424.369-.951.702-1.582 1-.63.297-1.395.527-2.293.688a3.251 3.251 0 0 1 1.476.916c.409.439.774.991 1.097 1.657l3.482 7.19 1.983.379V152h-4.814zm-.893-16.68c0-.758-.093-1.429-.28-2.014a3.513 3.513 0 0 0-.893-1.476c-.409-.398-.933-.701-1.574-.908-.64-.207-1.41-.31-2.308-.31h-2.483v9.551h1.71c.767 0 1.502-.063 2.203-.19a5.043 5.043 0 0 0 1.862-.71c.54-.349.969-.838 1.286-1.469.318-.63.477-1.455.477-2.475zm22.637 3.632c0 .283-.04.545-.121.787-.081.242-.197.452-.349.628a1.636 1.636 0 0 1-.544.417c-.212.1-.45.151-.712.151-.454 0-.842-.136-1.165-.409-.323-.272-.485-.666-.485-1.18 0-.323.091-.634.273-.931.181-.298.413-.522.696-.674-.202-.161-.474-.242-.817-.242-.313 0-.644.103-.992.31a6.147 6.147 0 0 0-1.03.78c-.337.313-.658.648-.96 1.006a18.55 18.55 0 0 0-.787.992v10.232l2.633.409V152h-7.477v-.772l1.862-.409v-13.078l-1.953-.242v-.787l4.89-.454v2.664c.19-.232.43-.502.718-.81.288-.308.616-.598.984-.87a6.04 6.04 0 0 1 1.226-.697c.45-.191.931-.287 1.446-.287.423 0 .802.075 1.135.227.333.151.613.35.84.598.227.247.399.535.515.863.116.328.174.663.174 1.006zm30.832 6.751c0 .959-.156 1.852-.469 2.68a6.052 6.052 0 0 1-1.37 2.149c-.6.605-1.334 1.08-2.202 1.423-.868.343-1.857.514-2.967.514a8.588 8.588 0 0 1-3.027-.537 9.314 9.314 0 0 1-1.264-.583c-.399-.222-.78-.459-1.143-.711l-.833 1.544h-.923l-.197-7.432h.939l1.453 4.404a7.24 7.24 0 0 0 2.187 1.43c.853.369 1.83.553 2.93.553.675 0 1.29-.116 1.846-.348a4.335 4.335 0 0 0 1.43-.954c.399-.403.707-.88.924-1.43.217-.55.325-1.138.325-1.763 0-.606-.111-1.14-.333-1.605a3.7 3.7 0 0 0-.969-1.234 6.433 6.433 0 0 0-1.559-.946 15.84 15.84 0 0 0-2.104-.741 21.513 21.513 0 0 1-3.073-1.067c-.898-.399-1.66-.878-2.285-1.438a5.685 5.685 0 0 1-1.43-1.953c-.329-.742-.493-1.612-.493-2.611 0-.898.162-1.726.485-2.483a5.729 5.729 0 0 1 1.354-1.952 6.29 6.29 0 0 1 2.067-1.28c.797-.307 1.675-.46 2.633-.46a8.37 8.37 0 0 1 1.756.166c.515.11.97.25 1.363.416a6.72 6.72 0 0 1 1.044.545c.303.197.57.38.802.552l.712-1.392h.953l.137 6.811h-.97l-1.361-4.056a6.51 6.51 0 0 0-.81-.651 5.984 5.984 0 0 0-1.022-.56 6.716 6.716 0 0 0-1.203-.386 6.268 6.268 0 0 0-1.37-.144c-.606 0-1.168.103-1.688.31a4.19 4.19 0 0 0-1.347.848 3.842 3.842 0 0 0-1.204 2.808c0 .646.101 1.203.303 1.672.202.47.527.886.976 1.25.45.362 1.032.693 1.749.99.716.298 1.584.598 2.603.901a25.04 25.04 0 0 1 2.687.961c.812.348 1.511.78 2.097 1.295a5.432 5.432 0 0 1 1.37 1.854c.327.721.491 1.602.491 2.641zm17.142 1.953a4.98 4.98 0 0 1-.363 1.922 4.361 4.361 0 0 1-1.044 1.521 4.835 4.835 0 0 1-1.658 1.007c-.65.242-1.385.363-2.202.363a7.377 7.377 0 0 1-2.203-.318 5.914 5.914 0 0 1-1.793-.893l-.56.863h-.863v-5.6h.862l1 3.436a6.82 6.82 0 0 0 1.528.953c.555.252 1.211.379 1.968.379.474 0 .898-.079 1.272-.235.373-.156.688-.368.946-.636.257-.267.454-.575.59-.923.136-.348.204-.714.204-1.098 0-.302-.04-.585-.12-.847a1.91 1.91 0 0 0-.425-.727 3.086 3.086 0 0 0-.817-.613 6.554 6.554 0 0 0-1.302-.507l-1.68-.454a11.663 11.663 0 0 1-1.71-.605 4.75 4.75 0 0 1-1.325-.87 3.656 3.656 0 0 1-.863-1.265c-.207-.494-.31-1.09-.31-1.786 0-.615.116-1.196.348-1.74.232-.546.563-1.02.992-1.423a4.645 4.645 0 0 1 1.566-.954c.616-.232 1.307-.348 2.074-.348.696 0 1.335.088 1.915.265.58.176 1.082.406 1.506.688l.484-.711h.878v4.935h-.878l-.893-2.831c-.454-.424-.92-.722-1.4-.893a4.665 4.665 0 0 0-1.582-.257c-.413 0-.79.063-1.127.189-.338.126-.626.3-.863.522a2.252 2.252 0 0 0-.545.787c-.126.303-.19.63-.19.984 0 .343.061.643.182.9.121.258.298.485.53.682.232.197.52.373.863.53.343.156.737.3 1.18.431l1.408.409c.697.202 1.317.434 1.862.696a5.1 5.1 0 0 1 1.385.954c.379.373.669.814.87 1.324.202.51.303 1.108.303 1.794zm32.861-11.716l-1.271-5.116h-5.056v19.995l2.392.409V152h-7.993v-.772l2.377-.409v-19.995h-5.07l-1.272 5.116h-.939v-7.341h.969l.454.772h14.94l.439-.772h.969v7.34h-.939zm15.87 15.349a11.941 11.941 0 0 1-1.726.78 8.272 8.272 0 0 1-.99.287 4.467 4.467 0 0 1-.977.113c-.636 0-1.183-.073-1.642-.22a2.563 2.563 0 0 1-1.143-.718c-.303-.333-.525-.765-.666-1.294-.141-.53-.212-1.174-.212-1.93v-10.505h-2.603V136.5h2.603v-3.254l2.134-2.483h.848v5.737h3.905v1.302h-3.905v9.945c0 .575.02 1.057.06 1.445.041.389.114.701.22.939.106.237.25.406.431.507.182.1.42.151.712.151.817 0 1.665-.187 2.543-.56l.409 1.06zm33.104-20.738v12.337c0 1.382-.106 2.659-.318 3.83-.212 1.17-.606 2.181-1.18 3.034-.576.853-1.37 1.519-2.385 1.998-1.014.48-2.323.72-3.928.72-1.17 0-2.227-.145-3.171-.432-.944-.288-1.75-.75-2.422-1.385-.67-.636-1.188-1.463-1.551-2.483-.364-1.019-.545-2.265-.545-3.738v-13.88l-2.286-.41v-.771h7.78v.772l-2.3.408v13.941c0 .727.037 1.423.113 2.09.076.665.245 1.26.507 1.785.162.343.368.671.62.984.253.313.558.59.917.833.358.242.777.434 1.256.575.48.141 1.027.212 1.642.212 1.08 0 1.98-.174 2.702-.523a4.464 4.464 0 0 0 1.74-1.453c.44-.62.75-1.354.932-2.202.181-.848.272-1.776.272-2.785V130.55l-2.71-.408v-.772h6.737v.772l-2.422.408zm18.231 21.691v-2.195a11.01 11.01 0 0 1-1.052.954 7.597 7.597 0 0 1-1.165.764 6.582 6.582 0 0 1-1.272.515c-.439.126-.895.19-1.37.19-.908 0-1.66-.155-2.255-.462a3.728 3.728 0 0 1-1.43-1.28c-.358-.544-.608-1.193-.75-1.945a13.337 13.337 0 0 1-.211-2.46v-8.582l-1.983-.242v-.787l4.95-.454v9.763c0 .636.035 1.229.105 1.779.071.55.2 1.029.386 1.438.187.408.45.729.787.96.338.233.78.349 1.325.349.575 0 1.183-.157 1.824-.47.64-.312 1.294-.786 1.96-1.422V137.74l-1.892-.242v-.787l4.874-.454v14.561l1.862.379V152l-4.693.242zm-331.508 42.31l-7.568 21.917h-1.12l-7.78-21.918-1.772-.408v-.772h7.538v.772l-2.482.408 5.979 17.014 5.873-17.014-2.982-.408v-.772h6.13v.772l-1.816.408zm18.64 7.129l-5.297 14.728h-1.15l-5.95-14.728-1.68-.409v-.772h6.857v.772l-2.013.409 4.117 10.444 3.663-10.444-2.013-.409v-.772h5.147v.772l-1.68.409zm44.547-7.13l-6.373 21.918h-1.301l-4.996-16.347-5.055 16.347h-1.302l-7.008-21.918-1.741-.408v-.772h7.296v.772l-2.392.408 5.268 16.711 4.253-13.456-.968-3.285-2.074-.378v-.772h7.75v.772l-2.634.378 4.965 16.741 4.95-16.71-2.816-.41v-.771h6.01v.772l-1.832.408zm26.602 7.13l-4.677 14.728h-1.15l-3.875-10.55-3.785 10.55h-1.09l-5.57-14.728-1.529-.379v-.802h6.479v.772l-1.862.409 3.784 10.414 2.83-8.098-.847-2.316-1.483-.409v-.772h6.509v.772l-2.074.409 3.693 10.323 3.315-10.323-2.013-.409v-.772h5.01v.772l-1.665.409zM430.348 216v-.772l2.543-.378-5.419-8.734-5.419 8.734 3.027.378V216h-6.932v-.772l2.406-.378 6.176-10.006-6.387-10.293-1.771-.408v-.772h7.87v.772l-2.497.408 4.95 8.083 4.965-8.083-3.043-.408v-.772h6.706v.772l-2.18.408-5.706 9.234 6.887 11.065 2.013.378V216h-8.19zm21.577 0v-.772l2.104-.378-3.542-5.238-3.905 5.238 2.21.378V216h-5.465v-.772l1.59-.378 4.798-6.388-4.738-6.812-1.453-.378v-.772h6.933v.772l-2.044.378 3.285 4.89 3.723-4.89-2.225-.378v-.772h5.298v.772l-1.423.378-4.586 6.04 4.98 7.16 1.559.378V216h-7.1zm39.097-21.449l-5.767 11.807v8.461l2.482.409V216h-8.128v-.772l2.452-.409v-8.113l-6.115-12.155-1.862-.378v-.802h7.886v.802l-2.603.378 5.146 10.445 5.132-10.445-3.149-.378v-.802h6.66v.802l-2.134.378zm18.05 7.13l-5.116 15.409c-.262.787-.56 1.519-.893 2.195a8.952 8.952 0 0 1-1.12 1.763c-.414.5-.87.893-1.37 1.18-.5.288-1.047.432-1.642.432a3.6 3.6 0 0 1-1.128-.166 2.63 2.63 0 0 1-.878-.477 2.211 2.211 0 0 1-.575-.727 2.05 2.05 0 0 1-.204-.915c0-.222.035-.434.105-.636.071-.202.175-.381.31-.538a1.47 1.47 0 0 1 .5-.37 1.59 1.59 0 0 1 .674-.137c.383 0 .716.124.999.371.282.247.424.588.424 1.022 0 .313-.066.573-.197.78-.131.206-.283.37-.454.491.09.06.2.104.325.13.126.024.245.037.356.037.394 0 .762-.144 1.105-.431.343-.288.653-.644.93-1.068.278-.423.523-.875.735-1.354.212-.48.383-.916.515-1.31l.333-.984-6.13-14.697-1.68-.409v-.772h6.917v.772l-2.044.409 4.344 10.656 3.467-10.656-2.013-.409v-.772h5.085v.772l-1.68.409zm20.843 13.017h9.445l1.68-5.419h.893l-.272 6.721h-15.228v-1.12l11.943-20.238h-8.522l-1.62 5.086h-.832l.303-6.357h14.168v1.12l-11.958 20.207zm21.47 0h6.57l1.014-3.905h.878V216h-11.852v-.954l8.598-13.244h-6.085l-1.181 3.466h-.893l.242-4.768h11.262v1.03l-8.552 13.168z"/></g></svg>