<svg xmlns="http://www.w3.org/2000/svg" width="368" height="690" viewBox="0 0 368 690">
  <g fill="none" fill-rule="evenodd">
    <rect width="368" height="258" y="216" fill="#ED0644"/>
    <rect width="368" height="72" fill="#F8BED1"/>
    <path fill="#2C2C36" d="M144.785,35.24 L144.385,38.28 L147.085,38.28 L147.505,35.24 L144.785,35.24 Z M144.225,39.4 L143.605,44 L142.365,44 L142.985,39.4 L141.005,39.4 L141.005,38.28 L143.145,38.28 L143.545,35.24 L141.565,35.24 L141.565,34.12 L143.705,34.12 L144.325,29.56 L145.565,29.56 L144.945,34.12 L147.665,34.12 L148.265,29.56 L149.505,29.56 L148.905,34.12 L150.785,34.12 L150.785,35.24 L148.745,35.24 L148.325,38.28 L150.225,38.28 L150.225,39.4 L148.165,39.4 L147.545,44 L146.305,44 L146.925,39.4 L144.225,39.4 Z M154.255,29.56 L162.815,29.56 L162.815,30.92 L155.855,30.92 L155.855,35.76 L161.015,35.76 L161.015,37.12 L155.855,37.12 L155.855,44 L154.255,44 L154.255,29.56 Z M174.985,40.24 C174.985,42.44 173.265,44.2 169.725,44.2 C166.185,44.2 164.465,42.44 164.465,40.24 C164.465,38.4 165.905,37.12 167.625,36.32 L167.625,36.28 C166.025,35.68 165.065,34.46 165.065,32.96 C165.065,30.6 167.065,29.36 169.725,29.36 C172.385,29.36 174.385,30.6 174.385,32.96 C174.385,34.46 173.425,35.68 171.825,36.28 L171.825,36.32 C173.545,36.94 174.985,38.28 174.985,40.24 Z M165.985,40.24 C165.985,41.52 167.105,42.96 169.725,42.96 C172.345,42.96 173.465,41.52 173.465,40.24 C173.465,38.56 171.745,37.72 169.465,36.96 C167.705,37.72 165.985,38.56 165.985,40.24 Z M172.865,32.88 C172.865,31.28 171.305,30.6 169.725,30.6 C168.145,30.6 166.585,31.28 166.585,32.88 C166.585,34.44 168.545,35.32 169.725,35.66 C171.325,35.26 172.865,34.28 172.865,32.88 Z M178.255,44 L178.255,29.56 L183.575,29.56 C186.095,29.56 187.615,31.16 187.615,33.12 C187.615,34.7 186.915,35.84 185.175,36.44 L185.195,36.48 C186.815,36.88 187.975,38.32 187.975,40.12 C187.975,42.28 186.655,44 182.735,44 L178.255,44 Z M179.855,37.12 L179.855,42.64 L182.855,42.64 C185.215,42.64 186.375,41.84 186.375,40.04 C186.375,38.2 184.895,37.12 182.615,37.12 L179.855,37.12 Z M179.855,30.92 L179.855,35.76 L182.655,35.76 C185.075,35.76 186.015,34.52 186.015,33.3 C186.015,31.68 185.135,30.92 183.295,30.92 L179.855,30.92 Z M191.845,29.56 L200.505,29.56 L200.505,30.92 L193.445,30.92 L193.445,35.76 L198.465,35.76 L198.465,37.12 L193.445,37.12 L193.445,42.64 L200.905,42.64 L200.905,44 L191.845,44 L191.845,29.56 Z M205.755,30.92 L205.755,42.64 L207.915,42.64 C211.235,42.64 212.955,40.66 212.955,36.78 C212.955,32.56 210.955,30.92 207.995,30.92 L205.755,30.92 Z M204.155,44 L204.155,29.56 L208.035,29.56 C211.955,29.56 214.555,32.04 214.555,36.78 C214.555,41.02 212.275,44 207.955,44 L204.155,44 Z M225.245,44 L218.845,44 L218.845,42.76 L221.345,42.76 L221.345,31.02 L218.565,31.3 L218.565,30.36 C219.565,30.06 220.705,29.76 221.345,29.36 L222.785,29.36 L222.785,42.76 L225.245,42.76 L225.245,44 Z"/>
    <rect width="368" height="72" y="72" fill="#F280A1"/>
    <path fill="#FAFAFF" d="M145.905,107.24 L145.505,110.28 L148.205,110.28 L148.625,107.24 L145.905,107.24 Z M145.345,111.4 L144.725,116 L143.485,116 L144.105,111.4 L142.125,111.4 L142.125,110.28 L144.265,110.28 L144.665,107.24 L142.685,107.24 L142.685,106.12 L144.825,106.12 L145.445,101.56 L146.685,101.56 L146.065,106.12 L148.785,106.12 L149.385,101.56 L150.625,101.56 L150.025,106.12 L151.905,106.12 L151.905,107.24 L149.865,107.24 L149.445,110.28 L151.345,110.28 L151.345,111.4 L149.285,111.4 L148.665,116 L147.425,116 L148.045,111.4 L145.345,111.4 Z M155.375,101.56 L163.935,101.56 L163.935,102.92 L156.975,102.92 L156.975,107.76 L162.135,107.76 L162.135,109.12 L156.975,109.12 L156.975,116 L155.375,116 L155.375,101.56 Z M175.445,114.76 L175.445,116 L166.065,116 L166.065,114.48 C168.565,109.42 173.945,109.12 173.945,105.24 C173.945,103.56 172.865,102.6 171.025,102.6 C168.945,102.6 167.865,104.28 167.625,105.74 L166.205,105.42 C166.665,103.42 167.845,101.36 171.065,101.36 C173.425,101.36 175.465,102.72 175.465,105.2 C175.465,109.6 169.145,110.8 167.585,114.76 L175.445,114.76 Z M188.575,112.24 C188.575,114.44 186.855,116.2 183.315,116.2 C179.775,116.2 178.055,114.44 178.055,112.24 C178.055,110.4 179.495,109.12 181.215,108.32 L181.215,108.28 C179.615,107.68 178.655,106.46 178.655,104.96 C178.655,102.6 180.655,101.36 183.315,101.36 C185.975,101.36 187.975,102.6 187.975,104.96 C187.975,106.46 187.015,107.68 185.415,108.28 L185.415,108.32 C187.135,108.94 188.575,110.28 188.575,112.24 Z M179.575,112.24 C179.575,113.52 180.695,114.96 183.315,114.96 C185.935,114.96 187.055,113.52 187.055,112.24 C187.055,110.56 185.335,109.72 183.055,108.96 C181.295,109.72 179.575,110.56 179.575,112.24 Z M186.455,104.88 C186.455,103.28 184.895,102.6 183.315,102.6 C181.735,102.6 180.175,103.28 180.175,104.88 C180.175,106.44 182.135,107.32 183.315,107.66 C184.915,107.26 186.455,106.28 186.455,104.88 Z M190.685,108.78 C190.685,103.56 192.645,101.36 195.785,101.36 C198.925,101.36 200.885,103.56 200.885,108.78 C200.885,114 198.925,116.2 195.785,116.2 C192.645,116.2 190.685,114 190.685,108.78 Z M192.205,108.78 C192.205,113.16 193.445,114.96 195.785,114.96 C198.125,114.96 199.365,113.16 199.365,108.78 C199.365,104.4 198.125,102.6 195.785,102.6 C193.445,102.6 192.205,104.4 192.205,108.78 Z M208.155,102.68 L206.075,110.12 L210.455,110.12 L208.375,102.68 L208.155,102.68 Z M204.315,116 L202.635,116 L207.075,101.56 L209.455,101.56 L213.895,116 L212.215,116 L210.855,111.48 L205.675,111.48 L204.315,116 Z M224.125,116 L217.725,116 L217.725,114.76 L220.225,114.76 L220.225,103.02 L217.445,103.3 L217.445,102.36 C218.445,102.06 219.585,101.76 220.225,101.36 L221.665,101.36 L221.665,114.76 L224.125,114.76 L224.125,116 Z"/>
    <rect width="368" height="72" y="144" fill="#EA3D75"/>
    <path fill="#FAFAFF" d="M144.795,179.24 L144.395,182.28 L147.095,182.28 L147.515,179.24 L144.795,179.24 Z M144.235,183.4 L143.615,188 L142.375,188 L142.995,183.4 L141.015,183.4 L141.015,182.28 L143.155,182.28 L143.555,179.24 L141.575,179.24 L141.575,178.12 L143.715,178.12 L144.335,173.56 L145.575,173.56 L144.955,178.12 L147.675,178.12 L148.275,173.56 L149.515,173.56 L148.915,178.12 L150.795,178.12 L150.795,179.24 L148.755,179.24 L148.335,182.28 L150.235,182.28 L150.235,183.4 L148.175,183.4 L147.555,188 L146.315,188 L146.935,183.4 L144.235,183.4 Z M154.425,173.56 L163.085,173.56 L163.085,174.92 L156.025,174.92 L156.025,179.76 L161.045,179.76 L161.045,181.12 L156.025,181.12 L156.025,186.64 L163.485,186.64 L163.485,188 L154.425,188 L154.425,173.56 Z M170.735,174.68 L168.655,182.12 L173.035,182.12 L170.955,174.68 L170.735,174.68 Z M166.895,188 L165.215,188 L169.655,173.56 L172.035,173.56 L176.475,188 L174.795,188 L173.435,183.48 L168.255,183.48 L166.895,188 Z M177.885,185.36 L179.045,184.56 C180.145,186.04 181.505,186.96 183.005,186.96 C185.125,186.96 186.405,185.88 186.405,184.16 C186.405,182.14 185.205,180.92 182.325,180.92 L180.905,180.92 L180.905,179.68 L181.765,179.68 C184.645,179.68 185.885,178.76 185.885,176.98 C185.885,175.52 184.625,174.6 183.245,174.6 C181.485,174.6 180.725,175.36 179.765,176.6 L178.585,175.8 C179.565,174.44 180.925,173.36 183.245,173.36 C185.805,173.36 187.405,174.68 187.405,176.96 C187.405,178.7 186.285,179.72 185.165,180.16 C187.445,181.04 187.925,182.68 187.925,184 C187.925,186.46 186.025,188.2 183.005,188.2 C180.245,188.2 178.565,186.48 177.885,185.36 Z M193.275,174.92 L193.275,186.64 L195.435,186.64 C198.755,186.64 200.475,184.66 200.475,180.78 C200.475,176.56 198.475,174.92 195.515,174.92 L193.275,174.92 Z M191.675,188 L191.675,173.56 L195.555,173.56 C199.475,173.56 202.075,176.04 202.075,180.78 C202.075,185.02 199.795,188 195.475,188 L191.675,188 Z M212.065,174.8 L204.745,174.8 L204.745,173.56 L213.905,173.56 L213.905,174.44 L207.805,188 L206.125,188 L212.065,174.8 Z M225.755,173.56 L225.755,174.8 L219.555,174.8 L219.195,179.42 C220.135,178.56 221.135,178.24 222.155,178.24 C224.555,178.24 226.775,179.88 226.775,183.12 C226.775,185.32 225.455,188.2 221.775,188.2 C219.315,188.2 218.075,186.84 217.175,185.44 L218.475,184.76 C219.175,186.06 220.295,186.96 221.815,186.96 C223.715,186.96 225.255,185.84 225.255,183.12 C225.255,181 224.015,179.48 222.015,179.48 C220.615,179.48 219.555,180.32 218.975,181.66 L217.715,181.38 L218.355,173.56 L225.755,173.56 Z"/>
    <rect width="368" height="72" y="474" fill="#B71E3D"/>
    <path fill="#FAFAFF" d="M144.235,509.24 L143.835,512.28 L146.535,512.28 L146.955,509.24 L144.235,509.24 Z M143.675,513.4 L143.055,518 L141.815,518 L142.435,513.4 L140.455,513.4 L140.455,512.28 L142.595,512.28 L142.995,509.24 L141.015,509.24 L141.015,508.12 L143.155,508.12 L143.775,503.56 L145.015,503.56 L144.395,508.12 L147.115,508.12 L147.715,503.56 L148.955,503.56 L148.355,508.12 L150.235,508.12 L150.235,509.24 L148.195,509.24 L147.775,512.28 L149.675,512.28 L149.675,513.4 L147.615,513.4 L146.995,518 L145.755,518 L146.375,513.4 L143.675,513.4 Z M153.865,518 L153.865,503.56 L159.185,503.56 C161.705,503.56 163.225,505.16 163.225,507.12 C163.225,508.7 162.525,509.84 160.785,510.44 L160.805,510.48 C162.425,510.88 163.585,512.32 163.585,514.12 C163.585,516.28 162.265,518 158.345,518 L153.865,518 Z M155.465,511.12 L155.465,516.64 L158.465,516.64 C160.825,516.64 161.985,515.84 161.985,514.04 C161.985,512.2 160.505,511.12 158.225,511.12 L155.465,511.12 Z M155.465,504.92 L155.465,509.76 L158.265,509.76 C160.685,509.76 161.625,508.52 161.625,507.3 C161.625,505.68 160.745,504.92 158.905,504.92 L155.465,504.92 Z M174.095,504.8 L166.775,504.8 L166.775,503.56 L175.935,503.56 L175.935,504.44 L169.835,518 L168.155,518 L174.095,504.8 Z M187.265,518 L180.865,518 L180.865,516.76 L183.365,516.76 L183.365,505.02 L180.585,505.3 L180.585,504.36 C181.585,504.06 182.725,503.76 183.365,503.36 L184.805,503.36 L184.805,516.76 L187.265,516.76 L187.265,518 Z M192.395,503.56 L201.055,503.56 L201.055,504.92 L193.995,504.92 L193.995,509.76 L199.015,509.76 L199.015,511.12 L193.995,511.12 L193.995,516.64 L201.455,516.64 L201.455,518 L192.395,518 L192.395,503.56 Z M203.385,515.36 L204.545,514.56 C205.645,516.04 207.005,516.96 208.505,516.96 C210.625,516.96 211.905,515.88 211.905,514.16 C211.905,512.14 210.705,510.92 207.825,510.92 L206.405,510.92 L206.405,509.68 L207.265,509.68 C210.145,509.68 211.385,508.76 211.385,506.98 C211.385,505.52 210.125,504.6 208.745,504.6 C206.985,504.6 206.225,505.36 205.265,506.6 L204.085,505.8 C205.065,504.44 206.425,503.36 208.745,503.36 C211.305,503.36 212.905,504.68 212.905,506.96 C212.905,508.7 211.785,509.72 210.665,510.16 C212.945,511.04 213.425,512.68 213.425,514 C213.425,516.46 211.525,518.2 208.505,518.2 C205.745,518.2 204.065,516.48 203.385,515.36 Z M218.775,504.92 L218.775,516.64 L220.935,516.64 C224.255,516.64 225.975,514.66 225.975,510.78 C225.975,506.56 223.975,504.92 221.015,504.92 L218.775,504.92 Z M217.175,518 L217.175,503.56 L221.055,503.56 C224.975,503.56 227.575,506.04 227.575,510.78 C227.575,515.02 225.295,518 220.975,518 L217.175,518 Z"/>
    <rect width="368" height="72" y="546" fill="#88152D"/>
    <path fill="#FAFAFF" d="M144.795,581.24 L144.395,584.28 L147.095,584.28 L147.515,581.24 L144.795,581.24 Z M144.235,585.4 L143.615,590 L142.375,590 L142.995,585.4 L141.015,585.4 L141.015,584.28 L143.155,584.28 L143.555,581.24 L141.575,581.24 L141.575,580.12 L143.715,580.12 L144.335,575.56 L145.575,575.56 L144.955,580.12 L147.675,580.12 L148.275,575.56 L149.515,575.56 L148.915,580.12 L150.795,580.12 L150.795,581.24 L148.755,581.24 L148.335,584.28 L150.235,584.28 L150.235,585.4 L148.175,585.4 L147.555,590 L146.315,590 L146.935,585.4 L144.235,585.4 Z M163.625,586.24 C163.625,588.44 161.905,590.2 158.365,590.2 C154.825,590.2 153.105,588.44 153.105,586.24 C153.105,584.4 154.545,583.12 156.265,582.32 L156.265,582.28 C154.665,581.68 153.705,580.46 153.705,578.96 C153.705,576.6 155.705,575.36 158.365,575.36 C161.025,575.36 163.025,576.6 163.025,578.96 C163.025,580.46 162.065,581.68 160.465,582.28 L160.465,582.32 C162.185,582.94 163.625,584.28 163.625,586.24 Z M154.625,586.24 C154.625,587.52 155.745,588.96 158.365,588.96 C160.985,588.96 162.105,587.52 162.105,586.24 C162.105,584.56 160.385,583.72 158.105,582.96 C156.345,583.72 154.625,584.56 154.625,586.24 Z M161.505,578.88 C161.505,577.28 159.945,576.6 158.365,576.6 C156.785,576.6 155.225,577.28 155.225,578.88 C155.225,580.44 157.185,581.32 158.365,581.66 C159.965,581.26 161.505,580.28 161.505,578.88 Z M176.095,586.24 C176.095,588.44 174.375,590.2 170.835,590.2 C167.295,590.2 165.575,588.44 165.575,586.24 C165.575,584.4 167.015,583.12 168.735,582.32 L168.735,582.28 C167.135,581.68 166.175,580.46 166.175,578.96 C166.175,576.6 168.175,575.36 170.835,575.36 C173.495,575.36 175.495,576.6 175.495,578.96 C175.495,580.46 174.535,581.68 172.935,582.28 L172.935,582.32 C174.655,582.94 176.095,584.28 176.095,586.24 Z M167.095,586.24 C167.095,587.52 168.215,588.96 170.835,588.96 C173.455,588.96 174.575,587.52 174.575,586.24 C174.575,584.56 172.855,583.72 170.575,582.96 C168.815,583.72 167.095,584.56 167.095,586.24 Z M173.975,578.88 C173.975,577.28 172.415,576.6 170.835,576.6 C169.255,576.6 167.695,577.28 167.695,578.88 C167.695,580.44 169.655,581.32 170.835,581.66 C172.435,581.26 173.975,580.28 173.975,578.88 Z M186.705,590 L180.305,590 L180.305,588.76 L182.805,588.76 L182.805,577.02 L180.025,577.3 L180.025,576.36 C181.025,576.06 182.165,575.76 182.805,575.36 L184.245,575.36 L184.245,588.76 L186.705,588.76 L186.705,590 Z M199.695,575.56 L199.695,576.8 L193.495,576.8 L193.135,581.42 C194.075,580.56 195.075,580.24 196.095,580.24 C198.495,580.24 200.715,581.88 200.715,585.12 C200.715,587.32 199.395,590.2 195.715,590.2 C193.255,590.2 192.015,588.84 191.115,587.44 L192.415,586.76 C193.115,588.06 194.235,588.96 195.755,588.96 C197.655,588.96 199.195,587.84 199.195,585.12 C199.195,583 197.955,581.48 195.955,581.48 C194.555,581.48 193.495,582.32 192.915,583.66 L191.655,583.38 L192.295,575.56 L199.695,575.56 Z M212.845,588.76 L212.845,590 L203.465,590 L203.465,588.48 C205.965,583.42 211.345,583.12 211.345,579.24 C211.345,577.56 210.265,576.6 208.425,576.6 C206.345,576.6 205.265,578.28 205.025,579.74 L203.605,579.42 C204.065,577.42 205.245,575.36 208.465,575.36 C210.825,575.36 212.865,576.72 212.865,579.2 C212.865,583.6 206.545,584.8 204.985,588.76 L212.845,588.76 Z M218.215,576.92 L218.215,588.64 L220.375,588.64 C223.695,588.64 225.415,586.66 225.415,582.78 C225.415,578.56 223.415,576.92 220.455,576.92 L218.215,576.92 Z M216.615,590 L216.615,575.56 L220.495,575.56 C224.415,575.56 227.015,578.04 227.015,582.78 C227.015,587.02 224.735,590 220.415,590 L216.615,590 Z"/>
    <rect width="368" height="72" y="618" fill="#590A1F"/>
    <path fill="#FAFAFF" d="M145.905 653.24L145.505 656.28 148.205 656.28 148.625 653.24 145.905 653.24zM145.345 657.4L144.725 662 143.485 662 144.105 657.4 142.125 657.4 142.125 656.28 144.265 656.28 144.665 653.24 142.685 653.24 142.685 652.12 144.825 652.12 145.445 647.56 146.685 647.56 146.065 652.12 148.785 652.12 149.385 647.56 150.625 647.56 150.025 652.12 151.905 652.12 151.905 653.24 149.865 653.24 149.445 656.28 151.345 656.28 151.345 657.4 149.285 657.4 148.665 662 147.425 662 148.045 657.4 145.345 657.4zM163.395 647.56L163.395 648.8 157.195 648.8 156.835 653.42C157.775 652.56 158.775 652.24 159.795 652.24 162.195 652.24 164.415 653.88 164.415 657.12 164.415 659.32 163.095 662.2 159.415 662.2 156.955 662.2 155.715 660.84 154.815 659.44L156.115 658.76C156.815 660.06 157.935 660.96 159.455 660.96 161.355 660.96 162.895 659.84 162.895 657.12 162.895 655 161.655 653.48 159.655 653.48 158.255 653.48 157.195 654.32 156.615 655.66L155.355 655.38 155.995 647.56 163.395 647.56zM167.825 661.36L168.445 660.14C169.105 660.66 169.785 660.96 170.905 660.96 173.185 660.96 175.165 658.92 175.345 654.92 174.465 655.84 173.385 656.64 171.385 656.64 169.225 656.64 167.045 655.12 167.045 652 167.045 648.92 169.305 647.36 171.705 647.36 174.705 647.36 176.865 649.12 176.865 654.04 176.865 658.6 174.825 662.2 170.945 662.2 169.385 662.2 168.245 661.76 167.825 661.36zM168.565 651.96C168.565 654.2 170.065 655.4 171.585 655.4 173.345 655.4 174.705 654.24 175.265 652.72 175.225 650.2 173.905 648.6 171.825 648.6 169.785 648.6 168.565 650 168.565 651.96zM179.315 654.78C179.315 649.56 181.275 647.36 184.415 647.36 187.555 647.36 189.515 649.56 189.515 654.78 189.515 660 187.555 662.2 184.415 662.2 181.275 662.2 179.315 660 179.315 654.78zM180.835 654.78C180.835 659.16 182.075 660.96 184.415 660.96 186.755 660.96 187.995 659.16 187.995 654.78 187.995 650.4 186.755 648.6 184.415 648.6 182.075 648.6 180.835 650.4 180.835 654.78zM196.785 648.68L194.705 656.12 199.085 656.12 197.005 648.68 196.785 648.68zM192.945 662L191.265 662 195.705 647.56 198.085 647.56 202.525 662 200.845 662 199.485 657.48 194.305 657.48 192.945 662zM212.755 662L206.355 662 206.355 660.76 208.855 660.76 208.855 649.02 206.075 649.3 206.075 648.36C207.075 648.06 208.215 647.76 208.855 647.36L210.295 647.36 210.295 660.76 212.755 660.76 212.755 662zM217.725 647.56L226.285 647.56 226.285 648.92 219.325 648.92 219.325 653.76 224.485 653.76 224.485 655.12 219.325 655.12 219.325 662 217.725 662 217.725 647.56zM144.795 251.24L144.395 254.28 147.095 254.28 147.515 251.24 144.795 251.24zM144.235 255.4L143.615 260 142.375 260 142.995 255.4 141.015 255.4 141.015 254.28 143.155 254.28 143.555 251.24 141.575 251.24 141.575 250.12 143.715 250.12 144.335 245.56 145.575 245.56 144.955 250.12 147.675 250.12 148.275 245.56 149.515 245.56 148.915 250.12 150.795 250.12 150.795 251.24 148.755 251.24 148.335 254.28 150.235 254.28 150.235 255.4 148.175 255.4 147.555 260 146.315 260 146.935 255.4 144.235 255.4zM154.425 245.56L163.085 245.56 163.085 246.92 156.025 246.92 156.025 251.76 161.045 251.76 161.045 253.12 156.025 253.12 156.025 258.64 163.485 258.64 163.485 260 154.425 260 154.425 245.56zM168.335 246.92L168.335 258.64 170.495 258.64C173.815 258.64 175.535 256.66 175.535 252.78 175.535 248.56 173.535 246.92 170.575 246.92L168.335 246.92zM166.735 260L166.735 245.56 170.615 245.56C174.535 245.56 177.135 248.04 177.135 252.78 177.135 257.02 174.855 260 170.535 260L166.735 260zM179.325 252.78C179.325 247.56 181.285 245.36 184.425 245.36 187.565 245.36 189.525 247.56 189.525 252.78 189.525 258 187.565 260.2 184.425 260.2 181.285 260.2 179.325 258 179.325 252.78zM180.845 252.78C180.845 257.16 182.085 258.96 184.425 258.96 186.765 258.96 188.005 257.16 188.005 252.78 188.005 248.4 186.765 246.6 184.425 246.6 182.085 246.6 180.845 248.4 180.845 252.78zM201.035 246.2L200.415 247.42C199.755 246.9 199.075 246.6 197.955 246.6 195.675 246.6 193.555 248.48 193.515 252.64 194.395 251.72 195.475 250.92 197.475 250.92 199.635 250.92 201.815 252.44 201.815 255.56 201.815 258.64 199.555 260.2 197.155 260.2 194.155 260.2 191.995 258.44 191.995 253.52 191.995 248.96 194.035 245.36 197.915 245.36 199.475 245.36 200.615 245.8 201.035 246.2zM200.295 255.6C200.295 253.36 198.795 252.16 197.275 252.16 195.515 252.16 193.675 253.6 193.555 255.24 193.635 257.28 194.955 258.96 197.035 258.96 199.075 258.96 200.295 257.56 200.295 255.6zM214.585 256.6L212.105 256.6 212.105 260 210.665 260 210.665 256.6 204.025 256.6 204.025 255.36 209.985 245.56 212.105 245.56 212.105 255.36 214.585 255.36 214.585 256.6zM210.605 247.08L205.545 255.36 210.665 255.36 210.665 247.08 210.605 247.08zM227.055 256.6L224.575 256.6 224.575 260 223.135 260 223.135 256.6 216.495 256.6 216.495 255.36 222.455 245.56 224.575 245.56 224.575 255.36 227.055 255.36 227.055 256.6zM223.075 247.08L218.015 255.36 223.135 255.36 223.135 247.08 223.075 247.08z"/>
  </g>
</svg>
