<svg xmlns="http://www.w3.org/2000/svg" width="607" height="241" viewBox="0 0 607 241">
  <g fill="none" fill-rule="evenodd" transform="translate(0 -7)">
    <path fill="#8B949B" d="M9.47265625,18.015625 L3.01757812,18.015625 L1.55273438,22 L0.29296875,22 L5.67382812,7.78125 L6.81640625,7.78125 L12.1972656,22 L10.9472656,22 L9.47265625,18.015625 Z M3.38867188,16.9902344 L9.09179688,16.9902344 L6.24023438,9.24609375 L3.38867188,16.9902344 Z M17.5306919,20.3886719 L20.7435825,11.4335938 L21.9447544,11.4335938 L17.9994419,22 L17.0521763,22 L13.0873325,11.4335938 L14.2885044,11.4335938 L17.5306919,20.3886719 Z M28.5379463,22.1953125 C27.8478387,22.1953125 27.2130794,22.0667331 26.6336495,21.8095703 C26.0542195,21.5524076 25.55455,21.1943382 25.134626,20.7353516 C24.7147021,20.2763649 24.3875569,19.7311229 24.1531807,19.0996094 C23.9188045,18.4680958 23.8016182,17.7747434 23.8016182,17.0195312 L23.8016182,16.5996094 C23.8016182,15.7858032 23.9236873,15.0485059 24.1678292,14.3876953 C24.411971,13.7268847 24.7423713,13.1637393 25.1590401,12.6982422 C25.5757088,12.2327451 26.0558473,11.8730481 26.5994698,11.6191406 C27.1430923,11.3652331 27.7176308,11.2382812 28.3231026,11.2382812 C28.9936789,11.2382812 29.589376,11.3587228 30.110212,11.5996094 C30.6310479,11.840496 31.068869,12.1757791 31.4236885,12.6054688 C31.778508,13.0351584 32.04706,13.546221 32.2293526,14.1386719 C32.4116452,14.7311228 32.5027901,15.3789027 32.5027901,16.0820312 L32.5027901,16.7949219 L24.9637276,16.7949219 L24.9637276,17.0195312 C24.9637276,17.5989612 25.0516173,18.1442032 25.2273995,18.6552734 C25.4031816,19.1663437 25.650575,19.6106752 25.969587,19.9882812 C26.288599,20.3658873 26.6694545,20.6637359 27.1121651,20.8818359 C27.5548756,21.099936 28.0464072,21.2089844 28.5867745,21.2089844 C29.2117776,21.2089844 29.7635299,21.0950532 30.2420479,20.8671875 C30.7205659,20.6393218 31.1551319,20.2747421 31.5457588,19.7734375 L32.2781807,20.3300781 C32.1023986,20.5839856 31.8989501,20.8248687 31.6678292,21.0527344 C31.4367082,21.2806001 31.1681562,21.4791658 30.8621651,21.6484375 C30.556174,21.8177092 30.2111253,21.9511714 29.8270088,22.0488281 C29.4428923,22.1464849 29.0132091,22.1953125 28.5379463,22.1953125 Z M28.3231026,12.234375 C27.880392,12.234375 27.4702399,12.3190096 27.0926338,12.4882812 C26.7150278,12.6575529 26.3813723,12.8984359 26.0916573,13.2109375 C25.8019423,13.5234391 25.5643145,13.8994119 25.3787667,14.3388672 C25.1932189,14.7783225 25.0678946,15.2649713 25.0027901,15.7988281 L31.3406807,15.7988281 L31.3406807,15.671875 C31.3276598,15.2291645 31.256046,14.8011088 31.125837,14.3876953 C30.995628,13.9742818 30.8052002,13.6080745 30.5545479,13.2890625 C30.3038956,12.9700505 29.9930263,12.7145192 29.6219307,12.5224609 C29.2508351,12.3304027 28.8178967,12.234375 28.3231026,12.234375 Z M36.6057476,11.4335938 L36.6448101,13.2402344 C36.8271027,12.9407537 37.0370616,12.6673189 37.274693,12.4199219 C37.5123243,12.1725248 37.7776212,11.9609384 38.0705914,11.7851562 C38.3635616,11.6093741 38.6793137,11.4742843 39.017857,11.3798828 C39.3564004,11.2854813 39.7144697,11.2382812 40.0920758,11.2382812 C40.6194222,11.2382812 41.0914226,11.3098951 41.5080914,11.453125 C41.9247601,11.5963549 42.2779467,11.8242172 42.5676617,12.1367188 C42.8573767,12.4492203 43.0787286,12.8512345 43.2317242,13.3427734 C43.3847198,13.8343124 43.4612164,14.4283819 43.4612164,15.125 L43.4612164,22 L42.299107,22 L42.299107,15.1152344 C42.299107,14.5683566 42.2405139,14.112632 42.1233258,13.7480469 C42.0061377,13.3834617 41.8401237,13.0904959 41.6252789,12.8691406 C41.4104341,12.6477854 41.1483924,12.4899093 40.8391461,12.3955078 C40.5298997,12.3011063 40.1864787,12.2539062 39.8088726,12.2539062 C39.3922039,12.2539062 39.0146035,12.3238925 38.6760601,12.4638672 C38.3375168,12.6038418 38.0380406,12.7910145 37.7776226,13.0253906 C37.5172047,13.2597668 37.2925975,13.5283188 37.1037945,13.8310547 C36.9149915,14.1337906 36.7652534,14.4446599 36.6545758,14.7636719 L36.6545758,22 L35.4924664,22 L35.4924664,11.4335938 L36.6057476,11.4335938 Z M48.5016739,22 L47.3297989,22 L47.3297989,11.4335938 L48.5016739,11.4335938 L48.5016739,22 Z M47.1247208,8.37695312 C47.1247208,8.15559785 47.1963347,7.96842524 47.3395646,7.81542969 C47.4827944,7.66243413 47.678105,7.5859375 47.9255021,7.5859375 C48.1728991,7.5859375 48.3698373,7.66243413 48.5163224,7.81542969 C48.6628075,7.96842524 48.7360489,8.15559785 48.7360489,8.37695312 C48.7360489,8.5983084 48.6628075,8.78385342 48.5163224,8.93359375 C48.3698373,9.08333408 48.1728991,9.15820312 47.9255021,9.15820312 C47.678105,9.15820312 47.4827944,9.08333408 47.3395646,8.93359375 C47.1963347,8.78385342 47.1247208,8.5983084 47.1247208,8.37695312 Z M57.2726002,12.4296875 C57.0252032,12.3841144 56.7615339,12.3613281 56.4815846,12.3613281 C56.0844472,12.3613281 55.7263779,12.4199213 55.4073659,12.5371094 C55.0883538,12.6542975 54.8067811,12.8186838 54.5626393,13.0302734 C54.3184975,13.241863 54.1134214,13.4925116 53.9474049,13.7822266 C53.7813885,14.0719416 53.6495538,14.3925764 53.5518971,14.7441406 L53.5518971,22 L52.3897877,22 L52.3897877,11.4335938 L53.5323659,11.4335938 L53.5518971,13.1132812 C53.8383569,12.5338513 54.2273504,12.0764991 54.7188893,11.7412109 C55.2104282,11.4059228 55.8142633,11.2382812 56.5304127,11.2382812 C56.6736426,11.2382812 56.8201255,11.251302 56.9698659,11.2773438 C57.1196062,11.3033855 57.2302822,11.3326821 57.3018971,11.3652344 L57.2726002,12.4296875 Z M12.3828125,52 L11.1816406,52 L3.0078125,39.8320312 L3.0078125,52 L1.796875,52 L1.796875,37.78125 L3.0078125,37.78125 L11.1914062,49.9589844 L11.1914062,37.78125 L12.3828125,37.78125 L12.3828125,52 Z M20.5287388,52.1953125 C19.8386312,52.1953125 19.2038719,52.0667331 18.6244419,51.8095703 C18.0450119,51.5524076 17.5453425,51.1943382 17.1254185,50.7353516 C16.7054945,50.2763649 16.3783493,49.7311229 16.1439732,49.0996094 C15.909597,48.4680958 15.7924107,47.7747434 15.7924107,47.0195312 L15.7924107,46.5996094 C15.7924107,45.7858032 15.9144798,45.0485059 16.1586216,44.3876953 C16.4027635,43.7268847 16.7331638,43.1637393 17.1498325,42.6982422 C17.5665013,42.2327451 18.0466397,41.8730481 18.5902622,41.6191406 C19.1338847,41.3652331 19.7084233,41.2382812 20.313895,41.2382812 C20.9844713,41.2382812 21.5801685,41.3587228 22.1010044,41.5996094 C22.6218404,41.840496 23.0596615,42.1757791 23.414481,42.6054688 C23.7693005,43.0351584 24.0378525,43.546221 24.220145,44.1386719 C24.4024376,44.7311228 24.4935825,45.3789027 24.4935825,46.0820312 L24.4935825,46.7949219 L16.95452,46.7949219 L16.95452,47.0195312 C16.95452,47.5989612 17.0424098,48.1442032 17.2181919,48.6552734 C17.3939741,49.1663437 17.6413674,49.6106752 17.9603794,49.9882812 C18.2793914,50.3658873 18.660247,50.6637359 19.1029575,50.8818359 C19.5456681,51.099936 20.0371996,51.2089844 20.5775669,51.2089844 C21.20257,51.2089844 21.7543223,51.0950532 22.2328404,50.8671875 C22.7113584,50.6393218 23.1459243,50.2747421 23.5365513,49.7734375 L24.2689732,50.3300781 C24.093191,50.5839856 23.8897426,50.8248687 23.6586216,51.0527344 C23.4275007,51.2806001 23.1589487,51.4791658 22.8529575,51.6484375 C22.5469664,51.8177092 22.2019178,51.9511714 21.8178013,52.0488281 C21.4336848,52.1464849 21.0040016,52.1953125 20.5287388,52.1953125 Z M20.313895,42.234375 C19.8711845,42.234375 19.4610324,42.3190096 19.0834263,42.4882812 C18.7058202,42.6575529 18.3721647,42.8984359 18.0824497,43.2109375 C17.7927347,43.5234391 17.5551069,43.8994119 17.3695591,44.3388672 C17.1840113,44.7783225 17.058687,45.2649713 16.9935825,45.7988281 L23.3314732,45.7988281 L23.3314732,45.671875 C23.3184523,45.2291645 23.2468384,44.8011088 23.1166294,44.3876953 C22.9864204,43.9742818 22.7959927,43.6080745 22.5453404,43.2890625 C22.2946881,42.9700505 21.9838188,42.7145192 21.6127232,42.5224609 C21.2416276,42.3304027 20.8086892,42.234375 20.313895,42.234375 Z M30.8035713,45.7207031 L33.6551338,41.4335938 L35.0418526,41.4335938 L31.4578682,46.6191406 L35.1981026,52 L33.8211495,52 L30.813337,47.5273438 L27.8055245,52 L26.4285713,52 L30.1590401,46.6191406 L26.5750557,41.4335938 L27.9520088,41.4335938 L30.8035713,45.7207031 Z M39.7405133,38.7285156 L39.7405133,41.4335938 L41.9280133,41.4335938 L41.9280133,42.390625 L39.7405133,42.390625 L39.7405133,49.4316406 C39.7405133,49.8027362 39.7779478,50.1005848 39.852818,50.3251953 C39.9276881,50.5498058 40.0285986,50.7255853 40.1555523,50.8525391 C40.2825061,50.9794928 40.428989,51.0641274 40.5950055,51.1064453 C40.7610219,51.1487632 40.9351738,51.1699219 41.1174664,51.1699219 C41.2932485,51.1699219 41.4625177,51.1585288 41.6252789,51.1357422 C41.7880401,51.1129556 41.934523,51.091797 42.064732,51.0722656 L42.1135601,52.0292969 C41.9703303,52.0813805 41.7831576,52.1220702 41.5520367,52.1513672 C41.3209158,52.1806642 41.0914259,52.1953125 40.8635601,52.1953125 C40.5315272,52.1953125 40.2239131,52.1513676 39.9407086,52.0634766 C39.657504,51.9755855 39.4149934,51.8242198 39.2131695,51.609375 C39.0113456,51.3945302 38.8534696,51.1097023 38.7395367,50.7548828 C38.6256038,50.4000633 38.5686383,49.958987 38.5686383,49.4316406 L38.5686383,42.390625 L36.6252789,42.390625 L36.6252789,41.4335938 L38.5686383,41.4335938 L38.5686383,38.7285156 L39.7405133,38.7285156 Z"/>
    <path fill="#222" d="M10.68 216L1.2 216 37.92 131.04 46.32 131.04 82.8 216 73.2 216 63.84 193.68 19.92 193.68 10.68 216zM23.16 185.76L60.6 185.76 41.88 140.64 23.16 185.76zM135.2 179.76C135.2 174.879976 133.920013 171.240012 131.36 168.84 128.799987 166.439988 125.080024 165.24 120.2 165.24 116.839983 165.24 113.720014 165.839994 110.84 167.04 107.959986 168.240006 105.52001 169.83999 103.52 171.84L98.96 166.44C101.280012 164.119988 104.339981 162.200008 108.14 160.68 111.940019 159.159992 116.239976 158.4 121.04 158.4 124.080015 158.4 126.919987 158.819996 129.56 159.66 132.200013 160.500004 134.51999 161.759992 136.52 163.44 138.52001 165.120008 140.079994 167.239987 141.2 169.8 142.320006 172.360013 142.88 175.359983 142.88 178.8L142.88 203.4C142.88 205.560011 142.959999 207.799988 143.12 210.12 143.280001 212.440012 143.519998 214.399992 143.84 216L136.52 216C136.279999 214.639993 136.080001 213.160008 135.92 211.56 135.759999 209.959992 135.68 208.400008 135.68 206.88L135.44 206.88C132.879987 210.640019 129.980016 213.339992 126.74 214.98 123.499984 216.620008 119.600023 217.44 115.04 217.44 112.879989 217.44 110.660011 217.140003 108.38 216.54 106.099989 215.939997 104.020009 214.960007 102.14 213.6 100.259991 212.239993 98.7000062 210.480011 97.46 208.32 96.2199938 206.159989 95.6 203.520016 95.6 200.4 95.6 196.079978 96.699989 192.660013 98.9 190.14 101.100011 187.619987 104.039982 185.740006 107.72 184.5 111.400018 183.259994 115.619976 182.460002 120.38 182.1 125.140024 181.739998 130.079974 181.56 135.2 181.56L135.2 179.76zM132.8 187.92C129.439983 187.92 126.060017 188.059999 122.66 188.34 119.259983 188.620001 116.180014 189.179996 113.42 190.02 110.659986 190.860004 108.400009 192.079992 106.64 193.68 104.879991 195.280008 104 197.399987 104 200.04 104 202.04001 104.379996 203.719993 105.14 205.08 105.900004 206.440007 106.919994 207.539996 108.2 208.38 109.480006 209.220004 110.899992 209.819998 112.46 210.18 114.020008 210.540002 115.599992 210.72 117.2 210.72 120.080014 210.72 122.639989 210.220005 124.88 209.22 127.120011 208.219995 128.999992 206.860009 130.52 205.14 132.040008 203.419991 133.199996 201.440011 134 199.2 134.800004 196.959989 135.2 194.600012 135.2 192.12L135.2 187.92 132.8 187.92zM251.204 44L248.36 44 259.376 18.512 261.896 18.512 272.84 44 269.96 44 267.152 37.304 253.976 37.304 251.204 44zM254.948 34.928L266.18 34.928 260.564 21.392 254.948 34.928zM287.06 33.128C287.06 31.6639927 286.676004 30.5720036 285.908 29.852 285.139996 29.1319964 284.024007 28.772 282.56 28.772 281.551995 28.772 280.616004 28.9519982 279.752 29.312 278.887996 29.6720018 278.156003 30.151997 277.556 30.752L276.188 29.132C276.884003 28.4359965 277.801994 27.8600023 278.942 27.404 280.082006 26.9479977 281.371993 26.72 282.812 26.72 283.724005 26.72 284.575996 26.8459987 285.368 27.098 286.160004 27.3500013 286.855997 27.7279975 287.456 28.232 288.056003 28.7360025 288.523998 29.3719962 288.86 30.14 289.196002 30.9080038 289.364 31.8079948 289.364 32.84L289.364 40.22C289.364 40.8680032 289.388 41.5399965 289.436 42.236 289.484 42.9320035 289.556 43.5199976 289.652 44L287.456 44C287.384 43.591998 287.324 43.1480024 287.276 42.668 287.228 42.1879976 287.204 41.7200023 287.204 41.264L287.132 41.264C286.363996 42.3920056 285.494005 43.2019975 284.522 43.694 283.549995 44.1860025 282.380007 44.432 281.012 44.432 280.363997 44.432 279.698003 44.3420009 279.014 44.162 278.329997 43.9819991 277.706003 43.688002 277.142 43.28 276.577997 42.871998 276.110002 42.3440032 275.738 41.696 275.365998 41.0479968 275.18 40.2560047 275.18 39.32 275.18 38.0239935 275.509997 36.9980038 276.17 36.242 276.830003 35.4859962 277.711994 34.9220019 278.816 34.55 279.920006 34.1779981 281.185993 33.9380005 282.614 33.83 284.042007 33.7219995 285.523992 33.668 287.06 33.668L287.06 33.128zM286.34 35.576C285.331995 35.576 284.318005 35.6179996 283.298 35.702 282.277995 35.7860004 281.354004 35.9539987 280.526 36.206 279.697996 36.4580013 279.020003 36.8239976 278.492 37.304 277.963997 37.7840024 277.7 38.419996 277.7 39.212 277.7 39.812003 277.813999 40.315998 278.042 40.724 278.270001 41.132002 278.575998 41.4619987 278.96 41.714 279.344002 41.9660013 279.769998 42.1459995 280.238 42.254 280.706002 42.3620005 281.179998 42.416 281.66 42.416 282.524004 42.416 283.291997 42.2660015 283.964 41.966 284.636003 41.6659985 285.199998 41.2580026 285.656 40.742 286.112002 40.2259974 286.459999 39.6320034 286.7 38.96 286.940001 38.2879966 287.06 37.5800037 287.06 36.836L287.06 35.576 286.34 35.576zM304.808 18.512L312.404 18.512C313.364005 18.512 314.335995 18.613999 315.32 18.818 316.304005 19.022001 317.185996 19.3699975 317.966 19.862 318.746004 20.3540025 319.381998 21.0199958 319.874 21.86 320.366002 22.7000042 320.612 23.7559936 320.612 25.028 320.612 26.3720067 320.204004 27.541995 319.388 28.538 318.571996 29.534005 317.480007 30.1879984 316.112 30.5L316.112 30.572C317.768008 30.764001 319.141995 31.4059945 320.234 32.498 321.326005 33.5900055 321.872 35.0719906 321.872 36.944 321.872 38.0000053 321.650002 38.9659956 321.206 39.842 320.761998 40.7180044 320.132004 41.4619969 319.316 42.074 318.499996 42.6860031 317.504006 43.1599983 316.328 43.496 315.151994 43.8320017 313.832007 44 312.368 44L304.808 44 304.808 18.512zM307.4 29.672L312.62 29.672C313.244003 29.672 313.873997 29.6000007 314.51 29.456 315.146003 29.3119993 315.727997 29.0660017 316.256 28.718 316.784003 28.3699983 317.209998 27.9080029 317.534 27.332 317.858002 26.7559971 318.02 26.0480042 318.02 25.208 318.02 24.3919959 317.858002 23.7020028 317.534 23.138 317.209998 22.5739972 316.772003 22.1120018 316.22 21.752 315.667997 21.3919982 315.020004 21.1340008 314.276 20.978 313.531996 20.8219992 312.740004 20.744 311.9 20.744L307.4 20.744 307.4 29.672zM307.4 41.768L312.224 41.768C313.160005 41.768 314.053996 41.6780009 314.906 41.498 315.758004 41.3179991 316.501997 41.030002 317.138 40.634 317.774003 40.237998 318.283998 39.7220032 318.668 39.086 319.052002 38.4499968 319.244 37.6880044 319.244 36.8 319.244 35.1199916 318.674006 33.8660041 317.534 33.038 316.393994 32.2099959 314.78001 31.796 312.692 31.796L307.4 31.796 307.4 41.768zM330.08 41.156L330.08 44 327.632 44 327.632 16.784 330.08 16.784 330.08 30.068 330.152 30.068C330.872004 28.9639945 331.807994 28.1300028 332.96 27.566 334.112006 27.0019972 335.299994 26.72 336.524 26.72 337.844007 26.72 339.037995 26.9479977 340.106 27.404 341.174005 27.8600023 342.085996 28.483996 342.842 29.276 343.598004 30.068004 344.185998 31.0039946 344.606 32.084 345.026002 33.1640054 345.236 34.3279938 345.236 35.576 345.236 36.8240062 345.026002 37.9879946 344.606 39.068 344.185998 40.1480054 343.598004 41.083996 342.842 41.876 342.085996 42.668004 341.174005 43.2919977 340.106 43.748 339.037995 44.2040023 337.844007 44.432 336.524 44.432 335.299994 44.432 334.112006 44.1560028 332.96 43.604 331.807994 43.0519972 330.872004 42.2360054 330.152 41.156L330.08 41.156zM342.644 35.576C342.644 34.6399953 342.500001 33.7580041 342.212 32.93 341.923999 32.1019959 341.510003 31.3820031 340.97 30.77 340.429997 30.1579969 339.764004 29.6720018 338.972 29.312 338.179996 28.9519982 337.280005 28.772 336.272 28.772 335.335995 28.772 334.472004 28.9459983 333.68 29.294 332.887996 29.6420017 332.204003 30.1219969 331.628 30.734 331.051997 31.3460031 330.602002 32.0659959 330.278 32.894 329.953998 33.7220041 329.792 34.6159952 329.792 35.576 329.792 36.5360048 329.953998 37.4299959 330.278 38.258 330.602002 39.0860041 331.051997 39.799997 331.628 40.4 332.204003 41.000003 332.887996 41.4739983 333.68 41.822 334.472004 42.1700017 335.335995 42.344 336.272 42.344 337.280005 42.344 338.179996 42.1700017 338.972 41.822 339.764004 41.4739983 340.429997 40.9940031 340.97 40.382 341.510003 39.7699969 341.923999 39.0500041 342.212 38.222 342.500001 37.3939959 342.644 36.5120047 342.644 35.576zM381.092 39.896C380.659998 40.5440032 380.138003 41.1559971 379.526 41.732 378.913997 42.3080029 378.206004 42.8119978 377.402 43.244 376.597996 43.6760022 375.710005 44.0179987 374.738 44.27 373.765995 44.5220013 372.704006 44.648 371.552 44.648 369.63199 44.648 367.856008 44.3120034 366.224 43.64 364.591992 42.9679966 363.188006 42.0380059 362.012 40.85 360.835994 39.6619941 359.918003 38.2520082 359.258 36.62 358.597997 34.9879918 358.268 33.2000097 358.268 31.256 358.268 29.3119903 358.603997 27.5240082 359.276 25.892 359.948003 24.2599918 360.877994 22.8500059 362.066 21.662 363.254006 20.4739941 364.657992 19.5440034 366.278 18.872 367.898008 18.1999966 369.655991 17.864 371.552 17.864 372.488005 17.864 373.405996 17.959999 374.306 18.152 375.206005 18.344001 376.051996 18.6139983 376.844 18.962 377.636004 19.3100017 378.355997 19.7299975 379.004 20.222 379.652003 20.7140025 380.191998 21.2719969 380.624 21.896L378.464 23.48C378.199999 23.071998 377.846002 22.664002 377.402 22.256 376.957998 21.847998 376.436003 21.4880016 375.836 21.176 375.235997 20.8639984 374.582004 20.612001 373.874 20.42 373.165996 20.227999 372.404004 20.132 371.588 20.132 369.931992 20.132 368.450007 20.431997 367.142 21.032 365.833993 21.632003 364.724005 22.4419949 363.812 23.462 362.899995 24.4820051 362.204002 25.6639933 361.724 27.008 361.243998 28.3520067 361.004 29.7679926 361.004 31.256 361.004 32.7440074 361.249998 34.1599933 361.742 35.504 362.234002 36.8480067 362.935995 38.0299949 363.848 39.05 364.760005 40.0700051 365.869993 40.879997 367.178 41.48 368.486007 42.080003 369.955992 42.38 371.588 42.38 373.052007 42.38 374.443993 42.080003 375.764 41.48 377.084007 40.879997 378.187996 39.9200066 379.076 38.6L381.092 39.896zM397.544 31.004C397.135998 30.3559968 396.542004 29.8220021 395.762 29.402 394.981996 28.9819979 394.136005 28.772 393.224 28.772 392.239995 28.772 391.352004 28.9459983 390.56 29.294 389.767996 29.6420017 389.090003 30.1219969 388.526 30.734 387.961997 31.3460031 387.530002 32.0659959 387.23 32.894 386.929999 33.7220041 386.78 34.6159952 386.78 35.576 386.78 36.5360048 386.929999 37.4239959 387.23 38.24 387.530002 39.0560041 387.955997 39.7699969 388.508 40.382 389.060003 40.9940031 389.731996 41.4739983 390.524 41.822 391.316004 42.1700017 392.203995 42.344 393.188 42.344 394.268005 42.344 395.179996 42.140002 395.924 41.732 396.668004 41.323998 397.279998 40.7960032 397.76 40.148L399.596 41.516C398.875996 42.4040044 397.994005 43.1119974 396.95 43.64 395.905995 44.1680026 394.652007 44.432 393.188 44.432 391.819993 44.432 390.584006 44.2100022 389.48 43.766 388.375994 43.3219978 387.434004 42.704004 386.654 41.912 385.873996 41.119996 385.268002 40.1840054 384.836 39.104 384.403998 38.0239946 384.188 36.8480064 384.188 35.576 384.188 34.3039936 384.403998 33.1280054 384.836 32.048 385.268002 30.9679946 385.873996 30.032004 386.654 29.24 387.434004 28.447996 388.375994 27.8300022 389.48 27.386 390.584006 26.9419978 391.819993 26.72 393.188 26.72 394.316006 26.72 395.461994 26.9659975 396.626 27.458 397.790006 27.9500025 398.731996 28.6759952 399.452 29.636L397.544 31.004zM412.556 18.512L421.016 18.512C422.600008 18.512 424.189992 18.7759974 425.786 19.304 427.382008 19.8320026 428.821994 20.6299947 430.106 21.698 431.390006 22.7660053 432.427996 24.097992 433.22 25.694 434.012004 27.290008 434.408 29.1439894 434.408 31.256 434.408 33.3920107 434.012004 35.2519921 433.22 36.836 432.427996 38.4200079 431.390006 39.7459947 430.106 40.814 428.821994 41.8820053 427.382008 42.6799974 425.786 43.208 424.189992 43.7360026 422.600008 44 421.016 44L412.556 44 412.556 18.512zM415.148 41.696L420.296 41.696C422.21601 41.696 423.889993 41.396003 425.318 40.796 426.746007 40.195997 427.927995 39.4100049 428.864 38.438 429.800005 37.4659951 430.501998 36.3560062 430.97 35.108 431.438002 33.8599938 431.672 32.5760066 431.672 31.256 431.672 29.9359934 431.438002 28.6520062 430.97 27.404 430.501998 26.1559938 429.800005 25.0460049 428.864 24.074 427.927995 23.1019951 426.746007 22.316003 425.318 21.716 423.889993 21.115997 422.21601 20.816 420.296 20.816L415.148 20.816 415.148 41.696zM453.524 41.156C452.803996 42.2360054 451.868006 43.0519972 450.716 43.604 449.563994 44.1560028 448.376006 44.432 447.152 44.432 445.831993 44.432 444.638005 44.2040023 443.57 43.748 442.501995 43.2919977 441.590004 42.668004 440.834 41.876 440.077996 41.083996 439.490002 40.1480054 439.07 39.068 438.649998 37.9879946 438.44 36.8240062 438.44 35.576 438.44 34.3279938 438.649998 33.1640054 439.07 32.084 439.490002 31.0039946 440.077996 30.068004 440.834 29.276 441.590004 28.483996 442.501995 27.8600023 443.57 27.404 444.638005 26.9479977 445.831993 26.72 447.152 26.72 448.376006 26.72 449.563994 27.0019972 450.716 27.566 451.868006 28.1300028 452.803996 28.9639945 453.524 30.068L453.596 30.068 453.596 16.784 456.044 16.784 456.044 44 453.596 44 453.596 41.156 453.524 41.156zM441.032 35.576C441.032 36.5120047 441.175999 37.3939959 441.464 38.222 441.752001 39.0500041 442.165997 39.7699969 442.706 40.382 443.246003 40.9940031 443.911996 41.4739983 444.704 41.822 445.496004 42.1700017 446.395995 42.344 447.404 42.344 448.340005 42.344 449.203996 42.1700017 449.996 41.822 450.788004 41.4739983 451.471997 41.000003 452.048 40.4 452.624003 39.799997 453.073998 39.0860041 453.398 38.258 453.722002 37.4299959 453.884 36.5360048 453.884 35.576 453.884 34.6159952 453.722002 33.7220041 453.398 32.894 453.073998 32.0659959 452.624003 31.3460031 452.048 30.734 451.471997 30.1219969 450.788004 29.6420017 449.996 29.294 449.203996 28.9459983 448.340005 28.772 447.404 28.772 446.395995 28.772 445.496004 28.9519982 444.704 29.312 443.911996 29.6720018 443.246003 30.1579969 442.706 30.77 442.165997 31.3820031 441.752001 32.1019959 441.464 32.93 441.175999 33.7580041 441.032 34.6399953 441.032 35.576zM474.332 41.696L487.976 41.696 487.976 44 471.74 44 471.74 18.512 487.544 18.512 487.544 20.816 474.332 20.816 474.332 29.6 486.68 29.6 486.68 31.868 474.332 31.868 474.332 41.696zM505.76 34.28C505.688 32.6959921 505.178005 31.3820052 504.23 30.338 503.281995 29.2939948 501.932009 28.772 500.18 28.772 499.363996 28.772 498.608003 28.9219985 497.912 29.222 497.215997 29.5220015 496.604003 29.9299974 496.076 30.446 495.547997 30.9620026 495.128002 31.5499967 494.816 32.21 494.503998 32.8700033 494.324 33.5599964 494.276 34.28L505.76 34.28zM508.244 35.072L508.244 35.612C508.244 35.804001 508.232 36.0079989 508.208 36.224L494.24 36.224C494.264 37.0640042 494.431998 37.8559963 494.744 38.6 495.056002 39.3440037 495.487997 39.9919972 496.04 40.544 496.592003 41.0960028 497.239996 41.5339984 497.984 41.858 498.728004 42.1820016 499.531996 42.344 500.396 42.344 501.668006 42.344 502.765995 42.0500029 503.69 41.462 504.614005 40.8739971 505.315998 40.1960038 505.796 39.428L507.632 40.868C506.623995 42.1400064 505.514006 43.0519972 504.302 43.604 503.089994 44.1560028 501.788007 44.432 500.396 44.432 499.147994 44.432 497.990005 44.2100022 496.922 43.766 495.853995 43.3219978 494.936004 42.704004 494.168 41.912 493.399996 41.119996 492.794002 40.1840054 492.35 39.104 491.905998 38.0239946 491.684 36.8480064 491.684 35.576 491.684 34.3039936 491.899998 33.1280054 492.332 32.048 492.764002 30.9679946 493.363996 30.032004 494.132 29.24 494.900004 28.447996 495.799995 27.8300022 496.832 27.386 497.864005 26.9419978 498.979994 26.72 500.18 26.72 501.500007 26.72 502.663995 26.9419978 503.672 27.386 504.680005 27.8300022 505.519997 28.4299962 506.192 29.186 506.864003 29.9420038 507.373998 30.823995 507.722 31.832 508.070002 32.840005 508.244 33.9199942 508.244 35.072zM525.236 44L522.644 44 522.644 18.512 538.016 18.512 538.016 20.816 525.236 20.816 525.236 29.672 537.116 29.672 537.116 31.94 525.236 31.94 525.236 44zM549.86 29.204L545.9 29.204 545.9 44 543.452 44 543.452 29.204 539.924 29.204 539.924 27.152 543.452 27.152 543.452 22.544C543.452 20.6239904 543.919995 19.1120055 544.856 18.008 545.792005 16.9039945 547.23199 16.352 549.176 16.352 549.488002 16.352 549.823998 16.3699998 550.184 16.406 550.544002 16.4420002 550.879998 16.5079995 551.192 16.604L550.76 18.764C550.495999 18.6919996 550.232001 18.6320002 549.968 18.584 549.703999 18.5359998 549.404002 18.512 549.068 18.512 548.419997 18.512 547.886002 18.6199989 547.466 18.836 547.045998 19.0520011 546.722001 19.357998 546.494 19.754 546.265999 20.150002 546.11 20.6119974 546.026 21.14 545.942 21.6680026 545.9 22.231997 545.9 22.832L545.9 27.152 549.86 27.152 549.86 29.204zM581.828 23.084C580.939996 22.1479953 579.884006 21.4220026 578.66 20.906 577.435994 20.3899974 576.032008 20.132 574.448 20.132 572.815992 20.132 571.346007 20.431997 570.038 21.032 568.729993 21.632003 567.620005 22.4419949 566.708 23.462 565.795995 24.4820051 565.094002 25.6639933 564.602 27.008 564.109998 28.3520067 563.864 29.7679926 563.864 31.256 563.864 32.7440074 564.109998 34.1599933 564.602 35.504 565.094002 36.8480067 565.795995 38.023995 566.708 39.032 567.620005 40.040005 568.729993 40.843997 570.038 41.444 571.346007 42.044003 572.815992 42.344 574.448 42.344 575.888007 42.344 577.207994 42.1880016 578.408 41.876 579.608006 41.5639984 580.579996 41.1680024 581.324 40.688L581.324 32.948 575.384 32.948 575.384 30.68 583.916 30.68 583.916 42.164C582.523993 43.0040042 581.024008 43.627998 579.416 44.036 577.807992 44.444002 576.140009 44.648 574.412 44.648 572.49199 44.648 570.716008 44.3120034 569.084 43.64 567.451992 42.9679966 566.048006 42.0380059 564.872 40.85 563.695994 39.6619941 562.778003 38.2520082 562.118 36.62 561.457997 34.9879918 561.128 33.2000097 561.128 31.256 561.128 29.3119903 561.463997 27.5240082 562.136 25.892 562.808003 24.2599918 563.737994 22.8500059 564.926 21.662 566.114006 20.4739941 567.517992 19.5440034 569.138 18.872 570.758008 18.1999966 572.515991 17.864 574.412 17.864 576.45201 17.864 578.227992 18.163997 579.74 18.764 581.252008 19.364003 582.547995 20.2039946 583.628 21.284L581.828 23.084zM591.296 47.384C591.968003 48.2480043 592.885994 48.979997 594.05 49.58 595.214006 50.180003 596.443994 50.48 597.74 50.48 598.940006 50.48 599.959996 50.3060017 600.8 49.958 601.640004 49.6099983 602.317997 49.136003 602.834 48.536 603.350003 47.935997 603.727999 47.234004 603.968 46.43 604.208001 45.625996 604.328 44.7680046 604.328 43.856L604.328 40.688 604.256 40.688C603.607997 41.7440053 602.690006 42.5599971 601.502 43.136 600.313994 43.7120029 599.108006 44 597.884 44 596.563993 44 595.370005 43.7840022 594.302 43.352 593.233995 42.9199978 592.322004 42.3260038 591.566 41.57 590.809996 40.8139962 590.222002 39.9080053 589.802 38.852 589.381998 37.7959947 589.172 36.6560061 589.172 35.432 589.172 34.231994 589.381998 33.1040053 589.802 32.048 590.222002 30.9919947 590.809996 30.068004 591.566 29.276 592.322004 28.483996 593.233995 27.8600023 594.302 27.404 595.370005 26.9479977 596.563993 26.72 597.884 26.72 599.108006 26.72 600.307994 27.0079971 601.484 27.584 602.660006 28.1600029 603.583997 28.9879946 604.256 30.068L604.328 30.068 604.328 27.152 606.776 27.152 606.776 43.856C606.776 44.7680046 606.650001 45.7399948 606.398 46.772 606.145999 47.8040052 605.678003 48.7519957 604.994 49.616 604.309997 50.4800043 603.380006 51.1999971 602.204 51.776 601.027994 52.3520029 599.504009 52.64 597.632 52.64 596.071992 52.64 594.584007 52.340003 593.168 51.74 591.751993 51.139997 590.540005 50.3120053 589.532 49.256L591.296 47.384zM591.764 35.36C591.764 36.2480044 591.907999 37.087996 592.196 37.88 592.484001 38.672004 592.897997 39.367997 593.438 39.968 593.978003 40.568003 594.643996 41.0419983 595.436 41.39 596.228004 41.7380017 597.127995 41.912 598.136 41.912 599.072005 41.912 599.935996 41.7560016 600.728 41.444 601.520004 41.1319984 602.203997 40.6880029 602.78 40.112 603.356003 39.5359971 603.805998 38.846004 604.13 38.042 604.454002 37.237996 604.616 36.3440049 604.616 35.36 604.616 34.4719956 604.454002 33.632004 604.13 32.84 603.805998 32.047996 603.356003 31.352003 602.78 30.752 602.203997 30.151997 601.520004 29.6720018 600.728 29.312 599.935996 28.9519982 599.072005 28.772 598.136 28.772 597.127995 28.772 596.228004 28.9519982 595.436 29.312 594.643996 29.6720018 593.978003 30.151997 593.438 30.752 592.897997 31.352003 592.484001 32.047996 592.196 32.84 591.907999 33.632004 591.764 34.4719956 591.764 35.36zM251.384 83.512L253.976 83.512 253.976 94.564 267.872 94.564 267.872 83.512 270.464 83.512 270.464 109 267.872 109 267.872 96.94 253.976 96.94 253.976 109 251.384 109 251.384 83.512zM279.68 94.924C280.136002 93.9399951 280.891995 93.1600029 281.948 92.584 283.004005 92.0079971 284.131994 91.72 285.332 91.72 287.468011 91.72 289.069995 92.3559936 290.138 93.628 291.206005 94.9000064 291.74 96.5799896 291.74 98.668L291.74 109 289.292 109 289.292 99.676C289.292 98.7879956 289.220001 97.9840036 289.076 97.264 288.931999 96.5439964 288.686002 95.9260026 288.338 95.41 287.989998 94.8939974 287.522003 94.4920014 286.934 94.204 286.345997 93.9159986 285.608004 93.772 284.72 93.772 284.071997 93.772 283.442003 93.9039987 282.83 94.168 282.217997 94.4320013 281.672002 94.8339973 281.192 95.374 280.711998 95.9140027 280.328001 96.5979959 280.04 97.426 279.751999 98.2540041 279.608 99.2319944 279.608 100.36L279.608 109 277.16 109 277.16 81.784 279.608 81.784 279.608 94.924 279.68 94.924zM309.812 109L307.22 109 307.22 83.512 309.812 83.512 309.812 109zM318.92 109L316.472 109 316.472 92.152 318.92 92.152 318.92 109zM319.424 85.672C319.424 86.1760025 319.244002 86.5899984 318.884 86.914 318.523998 87.2380016 318.128002 87.4 317.696 87.4 317.263998 87.4 316.868002 87.2380016 316.508 86.914 316.147998 86.5899984 315.968 86.1760025 315.968 85.672 315.968 85.1679975 316.147998 84.7540016 316.508 84.43 316.868002 84.1059984 317.263998 83.944 317.696 83.944 318.128002 83.944 318.523998 84.1059984 318.884 84.43 319.244002 84.7540016 319.424 85.1679975 319.424 85.672zM334.508 103.816C334.700001 104.824005 335.149996 105.669997 335.858 106.354 336.566004 107.038003 337.495994 107.38 338.648 107.38 339.536004 107.38 340.267997 107.218002 340.844 106.894 341.420003 106.569998 341.881998 106.132003 342.23 105.58 342.578002 105.027997 342.817999 104.398004 342.95 103.69 343.082001 102.981996 343.148 102.244004 343.148 101.476L343.148 83.512 345.74 83.512 345.74 101.656C345.74 102.496004 345.650001 103.383995 345.47 104.32 345.289999 105.256005 344.948003 106.119996 344.444 106.912 343.939997 107.704004 343.244004 108.357997 342.356 108.874 341.467996 109.390003 340.328007 109.648 338.936 109.648 337.087991 109.648 335.564006 109.162005 334.364 108.19 333.163994 107.217995 332.408002 105.976008 332.096 104.464L334.508 103.816zM348.296 115.336C348.536001 115.408 348.793999 115.462 349.07 115.498 349.346001 115.534 349.603999 115.552 349.844 115.552 350.348003 115.552 350.755998 115.462001 351.068 115.282 351.380002 115.101999 351.619999 114.856002 351.788 114.544 351.956001 114.231998 352.07 113.854002 352.13 113.41 352.19 112.965998 352.22 112.480003 352.22 111.952L352.22 92.152 354.668 92.152 354.668 112.348C354.668 113.020003 354.596001 113.673997 354.452 114.31 354.307999 114.946003 354.056002 115.509998 353.696 116.002 353.335998 116.494002 352.850003 116.889999 352.238 117.19 351.625997 117.490001 350.840005 117.64 349.88 117.64 349.615999 117.64 349.304002 117.622 348.944 117.586 348.583998 117.55 348.248002 117.484 347.936 117.388L348.296 115.336zM355.172 85.672C355.172 86.1760025 354.992002 86.5899984 354.632 86.914 354.271998 87.2380016 353.876002 87.4 353.444 87.4 353.011998 87.4 352.616002 87.2380016 352.256 86.914 351.895998 86.5899984 351.716 86.1760025 351.716 85.672 351.716 85.1679975 351.895998 84.7540016 352.256 84.43 352.616002 84.1059984 353.011998 83.944 353.444 83.944 353.876002 83.944 354.271998 84.1059984 354.632 84.43 354.992002 84.7540016 355.172 85.1679975 355.172 85.672zM372.92 94.96L372.956 94.96 385.088 83.512 388.796 83.512 375.944 95.068 389.516 109 385.7 109 372.956 95.428 372.92 95.428 372.92 109 370.328 109 370.328 83.512 372.92 83.512 372.92 94.96zM395.312 99.748L395.42 99.748 403.196 92.152 406.724 92.152 398.228 99.856 407.588 109 403.988 109 395.42 100.144 395.312 100.144 395.312 109 392.864 109 392.864 81.784 395.312 81.784 395.312 99.748zM422.888 106.696L434.768 106.696 434.768 109 420.296 109 420.296 83.512 422.888 83.512 422.888 106.696zM441.032 109L438.584 109 438.584 81.784 441.032 81.784 441.032 109zM469.328 104.608L469.364 104.608 477.896 83.512 481.856 83.512 481.856 109 479.264 109 479.264 86.86 479.192 86.86 469.976 109 468.608 109 459.392 86.86 459.32 86.86 459.32 109 456.728 109 456.728 83.512 460.688 83.512 469.328 104.608zM490.892 95.032C491.372002 94.0479951 492.109995 93.2500031 493.106 92.638 494.102005 92.0259969 495.211994 91.72 496.436 91.72 496.892002 91.72 497.365998 91.7679995 497.858 91.864 498.350002 91.9600005 498.829998 92.1459986 499.298 92.422 499.766002 92.6980014 500.197998 93.0639977 500.594 93.52 500.990002 93.9760023 501.331999 94.5639964 501.62 95.284 502.196003 94.1319942 502.981995 93.2500031 503.978 92.638 504.974005 92.0259969 506.155993 91.72 507.524 91.72 509.660011 91.72 511.261995 92.3559936 512.33 93.628 513.398005 94.9000064 513.932 96.5799896 513.932 98.668L513.932 109 511.484 109 511.484 99.676C511.484 97.8999911 511.154003 96.4720054 510.494 95.392 509.833997 94.3119946 508.712008 93.772 507.128 93.772 506.239996 93.772 505.490003 93.9519982 504.878 94.312 504.265997 94.6720018 503.774002 95.1459971 503.402 95.734 503.029998 96.3220029 502.760001 96.9879963 502.592 97.732 502.423999 98.4760037 502.34 99.243996 502.34 100.036L502.34 109 499.892 109 499.892 99.172C499.892 98.3559959 499.832001 97.6120034 499.712 96.94 499.591999 96.2679966 499.382002 95.6980023 499.082 95.23 498.781999 94.7619977 498.368003 94.4020013 497.84 94.15 497.311997 93.8979987 496.640004 93.772 495.824 93.772 495.247997 93.772 494.666003 93.9039987 494.078 94.168 493.489997 94.4320013 492.962002 94.8339973 492.494 95.374 492.025998 95.9140027 491.648001 96.5979959 491.36 97.426 491.071999 98.2540041 490.928 99.2319944 490.928 100.36L490.928 109 488.48 109 488.48 95.86C488.48 95.4039977 488.468 94.8160036 488.444 94.096 488.42 93.3759964 488.384 92.7280029 488.336 92.152L490.676 92.152C490.724 92.6080023 490.76 93.1119972 490.784 93.664 490.808 94.2160028 490.82 94.6719982 490.82 95.032L490.892 95.032zM547.484 105.22L547.556 105.22 547.556 83.512 550.148 83.512 550.148 109 546.908 109 532.076 87.076 532.004 87.076 532.004 109 529.412 109 529.412 83.512 532.652 83.512 547.484 105.22zM558.968 92.152C559.016 92.6080023 559.052 93.1119972 559.076 93.664 559.1 94.2160028 559.112 94.6719982 559.112 95.032L559.184 95.032C559.664002 94.0479951 560.443995 93.2500031 561.524 92.638 562.604005 92.0259969 563.743994 91.72 564.944 91.72 567.080011 91.72 568.681995 92.3559936 569.75 93.628 570.818005 94.9000064 571.352 96.5799896 571.352 98.668L571.352 109 568.904 109 568.904 99.676C568.904 98.7879956 568.832001 97.9840036 568.688 97.264 568.543999 96.5439964 568.298002 95.9260026 567.95 95.41 567.601998 94.8939974 567.134003 94.4920014 566.546 94.204 565.957997 93.9159986 565.220004 93.772 564.332 93.772 563.683997 93.772 563.054003 93.9039987 562.442 94.168 561.829997 94.4320013 561.284002 94.8339973 560.804 95.374 560.323998 95.9140027 559.940001 96.5979959 559.652 97.426 559.363999 98.2540041 559.22 99.2319944 559.22 100.36L559.22 109 556.772 109 556.772 95.86C556.772 95.4039977 556.76 94.8160036 556.736 94.096 556.712 93.3759964 556.676 92.7280029 556.628 92.152L558.968 92.152zM276.584 161.256C276.584 163.20001 276.248003 164.987992 275.576 166.62 274.903997 168.252008 273.974006 169.661994 272.786 170.85 271.597994 172.038006 270.194008 172.967997 268.574 173.64 266.953992 174.312003 265.196009 174.648 263.3 174.648 261.403991 174.648 259.646008 174.312003 258.026 173.64 256.405992 172.967997 255.002006 172.038006 253.814 170.85 252.625994 169.661994 251.696003 168.252008 251.024 166.62 250.351997 164.987992 250.016 163.20001 250.016 161.256 250.016 159.31199 250.351997 157.524008 251.024 155.892 251.696003 154.259992 252.625994 152.850006 253.814 151.662 255.002006 150.473994 256.405992 149.544003 258.026 148.872 259.646008 148.199997 261.403991 147.864 263.3 147.864 265.196009 147.864 266.953992 148.199997 268.574 148.872 270.194008 149.544003 271.597994 150.473994 272.786 151.662 273.974006 152.850006 274.903997 154.259992 275.576 155.892 276.248003 157.524008 276.584 159.31199 276.584 161.256zM273.848 161.256C273.848 159.767993 273.608002 158.352007 273.128 157.008 272.647998 155.663993 271.952005 154.482005 271.04 153.462 270.127995 152.441995 269.018007 151.632003 267.71 151.032 266.401993 150.431997 264.932008 150.132 263.3 150.132 261.667992 150.132 260.198007 150.431997 258.89 151.032 257.581993 151.632003 256.472005 152.441995 255.56 153.462 254.647995 154.482005 253.952002 155.663993 253.472 157.008 252.991998 158.352007 252.752 159.767993 252.752 161.256 252.752 162.744007 252.991998 164.159993 253.472 165.504 253.952002 166.848007 254.647995 168.023995 255.56 169.032 256.472005 170.040005 257.581993 170.843997 258.89 171.444 260.198007 172.044003 261.667992 172.344 263.3 172.344 264.932008 172.344 266.401993 172.044003 267.71 171.444 269.018007 170.843997 270.127995 170.040005 271.04 169.032 271.952005 168.023995 272.647998 166.848007 273.128 165.504 273.608002 164.159993 273.848 162.744007 273.848 161.256zM298.58 165.576C298.58 166.848006 298.358002 168.023995 297.914 169.104 297.469998 170.184005 296.852004 171.119996 296.06 171.912 295.267996 172.704004 294.320006 173.321998 293.216 173.766 292.111994 174.210002 290.900007 174.432 289.58 174.432 288.283994 174.432 287.084006 174.210002 285.98 173.766 284.875994 173.321998 283.928004 172.704004 283.136 171.912 282.343996 171.119996 281.726002 170.184005 281.282 169.104 280.837998 168.023995 280.616 166.848006 280.616 165.576 280.616 164.303994 280.837998 163.128005 281.282 162.048 281.726002 160.967995 282.343996 160.032004 283.136 159.24 283.928004 158.447996 284.875994 157.830002 285.98 157.386 287.084006 156.941998 288.283994 156.72 289.58 156.72 290.900007 156.72 292.111994 156.941998 293.216 157.386 294.320006 157.830002 295.267996 158.447996 296.06 159.24 296.852004 160.032004 297.469998 160.967995 297.914 162.048 298.358002 163.128005 298.58 164.303994 298.58 165.576zM295.988 165.576C295.988 164.639995 295.838002 163.758004 295.538 162.93 295.237999 162.101996 294.812003 161.382003 294.26 160.77 293.707997 160.157997 293.036004 159.672002 292.244 159.312 291.451996 158.951998 290.564005 158.772 289.58 158.772 288.595995 158.772 287.714004 158.951998 286.934 159.312 286.153996 159.672002 285.488003 160.157997 284.936 160.77 284.383997 161.382003 283.958002 162.101996 283.658 162.93 283.357999 163.758004 283.208 164.639995 283.208 165.576 283.208 166.512005 283.357999 167.393996 283.658 168.222 283.958002 169.050004 284.383997 169.769997 284.936 170.382 285.488003 170.994003 286.153996 171.473998 286.934 171.822 287.714004 172.170002 288.595995 172.344 289.58 172.344 290.564005 172.344 291.451996 172.170002 292.244 171.822 293.036004 171.473998 293.707997 170.994003 294.26 170.382 294.812003 169.769997 295.237999 169.050004 295.538 168.222 295.838002 167.393996 295.988 166.512005 295.988 165.576zM312.98 148.512L320.18 148.512C321.476006 148.512 322.651995 148.649999 323.708 148.926 324.764005 149.202001 325.669996 149.621997 326.426 150.186 327.182004 150.750003 327.763998 151.457996 328.172 152.31 328.580002 153.162004 328.784 154.163994 328.784 155.316 328.784 156.468006 328.574002 157.469996 328.154 158.322 327.733998 159.174004 327.146004 159.881997 326.39 160.446 325.633996 161.010003 324.722005 161.435999 323.654 161.724 322.585995 162.012001 321.404006 162.156 320.108 162.156L315.572 162.156 315.572 174 312.98 174 312.98 148.512zM315.572 159.96L319.964 159.96C322.00401 159.96 323.551995 159.564004 324.608 158.772 325.664005 157.979996 326.192 156.828008 326.192 155.316 326.192 153.731992 325.646005 152.574004 324.554 151.842 323.461995 151.109996 321.93201 150.744 319.964 150.744L315.572 150.744 315.572 159.96zM336.164 182.64L333.716 182.64 333.716 157.152 336.164 157.152 336.164 160.068 336.272 160.068C336.968003 158.963994 337.897994 158.130003 339.062 157.566 340.226006 157.001997 341.407994 156.72 342.608 156.72 343.928007 156.72 345.121995 156.947998 346.19 157.404 347.258005 157.860002 348.169996 158.483996 348.926 159.276 349.682004 160.068004 350.269998 161.003995 350.69 162.084 351.110002 163.164005 351.32 164.327994 351.32 165.576 351.32 166.824006 351.110002 167.987995 350.69 169.068 350.269998 170.148005 349.682004 171.083996 348.926 171.876 348.169996 172.668004 347.258005 173.291998 346.19 173.748 345.121995 174.204002 343.928007 174.432 342.608 174.432 341.407994 174.432 340.226006 174.150003 339.062 173.586 337.897994 173.021997 336.968003 172.212005 336.272 171.156L336.164 171.156 336.164 182.64zM348.728 165.576C348.728 164.639995 348.584001 163.758004 348.296 162.93 348.007999 162.101996 347.594003 161.382003 347.054 160.77 346.513997 160.157997 345.848004 159.672002 345.056 159.312 344.263996 158.951998 343.364005 158.772 342.356 158.772 341.419995 158.772 340.556004 158.945998 339.764 159.294 338.971996 159.642002 338.288003 160.121997 337.712 160.734 337.135997 161.346003 336.686002 162.065996 336.362 162.894 336.037998 163.722004 335.876 164.615995 335.876 165.576 335.876 166.536005 336.037998 167.429996 336.362 168.258 336.686002 169.086004 337.135997 169.799997 337.712 170.4 338.288003 171.000003 338.971996 171.473998 339.764 171.822 340.556004 172.170002 341.419995 172.344 342.356 172.344 343.364005 172.344 344.263996 172.170002 345.056 171.822 345.848004 171.473998 346.513997 170.994003 347.054 170.382 347.594003 169.769997 348.007999 169.050004 348.296 168.222 348.584001 167.393996 348.728 166.512005 348.728 165.576zM367.088 160.932C367.088 162.372007 367.321998 163.739994 367.79 165.036 368.258002 166.332006 368.923996 167.477995 369.788 168.474 370.652004 169.470005 371.713994 170.261997 372.974 170.85 374.234006 171.438003 375.655992 171.732 377.24 171.732 378.800008 171.732 380.209994 171.438003 381.47 170.85 382.730006 170.261997 383.797996 169.470005 384.674 168.474 385.550004 167.477995 386.227998 166.332006 386.708 165.036 387.188002 163.739994 387.428 162.372007 387.428 160.932 387.428 159.491993 387.188002 158.124006 386.708 156.828 386.227998 155.531994 385.550004 154.386005 384.674 153.39 383.797996 152.393995 382.730006 151.602003 381.47 151.014 380.209994 150.425997 378.800008 150.132 377.24 150.132 375.655992 150.132 374.234006 150.425997 372.974 151.014 371.713994 151.602003 370.652004 152.393995 369.788 153.39 368.923996 154.386005 368.258002 155.531994 367.79 156.828 367.321998 158.124006 367.088 159.491993 367.088 160.932zM391.82 174L377.24 174C375.391991 174 373.682008 173.676003 372.11 173.028 370.537992 172.379997 369.176006 171.474006 368.024 170.31 366.871994 169.145994 365.972003 167.766008 365.324 166.17 364.675997 164.573992 364.352 162.828009 364.352 160.932 364.352 159.035991 364.675997 157.290008 365.324 155.694 365.972003 154.097992 366.871994 152.718006 368.024 151.554 369.176006 150.389994 370.537992 149.484003 372.11 148.836 373.682008 148.187997 375.391991 147.864 377.24 147.864 379.064009 147.864 380.761992 148.187997 382.334 148.836 383.906008 149.484003 385.267994 150.389994 386.42 151.554 387.572006 152.718006 388.471997 154.097992 389.12 155.694 389.768003 157.290008 390.092 159.035991 390.092 160.932 390.092 163.188011 389.594005 165.245991 388.598 167.106 387.601995 168.966009 386.10801 170.471994 384.116 171.624L384.116 171.696 391.82 171.696 391.82 174zM409.748 171.156C409.051997 172.212005 408.122006 173.021997 406.958 173.586 405.793994 174.150003 404.612006 174.432 403.412 174.432 402.091993 174.432 400.898005 174.204002 399.83 173.748 398.761995 173.291998 397.850004 172.668004 397.094 171.876 396.337996 171.083996 395.750002 170.148005 395.33 169.068 394.909998 167.987995 394.7 166.824006 394.7 165.576 394.7 164.327994 394.909998 163.164005 395.33 162.084 395.750002 161.003995 396.337996 160.068004 397.094 159.276 397.850004 158.483996 398.761995 157.860002 399.83 157.404 400.898005 156.947998 402.091993 156.72 403.412 156.72 404.612006 156.72 405.793994 157.001997 406.958 157.566 408.122006 158.130003 409.051997 158.963994 409.748 160.068L409.856 160.068 409.856 157.152 412.304 157.152 412.304 182.64 409.856 182.64 409.856 171.156 409.748 171.156zM397.292 165.576C397.292 166.512005 397.435999 167.393996 397.724 168.222 398.012001 169.050004 398.425997 169.769997 398.966 170.382 399.506003 170.994003 400.171996 171.473998 400.964 171.822 401.756004 172.170002 402.655995 172.344 403.664 172.344 404.600005 172.344 405.463996 172.170002 406.256 171.822 407.048004 171.473998 407.731997 171.000003 408.308 170.4 408.884003 169.799997 409.333998 169.086004 409.658 168.258 409.982002 167.429996 410.144 166.536005 410.144 165.576 410.144 164.615995 409.982002 163.722004 409.658 162.894 409.333998 162.065996 408.884003 161.346003 408.308 160.734 407.731997 160.121997 407.048004 159.642002 406.256 159.294 405.463996 158.945998 404.600005 158.772 403.664 158.772 402.655995 158.772 401.756004 158.951998 400.964 159.312 400.171996 159.672002 399.506003 160.157997 398.966 160.77 398.425997 161.382003 398.012001 162.101996 397.724 162.93 397.435999 163.758004 397.292 164.639995 397.292 165.576zM430.52 174L427.928 174 427.928 148.512 435.416 148.512C436.664006 148.512 437.821995 148.631999 438.89 148.872 439.958005 149.112001 440.881996 149.501997 441.662 150.042 442.442004 150.582003 443.047998 151.283996 443.48 152.148 443.912002 153.012004 444.128 154.067994 444.128 155.316 444.128 156.252005 443.960002 157.103996 443.624 157.872 443.287998 158.640004 442.832003 159.305997 442.256 159.87 441.679997 160.434003 440.996004 160.883998 440.204 161.22 439.411996 161.556002 438.548005 161.772 437.612 161.868L445.064 174 441.896 174 434.84 162.084 430.52 162.084 430.52 174zM430.52 159.852L435.02 159.852C437.10801 159.852 438.715994 159.474004 439.844 158.718 440.972006 157.961996 441.536 156.828008 441.536 155.316 441.536 154.475996 441.380002 153.768003 441.068 153.192 440.755998 152.615997 440.324003 152.148002 439.772 151.788 439.219997 151.427998 438.548004 151.164001 437.756 150.996 436.963996 150.827999 436.088005 150.744 435.128 150.744L430.52 150.744 430.52 159.852zM449.348 160.86C449.348 160.403998 449.336 159.816004 449.312 159.096 449.288 158.375996 449.252 157.728003 449.204 157.152L451.544 157.152C451.592 157.608002 451.628 158.111997 451.652 158.664 451.676 159.216003 451.688 159.671998 451.688 160.032L451.76 160.032C452.240002 159.047995 452.959995 158.250003 453.92 157.638 454.880005 157.025997 455.959994 156.72 457.16 156.72 457.472002 156.72 457.753999 156.732 458.006 156.756 458.258001 156.78 458.515999 156.828 458.78 156.9L458.456 159.204C458.311999 159.156 458.072002 159.108 457.736 159.06 457.399998 159.012 457.064002 158.988 456.728 158.988 456.079997 158.988 455.456003 159.107999 454.856 159.348 454.255997 159.588001 453.734002 159.965997 453.29 160.482 452.845998 160.998003 452.486001 161.657996 452.21 162.462 451.933999 163.266004 451.796 164.231994 451.796 165.36L451.796 174 449.348 174 449.348 160.86zM483.8 152.616C483.247997 151.847996 482.540004 151.230002 481.676 150.762 480.811996 150.293998 479.768006 150.06 478.544 150.06 477.919997 150.06 477.284003 150.155999 476.636 150.348 475.987997 150.540001 475.400003 150.833998 474.872 151.23 474.343997 151.626002 473.918002 152.123997 473.594 152.724 473.269998 153.324003 473.108 154.031996 473.108 154.848 473.108 155.664004 473.263998 156.335997 473.576 156.864 473.888002 157.392003 474.301997 157.841998 474.818 158.214 475.334003 158.586002 475.921997 158.891999 476.582 159.132 477.242003 159.372001 477.931996 159.611999 478.652 159.852 479.540004 160.140001 480.433996 160.451998 481.334 160.788 482.234005 161.124002 483.043996 161.561997 483.764 162.102 484.484004 162.642003 485.071998 163.325996 485.528 164.154 485.984002 164.982004 486.212 166.031994 486.212 167.304 486.212 168.576006 485.966002 169.673995 485.474 170.598 484.981998 171.522005 484.346004 172.283997 483.566 172.884 482.785996 173.484003 481.898005 173.927999 480.902 174.216 479.905995 174.504001 478.904005 174.648 477.896 174.648 477.127996 174.648 476.360004 174.570001 475.592 174.414 474.823996 174.257999 474.092003 174.024002 473.396 173.712 472.699997 173.399998 472.052003 173.004002 471.452 172.524 470.851997 172.043998 470.324002 171.492003 469.868 170.868L472.1 169.212C472.652003 170.124005 473.425995 170.885997 474.422 171.498 475.418005 172.110003 476.587993 172.416 477.932 172.416 478.580003 172.416 479.239997 172.314001 479.912 172.11 480.584003 171.905999 481.189997 171.594002 481.73 171.174 482.270003 170.753998 482.713998 170.238003 483.062 169.626 483.410002 169.013997 483.584 168.300004 483.584 167.484 483.584 166.595996 483.410002 165.858003 483.062 165.27 482.713998 164.681997 482.252003 164.190002 481.676 163.794 481.099997 163.397998 480.440004 163.068001 479.696 162.804 478.951996 162.539999 478.172004 162.276001 477.356 162.012 476.515996 161.747999 475.688004 161.448002 474.872 161.112 474.055996 160.775998 473.324003 160.338003 472.676 159.798 472.027997 159.257997 471.506002 158.592004 471.11 157.8 470.713998 157.007996 470.516 156.036006 470.516 154.884 470.516 153.659994 470.761998 152.604004 471.254 151.716 471.746002 150.827996 472.387996 150.096003 473.18 149.52 473.972004 148.943997 474.847995 148.524001 475.808 148.26 476.768005 147.995999 477.715995 147.864 478.652 147.864 480.380009 147.864 481.855994 148.169997 483.08 148.782 484.304006 149.394003 485.227997 150.119996 485.852 150.96L483.8 152.616zM500.576 161.148C500.215998 160.451997 499.670004 159.882002 498.938 159.438 498.205996 158.993998 497.372005 158.772 496.436 158.772 496.003998 158.772 495.572002 158.82 495.14 158.916 494.707998 159.012 494.324002 159.167999 493.988 159.384 493.651998 159.600001 493.382001 159.875998 493.178 160.212 492.973999 160.548002 492.872 160.943998 492.872 161.4 492.872 162.192004 493.195997 162.797998 493.844 163.218 494.492003 163.638002 495.511993 163.991999 496.904 164.28 498.89601 164.688002 500.365995 165.281996 501.314 166.062 502.262005 166.842004 502.736 167.891993 502.736 169.212 502.736 170.172005 502.550002 170.981997 502.178 171.642 501.805998 172.302003 501.320003 172.841998 500.72 173.262 500.119997 173.682002 499.442004 173.981999 498.686 174.162 497.929996 174.342001 497.168004 174.432 496.4 174.432 495.127994 174.432 493.892006 174.168003 492.692 173.64 491.491994 173.111997 490.508004 172.284006 489.74 171.156L491.684 169.716C492.116002 170.460004 492.751996 171.083997 493.592 171.588 494.432004 172.092003 495.355995 172.344 496.364 172.344 496.892003 172.344 497.395998 172.296 497.876 172.2 498.356002 172.104 498.775998 171.936001 499.136 171.696 499.496002 171.455999 499.783999 171.150002 500 170.778 500.216001 170.405998 500.324 169.944003 500.324 169.392 500.324 168.503996 499.898004 167.838002 499.046 167.394 498.193996 166.949998 496.964008 166.536002 495.356 166.152 494.851997 166.031999 494.318003 165.882001 493.754 165.702 493.189997 165.521999 492.668002 165.258002 492.188 164.91 491.707998 164.561998 491.312002 164.124003 491 163.596 490.687998 163.067997 490.532 162.408004 490.532 161.616 490.532 160.751996 490.699998 160.014003 491.036 159.402 491.372002 158.789997 491.821997 158.286002 492.386 157.89 492.950003 157.493998 493.591996 157.200001 494.312 157.008 495.032004 156.815999 495.775996 156.72 496.544 156.72 497.720006 156.72 498.859994 156.983997 499.964 157.512 501.068006 158.040003 501.895997 158.783995 502.448 159.744L500.576 161.148zM524.912 174L522.32 174 522.32 150.816 513.788 150.816 513.788 148.512 533.444 148.512 533.444 150.816 524.912 150.816 524.912 174zM544.712 159.204L539.96 159.204 539.96 169.032C539.96 169.656003 540.019999 170.171998 540.14 170.58 540.260001 170.988002 540.433999 171.305999 540.662 171.534 540.890001 171.762001 541.159998 171.918 541.472 172.002 541.784002 172.086 542.119998 172.128 542.48 172.128 542.816002 172.128 543.169998 172.08 543.542 171.984 543.914002 171.888 544.267998 171.756001 544.604 171.588L544.712 173.712C544.279998 173.880001 543.830002 174.006 543.362 174.09 542.893998 174.174 542.384003 174.216 541.832 174.216 541.375998 174.216 540.896003 174.156001 540.392 174.036 539.887997 173.915999 539.420002 173.688002 538.988 173.352 538.555998 173.015998 538.202001 172.560003 537.926 171.984 537.649999 171.407997 537.512 170.652005 537.512 169.716L537.512 159.204 534.02 159.204 534.02 157.152 537.512 157.152 537.512 152.4 539.96 152.4 539.96 157.152 544.712 157.152 544.712 159.204zM567.068 174.648C565.14799 174.648 563.576006 174.318003 562.352 173.658 561.127994 172.997997 560.156004 172.164005 559.436 171.156 558.715996 170.147995 558.218001 169.050006 557.942 167.862 557.665999 166.673994 557.528 165.552005 557.528 164.496L557.528 148.512 560.12 148.512 560.12 164.208C560.12 165.240005 560.239999 166.241995 560.48 167.214 560.720001 168.186005 561.109997 169.049996 561.65 169.806 562.190003 170.562004 562.903996 171.173998 563.792 171.642 564.680004 172.110002 565.771994 172.344 567.068 172.344 568.364006 172.344 569.455996 172.110002 570.344 171.642 571.232004 171.173998 571.945997 170.562004 572.486 169.806 573.026003 169.049996 573.415999 168.186005 573.656 167.214 573.896001 166.241995 574.016 165.240005 574.016 164.208L574.016 148.512 576.608 148.512 576.608 164.496C576.608 165.552005 576.470001 166.673994 576.194 167.862 575.917999 169.050006 575.420004 170.147995 574.7 171.156 573.979996 172.164005 573.002006 172.997997 571.766 173.658 570.529994 174.318003 568.964009 174.648 567.068 174.648zM595.328 174C595.28 173.543998 595.244 173.040003 595.22 172.488 595.196 171.935997 595.184 171.480002 595.184 171.12L595.112 171.12C594.631998 172.104005 593.852005 172.901997 592.772 173.514 591.691995 174.126003 590.552006 174.432 589.352 174.432 587.215989 174.432 585.614005 173.796006 584.546 172.524 583.477995 171.251994 582.944 169.57201 582.944 167.484L582.944 157.152 585.392 157.152 585.392 166.476C585.392 167.364004 585.463999 168.167996 585.608 168.888 585.752001 169.608004 585.997998 170.225997 586.346 170.742 586.694002 171.258003 587.161997 171.659999 587.75 171.948 588.338003 172.236001 589.075996 172.38 589.964 172.38 590.612003 172.38 591.241997 172.248001 591.854 171.984 592.466003 171.719999 593.011998 171.318003 593.492 170.778 593.972002 170.237997 594.355999 169.554004 594.644 168.726 594.932001 167.897996 595.076 166.920006 595.076 165.792L595.076 157.152 597.524 157.152 597.524 170.292C597.524 170.748002 597.536 171.335996 597.56 172.056 597.584 172.776004 597.62 173.423997 597.668 174L595.328 174zM259.196 235.652L259.268 235.652 267.548 213.512 270.32 213.512 260.564 239 257.828 239 248.108 213.512 250.916 213.512 259.196 235.652zM280.58 239L277.88 239 271.004 222.152 273.74 222.152 279.212 236.408 279.284 236.408 284.792 222.152 287.42 222.152 280.58 239zM306.536 235.436L306.608 235.436 312.98 213.512 316.076 213.512 322.448 235.436 322.52 235.436 328.748 213.512 331.484 213.512 323.96 239 320.936 239 314.528 217.112 314.456 217.112 308.048 239 305.024 239 297.5 213.512 300.236 213.512 306.536 235.436zM335.552 222.152L339.62 235.832 339.692 235.832 344.228 222.152 346.604 222.152 351.212 235.832 351.284 235.832 355.316 222.152 357.908 222.152 352.58 239 349.916 239 345.416 225.356 345.344 225.356 340.916 239 338.252 239 332.924 222.152 335.552 222.152zM379.58 223.808L386.528 213.512 389.624 213.512 381.164 225.644 390.524 239 387.284 239 379.508 227.516 371.768 239 368.528 239 377.888 225.608 369.356 213.512 372.596 213.512 379.58 223.808zM398.408 230.288L392.18 222.152 395.312 222.152 399.92 228.56 404.528 222.152 407.48 222.152 401.36 230.18 408.056 239 404.888 239 399.884 231.98 394.736 239 391.784 239 398.408 230.288zM429.764 239L427.172 239 427.172 228.02 417.632 213.512 420.872 213.512 428.54 225.86 436.28 213.512 439.304 213.512 429.764 228.02 429.764 239zM448.34 236.372L448.412 236.372 453.632 222.152 456.296 222.152 447.908 243.356C447.403997 244.652006 446.762004 245.689996 445.982 246.47 445.201996 247.250004 444.080007 247.64 442.616 247.64 441.871996 247.64 441.140004 247.568001 440.42 247.424L440.672 245.192C441.248003 245.384001 441.847997 245.48 442.472 245.48 443.312004 245.48 443.971998 245.222003 444.452 244.706 444.932002 244.189997 445.351998 243.452005 445.712 242.492L447.08 238.964 439.88 222.152 442.616 222.152 448.34 236.372zM485.132 215.672L470.264 236.696 485.348 236.696 485.348 239 466.988 239 466.988 236.84 481.892 215.816 467.384 215.816 467.384 213.512 485.132 213.512 485.132 215.672zM500.9 223.88L490.82 236.876 501.26 236.876 501.26 239 487.58 239 487.58 237.272 497.624 224.204 488.084 224.204 488.084 222.152 500.9 222.152 500.9 223.88z"/>
  </g>
</svg>
