<svg xmlns="http://www.w3.org/2000/svg" width="607" height="241"><g fill="none" fill-rule="evenodd"><path fill="#8B949B" d="M9.473 11.016H3.018L1.553 15H.293L5.673.781h1.143L12.197 15h-1.25l-1.474-3.984zM3.389 9.99h5.703L6.24 2.246 3.39 9.99zM17.53 13.39l3.213-8.955h1.2L18 15h-.947L13.087 4.434h1.202l3.242 8.955zm11.007 1.806c-.69 0-1.325-.128-1.904-.385a4.46 4.46 0 0 1-1.5-1.075 4.938 4.938 0 0 1-.98-1.635 5.936 5.936 0 0 1-.352-2.08V9.6c0-.814.122-1.551.366-2.212.244-.661.574-1.224.991-1.69a4.445 4.445 0 0 1 1.44-1.079 4.024 4.024 0 0 1 1.724-.38c.67 0 1.266.12 1.787.36.521.241.959.577 1.314 1.006.355.43.623.941.805 1.534.183.592.274 1.24.274 1.943v.713h-7.54v.225c0 .579.089 1.124.264 1.635.176.511.424.956.743 1.333.319.378.7.676 1.142.894.443.218.934.327 1.475.327.625 0 1.177-.114 1.655-.342.479-.228.913-.592 1.304-1.094l.732.557c-.176.254-.379.495-.61.723-.231.228-.5.426-.806.595-.306.17-.65.303-1.035.4a5.237 5.237 0 0 1-1.29.147zm-.215-9.96a2.973 2.973 0 0 0-2.231.976c-.29.312-.528.688-.713 1.128-.186.44-.311.926-.376 1.46h6.338v-.127a4.715 4.715 0 0 0-.215-1.284c-.13-.414-.32-.78-.571-1.099a2.816 2.816 0 0 0-.933-.767c-.371-.192-.804-.288-1.299-.288zm8.283-.801l.039 1.806c.182-.3.392-.573.63-.82a3.834 3.834 0 0 1 2.817-1.182c.527 0 1 .072 1.416.215.417.143.77.371 1.06.684.29.312.51.714.664 1.206.153.491.23 1.085.23 1.782V15h-1.163V8.115c0-.547-.058-1.002-.176-1.367-.117-.365-.283-.658-.498-.879a1.812 1.812 0 0 0-.786-.473 3.52 3.52 0 0 0-1.03-.142c-.417 0-.794.07-1.133.21-.338.14-.638.327-.898.561a3.74 3.74 0 0 0-.674.806 4.626 4.626 0 0 0-.45.933V15h-1.162V4.434h1.114zM48.502 15H47.33V4.434h1.172V15zM47.125 1.377c0-.221.071-.409.215-.562.143-.153.338-.23.586-.23.247 0 .444.077.59.23.147.153.22.34.22.562a.765.765 0 0 1-.22.557c-.146.15-.343.224-.59.224-.248 0-.443-.075-.586-.224a.774.774 0 0 1-.215-.557zM57.273 5.43a4.365 4.365 0 0 0-.791-.069c-.398 0-.756.059-1.075.176-.319.117-.6.282-.844.493-.245.212-.45.463-.616.752a4.17 4.17 0 0 0-.395.962V15H52.39V4.434h1.142l.02 1.68a3.497 3.497 0 0 1 1.167-1.373c.491-.335 1.095-.503 1.811-.503.144 0 .29.013.44.04.15.025.26.055.332.087l-.03 1.065zM12.383 45h-1.201L3.008 32.832V45H1.797V30.781h1.21l8.184 12.178V30.781h1.192V45zm8.146.195c-.69 0-1.325-.128-1.905-.385a4.46 4.46 0 0 1-1.499-1.075 4.938 4.938 0 0 1-.981-1.635 5.936 5.936 0 0 1-.352-2.08v-.42c0-.814.122-1.551.367-2.212.244-.661.574-1.224.99-1.69a4.445 4.445 0 0 1 1.441-1.079 4.024 4.024 0 0 1 1.724-.38c.67 0 1.266.12 1.787.36.52.241.959.577 1.313 1.006.355.43.624.941.806 1.534.182.592.274 1.24.274 1.943v.713h-7.54v.225c0 .579.088 1.124.264 1.635.176.511.423.956.742 1.333.32.378.7.676 1.143.894.443.218.934.327 1.475.327.625 0 1.176-.114 1.655-.342.478-.228.913-.592 1.304-1.094l.732.557c-.176.254-.38.495-.61.723-.231.228-.5.426-.806.595-.306.17-.651.303-1.035.4a5.237 5.237 0 0 1-1.29.147zm-.215-9.96a2.973 2.973 0 0 0-2.232.976c-.29.312-.527.688-.712 1.128-.186.44-.311.926-.376 1.46h6.337v-.127a4.715 4.715 0 0 0-.214-1.284c-.13-.414-.321-.78-.572-1.099a2.816 2.816 0 0 0-.932-.767c-.371-.192-.804-.288-1.3-.288zm10.49 3.486l2.851-4.287h1.387l-3.584 5.185L35.198 45h-1.377l-3.008-4.473L27.806 45h-1.377l3.73-5.38-3.584-5.186h1.377l2.852 4.287zm8.937-6.992v2.705h2.187v.957h-2.187v7.04c0 .372.037.67.112.894.075.225.176.4.303.528a.942.942 0 0 0 .439.253c.166.043.34.064.522.064.176 0 .346-.011.508-.034.163-.023.31-.044.44-.064l.049.957c-.144.052-.33.093-.562.122a5.47 5.47 0 0 1-.688.044 3.1 3.1 0 0 1-.923-.132 1.654 1.654 0 0 1-.728-.454c-.202-.214-.36-.5-.473-.854-.114-.355-.171-.796-.171-1.323V35.39h-1.944v-.957h1.944v-2.705h1.172z"/><path fill="#222" d="M10.68 209H1.2l36.72-84.96h8.4L82.8 209h-9.6l-9.36-22.32H19.92L10.68 209zm12.48-30.24H60.6l-18.72-45.12-18.72 45.12zm112.04-6c0-4.88-1.28-8.52-3.84-10.92-2.56-2.4-6.28-3.6-11.16-3.6-3.36 0-6.48.6-9.36 1.8-2.88 1.2-5.32 2.8-7.32 4.8l-4.56-5.4c2.32-2.32 5.38-4.24 9.18-5.76 3.8-1.52 8.1-2.28 12.9-2.28 3.04 0 5.88.42 8.52 1.26 2.64.84 4.96 2.1 6.96 3.78 2 1.68 3.56 3.8 4.68 6.36 1.12 2.56 1.68 5.56 1.68 9v24.6c0 2.16.08 4.4.24 6.72.16 2.32.4 4.28.72 5.88h-7.32c-.24-1.36-.44-2.84-.6-4.44-.16-1.6-.24-3.16-.24-4.68h-.24c-2.56 3.76-5.46 6.46-8.7 8.1-3.24 1.64-7.14 2.46-11.7 2.46-2.16 0-4.38-.3-6.66-.9-2.28-.6-4.36-1.58-6.24-2.94-1.88-1.36-3.44-3.12-4.68-5.28-1.24-2.16-1.86-4.8-1.86-7.92 0-4.32 1.1-7.74 3.3-10.26 2.2-2.52 5.14-4.4 8.82-5.64 3.68-1.24 7.9-2.04 12.66-2.4 4.76-.36 9.7-.54 14.82-.54v-1.8zm-2.4 8.16c-3.36 0-6.74.14-10.14.42-3.4.28-6.48.84-9.24 1.68s-5.02 2.06-6.78 3.66c-1.76 1.6-2.64 3.72-2.64 6.36 0 2 .38 3.68 1.14 5.04a9.325 9.325 0 0 0 3.06 3.3c1.28.84 2.7 1.44 4.26 1.8 1.56.36 3.14.54 4.74.54 2.88 0 5.44-.5 7.68-1.5 2.24-1 4.12-2.36 5.64-4.08 1.52-1.72 2.68-3.7 3.48-5.94.8-2.24 1.2-4.6 1.2-7.08v-4.2h-2.4zM251.204 37h-2.844l11.016-25.488h2.52L272.84 37h-2.88l-2.808-6.696h-13.176L251.204 37zm3.744-9.072h11.232l-5.616-13.536-5.616 13.536zm32.112-1.8c0-1.464-.384-2.556-1.152-3.276-.768-.72-1.884-1.08-3.348-1.08-1.008 0-1.944.18-2.808.54-.864.36-1.596.84-2.196 1.44l-1.368-1.62c.696-.696 1.614-1.272 2.754-1.728 1.14-.456 2.43-.684 3.87-.684.912 0 1.764.126 2.556.378s1.488.63 2.088 1.134c.6.504 1.068 1.14 1.404 1.908.336.768.504 1.668.504 2.7v7.38c0 .648.024 1.32.072 2.016.048.696.12 1.284.216 1.764h-2.196a17.996 17.996 0 0 1-.18-1.332 14.11 14.11 0 0 1-.072-1.404h-.072c-.768 1.128-1.638 1.938-2.61 2.43-.972.492-2.142.738-3.51.738-.648 0-1.314-.09-1.998-.27a5.594 5.594 0 0 1-1.872-.882 4.986 4.986 0 0 1-1.404-1.584c-.372-.648-.558-1.44-.558-2.376 0-1.296.33-2.322.99-3.078.66-.756 1.542-1.32 2.646-1.692 1.104-.372 2.37-.612 3.798-.72a58.984 58.984 0 0 1 4.446-.162v-.54zm-.72 2.448a37.05 37.05 0 0 0-3.042.126c-1.02.084-1.944.252-2.772.504-.828.252-1.506.618-2.034 1.098-.528.48-.792 1.116-.792 1.908 0 .6.114 1.104.342 1.512.228.408.534.738.918.99s.81.432 1.278.54c.468.108.942.162 1.422.162.864 0 1.632-.15 2.304-.45a4.875 4.875 0 0 0 1.692-1.224 5.41 5.41 0 0 0 1.044-1.782c.24-.672.36-1.38.36-2.124v-1.26h-.72zm18.468-17.064h7.596c.96 0 1.932.102 2.916.306a7.929 7.929 0 0 1 2.646 1.044 5.754 5.754 0 0 1 1.908 1.998c.492.84.738 1.896.738 3.168 0 1.344-.408 2.514-1.224 3.51-.816.996-1.908 1.65-3.276 1.962v.072c1.656.192 3.03.834 4.122 1.926s1.638 2.574 1.638 4.446c0 1.056-.222 2.022-.666 2.898a6.358 6.358 0 0 1-1.89 2.232c-.816.612-1.812 1.086-2.988 1.422-1.176.336-2.496.504-3.96.504h-7.56V11.512zm2.592 11.16h5.22c.624 0 1.254-.072 1.89-.216a5.251 5.251 0 0 0 1.746-.738c.528-.348.954-.81 1.278-1.386.324-.576.486-1.284.486-2.124 0-.816-.162-1.506-.486-2.07a4.033 4.033 0 0 0-1.314-1.386c-.552-.36-1.2-.618-1.944-.774a11.563 11.563 0 0 0-2.376-.234h-4.5v8.928zm0 12.096h4.824c.936 0 1.83-.09 2.682-.27.852-.18 1.596-.468 2.232-.864a4.604 4.604 0 0 0 1.53-1.548c.384-.636.576-1.398.576-2.286 0-1.68-.57-2.934-1.71-3.762-1.14-.828-2.754-1.242-4.842-1.242H307.4v9.972zm22.68-.612V37h-2.448V9.784h2.448v13.284h.072a6.957 6.957 0 0 1 2.808-2.502 8.016 8.016 0 0 1 3.564-.846c1.32 0 2.514.228 3.582.684a8.161 8.161 0 0 1 2.736 1.872 8.454 8.454 0 0 1 1.764 2.808c.42 1.08.63 2.244.63 3.492 0 1.248-.21 2.412-.63 3.492a8.454 8.454 0 0 1-1.764 2.808 8.161 8.161 0 0 1-2.736 1.872c-1.068.456-2.262.684-3.582.684a8.158 8.158 0 0 1-3.564-.828 6.912 6.912 0 0 1-2.808-2.448h-.072zm12.564-5.58c0-.936-.144-1.818-.432-2.646a6.404 6.404 0 0 0-1.242-2.16 5.856 5.856 0 0 0-1.998-1.458c-.792-.36-1.692-.54-2.7-.54-.936 0-1.8.174-2.592.522a6.221 6.221 0 0 0-2.052 1.44 6.65 6.65 0 0 0-1.35 2.16 7.295 7.295 0 0 0-.486 2.682c0 .96.162 1.854.486 2.682a6.444 6.444 0 0 0 1.35 2.142c.576.6 1.26 1.074 2.052 1.422a6.372 6.372 0 0 0 2.592.522c1.008 0 1.908-.174 2.7-.522a5.66 5.66 0 0 0 1.998-1.44 6.404 6.404 0 0 0 1.242-2.16c.288-.828.432-1.71.432-2.646zm38.448 4.32c-.432.648-.954 1.26-1.566 1.836a9.948 9.948 0 0 1-2.124 1.512c-.804.432-1.692.774-2.664 1.026-.972.252-2.034.378-3.186.378-1.92 0-3.696-.336-5.328-1.008-1.632-.672-3.036-1.602-4.212-2.79-1.176-1.188-2.094-2.598-2.754-4.23-.66-1.632-.99-3.42-.99-5.364s.336-3.732 1.008-5.364c.672-1.632 1.602-3.042 2.79-4.23 1.188-1.188 2.592-2.118 4.212-2.79 1.62-.672 3.378-1.008 5.274-1.008.936 0 1.854.096 2.754.288.9.192 1.746.462 2.538.81.792.348 1.512.768 2.16 1.26a7.367 7.367 0 0 1 1.62 1.674l-2.16 1.584a6.445 6.445 0 0 0-1.062-1.224 7.223 7.223 0 0 0-1.566-1.08 9.796 9.796 0 0 0-1.962-.756 8.707 8.707 0 0 0-2.286-.288c-1.656 0-3.138.3-4.446.9-1.308.6-2.418 1.41-3.33 2.43a10.617 10.617 0 0 0-2.088 3.546c-.48 1.344-.72 2.76-.72 4.248 0 1.488.246 2.904.738 4.248a10.865 10.865 0 0 0 2.106 3.546c.912 1.02 2.022 1.83 3.33 2.43 1.308.6 2.778.9 4.41.9 1.464 0 2.856-.3 4.176-.9 1.32-.6 2.424-1.56 3.312-2.88l2.016 1.296zm16.452-8.892c-.408-.648-1.002-1.182-1.782-1.602a5.27 5.27 0 0 0-2.538-.63c-.984 0-1.872.174-2.664.522a6.027 6.027 0 0 0-2.034 1.44 6.329 6.329 0 0 0-1.296 2.16c-.3.828-.45 1.722-.45 2.682s.15 1.848.45 2.664c.3.816.726 1.53 1.278 2.142a5.84 5.84 0 0 0 2.016 1.44c.792.348 1.68.522 2.664.522 1.08 0 1.992-.204 2.736-.612a5.6 5.6 0 0 0 1.836-1.584l1.836 1.368a8.026 8.026 0 0 1-2.646 2.124c-1.044.528-2.298.792-3.762.792-1.368 0-2.604-.222-3.708-.666-1.104-.444-2.046-1.062-2.826-1.854a8.397 8.397 0 0 1-1.818-2.808c-.432-1.08-.648-2.256-.648-3.528 0-1.272.216-2.448.648-3.528a8.397 8.397 0 0 1 1.818-2.808c.78-.792 1.722-1.41 2.826-1.854 1.104-.444 2.34-.666 3.708-.666 1.128 0 2.274.246 3.438.738 1.164.492 2.106 1.218 2.826 2.178l-1.908 1.368zm15.012-12.492h8.46c1.584 0 3.174.264 4.77.792a13.157 13.157 0 0 1 4.32 2.394c1.284 1.068 2.322 2.4 3.114 3.996.792 1.596 1.188 3.45 1.188 5.562 0 2.136-.396 3.996-1.188 5.58-.792 1.584-1.83 2.91-3.114 3.978a13.157 13.157 0 0 1-4.32 2.394 15.113 15.113 0 0 1-4.77.792h-8.46V11.512zm2.592 23.184h5.148c1.92 0 3.594-.3 5.022-.9 1.428-.6 2.61-1.386 3.546-2.358a9.63 9.63 0 0 0 2.106-3.33c.468-1.248.702-2.532.702-3.852 0-1.32-.234-2.604-.702-3.852a9.63 9.63 0 0 0-2.106-3.33c-.936-.972-2.118-1.758-3.546-2.358-1.428-.6-3.102-.9-5.022-.9h-5.148v20.88zm38.376-.54a6.912 6.912 0 0 1-2.808 2.448 8.158 8.158 0 0 1-3.564.828c-1.32 0-2.514-.228-3.582-.684a8.161 8.161 0 0 1-2.736-1.872 8.454 8.454 0 0 1-1.764-2.808c-.42-1.08-.63-2.244-.63-3.492 0-1.248.21-2.412.63-3.492a8.454 8.454 0 0 1 1.764-2.808 8.161 8.161 0 0 1 2.736-1.872c1.068-.456 2.262-.684 3.582-.684 1.224 0 2.412.282 3.564.846a6.957 6.957 0 0 1 2.808 2.502h.072V9.784h2.448V37h-2.448v-2.844h-.072zm-12.492-5.58c0 .936.144 1.818.432 2.646a6.404 6.404 0 0 0 1.242 2.16 5.66 5.66 0 0 0 1.998 1.44c.792.348 1.692.522 2.7.522.936 0 1.8-.174 2.592-.522a6.354 6.354 0 0 0 2.052-1.422 6.444 6.444 0 0 0 1.35-2.142 7.295 7.295 0 0 0 .486-2.682c0-.96-.162-1.854-.486-2.682a6.65 6.65 0 0 0-1.35-2.16 6.221 6.221 0 0 0-2.052-1.44 6.372 6.372 0 0 0-2.592-.522c-1.008 0-1.908.18-2.7.54a5.856 5.856 0 0 0-1.998 1.458 6.404 6.404 0 0 0-1.242 2.16 7.998 7.998 0 0 0-.432 2.646zm33.3 6.12h13.644V37H471.74V11.512h15.804v2.304h-13.212V22.6h12.348v2.268h-12.348v9.828zm31.428-7.416c-.072-1.584-.582-2.898-1.53-3.942-.948-1.044-2.298-1.566-4.05-1.566-.816 0-1.572.15-2.268.45-.696.3-1.308.708-1.836 1.224a6.086 6.086 0 0 0-1.26 1.764 5.688 5.688 0 0 0-.54 2.07h11.484zm2.484.792v.54c0 .192-.012.396-.036.612H494.24c.024.84.192 1.632.504 2.376a6 6 0 0 0 1.296 1.944c.552.552 1.2.99 1.944 1.314a5.975 5.975 0 0 0 2.412.486c1.272 0 2.37-.294 3.294-.882.924-.588 1.626-1.266 2.106-2.034l1.836 1.44c-1.008 1.272-2.118 2.184-3.33 2.736a9.312 9.312 0 0 1-3.906.828c-1.248 0-2.406-.222-3.474-.666a8.137 8.137 0 0 1-2.754-1.854 8.783 8.783 0 0 1-1.818-2.808c-.444-1.08-.666-2.256-.666-3.528 0-1.272.216-2.448.648-3.528a8.541 8.541 0 0 1 1.8-2.808 8.277 8.277 0 0 1 2.7-1.854c1.032-.444 2.148-.666 3.348-.666 1.32 0 2.484.222 3.492.666 1.008.444 1.848 1.044 2.52 1.8a7.733 7.733 0 0 1 1.53 2.646 9.861 9.861 0 0 1 .522 3.24zM525.236 37h-2.592V11.512h15.372v2.304h-12.78v8.856h11.88v2.268h-11.88V37zm24.624-14.796h-3.96V37h-2.448V22.204h-3.528v-2.052h3.528v-4.608c0-1.92.468-3.432 1.404-4.536.936-1.104 2.376-1.656 4.32-1.656.312 0 .648.018 1.008.054.36.036.696.102 1.008.198l-.432 2.16a9.4 9.4 0 0 0-.792-.18 5.065 5.065 0 0 0-.9-.072c-.648 0-1.182.108-1.602.324-.42.216-.744.522-.972.918a4.02 4.02 0 0 0-.468 1.386 10.776 10.776 0 0 0-.126 1.692v4.32h3.96v2.052zm31.968-6.12a9.284 9.284 0 0 0-3.168-2.178c-1.224-.516-2.628-.774-4.212-.774-1.632 0-3.102.3-4.41.9-1.308.6-2.418 1.41-3.33 2.43a10.865 10.865 0 0 0-2.106 3.546 12.26 12.26 0 0 0-.738 4.248c0 1.488.246 2.904.738 4.248a10.659 10.659 0 0 0 2.106 3.528c.912 1.008 2.022 1.812 3.33 2.412 1.308.6 2.778.9 4.41.9 1.44 0 2.76-.156 3.96-.468 1.2-.312 2.172-.708 2.916-1.188v-7.74h-5.94V23.68h8.532v11.484a16.523 16.523 0 0 1-4.5 1.872 20.268 20.268 0 0 1-5.004.612c-1.92 0-3.696-.336-5.328-1.008-1.632-.672-3.036-1.602-4.212-2.79-1.176-1.188-2.094-2.598-2.754-4.23-.66-1.632-.99-3.42-.99-5.364s.336-3.732 1.008-5.364c.672-1.632 1.602-3.042 2.79-4.23 1.188-1.188 2.592-2.118 4.212-2.79 1.62-.672 3.378-1.008 5.274-1.008 2.04 0 3.816.3 5.328.9 1.512.6 2.808 1.44 3.888 2.52l-1.8 1.8zm9.468 24.3c.672.864 1.59 1.596 2.754 2.196 1.164.6 2.394.9 3.69.9 1.2 0 2.22-.174 3.06-.522.84-.348 1.518-.822 2.034-1.422.516-.6.894-1.302 1.134-2.106.24-.804.36-1.662.36-2.574v-3.168h-.072c-.648 1.056-1.566 1.872-2.754 2.448-1.188.576-2.394.864-3.618.864-1.32 0-2.514-.216-3.582-.648-1.068-.432-1.98-1.026-2.736-1.782a7.943 7.943 0 0 1-1.764-2.718c-.42-1.056-.63-2.196-.63-3.42 0-1.2.21-2.328.63-3.384a8.542 8.542 0 0 1 1.764-2.772 8.161 8.161 0 0 1 2.736-1.872c1.068-.456 2.262-.684 3.582-.684 1.224 0 2.424.288 3.6.864 1.176.576 2.1 1.404 2.772 2.484h.072v-2.916h2.448v16.704c0 .912-.126 1.884-.378 2.916a7.348 7.348 0 0 1-1.404 2.844c-.684.864-1.614 1.584-2.79 2.16-1.176.576-2.7.864-4.572.864-1.56 0-3.048-.3-4.464-.9-1.416-.6-2.628-1.428-3.636-2.484l1.764-1.872zm.468-12.024c0 .888.144 1.728.432 2.52a6.31 6.31 0 0 0 1.242 2.088c.54.6 1.206 1.074 1.998 1.422.792.348 1.692.522 2.7.522.936 0 1.8-.156 2.592-.468a5.947 5.947 0 0 0 2.052-1.332 6.127 6.127 0 0 0 1.35-2.07c.324-.804.486-1.698.486-2.682a6.59 6.59 0 0 0-.486-2.52 6.583 6.583 0 0 0-1.35-2.088 6.595 6.595 0 0 0-2.052-1.44 6.19 6.19 0 0 0-2.592-.54c-1.008 0-1.908.18-2.7.54-.792.36-1.458.84-1.998 1.44a6.31 6.31 0 0 0-1.242 2.088 7.316 7.316 0 0 0-.432 2.52zm-340.38 48.152h2.592v11.052h13.896V76.512h2.592V102h-2.592V89.94h-13.896V102h-2.592V76.512zm28.296 11.412c.456-.984 1.212-1.764 2.268-2.34a6.96 6.96 0 0 1 3.384-.864c2.136 0 3.738.636 4.806 1.908 1.068 1.272 1.602 2.952 1.602 5.04V102h-2.448v-9.324c0-.888-.072-1.692-.216-2.412-.144-.72-.39-1.338-.738-1.854a3.528 3.528 0 0 0-1.404-1.206c-.588-.288-1.326-.432-2.214-.432-.648 0-1.278.132-1.89.396a4.644 4.644 0 0 0-1.638 1.206c-.48.54-.864 1.224-1.152 2.052-.288.828-.432 1.806-.432 2.934V102h-2.448V74.784h2.448v13.14h.072zM309.812 102h-2.592V76.512h2.592V102zm9.108 0h-2.448V85.152h2.448V102zm.504-23.328c0 .504-.18.918-.54 1.242-.36.324-.756.486-1.188.486-.432 0-.828-.162-1.188-.486-.36-.324-.54-.738-.54-1.242s.18-.918.54-1.242c.36-.324.756-.486 1.188-.486.432 0 .828.162 1.188.486.36.324.54.738.54 1.242zm15.084 18.144c.192 1.008.642 1.854 1.35 2.538.708.684 1.638 1.026 2.79 1.026.888 0 1.62-.162 2.196-.486a3.833 3.833 0 0 0 1.386-1.314 5.342 5.342 0 0 0 .72-1.89 12.06 12.06 0 0 0 .198-2.214V76.512h2.592v18.144c0 .84-.09 1.728-.27 2.664-.18.936-.522 1.8-1.026 2.592s-1.2 1.446-2.088 1.962c-.888.516-2.028.774-3.42.774-1.848 0-3.372-.486-4.572-1.458a6.297 6.297 0 0 1-2.268-3.726l2.412-.648zm13.788 11.52c.24.072.498.126.774.162.276.036.534.054.774.054.504 0 .912-.09 1.224-.27.312-.18.552-.426.72-.738.168-.312.282-.69.342-1.134.06-.444.09-.93.09-1.458v-19.8h2.448v20.196c0 .672-.072 1.326-.216 1.962a4.52 4.52 0 0 1-.756 1.692c-.36.492-.846.888-1.458 1.188-.612.3-1.398.45-2.358.45-.264 0-.576-.018-.936-.054a5.173 5.173 0 0 1-1.008-.198l.36-2.052zm6.876-29.664c0 .504-.18.918-.54 1.242-.36.324-.756.486-1.188.486-.432 0-.828-.162-1.188-.486-.36-.324-.54-.738-.54-1.242s.18-.918.54-1.242c.36-.324.756-.486 1.188-.486.432 0 .828.162 1.188.486.36.324.54.738.54 1.242zm17.748 9.288h.036l12.132-11.448h3.708l-12.852 11.556L389.516 102H385.7l-12.744-13.572h-.036V102h-2.592V76.512h2.592V87.96zm22.392 4.788h.108l7.776-7.596h3.528l-8.496 7.704 9.36 9.144h-3.6l-8.568-8.856h-.108V102h-2.448V74.784h2.448v17.964zm27.576 6.948h11.88V102h-14.472V76.512h2.592v23.184zM441.032 102h-2.448V74.784h2.448V102zm28.296-4.392h.036l8.532-21.096h3.96V102h-2.592V79.86h-.072L469.976 102h-1.368l-9.216-22.14h-.072V102h-2.592V76.512h3.96l8.64 21.096zm21.564-9.576c.48-.984 1.218-1.782 2.214-2.394.996-.612 2.106-.918 3.33-.918.456 0 .93.048 1.422.144.492.096.972.282 1.44.558.468.276.9.642 1.296 1.098.396.456.738 1.044 1.026 1.764.576-1.152 1.362-2.034 2.358-2.646.996-.612 2.178-.918 3.546-.918 2.136 0 3.738.636 4.806 1.908 1.068 1.272 1.602 2.952 1.602 5.04V102h-2.448v-9.324c0-1.776-.33-3.204-.99-4.284-.66-1.08-1.782-1.62-3.366-1.62-.888 0-1.638.18-2.25.54a4.296 4.296 0 0 0-1.476 1.422 6.299 6.299 0 0 0-.81 1.998 10.429 10.429 0 0 0-.252 2.304V102h-2.448v-9.828c0-.816-.06-1.56-.18-2.232-.12-.672-.33-1.242-.63-1.71a2.947 2.947 0 0 0-1.242-1.08c-.528-.252-1.2-.378-2.016-.378-.576 0-1.158.132-1.746.396a4.572 4.572 0 0 0-1.584 1.206c-.468.54-.846 1.224-1.134 2.052-.288.828-.432 1.806-.432 2.934V102h-2.448V88.86c0-.456-.012-1.044-.036-1.764-.024-.72-.06-1.368-.108-1.944h2.34a32.594 32.594 0 0 1 .144 2.88h.072zm56.592 10.188h.072V76.512h2.592V102h-3.24l-14.832-21.924h-.072V102h-2.592V76.512h3.24l14.832 21.708zm11.484-13.068a32.594 32.594 0 0 1 .144 2.88h.072c.48-.984 1.26-1.782 2.34-2.394a6.834 6.834 0 0 1 3.42-.918c2.136 0 3.738.636 4.806 1.908 1.068 1.272 1.602 2.952 1.602 5.04V102h-2.448v-9.324c0-.888-.072-1.692-.216-2.412-.144-.72-.39-1.338-.738-1.854a3.528 3.528 0 0 0-1.404-1.206c-.588-.288-1.326-.432-2.214-.432-.648 0-1.278.132-1.89.396a4.644 4.644 0 0 0-1.638 1.206c-.48.54-.864 1.224-1.152 2.052-.288.828-.432 1.806-.432 2.934V102h-2.448V88.86c0-.456-.012-1.044-.036-1.764-.024-.72-.06-1.368-.108-1.944h2.34zm-282.384 69.104c0 1.944-.336 3.732-1.008 5.364-.672 1.632-1.602 3.042-2.79 4.23-1.188 1.188-2.592 2.118-4.212 2.79-1.62.672-3.378 1.008-5.274 1.008s-3.654-.336-5.274-1.008c-1.62-.672-3.024-1.602-4.212-2.79-1.188-1.188-2.118-2.598-2.79-4.23-.672-1.632-1.008-3.42-1.008-5.364s.336-3.732 1.008-5.364c.672-1.632 1.602-3.042 2.79-4.23 1.188-1.188 2.592-2.118 4.212-2.79 1.62-.672 3.378-1.008 5.274-1.008s3.654.336 5.274 1.008c1.62.672 3.024 1.602 4.212 2.79 1.188 1.188 2.118 2.598 2.79 4.23.672 1.632 1.008 3.42 1.008 5.364zm-2.736 0c0-1.488-.24-2.904-.72-4.248a10.617 10.617 0 0 0-2.088-3.546c-.912-1.02-2.022-1.83-3.33-2.43-1.308-.6-2.778-.9-4.41-.9-1.632 0-3.102.3-4.41.9-1.308.6-2.418 1.41-3.33 2.43a10.617 10.617 0 0 0-2.088 3.546c-.48 1.344-.72 2.76-.72 4.248 0 1.488.24 2.904.72 4.248a10.42 10.42 0 0 0 2.088 3.528c.912 1.008 2.022 1.812 3.33 2.412 1.308.6 2.778.9 4.41.9 1.632 0 3.102-.3 4.41-.9 1.308-.6 2.418-1.404 3.33-2.412a10.42 10.42 0 0 0 2.088-3.528c.48-1.344.72-2.76.72-4.248zm24.732 4.32c0 1.272-.222 2.448-.666 3.528a8.487 8.487 0 0 1-1.854 2.808 8.402 8.402 0 0 1-2.844 1.854c-1.104.444-2.316.666-3.636.666-1.296 0-2.496-.222-3.6-.666a8.402 8.402 0 0 1-2.844-1.854 8.487 8.487 0 0 1-1.854-2.808c-.444-1.08-.666-2.256-.666-3.528 0-1.272.222-2.448.666-3.528a8.487 8.487 0 0 1 1.854-2.808 8.402 8.402 0 0 1 2.844-1.854c1.104-.444 2.304-.666 3.6-.666 1.32 0 2.532.222 3.636.666a8.402 8.402 0 0 1 2.844 1.854 8.487 8.487 0 0 1 1.854 2.808c.444 1.08.666 2.256.666 3.528zm-2.592 0c0-.936-.15-1.818-.45-2.646a6.483 6.483 0 0 0-1.278-2.16 6.047 6.047 0 0 0-2.016-1.458c-.792-.36-1.68-.54-2.664-.54-.984 0-1.866.18-2.646.54-.78.36-1.446.846-1.998 1.458a6.483 6.483 0 0 0-1.278 2.16c-.3.828-.45 1.71-.45 2.646 0 .936.15 1.818.45 2.646.3.828.726 1.548 1.278 2.16a5.883 5.883 0 0 0 1.998 1.44c.78.348 1.662.522 2.646.522s1.872-.174 2.664-.522a5.84 5.84 0 0 0 2.016-1.44 6.483 6.483 0 0 0 1.278-2.16c.3-.828.45-1.71.45-2.646zm16.992-17.064h7.2c1.296 0 2.472.138 3.528.414 1.056.276 1.962.696 2.718 1.26a5.663 5.663 0 0 1 1.746 2.124c.408.852.612 1.854.612 3.006 0 1.152-.21 2.154-.63 3.006a5.826 5.826 0 0 1-1.764 2.124c-.756.564-1.668.99-2.736 1.278-1.068.288-2.25.432-3.546.432h-4.536V167h-2.592v-25.488zm2.592 11.448h4.392c2.04 0 3.588-.396 4.644-1.188 1.056-.792 1.584-1.944 1.584-3.456 0-1.584-.546-2.742-1.638-3.474-1.092-.732-2.622-1.098-4.59-1.098h-4.392v9.216zm20.592 22.68h-2.448v-25.488h2.448v2.916h.108a6.686 6.686 0 0 1 2.79-2.502c1.164-.564 2.346-.846 3.546-.846 1.32 0 2.514.228 3.582.684a8.161 8.161 0 0 1 2.736 1.872 8.454 8.454 0 0 1 1.764 2.808c.42 1.08.63 2.244.63 3.492 0 1.248-.21 2.412-.63 3.492a8.454 8.454 0 0 1-1.764 2.808 8.161 8.161 0 0 1-2.736 1.872c-1.068.456-2.262.684-3.582.684-1.2 0-2.382-.282-3.546-.846a6.853 6.853 0 0 1-2.79-2.43h-.108v11.484zm12.564-17.064c0-.936-.144-1.818-.432-2.646a6.404 6.404 0 0 0-1.242-2.16 5.856 5.856 0 0 0-1.998-1.458c-.792-.36-1.692-.54-2.7-.54-.936 0-1.8.174-2.592.522a6.221 6.221 0 0 0-2.052 1.44 6.65 6.65 0 0 0-1.35 2.16 7.295 7.295 0 0 0-.486 2.682c0 .96.162 1.854.486 2.682a6.444 6.444 0 0 0 1.35 2.142c.576.6 1.26 1.074 2.052 1.422a6.372 6.372 0 0 0 2.592.522c1.008 0 1.908-.174 2.7-.522a5.66 5.66 0 0 0 1.998-1.44 6.404 6.404 0 0 0 1.242-2.16c.288-.828.432-1.71.432-2.646zm18.36-4.644c0 1.44.234 2.808.702 4.104a10.78 10.78 0 0 0 1.998 3.438c.864.996 1.926 1.788 3.186 2.376 1.26.588 2.682.882 4.266.882 1.56 0 2.97-.294 4.23-.882a9.634 9.634 0 0 0 3.204-2.376 10.868 10.868 0 0 0 2.034-3.438c.48-1.296.72-2.664.72-4.104s-.24-2.808-.72-4.104a10.868 10.868 0 0 0-2.034-3.438 9.634 9.634 0 0 0-3.204-2.376c-1.26-.588-2.67-.882-4.23-.882-1.584 0-3.006.294-4.266.882-1.26.588-2.322 1.38-3.186 2.376a10.78 10.78 0 0 0-1.998 3.438 11.99 11.99 0 0 0-.702 4.104zM391.82 167h-14.58c-1.848 0-3.558-.324-5.13-.972a12.245 12.245 0 0 1-4.086-2.718c-1.152-1.164-2.052-2.544-2.7-4.14-.648-1.596-.972-3.342-.972-5.238 0-1.896.324-3.642.972-5.238.648-1.596 1.548-2.976 2.7-4.14a12.245 12.245 0 0 1 4.086-2.718c1.572-.648 3.282-.972 5.13-.972 1.824 0 3.522.324 5.094.972a12.245 12.245 0 0 1 4.086 2.718c1.152 1.164 2.052 2.544 2.7 4.14.648 1.596.972 3.342.972 5.238 0 2.256-.498 4.314-1.494 6.174-.996 1.86-2.49 3.366-4.482 4.518v.072h7.704V167zm17.928-2.844a6.853 6.853 0 0 1-2.79 2.43c-1.164.564-2.346.846-3.546.846-1.32 0-2.514-.228-3.582-.684a8.161 8.161 0 0 1-2.736-1.872 8.454 8.454 0 0 1-1.764-2.808c-.42-1.08-.63-2.244-.63-3.492 0-1.248.21-2.412.63-3.492a8.454 8.454 0 0 1 1.764-2.808 8.161 8.161 0 0 1 2.736-1.872c1.068-.456 2.262-.684 3.582-.684 1.2 0 2.382.282 3.546.846a6.686 6.686 0 0 1 2.79 2.502h.108v-2.916h2.448v25.488h-2.448v-11.484h-.108zm-12.456-5.58c0 .936.144 1.818.432 2.646a6.404 6.404 0 0 0 1.242 2.16 5.66 5.66 0 0 0 1.998 1.44c.792.348 1.692.522 2.7.522.936 0 1.8-.174 2.592-.522a6.354 6.354 0 0 0 2.052-1.422 6.444 6.444 0 0 0 1.35-2.142 7.295 7.295 0 0 0 .486-2.682c0-.96-.162-1.854-.486-2.682a6.65 6.65 0 0 0-1.35-2.16 6.221 6.221 0 0 0-2.052-1.44 6.372 6.372 0 0 0-2.592-.522c-1.008 0-1.908.18-2.7.54a5.856 5.856 0 0 0-1.998 1.458 6.404 6.404 0 0 0-1.242 2.16 7.998 7.998 0 0 0-.432 2.646zM430.52 167h-2.592v-25.488h7.488c1.248 0 2.406.12 3.474.36s1.992.63 2.772 1.17a5.52 5.52 0 0 1 1.818 2.106c.432.864.648 1.92.648 3.168 0 .936-.168 1.788-.504 2.556a6.297 6.297 0 0 1-1.368 1.998 6.56 6.56 0 0 1-2.052 1.35 8.932 8.932 0 0 1-2.592.648L445.064 167h-3.168l-7.056-11.916h-4.32V167zm0-14.148h4.5c2.088 0 3.696-.378 4.824-1.134 1.128-.756 1.692-1.89 1.692-3.402 0-.84-.156-1.548-.468-2.124a3.83 3.83 0 0 0-1.296-1.404c-.552-.36-1.224-.624-2.016-.792a12.688 12.688 0 0 0-2.628-.252h-4.608v9.108zm18.828 1.008c0-.456-.012-1.044-.036-1.764-.024-.72-.06-1.368-.108-1.944h2.34a32.594 32.594 0 0 1 .144 2.88h.072c.48-.984 1.2-1.782 2.16-2.394.96-.612 2.04-.918 3.24-.918.312 0 .594.012.846.036.252.024.51.072.774.144l-.324 2.304a4.604 4.604 0 0 0-.72-.144 7.119 7.119 0 0 0-1.008-.072c-.648 0-1.272.12-1.872.36-.6.24-1.122.618-1.566 1.134-.444.516-.804 1.176-1.08 1.98s-.414 1.77-.414 2.898V167h-2.448v-13.14zm34.452-8.244a6.225 6.225 0 0 0-2.124-1.854c-.864-.468-1.908-.702-3.132-.702-.624 0-1.26.096-1.908.288a5.535 5.535 0 0 0-1.764.882 4.533 4.533 0 0 0-1.278 1.494c-.324.6-.486 1.308-.486 2.124 0 .816.156 1.488.468 2.016.312.528.726.978 1.242 1.35a7.21 7.21 0 0 0 1.764.918c.66.24 1.35.48 2.07.72.888.288 1.782.6 2.682.936.9.336 1.71.774 2.43 1.314a6.363 6.363 0 0 1 1.764 2.052c.456.828.684 1.878.684 3.15s-.246 2.37-.738 3.294a6.972 6.972 0 0 1-1.908 2.286 7.94 7.94 0 0 1-2.664 1.332c-.996.288-1.998.432-3.006.432-.768 0-1.536-.078-2.304-.234-.768-.156-1.5-.39-2.196-.702a8.982 8.982 0 0 1-1.944-1.188 8.636 8.636 0 0 1-1.584-1.656l2.232-1.656c.552.912 1.326 1.674 2.322 2.286.996.612 2.166.918 3.51.918.648 0 1.308-.102 1.98-.306a5.568 5.568 0 0 0 1.818-.936c.54-.42.984-.936 1.332-1.548.348-.612.522-1.326.522-2.142 0-.888-.174-1.626-.522-2.214a4.647 4.647 0 0 0-1.386-1.476 8.483 8.483 0 0 0-1.98-.99 88.096 88.096 0 0 0-2.34-.792 30.682 30.682 0 0 1-2.484-.9 8.402 8.402 0 0 1-2.196-1.314 6.137 6.137 0 0 1-1.566-1.998c-.396-.792-.594-1.764-.594-2.916 0-1.224.246-2.28.738-3.168a6.675 6.675 0 0 1 1.926-2.196 8.065 8.065 0 0 1 2.628-1.26c.96-.264 1.908-.396 2.844-.396 1.728 0 3.204.306 4.428.918 1.224.612 2.148 1.338 2.772 2.178l-2.052 1.656zm16.776 8.532c-.36-.696-.906-1.266-1.638-1.71-.732-.444-1.566-.666-2.502-.666-.432 0-.864.048-1.296.144a3.524 3.524 0 0 0-1.152.468 2.542 2.542 0 0 0-.81.828c-.204.336-.306.732-.306 1.188 0 .792.324 1.398.972 1.818.648.42 1.668.774 3.06 1.062 1.992.408 3.462 1.002 4.41 1.782s1.422 1.83 1.422 3.15c0 .96-.186 1.77-.558 2.43a4.86 4.86 0 0 1-1.458 1.62c-.6.42-1.278.72-2.034.9-.756.18-1.518.27-2.286.27a9.117 9.117 0 0 1-3.708-.792c-1.2-.528-2.184-1.356-2.952-2.484l1.944-1.44c.432.744 1.068 1.368 1.908 1.872.84.504 1.764.756 2.772.756.528 0 1.032-.048 1.512-.144.48-.096.9-.264 1.26-.504s.648-.546.864-.918c.216-.372.324-.834.324-1.386 0-.888-.426-1.554-1.278-1.998-.852-.444-2.082-.858-3.69-1.242-.504-.12-1.038-.27-1.602-.45a5.5 5.5 0 0 1-1.566-.792 4.31 4.31 0 0 1-1.188-1.314c-.312-.528-.468-1.188-.468-1.98 0-.864.168-1.602.504-2.214a4.421 4.421 0 0 1 1.35-1.512 6.017 6.017 0 0 1 1.926-.882 8.625 8.625 0 0 1 2.232-.288 7.84 7.84 0 0 1 3.42.792c1.104.528 1.932 1.272 2.484 2.232l-1.872 1.404zM524.912 167h-2.592v-23.184h-8.532v-2.304h19.656v2.304h-8.532V167zm19.8-14.796h-4.752v9.828c0 .624.06 1.14.18 1.548.12.408.294.726.522.954.228.228.498.384.81.468.312.084.648.126 1.008.126.336 0 .69-.048 1.062-.144a5.365 5.365 0 0 0 1.062-.396l.108 2.124a7.248 7.248 0 0 1-1.35.378 8.675 8.675 0 0 1-1.53.126 6.22 6.22 0 0 1-1.44-.18 3.644 3.644 0 0 1-1.404-.684c-.432-.336-.786-.792-1.062-1.368-.276-.576-.414-1.332-.414-2.268v-10.512h-3.492v-2.052h3.492V145.4h2.448v4.752h4.752v2.052zm22.356 15.444c-1.92 0-3.492-.33-4.716-.99-1.224-.66-2.196-1.494-2.916-2.502a9.2 9.2 0 0 1-1.494-3.294c-.276-1.188-.414-2.31-.414-3.366v-15.984h2.592v15.696c0 1.032.12 2.034.36 3.006s.63 1.836 1.17 2.592c.54.756 1.254 1.368 2.142 1.836.888.468 1.98.702 3.276.702 1.296 0 2.388-.234 3.276-.702.888-.468 1.602-1.08 2.142-1.836.54-.756.93-1.62 1.17-2.592.24-.972.36-1.974.36-3.006v-15.696h2.592v15.984c0 1.056-.138 2.178-.414 3.366a9.2 9.2 0 0 1-1.494 3.294c-.72 1.008-1.698 1.842-2.934 2.502-1.236.66-2.802.99-4.698.99zm28.26-.648a32.594 32.594 0 0 1-.144-2.88h-.072c-.48.984-1.26 1.782-2.34 2.394a6.834 6.834 0 0 1-3.42.918c-2.136 0-3.738-.636-4.806-1.908-1.068-1.272-1.602-2.952-1.602-5.04v-10.332h2.448v9.324c0 .888.072 1.692.216 2.412.144.72.39 1.338.738 1.854s.816.918 1.404 1.206c.588.288 1.326.432 2.214.432.648 0 1.278-.132 1.89-.396a4.644 4.644 0 0 0 1.638-1.206c.48-.54.864-1.224 1.152-2.052.288-.828.432-1.806.432-2.934v-8.64h2.448v13.14c0 .456.012 1.044.036 1.764.024.72.06 1.368.108 1.944h-2.34zm-336.132 61.652h.072l8.28-22.14h2.772L260.564 232h-2.736l-9.72-25.488h2.808l8.28 22.14zM280.58 232h-2.7l-6.876-16.848h2.736l5.472 14.256h.072l5.508-14.256h2.628L280.58 232zm25.956-3.564h.072l6.372-21.924h3.096l6.372 21.924h.072l6.228-21.924h2.736L323.96 232h-3.024l-6.408-21.888h-.072L308.048 232h-3.024l-7.524-25.488h2.736l6.3 21.924zm29.016-13.284l4.068 13.68h.072l4.536-13.68h2.376l4.608 13.68h.072l4.032-13.68h2.592L352.58 232h-2.664l-4.5-13.644h-.072L340.916 232h-2.664l-5.328-16.848h2.628zm44.028 1.656l6.948-10.296h3.096l-8.46 12.132 9.36 13.356h-3.24l-7.776-11.484-7.74 11.484h-3.24l9.36-13.392-8.532-12.096h3.24l6.984 10.296zm18.828 6.48l-6.228-8.136h3.132l4.608 6.408 4.608-6.408h2.952l-6.12 8.028 6.696 8.82h-3.168l-5.004-7.02-5.148 7.02h-2.952l6.624-8.712zM429.764 232h-2.592v-10.98l-9.54-14.508h3.24l7.668 12.348 7.74-12.348h3.024l-9.54 14.508V232zm18.576-2.628h.072l5.22-14.22h2.664l-8.388 21.204c-.504 1.296-1.146 2.334-1.926 3.114-.78.78-1.902 1.17-3.366 1.17a11.17 11.17 0 0 1-2.196-.216l.252-2.232a5.654 5.654 0 0 0 1.8.288c.84 0 1.5-.258 1.98-.774s.9-1.254 1.26-2.214l1.368-3.528-7.2-16.812h2.736l5.724 14.22zm36.792-20.7l-14.868 21.024h15.084V232h-18.36v-2.16l14.904-21.024h-14.508v-2.304h17.748v2.16zm15.768 8.208l-10.08 12.996h10.44V232h-13.68v-1.728l10.044-13.068h-9.54v-2.052H500.9v1.728z"/></g></svg>