<svg xmlns="http://www.w3.org/2000/svg" width="350" height="78" viewBox="0 0 350 78">
  <g fill="#FFF" fill-rule="evenodd">
    <path d="M70.85199 3.19428571C70.8904743 2.11308226 71.7620899 1.24545115 72.8482587 1.20714286L77.0522388 1.20714286C78.1397159 1.24245237 79.0130358 2.11177994 79.0485075 3.19428571L79.0485075 72.4657143C79.0130358 73.5482201 78.1397159 74.4175476 77.0522388 74.4528571L72.8482587 74.4528571C71.7620899 74.4145488 70.8904743 73.5469177 70.85199 72.4657143L70.85199 3.19428571 70.85199 3.19428571zM95.7711443 63.4647619C96.2997512 62.8457143 96.8221393 62.1028571 97.3507463 61.477619 98.4017413 60.1157143 99.5584577 59.28 101.032338 60.5366667 101.766169 61.1557143 109.440299 68.4914286 118.799751 68.4914286 127.313433 68.4914286 132.885572 63.1552381 132.885572 56.9771429 132.885572 49.7590476 126.579602 45.4690476 114.49005 40.442381 102.922886 35.4219048 95.988806 30.7109524 95.988806 18.7757143 95.988806 11.6628571 101.666667.148571429 118.376866.148571429 124.748799.234782531 130.971258 2.08227038 136.349502 5.4847619 136.971393 5.80047619 138.215174 7.05714286 136.971393 9.04428571 136.548507 9.66333333 136.131841 10.4061905 135.727612 11.0314286 134.782338 12.4985714 133.731343 12.8885714 132.04602 11.972381 131.312189 11.5514286 124.689055 7.15619048 118.277363 7.15619048 107.133085 7.15619048 103.768657 14.2690476 103.768657 18.6704762 103.768657 25.6842857 109.129353 29.7638095 117.960199 33.422381 132.151741 39.1795238 141.299751 44.5157143 141.299751 56.6552381 141.299751 67.5380952 130.889303 75.4928571 118.594527 75.4928571 106.187811 75.4928571 97.7798507 68.2747619 96.4116915 67.0180952 95.5534826 66.2938095 94.5273632 65.4580952 95.7711443 63.4647619L95.7711443 63.4647619zM156.517413 3.71428571C156.507244 3.04465652 156.769991 2.39948237 157.245719 1.92592893 157.721447 1.4523755 158.369584 1.1908303 159.042289 1.20095238L162.089552 1.20095238C163.476993 1.21765431 164.597649 2.33318736 164.614428 3.71428571L164.614428 33.3295238 197.412935 2.24714286C197.923323 1.66194454 198.635674 1.28862077 199.409204 1.20095238L204.558458 1.20095238C206.424129 1.20095238 207.5 3.29333333 205.802239 4.86571429L172.580846 35.737619 207.406716 71.2152381C207.859913 71.8579432 207.906942 72.7011246 207.528005 73.3898191 207.149068 74.0785136 206.409983 74.4931009 205.621891 74.4590476L200.248756 74.4590476C199.559038 74.4458874 198.896989 74.1866718 198.383085 73.7285714L164.614428 38.6657143 164.614428 71.9395238C164.597649 73.3206222 163.476993 74.4361552 162.089552 74.4528571L159.042289 74.4528571C158.369584 74.4629792 157.721447 74.201434 157.245719 73.7278806 156.769991 73.2543272 156.507244 72.609153 156.517413 71.9395238L156.517413 3.71428571 156.517413 3.71428571zM41.4179104 37.2047619C46.3619403 34.3819048 51.7226368 28.5380952 51.7226368 20.4904762 51.7226368 9.50238095 43.0161692 1.23809524 30.1741294 1.23809524L7.1641791 1.23809524C6.06167037 1.23809524 5.16791045 2.1277694 5.16791045 3.2252381L5.16791045 35.9047619C5.16770796 36.5232881 5.49979644 37.0947025 6.03855721 37.4028571L12.4440299 41.067619C12.7071084 41.2178641 13.0051564 41.296838 13.3084577 41.2966667L30.1927861 41.2966667C38.3893035 41.2966667 45.2238806 46.7380952 45.2238806 54.1666667 45.2238806 61.5952381 39.8631841 67.2347619 32.4191542 67.4514286 32.1312189 67.4569984 31.8491668 67.53357 31.5982587 67.6742857L21.7412935 73.3138095C21.4948926 73.4527969 21.3739502 73.7399501 21.4471053 74.0122996 21.5202605 74.284649 21.7690343 74.4733996 22.0522388 74.4714286L31.0945274 74.4714286C44.6579602 74.4714286 54.011194 65.9966667 54.011194 54.2719048 54.0360697 44.6333333 46.9900498 39.5014286 41.4179104 37.2047619L41.4179104 37.2047619zM30.1741294 34.047619L13.0597015 34.047619 13.0597015 8.4252381 30.1927861 8.4252381C38.2773632 8.4252381 42.8047264 13.4457143 42.8047264 20.9795238 42.7860697 28.3090476 38.2649254 34.047619 30.1741294 34.047619L30.1741294 34.047619z"/>
    <path d="M.348258706 60.047619L.348258706 43.952381C.350271236 43.3369757.681092209 42.7691249 1.2166835 42.4617387 1.7522748 42.1543525 2.41171797 42.1538716 2.94776119 42.4604762L16.9776119 50.5080952 31.0074627 58.5557143C31.5435622 58.864434 31.873697 59.4342007 31.873697 60.0507143 31.873697 60.6672278 31.5435622 61.2369945 31.0074627 61.5457143L16.9776119 69.5933333 2.94776119 77.6409524C2.41171797 77.947557 1.7522748 77.947076 1.2166835 77.6396898.681092209 77.3323036.350271236 76.7644528.348258706 76.1490476L.348258706 60.047619.348258706 60.047619zM336.944445 37.3471976C341.888474 34.5243405 347.249171 28.680531 347.249171 20.6329119 347.249171 9.64481669 338.542703 1.38053097 325.700663 1.38053097L302.690713 1.38053097C301.588204 1.38053097 300.694445 2.27020513 300.694445 3.36767383L300.694445 36.0471976C300.694242 36.6657238 301.026331 37.2371383 301.565091 37.5452929L307.970564 41.2100548C308.233642 41.3602998 308.531691 41.4392737 308.834992 41.4391024L325.71932 41.4391024C333.915838 41.4391024 340.750415 46.880531 340.750415 54.3091024 340.750415 61.7376738 335.389718 67.3771976 327.945688 67.5938643 327.657753 67.5994341 327.375701 67.6760058 327.124793 67.8167214L317.267828 73.4562453C317.021427 73.5952327 316.900484 73.8823859 316.973639 74.1547353 317.046795 74.4270848 317.295568 74.6158353 317.578773 74.6138643L326.621061 74.6138643C340.184494 74.6138643 349.537728 66.1391024 349.537728 54.4143405 349.562604 44.7757691 342.516584 39.6438643 336.944445 37.3471976L336.944445 37.3471976zM325.700663 34.1900548L308.586236 34.1900548 308.586236 8.56767383 325.71932 8.56767383C333.803897 8.56767383 338.33126 13.58815 338.33126 21.1219595 338.312604 28.4514834 333.791459 34.1900548 325.700663 34.1900548L325.700663 34.1900548z"/>
    <path d="M295.833333,59.9229533 L295.833333,43.8277152 C295.835346,43.21231 296.166167,42.6444592 296.701758,42.337073 C297.237349,42.0296868 297.896793,42.0292058 298.432836,42.3358104 L312.462687,50.3834295 L326.492537,58.4310485 C327.028637,58.7397683 327.358772,59.309535 327.358772,59.9260485 C327.358772,60.5425621 327.028637,61.1123288 326.492537,61.4210485 L312.462687,69.4686676 L298.432836,77.5162866 C297.896793,77.8228913 297.237349,77.8224103 296.701758,77.5150241 C296.166167,77.2076379 295.835346,76.6397871 295.833333,76.0243819 L295.833333,59.9229533 L295.833333,59.9229533 Z"/>
  </g>
</svg>
