<svg xmlns="http://www.w3.org/2000/svg" width="350" height="79" viewBox="0 0 350 79">
  <g fill="none" fill-rule="evenodd">
    <path fill="#FFF" d="M70.9928489 3.2352381C71.0314096 2.14017305 71.9047581 1.26141847 72.9930863 1.22261905L77.2054242 1.22261905C78.2950632 1.25838125 79.1701194 2.13885405 79.2056616 3.2352381L79.2056616 73.3947619C79.1701194 74.491146 78.2950632 75.3716188 77.2054242 75.407381L72.9930863 75.407381C71.9047581 75.3685815 71.0314096 74.4898269 70.9928489 73.3947619L70.9928489 3.2352381 70.9928489 3.2352381zM95.9615442 64.2784127C96.491202 63.6514286 97.0146286 62.8990476 97.5442865 62.2657937 98.597371 60.8864286 99.7563871 60.04 101.233198 61.3127778 101.968488 61.9397619 109.657874 69.3695238 119.035934 69.3695238 127.566541 69.3695238 133.149758 63.9649206 133.149758 57.707619 133.149758 50.3969841 126.831251 46.0519841 114.717664 40.960873 103.127504 35.8760317 96.1796386 31.1046825 96.1796386 19.0164286 96.1796386 11.812381 101.868787.15047619 118.612207.15047619 124.996809.237792563 131.231639 2.10896615 136.620575 5.55507937 137.243702 5.87484127 138.489956 7.14761905 137.243702 9.1602381 136.819976 9.78722222 136.402481 10.5396032 135.997448 11.1728571 135.050295 12.6588095 133.997211 13.0538095 132.308537 12.125873 131.573247 11.6995238 124.936945 7.24793651 118.512507 7.24793651 107.346073 7.24793651 103.974956 14.4519841 103.974956 18.9098413 103.974956 26.0135714 109.34631 30.1453968 118.194712 33.850873 132.414468 39.6818254 141.580665 45.0864286 141.580665 57.3815873 141.580665 68.4039683 131.149521 76.4607143 118.830302 76.4607143 106.39892 76.4607143 97.9742441 69.1500794 96.6033649 67.8773016 95.7434497 67.1437302 94.7152903 66.2973016 95.9615442 64.2784127L95.9615442 64.2784127zM156.828581 3.76190476C156.818392 3.08369058 157.081661 2.43024496 157.558335 1.95062033 158.035009 1.4709957 158.684434 1.20609735 159.358476 1.21634921L162.411798 1.21634921C163.801997 1.23326526 164.924881 2.36310002 164.941693 3.76190476L164.941693 33.7568254 197.805406 2.27595238C198.316809 1.68325152 199.030576 1.30514155 199.805644 1.21634921L204.965135 1.21634921C206.834515 1.21634921 207.912525 3.33555556 206.211388 4.92809524L172.923949 36.1957937 207.819056 72.128254C208.273154 72.7791989 208.320276 73.6331903 207.940586 74.3307143 207.560895 75.0282382 206.820341 75.4481407 206.030682 75.4136508L200.646865 75.4136508C199.955776 75.4003219 199.29241 75.137783 198.777484 74.6738095L164.941693 39.1614286 164.941693 72.8618254C164.924881 74.2606301 163.801997 75.3904649 162.411798 75.407381L159.358476 75.407381C158.684434 75.4176328 158.035009 75.1527345 157.558335 74.6731098 157.081661 74.1934852 156.818392 73.5400396 156.828581 72.8618254L156.828581 3.76190476 156.828581 3.76190476zM41.5002522 37.681746C46.4541112 34.8226984 51.8254651 28.9039683 51.8254651 20.7531746 51.8254651 9.62420635 43.1016884 1.25396825 30.2341177 1.25396825L7.17842201 1.25396825C6.0737214 1.25396825 5.17818462 2.15504849 5.17818462 3.2665873L5.17818462 36.3650794C5.17798174 36.9915354 5.51073043 37.5702757 6.0505623 37.882381L12.4687695 41.594127C12.732371 41.7462983 13.0310116 41.8262846 13.3349159 41.8261111L30.2528115 41.8261111C38.4656242 41.8261111 45.3137889 47.3373016 45.3137889 54.8611111 45.3137889 62.3849206 39.9424349 68.096746 32.4836058 68.3161905 32.1950981 68.3218317 31.9124852 68.399385 31.6610783 68.5419048L21.7845168 74.2537302C21.537626 74.3944995 21.4164431 74.6853341 21.4897437 74.9611752 21.5630443 75.2370163 21.8123126 75.4281867 22.0960802 75.4261905L31.1563455 75.4261905C44.7467434 75.4261905 54.1185721 66.8427778 54.1185721 54.9676984 54.1434972 45.2055556 47.0834693 40.0078571 41.5002522 37.681746L41.5002522 37.681746zM30.2341177 34.484127L13.0856651 34.484127 13.0856651 8.53325397 30.2528115 8.53325397C38.3534613 8.53325397 42.8898252 13.6180952 42.8898252 21.2484921 42.8711314 28.6719841 38.3409988 34.484127 30.2341177 34.484127L30.2341177 34.484127z"/>
    <path fill="#E31B48" d="M0.34895107,60.8174603 L0.34895107,44.515873 C0.350967601,43.892578 0.682446269,43.317447 1.21910236,43.00612 C1.75575844,42.6947929 2.41651264,42.6943058 2.95362155,43.0048413 L17.0113646,51.1556349 L31.0691077,59.3064286 C31.6062731,59.6191063 31.9370642,60.1961777 31.9370642,60.8205952 C31.9370642,61.4450128 31.6062731,62.0220842 31.0691077,62.3347619 L17.0113646,70.4855556 L2.95362155,78.6363492 C2.41651264,78.9468847 1.75575844,78.9463975 1.21910236,78.6350705 C0.682446269,78.3237434 0.350967601,77.7486125 0.34895107,77.1253175 L0.34895107,60.8174603 L0.34895107,60.8174603 Z"/>
    <path fill="#FFF" d="M336.918489,37.8260079 C341.872348,34.9669602 347.243702,29.0482301 347.243702,20.8974364 C347.243702,9.76846818 338.519925,1.39823009 325.652355,1.39823009 L302.596659,1.39823009 C301.491958,1.39823009 300.596422,2.29931033 300.596422,3.41084914 L300.596422,36.5093412 C300.596219,37.1357972 300.928967,37.7145375 301.468799,38.0266428 L307.887006,41.7383888 C308.150608,41.8905601 308.449249,41.9705464 308.753153,41.9703729 L325.671048,41.9703729 C333.883861,41.9703729 340.732026,47.4815634 340.732026,55.0053729 C340.732026,62.5291825 335.360672,68.2410079 327.901843,68.4604523 C327.613335,68.4660935 327.330722,68.5436469 327.079315,68.6861666 L317.202754,74.397992 C316.955863,74.5387613 316.83468,74.829596 316.907981,75.1054371 C316.981281,75.3812782 317.23055,75.5724486 317.514317,75.5704523 L326.574582,75.5704523 C340.16498,75.5704523 349.536809,66.9870396 349.536809,55.1119602 C349.561734,45.3498174 342.501706,40.152119 336.918489,37.8260079 L336.918489,37.8260079 Z M325.652355,34.6283888 L308.503902,34.6283888 L308.503902,8.6775158 L325.671048,8.6775158 C333.771698,8.6775158 338.308062,13.7623571 338.308062,21.3927539 C338.289368,28.816246 333.759236,34.6283888 325.652355,34.6283888 L325.652355,34.6283888 Z"/>
    <path fill="#E31B48" d="M295.725646,60.6911963 L295.725646,44.389609 C295.727663,43.766314 296.059141,43.191183 296.595797,42.879856 C297.132453,42.5685289 297.793208,42.5680418 298.330317,42.8785772 L312.38806,51.0293709 L326.445803,59.1801645 C326.982968,59.4928422 327.313759,60.0699137 327.313759,60.6943312 C327.313759,61.3187488 326.982968,61.8958202 326.445803,62.2084979 L312.38806,70.3592915 L298.330317,78.5100852 C297.793208,78.8206206 297.132453,78.8201335 296.595797,78.5088065 C296.059141,78.1974794 295.727663,77.6223485 295.725646,76.9990534 L295.725646,60.6911963 L295.725646,60.6911963 Z"/>
  </g>
</svg>
