<svg xmlns="http://www.w3.org/2000/svg" width="288" height="690" viewBox="0 0 288 690">
  <g fill="none" fill-rule="evenodd">
    <rect width="288" height="258" y="216" fill="#0AC2DE"/>
    <rect width="288" height="72" fill="#C2E8F3"/>
    <path fill="#2C2C36" d="M105.905,35.24 L105.505,38.28 L108.205,38.28 L108.625,35.24 L105.905,35.24 Z M105.345,39.4 L104.725,44 L103.485,44 L104.105,39.4 L102.125,39.4 L102.125,38.28 L104.265,38.28 L104.665,35.24 L102.685,35.24 L102.685,34.12 L104.825,34.12 L105.445,29.56 L106.685,29.56 L106.065,34.12 L108.785,34.12 L109.385,29.56 L110.625,29.56 L110.025,34.12 L111.905,34.12 L111.905,35.24 L109.865,35.24 L109.445,38.28 L111.345,38.28 L111.345,39.4 L109.285,39.4 L108.665,44 L107.425,44 L108.045,39.4 L105.345,39.4 Z M123.375,39.4 L124.815,39.68 C124.175,42.36 122.695,44.2 119.735,44.2 C116.495,44.2 114.215,41.84 114.215,36.78 C114.215,32.08 116.255,29.36 119.735,29.36 C122.415,29.36 123.975,30.92 124.615,33.56 L123.135,34 C122.615,31.96 121.695,30.72 119.535,30.72 C117.455,30.72 115.815,32.64 115.815,36.78 C115.815,40.96 117.455,42.84 119.855,42.84 C122.075,42.84 122.935,41.16 123.375,39.4 Z M136.545,42.76 L136.545,44 L127.165,44 L127.165,42.48 C129.665,37.42 135.045,37.12 135.045,33.24 C135.045,31.56 133.965,30.6 132.125,30.6 C130.045,30.6 128.965,32.28 128.725,33.74 L127.305,33.42 C127.765,31.42 128.945,29.36 132.165,29.36 C134.525,29.36 136.565,30.72 136.565,33.2 C136.565,37.6 130.245,38.8 128.685,42.76 L136.545,42.76 Z M140.475,29.56 L149.135,29.56 L149.135,30.92 L142.075,30.92 L142.075,35.76 L147.095,35.76 L147.095,37.12 L142.075,37.12 L142.075,42.64 L149.535,42.64 L149.535,44 L140.475,44 L140.475,29.56 Z M162.145,40.24 C162.145,42.44 160.425,44.2 156.885,44.2 C153.345,44.2 151.625,42.44 151.625,40.24 C151.625,38.4 153.065,37.12 154.785,36.32 L154.785,36.28 C153.185,35.68 152.225,34.46 152.225,32.96 C152.225,30.6 154.225,29.36 156.885,29.36 C159.545,29.36 161.545,30.6 161.545,32.96 C161.545,34.46 160.585,35.68 158.985,36.28 L158.985,36.32 C160.705,36.94 162.145,38.28 162.145,40.24 Z M153.145,40.24 C153.145,41.52 154.265,42.96 156.885,42.96 C159.505,42.96 160.625,41.52 160.625,40.24 C160.625,38.56 158.905,37.72 156.625,36.96 C154.865,37.72 153.145,38.56 153.145,40.24 Z M160.025,32.88 C160.025,31.28 158.465,30.6 156.885,30.6 C155.305,30.6 153.745,31.28 153.745,32.88 C153.745,34.44 155.705,35.32 156.885,35.66 C158.485,35.26 160.025,34.28 160.025,32.88 Z M165.255,29.56 L173.815,29.56 L173.815,30.92 L166.855,30.92 L166.855,35.76 L172.015,35.76 L172.015,37.12 L166.855,37.12 L166.855,44 L165.255,44 L165.255,29.56 Z M175.305,41.36 L176.465,40.56 C177.565,42.04 178.925,42.96 180.425,42.96 C182.545,42.96 183.825,41.88 183.825,40.16 C183.825,38.14 182.625,36.92 179.745,36.92 L178.325,36.92 L178.325,35.68 L179.185,35.68 C182.065,35.68 183.305,34.76 183.305,32.98 C183.305,31.52 182.045,30.6 180.665,30.6 C178.905,30.6 178.145,31.36 177.185,32.6 L176.005,31.8 C176.985,30.44 178.345,29.36 180.665,29.36 C183.225,29.36 184.825,30.68 184.825,32.96 C184.825,34.7 183.705,35.72 182.585,36.16 C184.865,37.04 185.345,38.68 185.345,40 C185.345,42.46 183.445,44.2 180.425,44.2 C177.665,44.2 175.985,42.48 175.305,41.36 Z"/>
    <rect width="288" height="72" y="72" fill="#87D4E5"/>
    <path fill="#FAFAFF" d="M104.795,107.24 L104.395,110.28 L107.095,110.28 L107.515,107.24 L104.795,107.24 Z M104.235,111.4 L103.615,116 L102.375,116 L102.995,111.4 L101.015,111.4 L101.015,110.28 L103.155,110.28 L103.555,107.24 L101.575,107.24 L101.575,106.12 L103.715,106.12 L104.335,101.56 L105.575,101.56 L104.955,106.12 L107.675,106.12 L108.275,101.56 L109.515,101.56 L108.915,106.12 L110.795,106.12 L110.795,107.24 L108.755,107.24 L108.335,110.28 L110.235,110.28 L110.235,111.4 L108.175,111.4 L107.555,116 L106.315,116 L106.935,111.4 L104.235,111.4 Z M123.625,112.24 C123.625,114.44 121.905,116.2 118.365,116.2 C114.825,116.2 113.105,114.44 113.105,112.24 C113.105,110.4 114.545,109.12 116.265,108.32 L116.265,108.28 C114.665,107.68 113.705,106.46 113.705,104.96 C113.705,102.6 115.705,101.36 118.365,101.36 C121.025,101.36 123.025,102.6 123.025,104.96 C123.025,106.46 122.065,107.68 120.465,108.28 L120.465,108.32 C122.185,108.94 123.625,110.28 123.625,112.24 Z M114.625,112.24 C114.625,113.52 115.745,114.96 118.365,114.96 C120.985,114.96 122.105,113.52 122.105,112.24 C122.105,110.56 120.385,109.72 118.105,108.96 C116.345,109.72 114.625,110.56 114.625,112.24 Z M121.505,104.88 C121.505,103.28 119.945,102.6 118.365,102.6 C116.785,102.6 115.225,103.28 115.225,104.88 C115.225,106.44 117.185,107.32 118.365,107.66 C119.965,107.26 121.505,106.28 121.505,104.88 Z M133.535,102.8 L126.215,102.8 L126.215,101.56 L135.375,101.56 L135.375,102.44 L129.275,116 L127.595,116 L133.535,102.8 Z M140.805,102.92 L140.805,114.64 L142.965,114.64 C146.285,114.64 148.005,112.66 148.005,108.78 C148.005,104.56 146.005,102.92 143.045,102.92 L140.805,102.92 Z M139.205,116 L139.205,101.56 L143.085,101.56 C147.005,101.56 149.605,104.04 149.605,108.78 C149.605,113.02 147.325,116 143.005,116 L139.205,116 Z M162.115,112.6 L159.635,112.6 L159.635,116 L158.195,116 L158.195,112.6 L151.555,112.6 L151.555,111.36 L157.515,101.56 L159.635,101.56 L159.635,111.36 L162.115,111.36 L162.115,112.6 Z M158.135,103.08 L153.075,111.36 L158.195,111.36 L158.195,103.08 L158.135,103.08 Z M165.425,101.56 L174.085,101.56 L174.085,102.92 L167.025,102.92 L167.025,107.76 L172.045,107.76 L172.045,109.12 L167.025,109.12 L167.025,114.64 L174.485,114.64 L174.485,116 L165.425,116 L165.425,101.56 Z M185.755,101.56 L185.755,102.8 L179.555,102.8 L179.195,107.42 C180.135,106.56 181.135,106.24 182.155,106.24 C184.555,106.24 186.775,107.88 186.775,111.12 C186.775,113.32 185.455,116.2 181.775,116.2 C179.315,116.2 178.075,114.84 177.175,113.44 L178.475,112.76 C179.175,114.06 180.295,114.96 181.815,114.96 C183.715,114.96 185.255,113.84 185.255,111.12 C185.255,109 184.015,107.48 182.015,107.48 C180.615,107.48 179.555,108.32 178.975,109.66 L177.715,109.38 L178.355,101.56 L185.755,101.56 Z"/>
    <rect width="288" height="72" y="144" fill="#51C7E0"/>
    <path fill="#FAFAFF" d="M105.355,179.24 L104.955,182.28 L107.655,182.28 L108.075,179.24 L105.355,179.24 Z M104.795,183.4 L104.175,188 L102.935,188 L103.555,183.4 L101.575,183.4 L101.575,182.28 L103.715,182.28 L104.115,179.24 L102.135,179.24 L102.135,178.12 L104.275,178.12 L104.895,173.56 L106.135,173.56 L105.515,178.12 L108.235,178.12 L108.835,173.56 L110.075,173.56 L109.475,178.12 L111.355,178.12 L111.355,179.24 L109.315,179.24 L108.895,182.28 L110.795,182.28 L110.795,183.4 L108.735,183.4 L108.115,188 L106.875,188 L107.495,183.4 L104.795,183.4 Z M122.845,173.56 L122.845,174.8 L116.645,174.8 L116.285,179.42 C117.225,178.56 118.225,178.24 119.245,178.24 C121.645,178.24 123.865,179.88 123.865,183.12 C123.865,185.32 122.545,188.2 118.865,188.2 C116.405,188.2 115.165,186.84 114.265,185.44 L115.565,184.76 C116.265,186.06 117.385,186.96 118.905,186.96 C120.805,186.96 122.345,185.84 122.345,183.12 C122.345,181 121.105,179.48 119.105,179.48 C117.705,179.48 116.645,180.32 116.065,181.66 L114.805,181.38 L115.445,173.56 L122.845,173.56 Z M134.795,188 L128.395,188 L128.395,186.76 L130.895,186.76 L130.895,175.02 L128.115,175.3 L128.115,174.36 C129.115,174.06 130.255,173.76 130.895,173.36 L132.335,173.36 L132.335,186.76 L134.795,186.76 L134.795,188 Z M147.765,183.4 L149.205,183.68 C148.565,186.36 147.085,188.2 144.125,188.2 C140.885,188.2 138.605,185.84 138.605,180.78 C138.605,176.08 140.645,173.36 144.125,173.36 C146.805,173.36 148.365,174.92 149.005,177.56 L147.525,178 C147.005,175.96 146.085,174.72 143.925,174.72 C141.845,174.72 140.205,176.64 140.205,180.78 C140.205,184.96 141.845,186.84 144.245,186.84 C146.465,186.84 147.325,185.16 147.765,183.4 Z M159.035,174.8 L151.715,174.8 L151.715,173.56 L160.875,173.56 L160.875,174.44 L154.775,188 L153.095,188 L159.035,174.8 Z M164.865,173.56 L173.525,173.56 L173.525,174.92 L166.465,174.92 L166.465,179.76 L171.485,179.76 L171.485,181.12 L166.465,181.12 L166.465,186.64 L173.925,186.64 L173.925,188 L164.865,188 L164.865,173.56 Z M176.175,180.78 C176.175,175.56 178.135,173.36 181.275,173.36 C184.415,173.36 186.375,175.56 186.375,180.78 C186.375,186 184.415,188.2 181.275,188.2 C178.135,188.2 176.175,186 176.175,180.78 Z M177.695,180.78 C177.695,185.16 178.935,186.96 181.275,186.96 C183.615,186.96 184.855,185.16 184.855,180.78 C184.855,176.4 183.615,174.6 181.275,174.6 C178.935,174.6 177.695,176.4 177.695,180.78 Z"/>
    <rect width="288" height="72" y="474" fill="#139BB1"/>
    <path fill="#FAFAFF" d="M104.235,509.24 L103.835,512.28 L106.535,512.28 L106.955,509.24 L104.235,509.24 Z M103.675,513.4 L103.055,518 L101.815,518 L102.435,513.4 L100.455,513.4 L100.455,512.28 L102.595,512.28 L102.995,509.24 L101.015,509.24 L101.015,508.12 L103.155,508.12 L103.775,503.56 L105.015,503.56 L104.395,508.12 L107.115,508.12 L107.715,503.56 L108.955,503.56 L108.355,508.12 L110.235,508.12 L110.235,509.24 L108.195,509.24 L107.775,512.28 L109.675,512.28 L109.675,513.4 L107.615,513.4 L106.995,518 L105.755,518 L106.375,513.4 L103.675,513.4 Z M121.205,518 L114.805,518 L114.805,516.76 L117.305,516.76 L117.305,505.02 L114.525,505.3 L114.525,504.36 C115.525,504.06 116.665,503.76 117.305,503.36 L118.745,503.36 L118.745,516.76 L121.205,516.76 L121.205,518 Z M124.855,515.36 L126.015,514.56 C127.115,516.04 128.475,516.96 129.975,516.96 C132.095,516.96 133.375,515.88 133.375,514.16 C133.375,512.14 132.175,510.92 129.295,510.92 L127.875,510.92 L127.875,509.68 L128.735,509.68 C131.615,509.68 132.855,508.76 132.855,506.98 C132.855,505.52 131.595,504.6 130.215,504.6 C128.455,504.6 127.695,505.36 126.735,506.6 L125.555,505.8 C126.535,504.44 127.895,503.36 130.215,503.36 C132.775,503.36 134.375,504.68 134.375,506.96 C134.375,508.7 133.255,509.72 132.135,510.16 C134.415,511.04 134.895,512.68 134.895,514 C134.895,516.46 132.995,518.2 129.975,518.2 C127.215,518.2 125.535,516.48 124.855,515.36 Z M138.625,517.36 L139.245,516.14 C139.905,516.66 140.585,516.96 141.705,516.96 C143.985,516.96 145.965,514.92 146.145,510.92 C145.265,511.84 144.185,512.64 142.185,512.64 C140.025,512.64 137.845,511.12 137.845,508 C137.845,504.92 140.105,503.36 142.505,503.36 C145.505,503.36 147.665,505.12 147.665,510.04 C147.665,514.6 145.625,518.2 141.745,518.2 C140.185,518.2 139.045,517.76 138.625,517.36 Z M139.365,507.96 C139.365,510.2 140.865,511.4 142.385,511.4 C144.145,511.4 145.505,510.24 146.065,508.72 C146.025,506.2 144.705,504.6 142.625,504.6 C140.585,504.6 139.365,506 139.365,507.96 Z M151.275,518 L151.275,503.56 L156.595,503.56 C159.115,503.56 160.635,505.16 160.635,507.12 C160.635,508.7 159.935,509.84 158.195,510.44 L158.215,510.48 C159.835,510.88 160.995,512.32 160.995,514.12 C160.995,516.28 159.675,518 155.755,518 L151.275,518 Z M152.875,511.12 L152.875,516.64 L155.875,516.64 C158.235,516.64 159.395,515.84 159.395,514.04 C159.395,512.2 157.915,511.12 155.635,511.12 L152.875,511.12 Z M152.875,504.92 L152.875,509.76 L155.675,509.76 C158.095,509.76 159.035,508.52 159.035,507.3 C159.035,505.68 158.155,504.92 156.315,504.92 L152.875,504.92 Z M164.865,518 L164.865,503.56 L170.185,503.56 C172.705,503.56 174.225,505.16 174.225,507.12 C174.225,508.7 173.525,509.84 171.785,510.44 L171.805,510.48 C173.425,510.88 174.585,512.32 174.585,514.12 C174.585,516.28 173.265,518 169.345,518 L164.865,518 Z M166.465,511.12 L166.465,516.64 L169.465,516.64 C171.825,516.64 172.985,515.84 172.985,514.04 C172.985,512.2 171.505,511.12 169.225,511.12 L166.465,511.12 Z M166.465,504.92 L166.465,509.76 L169.265,509.76 C171.685,509.76 172.625,508.52 172.625,507.3 C172.625,505.68 171.745,504.92 169.905,504.92 L166.465,504.92 Z M185.795,518 L179.395,518 L179.395,516.76 L181.895,516.76 L181.895,505.02 L179.115,505.3 L179.115,504.36 C180.115,504.06 181.255,503.76 181.895,503.36 L183.335,503.36 L183.335,516.76 L185.795,516.76 L185.795,518 Z"/>
    <rect width="288" height="72" y="546" fill="#067486"/>
    <path fill="#FAFAFF" d="M105.355,581.24 L104.955,584.28 L107.655,584.28 L108.075,581.24 L105.355,581.24 Z M104.795,585.4 L104.175,590 L102.935,590 L103.555,585.4 L101.575,585.4 L101.575,584.28 L103.715,584.28 L104.115,581.24 L102.135,581.24 L102.135,580.12 L104.275,580.12 L104.895,575.56 L106.135,575.56 L105.515,580.12 L108.235,580.12 L108.835,575.56 L110.075,575.56 L109.475,580.12 L111.355,580.12 L111.355,581.24 L109.315,581.24 L108.895,584.28 L110.795,584.28 L110.795,585.4 L108.735,585.4 L108.115,590 L106.875,590 L107.495,585.4 L104.795,585.4 Z M113.825,582.78 C113.825,577.56 115.785,575.36 118.925,575.36 C122.065,575.36 124.025,577.56 124.025,582.78 C124.025,588 122.065,590.2 118.925,590.2 C115.785,590.2 113.825,588 113.825,582.78 Z M115.345,582.78 C115.345,587.16 116.585,588.96 118.925,588.96 C121.265,588.96 122.505,587.16 122.505,582.78 C122.505,578.4 121.265,576.6 118.925,576.6 C116.585,576.6 115.345,578.4 115.345,582.78 Z M135.535,576.2 L134.915,577.42 C134.255,576.9 133.575,576.6 132.455,576.6 C130.175,576.6 128.055,578.48 128.015,582.64 C128.895,581.72 129.975,580.92 131.975,580.92 C134.135,580.92 136.315,582.44 136.315,585.56 C136.315,588.64 134.055,590.2 131.655,590.2 C128.655,590.2 126.495,588.44 126.495,583.52 C126.495,578.96 128.535,575.36 132.415,575.36 C133.975,575.36 135.115,575.8 135.535,576.2 Z M134.795,585.6 C134.795,583.36 133.295,582.16 131.775,582.16 C130.015,582.16 128.175,583.6 128.055,585.24 C128.135,587.28 129.455,588.96 131.535,588.96 C133.575,588.96 134.795,587.56 134.795,585.6 Z M146.565,576.8 L139.245,576.8 L139.245,575.56 L148.405,575.56 L148.405,576.44 L142.305,590 L140.625,590 L146.565,576.8 Z M161.555,586.6 L159.075,586.6 L159.075,590 L157.635,590 L157.635,586.6 L150.995,586.6 L150.995,585.36 L156.955,575.56 L159.075,575.56 L159.075,585.36 L161.555,585.36 L161.555,586.6 Z M157.575,577.08 L152.515,585.36 L157.635,585.36 L157.635,577.08 L157.575,577.08 Z M174.065,586.24 C174.065,588.44 172.345,590.2 168.805,590.2 C165.265,590.2 163.545,588.44 163.545,586.24 C163.545,584.4 164.985,583.12 166.705,582.32 L166.705,582.28 C165.105,581.68 164.145,580.46 164.145,578.96 C164.145,576.6 166.145,575.36 168.805,575.36 C171.465,575.36 173.465,576.6 173.465,578.96 C173.465,580.46 172.505,581.68 170.905,582.28 L170.905,582.32 C172.625,582.94 174.065,584.28 174.065,586.24 Z M165.065,586.24 C165.065,587.52 166.185,588.96 168.805,588.96 C171.425,588.96 172.545,587.52 172.545,586.24 C172.545,584.56 170.825,583.72 168.545,582.96 C166.785,583.72 165.065,584.56 165.065,586.24 Z M171.945,578.88 C171.945,577.28 170.385,576.6 168.805,576.6 C167.225,576.6 165.665,577.28 165.665,578.88 C165.665,580.44 167.625,581.32 168.805,581.66 C170.405,581.26 171.945,580.28 171.945,578.88 Z M185.415,576.2 L184.795,577.42 C184.135,576.9 183.455,576.6 182.335,576.6 C180.055,576.6 177.935,578.48 177.895,582.64 C178.775,581.72 179.855,580.92 181.855,580.92 C184.015,580.92 186.195,582.44 186.195,585.56 C186.195,588.64 183.935,590.2 181.535,590.2 C178.535,590.2 176.375,588.44 176.375,583.52 C176.375,578.96 178.415,575.36 182.295,575.36 C183.855,575.36 184.995,575.8 185.415,576.2 Z M184.675,585.6 C184.675,583.36 183.175,582.16 181.655,582.16 C179.895,582.16 178.055,583.6 177.935,585.24 C178.015,587.28 179.335,588.96 181.415,588.96 C183.455,588.96 184.675,587.56 184.675,585.6 Z"/>
    <rect width="288" height="72" y="618" fill="#064D58"/>
    <path fill="#FAFAFF" d="M104.795 653.24L104.395 656.28 107.095 656.28 107.515 653.24 104.795 653.24zM104.235 657.4L103.615 662 102.375 662 102.995 657.4 101.015 657.4 101.015 656.28 103.155 656.28 103.555 653.24 101.575 653.24 101.575 652.12 103.715 652.12 104.335 647.56 105.575 647.56 104.955 652.12 107.675 652.12 108.275 647.56 109.515 647.56 108.915 652.12 110.795 652.12 110.795 653.24 108.755 653.24 108.335 656.28 110.235 656.28 110.235 657.4 108.175 657.4 107.555 662 106.315 662 106.935 657.4 104.235 657.4zM113.265 654.78C113.265 649.56 115.225 647.36 118.365 647.36 121.505 647.36 123.465 649.56 123.465 654.78 123.465 660 121.505 662.2 118.365 662.2 115.225 662.2 113.265 660 113.265 654.78zM114.785 654.78C114.785 659.16 116.025 660.96 118.365 660.96 120.705 660.96 121.945 659.16 121.945 654.78 121.945 650.4 120.705 648.6 118.365 648.6 116.025 648.6 114.785 650.4 114.785 654.78zM134.975 648.2L134.355 649.42C133.695 648.9 133.015 648.6 131.895 648.6 129.615 648.6 127.495 650.48 127.455 654.64 128.335 653.72 129.415 652.92 131.415 652.92 133.575 652.92 135.755 654.44 135.755 657.56 135.755 660.64 133.495 662.2 131.095 662.2 128.095 662.2 125.935 660.44 125.935 655.52 125.935 650.96 127.975 647.36 131.855 647.36 133.415 647.36 134.555 647.8 134.975 648.2zM134.235 657.6C134.235 655.36 132.735 654.16 131.215 654.16 129.455 654.16 127.615 655.6 127.495 657.24 127.575 659.28 128.895 660.96 130.975 660.96 133.015 660.96 134.235 659.56 134.235 657.6zM148.525 658.6L146.045 658.6 146.045 662 144.605 662 144.605 658.6 137.965 658.6 137.965 657.36 143.925 647.56 146.045 647.56 146.045 657.36 148.525 657.36 148.525 658.6zM144.545 649.08L139.485 657.36 144.605 657.36 144.605 649.08 144.545 649.08zM153.275 648.92L153.275 660.64 155.435 660.64C158.755 660.64 160.475 658.66 160.475 654.78 160.475 650.56 158.475 648.92 155.515 648.92L153.275 648.92zM151.675 662L151.675 647.56 155.555 647.56C159.475 647.56 162.075 650.04 162.075 654.78 162.075 659.02 159.795 662 155.475 662L151.675 662zM173.285 647.56L173.285 648.8 167.085 648.8 166.725 653.42C167.665 652.56 168.665 652.24 169.685 652.24 172.085 652.24 174.305 653.88 174.305 657.12 174.305 659.32 172.985 662.2 169.305 662.2 166.845 662.2 165.605 660.84 164.705 659.44L166.005 658.76C166.705 660.06 167.825 660.96 169.345 660.96 171.245 660.96 172.785 659.84 172.785 657.12 172.785 655 171.545 653.48 169.545 653.48 168.145 653.48 167.085 654.32 166.505 655.66L165.245 655.38 165.885 647.56 173.285 647.56zM187.095 658.24C187.095 660.44 185.375 662.2 181.835 662.2 178.295 662.2 176.575 660.44 176.575 658.24 176.575 656.4 178.015 655.12 179.735 654.32L179.735 654.28C178.135 653.68 177.175 652.46 177.175 650.96 177.175 648.6 179.175 647.36 181.835 647.36 184.495 647.36 186.495 648.6 186.495 650.96 186.495 652.46 185.535 653.68 183.935 654.28L183.935 654.32C185.655 654.94 187.095 656.28 187.095 658.24zM178.095 658.24C178.095 659.52 179.215 660.96 181.835 660.96 184.455 660.96 185.575 659.52 185.575 658.24 185.575 656.56 183.855 655.72 181.575 654.96 179.815 655.72 178.095 656.56 178.095 658.24zM184.975 650.88C184.975 649.28 183.415 648.6 181.835 648.6 180.255 648.6 178.695 649.28 178.695 650.88 178.695 652.44 180.655 653.32 181.835 653.66 183.435 653.26 184.975 652.28 184.975 650.88zM104.795 251.24L104.395 254.28 107.095 254.28 107.515 251.24 104.795 251.24zM104.235 255.4L103.615 260 102.375 260 102.995 255.4 101.015 255.4 101.015 254.28 103.155 254.28 103.555 251.24 101.575 251.24 101.575 250.12 103.715 250.12 104.335 245.56 105.575 245.56 104.955 250.12 107.675 250.12 108.275 245.56 109.515 245.56 108.915 250.12 110.795 250.12 110.795 251.24 108.755 251.24 108.335 254.28 110.235 254.28 110.235 255.4 108.175 255.4 107.555 260 106.315 260 106.935 255.4 104.235 255.4zM113.265 252.78C113.265 247.56 115.225 245.36 118.365 245.36 121.505 245.36 123.465 247.56 123.465 252.78 123.465 258 121.505 260.2 118.365 260.2 115.225 260.2 113.265 258 113.265 252.78zM114.785 252.78C114.785 257.16 116.025 258.96 118.365 258.96 120.705 258.96 121.945 257.16 121.945 252.78 121.945 248.4 120.705 246.6 118.365 246.6 116.025 246.6 114.785 248.4 114.785 252.78zM130.735 246.68L128.655 254.12 133.035 254.12 130.955 246.68 130.735 246.68zM126.895 260L125.215 260 129.655 245.56 132.035 245.56 136.475 260 134.795 260 133.435 255.48 128.255 255.48 126.895 260zM147.205 255.4L148.645 255.68C148.005 258.36 146.525 260.2 143.565 260.2 140.325 260.2 138.045 257.84 138.045 252.78 138.045 248.08 140.085 245.36 143.565 245.36 146.245 245.36 147.805 246.92 148.445 249.56L146.965 250C146.445 247.96 145.525 246.72 143.365 246.72 141.285 246.72 139.645 248.64 139.645 252.78 139.645 256.96 141.285 258.84 143.685 258.84 145.905 258.84 146.765 257.16 147.205 255.4zM160.375 258.76L160.375 260 150.995 260 150.995 258.48C153.495 253.42 158.875 253.12 158.875 249.24 158.875 247.56 157.795 246.6 155.955 246.6 153.875 246.6 152.795 248.28 152.555 249.74L151.135 249.42C151.595 247.42 152.775 245.36 155.995 245.36 158.355 245.36 160.395 246.72 160.395 249.2 160.395 253.6 154.075 254.8 152.515 258.76L160.375 258.76zM165.745 246.92L165.745 258.64 167.905 258.64C171.225 258.64 172.945 256.66 172.945 252.78 172.945 248.56 170.945 246.92 167.985 246.92L165.745 246.92zM164.145 260L164.145 245.56 168.025 245.56C171.945 245.56 174.545 248.04 174.545 252.78 174.545 257.02 172.265 260 167.945 260L164.145 260zM177.895 245.56L186.555 245.56 186.555 246.92 179.495 246.92 179.495 251.76 184.515 251.76 184.515 253.12 179.495 253.12 179.495 258.64 186.955 258.64 186.955 260 177.895 260 177.895 245.56z"/>
  </g>
</svg>
