<svg xmlns="http://www.w3.org/2000/svg" width="611" height="243"><g fill="none" fill-rule="evenodd"><path fill="#8B949B" d="M12.629 8.36H5.998V15H4.797V.781h8.808v1.026H5.998v5.527h6.63v1.025zm8.488-2.93a4.365 4.365 0 0 0-.791-.069c-.398 0-.756.059-1.075.176-.319.117-.6.282-.844.493-.244.212-.45.463-.616.752a4.17 4.17 0 0 0-.395.962V15h-1.162V4.434h1.142l.02 1.68a3.497 3.497 0 0 1 1.167-1.373c.491-.335 1.095-.503 1.811-.503.144 0 .29.013.44.04.15.025.26.055.332.087l-.03 1.065zm6.466 9.765c-.69 0-1.325-.128-1.904-.385a4.46 4.46 0 0 1-1.5-1.075 4.938 4.938 0 0 1-.98-1.635 5.936 5.936 0 0 1-.352-2.08V9.6c0-.814.122-1.551.366-2.212.244-.661.574-1.224.991-1.69a4.445 4.445 0 0 1 1.44-1.079 4.024 4.024 0 0 1 1.724-.38c.67 0 1.266.12 1.787.36.521.241.959.577 1.314 1.006.354.43.623.941.805 1.534.183.592.274 1.24.274 1.943v.713h-7.54v.225c0 .579.089 1.124.264 1.635.176.511.423.956.743 1.333.319.378.7.676 1.142.894.443.218.934.327 1.475.327.625 0 1.176-.114 1.655-.342.478-.228.913-.592 1.304-1.094l.732.557c-.176.254-.38.495-.61.723-.231.228-.5.426-.806.595-.306.17-.651.303-1.035.4a5.237 5.237 0 0 1-1.29.147zm-.215-9.96a2.973 2.973 0 0 0-2.231.976c-.29.312-.528.688-.713 1.128-.186.44-.311.926-.376 1.46h6.338v-.127a4.715 4.715 0 0 0-.215-1.284c-.13-.414-.32-.78-.572-1.099a2.816 2.816 0 0 0-.932-.767c-.371-.192-.804-.288-1.299-.288zM35.846 15h-1.172V4.434h1.172V15zM34.469 1.377c0-.221.072-.409.215-.562.143-.153.338-.23.586-.23.247 0 .444.077.59.23.147.153.22.34.22.562a.765.765 0 0 1-.22.557c-.146.15-.343.224-.59.224-.248 0-.443-.075-.586-.224a.774.774 0 0 1-.215-.557zm4.796 8.242c0-.82.093-1.56.279-2.222.185-.66.454-1.225.805-1.694a3.63 3.63 0 0 1 1.285-1.084c.504-.254 1.075-.38 1.713-.38.756 0 1.403.15 1.944.453.54.303.986.725 1.338 1.265l.058-1.523h1.094v10.38c0 .684-.1 1.298-.303 1.841a3.89 3.89 0 0 1-.854 1.382 3.7 3.7 0 0 1-1.333.87 4.804 4.804 0 0 1-1.748.302c-.332 0-.67-.037-1.016-.112a4.656 4.656 0 0 1-1.914-.898 3.722 3.722 0 0 1-.752-.797l.654-.703c.43.528.886.913 1.368 1.157a3.45 3.45 0 0 0 1.582.367c.5 0 .945-.077 1.333-.23.387-.153.714-.374.981-.664.267-.29.47-.641.61-1.055.14-.413.21-.883.21-1.41v-1.231c-.351.488-.797.87-1.338 1.147-.54.277-1.184.415-1.933.415-.632 0-1.198-.132-1.7-.395a3.77 3.77 0 0 1-1.279-1.104c-.351-.472-.62-1.036-.805-1.694a8.004 8.004 0 0 1-.279-2.178V9.62zm1.182.205c0 .619.062 1.193.186 1.724.123.53.312.991.566 1.382.254.39.574.696.962.918.387.221.848.332 1.382.332a3.75 3.75 0 0 0 1.089-.147c.322-.097.607-.233.854-.405.247-.173.462-.376.645-.61.182-.235.338-.492.468-.772V7.334a4.091 4.091 0 0 0-.424-.786 2.94 2.94 0 0 0-1.48-1.123 3.426 3.426 0 0 0-1.133-.171c-.54 0-1.006.112-1.396.337-.39.224-.713.532-.967.923-.254.39-.443.853-.566 1.386a7.602 7.602 0 0 0-.186 1.72v.204zm12.257-3.603c.183-.3.394-.572.635-.816a3.876 3.876 0 0 1 2.803-1.167c.527 0 1 .072 1.416.215.416.143.77.371 1.06.684.289.312.51.714.663 1.206.153.491.23 1.085.23 1.782V15h-1.162V8.115c0-.547-.059-1.002-.176-1.367-.117-.365-.283-.658-.498-.879a1.812 1.812 0 0 0-.786-.473 3.52 3.52 0 0 0-1.03-.142c-.417 0-.795.07-1.133.21-.339.14-.638.327-.899.561a3.74 3.74 0 0 0-.674.806 4.626 4.626 0 0 0-.449.933V15h-1.162V0h1.162v6.22zM65.05 1.729v2.705h2.188v.957h-2.188v7.04c0 .372.038.67.113.894.075.225.175.4.302.528a.942.942 0 0 0 .44.253c.166.043.34.064.522.064.176 0 .345-.011.508-.034.163-.023.31-.044.44-.064l.048.957c-.143.052-.33.093-.561.122a5.47 5.47 0 0 1-.689.044 3.1 3.1 0 0 1-.922-.132 1.654 1.654 0 0 1-.728-.454c-.202-.214-.36-.5-.474-.854-.114-.355-.17-.796-.17-1.323V5.39h-1.944v-.957h1.944V1.729h1.171zM14.445 31.807H9.572V45h-1.2V31.807H3.507V30.78h10.937v1.026zm5.861 13.388c-.69 0-1.325-.128-1.904-.385a4.46 4.46 0 0 1-1.5-1.075 4.938 4.938 0 0 1-.98-1.635 5.936 5.936 0 0 1-.352-2.08v-.42c0-.814.122-1.551.366-2.212.244-.661.575-1.224.991-1.69a4.445 4.445 0 0 1 1.44-1.079 4.024 4.024 0 0 1 1.724-.38c.67 0 1.267.12 1.787.36.521.241.959.577 1.314 1.006.355.43.623.941.805 1.534.183.592.274 1.24.274 1.943v.713h-7.54v.225c0 .579.089 1.124.265 1.635.175.511.423.956.742 1.333.319.378.7.676 1.142.894.443.218.935.327 1.475.327.625 0 1.177-.114 1.655-.342.479-.228.913-.592 1.304-1.094l.732.557c-.175.254-.379.495-.61.723-.231.228-.5.426-.806.595-.306.17-.65.303-1.035.4a5.237 5.237 0 0 1-1.289.147zm-.215-9.96a2.973 2.973 0 0 0-2.231.976c-.29.312-.528.688-.713 1.128-.186.44-.311.926-.376 1.46h6.338v-.127a4.715 4.715 0 0 0-.215-1.284c-.13-.414-.32-.78-.571-1.099a2.816 2.816 0 0 0-.933-.767c-.371-.192-.804-.288-1.299-.288zm10.49 3.486l2.851-4.287h1.387l-3.584 5.185L34.975 45h-1.377l-3.007-4.473L27.583 45h-1.377l3.73-5.38-3.584-5.186h1.377l2.852 4.287zm8.937-6.992v2.705h2.187v.957h-2.187v7.04c0 .372.037.67.112.894.075.225.176.4.303.528a.942.942 0 0 0 .44.253c.165.043.34.064.522.064.176 0 .345-.011.508-.034l.44-.064.048.957c-.143.052-.33.093-.562.122a5.47 5.47 0 0 1-.688.044 3.1 3.1 0 0 1-.923-.132 1.654 1.654 0 0 1-.727-.454c-.202-.214-.36-.5-.474-.854-.114-.355-.171-.796-.171-1.323V35.39h-1.943v-.957h1.943v-2.705h1.172z"/><path fill="#222" d="M52.84 219l.42-4.76 7.98-.98c3.64-.7 3.64-2.1.98-10.5l-5.18-15.4H26.8l-5.04 15.26c-2.66 7.7-2.94 9.94.42 10.64l7 .98.42 4.76H.76l.42-4.76 5.6-.98c4.2-1.12 5.74-2.52 11.76-20.02L38 138.36v-4.48l11.62-4.9 27.02 81.2c.42 1.54 1.68 2.38 3.5 2.66l8.26 1.4.42 4.76H52.84zm-10.08-76.72h-.7l-13.3 39.34h26.46l-12.46-39.34zm111.953 70.14c-4.34 5.46-8.54 8.68-13.02 8.68-5.04 0-8.96-3.08-8.96-10.36h-.56c-5.46 5.74-10.78 10.36-17.5 10.36-9.24 0-17.08-6.72-17.08-16.24 0-11.62 10.5-18.34 35.7-24.36v-1.26c0-14.98-5.04-18.9-14.28-18.9-5.18 0-11.06 2.1-11.06 3.64 0 .7 2.8 2.94 2.8 6.44 0 3.22-2.8 6.3-6.86 6.3-3.92 0-6.72-2.38-6.72-6.16 0-6.72 14.56-16.24 25.9-16.24 15.68 0 20.86 6.44 20.16 27.3l-1.12 26.74c-.14 3.22.84 4.9 3.08 4.9 2.1 0 4.2-1.54 7.14-3.92l2.38 3.08zm-21.7-27.44c-18.76 4.9-25.2 10.22-25.2 17.5 0 6.72 4.62 10.78 10.64 10.78 4.9 0 9.1-2.94 13.72-7.28l.84-21zM265.24 37l.12-1.36 2.28-.28c1.04-.2 1.04-.6.28-3l-1.48-4.4h-8.64l-1.44 4.36c-.76 2.2-.84 2.84.12 3.04l2 .28.12 1.36h-8.24l.12-1.36 1.6-.28c1.2-.32 1.64-.72 3.36-5.72L261 13.96v-1.28l3.32-1.4 7.72 23.2c.12.44.48.68 1 .76l2.36.4.12 1.36h-10.28zm-2.88-21.92h-.2l-3.8 11.24h7.56l-3.56-11.24zm31.12 20.04c-1.24 1.56-2.44 2.48-3.72 2.48-1.44 0-2.56-.88-2.56-2.96h-.16c-1.56 1.64-3.08 2.96-5 2.96-2.64 0-4.88-1.92-4.88-4.64 0-3.32 3-5.24 10.2-6.96v-.36c0-4.28-1.44-5.4-4.08-5.4-1.48 0-3.16.6-3.16 1.04 0 .2.8.84.8 1.84 0 .92-.8 1.8-1.96 1.8-1.12 0-1.92-.68-1.92-1.76 0-1.92 4.16-4.64 7.4-4.64 4.48 0 5.96 1.84 5.76 7.8l-.32 7.64c-.04.92.24 1.4.88 1.4.6 0 1.2-.44 2.04-1.12l.68.88zm-6.2-7.84c-5.36 1.4-7.2 2.92-7.2 5 0 1.92 1.32 3.08 3.04 3.08 1.4 0 2.6-.84 3.92-2.08l.24-6zm35.8 2.92c0 4.48-3.64 6.8-9.84 6.8H303.2l.12-1.36 2.08-.24c.68-.08 1.04-.28 1.04-.56V14.12c0-.32-.2-.4-1.04-.52l-2.08-.24-.12-1.36h10.2c6.6 0 8.76 2.64 8.76 5.52 0 3.2-2.44 5.8-6.08 6.44v.16c4.84.52 7 3.08 7 6.08zm-4.44-11.68c0-3.16-1.92-5.08-6.4-5.08h-2.52v10l3.16-.04c4 0 5.76-2.64 5.76-4.88zm.96 11.96c0-3.72-3.08-5.56-7.4-5.56h-2.48V35l3.12.56 1.16-.04c2.96-.2 5.6-1.76 5.6-5.04zm24.92-3c0 5.4-3.52 10.12-9.28 10.12-1.2 0-3.24-.48-4.44-.92h-.08l-1.8 1.16h-.44V13.2c0-.44-.12-.68-.4-.76l-3-.88.12-1 6.12-1.44V21.6h.16c1.44-1.56 3.52-2.84 5.8-2.84 4.36 0 7.24 3.76 7.24 8.72zm-3.08 1.12c0-4.48-2.16-7.44-5.36-7.44-2.04 0-3.68 1.16-4.76 2.4v10.28c1.24 1.16 2.68 2.2 4.6 2.2 3.08 0 5.52-2.96 5.52-7.44zm35.96 8.44l-1.84-.4c-1.48.48-3.96.96-6.16.96-7.68 0-13.64-4.72-13.64-12.72 0-8.28 6-13.44 13.8-13.44 2.36 0 4.4.4 5.56.76l3.04-.64v8.12h-1.68l-1.04-5.2c-1.4-.8-3.12-1.48-6.12-1.48-5.88 0-9.92 4.8-9.92 11.36 0 6.88 3.8 11.72 10.36 11.72 1.96 0 3.76-.44 5.16-1.2l1.68-5.4h1.76l-.96 7.56zm20.48-3.96c-1.44 2.88-4.04 4.48-7.2 4.48-4.64 0-8.04-3.72-8.04-8.96 0-5.88 4.28-10.04 9.32-10.04 3.64 0 5.72 1.84 5.72 3.72 0 1.56-1.08 2.04-2.04 2.04-1.44 0-2.44-1.48-1.84-3.52v-.08c-.6-.44-1.44-.72-2.52-.72-3.16 0-5.6 2.88-5.6 7.2 0 4.48 2.6 7.84 6.28 7.84 1.88 0 3.68-.72 5.12-2.44l.8.48zM432.32 24c0 6.92-4.92 13-14.84 13h-8.84l.12-1.36 2.08-.24c.68-.08 1.04-.28 1.04-.56V14.12c0-.32-.2-.4-1.04-.52l-2.08-.24-.12-1.36 8.88-.12c9.16-.12 14.8 5.08 14.8 12.12zm-3.6.92c0-6.88-4.2-11.48-12.04-11.48h-1.52V35l3.2.52c6.56-.12 10.36-4.72 10.36-10.6zm27 11.96l-5.96.72v-2.68h-.12c-1.32 1.44-3.28 2.64-5.64 2.64-4.2 0-7.48-3.72-7.48-8.96 0-5.48 3.8-9.92 9.56-9.92 1.16 0 2.52.28 3.6.72h.08v-7c0-.4-.12-.64-.36-.72l-3.12-.72.16-.96 6.16-.88v25.4c0 .44.12.68.4.76l2.84.64-.12.96zm-5.96-14.28c-1.24-1.24-2.64-2.32-4.6-2.32-3.32 0-5.52 2.92-5.52 7.28 0 4.64 2.24 7.6 5.72 7.6 1.88 0 3.24-.76 4.4-1.84V22.6zM485.08 37h-19.2l.12-1.36 2.08-.24c.68-.08 1.04-.28 1.04-.56V14.12c0-.32-.2-.4-1.04-.52l-2.08-.24-.12-1.36h19.2v7.24h-1.72l-.88-4.04c-.44-1.6-.76-1.72-8.56-1.72h-1.52v10.04h1.52c3.32 0 3.84-.04 4.04-.76l.88-2.68h1.4l-.84 8.32h-1.32l-.32-2.56c0-.64-.28-.88-3.92-.88h-1.44v10.56h1.08c8.48 0 8.88-.24 9.4-1.72l1-3.88h1.96l-.76 7.08zm19.84-3.92c-1.44 2.88-4.04 4.48-7.2 4.48-4.64 0-8.04-3.72-8.04-8.96 0-5.88 4.2-10.04 9.16-10.04 3.8 0 6.16 2.32 6.16 5.8 0 .68-.08 1.52-.2 2.12l-12.04-.16c-.04.16-.04.8-.04.96 0 4.52 2.6 7.76 6.28 7.76 1.88 0 3.68-.72 5.12-2.44l.8.48zm-3.12-8c.2-3.16-1.28-5.12-3.68-5.12-2.2 0-4.56 1.96-5.2 5.16 1.72-.04 3.2-.04 4.52-.04h4.36zm31.64-5.84l-.84-4.04c-.44-1.6-.84-1.72-8.56-1.72h-1.24v10.28h1.84c3.4 0 3.72-.04 4.04-.76l.92-2.68h1.36l-.84 8.32h-1.32l-.28-2.56c-.12-.64-.32-.88-3.96-.88h-1.76v9.68c0 .32.24.4 1.04.52l2.88.24.12 1.36h-10.56l.12-1.36 2.08-.24c.68-.08 1.04-.28 1.04-.56V14.12c0-.32-.2-.4-1.04-.52l-2.08-.24-.12-1.36h18.92v7.24h-1.76zm19.2-7.72c0 1.12-.76 1.8-1.72 1.8-1.12 0-2.08-.88-2.52-2.48l-.04-.2-1-.08c-2.24.92-3.48 3.36-3.48 7.36v1.28h5.56l-.28 1.84h-5.28v13.88c0 .32.2.52 1.12.56l2.64.16.12 1.36h-9.52l.12-1.36 1.68-.16c.68-.04 1-.24 1-.6V21.12l-3.36-.16.24-1.76h2.92l.04-1c.2-5.36 4-9.08 8.28-9.08 1.88 0 3.48.96 3.48 2.4zm32.2 15.8l-2.08.24c-.68.12-1.04.32-1.04.6v6.24l2.32.2.08 1.04c-3.32 1.12-7.44 1.96-10.92 1.96-7.8 0-13.68-4.72-13.68-12.72 0-8.36 6.32-13.44 14.04-13.44 2.4 0 4.4.4 5.52.76l3.04-.64v8.12h-1.68l-1.04-5.2c-1.4-.8-3.12-1.48-6.16-1.48-5.76 0-10.08 4.8-10.08 11.36 0 6.88 3.68 11.72 10.2 11.72 1.92 0 3.88-.48 5.12-1v-7c0-.32-.2-.4-1.04-.52l-2.52-.24-.12-1.32h10.16l-.12 1.32zM601 21.16v.2c.76.92 1.24 1.96 1.24 3.56 0 3.48-3.08 6.36-7.04 6.36-.76 0-1.68-.08-2.2-.24-.64.32-1.88 1.12-1.88 2.08 0 1.08 1.04 1.84 2.52 1.84 1.32 0 3.8-.08 4.64-.08 3.6 0 5.88 2.28 5.88 5.12 0 4.2-4.2 7.12-9.88 7.12-4.32 0-7.08-1.92-7.08-4.76 0-2.48 1.88-3.88 3.76-4.72v-.16c-1.48-.28-2.56-1.56-2.56-2.88 0-1.6 1.52-3.04 3.24-3.84 0-.08 0-.12.04-.12h.04c-2.04-.92-3.44-2.8-3.44-5.52 0-3.68 3.04-6.56 7.08-6.56 1.76 0 3.2.4 4.48 1l5.44.04v2.32l-4.28-.76zM599.28 25c0-1.8-.48-3.24-1.44-4.16-.72-.68-1.56-1-2.52-1-2.44 0-4.04 2-4.04 4.76 0 2.04.64 3.6 1.72 4.56.68.56 1.44.84 2.24.84 1.12 0 2-.28 2.6-.88.96-.84 1.44-2.24 1.44-4.12zm2.2 16.28c0-2.04-1.08-3.44-4.32-3.56-1.6 0-1.64.08-4.64.08-.92.32-2.6 1.68-2.6 3.64 0 2.68 2.56 4.2 5.84 4.2 3.36 0 5.72-1.92 5.72-4.36zM268.88 102l.12-1.36 2.08-.24c.68-.08 1.04-.28 1.04-.56V90H259.2v9.88c0 .32.24.4 1.04.52l2.08.24.12 1.36h-9.76l.12-1.36 2.08-.24c.68-.08 1.04-.28 1.04-.56V79.12c0-.32-.2-.4-1.04-.52l-2.08-.24-.12-1.36h9.76l-.12 1.36-2.08.24c-.68.08-1.04.28-1.04.56v9.2h12.92v-9.24c0-.36-.2-.4-1.04-.52l-2.08-.24-.12-1.36h9.76l-.12 1.36-2.08.24c-.68.08-1.04.28-1.04.56v20.72c0 .32.2.4 1.04.52l2.08.24.12 1.36h-9.76zm24.36 0l.12-1.36 1.64-.16c.84-.04 1-.24 1-.6v-8.72c0-3.96-1.44-5.16-3.84-5.16-1.88 0-3.64 1.08-4.76 2v11.92c0 .32.16.52 1.08.56l1.84.16.12 1.36h-8.64l.12-1.36 1.6-.16c.68-.04 1-.24 1-.6v-21.6c0-.48-.16-.76-.44-.84l-2.8-.88.12-1 6-1.44v12.32h.2c2.04-1.72 4.16-2.88 6.4-2.88 1.24 0 2.44.36 3.36 1.28 1.08 1.08 1.48 2.52 1.48 4.44v10.6c0 .32.12.48 1.2.6l1.56.16.12 1.36h-8.48zm18.76 0l.12-1.36 2.48-.24c.68-.08 1.04-.28 1.04-.56V79.12c0-.32-.2-.4-1.04-.52l-2.48-.24L312 77h10.56l-.12 1.36-2.48.24c-.68.08-1.04.28-1.04.56v20.72c0 .32.24.4 1.04.52l2.48.24.12 1.36H312zm19.92-24.28c0 1.16-.64 2.24-2.04 2.24s-2.04-1.08-2.04-2.24c0-1.16.64-2.24 2.04-2.24s2.04 1 2.04 2.24zM326.08 102l.12-1.36 1.68-.16c.68-.04 1-.24 1-.6V88.64c0-1.96-.24-2.12-1.36-2.44l-1.6-.24.08-1.08 5.72-1.32v16.36c0 .32.2.52 1.12.56l1.68.16.12 1.36h-8.56zm32.04-23.64l-2.32.24c-.8.12-1.04.24-1.04.56v13c0 6.72-2.6 10.44-7.28 10.44-2.36 0-3.84-1.04-3.84-2.48 0-1.08.76-1.72 1.84-1.72.68 0 1.32.24 1.84.76.48.48.84 1.16 1.08 2.08h.04c2.04-.52 3-2.12 3-8.48V79.12c0-.36-.2-.4-1.04-.52l-2.76-.24-.12-1.36h10.72l-.12 1.36zm8.56-.64c0 1.16-.64 2.24-2.04 2.24s-2.04-1.08-2.04-2.24c0-1.16.64-2.24 2.04-2.24s2.04 1 2.04 2.24zm-.2 25.6c-.32 5.68-3.32 9.12-6.32 9.12-1.56 0-2.88-.76-2.88-2.36 0-1.08.96-1.88 1.92-1.88 1.28 0 2.08.92 2.52 2.36 1.4-.44 1.92-2.36 1.92-5.36V88.64c0-1.96-.24-2.12-1.36-2.44l-1.6-.24.08-1.08 5.72-1.32v19.76zM394.2 102l.12-1.36 1.56-.24c.32-.12.28-.44 0-.88l-7.04-9.92-2.72 2.68v7.6c0 .32.24.4 1.04.52l2.08.24.12 1.36h-9.76l.12-1.36 2.08-.24c.68-.08 1.04-.28 1.04-.56V79.12c0-.32-.2-.4-1.04-.52l-2.08-.24-.12-1.36h9.76l-.12 1.36-2.08.24c-.68.08-1.04.28-1.04.56v10.96l8.6-8.64c2.08-2.04 2.08-2.76.84-2.88l-2.04-.24-.12-1.36h9.56l-.12 1.36-1.68.2c-.92.16-1.6.56-3 1.96l-7.12 7.08 8.6 11.52c.76 1 1.04 1.2 1.84 1.32l1.44.2.12 1.36h-8.84zm23.76 0l-2.08-3.4-3.76-5.4-1.8 1.64v5.08c0 .32.16.44 1.08.56l1.56.16.12 1.36h-8.36l.12-1.36 1.6-.16c.76-.12 1-.16 1-.6v-21.6c0-.48-.16-.76-.44-.84l-2.8-.88.12-1 6-1.44v18.84l4.24-3.96c1.24-1.12 2.24-2.04 2.24-2.64 0-.48-.48-.64-1.12-.76l-1.28-.12-.12-1.32h8.32l-.12 1.32-1 .16c-1.04.12-1.96.84-4.08 2.76l-3.24 2.96 5.72 7.8c.6.76.96 1.28 1.56 1.32l1.56.16.12 1.36h-5.16zm33.72 0h-18.56l.12-1.36 2.08-.24c.68-.08 1.04-.28 1.04-.56V79.12c0-.32-.2-.4-1.04-.52l-2.08-.24-.12-1.36h10.12l-.12 1.36-2.44.24c-.68.08-1.04.28-1.04.56v21.36h1c7.88 0 8.44-.24 8.88-1.72l1.2-4.76h1.84l-.88 7.96zm4.24 0l.12-1.36 1.68-.16c.68-.04 1-.24 1-.6v-21.6c0-.48-.16-.76-.44-.84l-2.92-.88.12-1 6.08-1.44v25.8c0 .32.2.52 1.12.56l1.68.16.12 1.36h-8.56zm40.08 0l.12-1.36 2.6-.2c.56-.08.8-1.28.6-5.68l-.56-15.52h-.28l-8.04 21.96h-1.68l-7.8-21.16h-.4l-.68 14.6c-.2 5.12-.28 5.72.36 5.72l2.64.28.12 1.36h-8.92l.16-1.36 2.68-.28c.64-.12.88-.48 1.2-5.72l.68-13.16c.08-1.56-.32-2.48-1.16-2.68l-2.84-.44-.12-1.36h8.56l7.08 19.28h.2L497.44 77h8.36l-.08 1.36-2.96.2c-.52.04-.68.52-.72.96l.56 15.24c.12 4.64.44 5.56.96 5.68l2.52.2.12 1.36H496zm35.4 0l.12-1.36 1.56-.16c.84-.04 1-.24 1-.6v-8.84c0-3.88-1.6-5.04-3.68-5.04-1.64 0-3.36 1.04-4.48 2.04 0 .32.04 2.04.04 2.36v9.48c0 .32.08.48 1.16.6l1.68.16.12 1.36h-8.52l.12-1.36 1.56-.16c.84-.04 1-.24 1-.6v-8.84c0-3.88-1.6-5.04-3.68-5.04-1.64 0-3.36 1.04-4.44 1.96v11.96c0 .32.16.52 1.08.56l1.92.16.12 1.36h-8.72l.12-1.36 1.6-.16c.68-.04 1-.24 1-.6V88.64c0-1.96-.24-2.12-1.32-2.44l-1.6-.24.04-1.08 5.76-1.32v2.88h.12c1.96-1.72 4.04-2.88 6.12-2.88 1.16 0 2.4.4 3.24 1.2.52.52.92 1.2 1.16 1.96h.16c2.04-1.88 4.24-3.16 6.36-3.16 1.24 0 2.44.36 3.36 1.28 1 1 1.48 2.44 1.48 4.36v10.68c0 .32.08.48 1.16.6l1.56.16.12 1.36h-8.4zm45.52-23.64l-2.4.32c-1.16.2-1.32.52-1.32 5.68v17.96h-1.92l-15.72-22h-.16v14.32c0 5.16.12 5.48 1.28 5.68l2.4.32.12 1.36H550l.12-1.36 2.4-.32c1.16-.2 1.28-.52 1.28-5.68v-13.2c0-1.72-.32-2.28-1.24-2.72l-2.28-.36-.12-1.36h6.92l14.4 20.16h.12v-12.8c0-5.16-.12-5.48-1.28-5.68l-2.4-.32-.12-1.36h9.24l-.12 1.36zM591.36 102l.12-1.36 1.64-.16c.84-.04 1-.24 1-.6v-8.72c0-3.96-1.44-5.16-3.84-5.16-1.88 0-3.64 1.08-4.76 2v11.92c0 .32.16.52 1.08.56l1.84.16.12 1.36h-8.64l.12-1.36 1.6-.16c.68-.04 1-.24 1-.6V88.56c0-1.84-.16-2.04-1.24-2.36l-1.68-.24.04-1.08 5.76-1.32v2.88h.2c2.04-1.72 4.16-2.88 6.4-2.88 1.24 0 2.44.36 3.36 1.28 1.08 1.08 1.48 2.52 1.48 4.44v10.6c0 .32.12.48 1.2.6l1.6.16.12 1.36h-8.52zm-312.64 52.4c0 7.16-5.52 13.2-13 13.2-7.36 0-12.88-5.2-12.88-12.88 0-7.16 5.52-13.24 13-13.24 7.32 0 12.88 5.24 12.88 12.92zm-3.64.44c0-7.48-4.44-11.92-9.4-11.92s-9.2 4.16-9.2 11.36c0 7.48 4.4 11.92 9.36 11.92 4.96 0 9.24-4.16 9.24-11.36zm25.88 2.84c0 5.6-3.96 9.92-9.24 9.92s-8.72-4.04-8.72-9.44c0-5.48 4.12-9.6 9.28-9.6 5.12 0 8.68 3.84 8.68 9.12zm-3.12 1.2c0-2.92-.68-5.6-2.16-7.16-.76-.76-2.04-1.64-3.8-1.64-3.28 0-5.72 2.88-5.72 7.2 0 3 .72 5.6 2.2 7.16.76.76 1.96 1.6 3.76 1.6 3.2 0 5.72-2.8 5.72-7.16zm33.72-10.04c0 5.12-4.32 8.04-9.64 8.04-1.16 0-2.32-.08-3.4-.2v8.2c0 .32.24.4 1.04.52l2.84.24.12 1.36H312l.12-1.36 2.08-.24c.68-.08 1.04-.28 1.04-.56v-20.72c0-.32-.2-.4-1.04-.52l-2.08-.24L312 142h9.68c6.68 0 9.88 3.04 9.88 6.84zm-3.52.64c0-3.8-2.48-6.04-6.48-6h-2.12c-.32 0-.64 0-.92.04v11.56c1 .28 2.08.4 3.24.4 3.84 0 6.28-2.28 6.28-6zm25.16 8c0 5.4-3.52 10.12-9.24 10.12-1.24 0-2.8-.28-3.88-.72H340v7.88c0 .32.16.52 1.12.56l2.08.16.12 1.36h-8.96l.12-1.36 1.64-.16c.68-.04 1-.24 1-.6v-21.16c0-1.84-.16-2.04-1.24-2.36l-1.68-.24.08-1.08 5.72-1.32v3.04h.16c1.44-1.56 3.52-2.84 5.8-2.84 4.36 0 7.24 3.76 7.24 8.72zm-3.08 1.12c0-4.48-2.16-7.44-5.36-7.44-2.04 0-3.68 1.16-4.76 2.4v10.28c1.24 1.16 2.68 2.2 4.6 2.2 3.04 0 5.52-2.96 5.52-7.44zm42.24 14.88c-1.12.36-3.16.72-5.08.72-5.12 0-7.92-1.84-10.36-6.6-7.04-.12-12.48-5.32-12.48-12.88 0-7.16 5.52-13.24 13-13.24 7.32 0 12.88 5.24 12.88 12.92 0 6.04-3.92 11.24-9.6 12.76 2.76 4.8 6.28 5.68 11.52 5.04l.12 1.28zm-5.68-18.64c0-7.48-4.44-11.92-9.4-11.92s-9.2 4.16-9.2 11.36c0 7.48 4.4 11.92 9.36 11.92 4.96 0 9.24-4.16 9.24-11.36zm17.92 22l.12-1.36 2.08-.16c.84-.04 1-.24 1-.6v-9.8h-.12c-1.32 1.44-3.28 2.64-5.64 2.64-4.2 0-7.48-3.72-7.48-8.96 0-5.48 3.8-9.92 9.56-9.92 1.4 0 3.08.44 4.2.96h.08l1.8-1.12h.44v26.2c0 .32.12.48 1.2.6l1.6.16.12 1.36h-8.96zm3.2-24.24c-1.24-1.24-2.64-2.32-4.6-2.32-3.32 0-5.52 2.92-5.52 7.28 0 4.64 2.24 7.6 5.72 7.6 1.88 0 3.24-.76 4.4-1.84V152.6zm31.12-3.76c0-3.64-2-5.56-6.28-5.28-.2 0-.92 0-1.52.04-.36.04-.72.04-1.16.04v10.64c.2 0 .36 0 .56.04.32.04.72.08 1.16.12.48.04 1.04.08 1.68.12 3.36-.36 5.56-2.2 5.56-5.72zm3.08 14.84c.96 1.4 1.32 1.56 1.92 1.68l1.64.28.12 1.36h-5.88l-1.52-2.76-4.88-8.32c-.64.04-1.2.04-1.72.04h-1.72v8.92c0 .32.24.4 1.04.52l2.28.24.12 1.36h-9.96l.12-1.36 2.08-.24c.68-.08 1.04-.28 1.04-.56v-20.72c0-.32-.2-.4-1.04-.52l-2.08-.24-.12-1.36h10.24c6.08 0 8.8 2.48 8.8 6.12s-2.36 5.92-5.92 7.16l5.44 8.4zm18.84-13.12c0 1.12-.64 2.04-1.88 2.04-.84 0-1.56-.6-1.92-1.28-1.2.72-3.16 2.64-4.08 4.6v9c0 .32.16.52 1.08.56l2.12.16.12 1.36h-8.92l.12-1.36 1.6-.16c.68-.04 1-.24 1-.6v-11.32c0-1.84-.16-2.04-1.24-2.36l-1.64-.24.08-1.08 5.68-1.32v5.2h.16c2.36-3.84 3.72-5.24 5.48-5.24 1.44 0 2.24.92 2.24 2.04zm26.68 9.68c0 3.92-3.52 7.36-9.16 7.36-2.72.04-4.96-.44-7-1.08l-.6-7.08h1.6l1.68 5.52c1.32.6 3.36 1.08 4.92 1.08 3.64 0 5.6-2.32 5.6-4.72 0-3.32-2.44-4.48-6.28-5.88-3.88-1.52-7-3-7-7.2 0-3.52 2.64-6.8 8.24-6.8 2.2-.04 3.56.16 4.68.44l2.08-.6v7.88h-1.6l-1.12-5.12c-1.32-.6-3.12-1-4.56-1-3.24 0-4.84 2-4.84 4.16 0 3.24 2.64 4.24 6.16 5.64 4.04 1.48 7.2 3 7.2 7.4zm16.8 1.68c0 2.92-2.36 5.68-6.96 5.68-1.88 0-3.76-.24-5.2-.84l-.24-5.16h1.8l.84 3.56c.92.64 2 1.04 3.28 1.04 1.96 0 3.96-1.32 3.96-3.36 0-2-2.16-2.8-4.48-3.64-2.64-.96-5.28-2.16-5.28-5.52 0-2.68 2.2-5.2 6.24-5.2 1.76 0 2.88.32 3.88.64l1.2-.4.32 5.6h-1.76l-.76-3.48c-.92-.6-2.12-.96-3.2-.96-2.04 0-3.4 1.2-3.4 2.84 0 1.92 1.8 2.68 4.4 3.64 2.68.96 5.36 2.2 5.36 5.56zm31.08-12.24l-.88-4.2c-.32-1.48-.72-2-6.32-2h-.28v21.4c0 .32.24.4 1.04.52l2.72.24.12 1.36h-11.04l.12-1.36 2.72-.24c.68-.08 1.04-.28 1.04-.56v-21.36h-.28c-5.44 0-6 .24-6.44 1.72l-1.08 4.48h-1.8l.68-7.68h21.4v7.68h-1.72zm16.04 15.64c-1.28 1.32-3.32 2.28-5.08 2.28-2.72 0-4.6-1.52-4.56-5.2l.24-11.28-3.16-.16.04-1.16 2.72-1.64 1.88-2.52 1.4.16-.04 3.4h6.48l-.28 1.84h-6.2l-.24 10.64c-.12 2.68 1.08 3.64 3.2 3.64 1.08 0 2.28-.44 3.36-1.04l.24 1.04zm36.12-21.96l-2.36.32c-1.16.2-1.32.52-1.32 5.68v9.36c0 5.52-3.64 8.88-9.56 8.88-5.84 0-9.48-2.8-9.48-9.2v-14.28c0-.32-.2-.4-1.04-.52l-2.08-.24-.12-1.36h9.76l-.12 1.36-2.08.24c-.68.08-1.04.28-1.04.56V158c0 5.72 3.16 7.56 7.32 7.56 4.52 0 6.84-2.84 6.84-7.04v-9.16c0-5.16-.12-5.48-1.28-5.68l-2.4-.32-.12-1.36h9.2l-.12 1.36zm22.48 23.52l-6 .72v-2.92h-.2c-2.04 1.72-4.16 2.92-6.4 2.92-1.24 0-2.44-.4-3.36-1.32-1.08-1-1.48-2.52-1.48-4.4l.08-10.64c0-.6-.2-.44-1.28-.6l-1.52-.16-.12-1.32h5.96l-.28 10.8c0 4 1.44 5.2 3.84 5.2 1.88 0 3.64-1.08 4.76-2.04v-11.88c0-.36-.16-.48-1.08-.6l-2-.16-.12-1.32h6.08v15.36c0 .44.12.68.36.76l2.88.64-.12.96zm-333.96 41.48l-1.56.28c-1.36.32-1.6.72-3.4 5.72l-6.16 17.72h-3.28l-7.88-22.56c-.12-.44-.36-.64-.96-.76l-2.4-.4-.12-1.36h10.28l-.12 1.36-2.28.28c-1.08.2-.84.6-.08 3L264 229.2h.36l5-14.84c1.6-4.68 1.2-5.68-.24-5.8l-1.52-.2-.12-1.36h8.72l-.12 1.36zm18.84 7.12l-1.32.28c-.88.12-1.16.4-1.8 2.12l-5.52 14.4h-2l-6.08-15.36c-.36-.84-.6-1-1.56-1.16l-1.24-.24-.16-1.36h8.36l-.12 1.32-1.48.2c-.64.12-1 .32-.72 1.08L286 229l4.12-11.28c.48-1.32.52-1.84-.56-1.96l-1.56-.28-.12-1.32h7.16l-.12 1.32zm44.52-7.12l-1.44.28c-1.24.4-1.44.56-3.16 5.72l-5.6 17.72h-2.32l-5.8-17.28h-.08L315 232.08h-2.36l-7.44-22.56c-.12-.44-.36-.64-.96-.76l-2.36-.4-.12-1.36h10.28l-.12 1.36-2.28.28c-1 .16-.88.64-.08 3l5 16.24h.16l5.44-15.44-.96-2.92c-.12-.44-.36-.64-1-.76l-2.28-.4-.12-1.36h10.16l-.12 1.36-2.36.28c-.92.16-.84.76-.08 3l5.28 16.28.12-.04 4.04-13.52c1.6-5.04 1.4-5.36 0-5.68l-2.08-.32-.12-1.36h8.92l-.12 1.36zm28.48 7.12l-1.24.2c-1 .12-1.28.44-1.88 2.2l-4.64 14.4h-1.96l-4.36-11.64-4.6 11.64h-1.96L342 216.92c-.28-.84-.56-1.08-1.4-1.2l-1.2-.2-.12-1.36h8l-.12 1.32-1.32.2c-.64.12-1.04.48-.76 1.16l4.04 12L353 218.6l-.6-1.68c-.32-.84-.6-1.04-1.52-1.16l-1.24-.28-.12-1.32h8.12l-.12 1.32-1.28.2c-.68.12-1.08.4-.8 1.16l4.32 12.08 3.36-11c.44-1.44.36-2.08-.88-2.24l-1.24-.2-.12-1.32h7.16l-.12 1.32zm22.4 16.52l.12-1.36 2-.24c1.24-.16.76-.88-.68-3.08l-4.44-6.68h-.16l-5 7.56c-1 1.4-.84 2 .12 2.16l1.76.28.16 1.36h-8.72l.12-1.36 1.8-.28c.96-.28 1.48-.8 2.44-2.08l6.36-8.84-6.96-9.92c-.28-.36-.76-.72-1.12-.76l-2.08-.4-.16-1.36h9.96l-.12 1.36-1.96.24c-1.32.2-.84.88.56 3.08l3.88 5.76h.16l4.4-6.68c.88-1.28.84-2-.08-2.16l-1.84-.24-.12-1.36h8.64l-.12 1.36-1.76.28c-.96.28-1.56.8-2.48 2.08l-5.68 7.96 7.64 10.8c.28.36.68.64 1.12.76l2.08.4.12 1.36h-9.96zm21.6 0l.12-1.32 1.16-.24c.92-.2.92-.56.12-1.72l-3.24-4.44h-.04l-3.4 4.4c-.92 1.24-1 1.64.08 1.76l1.32.24.12 1.32h-7.32l.12-1.32 1.36-.24c.84-.12 1.24-.56 2.48-1.96l4.32-5.24-4.32-5.6c-1.08-1.4-1.52-1.76-2.44-1.88l-1.16-.28-.12-1.32h8.16l-.12 1.32-1.16.24c-.92.12-.84.52 0 1.68l2.88 3.96h.04l3-3.92c.92-1.16 1-1.6-.08-1.72l-1.32-.24-.12-1.32h7.4l-.12 1.32-1.36.24c-1 .12-1.36.52-2.52 1.92l-3.96 4.76 4.64 6.08c1.08 1.4 1.56 1.76 2.36 1.92l1.12.24.12 1.36h-8.12zm40.12-23.64l-1.2.2c-1.08.32-1.76.68-2.72 2.16l-6.28 10.4v8.76c0 .32.2.4 1.04.52l2.72.24.12 1.36h-11.08l.12-1.36 2.76-.24c.68-.08 1.04-.28 1.04-.56v-8.32l-7.44-11.76c-.32-.44-.88-.96-1.64-1.12l-1.64-.28-.12-1.36h9.76l-.12 1.36-2 .24c-.92.12-.84.88.48 3.08l4.8 7.96h.2l5.2-8.88c.84-1.4.68-2-.32-2.2l-1.52-.2-.12-1.36h8.08l-.12 1.36zm18.84 7.12l-1.32.28c-.84.12-1.16.4-1.84 2.12l-4.88 13.28-1.92 6.08c-1.12 3.48-2.32 5.24-4.68 5.24-1.6 0-2.6-.84-2.6-2.08 0-1.12.6-2 1.88-2 1.24 0 1.84.6 2.28 1.44.68-.32 1.16-1.28 1.76-3.08l1.52-4.36v-.04l-6.96-15.44c-.36-.8-.52-1-1.52-1.16l-1.16-.24-.16-1.36h8.24l-.12 1.32-1.36.2c-.64.04-1 .32-.68 1.08l4.96 11.8 3.8-10.84c.44-1.4.32-1.84-.76-1.96l-1.48-.28-.12-1.32H471l-.12 1.32zM498.64 232H479.4v-1.36l15.76-22v-.16h-4.52c-7.2 0-7.56.48-8.08 2.28l-.8 3.64h-1.6V207h18.88v1.4l-15.72 22-.04.16 4.56-.04c7.8 0 8.28-.44 8.8-2.04l1-3.96h1.84l-.84 7.48zm7.24-1.4h1.72c5.96 0 6.96-.28 7.72-2.04l1.48-3.32h1.68l-1.6 6.76h-14.56v-1.2l11.56-15.28h-1.28c-5.96 0-6.88.32-7.2 2.04l-.64 3.36H503v-6.76h14.4v1.2l-11.52 15.24z"/></g></svg>