<svg xmlns="http://www.w3.org/2000/svg" width="288" height="690" viewBox="0 0 288 690">
  <g fill="none" fill-rule="evenodd">
    <rect width="288" height="258" y="216" fill="#8193DC"/>
    <rect width="288" height="72" fill="#E0E5F4"/>
    <path fill="#2C2C36" d="M105.905,35.24 L105.505,38.28 L108.205,38.28 L108.625,35.24 L105.905,35.24 Z M105.345,39.4 L104.725,44 L103.485,44 L104.105,39.4 L102.125,39.4 L102.125,38.28 L104.265,38.28 L104.665,35.24 L102.685,35.24 L102.685,34.12 L104.825,34.12 L105.445,29.56 L106.685,29.56 L106.065,34.12 L108.785,34.12 L109.385,29.56 L110.625,29.56 L110.025,34.12 L111.905,34.12 L111.905,35.24 L109.865,35.24 L109.445,38.28 L111.345,38.28 L111.345,39.4 L109.285,39.4 L108.665,44 L107.425,44 L108.045,39.4 L105.345,39.4 Z M115.535,29.56 L124.195,29.56 L124.195,30.92 L117.135,30.92 L117.135,35.76 L122.155,35.76 L122.155,37.12 L117.135,37.12 L117.135,42.64 L124.595,42.64 L124.595,44 L115.535,44 L115.535,29.56 Z M126.845,36.78 C126.845,31.56 128.805,29.36 131.945,29.36 C135.085,29.36 137.045,31.56 137.045,36.78 C137.045,42 135.085,44.2 131.945,44.2 C128.805,44.2 126.845,42 126.845,36.78 Z M128.365,36.78 C128.365,41.16 129.605,42.96 131.945,42.96 C134.285,42.96 135.525,41.16 135.525,36.78 C135.525,32.4 134.285,30.6 131.945,30.6 C129.605,30.6 128.365,32.4 128.365,36.78 Z M140.475,29.56 L149.135,29.56 L149.135,30.92 L142.075,30.92 L142.075,35.76 L147.095,35.76 L147.095,37.12 L142.075,37.12 L142.075,42.64 L149.535,42.64 L149.535,44 L140.475,44 L140.475,29.56 Z M160.805,29.56 L160.805,30.8 L154.605,30.8 L154.245,35.42 C155.185,34.56 156.185,34.24 157.205,34.24 C159.605,34.24 161.825,35.88 161.825,39.12 C161.825,41.32 160.505,44.2 156.825,44.2 C154.365,44.2 153.125,42.84 152.225,41.44 L153.525,40.76 C154.225,42.06 155.345,42.96 156.865,42.96 C158.765,42.96 160.305,41.84 160.305,39.12 C160.305,37 159.065,35.48 157.065,35.48 C155.665,35.48 154.605,36.32 154.025,37.66 L152.765,37.38 L153.405,29.56 L160.805,29.56 Z M165.255,29.56 L173.815,29.56 L173.815,30.92 L166.855,30.92 L166.855,35.76 L172.015,35.76 L172.015,37.12 L166.855,37.12 L166.855,44 L165.255,44 L165.255,29.56 Z M185.945,40.6 L183.465,40.6 L183.465,44 L182.025,44 L182.025,40.6 L175.385,40.6 L175.385,39.36 L181.345,29.56 L183.465,29.56 L183.465,39.36 L185.945,39.36 L185.945,40.6 Z M181.965,31.08 L176.905,39.36 L182.025,39.36 L182.025,31.08 L181.965,31.08 Z"/>
    <rect width="288" height="72" y="72" fill="#BFC6E5"/>
    <path fill="#FAFAFF" d="M105.345,107.24 L104.945,110.28 L107.645,110.28 L108.065,107.24 L105.345,107.24 Z M104.785,111.4 L104.165,116 L102.925,116 L103.545,111.4 L101.565,111.4 L101.565,110.28 L103.705,110.28 L104.105,107.24 L102.125,107.24 L102.125,106.12 L104.265,106.12 L104.885,101.56 L106.125,101.56 L105.505,106.12 L108.225,106.12 L108.825,101.56 L110.065,101.56 L109.465,106.12 L111.345,106.12 L111.345,107.24 L109.305,107.24 L108.885,110.28 L110.785,110.28 L110.785,111.4 L108.725,111.4 L108.105,116 L106.865,116 L107.485,111.4 L104.785,111.4 Z M114.975,116 L114.975,101.56 L120.295,101.56 C122.815,101.56 124.335,103.16 124.335,105.12 C124.335,106.7 123.635,107.84 121.895,108.44 L121.915,108.48 C123.535,108.88 124.695,110.32 124.695,112.12 C124.695,114.28 123.375,116 119.455,116 L114.975,116 Z M116.575,109.12 L116.575,114.64 L119.575,114.64 C121.935,114.64 123.095,113.84 123.095,112.04 C123.095,110.2 121.615,109.12 119.335,109.12 L116.575,109.12 Z M116.575,102.92 L116.575,107.76 L119.375,107.76 C121.795,107.76 122.735,106.52 122.735,105.3 C122.735,103.68 121.855,102.92 120.015,102.92 L116.575,102.92 Z M128.405,101.56 L136.965,101.56 L136.965,102.92 L130.005,102.92 L130.005,107.76 L135.165,107.76 L135.165,109.12 L130.005,109.12 L130.005,116 L128.405,116 L128.405,101.56 Z M147.775,111.4 L149.215,111.68 C148.575,114.36 147.095,116.2 144.135,116.2 C140.895,116.2 138.615,113.84 138.615,108.78 C138.615,104.08 140.655,101.36 144.135,101.36 C146.815,101.36 148.375,102.92 149.015,105.56 L147.535,106 C147.015,103.96 146.095,102.72 143.935,102.72 C141.855,102.72 140.215,104.64 140.215,108.78 C140.215,112.96 141.855,114.84 144.255,114.84 C146.475,114.84 147.335,113.16 147.775,111.4 Z M160.485,102.2 L159.865,103.42 C159.205,102.9 158.525,102.6 157.405,102.6 C155.125,102.6 153.005,104.48 152.965,108.64 C153.845,107.72 154.925,106.92 156.925,106.92 C159.085,106.92 161.265,108.44 161.265,111.56 C161.265,114.64 159.005,116.2 156.605,116.2 C153.605,116.2 151.445,114.44 151.445,109.52 C151.445,104.96 153.485,101.36 157.365,101.36 C158.925,101.36 160.065,101.8 160.485,102.2 Z M159.745,111.6 C159.745,109.36 158.245,108.16 156.725,108.16 C154.965,108.16 153.125,109.6 153.005,111.24 C153.085,113.28 154.405,114.96 156.485,114.96 C158.525,114.96 159.745,113.56 159.745,111.6 Z M164.875,101.56 L173.535,101.56 L173.535,102.92 L166.475,102.92 L166.475,107.76 L171.495,107.76 L171.495,109.12 L166.475,109.12 L166.475,114.64 L173.935,114.64 L173.935,116 L164.875,116 L164.875,101.56 Z M185.205,101.56 L185.205,102.8 L179.005,102.8 L178.645,107.42 C179.585,106.56 180.585,106.24 181.605,106.24 C184.005,106.24 186.225,107.88 186.225,111.12 C186.225,113.32 184.905,116.2 181.225,116.2 C178.765,116.2 177.525,114.84 176.625,113.44 L177.925,112.76 C178.625,114.06 179.745,114.96 181.265,114.96 C183.165,114.96 184.705,113.84 184.705,111.12 C184.705,109 183.465,107.48 181.465,107.48 C180.065,107.48 179.005,108.32 178.425,109.66 L177.165,109.38 L177.805,101.56 L185.205,101.56 Z"/>
    <rect width="288" height="72" y="144" fill="#A4AED7"/>
    <path fill="#FAFAFF" d="M104.795,179.24 L104.395,182.28 L107.095,182.28 L107.515,179.24 L104.795,179.24 Z M104.235,183.4 L103.615,188 L102.375,188 L102.995,183.4 L101.015,183.4 L101.015,182.28 L103.155,182.28 L103.555,179.24 L101.575,179.24 L101.575,178.12 L103.715,178.12 L104.335,173.56 L105.575,173.56 L104.955,178.12 L107.675,178.12 L108.275,173.56 L109.515,173.56 L108.915,178.12 L110.795,178.12 L110.795,179.24 L108.755,179.24 L108.335,182.28 L110.235,182.28 L110.235,183.4 L108.175,183.4 L107.555,188 L106.315,188 L106.935,183.4 L104.235,183.4 Z M118.265,174.68 L116.185,182.12 L120.565,182.12 L118.485,174.68 L118.265,174.68 Z M114.425,188 L112.745,188 L117.185,173.56 L119.565,173.56 L124.005,188 L122.325,188 L120.965,183.48 L115.785,183.48 L114.425,188 Z M136.055,184.6 L133.575,184.6 L133.575,188 L132.135,188 L132.135,184.6 L125.495,184.6 L125.495,183.36 L131.455,173.56 L133.575,173.56 L133.575,183.36 L136.055,183.36 L136.055,184.6 Z M132.075,175.08 L127.015,183.36 L132.135,183.36 L132.135,175.08 L132.075,175.08 Z M143.205,174.68 L141.125,182.12 L145.505,182.12 L143.425,174.68 L143.205,174.68 Z M139.365,188 L137.685,188 L142.125,173.56 L144.505,173.56 L148.945,188 L147.265,188 L145.905,183.48 L140.725,183.48 L139.365,188 Z M151.835,173.56 L160.495,173.56 L160.495,174.92 L153.435,174.92 L153.435,179.76 L158.455,179.76 L158.455,181.12 L153.435,181.12 L153.435,186.64 L160.895,186.64 L160.895,188 L151.835,188 L151.835,173.56 Z M165.745,174.92 L165.745,186.64 L167.905,186.64 C171.225,186.64 172.945,184.66 172.945,180.78 C172.945,176.56 170.945,174.92 167.985,174.92 L165.745,174.92 Z M164.145,188 L164.145,173.56 L168.025,173.56 C171.945,173.56 174.545,176.04 174.545,180.78 C174.545,185.02 172.265,188 167.945,188 L164.145,188 Z M184.535,174.8 L177.215,174.8 L177.215,173.56 L186.375,173.56 L186.375,174.44 L180.275,188 L178.595,188 L184.535,174.8 Z"/>
    <rect width="288" height="72" y="474" fill="#6775B1"/>
    <path fill="#FAFAFF" d="M104.795,509.24 L104.395,512.28 L107.095,512.28 L107.515,509.24 L104.795,509.24 Z M104.235,513.4 L103.615,518 L102.375,518 L102.995,513.4 L101.015,513.4 L101.015,512.28 L103.155,512.28 L103.555,509.24 L101.575,509.24 L101.575,508.12 L103.715,508.12 L104.335,503.56 L105.575,503.56 L104.955,508.12 L107.675,508.12 L108.275,503.56 L109.515,503.56 L108.915,508.12 L110.795,508.12 L110.795,509.24 L108.755,509.24 L108.335,512.28 L110.235,512.28 L110.235,513.4 L108.175,513.4 L107.555,518 L106.315,518 L106.935,513.4 L104.235,513.4 Z M122.505,504.2 L121.885,505.42 C121.225,504.9 120.545,504.6 119.425,504.6 C117.145,504.6 115.025,506.48 114.985,510.64 C115.865,509.72 116.945,508.92 118.945,508.92 C121.105,508.92 123.285,510.44 123.285,513.56 C123.285,516.64 121.025,518.2 118.625,518.2 C115.625,518.2 113.465,516.44 113.465,511.52 C113.465,506.96 115.505,503.36 119.385,503.36 C120.945,503.36 122.085,503.8 122.505,504.2 Z M121.765,513.6 C121.765,511.36 120.265,510.16 118.745,510.16 C116.985,510.16 115.145,511.6 115.025,513.24 C115.105,515.28 116.425,516.96 118.505,516.96 C120.545,516.96 121.765,515.56 121.765,513.6 Z M133.535,504.8 L126.215,504.8 L126.215,503.56 L135.375,503.56 L135.375,504.44 L129.275,518 L127.595,518 L133.535,504.8 Z M146.005,504.8 L138.685,504.8 L138.685,503.56 L147.845,503.56 L147.845,504.44 L141.745,518 L140.065,518 L146.005,504.8 Z M159.695,503.56 L159.695,504.8 L153.495,504.8 L153.135,509.42 C154.075,508.56 155.075,508.24 156.095,508.24 C158.495,508.24 160.715,509.88 160.715,513.12 C160.715,515.32 159.395,518.2 155.715,518.2 C153.255,518.2 152.015,516.84 151.115,515.44 L152.415,514.76 C153.115,516.06 154.235,516.96 155.755,516.96 C157.655,516.96 159.195,515.84 159.195,513.12 C159.195,511 157.955,509.48 155.955,509.48 C154.555,509.48 153.495,510.32 152.915,511.66 L151.655,511.38 L152.295,503.56 L159.695,503.56 Z M164.305,518 L164.305,503.56 L169.625,503.56 C172.145,503.56 173.665,505.16 173.665,507.12 C173.665,508.7 172.965,509.84 171.225,510.44 L171.245,510.48 C172.865,510.88 174.025,512.32 174.025,514.12 C174.025,516.28 172.705,518 168.785,518 L164.305,518 Z M165.905,511.12 L165.905,516.64 L168.905,516.64 C171.265,516.64 172.425,515.84 172.425,514.04 C172.425,512.2 170.945,511.12 168.665,511.12 L165.905,511.12 Z M165.905,504.92 L165.905,509.76 L168.705,509.76 C171.125,509.76 172.065,508.52 172.065,507.3 C172.065,505.68 171.185,504.92 169.345,504.92 L165.905,504.92 Z M185.235,518 L178.835,518 L178.835,516.76 L181.335,516.76 L181.335,505.02 L178.555,505.3 L178.555,504.36 C179.555,504.06 180.695,503.76 181.335,503.36 L182.775,503.36 L182.775,516.76 L185.235,516.76 L185.235,518 Z"/>
    <rect width="288" height="72" y="546" fill="#4F5985"/>
    <path fill="#FAFAFF" d="M105.905,581.24 L105.505,584.28 L108.205,584.28 L108.625,581.24 L105.905,581.24 Z M105.345,585.4 L104.725,590 L103.485,590 L104.105,585.4 L102.125,585.4 L102.125,584.28 L104.265,584.28 L104.665,581.24 L102.685,581.24 L102.685,580.12 L104.825,580.12 L105.445,575.56 L106.685,575.56 L106.065,580.12 L108.785,580.12 L109.385,575.56 L110.625,575.56 L110.025,580.12 L111.905,580.12 L111.905,581.24 L109.865,581.24 L109.445,584.28 L111.345,584.28 L111.345,585.4 L109.285,585.4 L108.665,590 L107.425,590 L108.045,585.4 L105.345,585.4 Z M124.695,586.6 L122.215,586.6 L122.215,590 L120.775,590 L120.775,586.6 L114.135,586.6 L114.135,585.36 L120.095,575.56 L122.215,575.56 L122.215,585.36 L124.695,585.36 L124.695,586.6 Z M120.715,577.08 L115.655,585.36 L120.775,585.36 L120.775,577.08 L120.715,577.08 Z M127.845,575.56 L136.405,575.56 L136.405,576.92 L129.445,576.92 L129.445,581.76 L134.605,581.76 L134.605,583.12 L129.445,583.12 L129.445,590 L127.845,590 L127.845,575.56 Z M147.235,575.56 L147.235,576.8 L141.035,576.8 L140.675,581.42 C141.615,580.56 142.615,580.24 143.635,580.24 C146.035,580.24 148.255,581.88 148.255,585.12 C148.255,587.32 146.935,590.2 143.255,590.2 C140.795,590.2 139.555,588.84 138.655,587.44 L139.955,586.76 C140.655,588.06 141.775,588.96 143.295,588.96 C145.195,588.96 146.735,587.84 146.735,585.12 C146.735,583 145.495,581.48 143.495,581.48 C142.095,581.48 141.035,582.32 140.455,583.66 L139.195,583.38 L139.835,575.56 L147.235,575.56 Z M151.665,589.36 L152.285,588.14 C152.945,588.66 153.625,588.96 154.745,588.96 C157.025,588.96 159.005,586.92 159.185,582.92 C158.305,583.84 157.225,584.64 155.225,584.64 C153.065,584.64 150.885,583.12 150.885,580 C150.885,576.92 153.145,575.36 155.545,575.36 C158.545,575.36 160.705,577.12 160.705,582.04 C160.705,586.6 158.665,590.2 154.785,590.2 C153.225,590.2 152.085,589.76 151.665,589.36 Z M152.405,579.96 C152.405,582.2 153.905,583.4 155.425,583.4 C157.185,583.4 158.545,582.24 159.105,580.72 C159.065,578.2 157.745,576.6 155.665,576.6 C153.625,576.6 152.405,578 152.405,579.96 Z M173.515,586.24 C173.515,588.44 171.795,590.2 168.255,590.2 C164.715,590.2 162.995,588.44 162.995,586.24 C162.995,584.4 164.435,583.12 166.155,582.32 L166.155,582.28 C164.555,581.68 163.595,580.46 163.595,578.96 C163.595,576.6 165.595,575.36 168.255,575.36 C170.915,575.36 172.915,576.6 172.915,578.96 C172.915,580.46 171.955,581.68 170.355,582.28 L170.355,582.32 C172.075,582.94 173.515,584.28 173.515,586.24 Z M164.515,586.24 C164.515,587.52 165.635,588.96 168.255,588.96 C170.875,588.96 171.995,587.52 171.995,586.24 C171.995,584.56 170.275,583.72 167.995,582.96 C166.235,583.72 164.515,584.56 164.515,586.24 Z M171.395,578.88 C171.395,577.28 169.835,576.6 168.255,576.6 C166.675,576.6 165.115,577.28 165.115,578.88 C165.115,580.44 167.075,581.32 168.255,581.66 C169.855,581.26 171.395,580.28 171.395,578.88 Z M184.645,575.56 L184.645,576.8 L178.445,576.8 L178.085,581.42 C179.025,580.56 180.025,580.24 181.045,580.24 C183.445,580.24 185.665,581.88 185.665,585.12 C185.665,587.32 184.345,590.2 180.665,590.2 C178.205,590.2 176.965,588.84 176.065,587.44 L177.365,586.76 C178.065,588.06 179.185,588.96 180.705,588.96 C182.605,588.96 184.145,587.84 184.145,585.12 C184.145,583 182.905,581.48 180.905,581.48 C179.505,581.48 178.445,582.32 177.865,583.66 L176.605,583.38 L177.245,575.56 L184.645,575.56 Z"/>
    <rect width="288" height="72" y="618" fill="#333B5A"/>
    <path fill="#FAFAFF" d="M104.795 653.24L104.395 656.28 107.095 656.28 107.515 653.24 104.795 653.24zM104.235 657.4L103.615 662 102.375 662 102.995 657.4 101.015 657.4 101.015 656.28 103.155 656.28 103.555 653.24 101.575 653.24 101.575 652.12 103.715 652.12 104.335 647.56 105.575 647.56 104.955 652.12 107.675 652.12 108.275 647.56 109.515 647.56 108.915 652.12 110.795 652.12 110.795 653.24 108.755 653.24 108.335 656.28 110.235 656.28 110.235 657.4 108.175 657.4 107.555 662 106.315 662 106.935 657.4 104.235 657.4zM112.945 659.36L114.105 658.56C115.205 660.04 116.565 660.96 118.065 660.96 120.185 660.96 121.465 659.88 121.465 658.16 121.465 656.14 120.265 654.92 117.385 654.92L115.965 654.92 115.965 653.68 116.825 653.68C119.705 653.68 120.945 652.76 120.945 650.98 120.945 649.52 119.685 648.6 118.305 648.6 116.545 648.6 115.785 649.36 114.825 650.6L113.645 649.8C114.625 648.44 115.985 647.36 118.305 647.36 120.865 647.36 122.465 648.68 122.465 650.96 122.465 652.7 121.345 653.72 120.225 654.16 122.505 655.04 122.985 656.68 122.985 658 122.985 660.46 121.085 662.2 118.065 662.2 115.305 662.2 113.625 660.48 112.945 659.36zM125.415 659.36L126.575 658.56C127.675 660.04 129.035 660.96 130.535 660.96 132.655 660.96 133.935 659.88 133.935 658.16 133.935 656.14 132.735 654.92 129.855 654.92L128.435 654.92 128.435 653.68 129.295 653.68C132.175 653.68 133.415 652.76 133.415 650.98 133.415 649.52 132.155 648.6 130.775 648.6 129.015 648.6 128.255 649.36 127.295 650.6L126.115 649.8C127.095 648.44 128.455 647.36 130.775 647.36 133.335 647.36 134.935 648.68 134.935 650.96 134.935 652.7 133.815 653.72 132.695 654.16 134.975 655.04 135.455 656.68 135.455 658 135.455 660.46 133.555 662.2 130.535 662.2 127.775 662.2 126.095 660.48 125.415 659.36zM137.885 659.36L139.045 658.56C140.145 660.04 141.505 660.96 143.005 660.96 145.125 660.96 146.405 659.88 146.405 658.16 146.405 656.14 145.205 654.92 142.325 654.92L140.905 654.92 140.905 653.68 141.765 653.68C144.645 653.68 145.885 652.76 145.885 650.98 145.885 649.52 144.625 648.6 143.245 648.6 141.485 648.6 140.725 649.36 139.765 650.6L138.585 649.8C139.565 648.44 140.925 647.36 143.245 647.36 145.805 647.36 147.405 648.68 147.405 650.96 147.405 652.7 146.285 653.72 145.165 654.16 147.445 655.04 147.925 656.68 147.925 658 147.925 660.46 146.025 662.2 143.005 662.2 140.245 662.2 138.565 660.48 137.885 659.36zM151.835 662L151.835 647.56 157.155 647.56C159.675 647.56 161.195 649.16 161.195 651.12 161.195 652.7 160.495 653.84 158.755 654.44L158.775 654.48C160.395 654.88 161.555 656.32 161.555 658.12 161.555 660.28 160.235 662 156.315 662L151.835 662zM153.435 655.12L153.435 660.64 156.435 660.64C158.795 660.64 159.955 659.84 159.955 658.04 159.955 656.2 158.475 655.12 156.195 655.12L153.435 655.12zM153.435 648.92L153.435 653.76 156.235 653.76C158.655 653.76 159.595 652.52 159.595 651.3 159.595 649.68 158.715 648.92 156.875 648.92L153.435 648.92zM173.285 647.56L173.285 648.8 167.085 648.8 166.725 653.42C167.665 652.56 168.665 652.24 169.685 652.24 172.085 652.24 174.305 653.88 174.305 657.12 174.305 659.32 172.985 662.2 169.305 662.2 166.845 662.2 165.605 660.84 164.705 659.44L166.005 658.76C166.705 660.06 167.825 660.96 169.345 660.96 171.245 660.96 172.785 659.84 172.785 657.12 172.785 655 171.545 653.48 169.545 653.48 168.145 653.48 167.085 654.32 166.505 655.66L165.245 655.38 165.885 647.56 173.285 647.56zM181.735 648.68L179.655 656.12 184.035 656.12 181.955 648.68 181.735 648.68zM177.895 662L176.215 662 180.655 647.56 183.035 647.56 187.475 662 185.795 662 184.435 657.48 179.255 657.48 177.895 662zM104.795 251.24L104.395 254.28 107.095 254.28 107.515 251.24 104.795 251.24zM104.235 255.4L103.615 260 102.375 260 102.995 255.4 101.015 255.4 101.015 254.28 103.155 254.28 103.555 251.24 101.575 251.24 101.575 250.12 103.715 250.12 104.335 245.56 105.575 245.56 104.955 250.12 107.675 250.12 108.275 245.56 109.515 245.56 108.915 250.12 110.795 250.12 110.795 251.24 108.755 251.24 108.335 254.28 110.235 254.28 110.235 255.4 108.175 255.4 107.555 260 106.315 260 106.935 255.4 104.235 255.4zM123.625 256.24C123.625 258.44 121.905 260.2 118.365 260.2 114.825 260.2 113.105 258.44 113.105 256.24 113.105 254.4 114.545 253.12 116.265 252.32L116.265 252.28C114.665 251.68 113.705 250.46 113.705 248.96 113.705 246.6 115.705 245.36 118.365 245.36 121.025 245.36 123.025 246.6 123.025 248.96 123.025 250.46 122.065 251.68 120.465 252.28L120.465 252.32C122.185 252.94 123.625 254.28 123.625 256.24zM114.625 256.24C114.625 257.52 115.745 258.96 118.365 258.96 120.985 258.96 122.105 257.52 122.105 256.24 122.105 254.56 120.385 253.72 118.105 252.96 116.345 253.72 114.625 254.56 114.625 256.24zM121.505 248.88C121.505 247.28 119.945 246.6 118.365 246.6 116.785 246.6 115.225 247.28 115.225 248.88 115.225 250.44 117.185 251.32 118.365 251.66 119.965 251.26 121.505 250.28 121.505 248.88zM134.235 260L127.835 260 127.835 258.76 130.335 258.76 130.335 247.02 127.555 247.3 127.555 246.36C128.555 246.06 129.695 245.76 130.335 245.36L131.775 245.36 131.775 258.76 134.235 258.76 134.235 260zM139.185 259.36L139.805 258.14C140.465 258.66 141.145 258.96 142.265 258.96 144.545 258.96 146.525 256.92 146.705 252.92 145.825 253.84 144.745 254.64 142.745 254.64 140.585 254.64 138.405 253.12 138.405 250 138.405 246.92 140.665 245.36 143.065 245.36 146.065 245.36 148.225 247.12 148.225 252.04 148.225 256.6 146.185 260.2 142.305 260.2 140.745 260.2 139.605 259.76 139.185 259.36zM139.925 249.96C139.925 252.2 141.425 253.4 142.945 253.4 144.705 253.4 146.065 252.24 146.625 250.72 146.585 248.2 145.265 246.6 143.185 246.6 141.145 246.6 139.925 248 139.925 249.96zM150.355 257.36L151.515 256.56C152.615 258.04 153.975 258.96 155.475 258.96 157.595 258.96 158.875 257.88 158.875 256.16 158.875 254.14 157.675 252.92 154.795 252.92L153.375 252.92 153.375 251.68 154.235 251.68C157.115 251.68 158.355 250.76 158.355 248.98 158.355 247.52 157.095 246.6 155.715 246.6 153.955 246.6 153.195 247.36 152.235 248.6L151.055 247.8C152.035 246.44 153.395 245.36 155.715 245.36 158.275 245.36 159.875 246.68 159.875 248.96 159.875 250.7 158.755 251.72 157.635 252.16 159.915 253.04 160.395 254.68 160.395 256 160.395 258.46 158.495 260.2 155.475 260.2 152.715 260.2 151.035 258.48 150.355 257.36zM165.745 246.92L165.745 258.64 167.905 258.64C171.225 258.64 172.945 256.66 172.945 252.78 172.945 248.56 170.945 246.92 167.985 246.92L165.745 246.92zM164.145 260L164.145 245.56 168.025 245.56C171.945 245.56 174.545 248.04 174.545 252.78 174.545 257.02 172.265 260 167.945 260L164.145 260zM185.735 255.4L187.175 255.68C186.535 258.36 185.055 260.2 182.095 260.2 178.855 260.2 176.575 257.84 176.575 252.78 176.575 248.08 178.615 245.36 182.095 245.36 184.775 245.36 186.335 246.92 186.975 249.56L185.495 250C184.975 247.96 184.055 246.72 181.895 246.72 179.815 246.72 178.175 248.64 178.175 252.78 178.175 256.96 179.815 258.84 182.215 258.84 184.435 258.84 185.295 257.16 185.735 255.4z"/>
  </g>
</svg>
