<svg xmlns="http://www.w3.org/2000/svg" width="368" height="690" viewBox="0 0 368 690">
  <g fill="none" fill-rule="evenodd">
    <rect width="368" height="258" fill="#223746"/>
    <rect width="368" height="72" y="258" fill="#465462"/>
    <path fill="#FAFAFF" d="M145.355,293.24 L144.955,296.28 L147.655,296.28 L148.075,293.24 L145.355,293.24 Z M144.795,297.4 L144.175,302 L142.935,302 L143.555,297.4 L141.575,297.4 L141.575,296.28 L143.715,296.28 L144.115,293.24 L142.135,293.24 L142.135,292.12 L144.275,292.12 L144.895,287.56 L146.135,287.56 L145.515,292.12 L148.235,292.12 L148.835,287.56 L150.075,287.56 L149.475,292.12 L151.355,292.12 L151.355,293.24 L149.315,293.24 L148.895,296.28 L150.795,296.28 L150.795,297.4 L148.735,297.4 L148.115,302 L146.875,302 L147.495,297.4 L144.795,297.4 Z M164.145,298.6 L161.665,298.6 L161.665,302 L160.225,302 L160.225,298.6 L153.585,298.6 L153.585,297.36 L159.545,287.56 L161.665,287.56 L161.665,297.36 L164.145,297.36 L164.145,298.6 Z M160.165,289.08 L155.105,297.36 L160.225,297.36 L160.225,289.08 L160.165,289.08 Z M175.535,288.2 L174.915,289.42 C174.255,288.9 173.575,288.6 172.455,288.6 C170.175,288.6 168.055,290.48 168.015,294.64 C168.895,293.72 169.975,292.92 171.975,292.92 C174.135,292.92 176.315,294.44 176.315,297.56 C176.315,300.64 174.055,302.2 171.655,302.2 C168.655,302.2 166.495,300.44 166.495,295.52 C166.495,290.96 168.535,287.36 172.415,287.36 C173.975,287.36 175.115,287.8 175.535,288.2 Z M174.795,297.6 C174.795,295.36 173.295,294.16 171.775,294.16 C170.015,294.16 168.175,295.6 168.055,297.24 C168.135,299.28 169.455,300.96 171.535,300.96 C173.575,300.96 174.795,299.56 174.795,297.6 Z M187.785,287.56 L187.785,288.8 L181.585,288.8 L181.225,293.42 C182.165,292.56 183.165,292.24 184.185,292.24 C186.585,292.24 188.805,293.88 188.805,297.12 C188.805,299.32 187.485,302.2 183.805,302.2 C181.345,302.2 180.105,300.84 179.205,299.44 L180.505,298.76 C181.205,300.06 182.325,300.96 183.845,300.96 C185.745,300.96 187.285,299.84 187.285,297.12 C187.285,295 186.045,293.48 184.045,293.48 C182.645,293.48 181.585,294.32 181.005,295.66 L179.745,295.38 L180.385,287.56 L187.785,287.56 Z M201.555,298.6 L199.075,298.6 L199.075,302 L197.635,302 L197.635,298.6 L190.995,298.6 L190.995,297.36 L196.955,287.56 L199.075,287.56 L199.075,297.36 L201.555,297.36 L201.555,298.6 Z M197.575,289.08 L192.515,297.36 L197.635,297.36 L197.635,289.08 L197.575,289.08 Z M212.945,288.2 L212.325,289.42 C211.665,288.9 210.985,288.6 209.865,288.6 C207.585,288.6 205.465,290.48 205.425,294.64 C206.305,293.72 207.385,292.92 209.385,292.92 C211.545,292.92 213.725,294.44 213.725,297.56 C213.725,300.64 211.465,302.2 209.065,302.2 C206.065,302.2 203.905,300.44 203.905,295.52 C203.905,290.96 205.945,287.36 209.825,287.36 C211.385,287.36 212.525,287.8 212.945,288.2 Z M212.205,297.6 C212.205,295.36 210.705,294.16 209.185,294.16 C207.425,294.16 205.585,295.6 205.465,297.24 C205.545,299.28 206.865,300.96 208.945,300.96 C210.985,300.96 212.205,299.56 212.205,297.6 Z M225.875,300.76 L225.875,302 L216.495,302 L216.495,300.48 C218.995,295.42 224.375,295.12 224.375,291.24 C224.375,289.56 223.295,288.6 221.455,288.6 C219.375,288.6 218.295,290.28 218.055,291.74 L216.635,291.42 C217.095,289.42 218.275,287.36 221.495,287.36 C223.855,287.36 225.895,288.72 225.895,291.2 C225.895,295.6 219.575,296.8 218.015,300.76 L225.875,300.76 Z"/>
    <rect width="368" height="72" y="330" fill="#67757D"/>
    <path fill="#FAFAFF" d="M144.795,365.24 L144.395,368.28 L147.095,368.28 L147.515,365.24 L144.795,365.24 Z M144.235,369.4 L143.615,374 L142.375,374 L142.995,369.4 L141.015,369.4 L141.015,368.28 L143.155,368.28 L143.555,365.24 L141.575,365.24 L141.575,364.12 L143.715,364.12 L144.335,359.56 L145.575,359.56 L144.955,364.12 L147.675,364.12 L148.275,359.56 L149.515,359.56 L148.915,364.12 L150.795,364.12 L150.795,365.24 L148.755,365.24 L148.335,368.28 L150.235,368.28 L150.235,369.4 L148.175,369.4 L147.555,374 L146.315,374 L146.935,369.4 L144.235,369.4 Z M162.505,360.2 L161.885,361.42 C161.225,360.9 160.545,360.6 159.425,360.6 C157.145,360.6 155.025,362.48 154.985,366.64 C155.865,365.72 156.945,364.92 158.945,364.92 C161.105,364.92 163.285,366.44 163.285,369.56 C163.285,372.64 161.025,374.2 158.625,374.2 C155.625,374.2 153.465,372.44 153.465,367.52 C153.465,362.96 155.505,359.36 159.385,359.36 C160.945,359.36 162.085,359.8 162.505,360.2 Z M161.765,369.6 C161.765,367.36 160.265,366.16 158.745,366.16 C156.985,366.16 155.145,367.6 155.025,369.24 C155.105,371.28 156.425,372.96 158.505,372.96 C160.545,372.96 161.765,371.56 161.765,369.6 Z M173.535,360.8 L166.215,360.8 L166.215,359.56 L175.375,359.56 L175.375,360.44 L169.275,374 L167.595,374 L173.535,360.8 Z M186.005,360.8 L178.685,360.8 L178.685,359.56 L187.845,359.56 L187.845,360.44 L181.745,374 L180.065,374 L186.005,360.8 Z M199.695,359.56 L199.695,360.8 L193.495,360.8 L193.135,365.42 C194.075,364.56 195.075,364.24 196.095,364.24 C198.495,364.24 200.715,365.88 200.715,369.12 C200.715,371.32 199.395,374.2 195.715,374.2 C193.255,374.2 192.015,372.84 191.115,371.44 L192.415,370.76 C193.115,372.06 194.235,372.96 195.755,372.96 C197.655,372.96 199.195,371.84 199.195,369.12 C199.195,367 197.955,365.48 195.955,365.48 C194.555,365.48 193.495,366.32 192.915,367.66 L191.655,367.38 L192.295,359.56 L199.695,359.56 Z M210.945,360.8 L203.625,360.8 L203.625,359.56 L212.785,359.56 L212.785,360.44 L206.685,374 L205.005,374 L210.945,360.8 Z M218.215,360.92 L218.215,372.64 L220.375,372.64 C223.695,372.64 225.415,370.66 225.415,366.78 C225.415,362.56 223.415,360.92 220.455,360.92 L218.215,360.92 Z M216.615,374 L216.615,359.56 L220.495,359.56 C224.415,359.56 227.015,362.04 227.015,366.78 C227.015,371.02 224.735,374 220.415,374 L216.615,374 Z"/>
    <rect width="368" height="72" y="402" fill="#89919A"/>
    <path fill="#FAFAFF" d="M145.355,437.24 L144.955,440.28 L147.655,440.28 L148.075,437.24 L145.355,437.24 Z M144.795,441.4 L144.175,446 L142.935,446 L143.555,441.4 L141.575,441.4 L141.575,440.28 L143.715,440.28 L144.115,437.24 L142.135,437.24 L142.135,436.12 L144.275,436.12 L144.895,431.56 L146.135,431.56 L145.515,436.12 L148.235,436.12 L148.835,431.56 L150.075,431.56 L149.475,436.12 L151.355,436.12 L151.355,437.24 L149.315,437.24 L148.895,440.28 L150.795,440.28 L150.795,441.4 L148.735,441.4 L148.115,446 L146.875,446 L147.495,441.4 L144.795,441.4 Z M164.185,442.24 C164.185,444.44 162.465,446.2 158.925,446.2 C155.385,446.2 153.665,444.44 153.665,442.24 C153.665,440.4 155.105,439.12 156.825,438.32 L156.825,438.28 C155.225,437.68 154.265,436.46 154.265,434.96 C154.265,432.6 156.265,431.36 158.925,431.36 C161.585,431.36 163.585,432.6 163.585,434.96 C163.585,436.46 162.625,437.68 161.025,438.28 L161.025,438.32 C162.745,438.94 164.185,440.28 164.185,442.24 Z M155.185,442.24 C155.185,443.52 156.305,444.96 158.925,444.96 C161.545,444.96 162.665,443.52 162.665,442.24 C162.665,440.56 160.945,439.72 158.665,438.96 C156.905,439.72 155.185,440.56 155.185,442.24 Z M162.065,434.88 C162.065,433.28 160.505,432.6 158.925,432.6 C157.345,432.6 155.785,433.28 155.785,434.88 C155.785,436.44 157.745,437.32 158.925,437.66 C160.525,437.26 162.065,436.28 162.065,434.88 Z M167.275,445.36 L167.895,444.14 C168.555,444.66 169.235,444.96 170.355,444.96 C172.635,444.96 174.615,442.92 174.795,438.92 C173.915,439.84 172.835,440.64 170.835,440.64 C168.675,440.64 166.495,439.12 166.495,436 C166.495,432.92 168.755,431.36 171.155,431.36 C174.155,431.36 176.315,433.12 176.315,438.04 C176.315,442.6 174.275,446.2 170.395,446.2 C168.835,446.2 167.695,445.76 167.275,445.36 Z M168.015,435.96 C168.015,438.2 169.515,439.4 171.035,439.4 C172.795,439.4 174.155,438.24 174.715,436.72 C174.675,434.2 173.355,432.6 171.275,432.6 C169.235,432.6 168.015,434 168.015,435.96 Z M179.745,445.36 L180.365,444.14 C181.025,444.66 181.705,444.96 182.825,444.96 C185.105,444.96 187.085,442.92 187.265,438.92 C186.385,439.84 185.305,440.64 183.305,440.64 C181.145,440.64 178.965,439.12 178.965,436 C178.965,432.92 181.225,431.36 183.625,431.36 C186.625,431.36 188.785,433.12 188.785,438.04 C188.785,442.6 186.745,446.2 182.865,446.2 C181.305,446.2 180.165,445.76 179.745,445.36 Z M180.485,435.96 C180.485,438.2 181.985,439.4 183.505,439.4 C185.265,439.4 186.625,438.24 187.185,436.72 C187.145,434.2 185.825,432.6 183.745,432.6 C181.705,432.6 180.485,434 180.485,435.96 Z M199.735,446 L193.335,446 L193.335,444.76 L195.835,444.76 L195.835,433.02 L193.055,433.3 L193.055,432.36 C194.055,432.06 195.195,431.76 195.835,431.36 L197.275,431.36 L197.275,444.76 L199.735,444.76 L199.735,446 Z M204.685,445.36 L205.305,444.14 C205.965,444.66 206.645,444.96 207.765,444.96 C210.045,444.96 212.025,442.92 212.205,438.92 C211.325,439.84 210.245,440.64 208.245,440.64 C206.085,440.64 203.905,439.12 203.905,436 C203.905,432.92 206.165,431.36 208.565,431.36 C211.565,431.36 213.725,433.12 213.725,438.04 C213.725,442.6 211.685,446.2 207.805,446.2 C206.245,446.2 205.105,445.76 204.685,445.36 Z M205.425,435.96 C205.425,438.2 206.925,439.4 208.445,439.4 C210.205,439.4 211.565,438.24 212.125,436.72 C212.085,434.2 210.765,432.6 208.685,432.6 C206.645,432.6 205.425,434 205.425,435.96 Z M221.175,432.68 L219.095,440.12 L223.475,440.12 L221.395,432.68 L221.175,432.68 Z M217.335,446 L215.655,446 L220.095,431.56 L222.475,431.56 L226.915,446 L225.235,446 L223.875,441.48 L218.695,441.48 L217.335,446 Z"/>
    <rect width="368" height="72" y="474" fill="#A7AFB5"/>
    <path fill="#FAFAFF" d="M145.345,509.24 L144.945,512.28 L147.645,512.28 L148.065,509.24 L145.345,509.24 Z M144.785,513.4 L144.165,518 L142.925,518 L143.545,513.4 L141.565,513.4 L141.565,512.28 L143.705,512.28 L144.105,509.24 L142.125,509.24 L142.125,508.12 L144.265,508.12 L144.885,503.56 L146.125,503.56 L145.505,508.12 L148.225,508.12 L148.825,503.56 L150.065,503.56 L149.465,508.12 L151.345,508.12 L151.345,509.24 L149.305,509.24 L148.885,512.28 L150.785,512.28 L150.785,513.4 L148.725,513.4 L148.105,518 L146.865,518 L147.485,513.4 L144.785,513.4 Z M158.815,504.68 L156.735,512.12 L161.115,512.12 L159.035,504.68 L158.815,504.68 Z M154.975,518 L153.295,518 L157.735,503.56 L160.115,503.56 L164.555,518 L162.875,518 L161.515,513.48 L156.335,513.48 L154.975,518 Z M174.085,504.8 L166.765,504.8 L166.765,503.56 L175.925,503.56 L175.925,504.44 L169.825,518 L168.145,518 L174.085,504.8 Z M183.755,504.68 L181.675,512.12 L186.055,512.12 L183.975,504.68 L183.755,504.68 Z M179.915,518 L178.235,518 L182.675,503.56 L185.055,503.56 L189.495,518 L187.815,518 L186.455,513.48 L181.275,513.48 L179.915,518 Z M192.225,503.56 L200.785,503.56 L200.785,504.92 L193.825,504.92 L193.825,509.76 L198.985,509.76 L198.985,511.12 L193.825,511.12 L193.825,518 L192.225,518 L192.225,503.56 Z M203.755,518 L203.755,503.56 L209.075,503.56 C211.595,503.56 213.115,505.16 213.115,507.12 C213.115,508.7 212.415,509.84 210.675,510.44 L210.695,510.48 C212.315,510.88 213.475,512.32 213.475,514.12 C213.475,516.28 212.155,518 208.235,518 L203.755,518 Z M205.355,511.12 L205.355,516.64 L208.355,516.64 C210.715,516.64 211.875,515.84 211.875,514.04 C211.875,512.2 210.395,511.12 208.115,511.12 L205.355,511.12 Z M205.355,504.92 L205.355,509.76 L208.155,509.76 C210.575,509.76 211.515,508.52 211.515,507.3 C211.515,505.68 210.635,504.92 208.795,504.92 L205.355,504.92 Z M225.205,503.56 L225.205,504.8 L219.005,504.8 L218.645,509.42 C219.585,508.56 220.585,508.24 221.605,508.24 C224.005,508.24 226.225,509.88 226.225,513.12 C226.225,515.32 224.905,518.2 221.225,518.2 C218.765,518.2 217.525,516.84 216.625,515.44 L217.925,514.76 C218.625,516.06 219.745,516.96 221.265,516.96 C223.165,516.96 224.705,515.84 224.705,513.12 C224.705,511 223.465,509.48 221.465,509.48 C220.065,509.48 219.005,510.32 218.425,511.66 L217.165,511.38 L217.805,503.56 L225.205,503.56 Z"/>
    <rect width="368" height="72" y="546" fill="#C7CBD0"/>
    <path fill="#2C2C36" d="M144.235,581.24 L143.835,584.28 L146.535,584.28 L146.955,581.24 L144.235,581.24 Z M143.675,585.4 L143.055,590 L141.815,590 L142.435,585.4 L140.455,585.4 L140.455,584.28 L142.595,584.28 L142.995,581.24 L141.015,581.24 L141.015,580.12 L143.155,580.12 L143.775,575.56 L145.015,575.56 L144.395,580.12 L147.115,580.12 L147.715,575.56 L148.955,575.56 L148.355,580.12 L150.235,580.12 L150.235,581.24 L148.195,581.24 L147.775,584.28 L149.675,584.28 L149.675,585.4 L147.615,585.4 L146.995,590 L145.755,590 L146.375,585.4 L143.675,585.4 Z M161.705,585.4 L163.145,585.68 C162.505,588.36 161.025,590.2 158.065,590.2 C154.825,590.2 152.545,587.84 152.545,582.78 C152.545,578.08 154.585,575.36 158.065,575.36 C160.745,575.36 162.305,576.92 162.945,579.56 L161.465,580 C160.945,577.96 160.025,576.72 157.865,576.72 C155.785,576.72 154.145,578.64 154.145,582.78 C154.145,586.96 155.785,588.84 158.185,588.84 C160.405,588.84 161.265,587.16 161.705,585.4 Z M172.975,576.8 L165.655,576.8 L165.655,575.56 L174.815,575.56 L174.815,576.44 L168.715,590 L167.035,590 L172.975,576.8 Z M186.645,585.4 L188.085,585.68 C187.445,588.36 185.965,590.2 183.005,590.2 C179.765,590.2 177.485,587.84 177.485,582.78 C177.485,578.08 179.525,575.36 183.005,575.36 C185.685,575.36 187.245,576.92 187.885,579.56 L186.405,580 C185.885,577.96 184.965,576.72 182.805,576.72 C180.725,576.72 179.085,578.64 179.085,582.78 C179.085,586.96 180.725,588.84 183.125,588.84 C185.345,588.84 186.205,587.16 186.645,585.4 Z M191.275,590 L191.275,575.56 L196.595,575.56 C199.115,575.56 200.635,577.16 200.635,579.12 C200.635,580.7 199.935,581.84 198.195,582.44 L198.215,582.48 C199.835,582.88 200.995,584.32 200.995,586.12 C200.995,588.28 199.675,590 195.755,590 L191.275,590 Z M192.875,583.12 L192.875,588.64 L195.875,588.64 C198.235,588.64 199.395,587.84 199.395,586.04 C199.395,584.2 197.915,583.12 195.635,583.12 L192.875,583.12 Z M192.875,576.92 L192.875,581.76 L195.675,581.76 C198.095,581.76 199.035,580.52 199.035,579.3 C199.035,577.68 198.155,576.92 196.315,576.92 L192.875,576.92 Z M206.305,576.92 L206.305,588.64 L208.465,588.64 C211.785,588.64 213.505,586.66 213.505,582.78 C213.505,578.56 211.505,576.92 208.545,576.92 L206.305,576.92 Z M204.705,590 L204.705,575.56 L208.585,575.56 C212.505,575.56 215.105,578.04 215.105,582.78 C215.105,587.02 212.825,590 208.505,590 L204.705,590 Z M217.295,582.78 C217.295,577.56 219.255,575.36 222.395,575.36 C225.535,575.36 227.495,577.56 227.495,582.78 C227.495,588 225.535,590.2 222.395,590.2 C219.255,590.2 217.295,588 217.295,582.78 Z M218.815,582.78 C218.815,587.16 220.055,588.96 222.395,588.96 C224.735,588.96 225.975,587.16 225.975,582.78 C225.975,578.4 224.735,576.6 222.395,576.6 C220.055,576.6 218.815,578.4 218.815,582.78 Z"/>
    <rect width="368" height="72" y="618" fill="#EBEEED"/>
    <path fill="#2C2C36" d="M144.235,653.24 L143.835,656.28 L146.535,656.28 L146.955,653.24 L144.235,653.24 Z M143.675,657.4 L143.055,662 L141.815,662 L142.435,657.4 L140.455,657.4 L140.455,656.28 L142.595,656.28 L142.995,653.24 L141.015,653.24 L141.015,652.12 L143.155,652.12 L143.775,647.56 L145.015,647.56 L144.395,652.12 L147.115,652.12 L147.715,647.56 L148.955,647.56 L148.355,652.12 L150.235,652.12 L150.235,653.24 L148.195,653.24 L147.775,656.28 L149.675,656.28 L149.675,657.4 L147.615,657.4 L146.995,662 L145.755,662 L146.375,657.4 L143.675,657.4 Z M153.865,647.56 L162.525,647.56 L162.525,648.92 L155.465,648.92 L155.465,653.76 L160.485,653.76 L160.485,655.12 L155.465,655.12 L155.465,660.64 L162.925,660.64 L162.925,662 L153.865,662 L153.865,647.56 Z M166.335,662 L166.335,647.56 L171.655,647.56 C174.175,647.56 175.695,649.16 175.695,651.12 C175.695,652.7 174.995,653.84 173.255,654.44 L173.275,654.48 C174.895,654.88 176.055,656.32 176.055,658.12 C176.055,660.28 174.735,662 170.815,662 L166.335,662 Z M167.935,655.12 L167.935,660.64 L170.935,660.64 C173.295,660.64 174.455,659.84 174.455,658.04 C174.455,656.2 172.975,655.12 170.695,655.12 L167.935,655.12 Z M167.935,648.92 L167.935,653.76 L170.735,653.76 C173.155,653.76 174.095,652.52 174.095,651.3 C174.095,649.68 173.215,648.92 171.375,648.92 L167.935,648.92 Z M179.925,647.56 L188.585,647.56 L188.585,648.92 L181.525,648.92 L181.525,653.76 L186.545,653.76 L186.545,655.12 L181.525,655.12 L181.525,660.64 L188.985,660.64 L188.985,662 L179.925,662 L179.925,647.56 Z M192.395,647.56 L201.055,647.56 L201.055,648.92 L193.995,648.92 L193.995,653.76 L199.015,653.76 L199.015,655.12 L193.995,655.12 L193.995,660.64 L201.455,660.64 L201.455,662 L192.395,662 L192.395,647.56 Z M204.865,647.56 L213.525,647.56 L213.525,648.92 L206.465,648.92 L206.465,653.76 L211.485,653.76 L211.485,655.12 L206.465,655.12 L206.465,660.64 L213.925,660.64 L213.925,662 L204.865,662 L204.865,647.56 Z M218.775,648.92 L218.775,660.64 L220.935,660.64 C224.255,660.64 225.975,658.66 225.975,654.78 C225.975,650.56 223.975,648.92 221.015,648.92 L218.775,648.92 Z M217.175,662 L217.175,647.56 L221.055,647.56 C224.975,647.56 227.575,650.04 227.575,654.78 C227.575,659.02 225.295,662 220.975,662 L217.175,662 Z"/>
    <path fill="#FAFAFF" d="M145.355,35.24 L144.955,38.28 L147.655,38.28 L148.075,35.24 L145.355,35.24 Z M144.795,39.4 L144.175,44 L142.935,44 L143.555,39.4 L141.575,39.4 L141.575,38.28 L143.715,38.28 L144.115,35.24 L142.135,35.24 L142.135,34.12 L144.275,34.12 L144.895,29.56 L146.135,29.56 L145.515,34.12 L148.235,34.12 L148.835,29.56 L150.075,29.56 L149.475,34.12 L151.355,34.12 L151.355,35.24 L149.315,35.24 L148.895,38.28 L150.795,38.28 L150.795,39.4 L148.735,39.4 L148.115,44 L146.875,44 L147.495,39.4 L144.795,39.4 Z M163.525,42.76 L163.525,44 L154.145,44 L154.145,42.48 C156.645,37.42 162.025,37.12 162.025,33.24 C162.025,31.56 160.945,30.6 159.105,30.6 C157.025,30.6 155.945,32.28 155.705,33.74 L154.285,33.42 C154.745,31.42 155.925,29.36 159.145,29.36 C161.505,29.36 163.545,30.72 163.545,33.2 C163.545,37.6 157.225,38.8 155.665,42.76 L163.525,42.76 Z M175.995,42.76 L175.995,44 L166.615,44 L166.615,42.48 C169.115,37.42 174.495,37.12 174.495,33.24 C174.495,31.56 173.415,30.6 171.575,30.6 C169.495,30.6 168.415,32.28 168.175,33.74 L166.755,33.42 C167.215,31.42 168.395,29.36 171.615,29.36 C173.975,29.36 176.015,30.72 176.015,33.2 C176.015,37.6 169.695,38.8 168.135,42.76 L175.995,42.76 Z M178.445,41.36 L179.605,40.56 C180.705,42.04 182.065,42.96 183.565,42.96 C185.685,42.96 186.965,41.88 186.965,40.16 C186.965,38.14 185.765,36.92 182.885,36.92 L181.465,36.92 L181.465,35.68 L182.325,35.68 C185.205,35.68 186.445,34.76 186.445,32.98 C186.445,31.52 185.185,30.6 183.805,30.6 C182.045,30.6 181.285,31.36 180.325,32.6 L179.145,31.8 C180.125,30.44 181.485,29.36 183.805,29.36 C186.365,29.36 187.965,30.68 187.965,32.96 C187.965,34.7 186.845,35.72 185.725,36.16 C188.005,37.04 188.485,38.68 188.485,40 C188.485,42.46 186.585,44.2 183.565,44.2 C180.805,44.2 179.125,42.48 178.445,41.36 Z M199.035,30.8 L191.715,30.8 L191.715,29.56 L200.875,29.56 L200.875,30.44 L194.775,44 L193.095,44 L199.035,30.8 Z M214.025,40.6 L211.545,40.6 L211.545,44 L210.105,44 L210.105,40.6 L203.465,40.6 L203.465,39.36 L209.425,29.56 L211.545,29.56 L211.545,39.36 L214.025,39.36 L214.025,40.6 Z M210.045,31.08 L204.985,39.36 L210.105,39.36 L210.105,31.08 L210.045,31.08 Z M225.415,30.2 L224.795,31.42 C224.135,30.9 223.455,30.6 222.335,30.6 C220.055,30.6 217.935,32.48 217.895,36.64 C218.775,35.72 219.855,34.92 221.855,34.92 C224.015,34.92 226.195,36.44 226.195,39.56 C226.195,42.64 223.935,44.2 221.535,44.2 C218.535,44.2 216.375,42.44 216.375,37.52 C216.375,32.96 218.415,29.36 222.295,29.36 C223.855,29.36 224.995,29.8 225.415,30.2 Z M224.675,39.6 C224.675,37.36 223.175,36.16 221.655,36.16 C219.895,36.16 218.055,37.6 217.935,39.24 C218.015,41.28 219.335,42.96 221.415,42.96 C223.455,42.96 224.675,41.56 224.675,39.6 Z"/>
  </g>
</svg>
