<svg xmlns="http://www.w3.org/2000/svg" width="288" height="690" viewBox="0 0 288 690">
  <g fill="none" fill-rule="evenodd">
    <rect width="288" height="258" y="216" fill="#33C0AE"/>
    <rect width="288" height="72" fill="#CEEBE8"/>
    <path fill="#2C2C36" d="M104.795,35.24 L104.395,38.28 L107.095,38.28 L107.515,35.24 L104.795,35.24 Z M104.235,39.4 L103.615,44 L102.375,44 L102.995,39.4 L101.015,39.4 L101.015,38.28 L103.155,38.28 L103.555,35.24 L101.575,35.24 L101.575,34.12 L103.715,34.12 L104.335,29.56 L105.575,29.56 L104.955,34.12 L107.675,34.12 L108.275,29.56 L109.515,29.56 L108.915,34.12 L110.795,34.12 L110.795,35.24 L108.755,35.24 L108.335,38.28 L110.235,38.28 L110.235,39.4 L108.175,39.4 L107.555,44 L106.315,44 L106.935,39.4 L104.235,39.4 Z M122.265,39.4 L123.705,39.68 C123.065,42.36 121.585,44.2 118.625,44.2 C115.385,44.2 113.105,41.84 113.105,36.78 C113.105,32.08 115.145,29.36 118.625,29.36 C121.305,29.36 122.865,30.92 123.505,33.56 L122.025,34 C121.505,31.96 120.585,30.72 118.425,30.72 C116.345,30.72 114.705,32.64 114.705,36.78 C114.705,40.96 116.345,42.84 118.745,42.84 C120.965,42.84 121.825,41.16 122.265,39.4 Z M126.895,29.56 L135.555,29.56 L135.555,30.92 L128.495,30.92 L128.495,35.76 L133.515,35.76 L133.515,37.12 L128.495,37.12 L128.495,42.64 L135.955,42.64 L135.955,44 L126.895,44 L126.895,29.56 Z M139.365,29.56 L148.025,29.56 L148.025,30.92 L140.965,30.92 L140.965,35.76 L145.985,35.76 L145.985,37.12 L140.965,37.12 L140.965,42.64 L148.425,42.64 L148.425,44 L139.365,44 L139.365,29.56 Z M151.835,44 L151.835,29.56 L157.155,29.56 C159.675,29.56 161.195,31.16 161.195,33.12 C161.195,34.7 160.495,35.84 158.755,36.44 L158.775,36.48 C160.395,36.88 161.555,38.32 161.555,40.12 C161.555,42.28 160.235,44 156.315,44 L151.835,44 Z M153.435,37.12 L153.435,42.64 L156.435,42.64 C158.795,42.64 159.955,41.84 159.955,40.04 C159.955,38.2 158.475,37.12 156.195,37.12 L153.435,37.12 Z M153.435,30.92 L153.435,35.76 L156.235,35.76 C158.655,35.76 159.595,34.52 159.595,33.3 C159.595,31.68 158.715,30.92 156.875,30.92 L153.435,30.92 Z M165.425,29.56 L174.085,29.56 L174.085,30.92 L167.025,30.92 L167.025,35.76 L172.045,35.76 L172.045,37.12 L167.025,37.12 L167.025,42.64 L174.485,42.64 L174.485,44 L165.425,44 L165.425,29.56 Z M187.095,40.24 C187.095,42.44 185.375,44.2 181.835,44.2 C178.295,44.2 176.575,42.44 176.575,40.24 C176.575,38.4 178.015,37.12 179.735,36.32 L179.735,36.28 C178.135,35.68 177.175,34.46 177.175,32.96 C177.175,30.6 179.175,29.36 181.835,29.36 C184.495,29.36 186.495,30.6 186.495,32.96 C186.495,34.46 185.535,35.68 183.935,36.28 L183.935,36.32 C185.655,36.94 187.095,38.28 187.095,40.24 Z M178.095,40.24 C178.095,41.52 179.215,42.96 181.835,42.96 C184.455,42.96 185.575,41.52 185.575,40.24 C185.575,38.56 183.855,37.72 181.575,36.96 C179.815,37.72 178.095,38.56 178.095,40.24 Z M184.975,32.88 C184.975,31.28 183.415,30.6 181.835,30.6 C180.255,30.6 178.695,31.28 178.695,32.88 C178.695,34.44 180.655,35.32 181.835,35.66 C183.435,35.26 184.975,34.28 184.975,32.88 Z"/>
    <rect width="288" height="72" y="72" fill="#A3D9D3"/>
    <path fill="#FAFAFF" d="M104.235,107.24 L103.835,110.28 L106.535,110.28 L106.955,107.24 L104.235,107.24 Z M103.675,111.4 L103.055,116 L101.815,116 L102.435,111.4 L100.455,111.4 L100.455,110.28 L102.595,110.28 L102.995,107.24 L101.015,107.24 L101.015,106.12 L103.155,106.12 L103.775,101.56 L105.015,101.56 L104.395,106.12 L107.115,106.12 L107.715,101.56 L108.955,101.56 L108.355,106.12 L110.235,106.12 L110.235,107.24 L108.195,107.24 L107.775,110.28 L109.675,110.28 L109.675,111.4 L107.615,111.4 L106.995,116 L105.755,116 L106.375,111.4 L103.675,111.4 Z M117.705,102.68 L115.625,110.12 L120.005,110.12 L117.925,102.68 L117.705,102.68 Z M113.865,116 L112.185,116 L116.625,101.56 L119.005,101.56 L123.445,116 L121.765,116 L120.405,111.48 L115.225,111.48 L113.865,116 Z M124.855,113.36 L126.015,112.56 C127.115,114.04 128.475,114.96 129.975,114.96 C132.095,114.96 133.375,113.88 133.375,112.16 C133.375,110.14 132.175,108.92 129.295,108.92 L127.875,108.92 L127.875,107.68 L128.735,107.68 C131.615,107.68 132.855,106.76 132.855,104.98 C132.855,103.52 131.595,102.6 130.215,102.6 C128.455,102.6 127.695,103.36 126.735,104.6 L125.555,103.8 C126.535,102.44 127.895,101.36 130.215,101.36 C132.775,101.36 134.375,102.68 134.375,104.96 C134.375,106.7 133.255,107.72 132.135,108.16 C134.415,109.04 134.895,110.68 134.895,112 C134.895,114.46 132.995,116.2 129.975,116.2 C127.215,116.2 125.535,114.48 124.855,113.36 Z M140.245,102.92 L140.245,114.64 L142.405,114.64 C145.725,114.64 147.445,112.66 147.445,108.78 C147.445,104.56 145.445,102.92 142.485,102.92 L140.245,102.92 Z M138.645,116 L138.645,101.56 L142.525,101.56 C146.445,101.56 149.045,104.04 149.045,108.78 C149.045,113.02 146.765,116 142.445,116 L138.645,116 Z M152.215,115.36 L152.835,114.14 C153.495,114.66 154.175,114.96 155.295,114.96 C157.575,114.96 159.555,112.92 159.735,108.92 C158.855,109.84 157.775,110.64 155.775,110.64 C153.615,110.64 151.435,109.12 151.435,106 C151.435,102.92 153.695,101.36 156.095,101.36 C159.095,101.36 161.255,103.12 161.255,108.04 C161.255,112.6 159.215,116.2 155.335,116.2 C153.775,116.2 152.635,115.76 152.215,115.36 Z M152.955,105.96 C152.955,108.2 154.455,109.4 155.975,109.4 C157.735,109.4 159.095,108.24 159.655,106.72 C159.615,104.2 158.295,102.6 156.215,102.6 C154.175,102.6 152.955,104 152.955,105.96 Z M166.305,102.92 L166.305,114.64 L168.465,114.64 C171.785,114.64 173.505,112.66 173.505,108.78 C173.505,104.56 171.505,102.92 168.545,102.92 L166.305,102.92 Z M164.705,116 L164.705,101.56 L168.585,101.56 C172.505,101.56 175.105,104.04 175.105,108.78 C175.105,113.02 172.825,116 168.505,116 L164.705,116 Z M176.975,113.36 L178.135,112.56 C179.235,114.04 180.595,114.96 182.095,114.96 C184.215,114.96 185.495,113.88 185.495,112.16 C185.495,110.14 184.295,108.92 181.415,108.92 L179.995,108.92 L179.995,107.68 L180.855,107.68 C183.735,107.68 184.975,106.76 184.975,104.98 C184.975,103.52 183.715,102.6 182.335,102.6 C180.575,102.6 179.815,103.36 178.855,104.6 L177.675,103.8 C178.655,102.44 180.015,101.36 182.335,101.36 C184.895,101.36 186.495,102.68 186.495,104.96 C186.495,106.7 185.375,107.72 184.255,108.16 C186.535,109.04 187.015,110.68 187.015,112 C187.015,114.46 185.115,116.2 182.095,116.2 C179.335,116.2 177.655,114.48 176.975,113.36 Z"/>
    <rect width="288" height="72" y="144" fill="#73C9BD"/>
    <path fill="#FAFAFF" d="M104.235,179.24 L103.835,182.28 L106.535,182.28 L106.955,179.24 L104.235,179.24 Z M103.675,183.4 L103.055,188 L101.815,188 L102.435,183.4 L100.455,183.4 L100.455,182.28 L102.595,182.28 L102.995,179.24 L101.015,179.24 L101.015,178.12 L103.155,178.12 L103.775,173.56 L105.015,173.56 L104.395,178.12 L107.115,178.12 L107.715,173.56 L108.955,173.56 L108.355,178.12 L110.235,178.12 L110.235,179.24 L108.195,179.24 L107.775,182.28 L109.675,182.28 L109.675,183.4 L107.615,183.4 L106.995,188 L105.755,188 L106.375,183.4 L103.675,183.4 Z M120.505,174.8 L113.185,174.8 L113.185,173.56 L122.345,173.56 L122.345,174.44 L116.245,188 L114.565,188 L120.505,174.8 Z M124.855,185.36 L126.015,184.56 C127.115,186.04 128.475,186.96 129.975,186.96 C132.095,186.96 133.375,185.88 133.375,184.16 C133.375,182.14 132.175,180.92 129.295,180.92 L127.875,180.92 L127.875,179.68 L128.735,179.68 C131.615,179.68 132.855,178.76 132.855,176.98 C132.855,175.52 131.595,174.6 130.215,174.6 C128.455,174.6 127.695,175.36 126.735,176.6 L125.555,175.8 C126.535,174.44 127.895,173.36 130.215,173.36 C132.775,173.36 134.375,174.68 134.375,176.96 C134.375,178.7 133.255,179.72 132.135,180.16 C134.415,181.04 134.895,182.68 134.895,184 C134.895,186.46 132.995,188.2 129.975,188.2 C127.215,188.2 125.535,186.48 124.855,185.36 Z M146.645,183.4 L148.085,183.68 C147.445,186.36 145.965,188.2 143.005,188.2 C139.765,188.2 137.485,185.84 137.485,180.78 C137.485,176.08 139.525,173.36 143.005,173.36 C145.685,173.36 147.245,174.92 147.885,177.56 L146.405,178 C145.885,175.96 144.965,174.72 142.805,174.72 C140.725,174.72 139.085,176.64 139.085,180.78 C139.085,184.96 140.725,186.84 143.125,186.84 C145.345,186.84 146.205,185.16 146.645,183.4 Z M151.095,187.36 L151.715,186.14 C152.375,186.66 153.055,186.96 154.175,186.96 C156.455,186.96 158.435,184.92 158.615,180.92 C157.735,181.84 156.655,182.64 154.655,182.64 C152.495,182.64 150.315,181.12 150.315,178 C150.315,174.92 152.575,173.36 154.975,173.36 C157.975,173.36 160.135,175.12 160.135,180.04 C160.135,184.6 158.095,188.2 154.215,188.2 C152.655,188.2 151.515,187.76 151.095,187.36 Z M151.835,177.96 C151.835,180.2 153.335,181.4 154.855,181.4 C156.615,181.4 157.975,180.24 158.535,178.72 C158.495,176.2 157.175,174.6 155.095,174.6 C153.055,174.6 151.835,176 151.835,177.96 Z M163.745,188 L163.745,173.56 L169.065,173.56 C171.585,173.56 173.105,175.16 173.105,177.12 C173.105,178.7 172.405,179.84 170.665,180.44 L170.685,180.48 C172.305,180.88 173.465,182.32 173.465,184.12 C173.465,186.28 172.145,188 168.225,188 L163.745,188 Z M165.345,181.12 L165.345,186.64 L168.345,186.64 C170.705,186.64 171.865,185.84 171.865,184.04 C171.865,182.2 170.385,181.12 168.105,181.12 L165.345,181.12 Z M165.345,174.92 L165.345,179.76 L168.145,179.76 C170.565,179.76 171.505,178.52 171.505,177.3 C171.505,175.68 170.625,174.92 168.785,174.92 L165.345,174.92 Z M178.775,174.92 L178.775,186.64 L180.935,186.64 C184.255,186.64 185.975,184.66 185.975,180.78 C185.975,176.56 183.975,174.92 181.015,174.92 L178.775,174.92 Z M177.175,188 L177.175,173.56 L181.055,173.56 C184.975,173.56 187.575,176.04 187.575,180.78 C187.575,185.02 185.295,188 180.975,188 L177.175,188 Z"/>
    <rect width="288" height="72" y="474" fill="#30AD8B"/>
    <path fill="#FAFAFF" d="M104.235,509.24 L103.835,512.28 L106.535,512.28 L106.955,509.24 L104.235,509.24 Z M103.675,513.4 L103.055,518 L101.815,518 L102.435,513.4 L100.455,513.4 L100.455,512.28 L102.595,512.28 L102.995,509.24 L101.015,509.24 L101.015,508.12 L103.155,508.12 L103.775,503.56 L105.015,503.56 L104.395,508.12 L107.115,508.12 L107.715,503.56 L108.955,503.56 L108.355,508.12 L110.235,508.12 L110.235,509.24 L108.195,509.24 L107.775,512.28 L109.675,512.28 L109.675,513.4 L107.615,513.4 L106.995,518 L105.755,518 L106.375,513.4 L103.675,513.4 Z M112.385,515.36 L113.545,514.56 C114.645,516.04 116.005,516.96 117.505,516.96 C119.625,516.96 120.905,515.88 120.905,514.16 C120.905,512.14 119.705,510.92 116.825,510.92 L115.405,510.92 L115.405,509.68 L116.265,509.68 C119.145,509.68 120.385,508.76 120.385,506.98 C120.385,505.52 119.125,504.6 117.745,504.6 C115.985,504.6 115.225,505.36 114.265,506.6 L113.085,505.8 C114.065,504.44 115.425,503.36 117.745,503.36 C120.305,503.36 121.905,504.68 121.905,506.96 C121.905,508.7 120.785,509.72 119.665,510.16 C121.945,511.04 122.425,512.68 122.425,514 C122.425,516.46 120.525,518.2 117.505,518.2 C114.745,518.2 113.065,516.48 112.385,515.36 Z M125.175,510.78 C125.175,505.56 127.135,503.36 130.275,503.36 C133.415,503.36 135.375,505.56 135.375,510.78 C135.375,516 133.415,518.2 130.275,518.2 C127.135,518.2 125.175,516 125.175,510.78 Z M126.695,510.78 C126.695,515.16 127.935,516.96 130.275,516.96 C132.615,516.96 133.855,515.16 133.855,510.78 C133.855,506.4 132.615,504.6 130.275,504.6 C127.935,504.6 126.695,506.4 126.695,510.78 Z M142.645,504.68 L140.565,512.12 L144.945,512.12 L142.865,504.68 L142.645,504.68 Z M138.805,518 L137.125,518 L141.565,503.56 L143.945,503.56 L148.385,518 L146.705,518 L145.345,513.48 L140.165,513.48 L138.805,518 Z M152.715,504.92 L152.715,516.64 L154.875,516.64 C158.195,516.64 159.915,514.66 159.915,510.78 C159.915,506.56 157.915,504.92 154.955,504.92 L152.715,504.92 Z M151.115,518 L151.115,503.56 L154.995,503.56 C158.915,503.56 161.515,506.04 161.515,510.78 C161.515,515.02 159.235,518 154.915,518 L151.115,518 Z M174.065,514.24 C174.065,516.44 172.345,518.2 168.805,518.2 C165.265,518.2 163.545,516.44 163.545,514.24 C163.545,512.4 164.985,511.12 166.705,510.32 L166.705,510.28 C165.105,509.68 164.145,508.46 164.145,506.96 C164.145,504.6 166.145,503.36 168.805,503.36 C171.465,503.36 173.465,504.6 173.465,506.96 C173.465,508.46 172.505,509.68 170.905,510.28 L170.905,510.32 C172.625,510.94 174.065,512.28 174.065,514.24 Z M165.065,514.24 C165.065,515.52 166.185,516.96 168.805,516.96 C171.425,516.96 172.545,515.52 172.545,514.24 C172.545,512.56 170.825,511.72 168.545,510.96 C166.785,511.72 165.065,512.56 165.065,514.24 Z M171.945,506.88 C171.945,505.28 170.385,504.6 168.805,504.6 C167.225,504.6 165.665,505.28 165.665,506.88 C165.665,508.44 167.625,509.32 168.805,509.66 C170.405,509.26 171.945,508.28 171.945,506.88 Z M177.335,518 L177.335,503.56 L182.655,503.56 C185.175,503.56 186.695,505.16 186.695,507.12 C186.695,508.7 185.995,509.84 184.255,510.44 L184.275,510.48 C185.895,510.88 187.055,512.32 187.055,514.12 C187.055,516.28 185.735,518 181.815,518 L177.335,518 Z M178.935,511.12 L178.935,516.64 L181.935,516.64 C184.295,516.64 185.455,515.84 185.455,514.04 C185.455,512.2 183.975,511.12 181.695,511.12 L178.935,511.12 Z M178.935,504.92 L178.935,509.76 L181.735,509.76 C184.155,509.76 185.095,508.52 185.095,507.3 C185.095,505.68 184.215,504.92 182.375,504.92 L178.935,504.92 Z"/>
    <rect width="288" height="72" y="546" fill="#1C8369"/>
    <path fill="#FAFAFF" d="M105.355,581.24 L104.955,584.28 L107.655,584.28 L108.075,581.24 L105.355,581.24 Z M104.795,585.4 L104.175,590 L102.935,590 L103.555,585.4 L101.575,585.4 L101.575,584.28 L103.715,584.28 L104.115,581.24 L102.135,581.24 L102.135,580.12 L104.275,580.12 L104.895,575.56 L106.135,575.56 L105.515,580.12 L108.235,580.12 L108.835,575.56 L110.075,575.56 L109.475,580.12 L111.355,580.12 L111.355,581.24 L109.315,581.24 L108.895,584.28 L110.795,584.28 L110.795,585.4 L108.735,585.4 L108.115,590 L106.875,590 L107.495,585.4 L104.795,585.4 Z M122.325,590 L115.925,590 L115.925,588.76 L118.425,588.76 L118.425,577.02 L115.645,577.3 L115.645,576.36 C116.645,576.06 117.785,575.76 118.425,575.36 L119.865,575.36 L119.865,588.76 L122.325,588.76 L122.325,590 Z M135.295,585.4 L136.735,585.68 C136.095,588.36 134.615,590.2 131.655,590.2 C128.415,590.2 126.135,587.84 126.135,582.78 C126.135,578.08 128.175,575.36 131.655,575.36 C134.335,575.36 135.895,576.92 136.535,579.56 L135.055,580 C134.535,577.96 133.615,576.72 131.455,576.72 C129.375,576.72 127.735,578.64 127.735,582.78 C127.735,586.96 129.375,588.84 131.775,588.84 C133.995,588.84 134.855,587.16 135.295,585.4 Z M149.125,586.24 C149.125,588.44 147.405,590.2 143.865,590.2 C140.325,590.2 138.605,588.44 138.605,586.24 C138.605,584.4 140.045,583.12 141.765,582.32 L141.765,582.28 C140.165,581.68 139.205,580.46 139.205,578.96 C139.205,576.6 141.205,575.36 143.865,575.36 C146.525,575.36 148.525,576.6 148.525,578.96 C148.525,580.46 147.565,581.68 145.965,582.28 L145.965,582.32 C147.685,582.94 149.125,584.28 149.125,586.24 Z M140.125,586.24 C140.125,587.52 141.245,588.96 143.865,588.96 C146.485,588.96 147.605,587.52 147.605,586.24 C147.605,584.56 145.885,583.72 143.605,582.96 C141.845,583.72 140.125,584.56 140.125,586.24 Z M147.005,578.88 C147.005,577.28 145.445,576.6 143.865,576.6 C142.285,576.6 140.725,577.28 140.725,578.88 C140.725,580.44 142.685,581.32 143.865,581.66 C145.465,581.26 147.005,580.28 147.005,578.88 Z M150.915,587.36 L152.075,586.56 C153.175,588.04 154.535,588.96 156.035,588.96 C158.155,588.96 159.435,587.88 159.435,586.16 C159.435,584.14 158.235,582.92 155.355,582.92 L153.935,582.92 L153.935,581.68 L154.795,581.68 C157.675,581.68 158.915,580.76 158.915,578.98 C158.915,577.52 157.655,576.6 156.275,576.6 C154.515,576.6 153.755,577.36 152.795,578.6 L151.615,577.8 C152.595,576.44 153.955,575.36 156.275,575.36 C158.835,575.36 160.435,576.68 160.435,578.96 C160.435,580.7 159.315,581.72 158.195,582.16 C160.475,583.04 160.955,584.68 160.955,586 C160.955,588.46 159.055,590.2 156.035,590.2 C153.275,590.2 151.595,588.48 150.915,587.36 Z M172.945,576.2 L172.325,577.42 C171.665,576.9 170.985,576.6 169.865,576.6 C167.585,576.6 165.465,578.48 165.425,582.64 C166.305,581.72 167.385,580.92 169.385,580.92 C171.545,580.92 173.725,582.44 173.725,585.56 C173.725,588.64 171.465,590.2 169.065,590.2 C166.065,590.2 163.905,588.44 163.905,583.52 C163.905,578.96 165.945,575.36 169.825,575.36 C171.385,575.36 172.525,575.8 172.945,576.2 Z M172.205,585.6 C172.205,583.36 170.705,582.16 169.185,582.16 C167.425,582.16 165.585,583.6 165.465,585.24 C165.545,587.28 166.865,588.96 168.945,588.96 C170.985,588.96 172.205,587.56 172.205,585.6 Z M177.155,589.36 L177.775,588.14 C178.435,588.66 179.115,588.96 180.235,588.96 C182.515,588.96 184.495,586.92 184.675,582.92 C183.795,583.84 182.715,584.64 180.715,584.64 C178.555,584.64 176.375,583.12 176.375,580 C176.375,576.92 178.635,575.36 181.035,575.36 C184.035,575.36 186.195,577.12 186.195,582.04 C186.195,586.6 184.155,590.2 180.275,590.2 C178.715,590.2 177.575,589.76 177.155,589.36 Z M177.895,579.96 C177.895,582.2 179.395,583.4 180.915,583.4 C182.675,583.4 184.035,582.24 184.595,580.72 C184.555,578.2 183.235,576.6 181.155,576.6 C179.115,576.6 177.895,578 177.895,579.96 Z"/>
    <rect width="288" height="72" y="618" fill="#1D5543"/>
    <path fill="#FAFAFF" d="M104.795 653.24L104.395 656.28 107.095 656.28 107.515 653.24 104.795 653.24zM104.235 657.4L103.615 662 102.375 662 102.995 657.4 101.015 657.4 101.015 656.28 103.155 656.28 103.555 653.24 101.575 653.24 101.575 652.12 103.715 652.12 104.335 647.56 105.575 647.56 104.955 652.12 107.675 652.12 108.275 647.56 109.515 647.56 108.915 652.12 110.795 652.12 110.795 653.24 108.755 653.24 108.335 656.28 110.235 656.28 110.235 657.4 108.175 657.4 107.555 662 106.315 662 106.935 657.4 104.235 657.4zM121.765 662L115.365 662 115.365 660.76 117.865 660.76 117.865 649.02 115.085 649.3 115.085 648.36C116.085 648.06 117.225 647.76 117.865 647.36L119.305 647.36 119.305 660.76 121.765 660.76 121.765 662zM128.335 648.92L128.335 660.64 130.495 660.64C133.815 660.64 135.535 658.66 135.535 654.78 135.535 650.56 133.535 648.92 130.575 648.92L128.335 648.92zM126.735 662L126.735 647.56 130.615 647.56C134.535 647.56 137.135 650.04 137.135 654.78 137.135 659.02 134.855 662 130.535 662L126.735 662zM148.345 647.56L148.345 648.8 142.145 648.8 141.785 653.42C142.725 652.56 143.725 652.24 144.745 652.24 147.145 652.24 149.365 653.88 149.365 657.12 149.365 659.32 148.045 662.2 144.365 662.2 141.905 662.2 140.665 660.84 139.765 659.44L141.065 658.76C141.765 660.06 142.885 660.96 144.405 660.96 146.305 660.96 147.845 659.84 147.845 657.12 147.845 655 146.605 653.48 144.605 653.48 143.205 653.48 142.145 654.32 141.565 655.66L140.305 655.38 140.945 647.56 148.345 647.56zM160.815 647.56L160.815 648.8 154.615 648.8 154.255 653.42C155.195 652.56 156.195 652.24 157.215 652.24 159.615 652.24 161.835 653.88 161.835 657.12 161.835 659.32 160.515 662.2 156.835 662.2 154.375 662.2 153.135 660.84 152.235 659.44L153.535 658.76C154.235 660.06 155.355 660.96 156.875 660.96 158.775 660.96 160.315 659.84 160.315 657.12 160.315 655 159.075 653.48 157.075 653.48 155.675 653.48 154.615 654.32 154.035 655.66L152.775 655.38 153.415 647.56 160.815 647.56zM174.585 658.6L172.105 658.6 172.105 662 170.665 662 170.665 658.6 164.025 658.6 164.025 657.36 169.985 647.56 172.105 647.56 172.105 657.36 174.585 657.36 174.585 658.6zM170.605 649.08L165.545 657.36 170.665 657.36 170.665 649.08 170.605 649.08zM176.415 659.36L177.575 658.56C178.675 660.04 180.035 660.96 181.535 660.96 183.655 660.96 184.935 659.88 184.935 658.16 184.935 656.14 183.735 654.92 180.855 654.92L179.435 654.92 179.435 653.68 180.295 653.68C183.175 653.68 184.415 652.76 184.415 650.98 184.415 649.52 183.155 648.6 181.775 648.6 180.015 648.6 179.255 649.36 178.295 650.6L177.115 649.8C178.095 648.44 179.455 647.36 181.775 647.36 184.335 647.36 185.935 648.68 185.935 650.96 185.935 652.7 184.815 653.72 183.695 654.16 185.975 655.04 186.455 656.68 186.455 658 186.455 660.46 184.555 662.2 181.535 662.2 178.775 662.2 177.095 660.48 176.415 659.36zM105.355 251.24L104.955 254.28 107.655 254.28 108.075 251.24 105.355 251.24zM104.795 255.4L104.175 260 102.935 260 103.555 255.4 101.575 255.4 101.575 254.28 103.715 254.28 104.115 251.24 102.135 251.24 102.135 250.12 104.275 250.12 104.895 245.56 106.135 245.56 105.515 250.12 108.235 250.12 108.835 245.56 110.075 245.56 109.475 250.12 111.355 250.12 111.355 251.24 109.315 251.24 108.895 254.28 110.795 254.28 110.795 255.4 108.735 255.4 108.115 260 106.875 260 107.495 255.4 104.795 255.4zM113.505 257.36L114.665 256.56C115.765 258.04 117.125 258.96 118.625 258.96 120.745 258.96 122.025 257.88 122.025 256.16 122.025 254.14 120.825 252.92 117.945 252.92L116.525 252.92 116.525 251.68 117.385 251.68C120.265 251.68 121.505 250.76 121.505 248.98 121.505 247.52 120.245 246.6 118.865 246.6 117.105 246.6 116.345 247.36 115.385 248.6L114.205 247.8C115.185 246.44 116.545 245.36 118.865 245.36 121.425 245.36 123.025 246.68 123.025 248.96 123.025 250.7 121.905 251.72 120.785 252.16 123.065 253.04 123.545 254.68 123.545 256 123.545 258.46 121.645 260.2 118.625 260.2 115.865 260.2 114.185 258.48 113.505 257.36zM125.975 257.36L127.135 256.56C128.235 258.04 129.595 258.96 131.095 258.96 133.215 258.96 134.495 257.88 134.495 256.16 134.495 254.14 133.295 252.92 130.415 252.92L128.995 252.92 128.995 251.68 129.855 251.68C132.735 251.68 133.975 250.76 133.975 248.98 133.975 247.52 132.715 246.6 131.335 246.6 129.575 246.6 128.815 247.36 127.855 248.6L126.675 247.8C127.655 246.44 129.015 245.36 131.335 245.36 133.895 245.36 135.495 246.68 135.495 248.96 135.495 250.7 134.375 251.72 133.255 252.16 135.535 253.04 136.015 254.68 136.015 256 136.015 258.46 134.115 260.2 131.095 260.2 128.335 260.2 126.655 258.48 125.975 257.36zM147.765 255.4L149.205 255.68C148.565 258.36 147.085 260.2 144.125 260.2 140.885 260.2 138.605 257.84 138.605 252.78 138.605 248.08 140.645 245.36 144.125 245.36 146.805 245.36 148.365 246.92 149.005 249.56L147.525 250C147.005 247.96 146.085 246.72 143.925 246.72 141.845 246.72 140.205 248.64 140.205 252.78 140.205 256.96 141.845 258.84 144.245 258.84 146.465 258.84 147.325 257.16 147.765 255.4zM151.235 252.78C151.235 247.56 153.195 245.36 156.335 245.36 159.475 245.36 161.435 247.56 161.435 252.78 161.435 258 159.475 260.2 156.335 260.2 153.195 260.2 151.235 258 151.235 252.78zM152.755 252.78C152.755 257.16 153.995 258.96 156.335 258.96 158.675 258.96 159.915 257.16 159.915 252.78 159.915 248.4 158.675 246.6 156.335 246.6 153.995 246.6 152.755 248.4 152.755 252.78zM168.705 246.68L166.625 254.12 171.005 254.12 168.925 246.68 168.705 246.68zM164.865 260L163.185 260 167.625 245.56 170.005 245.56 174.445 260 172.765 260 171.405 255.48 166.225 255.48 164.865 260zM177.335 245.56L185.995 245.56 185.995 246.92 178.935 246.92 178.935 251.76 183.955 251.76 183.955 253.12 178.935 253.12 178.935 258.64 186.395 258.64 186.395 260 177.335 260 177.335 245.56z"/>
  </g>
</svg>
