<svg xmlns="http://www.w3.org/2000/svg" width="550" height="472" viewBox="0 0 550 472">
  <g fill="#48484F" fill-opacity=".25" fill-rule="evenodd" opacity=".699">
    <path d="M121.535879 266C124.670535 262.21419 128.60901 261.462717 131.928616 262.479694L275.29527 14.223458 414.031075 254.462405C414.291901 254.348617 414.547985 254.206383 414.811182 254.116301 416.653563 253.476245 419.510795 253.108806 423.001123 254.68998 423.375764 254.678127 424.025459 254.625975 425 254.493222L279.402097 2.37057634C278.555597.903189584 276.99064 0 275.29527 0 273.5999 0 272.034943.903189584 271.186073 2.37057634L121 262.434653C121.31062 263.454001 121.493199 264.380896 121.545364 265.267492 121.55722 265.502179 121.540621 265.75346 121.535879 266M545.367708 464.866472L468.630632 331.410061C468.201999 331.431461 467.780471 331.450484 467.297371 331.469507 466.049364 331.498041 464.93634 331.512308 463.948827 331.512308 461.79856 331.512308 460.233222 331.448106 459.087044 331.314947 458.568423 331.257879 458.035592 331.167521 457.486184 331.053384L533.062874 462.48863 16.9371264 462.48863 92.2485844 331.512308 92.1420182 331.512308C89.9917508 331.512308 88.426413 331.448106 87.2826034 331.314947 85.7196337 331.138987 84.0335209 330.701464 82.1792705 330L4.63229229 464.866472C3.7892359 466.338357 3.7892359 468.150273 4.63229229 469.622157 5.48008494 471.094042 7.04305463 472 8.7362718 472L541.266096 472C542.956945 472 544.522283 471.094042 545.367708 469.622157 546.210764 468.150273 546.210764 466.338357 545.367708 464.866472"/>
    <path d="M234.42483 196.848491L234.166681 226.385734C222.763145 224.82613 211.084882 222.426005 199.36162 218.923443 209.460203 209.470573 221.335038 201.927325 234.42483 196.848491zM236.511333 229.10016C238.230745 229.316838 239.950157 229.528754 241.655358 229.709716 239.980945 231.75506 238.259165 233.819452 236.449757 235.91718L236.511333 229.10016zM236.802639 195.943682C247.083584 192.231585 258.07503 190.045758 269.511723 189.626689 265.298454 196.991356 256.592452 211.149231 243.462399 227.495315 241.167481 227.266732 238.855986 227.007195 236.532648 226.711942L236.802639 195.943682zM273.526052 189.524303C273.919195 189.524303 274.305234 189.550494 274.69601 189.555256 282.06627 203.446452 290.653855 216.063771 299.760106 227.359594 283.979885 228.904912 265.708176 229.47637 246.268876 227.757234 259.735233 210.825405 268.422288 196.398468 272.273202 189.555256 272.692398 189.550494 273.104488 189.524303 273.526052 189.524303zM310.249465 195.943682L310.486298 222.952223C308.650838 223.323671 307.201417 224.761841 306.801168 226.595269 305.415692 226.761944 304.027847 226.928619 302.595004 227.081008 293.476911 215.899477 284.844328 203.410736 277.419596 189.624308 288.898919 190.031472 299.930626 192.21968 310.249465 195.943682zM310.604715 236.436254C308.518211 234.107563 306.445918 231.721725 304.394939 229.262074 305.235698 229.169212 306.076457 229.073969 306.903006 228.973963 307.402725 230.674051 308.807148 231.974119 310.56919 232.297945L310.604715 236.436254zM347.600487 218.837725C341.232032 220.564004 330.029804 223.25462 315.590062 225.409493 315.016924 224.318961 314.043538 223.487965 312.857002 223.106993L312.627274 196.848491C325.676803 201.913039 337.52085 209.425333 347.600487 218.837725zM351.349562 222.511724C347.588645 234.952844 345.026106 247.365392 343.408532 259.458875L333.613096 259.373156C326.827814 253.313318 319.862539 246.570112 312.999102 239.100678L312.937526 232.112221C314.770617 231.483617 316.096885 229.774005 316.146621 227.731042 331.720796 225.397588 343.493793 222.454578 349.596994 220.752109 350.189078 221.333092 350.771688 221.918836 351.349562 222.511724zM286.62058 259.137429L260.429155 259.137429 272.813183 246.689166C273.052385 246.684404 273.28685 246.670118 273.526052 246.670118 273.762885 246.670118 273.999719 246.684404 274.238921 246.689166L286.62058 259.137429zM291.811971 264.356747C289.673364 263.213831 287.423445 262.251876 285.071688 261.518505L288.988915 261.518505 291.811971 264.356747zM255.237764 264.356747L258.06082 261.518505 261.980415 261.518505C259.628658 262.251876 257.376371 263.213831 255.237764 264.356747zM173.589391 255.558673C178.553423 244.072364 185.400281 233.600393 193.767611 224.549925 195.333081 230.262125 197.680102 239.884052 199.73108 252.227548 200.543419 251.910865 201.308392 251.751333 202.030734 251.665614 199.799762 238.253015 197.220645 228.069155 195.667016 222.54744 196.237785 221.961696 196.810922 221.383094 197.393533 220.809255 209.770455 224.590403 222.116589 227.166727 234.145366 228.795383L234.057738 238.64113C228.473202 244.965267 222.272899 251.439412 215.485249 257.846886 216.131805 258.715979 216.785466 259.654123 217.453336 260.727988 217.64754 261.04229 217.844112 261.387546 218.038315 261.711372L219.53984 261.699467C219.591943 260.958952 219.719833 260.15653 219.956667 259.313629L217.375181 259.33744C223.397859 253.637145 228.946869 247.886847 234.026949 242.236555L233.955899 250.277447C234.716135 250.465552 235.500054 250.756043 236.31713 251.137015L236.418968 239.543558C239.268076 236.298152 241.960874 233.100368 244.492625 229.974015 265.329242 231.938403 284.8988 231.283607 301.581356 229.566851 304.563091 233.183705 307.587455 236.664838 310.637872 240.005487L310.777604 255.946788C300.7927 247.213003 287.766854 241.907966 273.526052 241.907966 260.872034 241.907966 249.193771 246.110565 239.739375 253.170454 240.430929 253.651431 241.148535 254.182411 241.918244 254.791966L242.297177 255.115793C242.794528 255.572959 243.166357 255.908691 243.433979 256.108701 243.486082 256.146798 243.540554 256.203944 243.592657 256.242042 250.986601 251.001294 259.775495 247.629691 269.296204 246.855841L257.080329 259.137429 246.451238 259.137429C246.965167 259.80175 247.495674 260.587505 247.907765 261.518505L254.711993 261.518505 248.966411 267.297376C248.990094 268.066463 248.978252 268.81174 248.897729 269.507014 248.833784 270.040375 248.748524 270.880894 248.63958 272 255.190397 265.904446 263.917714 262.147109 273.526052 262.147109 281.523921 262.147109 288.908392 264.759149 294.94528 269.142709 295.639202 268.218852 296.380491 267.294995 297.166778 266.375899L292.337742 261.518505 301.834768 261.518505C302.864994 260.594648 303.869168 259.804131 304.852028 259.137429L289.969406 259.137429 277.755899 246.855841C288.47025 247.727315 298.256213 251.891816 306.168822 258.311196 307.161155 257.742119 308.139278 257.284953 309.110295 256.961126 310.538402 256.449195 311.862301 256.099177 313.145939 255.825353L313.029891 242.600859C318.699686 248.655935 324.419217 254.234795 330.036909 259.339821L328.459598 259.325534C328.6988 259.494591 328.928528 259.627931 329.170098 259.806512 330.176641 260.544645 331.012664 261.178011 331.727901 261.735183L332.713129 261.744707C335.090938 263.856721 337.433222 265.849682 339.751822 267.787877 340.000497 266.93069 340.268119 266.121124 340.55232 265.361561 339.147897 264.18531 337.750579 263.023345 336.320104 261.778042L342.158051 261.830426C343.266432 259.854133 344.647172 258.134997 346.241062 256.644443 347.792322 246.081992 350.030399 235.310006 353.227652 224.492779 362.629945 234.643305 370.130464 246.582018 375.184492 259.742223L367.236358 259.67079C367.837915 260.461308 368.377896 261.258968 368.846826 262.068534L375.748156 262.130442C376.965481 259.489829 378.38885 257.38972 380.077474 255.784875 380.811658 255.091982 381.787412 254.35623 383 253.720482 365.228009 210.499198 322.860852 180 273.526052 180 224.139148 180 181.738834 210.561106 164 253.851442 164.502087 253.808582 164.992333 253.756199 165.513366 253.727626 167.749075 253.608572 170.325825 254.213365 173.589391 255.558673zM354.087286 372.565048C352.261753 365.787318 349.355126 353.56557 347.150262 337.776971L375.979449 337.52067C370.936713 350.599127 363.459142 362.467274 354.087286 372.565048zM350.443333 376.309887C338.060534 372.493854 325.69433 369.892876 313.638703 368.253026L313.728795 358.380702C319.708006 351.631449 326.365272 344.713703 333.726672 337.898002L344.769958 337.800702C347.152633 355.008448 350.372209 368.032322 352.178774 374.567991 351.607406 375.15416 351.028926 375.735583 350.443333 376.309887zM313.356576 400.205183L313.619737 370.654659C325.044725 372.225687 336.747099 374.648678 348.475552 378.187052 338.363999 387.61797 326.469588 395.14087 313.356576 400.205183zM313.899494 339.101191C314.250375 338.76183 314.596515 338.41535 314.935543 338.064123L330.241565 337.92648C324.286062 343.54611 318.790498 349.220324 313.759615 354.797238L313.899494 339.101191zM342.228437 330.375101C342.719197 330.804642 343.297678 331.129764 343.9378 331.329109 344.101386 332.717405 344.267344 334.086715 344.445155 335.427548L336.372509 335.498742C338.278649 333.778205 340.232206 332.071907 342.228437 330.375101zM311.362715 357.483649C308.498763 360.734871 305.798397 363.936257 303.256877 367.071195 282.505078 365.108596 262.983736 365.763586 246.321603 367.48175 244.304035 365.035028 242.272241 362.638141 240.219109 360.319569 240.728836 359.562533 241.025189 358.651241 241.025189 357.671128 241.025189 355.305093 239.292118 353.359106 237.030355 352.998386L236.926039 341.305852C246.921421 350.008211 259.958568 355.297973 274.216687 355.297973 288.472435 355.297973 301.511952 350.008211 311.507335 341.303479L311.362715 357.483649zM311.270253 367.949262C309.539553 367.730932 307.808854 367.517348 306.092379 367.336988 307.778033 365.281836 309.508733 363.207699 311.331894 361.100337L311.270253 367.949262zM310.976271 401.106982C300.682165 404.809103 289.672071 406.98766 278.218633 407.405335 282.42447 400.043808 291.14198 385.868954 304.290555 369.539276 306.597364 369.767099 308.916027 370.030519 311.251286 370.327163L310.976271 401.106982zM274.216687 407.507381C273.832614 407.507381 273.458024 407.481276 273.076322 407.478903 265.769451 393.572215 257.22264 380.956524 248.137653 369.679292 263.896502 368.131995 282.121005 367.562438 301.485873 369.275856 288.000642 386.194077 279.304469 400.634724 275.456626 407.474156 275.041733 407.478903 274.631581 407.507381 274.216687 407.507381zM237.454732 401.106982L237.186829 370.944183C239.811328 370.592956 242.504581 370.260715 245.30215 369.959324 254.406104 381.120271 263.000331 393.605439 270.361731 407.410081 258.853765 407.006645 247.793883 404.825716 237.454732 401.106982zM237.110963 362.332004C237.580385 362.248944 238.018987 362.089943 238.429139 361.881105 240.136131 363.808107 241.831268 365.773079 243.51218 367.787887 241.349991 368.029949 239.223364 368.283877 237.167862 368.55679L237.110963 362.332004zM257.753704 338.123452L269.980029 350.364184C258.787382 349.460012 248.583367 345.007974 240.491754 338.123452L257.753704 338.123452zM262.658933 335.750297L258.735224 335.750297 255.909205 332.921496C258.050056 334.062984 260.302337 335.021738 262.658933 335.750297zM287.324958 338.123452L274.927933 350.532678C274.690851 350.537425 274.453769 350.551664 274.216687 350.551664 273.977234 350.551664 273.740152 350.537425 273.50307 350.532678L261.106045 338.123452 287.324958 338.123452zM292.521798 332.921496L289.695779 335.750297 285.774441 335.750297C288.128666 335.021738 290.380946 334.062984 292.521798 332.921496zM307.939249 338.123452C299.847636 345.007974 289.643621 349.460012 278.450974 350.364184L290.677299 338.123452 307.939249 338.123452zM200.055026 378.281978C206.826091 376.44041 219.042934 373.497698 234.818379 371.264559L235.074427 400.205183C222.004089 395.157483 210.145241 387.667806 200.055026 378.281978zM196.332836 374.653424C200.180679 362.244198 202.800437 349.865822 204.460012 337.807822L214.424574 337.895629C220.308952 343.118943 226.314243 348.876216 232.272116 355.162703 231.816919 355.891262 231.541903 356.745598 231.541903 357.671128 231.541903 359.747639 232.883788 361.491908 234.737771 362.135033L234.799412 368.886658C217.608587 371.300157 204.585665 374.549006 198.056423 376.373962 197.475572 375.806778 196.901834 375.234847 196.332836 374.653424zM172.451553 337.52067L202.05837 337.78409C200.47229 349.217951 198.027974 360.931843 194.459888 372.686079 185.033502 362.5622 177.513257 350.653709 172.451553 337.52067zM233.493089 338.064123C233.834488 338.41535 234.182998 338.764203 234.53388 339.105938L234.659533 353.228582C234.424822 353.314016 234.206707 353.420808 233.990962 353.539466 228.663726 347.917462 223.293816 342.706014 218.006885 337.92648L233.493089 338.064123zM378.068143 331.621007C377.688812 332.802838 377.297626 333.975177 376.880362 335.138023L346.834943 335.406189C346.664244 334.110447 346.500657 332.795719 346.339442 331.457259 347.57701 331.189093 348.622542 330.432057 349.295856 329.409227 348.271661 328.853909 347.335187 328.265366 346.557557 327.603256 345.990931 327.121506 345.433788 326.542456 344.879016 325.90645 342.906492 328.386397 340.613908 330.019128 338.0795 330.821254 336.296643 332.38279 334.537493 333.951445 332.821019 335.531966L317.135665 335.669609C317.953598 334.72984 318.707519 333.737861 319.463811 332.748256 317.130923 333.277469 314.757731 333.574114 312.346606 333.574114 312.095299 333.574114 311.841621 333.548009 311.587943 333.543263L311.587943 334.708482C311.246545 335.059709 310.898034 335.408562 310.547152 335.750297L293.04812 335.750297 298.368243 330.424937C297.249216 329.850634 296.213167 329.19327 295.243501 328.464711 289.278515 332.648583 282.035655 335.126157 274.216687 335.126157 260.759905 335.126157 249.005373 327.826333 242.604156 317 242.381298 317.569557 242.158441 318.027576 241.933213 318.393042 241.831268 319.434857 241.542028 320.467179 241.134246 321.490009L255.382882 335.750297 237.88385 335.750297C237.532969 335.408562 237.186829 335.062082 236.845431 334.710855L236.845431 327.422896C236.06306 328.092126 235.278318 328.609474 234.474609 328.991552L234.474609 332.100384C233.806038 331.310124 233.17777 330.486639 232.556615 329.658408 231.017952 329.997769 229.341781 329.959799 227.459349 329.518392 227.151142 329.454317 226.842936 329.368883 226.529987 329.266838 227.988042 331.502349 229.550414 333.66192 231.295338 335.669609L215.320744 335.529593C213.509437 333.93246 211.719467 332.394656 209.943721 330.897195 209.47667 331.238929 209.026214 331.583037 208.504633 331.912905 208.305484 332.043429 208.111077 332.145474 207.911928 332.271252 209.170834 333.320186 210.434481 334.388106 211.712354 335.496369L204.770589 335.434667C204.834602 334.917319 204.88913 334.404718 204.953143 333.88737 204.116243 334.281314 203.281714 334.625421 202.449555 334.898334 202.425847 335.069201 202.411622 335.240068 202.390285 335.413309L200.612169 335.396697C200.379828 335.448906 200.147488 335.52722 199.917518 335.567564 198.91229 335.75267 197.980557 335.833357 197.117578 335.833357 195.858672 335.833357 194.796544 335.622146 193.819766 335.334995L171.550641 335.138023C170.794349 333.037781 170.121036 330.897195 169.49751 328.737624 166.472342 329.572975 163.444803 330.045232 160.448085 330.045232 160.296353 330.045232 160.149362 330.02862 160 330.026247 173.8859 380.114054 219.813451 417 274.216687 417 329.340653 417 375.796896 379.138687 389 328.028051 388.073009 328.588115 387.169726 329.067493 386.294893 329.406854 384.450394 330.199487 381.799816 330.913807 378.068143 331.621007z"/>
    <path d="M193 259L182 259.077821C183.206989 259.708171 184.257289 260.348249 185.165591 261L191.954596 260.953307C192.238593 260.289883 192.576452 259.634241 193 259M6.62470862 260.888952C8.06910451 260.053876 9.61106255 259.807149 11.2482032 260.148771 12.8853438 260.490393 14.3511558 261.382406 15.6480186 262.822437 17.0162685 264.343129 18.04662 266.013281 18.7319347 267.837637 19.4172494 269.657248 19.9478924 272.202806 20.3310023 275.464821 20.7854992 279.718488 21.7753982 281.611643 23.3006993 281.158519 23.5291375 281.084976 23.7956488 280.930771 24.1002331 280.705396 24.8593143 280.098068 25.2400447 279.412452 25.2400447 278.653292 25.2400447 277.970048 26.1728341 276.359206 28.0407925 273.813648 29.9039918 271.270462 32.2478632 268.48055 35.0628885 265.443911 36.7381022 263.546011 37.9564394 262.369313 38.7179002 261.91619 39.4793609 261.458322 40.5477855 261.230574 41.9184149 261.230574 43.8958333 261.230574 45.571047 261.68607 46.9416764 262.597061 48.3146853 263.508053 49 264.646793 49 266.013281 49 267.533973 47.0939685 271.650042 43.2866647 278.368607 39.4793609 285.087172 37.5780886 288.750118 37.5780886 289.357446 37.5780886 290.346726 37.1188326 291.748799 36.2074592 293.570783L33.4638209 299.833851C32.8546523 301.354543 32.0574981 303.136197 31.0652195 305.185928 30.0753205 307.23566 29.3138598 308.88446 28.7832168 310.141819 28.2478147 311.39206 27.8290113 312.587737 27.524427 313.726476 25.9253594 319.875671 24.7855478 323.370179 24.1002331 324.202882 23.4886849 324.734294 22.2703477 325 20.4452214 325 19.1483586 325 18.1608392 324.829189 17.4755245 324.487567 16.7878302 324.145945 15.9121503 323.443722 14.8484848 322.380899 13.020979 320.409455 11.2315462 316.820053 9.47780692 311.619808 7.72644716 306.419563 6.62470862 301.200339 6.16783217 295.962136 5.70857615 291.634925 5.02326146 288.446454 4.10950855 286.396722 3.1981352 284.346991 2.28438228 281.654346 1.37062937 278.314042.454496892 274.973739 0 272.582386 0 271.135237 0 269.847038.759081197 268.006075 2.28438228 265.614722 3.80492424 263.220996 5.25407925 261.648112 6.62470862 260.888952M60.4361335 270.95437C61.7403145 269.051373 63.0828539 268.537564 64.4637514 269.415321 65.844649 270.288321 67.4556962 272.629006 69.296893 276.434999 70.2174914 278.337996 70.7545071 279.881801 70.9079402 281.05928 71.0613732 282.241517 71.023015 284.658322 70.7928654 288.309697 70.4836018 292.194188 70.0041235 295.962121 69.3544304 299.613495 68.6999425 303.267248 68.146145 307.225481 67.6858458 311.488193 66.995397 317.653901 66.26659 321.497954 65.4994246 323.020351 64.9624089 324.088408 64.4229958 324.697367 63.8883774 324.847228 63.3513617 325.001846 61.8553893 325.037527 59.4004603 324.961407 55.6413502 324.733048 53.301496 324.181179 52.3808976 323.3058 51.4602992 322.432801 51 320.241976 51 316.740463 51 312.93447 51.2685079 309.280717 51.8055236 305.779204 53.6467204 294.132866 55.1235136 286.026101 56.2359033 281.45891 57.3482931 276.891718 58.7483698 273.390205 60.4361335 270.95437M98.6590879 256.2165C100.240984 255.911336 102.140671 255.928025 104.365212 256.271335 106.585045 256.617029 108.223437 257.170139 109.280388 257.93305 110.483288 258.848544 111.577903 260.298075 112.557172 262.279259 113.159799 263.652499 113.479945 264.684813 113.517609 265.371433 113.555273 266.055669 113.272792 267.355002 112.670165 269.262279 111.992209 271.551013 110.878762 273.706236 109.336884 275.727951 107.792653 277.747281 106.472052 278.758138 105.382145 278.758138 104.289883 278.758138 103.367111 278.092975 102.613827 276.755496 101.860544 275.42517 101.634558 274.030474 101.938226 272.578558 102.312514 270.826247 102.237185 270.02519 101.709887 270.175389 100.805946 270.330355 99.7513493 271.932468 98.5460953 274.981728 98.2447819 275.825699 97.9411144 276.700662 97.6421549 277.616155 97.2631591 279.29456 97.1501665 280.403165 97.3031773 280.932434 97.453834 281.468856 98.1317893 282.38435 99.3370432 283.681298 101.067242 285.509901 102.387842 286.427778 103.291783 286.427778 104.572365 286.427778 106.116596 286.999961 107.926831 288.144328 109.732358 289.28631 110.899948 290.433061 111.427246 291.577428 112.333541 293.408414 113.046806 296.345622 113.574105 300.386666 114.101404 304.434863 114.139068 307.25525 113.687098 308.857363 113.235127 310.68835 112.142866 312.862646 110.410313 315.377868 108.677761 317.895475 106.907544 319.881428 105.099663 321.330959 103.743753 322.472941 102.557331 323.161945 101.542752 323.390819 100.523465 323.617308 98.1694535 323.81042 94.4807174 323.963002 91.0885868 324.036909 88.7322213 324.001147 87.4186828 323.846181 86.0980823 323.695983 84.4950005 323.200091 82.6164993 322.360889 79.8269956 321.061556 77.4918162 319.576263 75.6086069 317.895475 71.9175168 314.54105 72.143502 311.413115 76.2865623 308.514053 78.471085 306.988231 80.2789658 306.320684 81.7102048 306.511412 83.1390898 306.702139 84.9869889 307.789288 87.24684 309.770472 89.8056505 312.137881 91.6912138 313.318009 92.8964677 313.318009 94.1770499 313.318009 95.4576322 312.443045 96.7405685 310.68835 98.0187968 308.93127 98.6590879 307.217104 98.6590879 305.536316 98.6590879 303.097385 98.3365883 301.378451 97.6986512 300.386666 97.0583601 299.397266 95.6082889 298.329191 93.3484379 297.184824 90.4106315 295.659002 88.1131162 294.209471 86.4558921 292.833847 85.0999815 291.615573 83.7440708 289.648693 82.3881602 286.942743 81.0322495 284.234409 80.3566482 282.04104 80.3566482 280.360251 80.3566482 278.455358 80.9757532 275.86146 82.2210253 272.578558 83.4615894 269.300425 84.798668 266.706527 86.229907 264.79925 87.5858176 262.968263 89.5255231 261.175422 92.0490235 259.420727 94.5725239 257.663647 96.7758787 256.597956 98.6590879 256.2165M126.436133 270.95437C127.740315 269.051373 129.082854 268.537564 130.463751 269.415321 131.844649 270.288321 133.455696 272.629006 135.296893 276.434999 136.217491 278.337996 136.754507 279.881801 136.90794 281.05928 137.061373 282.241517 137.023015 284.658322 136.792865 288.309697 136.483602 292.194188 136.004124 295.962121 135.35443 299.613495 134.699942 303.267248 134.146145 307.225481 133.685846 311.488193 132.995397 317.653901 132.26659 321.497954 131.499425 323.020351 130.962409 324.088408 130.422996 324.697367 129.888377 324.847228 129.351362 325.001846 127.855389 325.037527 125.40046 324.961407 121.64135 324.733048 119.301496 324.181179 118.380898 323.3058 117.460299 322.432801 117 320.241976 117 316.740463 117 312.93447 117.268508 309.280717 117.805524 305.779204 119.64672 294.132866 121.123514 286.026101 122.235903 281.45891 123.348293 276.891718 124.74837 273.390205 126.436133 270.95437M170.079423 282.538951C169.622593 281.317192 169.182418 280.553593 168.766036 280.245767 168.344896 279.942714 167.604926 279.751814 166.538989 279.675454 164.711668 279.522734 163.300729 279.828174 162.313309 280.591773 161.321131 281.355372 159.874502 283.223804 157.973422 286.201841 156.526793 288.495025 155.613133 290.232213 155.232441 291.415791 154.851749 292.601756 154.582885 294.525072 154.432988 297.200055 154.278332 299.946626 154.297366 301.721994 154.490092 302.523773 154.678058 303.325552 155.3062 304.342094 156.374516 305.55908 157.288177 306.554145 158.030526 307.184114 158.601564 307.448988 159.172601 307.72102 159.836433 307.775904 160.600196 307.623184 163.036624 307.012305 165.225602 305.236937 167.164751 302.294693 169.108659 299.359609 170.326872 296.150106 170.821772 292.67573 171.316671 289.201354 171.066842 285.822427 170.079423 282.538951M154.661403 264.55619C156.867036 262.494473 160.752473 261.310894 166.310574 261.005454 167.754823 260.929094 170.098457 261.654514 173.334338 263.181712 176.570219 264.70891 178.949543 266.197929 180.47231 267.648767 182.756461 269.863205 184.869301 273.108501 186.810829 277.384657 188.752358 281.663198 190.103814 286.089687 190.865198 290.671282 191.322028 293.420239 190.617748 297.312209 188.752358 302.35435 186.884589 307.394104 184.657541 311.28846 182.071216 314.035031 179.403994 317.091814 176.075319 319.516241 172.078055 321.310699 168.080791 323.105157 164.14063 324 160.257573 324 155.536994 324 151.406488 322.396442 147.866054 319.189325 144.325619 315.984595 141.641742 311.44118 139.814421 305.55908 139.357591 303.881548 139.091106 301.438031 139.014968 298.230914 138.93645 295.021411 139.167245 292.80936 139.697834 291.585215 140.916048 288.304125 142.155676 285.497898 143.411959 283.16892 144.668242 280.839943 145.734179 279.179115 146.60977 278.186436 147.482982 277.193757 148.360953 276.334708 149.236544 275.609289 150.109756 274.883869 150.797381 274.48298 151.29228 274.40662 151.78718 274.332646 152.24401 274.08209 152.662771 273.659724 153.079153 273.242131 153.290912 272.841241 153.290912 272.457056 153.290912 272.075256 153.252843 271.199503 153.176705 269.825025 152.94829 268.29544 152.907841 267.247878 153.062497 266.675178 153.212395 266.100093 153.747743 265.39615 154.661403 264.55619M228.469559 258.681741C229.678399 257.396265 230.884879 256.847037 232.096081 257.036426 233.304921 257.225815 235.155959 258.302963 237.649193 260.272606 238.480271 261.030161 239.08233 261.543878 239.462454 261.806655 239.837856 262.074167 240.274644 262.509761 240.765735 263.113437 241.256827 263.721849 241.540149 264.174014 241.615701 264.477036 241.691254 264.780058 241.785695 265.367164 241.899023 266.238352 242.012352 267.111907 242.028879 267.869462 241.955688 268.511017 241.880135 269.154939 241.766806 270.255761 241.615701 271.808748 241.464596 273.361736 241.275715 274.817662 241.049057 276.183629 240.8224 277.547228 240.555605 279.516871 240.255756 282.092558 239.953545 284.668244 239.648974 287.206054 239.349125 289.703618 237.535864 305.688028 236.138142 314.175012 235.155959 315.157466 234.62473 315.687754 234.362657 316.521065 234.362657 317.657397 234.362657 318.796097 233.796013 320.043696 232.662725 321.407295 231.907199 322.242972 231.28153 322.751955 230.792799 322.943711 230.299347 323.1331 229.56507 323.114161 228.582887 322.884527 227.525152 322.65726 225.579674 321.180028 222.746453 318.45283 219.913233 315.725632 218.477735 313.947745 218.439958 313.112067 218.399821 312.281124 217.401111 310.517441 215.436745 307.828121 213.470018 305.141168 212.187985 303.796508 211.583565 303.796508 210.223619 303.796508 209.468094 307.771305 209.316989 315.725632 209.316989 318.680097 208.99589 320.839128 208.353694 322.202727 207.711497 323.566326 206.370439 324.894415 204.330521 326.179891 202.139497 327.621613 200.118466 328.509373 198.267429 328.85264 196.416392 329.191172 195.037558 328.947334 194.130927 328.111656 193.375402 327.432224 193 325.689848 193 322.884527 193 320.083941 193.410817 313.834112 194.244256 304.135041L196.057517 281.635657C196.661937 273.001898 197.228581 267.545134 197.757449 265.272469 198.132851 263.454337 199.006427 261.825594 200.364012 260.388607 201.723958 258.949252 202.857246 258.381086 203.763877 258.681741 204.517041 258.98713 205.499224 259.136274 206.710426 259.136274 207.314846 259.136274 208.051483 259.628684 208.920338 260.613506 209.789192 261.598327 210.695823 262.850661 211.640229 264.363403 212.582275 265.880881 213.547931 267.564073 214.530114 269.420083 215.512297 271.276093 216.475592 273.132102 217.419999 274.990479 218.364406 276.846489 219.23326 278.532049 220.026562 280.044792 220.819863 281.562269 221.499836 282.755418 222.06648 283.624239 222.633125 284.495427 223.029775 284.893144 223.256433 284.819755 223.709748 284.668244 224.198479 281.408391 224.729708 275.044929 225.258575 268.683834 225.711891 265.312714 226.089653 264.933937 226.54533 264.477036 226.769626 263.605848 226.769626 262.318005 226.769626 261.030161 227.338631 259.818073 228.469559 258.681741M318.203648 283.108184C317.074303 279.593783 316.057893 277.95357 315.154417 278.18277 314.926195 278.18277 314.702679 278.45017 314.47681 278.982582 312.44399 284.638572 310.88173 289.869586 309.79003 294.685176 308.69833 299.49599 308.22777 303.318379 308.378349 306.140405 308.528928 308.971981 309.281825 310.385381 310.637038 310.385381 311.161713 310.385381 312.161654 309.542594 313.629802 307.861793 315.09795 306.18338 316.243764 304.538392 317.074303 302.933991 317.598978 301.864391 318.16365 299.07579 318.76832 294.568188 319.142415 291.514575 319.292995 289.353886 319.220058 288.093286 319.142415 286.832685 318.805965 285.170985 318.203648 283.108184M311.314645 263.282377C314.248589 262.215164 316.639035 261.814064 318.485984 262.079076 320.328227 262.348864 322.419868 263.361164 324.753847 265.115977 326.407866 266.340765 327.633676 267.293378 328.424217 267.980978 329.214758 268.668579 329.948832 269.279779 330.626439 269.816967 331.301693 270.349379 331.812251 271.001167 332.151054 271.76278 332.489858 272.52678 332.769841 273.13798 332.998063 273.598768 333.223932 274.054781 333.579205 275.069469 334.07094 276.633282 334.55797 278.199482 334.993239 279.55797 335.369687 280.701583 336.421389 283.836372 336.950769 287.978686 336.950769 293.135688 336.950769 298.29269 336.421389 302.284591 335.369687 305.111392 334.315632 307.938193 333.880364 309.943694 334.07094 311.127894 334.256812 312.312095 335.216755 313.935595 336.950769 315.998396L340 319.553385 338.305983 321.957598C337.174286 323.409199 335.990826 324.309287 334.748547 324.648312 333.506268 324.994499 332.245167 324.994499 330.965243 324.648312 329.682966 324.309287 328.123058 324.137386 326.278462 324.137386 324.431513 324.137386 322.419868 324.555199 320.236468 325.395599 316.017895 327 311.594629 327.4011 306.966668 326.5989 302.336355 325.7967 298.851856 323.982199 296.52023 321.157785 293.433354 317.485809 291.925209 311.261594 292.002851 302.475591 292.078141 293.691975 293.696868 285.899173 296.859033 279.097183 298.362473 275.888381 300.621163 272.62228 303.635101 269.298879 306.644334 265.975478 309.206535 263.969977 311.314645 263.282377M401 280.879865C401 282.769318 400.504635 286.909581 399.521015 293.295932 398.535025 299.682283 398.042029 303.439932 398.042029 304.573604 398.042029 306.387479 397.508742 308.090348 396.449276 309.675127L393.377538 314.323181C392.465023 315.683587 390.931523 317.310878 388.76993 319.19797 386.608336 321.087422 384.804637 322.296672 383.365945 322.828081 381.846667 323.505922 379.023796 324.207382 374.890222 324.923012 370.754277 325.641004 367.625655 326 365.501984 326 362.698074 326 360.079038 325.700049 357.654355 325.093063 354.468848 324.261703 352.231409 323.298082 350.942037 322.2022 349.650295 321.106317 348.211603 319.011386 346.61885 315.910321 345.251262 313.116293 344.400372 310.978849 344.059068 309.505076 343.717763 308.031303 343.433343 304.951495 343.205807 300.265651 342.978271 297.469261 342.937978 294.864178 343.092039 292.443316 343.24373 290.024817 343.376459 288.496722 343.490227 287.851946 343.603995 287.211894 343.905007 285.716864 344.400372 283.373942 344.893367 281.033383 345.329478 278.539305 345.708705 275.891709 346.315468 271.964009 347.111845 268.862944 348.097835 266.595601 349.083825 264.328257 350.449042 262.476593 352.193486 261.042971 353.859715 259.606987 355.281816 258.983467 356.45979 259.170051 357.635394 259.361358 359.171263 260.438346 361.067398 262.403377 362.961163 264.441624 364.155728 266.541279 364.651093 268.695255 365.144088 270.849232 365.236525 274.420298 364.935513 279.406091 364.859668 280.466547 364.7459 281.975747 364.594209 283.940778 363.987446 292.029999 363.703026 296.848103 363.740948 298.395093 363.778871 299.944444 364.212612 301.399323 365.049281 302.762091 365.200972 303.064404 365.350293 303.288776 365.501984 303.439932 366.869571 305.782854 367.872152 306.954315 368.519208 306.954315 369.161524 306.954315 370.282614 306.276473 371.875367 304.916067 373.392275 303.628878 374.812006 301.269423 376.141671 297.830619 377.466595 294.391815 378.132613 291.349796 378.132613 288.7022 378.132613 286.888325 378.51184 284.604449 379.270294 281.843486 380.026377 279.087246 380.407974 276.609701 380.407974 274.420298 380.407974 272.075014 380.919931 269.524253 381.943844 266.765651 382.967757 264.00705 384.162322 261.987697 385.527539 260.700508 386.738695 259.566836 388.371741 259 390.419567 259 391.784784 259 392.751813 259.210202 393.320653 259.623519 393.889494 260.041561 394.8186 261.194127 396.107972 263.081218 397.473189 265.350924 398.627461 268.182741 399.575529 271.583756 400.525966 274.987133 401 278.085836 401 280.879865M431.697769 259.657293C432.229049 259.125199 433.95334 258.916162 436.877756 259.030182 439.797428 259.141827 441.488513 259.467259 441.943897 260.001729 442.321011 260.455435 442.607998 261.481617 442.797741 263.075524 442.987484 264.671807 443.042035 266.310848 442.968509 267.980769 442.892612 268.515239 442.683895 268.968944 442.342357 269.349012 442.00082 269.729079 441.637936 270.01413 441.260822 270.201788 440.878963 270.394197 440.236209 270.660244 439.325442 270.999929 438.414675 271.344365 437.655702 271.669798 437.048524 271.971477 435.528208 272.731611 431.811615 273.68178 425.89163 274.821982 424.677274 275.050023 423.728558 275.506103 423.045483 276.190225 422.360036 276.874346 422.208241 277.556092 422.590099 278.242589 422.967214 278.850697 424.753171 279.005099 427.940855 278.69867 430.749053 278.396991 432.532638 278.511011 433.291611 279.04073 434.048212 279.5752 434.427698 280.941067 434.427698 283.145458 434.427698 284.513701 434.275903 285.523255 433.974686 286.166994 433.671097 286.813108 433.025971 287.55424 432.039306 288.390388 430.445464 289.684993 429.231108 290.328732 428.393867 290.328732 427.558997 290.328732 426.309064 290.863202 424.636953 291.925015L422.134716 293.407278 422.360036 299.333954C422.438305 302.680922 422.798817 304.676276 423.443943 305.322391 424.086698 305.968505 425.244131 305.455414 426.913871 303.783118 428.128227 302.566902 430.028029 301.084639 432.608536 299.333954 435.189042 297.590395 437.008204 296.526206 438.073137 296.141388 438.83211 295.915723 439.306467 295.896719 439.496211 296.086753 439.683582 296.276787 439.780825 296.751871 439.780825 297.512006 439.780825 298.804235 440.15794 299.754403 440.919284 300.362511 441.448193 300.744954 441.773128 301.464707 441.886974 302.528895 442.00082 303.593084 442.019794 305.493421 441.943897 308.227531L441.716205 315.071119 437.959291 318.491726C434.999299 321.154573 432.473344 322.921886 430.388541 323.793666 428.298995 324.667821 425.623617 325.066892 422.360036 324.990878 420.08549 324.91724 418.282931 324.743835 416.954729 324.475412 415.626527 324.21174 414.127557 323.660642 412.457817 322.824494 409.647248 321.380238 407.828086 320.011995 406.993216 318.717391 406.006552 317.27551 405.114759 315.18514 404.317838 312.448654 403.520917 309.712169 403.084508 307.279738 403.008611 305.15136 402.930341 303.096621 403.385725 298.652208 404.372389 291.808619 405.361425 284.969782 406.310141 279.610831 407.220908 275.734144 407.903983 272.693605 408.568084 270.491589 409.21321 269.120971 409.855965 267.752729 411.091667 265.966412 412.913201 263.764396 414.355249 262.089724 415.567233 261.082546 416.556269 260.740485 417.540561 260.398424 418.716968 260.607462 420.08549 261.367596 420.92036 261.823677 422.874714 261.823677 425.948553 261.367596 429.022391 260.90914 430.938796 260.339039 431.697769 259.657293M470.659088 256.2165C472.240984 255.911336 474.140671 255.928025 476.365212 256.271335 478.585045 256.617029 480.223437 257.170139 481.280388 257.93305 482.483288 258.848544 483.577903 260.298075 484.557172 262.279259 485.159799 263.652499 485.479945 264.684813 485.517609 265.371433 485.555273 266.055669 485.272792 267.355002 484.670165 269.262279 483.992209 271.551013 482.878762 273.706236 481.336884 275.727951 479.792653 277.747281 478.472052 278.758138 477.382145 278.758138 476.289883 278.758138 475.367111 278.092975 474.613827 276.755496 473.860544 275.42517 473.634558 274.030474 473.938226 272.578558 474.312514 270.826247 474.237185 270.02519 473.709887 270.175389 472.805946 270.330355 471.751349 271.932468 470.546095 274.981728 470.244782 275.825699 469.941114 276.700662 469.642155 277.616155 469.263159 279.29456 469.150167 280.403165 469.303177 280.932434 469.453834 281.468856 470.131789 282.38435 471.337043 283.681298 473.067242 285.509901 474.387842 286.427778 475.291783 286.427778 476.572365 286.427778 478.116596 286.999961 479.926831 288.144328 481.732358 289.28631 482.899948 290.433061 483.427246 291.577428 484.333541 293.408414 485.046806 296.345622 485.574105 300.386666 486.101404 304.434863 486.139068 307.25525 485.687098 308.857363 485.235127 310.68835 484.142866 312.862646 482.410313 315.377868 480.677761 317.895475 478.907544 319.881428 477.099663 321.330959 475.743753 322.472941 474.557331 323.161945 473.542752 323.390819 472.523465 323.617308 470.169453 323.81042 466.480717 323.963002 463.088587 324.036909 460.732221 324.001147 459.418683 323.846181 458.098082 323.695983 456.495 323.200091 454.616499 322.360889 451.826996 321.061556 449.491816 319.576263 447.608607 317.895475 443.917517 314.54105 444.143502 311.413115 448.286562 308.514053 450.471085 306.988231 452.278966 306.320684 453.710205 306.511412 455.13909 306.702139 456.986989 307.789288 459.24684 309.770472 461.805651 312.137881 463.691214 313.318009 464.896468 313.318009 466.17705 313.318009 467.457632 312.443045 468.740568 310.68835 470.018797 308.93127 470.659088 307.217104 470.659088 305.536316 470.659088 303.097385 470.336588 301.378451 469.698651 300.386666 469.05836 299.397266 467.608289 298.329191 465.348438 297.184824 462.410631 295.659002 460.113116 294.209471 458.455892 292.833847 457.099981 291.615573 455.744071 289.648693 454.38816 286.942743 453.03225 284.234409 452.356648 282.04104 452.356648 280.360251 452.356648 278.455358 452.975753 275.86146 454.221025 272.578558 455.461589 269.300425 456.798668 266.706527 458.229907 264.79925 459.585818 262.968263 461.525523 261.175422 464.049024 259.420727 466.572524 257.663647 468.775879 256.597956 470.659088 256.2165M511.699729 260.643246C516.594042 259.808537 520.45302 259.184876 523.276662 258.76515 526.100304 258.347796 528.340393 258.101177 529.99693 258.025294 531.651114 257.949412 532.764099 258.044265 533.328828 258.309854 533.893556 258.577815 534.211216 259.01414 534.288866 259.61883 534.590054 260.908835 535.324201 261.800457 536.491307 262.291323 537.658412 262.786931 539.785556 263.03355 542.872738 263.03355 546.261108 263.03355 548.350604 263.31811 549.141223 263.884859 549.931843 264.453979 550.176559 265.87915 549.87537 268.15563 549.649479 270.055068 548.971805 271.475496 547.842348 272.42403 546.712891 273.372563 544.526922 274.491832 541.291498 275.781837 537.978425 277.071843 532.293492 278.475672 524.2367 279.993325 520.923627 280.600386 518.890604 281.397154 518.137633 282.383629 517.384662 283.370104 517.008176 285.795978 517.008176 289.668365 517.008176 293.388986 516.706988 299.874583 516.104611 309.129896 515.499881 318.392324 515.201045 323.40058 515.201045 324.154664 515.201045 325.371158 515.050451 326.129984 514.749263 326.433515 514.448074 326.737045 513.864522 327.021605 512.998605 327.287195 512.132688 327.555155 511.285595 328.102933 510.457327 328.937643 509.779653 329.547075 509.271397 329.883805 508.93256 329.962059 508.593723 330.037941 508.313712 330 508.085467 329.848235 507.859576 329.694098 507.367792 329.357369 506.617174 328.823819 505.864202 328.29264 504.995932 327.799403 504.019423 327.344107 502.814669 326.888811 501.946399 326.01616 501.421672 324.723784 500.894592 323.43615 500.631052 321.539083 500.631052 319.034955 500.631052 316.530827 500.703996 313.969787 500.856944 311.351836 501.007538 308.731512 501.233429 305.034604 501.534618 300.253996 501.835806 295.473388 502.024049 290.998683 502.099346 286.822765 502.17229 283.02626 502.136995 280.69524 501.986401 279.822589 501.835806 278.95231 501.346375 278.174513 500.518107 277.489197 499.689838 276.806253 498.541557 276.294045 497.073263 275.952573 495.604969 275.611101 494.322565 275.345512 493.23311 275.155805 492.138949 274.96847 491.160086 274.418321 490.296522 273.505357 489.430605 272.594766 489 271.266819 489 269.521518 489 267.548568 489.505903 266.16371 490.522414 265.366942 491.538925 264.570174 493.703717 263.868259 497.01679 263.261198L511.699729 260.643246zM252.66531 140.497471C251.88 140.062888 251.152861 140.077374 250.483894 140.540929 250.190615 140.772706 250.003982 141.315935 249.916726 142.170614 249.829469 143.025293 249.916726 143.496091 250.178496 143.583008 250.408756 143.669924 250.992891 143.409175 251.923628 142.800759 253.406991 141.815705 253.654218 141.047942 252.66531 140.497471M251.61823 152.100828C251.996342 151.46344 251.661858 151.057829 250.614779 150.883996 249.62587 150.710163 248.971445 150.768108 248.651504 151.057829 248.41882 151.347551 248.273392 151.96321 248.215221 152.904806 248.15705 153.846401 248.229764 154.346172 248.433363 154.404116 248.607876 154.46206 249.116873 154.186825 249.960354 153.578409 250.801411 152.969993 251.35646 152.477466 251.61823 152.100828M247.299027 135.23902C247.938909 135.123132 248.360649 135.050701 248.564248 135.021729 248.767847 134.992757 248.913274 134.992757 249.000531 135.021729 249.085364 135.050701 249.15323 135.101403 249.196858 135.173833 249.240487 135.246264 249.4659 135.325937 249.873097 135.412854 250.280295 135.49977 250.847463 135.572201 251.574602 135.630145 253.057965 135.717061 254.090501 135.948839 254.672212 136.325477 255.224838 136.644171 255.847753 137.296045 256.54823 138.281099 257.246283 139.266153 257.653481 140.062888 257.767399 140.671304 257.944336 141.42458 257.869199 142.221315 257.551681 143.061508 257.23174 143.901702 256.737286 144.626006 256.068319 145.234422L254.846726 146.364337 255.588407 146.842378C257.129941 147.885376 257.929794 148.971833 257.987965 150.101748 258.046136 151.724189 257.893437 152.933778 257.529867 153.730513 257.163874 154.527248 256.228289 155.64992 254.715841 157.098528 253.494248 158.31536 252.534425 159.133824 251.836372 159.55392 251.138319 159.974017 249.98944 160.415843 248.389735 160.879398 247.313569 161.198092 245.939277 161.487813 244.266858 161.748563 242.59444 162.009312 241.685516 162.067257 241.540088 161.922396 241.481917 161.864452 241.583717 161.705105 241.845487 161.444355 242.107257 161.183605 242.417502 160.930099 242.783496 160.683835 243.147065 160.437572 243.401563 160.31444 243.546991 160.31444 243.748166 160.31444 243.976003 160.24201 244.22323 160.097149 244.470457 159.952288 244.674056 159.800184 244.834027 159.640837 244.993997 159.48149 245.042473 159.358358 244.986726 159.271442 244.899469 159.184525 244.288673 159.249713 243.154336 159.467004 242.02 159.684295 241.351032 159.706024 241.147434 159.532191 240.943835 159.300414 240.951106 158.213957 241.169248 156.272821 241.387389 154.331685 241.743687 152.187744 242.238142 149.840998 243.808761 142.27926 244.812212 137.962405 245.246072 136.890435 245.597522 136.050241 246.060467 135.543228 246.644602 135.369395 246.75852 135.340423 246.976662 135.296965 247.299027 135.23902M261.302415 139.733172C261.758847 139.019551 262.228702 138.826874 262.71422 139.155139 263.1975 139.483405 263.761327 140.361158 264.405701 141.7884 264.72565 142.50202 264.913593 143.080053 264.969528 143.522498 265.020988 143.964943 265.007564 144.871241 264.927017 146.241393 264.819622 147.697179 264.651816 149.110148 264.425838 150.4803 264.195385 151.850452 264.00073 153.334783 263.841874 154.933293 263.597997 157.245424 263.342932 158.686938 263.07668 159.257834 262.886501 159.657462 262.698558 159.885821 262.510616 159.94291 262.322674 160 261.801357 160.014272 260.942192 159.985728 259.624359 159.900093 258.807705 159.693143 258.48328 159.364878 258.163331 159.036612 258 158.215948 258 156.902886 258 155.475645 258.093971 154.105493 258.281913 152.792431 258.926287 148.425072 259.443129 145.385048 259.834675 143.672358 260.223984 141.959669 260.711739 140.646606 261.302415 139.733172M276.387156 134.079195C276.965894 133.967002 277.661757 133.974014 278.474745 134.100231 279.287734 134.226448 279.884844 134.429797 280.272966 134.710279 280.713909 135.046857 281.113514 135.579772 281.47178 136.309025 281.692251 136.813892 281.809377 137.192542 281.823156 137.444976 281.836936 137.69741 281.73359 138.174229 281.513118 138.875433 281.265088 139.716878 280.858594 140.509239 280.293635 141.252516 279.728677 141.995793 279.246396 142.367431 278.846791 142.367431 278.44489 142.367431 278.109589 142.12201 277.834 141.631166 277.558411 141.140323 277.475734 140.628444 277.58597 140.095529 277.723764 139.450421 277.696205 139.155915 277.503293 139.212011 277.172586 139.268108 276.78676 139.857119 276.345817 140.979046 276.235582 141.287576 276.125346 141.61013 276.01511 141.946708 275.877315 142.563768 275.835977 142.970467 275.891095 143.166804 275.946213 143.363141 276.194243 143.69972 276.635186 144.176539 277.269042 144.849695 277.751323 145.186273 278.082031 145.186273 278.550532 145.186273 279.115491 145.396634 279.776905 145.817357 280.43832 146.23808 280.865483 146.658802 281.058396 147.079525 281.389103 147.752681 281.650913 148.832536 281.843826 150.319089 282.036738 151.805643 282.050518 152.843425 281.887461 153.432437 281.71981 154.105593 281.320206 154.904966 280.68635 155.830556 280.052495 156.756146 279.40486 157.485398 278.743445 158.018314 278.249681 158.439036 277.813331 158.69147 277.441285 158.775615 277.06924 158.859759 276.208023 158.92988 274.857635 158.985976 273.617482 159.014024 272.756266 159 272.273984 158.943904 271.791703 158.887807 271.206075 158.705494 270.517102 158.396964 269.497421 157.920145 268.643094 157.373206 267.954121 156.756146 266.603733 155.522026 266.68641 154.372051 268.204448 153.30622 269.00136 152.745257 269.662775 152.499835 270.186395 152.569955 270.710015 152.640076 271.385208 153.039762 272.211977 153.769015 273.148981 154.638508 273.837954 155.073255 274.278897 155.073255 274.747399 155.073255 275.215901 154.750701 275.684403 154.105593 276.152905 153.460485 276.387156 152.829401 276.387156 152.212341 276.387156 151.3148 276.27003 150.683716 276.035779 150.319089 275.801528 149.954463 275.271019 149.561788 274.444251 149.141066 273.371749 148.580102 272.528904 148.047187 271.922608 147.54232 271.426547 147.093549 270.930486 146.371308 270.434425 145.375598 269.938364 144.379888 269.690334 143.573503 269.690334 142.956443 269.690334 142.255238 269.917695 141.3016 270.372418 140.095529 270.82714 138.889457 271.316311 137.935819 271.842228 137.234615 272.335992 136.561459 273.045635 135.902326 273.968859 135.257218 274.892083 134.61211 275.698182 134.219436 276.387156 134.079195M289.869565 134.214428C290.275362 133.404809 290.608696 133 290.869565 133 291.070048 133 291.413043 133.310836 291.891304 133.932507 292.36715 134.554179 292.710145 135.154164 292.913043 135.732463 293.028986 136.021612 293.217391 137.120381 293.475845 139.028767 293.623188 139.982961 293.811594 140.488972 294.043478 140.546802 294.246377 140.575717 294.504831 140.344398 294.826087 139.852844 295.084541 139.448034 296.26087 138.486612 298.347826 136.968577 300.434783 135.450542 301.707729 134.763812 302.173913 134.908387 302.548309 135.024047 303.188406 135.125249 304.086957 135.211994 304.695652 135.298739 305.330918 135.558973 306 135.992697 306.664251 136.426422 307 136.802316 307 137.120381 307 137.29387 306.772947 137.669765 306.323671 138.248064 305.874396 138.826363 305.57971 139.115512 305.432367 139.115512 305.318841 139.115512 305.007246 139.332374 304.5 139.766099 303.992754 140.199823 303.202899 140.821494 302.128019 141.631113 301.057971 142.440732 299.896135 143.178063 298.652174 143.843107 297.347826 144.565981 296.536232 145.057535 296.217391 145.317769 295.896135 145.578004 295.710145 145.910526 295.652174 146.315335 295.623188 146.662315 295.664251 146.944235 295.780193 147.161098 295.896135 147.37796 296.028986 147.515306 296.171498 147.573136 296.318841 147.630966 296.456522 147.71771 296.584541 147.83337 296.717391 147.94903 296.780193 148.108062 296.780193 148.310467 296.780193 148.455042 296.833333 148.563473 296.934783 148.63576 297.036232 148.708048 297.23913 148.888766 297.543478 149.177915 297.847826 149.467065 298.18599 149.900789 298.565217 150.479088 299.173913 151.433282 299.60628 151.910378 299.869565 151.910378 300.012077 151.910378 300.166667 152.004352 300.323671 152.192299 300.485507 152.380246 300.73913 152.698311 301.086957 153.146493 301.432367 153.594674 301.794686 154.006712 302.173913 154.382607 302.782609 155.018736 303.157005 155.74161 303.304348 156.551228 303.391304 157.100612 303.391304 157.505422 303.304348 157.765656 303.214976 158.025891 302.956522 158.401785 302.519324 158.893339 301.910628 159.674043 301.301932 160.064395 300.693237 160.064395 300.316425 160.064395 300.004831 160.122225 299.76087 160.237884 299.512077 160.353544 299.347826 160.43306 299.26087 160.476433 299.173913 160.519805 299.012077 160.461975 298.780193 160.302943 298.550725 160.143911 298.173913 159.789703 297.652174 159.240319 296.664251 158.228295 295.997585 157.447592 295.652174 156.898208 295.217391 156.204249 294.504831 155.199454 293.521739 153.883824 292.536232 152.568194 291.968599 151.867006 291.826087 151.780261 291.359903 151.491112 291.02657 152.503135 290.826087 154.816331 290.649758 156.348823 290.425121 157.411448 290.149758 158.004204 289.874396 158.596961 289.461353 158.893339 288.913043 158.893339 288.507246 158.893339 288.128019 159.037914 287.782609 159.327064 287.432367 159.616213 287.173913 159.905363 287 160.194512 286.823671 160.483662 286.613527 160.714981 286.369565 160.888471 286.120773 161.061961 285.896135 161.033046 285.693237 160.801726 285.403382 160.541491 284.884058 160.252342 284.130435 159.934277L283 159.457181 283.130435 157.331932C283.246377 155.799439 283.442029 154.519953 283.717391 153.493472 283.990338 152.466991 284.294686 151.592314 284.630435 150.86944 284.963768 150.146566 285.173913 149.524895 285.26087 149.004426 285.318841 148.715276 285.635266 147.681567 286.214976 145.903297 286.797101 144.125028 287.130435 143.149148 287.214976 142.975658 287.362319 142.628679 287.461353 141.81906 287.519324 140.546802 287.57971 139.274545 287.869565 138.117946 288.391304 137.077008L289.869565 134.214428z"/>
  </g>
</svg>
