<svg xmlns="http://www.w3.org/2000/svg" width="550" height="472"><g fill="#48484F" fill-opacity=".25" fill-rule="evenodd" opacity=".699"><path d="M121.536 266c3.135-3.786 7.073-4.537 10.393-3.52L275.295 14.223l138.736 240.24c.26-.114.517-.257.78-.347 1.843-.64 4.7-1.007 8.19.574.375-.012 1.024-.064 1.999-.197L279.402 2.371a4.746 4.746 0 0 0-8.216 0L121 262.435c.31 1.019.493 1.946.545 2.832.012.235-.004.486-.01.733m423.833 198.866L468.63 331.41c-.429.021-.85.04-1.334.06-1.248.028-2.36.042-3.348.042-2.15 0-3.716-.064-4.862-.197a17.081 17.081 0 0 1-1.6-.262l75.576 131.436H16.937L92.25 331.512h-.107c-2.15 0-3.716-.064-4.86-.197-1.562-.176-3.248-.614-5.103-1.315L4.632 464.866a4.787 4.787 0 0 0 0 4.756A4.736 4.736 0 0 0 8.736 472h532.53c1.69 0 3.256-.906 4.102-2.378a4.787 4.787 0 0 0 0-4.756"/><path d="M234.425 196.848l-.258 29.538c-11.404-1.56-23.082-3.96-34.805-7.463 10.098-9.452 21.973-16.996 35.063-22.075zm2.086 32.252c1.72.217 3.44.429 5.144.61a313.495 313.495 0 0 1-5.205 6.207l.061-6.817zm.292-33.156c10.28-3.712 21.272-5.898 32.709-6.317-4.214 7.364-12.92 21.522-26.05 37.868a257.11 257.11 0 0 1-6.93-.783l.27-30.768zm36.723-6.42c.393 0 .78.026 1.17.031 7.37 13.891 15.958 26.509 25.064 37.805-15.78 1.545-34.052 2.116-53.491.397 13.466-16.932 22.153-31.359 26.004-38.202.42-.005.831-.03 1.253-.03zm36.723 6.42l.237 27.008a4.753 4.753 0 0 0-3.685 3.643 304.48 304.48 0 0 1-4.206.486c-9.118-11.182-17.75-23.67-25.175-37.457 11.479.407 22.51 2.596 32.83 6.32zm.356 40.492a266.606 266.606 0 0 1-6.21-7.174c.84-.093 1.681-.188 2.508-.288.5 1.7 1.904 3 3.666 3.324l.036 4.138zm36.995-17.598c-6.368 1.726-17.57 4.417-32.01 6.571a4.715 4.715 0 0 0-2.733-2.302l-.23-26.259a109.106 109.106 0 0 1 34.973 21.99zm3.75 3.674c-3.761 12.44-6.324 24.853-7.941 36.947l-9.796-.086c-6.785-6.06-13.75-12.803-20.614-20.272l-.061-6.989a4.748 4.748 0 0 0 3.209-4.381c15.574-2.333 27.347-5.276 33.45-6.979.592.581 1.175 1.167 1.753 1.76zm-64.73 36.625h-26.19l12.383-12.448c.24-.005.474-.019.713-.019.237 0 .474.014.713.02l12.382 12.447zm5.192 5.22a38.83 38.83 0 0 0-6.74-2.838h3.917l2.823 2.838zm-36.574 0l2.823-2.838h3.92a38.854 38.854 0 0 0-6.743 2.838zm-81.649-8.798a109.901 109.901 0 0 1 20.179-31.01c1.565 5.713 3.912 15.335 5.963 27.679a9.222 9.222 0 0 1 2.3-.562c-2.231-13.413-4.81-23.597-6.364-29.119.57-.585 1.144-1.164 1.727-1.738 12.376 3.781 24.723 6.358 36.751 7.986l-.087 9.846a294.824 294.824 0 0 1-18.573 19.206c.647.869 1.3 1.807 1.968 2.881.195.314.391.66.585.983l1.502-.012c.052-.74.18-1.542.417-2.385l-2.582.023a296.504 296.504 0 0 0 16.652-17.1l-.071 8.04c.76.189 1.544.479 2.361.86l.102-11.593a315.108 315.108 0 0 0 8.074-9.57c20.836 1.964 40.406 1.31 57.088-.407a273.385 273.385 0 0 0 9.057 10.438l.14 15.942c-9.985-8.734-23.011-14.039-37.252-14.039-12.654 0-24.332 4.203-33.787 11.262.692.481 1.41 1.012 2.18 1.622l.378.324c.498.457.87.793 1.137.993.052.038.107.095.159.133 7.394-5.24 16.182-8.612 25.703-9.386l-12.216 12.281h-10.629c.514.665 1.045 1.45 1.457 2.382h6.804l-5.746 5.778c.024.77.012 1.515-.068 2.21-.064.533-.15 1.374-.258 2.493 6.55-6.096 15.278-9.853 24.886-9.853 7.998 0 15.382 2.612 21.42 6.996a55.961 55.961 0 0 1 2.22-2.767l-4.828-4.857h9.497a28.534 28.534 0 0 1 3.017-2.382h-14.883l-12.213-12.281c10.714.871 20.5 5.036 28.413 11.455.992-.569 1.97-1.026 2.941-1.35a30.82 30.82 0 0 1 4.036-1.136l-.116-13.224a296.298 296.298 0 0 0 17.007 16.739l-1.577-.014c.239.169.469.302.71.48 1.007.739 1.843 1.372 2.558 1.93l.985.009a307.409 307.409 0 0 0 7.039 6.043 33.82 33.82 0 0 1 .8-2.426c-1.404-1.177-2.801-2.339-4.232-3.584l5.838.052a21.42 21.42 0 0 1 4.083-5.186c1.551-10.562 3.79-21.334 6.987-32.151a109.823 109.823 0 0 1 21.956 35.25l-7.948-.072c.602.79 1.142 1.588 1.61 2.398l6.902.061c1.217-2.64 2.64-4.74 4.33-6.345A13.212 13.212 0 0 1 383 253.72C365.228 210.5 322.86 180 273.526 180 224.14 180 181.74 210.561 164 253.851c.502-.042.992-.095 1.513-.123 2.236-.12 4.813.485 8.076 1.83zm180.498 117.006c-1.825-6.778-4.732-19-6.937-34.788l28.83-.256a109.371 109.371 0 0 1-21.893 35.044zm-3.644 3.745c-12.382-3.816-24.749-6.417-36.804-8.057l.09-9.872c5.979-6.75 12.636-13.667 19.998-20.483l11.043-.097c2.383 17.207 5.602 30.231 7.409 36.767-.572.586-1.15 1.168-1.736 1.742zm-37.086 23.895l.263-29.55c11.425 1.57 23.127 3.994 34.856 7.532a109.173 109.173 0 0 1-35.12 22.018zm.542-61.104c.351-.34.698-.686 1.037-1.037l15.306-.138a293.595 293.595 0 0 0-16.482 16.871l.14-15.696zm28.33-8.726c.49.43 1.069.755 1.709.954.163 1.388.33 2.758.507 4.099l-8.072.07a261.48 261.48 0 0 1 5.855-5.123zm-30.866 27.109a306.931 306.931 0 0 0-8.106 9.587c-20.752-1.962-40.273-1.307-56.935.41a267.862 267.862 0 0 0-6.103-7.161 4.735 4.735 0 0 0-3.189-7.321l-.104-11.693c9.995 8.702 23.033 13.992 37.29 13.992 14.256 0 27.296-5.29 37.291-13.995l-.144 16.18zm-.093 10.465c-1.73-.218-3.461-.432-5.178-.612a308.424 308.424 0 0 1 5.24-6.237l-.062 6.85zm-.294 33.158c-10.294 3.702-21.304 5.88-32.757 6.298 4.205-7.361 12.923-21.536 26.072-37.866 2.306.228 4.625.492 6.96.788l-.275 30.78zm-36.76 6.4c-.383 0-.758-.026-1.14-.028-7.307-13.907-15.853-26.522-24.938-37.8 15.759-1.547 33.983-2.117 53.348-.403-13.485 16.918-22.182 31.359-26.03 38.198-.414.005-.824.033-1.24.033zm-36.761-6.4l-.268-30.163c2.624-.351 5.318-.683 8.115-.985 9.104 11.161 17.698 23.646 25.06 37.451-11.508-.403-22.568-2.584-32.907-6.303zm-.344-38.775c.47-.083.908-.242 1.318-.45a262.755 262.755 0 0 1 5.083 5.906c-2.162.242-4.289.496-6.344.769l-.057-6.225zm20.643-24.209l12.226 12.241c-11.193-.904-21.397-5.356-29.488-12.24h17.262zm4.905-2.373h-3.924l-2.826-2.829a38.545 38.545 0 0 0 6.75 2.83zm24.666 2.373l-12.397 12.41c-.237.004-.474.019-.711.019-.24 0-.477-.015-.714-.02l-12.397-12.409h26.219zm5.197-5.202l-2.826 2.83h-3.922a38.598 38.598 0 0 0 6.748-2.83zm15.417 5.202c-8.091 6.885-18.295 11.337-29.488 12.241l12.226-12.24h17.262zm-107.884 40.159c6.771-1.842 18.988-4.784 34.763-7.017l.256 28.94a109.192 109.192 0 0 1-35.019-21.923zm-3.722-3.629c3.848-12.409 6.467-24.787 8.127-36.845l9.965.088a288.276 288.276 0 0 1 17.847 17.267 4.714 4.714 0 0 0-.73 2.508c0 2.077 1.342 3.82 3.196 4.464l.061 6.752c-17.19 2.413-30.213 5.662-36.743 7.487a107.15 107.15 0 0 1-1.723-1.72zm-23.881-37.132l29.606.263c-1.586 11.434-4.03 23.148-7.598 34.902a109.305 109.305 0 0 1-22.008-35.165zm61.041.543c.341.351.69.7 1.04 1.042l.127 14.123a4.76 4.76 0 0 0-.669.31 289.655 289.655 0 0 0-15.984-15.613l15.486.138zm144.575-6.443a109.34 109.34 0 0 1-1.188 3.517l-30.045.268c-.17-1.296-.334-2.61-.496-3.949a4.755 4.755 0 0 0 2.957-2.048c-1.024-.555-1.96-1.144-2.738-1.806-.567-.481-1.124-1.06-1.679-1.697-1.973 2.48-4.265 4.113-6.8 4.915a284.327 284.327 0 0 0-5.258 4.711l-15.685.138c.818-.94 1.572-1.932 2.328-2.922-2.333.53-4.706.826-7.117.826-.252 0-.505-.026-.76-.03v1.164c-.34.352-.689.7-1.04 1.042h-17.499l5.32-5.325a21.63 21.63 0 0 1-3.124-1.96c-5.965 4.184-13.208 6.661-21.027 6.661-13.457 0-25.212-7.3-31.613-18.126a8.735 8.735 0 0 1-.67 1.393c-.103 1.042-.392 2.074-.8 3.097l14.249 14.26h-17.5c-.35-.341-.696-.688-1.038-1.04v-7.287c-.782.67-1.567 1.186-2.37 1.569v3.108a52.922 52.922 0 0 1-1.918-2.442c-1.539.34-3.215.302-5.098-.14a8.731 8.731 0 0 1-.929-.251c1.458 2.235 3.02 4.395 4.765 6.403l-15.974-.14a321.006 321.006 0 0 0-5.377-4.633c-.467.342-.918.686-1.44 1.016-.199.13-.393.232-.592.358a251.224 251.224 0 0 1 3.8 3.225l-6.941-.061c.064-.518.118-1.03.182-1.548-.837.394-1.671.738-2.503 1.011-.024.171-.038.342-.06.515l-1.778-.016c-.232.052-.465.13-.694.17a15.439 15.439 0 0 1-2.8.266c-1.26 0-2.321-.21-3.298-.498l-22.27-.197c-.756-2.1-1.429-4.24-2.052-6.4-3.026.835-6.053 1.307-9.05 1.307-.152 0-.299-.016-.448-.019C173.886 380.114 219.813 417 274.217 417c55.124 0 101.58-37.861 114.783-88.972-.927.56-1.83 1.04-2.705 1.379-1.845.792-4.495 1.507-8.227 2.214z"/><path d="M193 259l-11 .078c1.207.63 2.257 1.27 3.166 1.922l6.789-.047c.284-.663.621-1.319 1.045-1.953M6.625 260.889c1.444-.835 2.986-1.082 4.623-.74 1.637.341 3.103 1.233 4.4 2.673 1.368 1.521 2.399 3.191 3.084 5.016.685 1.82 1.216 4.365 1.599 7.627.454 4.253 1.444 6.147 2.97 5.694.228-.074.495-.228.8-.454.758-.607 1.139-1.293 1.139-2.052 0-.683.933-2.294 2.8-4.84 1.864-2.543 4.208-5.332 7.023-8.37 1.675-1.897 2.893-3.074 3.655-3.527.761-.458 1.83-.685 3.2-.685 1.978 0 3.653.455 5.024 1.366 1.373.911 2.058 2.05 2.058 3.416 0 1.521-1.906 5.637-5.713 12.356-3.808 6.718-5.709 10.381-5.709 10.988 0 .99-.46 2.392-1.37 4.214l-2.744 6.263c-.61 1.52-1.407 3.302-2.399 5.352-.99 2.05-1.751 3.698-2.282 4.956a26.606 26.606 0 0 0-1.259 3.584c-1.599 6.15-2.738 9.644-3.424 10.477-.611.531-1.83.797-3.655.797-1.297 0-2.284-.17-2.97-.512-.687-.342-1.563-1.044-2.627-2.107-1.827-1.972-3.616-5.56-5.37-10.761-1.752-5.2-2.853-10.42-3.31-15.658-.46-4.327-1.145-7.516-2.058-9.565-.912-2.05-1.826-4.743-2.74-8.083-.916-3.34-1.37-5.732-1.37-7.179 0-1.288.76-3.129 2.284-5.52 1.52-2.394 2.97-3.967 4.34-4.726m53.812 10.065c1.304-1.903 2.647-2.416 4.028-1.539 1.38.873 2.992 3.214 4.833 7.02.92 1.903 1.458 3.447 1.61 4.624.154 1.183.116 3.6-.114 7.25-.31 3.885-.789 7.653-1.439 11.304-.654 3.654-1.208 7.612-1.668 11.875-.69 6.166-1.42 10.01-2.187 11.532-.537 1.068-1.076 1.677-1.61 1.827-.538.155-2.034.19-4.489.114-3.759-.228-6.099-.78-7.02-1.655-.92-.873-1.38-3.064-1.38-6.566 0-3.806.269-7.46.806-10.96 1.84-11.647 3.318-19.754 4.43-24.321 1.112-4.567 2.512-8.069 4.2-10.505m38.223-14.738c1.582-.305 3.482-.288 5.706.055 2.22.346 3.858.9 4.915 1.662 1.203.916 2.298 2.365 3.277 4.346.603 1.373.923 2.406.96 3.092.038.685-.244 1.984-.847 3.891-.678 2.289-1.791 4.444-3.333 6.466-1.544 2.02-2.865 3.03-3.955 3.03-1.092 0-2.015-.665-2.768-2.003-.753-1.33-.98-2.725-.676-4.176.375-1.753.3-2.554-.228-2.404-.904.155-1.959 1.757-3.164 4.807-.301.844-.605 1.719-.904 2.634-.379 1.679-.492 2.787-.339 3.316.15.537.829 1.452 2.034 2.75 1.73 1.828 3.05 2.746 3.955 2.746 1.28 0 2.825.572 4.635 1.716 1.805 1.142 2.973 2.29 3.5 3.433.907 1.831 1.62 4.769 2.147 8.81.527 4.048.565 6.868.113 8.47-.452 1.831-1.544 4.006-3.277 6.52-1.732 2.518-3.502 4.504-5.31 5.954-1.356 1.142-2.543 1.83-3.557 2.06-1.02.226-3.374.42-7.062.572-3.392.074-5.749.038-7.062-.117-1.32-.15-2.924-.646-4.803-1.485-2.789-1.3-5.124-2.785-7.007-4.466-3.691-3.354-3.465-6.482.678-9.38 2.184-1.527 3.992-2.194 5.423-2.004 1.43.191 3.277 1.278 5.537 3.26 2.559 2.367 4.444 3.547 5.65 3.547 1.28 0 2.56-.875 3.844-2.63 1.278-1.757 1.918-3.47 1.918-5.152 0-2.439-.322-4.158-.96-5.15-.64-.989-2.09-2.057-4.35-3.201-2.938-1.526-5.236-2.976-6.893-4.351-1.356-1.218-2.712-3.185-4.068-5.891-1.356-2.709-2.031-4.902-2.031-6.583 0-1.905.619-4.499 1.864-7.781 1.24-3.279 2.578-5.872 4.009-7.78 1.356-1.83 3.296-3.624 5.819-5.378 2.524-1.757 4.727-2.823 6.61-3.204m27.777 14.737c1.304-1.903 2.647-2.416 4.028-1.539 1.38.873 2.992 3.214 4.833 7.02.92 1.903 1.458 3.447 1.61 4.624.154 1.183.116 3.6-.114 7.25-.31 3.885-.789 7.653-1.439 11.304-.654 3.654-1.208 7.612-1.668 11.875-.69 6.166-1.42 10.01-2.187 11.532-.537 1.068-1.076 1.677-1.61 1.827-.538.155-2.034.19-4.489.114-3.759-.228-6.099-.78-7.02-1.655-.92-.873-1.38-3.064-1.38-6.566 0-3.806.269-7.46.806-10.96 1.84-11.647 3.318-19.754 4.43-24.321 1.112-4.567 2.512-8.069 4.2-10.505m43.643 11.585c-.456-1.222-.897-1.985-1.313-2.293-.421-.303-1.161-.494-2.227-.57-1.827-.153-3.238.152-4.226.916-.992.763-2.438 2.632-4.34 5.61-1.446 2.293-2.36 4.03-2.74 5.214-.381 1.186-.65 3.11-.8 5.784-.155 2.747-.136 4.522.057 5.324.188.802.816 1.818 1.885 3.035.913.995 1.656 1.625 2.227 1.89.57.272 1.234.327 1.998.174 2.437-.61 4.626-2.386 6.565-5.328a23.122 23.122 0 0 0 3.657-9.62c.495-3.474.245-6.853-.743-10.136m-15.418-17.983c2.206-2.062 6.091-3.245 11.65-3.55 1.444-.077 3.787.649 7.023 2.176 3.236 1.527 5.616 3.016 7.138 4.467 2.284 2.214 4.397 5.46 6.339 9.736a53.073 53.073 0 0 1 4.054 13.286c.457 2.75-.247 6.641-2.113 11.683-1.867 5.04-4.094 8.934-6.68 11.681-2.668 3.057-5.997 5.481-9.994 7.276-3.997 1.794-7.937 2.689-11.82 2.689-4.721 0-8.852-1.604-12.392-4.81-3.54-3.205-6.224-7.749-8.052-13.63-.456-1.678-.723-4.122-.799-7.33-.079-3.209.152-5.42.683-6.645 1.218-3.28 2.458-6.087 3.714-8.416 1.256-2.33 2.322-3.99 3.198-4.983a23.459 23.459 0 0 1 2.627-2.577c.873-.725 1.56-1.126 2.055-1.202.495-.074.952-.325 1.37-.747.417-.418.629-.819.629-1.203 0-.382-.038-1.257-.114-2.632-.229-1.53-.27-2.577-.115-3.15.15-.575.686-1.279 1.6-2.119m73.808-5.874c1.208-1.286 2.415-1.835 3.626-1.646 1.209.19 3.06 1.267 5.553 3.237.831.757 1.433 1.27 1.813 1.534.376.267.813.703 1.304 1.306.49.609.774 1.061.85 1.364.075.303.17.89.283 1.761.113.874.13 1.631.057 2.273-.076.644-.19 1.745-.34 3.298a65.517 65.517 0 0 1-.567 4.375c-.227 1.363-.493 3.333-.793 5.909-.302 2.575-.607 5.113-.907 7.61-1.813 15.985-3.21 24.472-4.193 25.454-.531.53-.793 1.364-.793 2.5 0 1.14-.567 2.387-1.7 3.75-.756.836-1.381 1.345-1.87 1.537-.494.19-1.228.17-2.21-.06-1.058-.227-3.003-1.704-5.837-4.431-2.833-2.727-4.268-4.505-4.306-5.34-.04-.832-1.039-2.596-3.003-5.285-1.967-2.687-3.249-4.031-3.853-4.031-1.36 0-2.116 3.974-2.267 11.929 0 2.954-.321 5.113-.963 6.477-.643 1.363-1.984 2.691-4.023 3.977-2.192 1.442-4.213 2.33-6.064 2.673-1.85.338-3.23.094-4.136-.741-.756-.68-1.131-2.422-1.131-5.227 0-2.801.41-9.05 1.244-18.75l1.814-22.5c.604-8.633 1.17-14.09 1.7-16.363.375-1.818 1.248-3.446 2.606-4.883 1.36-1.44 2.493-2.008 3.4-1.707.753.305 1.735.454 2.946.454.605 0 1.341.493 2.21 1.478.87.984 1.776 2.237 2.72 3.75a84.822 84.822 0 0 1 2.89 5.056 379.154 379.154 0 0 1 2.89 5.57 466.785 466.785 0 0 0 2.607 5.055c.793 1.517 1.473 2.71 2.04 3.58.566.87.963 1.268 1.19 1.195.453-.152.941-3.412 1.473-9.775.529-6.361.982-9.732 1.36-10.111.455-.457.68-1.328.68-2.616s.569-2.5 1.7-3.636m89.734 24.426c-1.13-3.514-2.146-5.154-3.05-4.925-.228 0-.451.267-.677.8-2.033 5.656-3.595 10.887-4.687 15.702-1.092 4.811-1.562 8.633-1.412 11.455.15 2.832.904 4.245 2.259 4.245.525 0 1.525-.842 2.993-2.523 1.468-1.679 2.614-3.324 3.444-4.928.525-1.07 1.09-3.858 1.694-8.366.374-3.053.525-5.214.452-6.475-.078-1.26-.414-2.922-1.016-4.985m-6.89-19.826c2.935-1.067 5.325-1.468 7.172-1.203 1.842.27 3.934 1.282 6.268 3.037 1.654 1.225 2.88 2.177 3.67 2.865.79.688 1.525 1.299 2.202 1.836a5.09 5.09 0 0 1 1.525 1.946c.339.764.619 1.375.847 1.836.226.456.581 1.47 1.073 3.034.487 1.566.922 2.925 1.299 4.069 1.051 3.134 1.58 7.277 1.58 12.434 0 5.157-.529 9.149-1.58 11.975-1.054 2.827-1.49 4.833-1.3 6.017.187 1.184 1.147 2.808 2.88 4.87l3.05 3.555-1.694 2.405c-1.132 1.451-2.315 2.351-3.557 2.69a7.02 7.02 0 0 1-3.784 0c-1.282-.339-2.842-.51-4.687-.51-1.846 0-3.858.417-6.042 1.258-4.218 1.604-8.641 2.005-13.27 1.203-4.63-.802-8.114-2.617-10.446-5.441-3.087-3.672-4.595-9.896-4.517-18.682.075-8.784 1.694-16.577 4.856-23.379 1.503-3.209 3.762-6.475 6.776-9.798 3.01-3.324 5.572-5.329 7.68-6.017M401 280.88c0 1.89-.495 6.03-1.479 12.416-.986 6.386-1.479 10.144-1.479 11.278 0 1.813-.533 3.516-1.593 5.101l-3.071 4.648c-.913 1.36-2.446 2.988-4.608 4.875-2.162 1.89-3.965 3.099-5.404 3.63-1.52.678-4.342 1.38-8.476 2.095-4.136.718-7.264 1.077-9.388 1.077-2.804 0-5.423-.3-7.848-.907-3.185-.831-5.423-1.795-6.712-2.89-1.292-1.097-2.73-3.192-4.323-6.293-1.368-2.794-2.219-4.931-2.56-6.405-.341-1.474-.626-4.554-.853-9.24-.228-2.796-.268-5.4-.114-7.822.152-2.418.284-3.946.398-4.591.114-.64.415-2.135.91-4.478.493-2.34.93-4.835 1.309-7.482.606-3.928 1.403-7.03 2.389-9.296.986-2.268 2.351-4.12 4.095-5.553 1.667-1.436 3.089-2.06 4.267-1.873 1.175.191 2.711 1.268 4.607 3.233 1.894 2.039 3.089 4.138 3.584 6.292.493 2.154.586 5.725.285 10.711-.076 1.06-.19 2.57-.342 4.535-.607 8.089-.891 12.907-.853 14.454.038 1.55.472 3.004 1.308 4.367.152.302.301.527.453.678 1.368 2.343 2.37 3.514 3.017 3.514.643 0 1.764-.678 3.356-2.038 1.517-1.287 2.937-3.647 4.267-7.085 1.325-3.44 1.99-6.481 1.99-9.129 0-1.814.38-4.098 1.138-6.859.756-2.756 1.138-5.233 1.138-7.423 0-2.345.512-4.896 1.536-7.654 1.024-2.759 2.218-4.778 3.584-6.065 1.21-1.134 2.844-1.701 4.892-1.701 1.365 0 2.332.21 2.9.624.57.418 1.499 1.57 2.788 3.457 1.365 2.27 2.52 5.102 3.468 8.503.95 3.403 1.424 6.502 1.424 9.296m30.698-21.223c.531-.532 2.255-.74 5.18-.627 2.92.112 4.61.437 5.066.972.377.453.664 1.48.854 3.074.19 1.596.244 3.235.17 4.905a2.525 2.525 0 0 1-.626 1.368c-.341.38-.704.665-1.081.853-.382.192-1.025.458-1.936.798-.91.344-1.67.67-2.276.971-1.52.76-5.237 1.71-11.157 2.851-1.215.228-2.163.684-2.847 1.368-.685.684-.837 1.366-.455 2.053.377.608 2.163.762 5.35.456 2.81-.302 4.593-.188 5.352.342.756.534 1.136 1.9 1.136 4.104 0 1.369-.152 2.378-.453 3.022-.304.646-.949 1.387-1.936 2.223-1.594 1.295-2.808 1.939-3.645 1.939-.835 0-2.085.534-3.757 1.596l-2.502 1.482.225 5.927c.078 3.347.439 5.342 1.084 5.988.643.647 1.8.133 3.47-1.539 1.214-1.216 3.114-2.698 5.695-4.449 2.58-1.744 4.4-2.808 5.464-3.193.76-.225 1.233-.244 1.423-.054.188.19.285.665.285 1.425 0 1.292.377 2.242 1.138 2.85.53.383.854 1.103.968 2.167.114 1.064.133 2.964.057 5.699l-.228 6.843-3.757 3.42c-2.96 2.664-5.486 4.43-7.57 5.303-2.09.874-4.765 1.273-8.029 1.197-2.275-.074-4.077-.247-5.405-.516-1.328-.263-2.827-.814-4.497-1.65-2.81-1.445-4.63-2.813-5.465-4.108-.986-1.441-1.878-3.532-2.675-6.268-.797-2.737-1.233-5.17-1.31-7.298-.078-2.054.378-6.499 1.364-13.342.99-6.84 1.938-12.198 2.849-16.075.683-3.04 1.347-5.242 1.992-6.613.643-1.368 1.879-3.155 3.7-5.357 1.442-1.674 2.654-2.681 3.643-3.024.985-.342 2.161-.133 3.53.628.834.456 2.789.456 5.863 0 3.073-.459 4.99-1.029 5.749-1.71m38.961-3.442c1.582-.305 3.482-.288 5.706.055 2.22.346 3.858.9 4.915 1.662 1.203.916 2.298 2.365 3.277 4.346.603 1.373.923 2.406.96 3.092.038.685-.244 1.984-.847 3.891-.678 2.289-1.791 4.444-3.333 6.466-1.544 2.02-2.865 3.03-3.955 3.03-1.092 0-2.015-.665-2.768-2.003-.753-1.33-.98-2.725-.676-4.176.375-1.753.3-2.554-.228-2.404-.904.155-1.959 1.757-3.164 4.807-.301.844-.605 1.719-.904 2.634-.379 1.679-.492 2.787-.339 3.316.15.537.829 1.452 2.034 2.75 1.73 1.828 3.05 2.746 3.955 2.746 1.28 0 2.825.572 4.635 1.716 1.805 1.142 2.973 2.29 3.5 3.433.907 1.831 1.62 4.769 2.147 8.81.527 4.048.565 6.868.113 8.47-.452 1.831-1.544 4.006-3.277 6.52-1.732 2.518-3.502 4.504-5.31 5.954-1.356 1.142-2.543 1.83-3.557 2.06-1.02.226-3.374.42-7.062.572-3.392.074-5.749.038-7.062-.117-1.32-.15-2.924-.646-4.803-1.485-2.789-1.3-5.124-2.785-7.007-4.466-3.691-3.354-3.465-6.482.678-9.38 2.184-1.527 3.992-2.194 5.423-2.004 1.43.191 3.277 1.278 5.537 3.26 2.559 2.367 4.444 3.547 5.65 3.547 1.28 0 2.56-.875 3.844-2.63 1.278-1.757 1.918-3.47 1.918-5.152 0-2.439-.322-4.158-.96-5.15-.64-.989-2.09-2.057-4.35-3.201-2.938-1.526-5.236-2.976-6.893-4.351-1.356-1.218-2.712-3.185-4.068-5.891-1.356-2.709-2.031-4.902-2.031-6.583 0-1.905.619-4.499 1.864-7.781 1.24-3.279 2.578-5.872 4.009-7.78 1.356-1.83 3.296-3.624 5.819-5.378 2.524-1.757 4.727-2.823 6.61-3.204m41.04 4.426c4.895-.834 8.754-1.458 11.578-1.878 2.823-.417 5.063-.664 6.72-.74 1.654-.076 2.767.02 3.332.285.565.268.882.704.96 1.309.301 1.29 1.035 2.181 2.202 2.672 1.167.496 3.295.743 6.382.743 3.388 0 5.478.284 6.268.85.79.57 1.036 1.995.734 4.272-.226 1.9-.903 3.32-2.033 4.268-1.13.949-3.315 2.068-6.55 3.358-3.314 1.29-8.999 2.694-17.055 4.211-3.313.607-5.346 1.404-6.1 2.39-.752.987-1.129 3.413-1.129 7.285 0 3.721-.301 10.207-.903 19.462-.605 9.262-.904 14.27-.904 15.025 0 1.216-.15 1.975-.452 2.279-.3.303-.884.588-1.75.853-.866.268-1.713.816-2.542 1.65-.677.61-1.186.947-1.524 1.025-.34.076-.62.038-.848-.114-.225-.154-.717-.49-1.468-1.024a16.88 16.88 0 0 0-2.598-1.48c-1.204-.455-2.073-1.328-2.597-2.62-.527-1.288-.79-3.185-.79-5.689s.072-5.065.225-7.683c.15-2.62.376-6.317.678-11.098.3-4.78.489-9.255.564-13.431.073-3.797.038-6.128-.113-7-.15-.87-.64-1.648-1.468-2.334-.828-.683-1.976-1.195-3.445-1.536a71.164 71.164 0 0 0-3.84-.797c-1.094-.188-2.073-.738-2.936-1.65-.866-.911-1.297-2.24-1.297-3.984 0-1.973.506-3.358 1.522-4.155 1.017-.797 3.182-1.499 6.495-2.106l14.683-2.618zM252.666 140.497c-.785-.434-1.512-.42-2.181.044-.293.232-.48.775-.567 1.63-.088.854 0 1.325.261 1.412.23.087.815-.174 1.746-.782 1.483-.985 1.73-1.753.741-2.304m-1.047 11.604c.378-.638.044-1.043-1.003-1.217-.99-.174-1.644-.116-1.963.174-.233.29-.379.905-.437 1.847-.058.941.015 1.441.218 1.5.175.057.684-.218 1.527-.827.841-.608 1.396-1.1 1.658-1.477m-4.319-16.862c.64-.116 1.062-.188 1.265-.217.204-.03.35-.03.437 0 .084.029.152.08.196.152.043.072.269.152.676.239.407.087.974.16 1.702.217 1.483.087 2.516.319 3.097.695.553.32 1.176.971 1.876 1.956.698.985 1.105 1.782 1.22 2.39.176.754.101 1.55-.216 2.39a5.586 5.586 0 0 1-1.484 2.173l-1.221 1.13.741.478c1.542 1.043 2.342 2.13 2.4 3.26.058 1.622-.095 2.832-.458 3.629-.366.796-1.302 1.919-2.814 3.368-1.222 1.216-2.182 2.035-2.88 2.455-.698.42-1.847.862-3.446 1.325-1.076.32-2.45.609-4.123.87-1.673.26-2.581.318-2.727.173-.058-.058.044-.217.305-.478.262-.26.573-.514.938-.76.364-.246.619-.37.764-.37.201 0 .429-.072.676-.217.247-.145.451-.297.611-.456.16-.16.208-.283.153-.37-.088-.086-.698-.021-1.833.196-1.134.217-1.803.239-2.007.065-.203-.232-.196-1.318.022-3.26.218-1.94.575-4.084 1.07-6.431 1.57-7.562 2.573-11.879 3.007-12.95.352-.84.814-1.348 1.399-1.522.114-.029.332-.072.654-.13m14.003 4.494c.457-.713.927-.906 1.412-.578.483.328 1.047 1.206 1.692 2.633.32.714.508 1.292.564 1.734.051.443.038 1.35-.043 2.72a47.531 47.531 0 0 1-.501 4.238 66.71 66.71 0 0 0-.584 4.453c-.244 2.312-.5 3.754-.765 4.325-.19.4-.378.628-.566.685-.188.057-.71.071-1.569.043-1.318-.086-2.134-.293-2.459-.621-.32-.328-.483-1.15-.483-2.462 0-1.427.094-2.798.282-4.11.644-4.368 1.161-7.408 1.553-9.12.389-1.713.877-3.026 1.467-3.94m15.085-5.654c.579-.112 1.275-.105 2.088.021.813.126 1.41.33 1.798.61.44.337.84.87 1.199 1.599.22.505.337.884.351 1.136.014.252-.09.73-.31 1.43a7.34 7.34 0 0 1-1.22 2.378c-.564.743-1.047 1.114-1.446 1.114-.402 0-.737-.245-1.013-.736a2.153 2.153 0 0 1-.248-1.535c.138-.646.11-.94-.083-.884-.33.056-.716.645-1.157 1.767-.11.309-.22.631-.33.968-.139.617-.18 1.023-.125 1.22.055.196.303.533.744 1.01.634.673 1.116 1.01 1.447 1.01.469 0 1.033.21 1.695.63.661.421 1.088.842 1.281 1.263.331.673.593 1.753.786 3.24.193 1.486.207 2.523.043 3.112-.167.674-.567 1.473-1.2 2.399-.635.925-1.282 1.654-1.944 2.187-.493.421-.93.673-1.302.758-.372.084-1.233.154-2.583.21-1.24.028-2.102.014-2.584-.042-.482-.056-1.068-.239-1.757-.547-1.02-.477-1.874-1.024-2.563-1.64-1.35-1.235-1.268-2.385.25-3.45.797-.562 1.459-.807 1.982-.737.524.07 1.2.47 2.026 1.199.937.87 1.626 1.304 2.067 1.304.468 0 .937-.322 1.405-.967.469-.646.703-1.277.703-1.894 0-.897-.117-1.528-.351-1.893-.234-.365-.765-.757-1.592-1.178-1.072-.56-1.915-1.094-2.521-1.599-.496-.448-.993-1.17-1.489-2.166-.496-.996-.744-1.802-.744-2.42 0-.7.228-1.654.682-2.86.455-1.207.944-2.16 1.47-2.861.494-.674 1.204-1.333 2.127-1.978.923-.645 1.73-1.038 2.418-1.178m13.483.135c.405-.81.739-1.214 1-1.214.2 0 .543.31 1.021.933.476.621.82 1.221 1.022 1.8.116.289.304 1.387.563 3.296.147.954.336 1.46.567 1.518.203.029.462-.203.783-.694.259-.405 1.435-1.366 3.522-2.884 2.087-1.518 3.36-2.205 3.826-2.06.374.115 1.014.216 1.913.303.609.087 1.244.347 1.913.78.664.434 1 .81 1 1.128 0 .174-.227.55-.676 1.128-.45.578-.744.868-.892.868-.113 0-.425.216-.932.65-.507.434-1.297 1.055-2.372 1.865a26.311 26.311 0 0 1-3.476 2.212c-1.304.723-2.116 1.215-2.435 1.475-.32.26-.507.593-.565.997-.029.347.012.63.128.846.116.217.249.354.391.412.148.058.286.145.414.26.132.116.195.275.195.477 0 .145.053.253.155.326.101.072.304.253.608.542.305.29.643.723 1.022 1.301.609.954 1.041 1.431 1.305 1.431.142 0 .297.094.454.282.162.188.415.506.763.954.345.449.708.86 1.087 1.237.609.636.983 1.359 1.13 2.168.087.55.087.954 0 1.215-.089.26-.347.636-.785 1.127-.608.781-1.217 1.171-1.826 1.171-.377 0-.688.058-.932.174-.249.116-.413.195-.5.238-.087.044-.249-.014-.48-.173-.23-.16-.607-.513-1.129-1.063-.988-1.012-1.654-1.792-2-2.342-.435-.694-1.147-1.699-2.13-3.014-.986-1.316-1.553-2.017-1.696-2.104-.466-.289-.8.723-1 3.036-.176 1.533-.4 2.595-.676 3.188s-.689.89-1.237.89c-.406 0-.785.144-1.13.433-.35.29-.61.578-.783.868-.176.289-.386.52-.63.693-.25.174-.474.145-.677-.086-.29-.26-.809-.55-1.563-.868l-1.13-.477.13-2.125c.116-1.533.312-2.812.587-3.839.273-1.026.578-1.9.913-2.624.334-.722.544-1.344.63-1.865.059-.289.375-1.322.955-3.1.582-1.779.915-2.755 1-2.928.147-.347.246-1.157.304-2.43.06-1.271.35-2.428.872-3.469l1.479-2.863z"/></g></svg>