<svg xmlns="http://www.w3.org/2000/svg" width="700" height="450"><g fill="none" fill-rule="evenodd" transform="translate(0 -5)"><path fill="#979797" fill-rule="nonzero" d="M322 20h1v411h-1z"/><path fill="#979797" fill-rule="nonzero" d="M111 226v-1h415.011v1z"/><circle cx="330" cy="56" r="4" fill="#2C2C36"/><circle cx="388" cy="86" r="4" fill="#2C2C36"/><circle cx="384" cy="131" r="4" fill="#2C2C36"/><circle cx="453" cy="131" r="4" fill="#2C2C36"/><circle cx="485" cy="160" r="4" fill="#2C2C36"/><circle cx="453" cy="192" r="4" fill="#2C2C36"/><circle cx="364" cy="218" r="4" fill="#2C2C36"/><circle cx="443" cy="236" r="4" fill="#2C2C36"/><circle cx="489" cy="251" r="4" fill="#2C2C36"/><circle cx="530" cy="289" r="4" fill="#2C2C36"/><circle cx="489" cy="297" r="4" fill="#2C2C36"/><circle cx="461" cy="277" r="4" fill="#F65097"/><circle cx="498" cy="321" r="4" fill="#2C2C36"/><circle cx="491" cy="337" r="4" fill="#2C2C36"/><circle cx="522" cy="355" r="4" fill="#2C2C36"/><circle cx="417" cy="325" r="4" fill="#2C2C36"/><circle cx="396" cy="293" r="4" fill="#2C2C36"/><circle cx="291" cy="251" r="4" fill="#2C2C36"/><circle cx="271" cy="281" r="4" fill="#2C2C36"/><circle cx="122" cy="289" r="4" fill="#2C2C36"/><circle cx="132" cy="313" r="4" fill="#2C2C36"/><circle cx="142" cy="334" r="4" fill="#2C2C36"/><circle cx="108" cy="345" r="4" fill="#2C2C36"/><circle cx="163" cy="363" r="4" fill="#2C2C36"/><path fill="#2C2C36" d="M343.296 59v-8.664h3.192c1.512 0 2.424.96 2.424 2.136 0 .948-.42 1.632-1.464 1.992l.012.024c.972.24 1.668 1.104 1.668 2.184 0 1.296-.792 2.328-3.144 2.328h-2.688zm.96-4.128v3.312h1.8c1.416 0 2.112-.48 2.112-1.56 0-1.104-.888-1.752-2.256-1.752h-1.656zm0-3.72v2.904h1.68c1.452 0 2.016-.744 2.016-1.476 0-.972-.528-1.428-1.632-1.428h-2.064zm7.484-.816h.864V59h-.864v-8.664zm4.04 4.02l-.756-.396c.396-.72 1.164-1.32 2.34-1.32 1.056 0 2.16.504 2.16 1.872v3.144c0 .684.06 1.02.144 1.344h-.888l-.096-.864c-.432.48-1.128.984-2.064.984-.96 0-1.776-.576-1.776-1.716 0-1.368 1.044-2.052 3.816-2.544v-.336c0-.828-.54-1.14-1.284-1.14-.96 0-1.428.552-1.596.972zm2.88 2.988v-1.716c-1.98.348-2.952.924-2.952 1.788 0 .576.552.96 1.032.96.624 0 1.416-.456 1.92-1.032zm7.496-3.012l-.804.288c-.24-.756-.732-1.236-1.476-1.236-1.068 0-1.692.912-1.692 2.496s.624 2.496 1.692 2.496c.792 0 1.236-.264 1.716-1.152l.696.312c-.624 1.056-1.176 1.584-2.412 1.584-1.56 0-2.556-1.224-2.556-3.24s.996-3.24 2.556-3.24c1.284 0 1.884.72 2.28 1.692zM368.348 59v-8.664h.864v5.58h.024l2.52-3.156h1.044l-1.836 2.304L373.04 59h-1.02l-1.656-3.192-1.152 1.32V59h-.864zm6.548-8.664h.864v3.024l.048-.024c.48-.396 1.056-.696 1.644-.696 1.056 0 2.508.816 2.508 3.24 0 2.496-1.452 3.24-2.556 3.24-.744 0-1.296-.312-1.8-.78l-.156.66h-.6c.072-.456.048-.912.048-1.368v-7.296zm.864 3.912v3.288c.612.6 1.02.84 1.572.84 1.08 0 1.764-.864 1.764-2.448 0-1.884-.756-2.544-1.764-2.544-.516 0-1.104.348-1.572.864zm9.944 1.632c0-1.608-.66-2.496-1.692-2.496s-1.692.888-1.692 2.496.66 2.496 1.692 2.496 1.692-.888 1.692-2.496zm.864 0c0 1.8-.852 3.24-2.556 3.24-1.704 0-2.556-1.44-2.556-3.24 0-1.8.852-3.24 2.556-3.24 1.704 0 2.556 1.44 2.556 3.24zm2.384-1.524l-.756-.396c.396-.72 1.164-1.32 2.34-1.32 1.056 0 2.16.504 2.16 1.872v3.144c0 .684.06 1.02.144 1.344h-.888l-.096-.864c-.432.48-1.128.984-2.064.984-.96 0-1.776-.576-1.776-1.716 0-1.368 1.044-2.052 3.816-2.544v-.336c0-.828-.54-1.14-1.284-1.14-.96 0-1.428.552-1.596.972zm2.88 2.988v-1.716c-1.98.348-2.952.924-2.952 1.788 0 .576.552.96 1.032.96.624 0 1.416-.456 1.92-1.032zm3.02 1.656v-6.24h.864v1.236h.024c.48-.852.996-1.332 2.028-1.332v.864c-1.08.024-1.644.732-2.052 2.016V59h-.864zm8.408-8.664h.864v7.296c0 .456-.024.912.048 1.368h-.792l-.12-.612c-.288.396-.9.732-1.644.732-1.104 0-2.556-.744-2.556-3.24 0-2.424 1.452-3.24 2.508-3.24.588 0 1.164.3 1.644.696l.048.024v-3.024zm0 7.2v-3.288c-.468-.516-1.056-.864-1.572-.864-1.008 0-1.764.66-1.764 2.544 0 1.584.684 2.448 1.764 2.448.552 0 .96-.24 1.572-.84zm-.908 32.56V93h-.96v-8.664h.96v4.5h.024l3.588-4.5h1.14l-2.688 3.264 3.012 5.4h-1.092l-2.58-4.608-1.404 1.704zm11.072 1.224l.672.348c-.408.708-.984 1.452-2.4 1.452-1.392 0-2.712-.96-2.712-3.24 0-2.016 1.008-3.24 2.544-3.24 1.296 0 2.376.84 2.376 2.832v.576h-4.056c0 1.368.816 2.328 1.848 2.328.768 0 1.368-.408 1.728-1.056zm-3.552-2.016h3.168c0-1.152-.552-1.92-1.488-1.92-1.044 0-1.608.768-1.68 1.92zm9.356-2.544h.912l-2.196 6.792c-.456 1.392-1.284 1.752-2.1 1.752-.288 0-.456-.048-.624-.072v-.708c.12.012.276.036.468.036.528 0 1.332-.12 1.632-1.488l-2.172-6.312h.912l1.68 4.764h.024l1.464-4.764zm3.524 8.544h-.864V86.76h.864v.732h.024c.324-.468 1.02-.852 1.62-.852 1.104 0 2.556.744 2.556 3.24 0 2.424-1.452 3.24-2.508 3.24-.588 0-1.164-.3-1.644-.696l-.048-.024v2.904zm0-7.08v3.288c.468.516 1.056.864 1.572.864 1.008 0 1.764-.66 1.764-2.544 0-1.584-.684-2.448-1.764-2.448-.552 0-.96.24-1.572.84zm6.692.132l-.756-.396c.396-.72 1.164-1.32 2.34-1.32 1.056 0 2.16.504 2.16 1.872v3.144c0 .684.06 1.02.144 1.344h-.888l-.096-.864c-.432.48-1.128.984-2.064.984-.96 0-1.776-.576-1.776-1.716 0-1.368 1.044-2.052 3.816-2.544v-.336c0-.828-.54-1.14-1.284-1.14-.96 0-1.428.552-1.596.972zm2.88 2.988v-1.716c-1.98.348-2.952.924-2.952 1.788 0 .576.552.96 1.032.96.624 0 1.416-.456 1.92-1.032zm2.396-4.584h1.02v-2.052h.864v2.052h1.44v.744h-1.44v4.44c0 .288.204.432.708.432.288 0 .54-.024.768-.06v.708c-.156.048-.504.096-1.008.096-.936 0-1.332-.24-1.332-1.032v-4.584h-1.02v-.744zm5.348-2.424h.864V87.6h.024c.492-.552 1.14-.96 1.848-.96.924 0 1.8.48 1.8 1.824V93h-.864v-4.512c0-.828-.396-1.104-1.02-1.104-.648 0-1.392.528-1.788.948V93h-.864v-8.664zm11.56 0h5.196v.816h-4.236v2.904h3.012v.816h-3.012v3.312h4.476V93h-5.436v-8.664zm11.288 0h.864v7.296c0 .456-.024.912.048 1.368h-.792l-.12-.612c-.288.396-.9.732-1.644.732-1.104 0-2.556-.744-2.556-3.24 0-2.424 1.452-3.24 2.508-3.24.588 0 1.164.3 1.644.696l.048.024v-3.024zm0 7.2v-3.288c-.468-.516-1.056-.864-1.572-.864-1.008 0-1.764.66-1.764 2.544 0 1.584.684 2.448 1.764 2.448.552 0 .96-.24 1.572-.84zM470.94 93h-.864v-.84h-.024c-.492.552-1.14.96-1.848.96-.924 0-1.8-.48-1.8-1.824V86.76h.864v4.512c0 .828.396 1.104 1.02 1.104.648 0 1.392-.528 1.788-.948V86.76h.864V93zm6.884-4.668l-.804.288c-.24-.756-.732-1.236-1.476-1.236-1.068 0-1.692.912-1.692 2.496s.624 2.496 1.692 2.496c.792 0 1.236-.264 1.716-1.152l.696.312c-.624 1.056-1.176 1.584-2.412 1.584-1.56 0-2.556-1.224-2.556-3.24s.996-3.24 2.556-3.24c1.284 0 1.884.72 2.28 1.692zm2.624.024l-.756-.396c.396-.72 1.164-1.32 2.34-1.32 1.056 0 2.16.504 2.16 1.872v3.144c0 .684.06 1.02.144 1.344h-.888l-.096-.864c-.432.48-1.128.984-2.064.984-.96 0-1.776-.576-1.776-1.716 0-1.368 1.044-2.052 3.816-2.544v-.336c0-.828-.54-1.14-1.284-1.14-.96 0-1.428.552-1.596.972zm2.88 2.988v-1.716c-1.98.348-2.952.924-2.952 1.788 0 .576.552.96 1.032.96.624 0 1.416-.456 1.92-1.032zm2.396-4.584h1.02v-2.052h.864v2.052h1.44v.744h-1.44v4.44c0 .288.204.432.708.432.288 0 .54-.024.768-.06v.708c-.156.048-.504.096-1.008.096-.936 0-1.332-.24-1.332-1.032v-4.584h-1.02v-.744zM491.24 93v-6.24h.864V93h-.864zm0-8.784h.864v1.032h-.864v-1.032zm7.292 5.664c0-1.608-.66-2.496-1.692-2.496s-1.692.888-1.692 2.496.66 2.496 1.692 2.496 1.692-.888 1.692-2.496zm.864 0c0 1.8-.852 3.24-2.556 3.24-1.704 0-2.556-1.44-2.556-3.24 0-1.8.852-3.24 2.556-3.24 1.704 0 2.556 1.44 2.556 3.24zm2.012-3.12h.864v.84h.024c.492-.552 1.14-.96 1.848-.96.924 0 1.8.48 1.8 1.824V93h-.864v-4.512c0-.828-.396-1.104-1.02-1.104-.648 0-1.392.528-1.788.948V93h-.864v-6.24zM471 131.24l.864.168c-.384 1.608-1.272 2.712-3.048 2.712-1.944 0-3.312-1.416-3.312-4.452 0-2.82 1.224-4.452 3.312-4.452 1.608 0 2.544.936 2.928 2.52l-.888.264c-.312-1.224-.864-1.968-2.16-1.968-1.248 0-2.232 1.152-2.232 3.636 0 2.508.984 3.636 2.424 3.636 1.332 0 1.848-1.008 2.112-2.064zm6.524-.36c0-1.608-.66-2.496-1.692-2.496s-1.692.888-1.692 2.496.66 2.496 1.692 2.496 1.692-.888 1.692-2.496zm.864 0c0 1.8-.852 3.24-2.556 3.24-1.704 0-2.556-1.44-2.556-3.24 0-1.8.852-3.24 2.556-3.24 1.704 0 2.556 1.44 2.556 3.24zm2.18-5.544h.864V134h-.864v-8.664zm3.836 0h.864V134h-.864v-8.664zm7.292 5.544c0-1.608-.66-2.496-1.692-2.496s-1.692.888-1.692 2.496.66 2.496 1.692 2.496 1.692-.888 1.692-2.496zm.864 0c0 1.8-.852 3.24-2.556 3.24-1.704 0-2.556-1.44-2.556-3.24 0-1.8.852-3.24 2.556-3.24 1.704 0 2.556 1.44 2.556 3.24zm6.56 5.424h-.864V133.4l-.048.024c-.48.396-1.056.696-1.644.696-1.056 0-2.508-.816-2.508-3.24 0-2.496 1.452-3.24 2.556-3.24.744 0 1.296.312 1.656.78l.156-.66h.696v8.544zm-.864-3.792v-3.288c-.612-.6-1.02-.84-1.572-.84-1.08 0-1.764.864-1.764 2.448 0 1.884.756 2.544 1.764 2.544.516 0 1.104-.348 1.572-.864zM506.28 134h-.864v-.84h-.024c-.492.552-1.14.96-1.848.96-.924 0-1.8-.48-1.8-1.824v-4.536h.864v4.512c0 .828.396 1.104 1.02 1.104.648 0 1.392-.528 1.788-.948v-4.668h.864V134zm5.792-6.24h.912l-2.196 6.792c-.456 1.392-1.284 1.752-2.1 1.752-.288 0-.456-.048-.624-.072v-.708c.12.012.276.036.468.036.528 0 1.332-.12 1.632-1.488l-2.172-6.312h.912l1.68 4.764h.024l1.464-4.764zM508.36 167h-5.064v-8.664h.96v7.848h4.104V167zm5.732-1.68l.672.348c-.408.708-.984 1.452-2.4 1.452-1.392 0-2.712-.96-2.712-3.24 0-2.016 1.008-3.24 2.544-3.24 1.296 0 2.376.84 2.376 2.832v.576h-4.056c0 1.368.816 2.328 1.848 2.328.768 0 1.368-.408 1.728-1.056zm-3.552-2.016h3.168c0-1.152-.552-1.92-1.488-1.92-1.044 0-1.608.768-1.68 1.92zm6.572-.948l-.756-.396c.396-.72 1.164-1.32 2.34-1.32 1.056 0 2.16.504 2.16 1.872v3.144c0 .684.06 1.02.144 1.344h-.888l-.096-.864c-.432.48-1.128.984-2.064.984-.96 0-1.776-.576-1.776-1.716 0-1.368 1.044-2.052 3.816-2.544v-.336c0-.828-.54-1.14-1.284-1.14-.96 0-1.428.552-1.596.972zm2.88 2.988v-1.716c-1.98.348-2.952.924-2.952 1.788 0 .576.552.96 1.032.96.624 0 1.416-.456 1.92-1.032zm3.02 1.656v-6.24h.864v1.236h.024c.48-.852.996-1.332 2.028-1.332v.864c-1.08.024-1.644.732-2.052 2.016V167h-.864zm4.724-6.24h.864v.84h.024c.492-.552 1.14-.96 1.848-.96.924 0 1.8.48 1.8 1.824V167h-.864v-4.512c0-.828-.396-1.104-1.02-1.104-.648 0-1.392.528-1.788.948V167h-.864v-6.24zm7.34 6.24v-6.24h.864V167h-.864zm0-8.784h.864v1.032h-.864v-1.032zm3.668 2.544h.864v.84h.024c.492-.552 1.14-.96 1.848-.96.924 0 1.8.48 1.8 1.824V167h-.864v-4.512c0-.828-.396-1.104-1.02-1.104-.648 0-1.392.528-1.788.948V167h-.864v-6.24zm11.864-.24v.864c-.36 0-.744.06-.96.168.18.216.432.696.432 1.272 0 1.236-1.02 2.184-2.28 2.184-.504 0-.768-.072-1.104-.168-.336.096-.492.3-.492.576 0 .288.204.456.516.456 2.952 0 3.9.528 3.9 1.752 0 .912-.9 1.68-2.844 1.68-1.752 0-2.688-.48-2.688-1.512 0-.624.384-.924 1.056-1.272-.48-.144-.78-.516-.78-.888 0-.54.36-.768.84-1.068-.588-.444-.852-1.056-.852-1.74 0-1.32 1.032-2.184 2.364-2.184.672 0 1.14.144 1.548.432.372-.264.876-.504 1.344-.552zm-.804 7.14c-.012-.612-.636-.924-2.16-.924-1.356 0-1.74.6-1.74 1.044 0 .468.288.78 2.016.78 1.032 0 1.872-.288 1.884-.9zm-.54-4.788c0-.912-.528-1.488-1.584-1.488-.984 0-1.512.624-1.512 1.44 0 .828.648 1.44 1.608 1.44.984 0 1.488-.648 1.488-1.392zm12.652-4.536h.96V167h-.96v-4.128h-4.152V167h-.96v-8.664h.96v3.72h4.152v-3.72zm7.448 5.544c0-1.608-.66-2.496-1.692-2.496s-1.692.888-1.692 2.496.66 2.496 1.692 2.496 1.692-.888 1.692-2.496zm.864 0c0 1.8-.852 3.24-2.556 3.24-1.704 0-2.556-1.44-2.556-3.24 0-1.8.852-3.24 2.556-3.24 1.704 0 2.556 1.44 2.556 3.24zm6.548 3.12h-.864v-.84h-.024c-.492.552-1.14.96-1.848.96-.924 0-1.8-.48-1.8-1.824v-4.536h.864v4.512c0 .828.396 1.104 1.02 1.104.648 0 1.392-.528 1.788-.948v-4.668h.864V167zm1.856-1.068l.684-.516c.408.588 1.008.96 1.788.96.936 0 1.344-.504 1.344-1.032 0-1.584-3.696-.744-3.624-3.024.036-1.08.864-1.692 2.064-1.68.816.012 1.716.456 2.136 1.092l-.6.528c-.48-.588-.936-.876-1.608-.876-.732 0-1.128.372-1.128.924 0 1.356 3.624.66 3.624 2.988 0 1.212-1.056 1.824-2.184 1.824-.972 0-1.92-.42-2.496-1.188zm10.46-.612l.672.348c-.408.708-.984 1.452-2.4 1.452-1.392 0-2.712-.96-2.712-3.24 0-2.016 1.008-3.24 2.544-3.24 1.296 0 2.376.84 2.376 2.832v.576h-4.056c0 1.368.816 2.328 1.848 2.328.768 0 1.368-.408 1.728-1.056zm-3.552-2.016h3.168c0-1.152-.552-1.92-1.488-1.92-1.044 0-1.608.768-1.68 1.92zM455.424 241l-2.088-8.664h.912l1.608 6.912h.024l1.68-6.912h.852l1.728 6.912h.024l1.584-6.912h.912L460.608 241h-.852l-1.776-7.008h-.024l-1.68 7.008h-.852zm9.092 0v-6.24h.864V241h-.864zm0-8.784h.864v1.032h-.864v-1.032zm3.836.12h.864V241h-.864v-8.664zm7.52 6.984l.672.348c-.408.708-.984 1.452-2.4 1.452-1.392 0-2.712-.96-2.712-3.24 0-2.016 1.008-3.24 2.544-3.24 1.296 0 2.376.84 2.376 2.832v.576h-4.056c0 1.368.816 2.328 1.848 2.328.768 0 1.368-.408 1.728-1.056zm-3.552-2.016h3.168c0-1.152-.552-1.92-1.488-1.92-1.044 0-1.608.768-1.68 1.92zm9.356-2.544h.912l-2.196 6.792c-.456 1.392-1.284 1.752-2.1 1.752-.288 0-.456-.048-.624-.072v-.708c.12.012.276.036.468.036.528 0 1.332-.12 1.632-1.488l-2.172-6.312h.912l1.68 4.764h.024l1.464-4.764zM381.42 220.256V221h-5.628v-.912c1.5-3.036 4.728-3.216 4.728-5.544 0-1.008-.648-1.584-1.752-1.584-1.248 0-1.896 1.008-2.04 1.884l-.852-.192c.276-1.2.984-2.436 2.916-2.436 1.416 0 2.64.816 2.64 2.304 0 2.64-3.792 3.36-4.728 5.736h4.716zm2.708-7.92h.96v6.12c0 1.008.72 1.848 2.076 1.848s2.076-.84 2.076-1.848v-6.12h.96v6.048c0 1.728-1.248 2.736-3.036 2.736s-3.036-1.008-3.036-2.736v-6.048zm87.112-19.984l-.864.192c-.216-.84-.9-1.512-2.016-1.512-1.008 0-1.608.48-1.62 1.344-.024 1.896 4.872 1.416 4.872 4.2 0 1.26-.708 2.544-2.916 2.544-1.896 0-2.64-1.224-3.096-2.256l.876-.312c.348.912.996 1.752 2.268 1.752 1.272 0 1.908-.672 1.908-1.56 0-2.208-4.872-1.56-4.872-4.296 0-1.248 1.044-2.232 2.604-2.232 1.344 0 2.4.708 2.856 2.136zm5.816.408h.912l-2.196 6.792c-.456 1.392-1.284 1.752-2.1 1.752-.288 0-.456-.048-.624-.072v-.708c.12.012.276.036.468.036.528 0 1.332-.12 1.632-1.488l-2.172-6.312h.912l1.68 4.764h.024l1.464-4.764zm2.672 0h.864v.84h.024c.492-.552 1.14-.96 1.848-.96.924 0 1.8.48 1.8 1.824V199h-.864v-4.512c0-.828-.396-1.104-1.02-1.104-.648 0-1.392.528-1.788.948V199h-.864v-6.24zm11.024 4.56l.672.348c-.408.708-.984 1.452-2.4 1.452-1.392 0-2.712-.96-2.712-3.24 0-2.016 1.008-3.24 2.544-3.24 1.296 0 2.376.84 2.376 2.832v.576h-4.056c0 1.368.816 2.328 1.848 2.328.768 0 1.368-.408 1.728-1.056zm-3.552-2.016h3.168c0-1.152-.552-1.92-1.488-1.92-1.044 0-1.608.768-1.68 1.92zm5.972 3.696v-6.24h.864v1.236h.024c.48-.852.996-1.332 2.028-1.332v.864c-1.08.024-1.644.732-2.052 2.016V199h-.864zm9.416-6.48v.864c-.36 0-.744.06-.96.168.18.216.432.696.432 1.272 0 1.236-1.02 2.184-2.28 2.184-.504 0-.768-.072-1.104-.168-.336.096-.492.3-.492.576 0 .288.204.456.516.456 2.952 0 3.9.528 3.9 1.752 0 .912-.9 1.68-2.844 1.68-1.752 0-2.688-.48-2.688-1.512 0-.624.384-.924 1.056-1.272-.48-.144-.78-.516-.78-.888 0-.54.36-.768.84-1.068-.588-.444-.852-1.056-.852-1.74 0-1.32 1.032-2.184 2.364-2.184.672 0 1.14.144 1.548.432.372-.264.876-.504 1.344-.552zm-.804 7.14c-.012-.612-.636-.924-2.16-.924-1.356 0-1.74.6-1.74 1.044 0 .468.288.78 2.016.78 1.032 0 1.872-.288 1.884-.9zm-.54-4.788c0-.912-.528-1.488-1.584-1.488-.984 0-1.512.624-1.512 1.44 0 .828.648 1.44 1.608 1.44.984 0 1.488-.648 1.488-1.392zm3.32 4.128v-6.24h.864V199h-.864zm0-8.784h.864v1.032h-.864v-1.032zm2.888 7.716l.684-.516c.408.588 1.008.96 1.788.96.936 0 1.344-.504 1.344-1.032 0-1.584-3.696-.744-3.624-3.024.036-1.08.864-1.692 2.064-1.68.816.012 1.716.456 2.136 1.092l-.6.528c-.48-.588-.936-.876-1.608-.876-.732 0-1.128.372-1.128.924 0 1.356 3.624.66 3.624 2.988 0 1.212-1.056 1.824-2.184 1.824-.972 0-1.92-.42-2.496-1.188zm10.996-7.596h5.196v.816h-4.236v2.904h3.012v.816h-3.012v3.312h4.476V199h-5.436v-8.664zm11.288 0h.864v7.296c0 .456-.024.912.048 1.368h-.792l-.12-.612c-.288.396-.9.732-1.644.732-1.104 0-2.556-.744-2.556-3.24 0-2.424 1.452-3.24 2.508-3.24.588 0 1.164.3 1.644.696l.048.024v-3.024zm0 7.2v-3.288c-.468-.516-1.056-.864-1.572-.864-1.008 0-1.764.66-1.764 2.544 0 1.584.684 2.448 1.764 2.448.552 0 .96-.24 1.572-.84zM537.76 199h-.864v-.84h-.024c-.492.552-1.14.96-1.848.96-.924 0-1.8-.48-1.8-1.824v-4.536h.864v4.512c0 .828.396 1.104 1.02 1.104.648 0 1.392-.528 1.788-.948v-4.668h.864V199zm6.884-4.668l-.804.288c-.24-.756-.732-1.236-1.476-1.236-1.068 0-1.692.912-1.692 2.496s.624 2.496 1.692 2.496c.792 0 1.236-.264 1.716-1.152l.696.312c-.624 1.056-1.176 1.584-2.412 1.584-1.56 0-2.556-1.224-2.556-3.24s.996-3.24 2.556-3.24c1.284 0 1.884.72 2.28 1.692zm2.624.024l-.756-.396c.396-.72 1.164-1.32 2.34-1.32 1.056 0 2.16.504 2.16 1.872v3.144c0 .684.06 1.02.144 1.344h-.888l-.096-.864c-.432.48-1.128.984-2.064.984-.96 0-1.776-.576-1.776-1.716 0-1.368 1.044-2.052 3.816-2.544v-.336c0-.828-.54-1.14-1.284-1.14-.96 0-1.428.552-1.596.972zm2.88 2.988v-1.716c-1.98.348-2.952.924-2.952 1.788 0 .576.552.96 1.032.96.624 0 1.416-.456 1.92-1.032zm2.396-4.584h1.02v-2.052h.864v2.052h1.44v.744h-1.44v4.44c0 .288.204.432.708.432.288 0 .54-.024.768-.06v.708c-.156.048-.504.096-1.008.096-.936 0-1.332-.24-1.332-1.032v-4.584h-1.02v-.744zm5.516 6.24v-6.24h.864V199h-.864zm0-8.784h.864v1.032h-.864v-1.032zm7.292 5.664c0-1.608-.66-2.496-1.692-2.496s-1.692.888-1.692 2.496.66 2.496 1.692 2.496 1.692-.888 1.692-2.496zm.864 0c0 1.8-.852 3.24-2.556 3.24-1.704 0-2.556-1.44-2.556-3.24 0-1.8.852-3.24 2.556-3.24 1.704 0 2.556 1.44 2.556 3.24zm2.012-3.12h.864v.84h.024c.492-.552 1.14-.96 1.848-.96.924 0 1.8.48 1.8 1.824V199h-.864v-4.512c0-.828-.396-1.104-1.02-1.104-.648 0-1.392.528-1.788.948V199h-.864v-6.24zm-64.068 53.392v3.168h1.632c1.596 0 2.124-.552 2.124-1.584s-.612-1.584-1.908-1.584h-1.848zm0 7.848h-.96v-8.664h3.024c1.848 0 2.652 1.056 2.652 2.424 0 1.44-.996 2.376-3.18 2.376h-1.536V254zm10.592-1.68l.672.348c-.408.708-.984 1.452-2.4 1.452-1.392 0-2.712-.96-2.712-3.24 0-2.016 1.008-3.24 2.544-3.24 1.296 0 2.376.84 2.376 2.832v.576h-4.056c0 1.368.816 2.328 1.848 2.328.768 0 1.368-.408 1.728-1.056zm-3.552-2.016h3.168c0-1.152-.552-1.92-1.488-1.92-1.044 0-1.608.768-1.68 1.92zm6.572-.948l-.756-.396c.396-.72 1.164-1.32 2.34-1.32 1.056 0 2.16.504 2.16 1.872v3.144c0 .684.06 1.02.144 1.344h-.888l-.096-.864c-.432.48-1.128.984-2.064.984-.96 0-1.776-.576-1.776-1.716 0-1.368 1.044-2.052 3.816-2.544v-.336c0-.828-.54-1.14-1.284-1.14-.96 0-1.428.552-1.596.972zm2.88 2.988v-1.716c-1.98.348-2.952.924-2.952 1.788 0 .576.552.96 1.032.96.624 0 1.416-.456 1.92-1.032zm3.02 1.656v-6.24h.864v1.236h.024c.48-.852.996-1.332 2.028-1.332v.864c-1.08.024-1.644.732-2.052 2.016V254h-.864zm3.944-1.068l.684-.516c.408.588 1.008.96 1.788.96.936 0 1.344-.504 1.344-1.032 0-1.584-3.696-.744-3.624-3.024.036-1.08.864-1.692 2.064-1.68.816.012 1.716.456 2.136 1.092l-.6.528c-.48-.588-.936-.876-1.608-.876-.732 0-1.128.372-1.128.924 0 1.356 3.624.66 3.624 2.988 0 1.212-1.056 1.824-2.184 1.824-.972 0-1.92-.42-2.496-1.188zm10.232-2.052c0-1.608-.66-2.496-1.692-2.496s-1.692.888-1.692 2.496.66 2.496 1.692 2.496 1.692-.888 1.692-2.496zm.864 0c0 1.8-.852 3.24-2.556 3.24-1.704 0-2.556-1.44-2.556-3.24 0-1.8.852-3.24 2.556-3.24 1.704 0 2.556 1.44 2.556 3.24zm2.012-3.12h.864v.84h.024c.492-.552 1.14-.96 1.848-.96.924 0 1.8.48 1.8 1.824V254h-.864v-4.512c0-.828-.396-1.104-1.02-1.104-.648 0-1.392.528-1.788.948V254h-.864v-6.24zm11.56-2.424h5.196v.816h-4.236v2.904h3.012v.816h-3.012v3.312h4.476V254h-5.436v-8.664zm8.384 8.664h-.864v-6.24h.864v.828l.048-.048c.528-.588 1.212-.9 1.812-.9.804 0 1.368.408 1.596.984.552-.588 1.248-.984 1.98-.984.828 0 1.716.348 1.716 1.896V254h-.864v-4.464c0-.84-.42-1.152-.972-1.152-.768 0-1.272.504-1.74.96V254h-.864v-4.464c0-.84-.42-1.152-.972-1.152-.768 0-1.272.504-1.74.96V254zm9.704-8.664h.864v3.024l.048-.024c.48-.396 1.056-.696 1.644-.696 1.056 0 2.508.816 2.508 3.24 0 2.496-1.452 3.24-2.556 3.24-.744 0-1.296-.312-1.8-.78l-.156.66h-.6c.072-.456.048-.912.048-1.368v-7.296zm.864 3.912v3.288c.612.6 1.02.84 1.572.84 1.08 0 1.764-.864 1.764-2.448 0-1.884-.756-2.544-1.764-2.544-.516 0-1.104.348-1.572.864zm6.692.108l-.756-.396c.396-.72 1.164-1.32 2.34-1.32 1.056 0 2.16.504 2.16 1.872v3.144c0 .684.06 1.02.144 1.344h-.888l-.096-.864c-.432.48-1.128.984-2.064.984-.96 0-1.776-.576-1.776-1.716 0-1.368 1.044-2.052 3.816-2.544v-.336c0-.828-.54-1.14-1.284-1.14-.96 0-1.428.552-1.596.972zm2.88 2.988v-1.716c-1.98.348-2.952.924-2.952 1.788 0 .576.552.96 1.032.96.624 0 1.416-.456 1.92-1.032zm3.248-4.584h.864v.84h.024c.492-.552 1.14-.96 1.848-.96.924 0 1.8.48 1.8 1.824V254h-.864v-4.512c0-.828-.396-1.104-1.02-1.104-.648 0-1.392.528-1.788.948V254h-.864v-6.24zm11.024 4.56l.672.348c-.408.708-.984 1.452-2.4 1.452-1.392 0-2.712-.96-2.712-3.24 0-2.016 1.008-3.24 2.544-3.24 1.296 0 2.376.84 2.376 2.832v.576h-4.056c0 1.368.816 2.328 1.848 2.328.768 0 1.368-.408 1.728-1.056zm-3.552-2.016h3.168c0-1.152-.552-1.92-1.488-1.92-1.044 0-1.608.768-1.68 1.92zm5.348-2.544h1.02v-2.052h.864v2.052h1.44v.744h-1.44v4.44c0 .288.204.432.708.432.288 0 .54-.024.768-.06v.708c-.156.048-.504.096-1.008.096-.936 0-1.332-.24-1.332-1.032v-4.584h-1.02v-.744zM469.296 280v-8.664h3.192c1.512 0 2.424.96 2.424 2.136 0 .948-.42 1.632-1.464 1.992l.012.024c.972.24 1.668 1.104 1.668 2.184 0 1.296-.792 2.328-3.144 2.328h-2.688zm.96-4.128v3.312h1.8c1.416 0 2.112-.48 2.112-1.56 0-1.104-.888-1.752-2.256-1.752h-1.656zm0-3.72v2.904h1.68c1.452 0 2.016-.744 2.016-1.476 0-.972-.528-1.428-1.632-1.428h-2.064zM477.74 280v-6.24h.864V280h-.864zm0-8.784h.864v1.032h-.864v-1.032zm2.888 7.716l.684-.516c.408.588 1.008.96 1.788.96.936 0 1.344-.504 1.344-1.032 0-1.584-3.696-.744-3.624-3.024.036-1.08.864-1.692 2.064-1.68.816.012 1.716.456 2.136 1.092l-.6.528c-.48-.588-.936-.876-1.608-.876-.732 0-1.128.372-1.128.924 0 1.356 3.624.66 3.624 2.988 0 1.212-1.056 1.824-2.184 1.824-.972 0-1.92-.42-2.496-1.188zm6.548 1.068v-8.664h.864v5.58h.024l2.52-3.156h1.044l-1.836 2.304 2.076 3.936h-1.02l-1.656-3.192-1.152 1.32V280h-.864zm-85.604 58.668c0 2.46.9 3.636 2.424 3.636s2.424-1.176 2.424-3.636-.9-3.636-2.424-3.636-2.424 1.176-2.424 3.636zm-.96 0c0-2.892 1.26-4.452 3.384-4.452 2.124 0 3.384 1.56 3.384 4.452s-1.26 4.452-3.384 4.452c-2.124 0-3.384-1.56-3.384-4.452zm8.732 4.332v-6.24h.864v1.236h.024c.48-.852.996-1.332 2.028-1.332v.864c-1.08.024-1.644.732-2.052 2.016V343h-.864zm4.712-8.664h.864v3.024l.048-.024c.48-.396 1.056-.696 1.644-.696 1.056 0 2.508.816 2.508 3.24 0 2.496-1.452 3.24-2.556 3.24-.744 0-1.296-.312-1.8-.78l-.156.66h-.6c.072-.456.048-.912.048-1.368v-7.296zm.864 3.912v3.288c.612.6 1.02.84 1.572.84 1.08 0 1.764-.864 1.764-2.448 0-1.884-.756-2.544-1.764-2.544-.516 0-1.104.348-1.572.864zm6.488 4.752v-6.24h.864V343h-.864zm0-8.784h.864v1.032h-.864v-1.032zm2.888 7.716l.684-.516c.408.588 1.008.96 1.788.96.936 0 1.344-.504 1.344-1.032 0-1.584-3.696-.744-3.624-3.024.036-1.08.864-1.692 2.064-1.68.816.012 1.716.456 2.136 1.092l-.6.528c-.48-.588-.936-.876-1.608-.876-.732 0-1.128.372-1.128.924 0 1.356 3.624.66 3.624 2.988 0 1.212-1.056 1.824-2.184 1.824-.972 0-1.92-.42-2.496-1.188zM541.6 353.008l-1.248 4.464h2.628l-1.248-4.464h-.132zM539.296 361h-1.008l2.664-8.664h1.428l2.664 8.664h-1.008l-.816-2.712h-3.108l-.816 2.712zm11.852-4.668l-.804.288c-.24-.756-.732-1.236-1.476-1.236-1.068 0-1.692.912-1.692 2.496s.624 2.496 1.692 2.496c.792 0 1.236-.264 1.716-1.152l.696.312c-.624 1.056-1.176 1.584-2.412 1.584-1.56 0-2.556-1.224-2.556-3.24s.996-3.24 2.556-3.24c1.284 0 1.884.72 2.28 1.692zm2.624.024l-.756-.396c.396-.72 1.164-1.32 2.34-1.32 1.056 0 2.16.504 2.16 1.872v3.144c0 .684.06 1.02.144 1.344h-.888l-.096-.864c-.432.48-1.128.984-2.064.984-.96 0-1.776-.576-1.776-1.716 0-1.368 1.044-2.052 3.816-2.544v-.336c0-.828-.54-1.14-1.284-1.14-.96 0-1.428.552-1.596.972zm2.88 2.988v-1.716c-1.98.348-2.952.924-2.952 1.788 0 .576.552.96 1.032.96.624 0 1.416-.456 1.92-1.032zm6.932-7.008h.864v7.296c0 .456-.024.912.048 1.368h-.792l-.12-.612c-.288.396-.9.732-1.644.732-1.104 0-2.556-.744-2.556-3.24 0-2.424 1.452-3.24 2.508-3.24.588 0 1.164.3 1.644.696l.048.024v-3.024zm0 7.2v-3.288c-.468-.516-1.056-.864-1.572-.864-1.008 0-1.764.66-1.764 2.544 0 1.584.684 2.448 1.764 2.448.552 0 .96-.24 1.572-.84zm7.34-.216l.672.348c-.408.708-.984 1.452-2.4 1.452-1.392 0-2.712-.96-2.712-3.24 0-2.016 1.008-3.24 2.544-3.24 1.296 0 2.376.84 2.376 2.832v.576h-4.056c0 1.368.816 2.328 1.848 2.328.768 0 1.368-.408 1.728-1.056zm-3.552-2.016h3.168c0-1.152-.552-1.92-1.488-1.92-1.044 0-1.608.768-1.68 1.92zm6.98 3.696h-.864v-6.24h.864v.828l.048-.048c.528-.588 1.212-.9 1.812-.9.804 0 1.368.408 1.596.984.552-.588 1.248-.984 1.98-.984.828 0 1.716.348 1.716 1.896V361h-.864v-4.464c0-.84-.42-1.152-.972-1.152-.768 0-1.272.504-1.74.96V361h-.864v-4.464c0-.84-.42-1.152-.972-1.152-.768 0-1.272.504-1.74.96V361zm9.884 0v-6.24h.864V361h-.864zm0-8.784h.864v1.032h-.864v-1.032zm7.916 4.116l-.804.288c-.24-.756-.732-1.236-1.476-1.236-1.068 0-1.692.912-1.692 2.496s.624 2.496 1.692 2.496c.792 0 1.236-.264 1.716-1.152l.696.312c-.624 1.056-1.176 1.584-2.412 1.584-1.56 0-2.556-1.224-2.556-3.24s.996-3.24 2.556-3.24c1.284 0 1.884.72 2.28 1.692zm7.504-3.18v3.168h1.632c1.596 0 2.124-.552 2.124-1.584s-.612-1.584-1.908-1.584h-1.848zm0 7.848h-.96v-8.664h3.024c1.848 0 2.652 1.056 2.652 2.424 0 1.44-.996 2.376-3.18 2.376h-1.536V361zm7.112-4.644l-.756-.396c.396-.72 1.164-1.32 2.34-1.32 1.056 0 2.16.504 2.16 1.872v3.144c0 .684.06 1.02.144 1.344h-.888l-.096-.864c-.432.48-1.128.984-2.064.984-.96 0-1.776-.576-1.776-1.716 0-1.368 1.044-2.052 3.816-2.544v-.336c0-.828-.54-1.14-1.284-1.14-.96 0-1.428.552-1.596.972zm2.88 2.988v-1.716c-1.98.348-2.952.924-2.952 1.788 0 .576.552.96 1.032.96.624 0 1.416-.456 1.92-1.032zm3.02 1.656v-6.24h.864v1.236h.024c.48-.852.996-1.332 2.028-1.332v.864c-1.08.024-1.644.732-2.052 2.016V361h-.864zm3.872-6.24h1.02v-2.052h.864v2.052h1.44v.744h-1.44v4.44c0 .288.204.432.708.432.288 0 .54-.024.768-.06v.708c-.156.048-.504.096-1.008.096-.936 0-1.332-.24-1.332-1.032v-4.584h-1.02v-.744zm5.348 0h.864v.84h.024c.492-.552 1.14-.96 1.848-.96.924 0 1.8.48 1.8 1.824V361h-.864v-4.512c0-.828-.396-1.104-1.02-1.104-.648 0-1.392.528-1.788.948V361h-.864v-6.24zm11.024 4.56l.672.348c-.408.708-.984 1.452-2.4 1.452-1.392 0-2.712-.96-2.712-3.24 0-2.016 1.008-3.24 2.544-3.24 1.296 0 2.376.84 2.376 2.832v.576h-4.056c0 1.368.816 2.328 1.848 2.328.768 0 1.368-.408 1.728-1.056zm-3.552-2.016h3.168c0-1.152-.552-1.92-1.488-1.92-1.044 0-1.608.768-1.68 1.92zm5.972 3.696v-6.24h.864v1.236h.024c.48-.852.996-1.332 2.028-1.332v.864c-1.08.024-1.644.732-2.052 2.016V361h-.864zm3.944-1.068l.684-.516c.408.588 1.008.96 1.788.96.936 0 1.344-.504 1.344-1.032 0-1.584-3.696-.744-3.624-3.024.036-1.08.864-1.692 2.064-1.68.816.012 1.716.456 2.136 1.092l-.6.528c-.48-.588-.936-.876-1.608-.876-.732 0-1.128.372-1.128.924 0 1.356 3.624.66 3.624 2.988 0 1.212-1.056 1.824-2.184 1.824-.972 0-1.92-.42-2.496-1.188zm6.608-7.596h.864v3.264h.024c.492-.552 1.14-.96 1.848-.96.924 0 1.8.48 1.8 1.824V361h-.864v-4.512c0-.828-.396-1.104-1.02-1.104-.648 0-1.392.528-1.788.948V361h-.864v-8.664zm7.34 8.664v-6.24h.864V361h-.864zm0-8.784h.864v1.032h-.864v-1.032zm4.52 11.088h-.864v-8.544h.864v.732h.024c.324-.468 1.02-.852 1.62-.852 1.104 0 2.556.744 2.556 3.24 0 2.424-1.452 3.24-2.508 3.24-.588 0-1.164-.3-1.644-.696l-.048-.024v2.904zm0-7.08v3.288c.468.516 1.056.864 1.572.864 1.008 0 1.764-.66 1.764-2.544 0-1.584-.684-2.448-1.764-2.448-.552 0-.96.24-1.572.84zM510 323.24l.864.168c-.384 1.608-1.272 2.712-3.048 2.712-1.944 0-3.312-1.416-3.312-4.452 0-2.82 1.224-4.452 3.312-4.452 1.608 0 2.544.936 2.928 2.52l-.888.264c-.312-1.224-.864-1.968-2.16-1.968-1.248 0-2.232 1.152-2.232 3.636 0 2.508.984 3.636 2.424 3.636 1.332 0 1.848-1.008 2.112-2.064zm6.524-.36c0-1.608-.66-2.496-1.692-2.496s-1.692.888-1.692 2.496.66 2.496 1.692 2.496 1.692-.888 1.692-2.496zm.864 0c0 1.8-.852 3.24-2.556 3.24-1.704 0-2.556-1.44-2.556-3.24 0-1.8.852-3.24 2.556-3.24 1.704 0 2.556 1.44 2.556 3.24zm2.792 3.12h-.864v-6.24h.864v.828l.048-.048c.528-.588 1.212-.9 1.812-.9.804 0 1.368.408 1.596.984.552-.588 1.248-.984 1.98-.984.828 0 1.716.348 1.716 1.896V326h-.864v-4.464c0-.84-.42-1.152-.972-1.152-.768 0-1.272.504-1.74.96V326h-.864v-4.464c0-.84-.42-1.152-.972-1.152-.768 0-1.272.504-1.74.96V326zm14.648-2.76l.864.168c-.384 1.608-1.272 2.712-3.048 2.712-1.944 0-3.312-1.416-3.312-4.452 0-2.82 1.224-4.452 3.312-4.452 1.608 0 2.544.936 2.928 2.52l-.888.264c-.312-1.224-.864-1.968-2.16-1.968-1.248 0-2.232 1.152-2.232 3.636 0 2.508.984 3.636 2.424 3.636 1.332 0 1.848-1.008 2.112-2.064zm6.524-.36c0-1.608-.66-2.496-1.692-2.496s-1.692.888-1.692 2.496.66 2.496 1.692 2.496 1.692-.888 1.692-2.496zm.864 0c0 1.8-.852 3.24-2.556 3.24-1.704 0-2.556-1.44-2.556-3.24 0-1.8.852-3.24 2.556-3.24 1.704 0 2.556 1.44 2.556 3.24zm6.548 3.12h-.864v-.84h-.024c-.492.552-1.14.96-1.848.96-.924 0-1.8-.48-1.8-1.824v-4.536h.864v4.512c0 .828.396 1.104 1.02 1.104.648 0 1.392-.528 1.788-.948v-4.668h.864V326zm2.408 0v-6.24h.864v1.236h.024c.48-.852.996-1.332 2.028-1.332v.864c-1.08.024-1.644.732-2.052 2.016V326h-.864zm3.944-1.068l.684-.516c.408.588 1.008.96 1.788.96.936 0 1.344-.504 1.344-1.032 0-1.584-3.696-.744-3.624-3.024.036-1.08.864-1.692 2.064-1.68.816.012 1.716.456 2.136 1.092l-.6.528c-.48-.588-.936-.876-1.608-.876-.732 0-1.128.372-1.128.924 0 1.356 3.624.66 3.624 2.988 0 1.212-1.056 1.824-2.184 1.824-.972 0-1.92-.42-2.496-1.188zm10.46-.612l.672.348c-.408.708-.984 1.452-2.4 1.452-1.392 0-2.712-.96-2.712-3.24 0-2.016 1.008-3.24 2.544-3.24 1.296 0 2.376.84 2.376 2.832v.576H562c0 1.368.816 2.328 1.848 2.328.768 0 1.368-.408 1.728-1.056zm-3.552-2.016h3.168c0-1.152-.552-1.92-1.488-1.92-1.044 0-1.608.768-1.68 1.92zM505.6 333.008l-1.248 4.464h2.628l-1.248-4.464h-.132zM503.296 341h-1.008l2.664-8.664h1.428l2.664 8.664h-1.008l-.816-2.712h-3.108l-.816 2.712zm8.456 2.304h-.864v-8.544h.864v.732h.024c.324-.468 1.02-.852 1.62-.852 1.104 0 2.556.744 2.556 3.24 0 2.424-1.452 3.24-2.508 3.24-.588 0-1.164-.3-1.644-.696l-.048-.024v2.904zm0-7.08v3.288c.468.516 1.056.864 1.572.864 1.008 0 1.764-.66 1.764-2.544 0-1.584-.684-2.448-1.764-2.448-.552 0-.96.24-1.572.84zm7.172 7.08h-.864v-8.544h.864v.732h.024c.324-.468 1.02-.852 1.62-.852 1.104 0 2.556.744 2.556 3.24 0 2.424-1.452 3.24-2.508 3.24-.588 0-1.164-.3-1.644-.696l-.048-.024v2.904zm0-7.08v3.288c.468.516 1.056.864 1.572.864 1.008 0 1.764-.66 1.764-2.544 0-1.584-.684-2.448-1.764-2.448-.552 0-.96.24-1.572.84zm9.944 1.656c0-1.608-.66-2.496-1.692-2.496s-1.692.888-1.692 2.496.66 2.496 1.692 2.496 1.692-.888 1.692-2.496zm.864 0c0 1.8-.852 3.24-2.556 3.24-1.704 0-2.556-1.44-2.556-3.24 0-1.8.852-3.24 2.556-3.24 1.704 0 2.556 1.44 2.556 3.24zm2.18-5.544h.864V341h-.864v-8.664zm3.836 0h.864V341h-.864v-8.664zm3.836 8.664v-6.24h.864V341h-.864zm0-8.784h.864v1.032h-.864v-1.032zm7.352.12h.864v7.296c0 .456-.024.912.048 1.368h-.792l-.12-.612c-.288.396-.9.732-1.644.732-1.104 0-2.556-.744-2.556-3.24 0-2.424 1.452-3.24 2.508-3.24.588 0 1.164.3 1.644.696l.048.024v-3.024zm0 7.2v-3.288c-.468-.516-1.056-.864-1.572-.864-1.008 0-1.764.66-1.764 2.544 0 1.584.684 2.448 1.764 2.448.552 0 .96-.24 1.572-.84zm7.112-1.656c0-1.608-.66-2.496-1.692-2.496s-1.692.888-1.692 2.496.66 2.496 1.692 2.496 1.692-.888 1.692-2.496zm.864 0c0 1.8-.852 3.24-2.556 3.24-1.704 0-2.556-1.44-2.556-3.24 0-1.8.852-3.24 2.556-3.24 1.704 0 2.556 1.44 2.556 3.24zm2.012-3.12h.864v.84h.024c.492-.552 1.14-.96 1.848-.96.924 0 1.8.48 1.8 1.824V341h-.864v-4.512c0-.828-.396-1.104-1.02-1.104-.648 0-1.392.528-1.788.948V341h-.864v-6.24zM428 297.24l.864.168c-.384 1.608-1.272 2.712-3.048 2.712-1.944 0-3.312-1.416-3.312-4.452 0-2.82 1.224-4.452 3.312-4.452 1.608 0 2.544.936 2.928 2.52l-.888.264c-.312-1.224-.864-1.968-2.16-1.968-1.248 0-2.232 1.152-2.232 3.636 0 2.508.984 3.636 2.424 3.636 1.332 0 1.848-1.008 2.112-2.064zm3.272-1.884l-.756-.396c.396-.72 1.164-1.32 2.34-1.32 1.056 0 2.16.504 2.16 1.872v3.144c0 .684.06 1.02.144 1.344h-.888l-.096-.864c-.432.48-1.128.984-2.064.984-.96 0-1.776-.576-1.776-1.716 0-1.368 1.044-2.052 3.816-2.544v-.336c0-.828-.54-1.14-1.284-1.14-.96 0-1.428.552-1.596.972zm2.88 2.988v-1.716c-1.98.348-2.952.924-2.952 1.788 0 .576.552.96 1.032.96.624 0 1.416-.456 1.92-1.032zm4.1 3.96h-.864v-8.544h.864v.732h.024c.324-.468 1.02-.852 1.62-.852 1.104 0 2.556.744 2.556 3.24 0 2.424-1.452 3.24-2.508 3.24-.588 0-1.164-.3-1.644-.696l-.048-.024v2.904zm0-7.08v3.288c.468.516 1.056.864 1.572.864 1.008 0 1.764-.66 1.764-2.544 0-1.584-.684-2.448-1.764-2.448-.552 0-.96.24-1.572.84zM444.74 300v-6.24h.864V300h-.864zm0-8.784h.864v1.032h-.864v-1.032zm2.816 2.544h1.02v-2.052h.864v2.052h1.44v.744h-1.44v4.44c0 .288.204.432.708.432.288 0 .54-.024.768-.06v.708c-.156.048-.504.096-1.008.096-.936 0-1.332-.24-1.332-1.032v-4.584h-1.02v-.744zm5.72 1.596l-.756-.396c.396-.72 1.164-1.32 2.34-1.32 1.056 0 2.16.504 2.16 1.872v3.144c0 .684.06 1.02.144 1.344h-.888l-.096-.864c-.432.48-1.128.984-2.064.984-.96 0-1.776-.576-1.776-1.716 0-1.368 1.044-2.052 3.816-2.544v-.336c0-.828-.54-1.14-1.284-1.14-.96 0-1.428.552-1.596.972zm2.88 2.988v-1.716c-1.98.348-2.952.924-2.952 1.788 0 .576.552.96 1.032.96.624 0 1.416-.456 1.92-1.032zm3.416-7.008h.864V300h-.864v-8.664zm8.056 0h5.196v.816h-4.236v2.904h3.012v.816h-3.012v3.312h4.476V300h-5.436v-8.664zm11.288 0h.864v7.296c0 .456-.024.912.048 1.368h-.792l-.12-.612c-.288.396-.9.732-1.644.732-1.104 0-2.556-.744-2.556-3.24 0-2.424 1.452-3.24 2.508-3.24.588 0 1.164.3 1.644.696l.048.024v-3.024zm0 7.2v-3.288c-.468-.516-1.056-.864-1.572-.864-1.008 0-1.764.66-1.764 2.544 0 1.584.684 2.448 1.764 2.448.552 0 .96-.24 1.572-.84zm3.656.144h1.176V300h-1.176v-1.32zm-187.444-6.844h2.916V296h-.792v-.792h-.024c-.444.612-1.308.912-2.268.912-1.968 0-3.384-1.416-3.384-4.452s1.416-4.452 3.384-4.452c1.464 0 2.592.696 3.12 2.544l-.912.18c-.432-1.38-1.152-1.908-2.16-1.908-1.272 0-2.472.864-2.472 3.636 0 2.772 1.2 3.636 2.472 3.636 1.416 0 2.076-.864 2.076-1.92v-.732h-1.956v-.816zm5.612-4.5h.864V296h-.864v-8.664zm7.292 5.544c0-1.608-.66-2.496-1.692-2.496s-1.692.888-1.692 2.496.66 2.496 1.692 2.496 1.692-.888 1.692-2.496zm.864 0c0 1.8-.852 3.24-2.556 3.24-1.704 0-2.556-1.44-2.556-3.24 0-1.8.852-3.24 2.556-3.24 1.704 0 2.556 1.44 2.556 3.24zm2-5.544h.864v3.024l.048-.024c.48-.396 1.056-.696 1.644-.696 1.056 0 2.508.816 2.508 3.24 0 2.496-1.452 3.24-2.556 3.24-.744 0-1.296-.312-1.8-.78l-.156.66h-.6c.072-.456.048-.912.048-1.368v-7.296zm.864 3.912v3.288c.612.6 1.02.84 1.572.84 1.08 0 1.764-.864 1.764-2.448 0-1.884-.756-2.544-1.764-2.544-.516 0-1.104.348-1.572.864zm6.692.108l-.756-.396c.396-.72 1.164-1.32 2.34-1.32 1.056 0 2.16.504 2.16 1.872v3.144c0 .684.06 1.02.144 1.344h-.888l-.096-.864c-.432.48-1.128.984-2.064.984-.96 0-1.776-.576-1.776-1.716 0-1.368 1.044-2.052 3.816-2.544v-.336c0-.828-.54-1.14-1.284-1.14-.96 0-1.428.552-1.596.972zm2.88 2.988v-1.716c-1.98.348-2.952.924-2.952 1.788 0 .576.552.96 1.032.96.624 0 1.416-.456 1.92-1.032zm3.416-7.008h.864V296h-.864v-8.664zm13.168 0h.96V296h-.96v-4.128h-4.152V296h-.96v-8.664h.96v3.72h4.152v-3.72zm7.676 6.984l.672.348c-.408.708-.984 1.452-2.4 1.452-1.392 0-2.712-.96-2.712-3.24 0-2.016 1.008-3.24 2.544-3.24 1.296 0 2.376.84 2.376 2.832v.576h-4.056c0 1.368.816 2.328 1.848 2.328.768 0 1.368-.408 1.728-1.056zm-3.552-2.016h3.168c0-1.152-.552-1.92-1.488-1.92-1.044 0-1.608.768-1.68 1.92zm6.572-.948l-.756-.396c.396-.72 1.164-1.32 2.34-1.32 1.056 0 2.16.504 2.16 1.872v3.144c0 .684.06 1.02.144 1.344h-.888l-.096-.864c-.432.48-1.128.984-2.064.984-.96 0-1.776-.576-1.776-1.716 0-1.368 1.044-2.052 3.816-2.544v-.336c0-.828-.54-1.14-1.284-1.14-.96 0-1.428.552-1.596.972zm2.88 2.988v-1.716c-1.98.348-2.952.924-2.952 1.788 0 .576.552.96 1.032.96.624 0 1.416-.456 1.92-1.032zm3.416-7.008h.864V296h-.864v-8.664zm2.816 2.424h1.02v-2.052h.864v2.052h1.44v.744h-1.44v4.44c0 .288.204.432.708.432.288 0 .54-.024.768-.06v.708c-.156.048-.504.096-1.008.096-.936 0-1.332-.24-1.332-1.032v-4.584h-1.02v-.744zm5.348-2.424h.864v3.264h.024c.492-.552 1.14-.96 1.848-.96.924 0 1.8.48 1.8 1.824V296h-.864v-4.512c0-.828-.396-1.104-1.02-1.104-.648 0-1.392.528-1.788.948V296h-.864v-8.664zm11.56 0h5.196v.816h-4.236v2.904h3.012v.816h-3.012v3.312h4.476V296h-5.436v-8.664zm11.288 0h.864v7.296c0 .456-.024.912.048 1.368h-.792l-.12-.612c-.288.396-.9.732-1.644.732-1.104 0-2.556-.744-2.556-3.24 0-2.424 1.452-3.24 2.508-3.24.588 0 1.164.3 1.644.696l.048.024v-3.024zm0 7.2v-3.288c-.468-.516-1.056-.864-1.572-.864-1.008 0-1.764.66-1.764 2.544 0 1.584.684 2.448 1.764 2.448.552 0 .96-.24 1.572-.84zm3.656.144h1.176V296h-1.176v-1.32zm-177.168-18.344h.96V285h-.96v-4.128h-4.152V285h-.96v-8.664h.96v3.72h4.152v-3.72zm7.448 5.544c0-1.608-.66-2.496-1.692-2.496s-1.692.888-1.692 2.496.66 2.496 1.692 2.496 1.692-.888 1.692-2.496zm.864 0c0 1.8-.852 3.24-2.556 3.24-1.704 0-2.556-1.44-2.556-3.24 0-1.8.852-3.24 2.556-3.24 1.704 0 2.556 1.44 2.556 3.24zm1.16-3.12h1.02v-2.052h.864v2.052h1.44v.744h-1.44v4.44c0 .288.204.432.708.432.288 0 .54-.024.768-.06v.708c-.156.048-.504.096-1.008.096-.936 0-1.332-.24-1.332-1.032v-4.584h-1.02v-.744zm14.44 3.48l.864.168c-.384 1.608-1.272 2.712-3.048 2.712-1.944 0-3.312-1.416-3.312-4.452 0-2.82 1.224-4.452 3.312-4.452 1.608 0 2.544.936 2.928 2.52l-.888.264c-.312-1.224-.864-1.968-2.16-1.968-1.248 0-2.232 1.152-2.232 3.636 0 2.508.984 3.636 2.424 3.636 1.332 0 1.848-1.008 2.112-2.064zm2.9-5.904h.864v3.264h.024c.492-.552 1.14-.96 1.848-.96.924 0 1.8.48 1.8 1.824V285h-.864v-4.512c0-.828-.396-1.104-1.02-1.104-.648 0-1.392.528-1.788.948V285h-.864v-8.664zm7.544 4.02l-.756-.396c.396-.72 1.164-1.32 2.34-1.32 1.056 0 2.16.504 2.16 1.872v3.144c0 .684.06 1.02.144 1.344h-.888l-.096-.864c-.432.48-1.128.984-2.064.984-.96 0-1.776-.576-1.776-1.716 0-1.368 1.044-2.052 3.816-2.544v-.336c0-.828-.54-1.14-1.284-1.14-.96 0-1.428.552-1.596.972zm2.88 2.988v-1.716c-1.98.348-2.952.924-2.952 1.788 0 .576.552.96 1.032.96.624 0 1.416-.456 1.92-1.032zm3.416-7.008h.864V285h-.864v-8.664zm3.608 8.664v-8.664h.864v5.58h.024l2.52-3.156h1.044l-1.836 2.304L261.36 285h-1.02l-1.656-3.192-1.152 1.32V285h-.864zM208.8 254.76v.936c-1.08 0-1.452-.384-1.92-1.14-.504.372-1.14.564-1.884.564-2.124 0-3.384-1.56-3.384-4.452s1.26-4.452 3.384-4.452c2.124 0 3.384 1.56 3.384 4.452 0 1.44-.312 2.556-.888 3.3.3.564.708.792 1.308.792zm-3.456-1.644v-.924c.78.108 1.236.336 1.62.888.3-.576.456-1.38.456-2.412 0-2.46-.9-3.636-2.424-3.636s-2.424 1.176-2.424 3.636.9 3.636 2.424 3.636c.552 0 1.02-.156 1.404-.48-.288-.432-.552-.636-1.056-.708zm9.764 1.884h-.864v-.84h-.024c-.492.552-1.14.96-1.848.96-.924 0-1.8-.48-1.8-1.824v-4.536h.864v4.512c0 .828.396 1.104 1.02 1.104.648 0 1.392-.528 1.788-.948v-4.668h.864V255zm3.008-4.644l-.756-.396c.396-.72 1.164-1.32 2.34-1.32 1.056 0 2.16.504 2.16 1.872v3.144c0 .684.06 1.02.144 1.344h-.888l-.096-.864c-.432.48-1.128.984-2.064.984-.96 0-1.776-.576-1.776-1.716 0-1.368 1.044-2.052 3.816-2.544v-.336c0-.828-.54-1.14-1.284-1.14-.96 0-1.428.552-1.596.972zm2.88 2.988v-1.716c-1.98.348-2.952.924-2.952 1.788 0 .576.552.96 1.032.96.624 0 1.416-.456 1.92-1.032zm6.932-7.008h.864v7.296c0 .456-.024.912.048 1.368h-.792l-.12-.612c-.288.396-.9.732-1.644.732-1.104 0-2.556-.744-2.556-3.24 0-2.424 1.452-3.24 2.508-3.24.588 0 1.164.3 1.644.696l.048.024v-3.024zm0 7.2v-3.288c-.468-.516-1.056-.864-1.572-.864-1.008 0-1.764.66-1.764 2.544 0 1.584.684 2.448 1.764 2.448.552 0 .96-.24 1.572-.84zm12.94 1.464h-5.064v-8.664h.96v7.848h4.104V255zm5.732-1.68l.672.348c-.408.708-.984 1.452-2.4 1.452-1.392 0-2.712-.96-2.712-3.24 0-2.016 1.008-3.24 2.544-3.24 1.296 0 2.376.84 2.376 2.832v.576h-4.056c0 1.368.816 2.328 1.848 2.328.768 0 1.368-.408 1.728-1.056zm-3.552-2.016h3.168c0-1.152-.552-1.92-1.488-1.92-1.044 0-1.608.768-1.68 1.92zm6.572-.948l-.756-.396c.396-.72 1.164-1.32 2.34-1.32 1.056 0 2.16.504 2.16 1.872v3.144c0 .684.06 1.02.144 1.344h-.888l-.096-.864c-.432.48-1.128.984-2.064.984-.96 0-1.776-.576-1.776-1.716 0-1.368 1.044-2.052 3.816-2.544v-.336c0-.828-.54-1.14-1.284-1.14-.96 0-1.428.552-1.596.972zm2.88 2.988v-1.716c-1.98.348-2.952.924-2.952 1.788 0 .576.552.96 1.032.96.624 0 1.416-.456 1.92-1.032zm3.02 1.656v-6.24h.864v1.236h.024c.48-.852.996-1.332 2.028-1.332v.864c-1.08.024-1.644.732-2.052 2.016V255h-.864zm4.724-6.24h.864v.84h.024c.492-.552 1.14-.96 1.848-.96.924 0 1.8.48 1.8 1.824V255h-.864v-4.512c0-.828-.396-1.104-1.02-1.104-.648 0-1.392.528-1.788.948V255h-.864v-6.24zm7.34 6.24v-6.24h.864V255h-.864zm0-8.784h.864v1.032h-.864v-1.032zm3.668 2.544h.864v.84h.024c.492-.552 1.14-.96 1.848-.96.924 0 1.8.48 1.8 1.824V255h-.864v-4.512c0-.828-.396-1.104-1.02-1.104-.648 0-1.392.528-1.788.948V255h-.864v-6.24zm11.864-.24v.864c-.36 0-.744.06-.96.168.18.216.432.696.432 1.272 0 1.236-1.02 2.184-2.28 2.184-.504 0-.768-.072-1.104-.168-.336.096-.492.3-.492.576 0 .288.204.456.516.456 2.952 0 3.9.528 3.9 1.752 0 .912-.9 1.68-2.844 1.68-1.752 0-2.688-.48-2.688-1.512 0-.624.384-.924 1.056-1.272-.48-.144-.78-.516-.78-.888 0-.54.36-.768.84-1.068-.588-.444-.852-1.056-.852-1.74 0-1.32 1.032-2.184 2.364-2.184.672 0 1.14.144 1.548.432.372-.264.876-.504 1.344-.552zm-.804 7.14c-.012-.612-.636-.924-2.16-.924-1.356 0-1.74.6-1.74 1.044 0 .468.288.78 2.016.78 1.032 0 1.872-.288 1.884-.9zm-.54-4.788c0-.912-.528-1.488-1.584-1.488-.984 0-1.512.624-1.512 1.44 0 .828.648 1.44 1.608 1.44.984 0 1.488-.648 1.488-1.392zM135 291.24l.864.168c-.384 1.608-1.272 2.712-3.048 2.712-1.944 0-3.312-1.416-3.312-4.452 0-2.82 1.224-4.452 3.312-4.452 1.608 0 2.544.936 2.928 2.52l-.888.264c-.312-1.224-.864-1.968-2.16-1.968-1.248 0-2.232 1.152-2.232 3.636 0 2.508.984 3.636 2.424 3.636 1.332 0 1.848-1.008 2.112-2.064zm6.524-.36c0-1.608-.66-2.496-1.692-2.496s-1.692.888-1.692 2.496.66 2.496 1.692 2.496 1.692-.888 1.692-2.496zm.864 0c0 1.8-.852 3.24-2.556 3.24-1.704 0-2.556-1.44-2.556-3.24 0-1.8.852-3.24 2.556-3.24 1.704 0 2.556 1.44 2.556 3.24zm6.548 3.12h-.864v-.84h-.024c-.492.552-1.14.96-1.848.96-.924 0-1.8-.48-1.8-1.824v-4.536h.864v4.512c0 .828.396 1.104 1.02 1.104.648 0 1.392-.528 1.788-.948v-4.668h.864V294zm2.408 0v-6.24h.864v1.236h.024c.48-.852.996-1.332 2.028-1.332v.864c-1.08.024-1.644.732-2.052 2.016V294h-.864zm3.944-1.068l.684-.516c.408.588 1.008.96 1.788.96.936 0 1.344-.504 1.344-1.032 0-1.584-3.696-.744-3.624-3.024.036-1.08.864-1.692 2.064-1.68.816.012 1.716.456 2.136 1.092l-.6.528c-.48-.588-.936-.876-1.608-.876-.732 0-1.128.372-1.128.924 0 1.356 3.624.66 3.624 2.988 0 1.212-1.056 1.824-2.184 1.824-.972 0-1.92-.42-2.496-1.188zm10.46-.612l.672.348c-.408.708-.984 1.452-2.4 1.452-1.392 0-2.712-.96-2.712-3.24 0-2.016 1.008-3.24 2.544-3.24 1.296 0 2.376.84 2.376 2.832v.576h-4.056c0 1.368.816 2.328 1.848 2.328.768 0 1.368-.408 1.728-1.056zm-3.552-2.016h3.168c0-1.152-.552-1.92-1.488-1.92-1.044 0-1.608.768-1.68 1.92zm5.972 3.696v-6.24h.864v1.236h.024c.48-.852.996-1.332 2.028-1.332v.864c-1.08.024-1.644.732-2.052 2.016V294h-.864zm5.096-4.644l-.756-.396c.396-.72 1.164-1.32 2.34-1.32 1.056 0 2.16.504 2.16 1.872v3.144c0 .684.06 1.02.144 1.344h-.888l-.096-.864c-.432.48-1.128.984-2.064.984-.96 0-1.776-.576-1.776-1.716 0-1.368 1.044-2.052 3.816-2.544v-.336c0-.828-.54-1.14-1.284-1.14-.96 0-1.428.552-1.596.972zm2.88 2.988v-1.716c-1.98.348-2.952.924-2.952 1.788 0 .576.552.96 1.032.96.624 0 1.416-.456 1.92-1.032zm-32.848 16.992h.96v6.12c0 1.008.72 1.848 2.076 1.848s2.076-.84 2.076-1.848v-6.12h.96v6.048c0 1.728-1.248 2.736-3.036 2.736s-3.036-1.008-3.036-2.736v-6.048zm12.62 0h.864v7.296c0 .456-.024.912.048 1.368h-.792l-.12-.612c-.288.396-.9.732-1.644.732-1.104 0-2.556-.744-2.556-3.24 0-2.424 1.452-3.24 2.508-3.24.588 0 1.164.3 1.644.696l.048.024v-3.024zm0 7.2v-3.288c-.468-.516-1.056-.864-1.572-.864-1.008 0-1.764.66-1.764 2.544 0 1.584.684 2.448 1.764 2.448.552 0 .96-.24 1.572-.84zm3.86-3.18l-.756-.396c.396-.72 1.164-1.32 2.34-1.32 1.056 0 2.16.504 2.16 1.872v3.144c0 .684.06 1.02.144 1.344h-.888l-.096-.864c-.432.48-1.128.984-2.064.984-.96 0-1.776-.576-1.776-1.716 0-1.368 1.044-2.052 3.816-2.544v-.336c0-.828-.54-1.14-1.284-1.14-.96 0-1.428.552-1.596.972zm2.88 2.988v-1.716c-1.98.348-2.952.924-2.952 1.788 0 .576.552.96 1.032.96.624 0 1.416-.456 1.92-1.032zm7.496-3.012l-.804.288c-.24-.756-.732-1.236-1.476-1.236-1.068 0-1.692.912-1.692 2.496s.624 2.496 1.692 2.496c.792 0 1.236-.264 1.716-1.152l.696.312c-.624 1.056-1.176 1.584-2.412 1.584-1.56 0-2.556-1.224-2.556-3.24s.996-3.24 2.556-3.24c1.284 0 1.884.72 2.28 1.692zm2.42 4.668v-6.24h.864V318h-.864zm0-8.784h.864v1.032h-.864v-1.032zm2.816 2.544h1.02v-2.052h.864v2.052h1.44v.744h-1.44v4.44c0 .288.204.432.708.432.288 0 .54-.024.768-.06v.708c-.156.048-.504.096-1.008.096-.936 0-1.332-.24-1.332-1.032v-4.584h-1.02v-.744zm8.504 0h.912l-2.196 6.792c-.456 1.392-1.284 1.752-2.1 1.752-.288 0-.456-.048-.624-.072v-.708c.12.012.276.036.468.036.528 0 1.332-.12 1.632-1.488l-2.172-6.312h.912l1.68 4.764h.024l1.464-4.764zm-31.596 19.576h.96v6.12c0 1.008.72 1.848 2.076 1.848s2.076-.84 2.076-1.848v-6.12h.96v6.048c0 1.728-1.248 2.736-3.036 2.736s-3.036-1.008-3.036-2.736v-6.048zm12.62 0h.864v7.296c0 .456-.024.912.048 1.368h-.792l-.12-.612c-.288.396-.9.732-1.644.732-1.104 0-2.556-.744-2.556-3.24 0-2.424 1.452-3.24 2.508-3.24.588 0 1.164.3 1.644.696l.048.024v-3.024zm0 7.2v-3.288c-.468-.516-1.056-.864-1.572-.864-1.008 0-1.764.66-1.764 2.544 0 1.584.684 2.448 1.764 2.448.552 0 .96-.24 1.572-.84zm7.34-.216l.672.348c-.408.708-.984 1.452-2.4 1.452-1.392 0-2.712-.96-2.712-3.24 0-2.016 1.008-3.24 2.544-3.24 1.296 0 2.376.84 2.376 2.832v.576h-4.056c0 1.368.816 2.328 1.848 2.328.768 0 1.368-.408 1.728-1.056zm-3.552-2.016h3.168c0-1.152-.552-1.92-1.488-1.92-1.044 0-1.608.768-1.68 1.92zm6.98 3.696h-.864v-6.24h.864v.828l.048-.048c.528-.588 1.212-.9 1.812-.9.804 0 1.368.408 1.596.984.552-.588 1.248-.984 1.98-.984.828 0 1.716.348 1.716 1.896V340h-.864v-4.464c0-.84-.42-1.152-.972-1.152-.768 0-1.272.504-1.74.96V340h-.864v-4.464c0-.84-.42-1.152-.972-1.152-.768 0-1.272.504-1.74.96V340zm12.872-6.24h.912l-2.196 6.792c-.456 1.392-1.284 1.752-2.1 1.752-.288 0-.456-.048-.624-.072v-.708c.12.012.276.036.468.036.528 0 1.332-.12 1.632-1.488l-2.172-6.312h.912l1.68 4.764h.024l1.464-4.764zm-101.26 24.576h5.196v.816h-4.236v2.904h3.012v.816h-3.012v3.312h4.476V367h-5.436v-8.664zm11.288 0h.864v7.296c0 .456-.024.912.048 1.368h-.792l-.12-.612c-.288.396-.9.732-1.644.732-1.104 0-2.556-.744-2.556-3.24 0-2.424 1.452-3.24 2.508-3.24.588 0 1.164.3 1.644.696l.048.024v-3.024zm0 7.2v-3.288c-.468-.516-1.056-.864-1.572-.864-1.008 0-1.764.66-1.764 2.544 0 1.584.684 2.448 1.764 2.448.552 0 .96-.24 1.572-.84zm5.732-2.112l-2.04 3.576h-1.104l2.592-4.524-2.424-4.14h1.104l1.86 3.18 1.824-3.18h1.104l-2.364 4.14 2.64 4.524h-1.104l-2.088-3.576zm67.98-5.088h.96v6.12c0 1.008.72 1.848 2.076 1.848s2.076-.84 2.076-1.848v-6.12h.96v6.048c0 1.728-1.248 2.736-3.036 2.736s-3.036-1.008-3.036-2.736v-6.048zm8.936 2.424h.864v.84h.024c.492-.552 1.14-.96 1.848-.96.924 0 1.8.48 1.8 1.824V367h-.864v-4.512c0-.828-.396-1.104-1.02-1.104-.648 0-1.392.528-1.788.948V367h-.864v-6.24zm7.34 6.24v-6.24h.864V367h-.864zm0-8.784h.864v1.032h-.864v-1.032zm7.736 2.544l-1.872 6.24h-1.152l-1.92-6.24h.876l1.584 5.16h.024l1.584-5.16h.876zm5.612 4.56l.672.348c-.408.708-.984 1.452-2.4 1.452-1.392 0-2.712-.96-2.712-3.24 0-2.016 1.008-3.24 2.544-3.24 1.296 0 2.376.84 2.376 2.832v.576h-4.056c0 1.368.816 2.328 1.848 2.328.768 0 1.368-.408 1.728-1.056zm-3.552-2.016h3.168c0-1.152-.552-1.92-1.488-1.92-1.044 0-1.608.768-1.68 1.92zM204.34 367v-6.24h.864v1.236h.024c.48-.852.996-1.332 2.028-1.332v.864c-1.08.024-1.644.732-2.052 2.016V367h-.864zm3.944-1.068l.684-.516c.408.588 1.008.96 1.788.96.936 0 1.344-.504 1.344-1.032 0-1.584-3.696-.744-3.624-3.024.036-1.08.864-1.692 2.064-1.68.816.012 1.716.456 2.136 1.092l-.6.528c-.48-.588-.936-.876-1.608-.876-.732 0-1.128.372-1.128.924 0 1.356 3.624.66 3.624 2.988 0 1.212-1.056 1.824-2.184 1.824-.972 0-1.92-.42-2.496-1.188zM215.06 367v-6.24h.864V367h-.864zm0-8.784h.864v1.032h-.864v-1.032zm2.816 2.544h1.02v-2.052h.864v2.052h1.44v.744h-1.44v4.44c0 .288.204.432.708.432.288 0 .54-.024.768-.06v.708c-.156.048-.504.096-1.008.096-.936 0-1.332-.24-1.332-1.032v-4.584h-1.02v-.744zm8.504 0h.912l-2.196 6.792c-.456 1.392-1.284 1.752-2.1 1.752-.288 0-.456-.048-.624-.072v-.708c.12.012.276.036.468.036.528 0 1.332-.12 1.632-1.488l-2.172-6.312h.912l1.68 4.764h.024l1.464-4.764zm7.924 6.24h-.864v-8.664h1.38l3.78 6.672h.048v-6.672h.864V367h-.792l-4.392-7.728h-.024V367zM246 363.88c0-1.608-.66-2.496-1.692-2.496s-1.692.888-1.692 2.496.66 2.496 1.692 2.496 1.692-.888 1.692-2.496zm.864 0c0 1.8-.852 3.24-2.556 3.24-1.704 0-2.556-1.44-2.556-3.24 0-1.8.852-3.24 2.556-3.24 1.704 0 2.556 1.44 2.556 3.24zm2.828 3.12L248 360.76h.876l1.26 4.8h.024l1.224-4.8h.876l1.248 4.824h.024l1.212-4.824h.876l-1.668 6.24h-.876l-1.248-4.824h-.024L250.568 367h-.876zm40.33 87h-6.846v-10.108h6.692v1.624h-4.76v2.408h3.458v1.624h-3.458v2.828h4.914V454zm2.124 0v-10.108h3.346c2.674 0 4.522 1.484 4.536 5.054-.014 3.57-1.862 5.054-4.536 5.054h-3.346zm1.932-8.484v6.86h1.288c2.212 0 2.73-1.624 2.73-3.43s-.518-3.43-2.73-3.43h-1.288zm13.814 4.788v-6.412h1.932v6.328c0 2.954-1.82 3.92-3.878 3.92s-3.878-.966-3.878-3.92v-6.328H304v6.412c0 1.638.644 2.212 1.946 2.212s1.946-.574 1.946-2.212zm11.616-3.892l-1.75.42c-.28-.854-.882-1.456-1.834-1.456-1.288 0-2.072 1.204-2.072 3.57-.028 2.366.672 3.57 2.128 3.57.868 0 1.4-.308 1.974-1.498l1.792.476c-.602 1.75-1.918 2.646-3.766 2.646-2.576 0-4.06-1.89-4.06-5.194 0-3.304 1.484-5.194 4.06-5.194 1.932 0 3.052.868 3.528 2.66zm5.358-.588l-1.19 4.396h2.352l-1.134-4.396h-.028zm-4.13 8.176l2.912-10.122h2.408l2.87 10.122h-1.918l-.56-2.184h-3.192l-.602 2.184h-1.918zm8.382-10.122h7.224v1.624h-2.646V454h-1.932v-8.498h-2.646v-1.624zM340.412 454h-1.932v-10.108h1.932V454zm8.844-5.054c0-2.366-.728-3.57-2.31-3.57s-2.31 1.204-2.31 3.57c-.028 2.366.714 3.57 2.31 3.57 1.582 0 2.31-1.204 2.31-3.57zm1.932 0c0 3.304-1.484 5.194-4.242 5.194s-4.242-1.89-4.242-5.194c0-3.304 1.484-5.194 4.242-5.194s4.242 1.89 4.242 5.194zm3.888 5.054h-1.82v-10.108h2.016l3.976 6.888h.028v-6.888h1.82V454h-1.862l-4.13-7.196h-.028V454zM8.008 221.412l-1.75.42c-.28-.854-.882-1.456-1.834-1.456-1.288 0-2.072 1.204-2.072 3.57-.028 2.366.672 3.57 2.128 3.57.868 0 1.4-.308 1.974-1.498l1.792.476c-.602 1.75-1.918 2.646-3.766 2.646-2.576 0-4.06-1.89-4.06-5.194 0-3.304 1.484-5.194 4.06-5.194 1.932 0 3.052.868 3.528 2.66zm8.018 2.534c0-2.366-.728-3.57-2.31-3.57s-2.31 1.204-2.31 3.57c-.028 2.366.714 3.57 2.31 3.57 1.582 0 2.31-1.204 2.31-3.57zm1.932 0c0 3.304-1.484 5.194-4.242 5.194s-4.242-1.89-4.242-5.194c0-3.304 1.484-5.194 4.242-5.194s4.242 1.89 4.242 5.194zM21.846 229h-1.82v-10.108h2.016l3.976 6.888h.028v-6.888h1.82V229h-1.862l-4.13-7.196h-.028V229zm15.284-7.966l-1.764.546c-.294-.784-.896-1.316-1.806-1.316-.84 0-1.442.336-1.442 1.12 0 1.736 5.208 1.372 5.208 4.648 0 2.072-1.302 3.108-3.542 3.108-1.652 0-3.206-.924-3.78-2.394l1.596-.7c.462.952 1.064 1.582 2.198 1.582.966 0 1.708-.364 1.708-1.344 0-1.988-5.208-1.596-5.208-4.704 0-1.806 1.512-2.828 3.262-2.828 1.624 0 2.968.812 3.57 2.282zm8.424 4.27v-6.412h1.932v6.328c0 2.954-1.82 3.92-3.878 3.92s-3.878-.966-3.878-3.92v-6.328h1.932v6.412c0 1.638.644 2.212 1.946 2.212s1.946-.574 1.946-2.212zM51.976 229h-1.68v-10.108h2.716l1.946 7.056h.028l1.96-7.056h2.744V229h-1.68v-7.952h-.028L55.714 229h-1.47l-2.24-7.952h-.028V229zm17.37 0H62.5v-10.108h6.692v1.624h-4.76v2.408h3.458v1.624h-3.458v2.828h4.914V229zm4.056 0H71.47v-10.108h4.032c2.296 0 3.22 1.33 3.234 2.996.014 1.246-.616 2.254-1.848 2.604L79.114 229h-2.142l-1.904-4.116h-1.666V229zm0-8.54v2.856h1.428c1.512 0 1.974-.476 1.974-1.428s-.574-1.428-1.638-1.428h-1.764zM247.63 8.034l-1.764.546c-.294-.784-.896-1.316-1.806-1.316-.84 0-1.442.336-1.442 1.12 0 1.736 5.208 1.372 5.208 4.648 0 2.072-1.302 3.108-3.542 3.108-1.652 0-3.206-.924-3.78-2.394l1.596-.7c.462.952 1.064 1.582 2.198 1.582.966 0 1.708-.364 1.708-1.344 0-1.988-5.208-1.596-5.208-4.704 0-1.806 1.512-2.828 3.262-2.828 1.624 0 2.968.812 3.57 2.282zM257.076 16h-6.846V5.892h6.692v1.624h-4.76v2.408h3.458v1.624h-3.458v2.828h4.914V16zm4.056 0H259.2V5.892h4.032c2.296 0 3.22 1.33 3.234 2.996.014 1.246-.616 2.254-1.848 2.604L266.844 16h-2.142l-1.904-4.116h-1.666V16zm0-8.54v2.856h1.428c1.512 0 1.974-.476 1.974-1.428s-.574-1.428-1.638-1.428h-1.764zm9.376 8.54l-2.674-10.108h1.904l1.792 7.448h.028l1.876-7.448h1.904L272.664 16h-2.156zm8.76 0h-1.932V5.892h1.932V16zm9.88-7.588l-1.75.42c-.28-.854-.882-1.456-1.834-1.456-1.288 0-2.072 1.204-2.072 3.57-.028 2.366.672 3.57 2.128 3.57.868 0 1.4-.308 1.974-1.498l1.792.476c-.602 1.75-1.918 2.646-3.766 2.646-2.576 0-4.06-1.89-4.06-5.194 0-3.304 1.484-5.194 4.06-5.194 1.932 0 3.052.868 3.528 2.66zM298.216 16h-6.846V5.892h6.692v1.624h-4.76v2.408h3.458v1.624h-3.458v2.828h4.914V16zm8.616 0h-1.68V5.892h2.716l1.946 7.056h.028l1.96-7.056h2.744V16h-1.68V8.048h-.028L310.57 16h-1.47l-2.24-7.952h-.028V16zm13.66-8.176l-1.19 4.396h2.352l-1.134-4.396h-.028zM316.362 16l2.912-10.122h2.408L324.552 16h-1.918l-.56-2.184h-3.192L318.28 16h-1.918zm11.826 0h-1.82V5.892h2.016l3.976 6.888h.028V5.892h1.82V16h-1.862l-4.13-7.196h-.028V16zm11.966-8.176l-1.19 4.396h2.352l-1.134-4.396h-.028zM336.024 16l2.912-10.122h2.408L344.214 16h-1.918l-.56-2.184h-3.192L337.942 16h-1.918zm17.174-7.672l-1.792.476c-.462-1.008-1.022-1.428-2.03-1.428-1.428 0-2.128 1.428-2.128 3.668 0 2.128.798 3.472 2.142 3.472 1.26 0 2.072-.84 2.114-2.002h-1.918V10.89h3.78V16h-1.4v-1.036c-.812.896-1.568 1.176-2.632 1.176-2.744 0-4.018-2.184-4.018-5.04 0-2.576.98-5.348 4.214-5.348 2.016 0 3.192 1.092 3.668 2.576zM362.756 16h-6.846V5.892h6.692v1.624h-4.76v2.408h3.458v1.624h-3.458v2.828h4.914V16zm3.846 0h-1.68V5.892h2.716l1.946 7.056h.028l1.96-7.056h2.744V16h-1.68V8.048h-.028L370.34 16h-1.47l-2.24-7.952h-.028V16zm17.37 0h-6.846V5.892h6.692v1.624h-4.76v2.408h3.458v1.624h-3.458v2.828h4.914V16zm3.986 0h-1.82V5.892h2.016l3.976 6.888h.028V5.892h1.82V16h-1.862l-4.13-7.196h-.028V16zm7.934-10.122h7.224v1.624h-2.646V16h-1.932V7.502h-2.646V5.878zM541.29 231h-1.932v-10.108h1.932V231zm4.826 0h-1.82v-10.108h2.016l3.976 6.888h.028v-6.888h1.82V231h-1.862l-4.13-7.196h-.028V231zm8.746 0v-10.108h3.346c2.674 0 4.522 1.484 4.536 5.054-.014 3.57-1.862 5.054-4.536 5.054h-3.346zm1.932-8.484v6.86h1.288c2.212 0 2.73-1.624 2.73-3.43s-.518-3.43-2.73-3.43h-1.288zm13.814 4.788v-6.412h1.932v6.328c0 2.954-1.82 3.92-3.878 3.92s-3.878-.966-3.878-3.92v-6.328h1.932v6.412c0 1.638.644 2.212 1.946 2.212s1.946-.574 1.946-2.212zm11.238-4.27l-1.764.546c-.294-.784-.896-1.316-1.806-1.316-.84 0-1.442.336-1.442 1.12 0 1.736 5.208 1.372 5.208 4.648 0 2.072-1.302 3.108-3.542 3.108-1.652 0-3.206-.924-3.78-2.394l1.596-.7c.462.952 1.064 1.582 2.198 1.582.966 0 1.708-.364 1.708-1.344 0-1.988-5.208-1.596-5.208-4.704 0-1.806 1.512-2.828 3.262-2.828 1.624 0 2.968.812 3.57 2.282zm1.704-2.156h7.224v1.624h-2.646V231h-1.932v-8.498h-2.646v-1.624zM594.578 231h-1.932v-10.108h4.032c2.296 0 3.22 1.33 3.234 2.996.014 1.246-.616 2.254-1.848 2.604L600.29 231h-2.142l-1.904-4.116h-1.666V231zm0-8.54v2.856h1.428c1.512 0 1.974-.476 1.974-1.428s-.574-1.428-1.638-1.428h-1.764zm8.718-1.568l1.736 4.004 1.736-4.004h2.016l-2.786 6.076V231h-1.932v-4.032l-2.786-6.076h2.016zm-65 66.444h5.196v.816h-4.236v2.904h3.012v.816h-3.012v3.312h4.476V296h-5.436v-8.664zm11.288 0h.864v7.296c0 .456-.024.912.048 1.368h-.792l-.12-.612c-.288.396-.9.732-1.644.732-1.104 0-2.556-.744-2.556-3.24 0-2.424 1.452-3.24 2.508-3.24.588 0 1.164.3 1.644.696l.048.024v-3.024zm0 7.2v-3.288c-.468-.516-1.056-.864-1.572-.864-1.008 0-1.764.66-1.764 2.544 0 1.584.684 2.448 1.764 2.448.552 0 .96-.24 1.572-.84zm8.024 1.464h-.864v-.84h-.024c-.492.552-1.14.96-1.848.96-.924 0-1.8-.48-1.8-1.824v-4.536h.864v4.512c0 .828.396 1.104 1.02 1.104.648 0 1.392-.528 1.788-.948v-4.668h.864V296zm6.884-4.668l-.804.288c-.24-.756-.732-1.236-1.476-1.236-1.068 0-1.692.912-1.692 2.496s.624 2.496 1.692 2.496c.792 0 1.236-.264 1.716-1.152l.696.312c-.624 1.056-1.176 1.584-2.412 1.584-1.56 0-2.556-1.224-2.556-3.24s.996-3.24 2.556-3.24c1.284 0 1.884.72 2.28 1.692zm2.624.024l-.756-.396c.396-.72 1.164-1.32 2.34-1.32 1.056 0 2.16.504 2.16 1.872v3.144c0 .684.06 1.02.144 1.344h-.888l-.096-.864c-.432.48-1.128.984-2.064.984-.96 0-1.776-.576-1.776-1.716 0-1.368 1.044-2.052 3.816-2.544v-.336c0-.828-.54-1.14-1.284-1.14-.96 0-1.428.552-1.596.972zm2.88 2.988v-1.716c-1.98.348-2.952.924-2.952 1.788 0 .576.552.96 1.032.96.624 0 1.416-.456 1.92-1.032zm2.396-4.584h1.02v-2.052h.864v2.052h1.44v.744h-1.44v4.44c0 .288.204.432.708.432.288 0 .54-.024.768-.06v.708c-.156.048-.504.096-1.008.096-.936 0-1.332-.24-1.332-1.032v-4.584h-1.02v-.744zm8.972 3.12c0-1.608-.66-2.496-1.692-2.496s-1.692.888-1.692 2.496.66 2.496 1.692 2.496 1.692-.888 1.692-2.496zm.864 0c0 1.8-.852 3.24-2.556 3.24-1.704 0-2.556-1.44-2.556-3.24 0-1.8.852-3.24 2.556-3.24 1.704 0 2.556 1.44 2.556 3.24zm1.784 3.12v-6.24h.864v1.236h.024c.48-.852.996-1.332 2.028-1.332v.864c-1.08.024-1.644.732-2.052 2.016V296h-.864zm3.944-1.068l.684-.516c.408.588 1.008.96 1.788.96.936 0 1.344-.504 1.344-1.032 0-1.584-3.696-.744-3.624-3.024.036-1.08.864-1.692 2.064-1.68.816.012 1.716.456 2.136 1.092l-.6.528c-.48-.588-.936-.876-1.608-.876-.732 0-1.128.372-1.128.924 0 1.356 3.624.66 3.624 2.988 0 1.212-1.056 1.824-2.184 1.824-.972 0-1.92-.42-2.496-1.188zm15.94-5.58l-.864.192c-.216-.84-.9-1.512-2.016-1.512-1.008 0-1.608.48-1.62 1.344-.024 1.896 4.872 1.416 4.872 4.2 0 1.26-.708 2.544-2.916 2.544-1.896 0-2.64-1.224-3.096-2.256l.876-.312c.348.912.996 1.752 2.268 1.752 1.272 0 1.908-.672 1.908-1.56 0-2.208-4.872-1.56-4.872-4.296 0-1.248 1.044-2.232 2.604-2.232 1.344 0 2.4.708 2.856 2.136zm6.512 4.968l.672.348c-.408.708-.984 1.452-2.4 1.452-1.392 0-2.712-.96-2.712-3.24 0-2.016 1.008-3.24 2.544-3.24 1.296 0 2.376.84 2.376 2.832v.576h-4.056c0 1.368.816 2.328 1.848 2.328.768 0 1.368-.408 1.728-1.056zm-3.552-2.016h3.168c0-1.152-.552-1.92-1.488-1.92-1.044 0-1.608.768-1.68 1.92zm5.972 3.696v-6.24h.864v1.236h.024c.48-.852.996-1.332 2.028-1.332v.864c-1.08.024-1.644.732-2.052 2.016V296h-.864zm8.792-6.24l-1.872 6.24h-1.152l-1.92-6.24h.876l1.584 5.16h.024l1.584-5.16h.876zm1.928 6.24v-6.24h.864V296h-.864zm0-8.784h.864v1.032h-.864v-1.032zm3.668 2.544h.864v.84h.024c.492-.552 1.14-.96 1.848-.96.924 0 1.8.48 1.8 1.824V296h-.864v-4.512c0-.828-.396-1.104-1.02-1.104-.648 0-1.392.528-1.788.948V296h-.864v-6.24zm11.864-.24v.864c-.36 0-.744.06-.96.168.18.216.432.696.432 1.272 0 1.236-1.02 2.184-2.28 2.184-.504 0-.768-.072-1.104-.168-.336.096-.492.3-.492.576 0 .288.204.456.516.456 2.952 0 3.9.528 3.9 1.752 0 .912-.9 1.68-2.844 1.68-1.752 0-2.688-.48-2.688-1.512 0-.624.384-.924 1.056-1.272-.48-.144-.78-.516-.78-.888 0-.54.36-.768.84-1.068-.588-.444-.852-1.056-.852-1.74 0-1.32 1.032-2.184 2.364-2.184.672 0 1.14.144 1.548.432.372-.264.876-.504 1.344-.552zm-.804 7.14c-.012-.612-.636-.924-2.16-.924-1.356 0-1.74.6-1.74 1.044 0 .468.288.78 2.016.78 1.032 0 1.872-.288 1.884-.9zm-.54-4.788c0-.912-.528-1.488-1.584-1.488-.984 0-1.512.624-1.512 1.44 0 .828.648 1.44 1.608 1.44.984 0 1.488-.648 1.488-1.392zm7.54-4.536h5.196v.816h-4.236v2.904h3.012v.816h-3.012v3.312h4.476V296h-5.436v-8.664zm11.288 0h.864v7.296c0 .456-.024.912.048 1.368h-.792l-.12-.612c-.288.396-.9.732-1.644.732-1.104 0-2.556-.744-2.556-3.24 0-2.424 1.452-3.24 2.508-3.24.588 0 1.164.3 1.644.696l.048.024v-3.024zm0 7.2v-3.288c-.468-.516-1.056-.864-1.572-.864-1.008 0-1.764.66-1.764 2.544 0 1.584.684 2.448 1.764 2.448.552 0 .96-.24 1.572-.84zm8.024 1.464h-.864v-.84h-.024c-.492.552-1.14.96-1.848.96-.924 0-1.8-.48-1.8-1.824v-4.536h.864v4.512c0 .828.396 1.104 1.02 1.104.648 0 1.392-.528 1.788-.948v-4.668h.864V296zm6.884-4.668l-.804.288c-.24-.756-.732-1.236-1.476-1.236-1.068 0-1.692.912-1.692 2.496s.624 2.496 1.692 2.496c.792 0 1.236-.264 1.716-1.152l.696.312c-.624 1.056-1.176 1.584-2.412 1.584-1.56 0-2.556-1.224-2.556-3.24s.996-3.24 2.556-3.24c1.284 0 1.884.72 2.28 1.692zm2.624.024l-.756-.396c.396-.72 1.164-1.32 2.34-1.32 1.056 0 2.16.504 2.16 1.872v3.144c0 .684.06 1.02.144 1.344h-.888l-.096-.864c-.432.48-1.128.984-2.064.984-.96 0-1.776-.576-1.776-1.716 0-1.368 1.044-2.052 3.816-2.544v-.336c0-.828-.54-1.14-1.284-1.14-.96 0-1.428.552-1.596.972zm2.88 2.988v-1.716c-1.98.348-2.952.924-2.952 1.788 0 .576.552.96 1.032.96.624 0 1.416-.456 1.92-1.032zm2.396-4.584h1.02v-2.052h.864v2.052h1.44v.744h-1.44v4.44c0 .288.204.432.708.432.288 0 .54-.024.768-.06v.708c-.156.048-.504.096-1.008.096-.936 0-1.332-.24-1.332-1.032v-4.584h-1.02v-.744zm8.972 3.12c0-1.608-.66-2.496-1.692-2.496s-1.692.888-1.692 2.496.66 2.496 1.692 2.496 1.692-.888 1.692-2.496zm.864 0c0 1.8-.852 3.24-2.556 3.24-1.704 0-2.556-1.44-2.556-3.24 0-1.8.852-3.24 2.556-3.24 1.704 0 2.556 1.44 2.556 3.24zm1.784 3.12v-6.24h.864v1.236h.024c.48-.852.996-1.332 2.028-1.332v.864c-1.08.024-1.644.732-2.052 2.016V296h-.864zm3.944-1.068l.684-.516c.408.588 1.008.96 1.788.96.936 0 1.344-.504 1.344-1.032 0-1.584-3.696-.744-3.624-3.024.036-1.08.864-1.692 2.064-1.68.816.012 1.716.456 2.136 1.092l-.6.528c-.48-.588-.936-.876-1.608-.876-.732 0-1.128.372-1.128.924 0 1.356 3.624.66 3.624 2.988 0 1.212-1.056 1.824-2.184 1.824-.972 0-1.92-.42-2.496-1.188zm-340.64-152.596h5.196v.816h-4.236v2.904h3.012v.816h-3.012v3.312h4.476V151h-5.436v-8.664zm11.672 2.424l-1.872 6.24h-1.152l-1.92-6.24h.876l1.584 5.16h.024l1.584-5.16h.876zm5.612 4.56l.672.348c-.408.708-.984 1.452-2.4 1.452-1.392 0-2.712-.96-2.712-3.24 0-2.016 1.008-3.24 2.544-3.24 1.296 0 2.376.84 2.376 2.832v.576h-4.056c0 1.368.816 2.328 1.848 2.328.768 0 1.368-.408 1.728-1.056zm-3.552-2.016h3.168c0-1.152-.552-1.92-1.488-1.92-1.044 0-1.608.768-1.68 1.92zM374 151v-6.24h.864v1.236h.024c.48-.852.996-1.332 2.028-1.332v.864c-1.08.024-1.644.732-2.052 2.016V151H374zm3.944-1.068l.684-.516c.408.588 1.008.96 1.788.96.936 0 1.344-.504 1.344-1.032 0-1.584-3.696-.744-3.624-3.024.036-1.08.864-1.692 2.064-1.68.816.012 1.716.456 2.136 1.092l-.6.528c-.48-.588-.936-.876-1.608-.876-.732 0-1.128.372-1.128.924 0 1.356 3.624.66 3.624 2.988 0 1.212-1.056 1.824-2.184 1.824-.972 0-1.92-.42-2.496-1.188zm7.46 3.372h-.864v-8.544h.864v.732h.024c.324-.468 1.02-.852 1.62-.852 1.104 0 2.556.744 2.556 3.24 0 2.424-1.452 3.24-2.508 3.24-.588 0-1.164-.3-1.644-.696l-.048-.024v2.904zm0-7.08v3.288c.468.516 1.056.864 1.572.864 1.008 0 1.764-.66 1.764-2.544 0-1.584-.684-2.448-1.764-2.448-.552 0-.96.24-1.572.84zm6.092 4.776v-6.24h.864v1.236h.024c.48-.852.996-1.332 2.028-1.332v.864c-1.08.024-1.644.732-2.052 2.016V151h-.864zm4.892 0v-6.24h.864V151h-.864zm0-8.784h.864v1.032h-.864v-1.032zm3.668 2.544h.864v.84h.024c.492-.552 1.14-.96 1.848-.96.924 0 1.8.48 1.8 1.824V151h-.864v-4.512c0-.828-.396-1.104-1.02-1.104-.648 0-1.392.528-1.788.948V151h-.864v-6.24zm11.864-.24v.864c-.36 0-.744.06-.96.168.18.216.432.696.432 1.272 0 1.236-1.02 2.184-2.28 2.184-.504 0-.768-.072-1.104-.168-.336.096-.492.3-.492.576 0 .288.204.456.516.456 2.952 0 3.9.528 3.9 1.752 0 .912-.9 1.68-2.844 1.68-1.752 0-2.688-.48-2.688-1.512 0-.624.384-.924 1.056-1.272-.48-.144-.78-.516-.78-.888 0-.54.36-.768.84-1.068-.588-.444-.852-1.056-.852-1.74 0-1.32 1.032-2.184 2.364-2.184.672 0 1.14.144 1.548.432.372-.264.876-.504 1.344-.552zm-.804 7.14c-.012-.612-.636-.924-2.16-.924-1.356 0-1.74.6-1.74 1.044 0 .468.288.78 2.016.78 1.032 0 1.872-.288 1.884-.9zm-.54-4.788c0-.912-.528-1.488-1.584-1.488-.984 0-1.512.624-1.512 1.44 0 .828.648 1.44 1.608 1.44.984 0 1.488-.648 1.488-1.392z"/></g></svg>