<svg xmlns="http://www.w3.org/2000/svg" width="581" height="241" viewBox="0 0 581 241">
  <g fill="none" fill-rule="evenodd" transform="translate(0 -7)">
    <path fill="#8B949B" d="M9.47265625,18.015625 L3.01757812,18.015625 L1.55273438,22 L0.29296875,22 L5.67382812,7.78125 L6.81640625,7.78125 L12.1972656,22 L10.9472656,22 L9.47265625,18.015625 Z M3.38867188,16.9902344 L9.09179688,16.9902344 L6.24023438,9.24609375 L3.38867188,16.9902344 Z M17.5306919,20.3886719 L20.7435825,11.4335938 L21.9447544,11.4335938 L17.9994419,22 L17.0521763,22 L13.0873325,11.4335938 L14.2885044,11.4335938 L17.5306919,20.3886719 Z M28.5379463,22.1953125 C27.8478387,22.1953125 27.2130794,22.0667331 26.6336495,21.8095703 C26.0542195,21.5524076 25.55455,21.1943382 25.134626,20.7353516 C24.7147021,20.2763649 24.3875569,19.7311229 24.1531807,19.0996094 C23.9188045,18.4680958 23.8016182,17.7747434 23.8016182,17.0195312 L23.8016182,16.5996094 C23.8016182,15.7858032 23.9236873,15.0485059 24.1678292,14.3876953 C24.411971,13.7268847 24.7423713,13.1637393 25.1590401,12.6982422 C25.5757088,12.2327451 26.0558473,11.8730481 26.5994698,11.6191406 C27.1430923,11.3652331 27.7176308,11.2382812 28.3231026,11.2382812 C28.9936789,11.2382812 29.589376,11.3587228 30.110212,11.5996094 C30.6310479,11.840496 31.068869,12.1757791 31.4236885,12.6054688 C31.778508,13.0351584 32.04706,13.546221 32.2293526,14.1386719 C32.4116452,14.7311228 32.5027901,15.3789027 32.5027901,16.0820312 L32.5027901,16.7949219 L24.9637276,16.7949219 L24.9637276,17.0195312 C24.9637276,17.5989612 25.0516173,18.1442032 25.2273995,18.6552734 C25.4031816,19.1663437 25.650575,19.6106752 25.969587,19.9882812 C26.288599,20.3658873 26.6694545,20.6637359 27.1121651,20.8818359 C27.5548756,21.099936 28.0464072,21.2089844 28.5867745,21.2089844 C29.2117776,21.2089844 29.7635299,21.0950532 30.2420479,20.8671875 C30.7205659,20.6393218 31.1551319,20.2747421 31.5457588,19.7734375 L32.2781807,20.3300781 C32.1023986,20.5839856 31.8989501,20.8248687 31.6678292,21.0527344 C31.4367082,21.2806001 31.1681562,21.4791658 30.8621651,21.6484375 C30.556174,21.8177092 30.2111253,21.9511714 29.8270088,22.0488281 C29.4428923,22.1464849 29.0132091,22.1953125 28.5379463,22.1953125 Z M28.3231026,12.234375 C27.880392,12.234375 27.4702399,12.3190096 27.0926338,12.4882812 C26.7150278,12.6575529 26.3813723,12.8984359 26.0916573,13.2109375 C25.8019423,13.5234391 25.5643145,13.8994119 25.3787667,14.3388672 C25.1932189,14.7783225 25.0678946,15.2649713 25.0027901,15.7988281 L31.3406807,15.7988281 L31.3406807,15.671875 C31.3276598,15.2291645 31.256046,14.8011088 31.125837,14.3876953 C30.995628,13.9742818 30.8052002,13.6080745 30.5545479,13.2890625 C30.3038956,12.9700505 29.9930263,12.7145192 29.6219307,12.5224609 C29.2508351,12.3304027 28.8178967,12.234375 28.3231026,12.234375 Z M36.6057476,11.4335938 L36.6448101,13.2402344 C36.8271027,12.9407537 37.0370616,12.6673189 37.274693,12.4199219 C37.5123243,12.1725248 37.7776212,11.9609384 38.0705914,11.7851562 C38.3635616,11.6093741 38.6793137,11.4742843 39.017857,11.3798828 C39.3564004,11.2854813 39.7144697,11.2382812 40.0920758,11.2382812 C40.6194222,11.2382812 41.0914226,11.3098951 41.5080914,11.453125 C41.9247601,11.5963549 42.2779467,11.8242172 42.5676617,12.1367188 C42.8573767,12.4492203 43.0787286,12.8512345 43.2317242,13.3427734 C43.3847198,13.8343124 43.4612164,14.4283819 43.4612164,15.125 L43.4612164,22 L42.299107,22 L42.299107,15.1152344 C42.299107,14.5683566 42.2405139,14.112632 42.1233258,13.7480469 C42.0061377,13.3834617 41.8401237,13.0904959 41.6252789,12.8691406 C41.4104341,12.6477854 41.1483924,12.4899093 40.8391461,12.3955078 C40.5298997,12.3011063 40.1864787,12.2539062 39.8088726,12.2539062 C39.3922039,12.2539062 39.0146035,12.3238925 38.6760601,12.4638672 C38.3375168,12.6038418 38.0380406,12.7910145 37.7776226,13.0253906 C37.5172047,13.2597668 37.2925975,13.5283188 37.1037945,13.8310547 C36.9149915,14.1337906 36.7652534,14.4446599 36.6545758,14.7636719 L36.6545758,22 L35.4924664,22 L35.4924664,11.4335938 L36.6057476,11.4335938 Z M48.5016739,22 L47.3297989,22 L47.3297989,11.4335938 L48.5016739,11.4335938 L48.5016739,22 Z M47.1247208,8.37695312 C47.1247208,8.15559785 47.1963347,7.96842524 47.3395646,7.81542969 C47.4827944,7.66243413 47.678105,7.5859375 47.9255021,7.5859375 C48.1728991,7.5859375 48.3698373,7.66243413 48.5163224,7.81542969 C48.6628075,7.96842524 48.7360489,8.15559785 48.7360489,8.37695312 C48.7360489,8.5983084 48.6628075,8.78385342 48.5163224,8.93359375 C48.3698373,9.08333408 48.1728991,9.15820312 47.9255021,9.15820312 C47.678105,9.15820312 47.4827944,9.08333408 47.3395646,8.93359375 C47.1963347,8.78385342 47.1247208,8.5983084 47.1247208,8.37695312 Z M57.2726002,12.4296875 C57.0252032,12.3841144 56.7615339,12.3613281 56.4815846,12.3613281 C56.0844472,12.3613281 55.7263779,12.4199213 55.4073659,12.5371094 C55.0883538,12.6542975 54.8067811,12.8186838 54.5626393,13.0302734 C54.3184975,13.241863 54.1134214,13.4925116 53.9474049,13.7822266 C53.7813885,14.0719416 53.6495538,14.3925764 53.5518971,14.7441406 L53.5518971,22 L52.3897877,22 L52.3897877,11.4335938 L53.5323659,11.4335938 L53.5518971,13.1132812 C53.8383569,12.5338513 54.2273504,12.0764991 54.7188893,11.7412109 C55.2104282,11.4059228 55.8142633,11.2382812 56.5304127,11.2382812 C56.6736426,11.2382812 56.8201255,11.251302 56.9698659,11.2773438 C57.1196062,11.3033855 57.2302822,11.3326821 57.3018971,11.3652344 L57.2726002,12.4296875 Z M12.3828125,52 L11.1816406,52 L3.0078125,39.8320312 L3.0078125,52 L1.796875,52 L1.796875,37.78125 L3.0078125,37.78125 L11.1914062,49.9589844 L11.1914062,37.78125 L12.3828125,37.78125 L12.3828125,52 Z M20.5287388,52.1953125 C19.8386312,52.1953125 19.2038719,52.0667331 18.6244419,51.8095703 C18.0450119,51.5524076 17.5453425,51.1943382 17.1254185,50.7353516 C16.7054945,50.2763649 16.3783493,49.7311229 16.1439732,49.0996094 C15.909597,48.4680958 15.7924107,47.7747434 15.7924107,47.0195312 L15.7924107,46.5996094 C15.7924107,45.7858032 15.9144798,45.0485059 16.1586216,44.3876953 C16.4027635,43.7268847 16.7331638,43.1637393 17.1498325,42.6982422 C17.5665013,42.2327451 18.0466397,41.8730481 18.5902622,41.6191406 C19.1338847,41.3652331 19.7084233,41.2382812 20.313895,41.2382812 C20.9844713,41.2382812 21.5801685,41.3587228 22.1010044,41.5996094 C22.6218404,41.840496 23.0596615,42.1757791 23.414481,42.6054688 C23.7693005,43.0351584 24.0378525,43.546221 24.220145,44.1386719 C24.4024376,44.7311228 24.4935825,45.3789027 24.4935825,46.0820312 L24.4935825,46.7949219 L16.95452,46.7949219 L16.95452,47.0195312 C16.95452,47.5989612 17.0424098,48.1442032 17.2181919,48.6552734 C17.3939741,49.1663437 17.6413674,49.6106752 17.9603794,49.9882812 C18.2793914,50.3658873 18.660247,50.6637359 19.1029575,50.8818359 C19.5456681,51.099936 20.0371996,51.2089844 20.5775669,51.2089844 C21.20257,51.2089844 21.7543223,51.0950532 22.2328404,50.8671875 C22.7113584,50.6393218 23.1459243,50.2747421 23.5365513,49.7734375 L24.2689732,50.3300781 C24.093191,50.5839856 23.8897426,50.8248687 23.6586216,51.0527344 C23.4275007,51.2806001 23.1589487,51.4791658 22.8529575,51.6484375 C22.5469664,51.8177092 22.2019178,51.9511714 21.8178013,52.0488281 C21.4336848,52.1464849 21.0040016,52.1953125 20.5287388,52.1953125 Z M20.313895,42.234375 C19.8711845,42.234375 19.4610324,42.3190096 19.0834263,42.4882812 C18.7058202,42.6575529 18.3721647,42.8984359 18.0824497,43.2109375 C17.7927347,43.5234391 17.5551069,43.8994119 17.3695591,44.3388672 C17.1840113,44.7783225 17.058687,45.2649713 16.9935825,45.7988281 L23.3314732,45.7988281 L23.3314732,45.671875 C23.3184523,45.2291645 23.2468384,44.8011088 23.1166294,44.3876953 C22.9864204,43.9742818 22.7959927,43.6080745 22.5453404,43.2890625 C22.2946881,42.9700505 21.9838188,42.7145192 21.6127232,42.5224609 C21.2416276,42.3304027 20.8086892,42.234375 20.313895,42.234375 Z M30.8035713,45.7207031 L33.6551338,41.4335938 L35.0418526,41.4335938 L31.4578682,46.6191406 L35.1981026,52 L33.8211495,52 L30.813337,47.5273438 L27.8055245,52 L26.4285713,52 L30.1590401,46.6191406 L26.5750557,41.4335938 L27.9520088,41.4335938 L30.8035713,45.7207031 Z M39.7405133,38.7285156 L39.7405133,41.4335938 L41.9280133,41.4335938 L41.9280133,42.390625 L39.7405133,42.390625 L39.7405133,49.4316406 C39.7405133,49.8027362 39.7779478,50.1005848 39.852818,50.3251953 C39.9276881,50.5498058 40.0285986,50.7255853 40.1555523,50.8525391 C40.2825061,50.9794928 40.428989,51.0641274 40.5950055,51.1064453 C40.7610219,51.1487632 40.9351738,51.1699219 41.1174664,51.1699219 C41.2932485,51.1699219 41.4625177,51.1585288 41.6252789,51.1357422 C41.7880401,51.1129556 41.934523,51.091797 42.064732,51.0722656 L42.1135601,52.0292969 C41.9703303,52.0813805 41.7831576,52.1220702 41.5520367,52.1513672 C41.3209158,52.1806642 41.0914259,52.1953125 40.8635601,52.1953125 C40.5315272,52.1953125 40.2239131,52.1513676 39.9407086,52.0634766 C39.657504,51.9755855 39.4149934,51.8242198 39.2131695,51.609375 C39.0113456,51.3945302 38.8534696,51.1097023 38.7395367,50.7548828 C38.6256038,50.4000633 38.5686383,49.958987 38.5686383,49.4316406 L38.5686383,42.390625 L36.6252789,42.390625 L36.6252789,41.4335938 L38.5686383,41.4335938 L38.5686383,38.7285156 L39.7405133,38.7285156 Z"/>
    <path fill="#222" d="M10.68 216L1.2 216 37.92 131.04 46.32 131.04 82.8 216 73.2 216 63.84 193.68 19.92 193.68 10.68 216zM23.16 185.76L60.6 185.76 41.88 140.64 23.16 185.76zM135.2 179.76C135.2 174.879976 133.920013 171.240012 131.36 168.84 128.799987 166.439988 125.080024 165.24 120.2 165.24 116.839983 165.24 113.720014 165.839994 110.84 167.04 107.959986 168.240006 105.52001 169.83999 103.52 171.84L98.96 166.44C101.280012 164.119988 104.339981 162.200008 108.14 160.68 111.940019 159.159992 116.239976 158.4 121.04 158.4 124.080015 158.4 126.919987 158.819996 129.56 159.66 132.200013 160.500004 134.51999 161.759992 136.52 163.44 138.52001 165.120008 140.079994 167.239987 141.2 169.8 142.320006 172.360013 142.88 175.359983 142.88 178.8L142.88 203.4C142.88 205.560011 142.959999 207.799988 143.12 210.12 143.280001 212.440012 143.519998 214.399992 143.84 216L136.52 216C136.279999 214.639993 136.080001 213.160008 135.92 211.56 135.759999 209.959992 135.68 208.400008 135.68 206.88L135.44 206.88C132.879987 210.640019 129.980016 213.339992 126.74 214.98 123.499984 216.620008 119.600023 217.44 115.04 217.44 112.879989 217.44 110.660011 217.140003 108.38 216.54 106.099989 215.939997 104.020009 214.960007 102.14 213.6 100.259991 212.239993 98.7000062 210.480011 97.46 208.32 96.2199938 206.159989 95.6 203.520016 95.6 200.4 95.6 196.079978 96.699989 192.660013 98.9 190.14 101.100011 187.619987 104.039982 185.740006 107.72 184.5 111.400018 183.259994 115.619976 182.460002 120.38 182.1 125.140024 181.739998 130.079974 181.56 135.2 181.56L135.2 179.76zM132.8 187.92C129.439983 187.92 126.060017 188.059999 122.66 188.34 119.259983 188.620001 116.180014 189.179996 113.42 190.02 110.659986 190.860004 108.400009 192.079992 106.64 193.68 104.879991 195.280008 104 197.399987 104 200.04 104 202.04001 104.379996 203.719993 105.14 205.08 105.900004 206.440007 106.919994 207.539996 108.2 208.38 109.480006 209.220004 110.899992 209.819998 112.46 210.18 114.020008 210.540002 115.599992 210.72 117.2 210.72 120.080014 210.72 122.639989 210.220005 124.88 209.22 127.120011 208.219995 128.999992 206.860009 130.52 205.14 132.040008 203.419991 133.199996 201.440011 134 199.2 134.800004 196.959989 135.2 194.600012 135.2 192.12L135.2 187.92 132.8 187.92zM225.204 44L222.36 44 233.376 18.512 235.896 18.512 246.84 44 243.96 44 241.152 37.304 227.976 37.304 225.204 44zM228.948 34.928L240.18 34.928 234.564 21.392 228.948 34.928zM261.06 33.128C261.06 31.6639927 260.676004 30.5720036 259.908 29.852 259.139996 29.1319964 258.024007 28.772 256.56 28.772 255.551995 28.772 254.616004 28.9519982 253.752 29.312 252.887996 29.6720018 252.156003 30.151997 251.556 30.752L250.188 29.132C250.884003 28.4359965 251.801994 27.8600023 252.942 27.404 254.082006 26.9479977 255.371993 26.72 256.812 26.72 257.724005 26.72 258.575996 26.8459987 259.368 27.098 260.160004 27.3500013 260.855997 27.7279975 261.456 28.232 262.056003 28.7360025 262.523998 29.3719962 262.86 30.14 263.196002 30.9080038 263.364 31.8079948 263.364 32.84L263.364 40.22C263.364 40.8680032 263.388 41.5399965 263.436 42.236 263.484 42.9320035 263.556 43.5199976 263.652 44L261.456 44C261.384 43.591998 261.324 43.1480024 261.276 42.668 261.228 42.1879976 261.204 41.7200023 261.204 41.264L261.132 41.264C260.363996 42.3920056 259.494005 43.2019975 258.522 43.694 257.549995 44.1860025 256.380007 44.432 255.012 44.432 254.363997 44.432 253.698003 44.3420009 253.014 44.162 252.329997 43.9819991 251.706003 43.688002 251.142 43.28 250.577997 42.871998 250.110002 42.3440032 249.738 41.696 249.365998 41.0479968 249.18 40.2560047 249.18 39.32 249.18 38.0239935 249.509997 36.9980038 250.17 36.242 250.830003 35.4859962 251.711994 34.9220019 252.816 34.55 253.920006 34.1779981 255.185993 33.9380005 256.614 33.83 258.042007 33.7219995 259.523992 33.668 261.06 33.668L261.06 33.128zM260.34 35.576C259.331995 35.576 258.318005 35.6179996 257.298 35.702 256.277995 35.7860004 255.354004 35.9539987 254.526 36.206 253.697996 36.4580013 253.020003 36.8239976 252.492 37.304 251.963997 37.7840024 251.7 38.419996 251.7 39.212 251.7 39.812003 251.813999 40.315998 252.042 40.724 252.270001 41.132002 252.575998 41.4619987 252.96 41.714 253.344002 41.9660013 253.769998 42.1459995 254.238 42.254 254.706002 42.3620005 255.179998 42.416 255.66 42.416 256.524004 42.416 257.291997 42.2660015 257.964 41.966 258.636003 41.6659985 259.199998 41.2580026 259.656 40.742 260.112002 40.2259974 260.459999 39.6320034 260.7 38.96 260.940001 38.2879966 261.06 37.5800037 261.06 36.836L261.06 35.576 260.34 35.576zM278.808 18.512L286.404 18.512C287.364005 18.512 288.335995 18.613999 289.32 18.818 290.304005 19.022001 291.185996 19.3699975 291.966 19.862 292.746004 20.3540025 293.381998 21.0199958 293.874 21.86 294.366002 22.7000042 294.612 23.7559936 294.612 25.028 294.612 26.3720067 294.204004 27.541995 293.388 28.538 292.571996 29.534005 291.480007 30.1879984 290.112 30.5L290.112 30.572C291.768008 30.764001 293.141995 31.4059945 294.234 32.498 295.326005 33.5900055 295.872 35.0719906 295.872 36.944 295.872 38.0000053 295.650002 38.9659956 295.206 39.842 294.761998 40.7180044 294.132004 41.4619969 293.316 42.074 292.499996 42.6860031 291.504006 43.1599983 290.328 43.496 289.151994 43.8320017 287.832007 44 286.368 44L278.808 44 278.808 18.512zM281.4 29.672L286.62 29.672C287.244003 29.672 287.873997 29.6000007 288.51 29.456 289.146003 29.3119993 289.727997 29.0660017 290.256 28.718 290.784003 28.3699983 291.209998 27.9080029 291.534 27.332 291.858002 26.7559971 292.02 26.0480042 292.02 25.208 292.02 24.3919959 291.858002 23.7020028 291.534 23.138 291.209998 22.5739972 290.772003 22.1120018 290.22 21.752 289.667997 21.3919982 289.020004 21.1340008 288.276 20.978 287.531996 20.8219992 286.740004 20.744 285.9 20.744L281.4 20.744 281.4 29.672zM281.4 41.768L286.224 41.768C287.160005 41.768 288.053996 41.6780009 288.906 41.498 289.758004 41.3179991 290.501997 41.030002 291.138 40.634 291.774003 40.237998 292.283998 39.7220032 292.668 39.086 293.052002 38.4499968 293.244 37.6880044 293.244 36.8 293.244 35.1199916 292.674006 33.8660041 291.534 33.038 290.393994 32.2099959 288.78001 31.796 286.692 31.796L281.4 31.796 281.4 41.768zM304.08 41.156L304.08 44 301.632 44 301.632 16.784 304.08 16.784 304.08 30.068 304.152 30.068C304.872004 28.9639945 305.807994 28.1300028 306.96 27.566 308.112006 27.0019972 309.299994 26.72 310.524 26.72 311.844007 26.72 313.037995 26.9479977 314.106 27.404 315.174005 27.8600023 316.085996 28.483996 316.842 29.276 317.598004 30.068004 318.185998 31.0039946 318.606 32.084 319.026002 33.1640054 319.236 34.3279938 319.236 35.576 319.236 36.8240062 319.026002 37.9879946 318.606 39.068 318.185998 40.1480054 317.598004 41.083996 316.842 41.876 316.085996 42.668004 315.174005 43.2919977 314.106 43.748 313.037995 44.2040023 311.844007 44.432 310.524 44.432 309.299994 44.432 308.112006 44.1560028 306.96 43.604 305.807994 43.0519972 304.872004 42.2360054 304.152 41.156L304.08 41.156zM316.644 35.576C316.644 34.6399953 316.500001 33.7580041 316.212 32.93 315.923999 32.1019959 315.510003 31.3820031 314.97 30.77 314.429997 30.1579969 313.764004 29.6720018 312.972 29.312 312.179996 28.9519982 311.280005 28.772 310.272 28.772 309.335995 28.772 308.472004 28.9459983 307.68 29.294 306.887996 29.6420017 306.204003 30.1219969 305.628 30.734 305.051997 31.3460031 304.602002 32.0659959 304.278 32.894 303.953998 33.7220041 303.792 34.6159952 303.792 35.576 303.792 36.5360048 303.953998 37.4299959 304.278 38.258 304.602002 39.0860041 305.051997 39.799997 305.628 40.4 306.204003 41.000003 306.887996 41.4739983 307.68 41.822 308.472004 42.1700017 309.335995 42.344 310.272 42.344 311.280005 42.344 312.179996 42.1700017 312.972 41.822 313.764004 41.4739983 314.429997 40.9940031 314.97 40.382 315.510003 39.7699969 315.923999 39.0500041 316.212 38.222 316.500001 37.3939959 316.644 36.5120047 316.644 35.576zM355.092 39.896C354.659998 40.5440032 354.138003 41.1559971 353.526 41.732 352.913997 42.3080029 352.206004 42.8119978 351.402 43.244 350.597996 43.6760022 349.710005 44.0179987 348.738 44.27 347.765995 44.5220013 346.704006 44.648 345.552 44.648 343.63199 44.648 341.856008 44.3120034 340.224 43.64 338.591992 42.9679966 337.188006 42.0380059 336.012 40.85 334.835994 39.6619941 333.918003 38.2520082 333.258 36.62 332.597997 34.9879918 332.268 33.2000097 332.268 31.256 332.268 29.3119903 332.603997 27.5240082 333.276 25.892 333.948003 24.2599918 334.877994 22.8500059 336.066 21.662 337.254006 20.4739941 338.657992 19.5440034 340.278 18.872 341.898008 18.1999966 343.655991 17.864 345.552 17.864 346.488005 17.864 347.405996 17.959999 348.306 18.152 349.206005 18.344001 350.051996 18.6139983 350.844 18.962 351.636004 19.3100017 352.355997 19.7299975 353.004 20.222 353.652003 20.7140025 354.191998 21.2719969 354.624 21.896L352.464 23.48C352.199999 23.071998 351.846002 22.664002 351.402 22.256 350.957998 21.847998 350.436003 21.4880016 349.836 21.176 349.235997 20.8639984 348.582004 20.612001 347.874 20.42 347.165996 20.227999 346.404004 20.132 345.588 20.132 343.931992 20.132 342.450007 20.431997 341.142 21.032 339.833993 21.632003 338.724005 22.4419949 337.812 23.462 336.899995 24.4820051 336.204002 25.6639933 335.724 27.008 335.243998 28.3520067 335.004 29.7679926 335.004 31.256 335.004 32.7440074 335.249998 34.1599933 335.742 35.504 336.234002 36.8480067 336.935995 38.0299949 337.848 39.05 338.760005 40.0700051 339.869993 40.879997 341.178 41.48 342.486007 42.080003 343.955992 42.38 345.588 42.38 347.052007 42.38 348.443993 42.080003 349.764 41.48 351.084007 40.879997 352.187996 39.9200066 353.076 38.6L355.092 39.896zM371.544 31.004C371.135998 30.3559968 370.542004 29.8220021 369.762 29.402 368.981996 28.9819979 368.136005 28.772 367.224 28.772 366.239995 28.772 365.352004 28.9459983 364.56 29.294 363.767996 29.6420017 363.090003 30.1219969 362.526 30.734 361.961997 31.3460031 361.530002 32.0659959 361.23 32.894 360.929999 33.7220041 360.78 34.6159952 360.78 35.576 360.78 36.5360048 360.929999 37.4239959 361.23 38.24 361.530002 39.0560041 361.955997 39.7699969 362.508 40.382 363.060003 40.9940031 363.731996 41.4739983 364.524 41.822 365.316004 42.1700017 366.203995 42.344 367.188 42.344 368.268005 42.344 369.179996 42.140002 369.924 41.732 370.668004 41.323998 371.279998 40.7960032 371.76 40.148L373.596 41.516C372.875996 42.4040044 371.994005 43.1119974 370.95 43.64 369.905995 44.1680026 368.652007 44.432 367.188 44.432 365.819993 44.432 364.584006 44.2100022 363.48 43.766 362.375994 43.3219978 361.434004 42.704004 360.654 41.912 359.873996 41.119996 359.268002 40.1840054 358.836 39.104 358.403998 38.0239946 358.188 36.8480064 358.188 35.576 358.188 34.3039936 358.403998 33.1280054 358.836 32.048 359.268002 30.9679946 359.873996 30.032004 360.654 29.24 361.434004 28.447996 362.375994 27.8300022 363.48 27.386 364.584006 26.9419978 365.819993 26.72 367.188 26.72 368.316006 26.72 369.461994 26.9659975 370.626 27.458 371.790006 27.9500025 372.731996 28.6759952 373.452 29.636L371.544 31.004zM386.556 18.512L395.016 18.512C396.600008 18.512 398.189992 18.7759974 399.786 19.304 401.382008 19.8320026 402.821994 20.6299947 404.106 21.698 405.390006 22.7660053 406.427996 24.097992 407.22 25.694 408.012004 27.290008 408.408 29.1439894 408.408 31.256 408.408 33.3920107 408.012004 35.2519921 407.22 36.836 406.427996 38.4200079 405.390006 39.7459947 404.106 40.814 402.821994 41.8820053 401.382008 42.6799974 399.786 43.208 398.189992 43.7360026 396.600008 44 395.016 44L386.556 44 386.556 18.512zM389.148 41.696L394.296 41.696C396.21601 41.696 397.889993 41.396003 399.318 40.796 400.746007 40.195997 401.927995 39.4100049 402.864 38.438 403.800005 37.4659951 404.501998 36.3560062 404.97 35.108 405.438002 33.8599938 405.672 32.5760066 405.672 31.256 405.672 29.9359934 405.438002 28.6520062 404.97 27.404 404.501998 26.1559938 403.800005 25.0460049 402.864 24.074 401.927995 23.1019951 400.746007 22.316003 399.318 21.716 397.889993 21.115997 396.21601 20.816 394.296 20.816L389.148 20.816 389.148 41.696zM427.524 41.156C426.803996 42.2360054 425.868006 43.0519972 424.716 43.604 423.563994 44.1560028 422.376006 44.432 421.152 44.432 419.831993 44.432 418.638005 44.2040023 417.57 43.748 416.501995 43.2919977 415.590004 42.668004 414.834 41.876 414.077996 41.083996 413.490002 40.1480054 413.07 39.068 412.649998 37.9879946 412.44 36.8240062 412.44 35.576 412.44 34.3279938 412.649998 33.1640054 413.07 32.084 413.490002 31.0039946 414.077996 30.068004 414.834 29.276 415.590004 28.483996 416.501995 27.8600023 417.57 27.404 418.638005 26.9479977 419.831993 26.72 421.152 26.72 422.376006 26.72 423.563994 27.0019972 424.716 27.566 425.868006 28.1300028 426.803996 28.9639945 427.524 30.068L427.596 30.068 427.596 16.784 430.044 16.784 430.044 44 427.596 44 427.596 41.156 427.524 41.156zM415.032 35.576C415.032 36.5120047 415.175999 37.3939959 415.464 38.222 415.752001 39.0500041 416.165997 39.7699969 416.706 40.382 417.246003 40.9940031 417.911996 41.4739983 418.704 41.822 419.496004 42.1700017 420.395995 42.344 421.404 42.344 422.340005 42.344 423.203996 42.1700017 423.996 41.822 424.788004 41.4739983 425.471997 41.000003 426.048 40.4 426.624003 39.799997 427.073998 39.0860041 427.398 38.258 427.722002 37.4299959 427.884 36.5360048 427.884 35.576 427.884 34.6159952 427.722002 33.7220041 427.398 32.894 427.073998 32.0659959 426.624003 31.3460031 426.048 30.734 425.471997 30.1219969 424.788004 29.6420017 423.996 29.294 423.203996 28.9459983 422.340005 28.772 421.404 28.772 420.395995 28.772 419.496004 28.9519982 418.704 29.312 417.911996 29.6720018 417.246003 30.1579969 416.706 30.77 416.165997 31.3820031 415.752001 32.1019959 415.464 32.93 415.175999 33.7580041 415.032 34.6399953 415.032 35.576zM448.332 41.696L461.976 41.696 461.976 44 445.74 44 445.74 18.512 461.544 18.512 461.544 20.816 448.332 20.816 448.332 29.6 460.68 29.6 460.68 31.868 448.332 31.868 448.332 41.696zM479.76 34.28C479.688 32.6959921 479.178005 31.3820052 478.23 30.338 477.281995 29.2939948 475.932009 28.772 474.18 28.772 473.363996 28.772 472.608003 28.9219985 471.912 29.222 471.215997 29.5220015 470.604003 29.9299974 470.076 30.446 469.547997 30.9620026 469.128002 31.5499967 468.816 32.21 468.503998 32.8700033 468.324 33.5599964 468.276 34.28L479.76 34.28zM482.244 35.072L482.244 35.612C482.244 35.804001 482.232 36.0079989 482.208 36.224L468.24 36.224C468.264 37.0640042 468.431998 37.8559963 468.744 38.6 469.056002 39.3440037 469.487997 39.9919972 470.04 40.544 470.592003 41.0960028 471.239996 41.5339984 471.984 41.858 472.728004 42.1820016 473.531996 42.344 474.396 42.344 475.668006 42.344 476.765995 42.0500029 477.69 41.462 478.614005 40.8739971 479.315998 40.1960038 479.796 39.428L481.632 40.868C480.623995 42.1400064 479.514006 43.0519972 478.302 43.604 477.089994 44.1560028 475.788007 44.432 474.396 44.432 473.147994 44.432 471.990005 44.2100022 470.922 43.766 469.853995 43.3219978 468.936004 42.704004 468.168 41.912 467.399996 41.119996 466.794002 40.1840054 466.35 39.104 465.905998 38.0239946 465.684 36.8480064 465.684 35.576 465.684 34.3039936 465.899998 33.1280054 466.332 32.048 466.764002 30.9679946 467.363996 30.032004 468.132 29.24 468.900004 28.447996 469.799995 27.8300022 470.832 27.386 471.864005 26.9419978 472.979994 26.72 474.18 26.72 475.500007 26.72 476.663995 26.9419978 477.672 27.386 478.680005 27.8300022 479.519997 28.4299962 480.192 29.186 480.864003 29.9420038 481.373998 30.823995 481.722 31.832 482.070002 32.840005 482.244 33.9199942 482.244 35.072zM499.236 44L496.644 44 496.644 18.512 512.016 18.512 512.016 20.816 499.236 20.816 499.236 29.672 511.116 29.672 511.116 31.94 499.236 31.94 499.236 44zM523.86 29.204L519.9 29.204 519.9 44 517.452 44 517.452 29.204 513.924 29.204 513.924 27.152 517.452 27.152 517.452 22.544C517.452 20.6239904 517.919995 19.1120055 518.856 18.008 519.792005 16.9039945 521.23199 16.352 523.176 16.352 523.488002 16.352 523.823998 16.3699998 524.184 16.406 524.544002 16.4420002 524.879998 16.5079995 525.192 16.604L524.76 18.764C524.495999 18.6919996 524.232001 18.6320002 523.968 18.584 523.703999 18.5359998 523.404002 18.512 523.068 18.512 522.419997 18.512 521.886002 18.6199989 521.466 18.836 521.045998 19.0520011 520.722001 19.357998 520.494 19.754 520.265999 20.150002 520.11 20.6119974 520.026 21.14 519.942 21.6680026 519.9 22.231997 519.9 22.832L519.9 27.152 523.86 27.152 523.86 29.204zM555.828 23.084C554.939996 22.1479953 553.884006 21.4220026 552.66 20.906 551.435994 20.3899974 550.032008 20.132 548.448 20.132 546.815992 20.132 545.346007 20.431997 544.038 21.032 542.729993 21.632003 541.620005 22.4419949 540.708 23.462 539.795995 24.4820051 539.094002 25.6639933 538.602 27.008 538.109998 28.3520067 537.864 29.7679926 537.864 31.256 537.864 32.7440074 538.109998 34.1599933 538.602 35.504 539.094002 36.8480067 539.795995 38.023995 540.708 39.032 541.620005 40.040005 542.729993 40.843997 544.038 41.444 545.346007 42.044003 546.815992 42.344 548.448 42.344 549.888007 42.344 551.207994 42.1880016 552.408 41.876 553.608006 41.5639984 554.579996 41.1680024 555.324 40.688L555.324 32.948 549.384 32.948 549.384 30.68 557.916 30.68 557.916 42.164C556.523993 43.0040042 555.024008 43.627998 553.416 44.036 551.807992 44.444002 550.140009 44.648 548.412 44.648 546.49199 44.648 544.716008 44.3120034 543.084 43.64 541.451992 42.9679966 540.048006 42.0380059 538.872 40.85 537.695994 39.6619941 536.778003 38.2520082 536.118 36.62 535.457997 34.9879918 535.128 33.2000097 535.128 31.256 535.128 29.3119903 535.463997 27.5240082 536.136 25.892 536.808003 24.2599918 537.737994 22.8500059 538.926 21.662 540.114006 20.4739941 541.517992 19.5440034 543.138 18.872 544.758008 18.1999966 546.515991 17.864 548.412 17.864 550.45201 17.864 552.227992 18.163997 553.74 18.764 555.252008 19.364003 556.547995 20.2039946 557.628 21.284L555.828 23.084zM565.296 47.384C565.968003 48.2480043 566.885994 48.979997 568.05 49.58 569.214006 50.180003 570.443994 50.48 571.74 50.48 572.940006 50.48 573.959996 50.3060017 574.8 49.958 575.640004 49.6099983 576.317997 49.136003 576.834 48.536 577.350003 47.935997 577.727999 47.234004 577.968 46.43 578.208001 45.625996 578.328 44.7680046 578.328 43.856L578.328 40.688 578.256 40.688C577.607997 41.7440053 576.690006 42.5599971 575.502 43.136 574.313994 43.7120029 573.108006 44 571.884 44 570.563993 44 569.370005 43.7840022 568.302 43.352 567.233995 42.9199978 566.322004 42.3260038 565.566 41.57 564.809996 40.8139962 564.222002 39.9080053 563.802 38.852 563.381998 37.7959947 563.172 36.6560061 563.172 35.432 563.172 34.231994 563.381998 33.1040053 563.802 32.048 564.222002 30.9919947 564.809996 30.068004 565.566 29.276 566.322004 28.483996 567.233995 27.8600023 568.302 27.404 569.370005 26.9479977 570.563993 26.72 571.884 26.72 573.108006 26.72 574.307994 27.0079971 575.484 27.584 576.660006 28.1600029 577.583997 28.9879946 578.256 30.068L578.328 30.068 578.328 27.152 580.776 27.152 580.776 43.856C580.776 44.7680046 580.650001 45.7399948 580.398 46.772 580.145999 47.8040052 579.678003 48.7519957 578.994 49.616 578.309997 50.4800043 577.380006 51.1999971 576.204 51.776 575.027994 52.3520029 573.504009 52.64 571.632 52.64 570.071992 52.64 568.584007 52.340003 567.168 51.74 565.751993 51.139997 564.540005 50.3120053 563.532 49.256L565.296 47.384zM565.764 35.36C565.764 36.2480044 565.907999 37.087996 566.196 37.88 566.484001 38.672004 566.897997 39.367997 567.438 39.968 567.978003 40.568003 568.643996 41.0419983 569.436 41.39 570.228004 41.7380017 571.127995 41.912 572.136 41.912 573.072005 41.912 573.935996 41.7560016 574.728 41.444 575.520004 41.1319984 576.203997 40.6880029 576.78 40.112 577.356003 39.5359971 577.805998 38.846004 578.13 38.042 578.454002 37.237996 578.616 36.3440049 578.616 35.36 578.616 34.4719956 578.454002 33.632004 578.13 32.84 577.805998 32.047996 577.356003 31.352003 576.78 30.752 576.203997 30.151997 575.520004 29.6720018 574.728 29.312 573.935996 28.9519982 573.072005 28.772 572.136 28.772 571.127995 28.772 570.228004 28.9519982 569.436 29.312 568.643996 29.6720018 567.978003 30.151997 567.438 30.752 566.897997 31.352003 566.484001 32.047996 566.196 32.84 565.907999 33.632004 565.764 34.4719956 565.764 35.36zM225.384 83.512L227.976 83.512 227.976 94.564 241.872 94.564 241.872 83.512 244.464 83.512 244.464 109 241.872 109 241.872 96.94 227.976 96.94 227.976 109 225.384 109 225.384 83.512zM253.68 94.924C254.136002 93.9399951 254.891995 93.1600029 255.948 92.584 257.004005 92.0079971 258.131994 91.72 259.332 91.72 261.468011 91.72 263.069995 92.3559936 264.138 93.628 265.206005 94.9000064 265.74 96.5799896 265.74 98.668L265.74 109 263.292 109 263.292 99.676C263.292 98.7879956 263.220001 97.9840036 263.076 97.264 262.931999 96.5439964 262.686002 95.9260026 262.338 95.41 261.989998 94.8939974 261.522003 94.4920014 260.934 94.204 260.345997 93.9159986 259.608004 93.772 258.72 93.772 258.071997 93.772 257.442003 93.9039987 256.83 94.168 256.217997 94.4320013 255.672002 94.8339973 255.192 95.374 254.711998 95.9140027 254.328001 96.5979959 254.04 97.426 253.751999 98.2540041 253.608 99.2319944 253.608 100.36L253.608 109 251.16 109 251.16 81.784 253.608 81.784 253.608 94.924 253.68 94.924zM283.812 109L281.22 109 281.22 83.512 283.812 83.512 283.812 109zM292.92 109L290.472 109 290.472 92.152 292.92 92.152 292.92 109zM293.424 85.672C293.424 86.1760025 293.244002 86.5899984 292.884 86.914 292.523998 87.2380016 292.128002 87.4 291.696 87.4 291.263998 87.4 290.868002 87.2380016 290.508 86.914 290.147998 86.5899984 289.968 86.1760025 289.968 85.672 289.968 85.1679975 290.147998 84.7540016 290.508 84.43 290.868002 84.1059984 291.263998 83.944 291.696 83.944 292.128002 83.944 292.523998 84.1059984 292.884 84.43 293.244002 84.7540016 293.424 85.1679975 293.424 85.672zM308.508 103.816C308.700001 104.824005 309.149996 105.669997 309.858 106.354 310.566004 107.038003 311.495994 107.38 312.648 107.38 313.536004 107.38 314.267997 107.218002 314.844 106.894 315.420003 106.569998 315.881998 106.132003 316.23 105.58 316.578002 105.027997 316.817999 104.398004 316.95 103.69 317.082001 102.981996 317.148 102.244004 317.148 101.476L317.148 83.512 319.74 83.512 319.74 101.656C319.74 102.496004 319.650001 103.383995 319.47 104.32 319.289999 105.256005 318.948003 106.119996 318.444 106.912 317.939997 107.704004 317.244004 108.357997 316.356 108.874 315.467996 109.390003 314.328007 109.648 312.936 109.648 311.087991 109.648 309.564006 109.162005 308.364 108.19 307.163994 107.217995 306.408002 105.976008 306.096 104.464L308.508 103.816zM322.296 115.336C322.536001 115.408 322.793999 115.462 323.07 115.498 323.346001 115.534 323.603999 115.552 323.844 115.552 324.348003 115.552 324.755998 115.462001 325.068 115.282 325.380002 115.101999 325.619999 114.856002 325.788 114.544 325.956001 114.231998 326.07 113.854002 326.13 113.41 326.19 112.965998 326.22 112.480003 326.22 111.952L326.22 92.152 328.668 92.152 328.668 112.348C328.668 113.020003 328.596001 113.673997 328.452 114.31 328.307999 114.946003 328.056002 115.509998 327.696 116.002 327.335998 116.494002 326.850003 116.889999 326.238 117.19 325.625997 117.490001 324.840005 117.64 323.88 117.64 323.615999 117.64 323.304002 117.622 322.944 117.586 322.583998 117.55 322.248002 117.484 321.936 117.388L322.296 115.336zM329.172 85.672C329.172 86.1760025 328.992002 86.5899984 328.632 86.914 328.271998 87.2380016 327.876002 87.4 327.444 87.4 327.011998 87.4 326.616002 87.2380016 326.256 86.914 325.895998 86.5899984 325.716 86.1760025 325.716 85.672 325.716 85.1679975 325.895998 84.7540016 326.256 84.43 326.616002 84.1059984 327.011998 83.944 327.444 83.944 327.876002 83.944 328.271998 84.1059984 328.632 84.43 328.992002 84.7540016 329.172 85.1679975 329.172 85.672zM346.92 94.96L346.956 94.96 359.088 83.512 362.796 83.512 349.944 95.068 363.516 109 359.7 109 346.956 95.428 346.92 95.428 346.92 109 344.328 109 344.328 83.512 346.92 83.512 346.92 94.96zM369.312 99.748L369.42 99.748 377.196 92.152 380.724 92.152 372.228 99.856 381.588 109 377.988 109 369.42 100.144 369.312 100.144 369.312 109 366.864 109 366.864 81.784 369.312 81.784 369.312 99.748zM396.888 106.696L408.768 106.696 408.768 109 394.296 109 394.296 83.512 396.888 83.512 396.888 106.696zM415.032 109L412.584 109 412.584 81.784 415.032 81.784 415.032 109zM443.328 104.608L443.364 104.608 451.896 83.512 455.856 83.512 455.856 109 453.264 109 453.264 86.86 453.192 86.86 443.976 109 442.608 109 433.392 86.86 433.32 86.86 433.32 109 430.728 109 430.728 83.512 434.688 83.512 443.328 104.608zM464.892 95.032C465.372002 94.0479951 466.109995 93.2500031 467.106 92.638 468.102005 92.0259969 469.211994 91.72 470.436 91.72 470.892002 91.72 471.365998 91.7679995 471.858 91.864 472.350002 91.9600005 472.829998 92.1459986 473.298 92.422 473.766002 92.6980014 474.197998 93.0639977 474.594 93.52 474.990002 93.9760023 475.331999 94.5639964 475.62 95.284 476.196003 94.1319942 476.981995 93.2500031 477.978 92.638 478.974005 92.0259969 480.155993 91.72 481.524 91.72 483.660011 91.72 485.261995 92.3559936 486.33 93.628 487.398005 94.9000064 487.932 96.5799896 487.932 98.668L487.932 109 485.484 109 485.484 99.676C485.484 97.8999911 485.154003 96.4720054 484.494 95.392 483.833997 94.3119946 482.712008 93.772 481.128 93.772 480.239996 93.772 479.490003 93.9519982 478.878 94.312 478.265997 94.6720018 477.774002 95.1459971 477.402 95.734 477.029998 96.3220029 476.760001 96.9879963 476.592 97.732 476.423999 98.4760037 476.34 99.243996 476.34 100.036L476.34 109 473.892 109 473.892 99.172C473.892 98.3559959 473.832001 97.6120034 473.712 96.94 473.591999 96.2679966 473.382002 95.6980023 473.082 95.23 472.781999 94.7619977 472.368003 94.4020013 471.84 94.15 471.311997 93.8979987 470.640004 93.772 469.824 93.772 469.247997 93.772 468.666003 93.9039987 468.078 94.168 467.489997 94.4320013 466.962002 94.8339973 466.494 95.374 466.025998 95.9140027 465.648001 96.5979959 465.36 97.426 465.071999 98.2540041 464.928 99.2319944 464.928 100.36L464.928 109 462.48 109 462.48 95.86C462.48 95.4039977 462.468 94.8160036 462.444 94.096 462.42 93.3759964 462.384 92.7280029 462.336 92.152L464.676 92.152C464.724 92.6080023 464.76 93.1119972 464.784 93.664 464.808 94.2160028 464.82 94.6719982 464.82 95.032L464.892 95.032zM521.484 105.22L521.556 105.22 521.556 83.512 524.148 83.512 524.148 109 520.908 109 506.076 87.076 506.004 87.076 506.004 109 503.412 109 503.412 83.512 506.652 83.512 521.484 105.22zM532.968 92.152C533.016 92.6080023 533.052 93.1119972 533.076 93.664 533.1 94.2160028 533.112 94.6719982 533.112 95.032L533.184 95.032C533.664002 94.0479951 534.443995 93.2500031 535.524 92.638 536.604005 92.0259969 537.743994 91.72 538.944 91.72 541.080011 91.72 542.681995 92.3559936 543.75 93.628 544.818005 94.9000064 545.352 96.5799896 545.352 98.668L545.352 109 542.904 109 542.904 99.676C542.904 98.7879956 542.832001 97.9840036 542.688 97.264 542.543999 96.5439964 542.298002 95.9260026 541.95 95.41 541.601998 94.8939974 541.134003 94.4920014 540.546 94.204 539.957997 93.9159986 539.220004 93.772 538.332 93.772 537.683997 93.772 537.054003 93.9039987 536.442 94.168 535.829997 94.4320013 535.284002 94.8339973 534.804 95.374 534.323998 95.9140027 533.940001 96.5979959 533.652 97.426 533.363999 98.2540041 533.22 99.2319944 533.22 100.36L533.22 109 530.772 109 530.772 95.86C530.772 95.4039977 530.76 94.8160036 530.736 94.096 530.712 93.3759964 530.676 92.7280029 530.628 92.152L532.968 92.152zM250.584 161.256C250.584 163.20001 250.248003 164.987992 249.576 166.62 248.903997 168.252008 247.974006 169.661994 246.786 170.85 245.597994 172.038006 244.194008 172.967997 242.574 173.64 240.953992 174.312003 239.196009 174.648 237.3 174.648 235.403991 174.648 233.646008 174.312003 232.026 173.64 230.405992 172.967997 229.002006 172.038006 227.814 170.85 226.625994 169.661994 225.696003 168.252008 225.024 166.62 224.351997 164.987992 224.016 163.20001 224.016 161.256 224.016 159.31199 224.351997 157.524008 225.024 155.892 225.696003 154.259992 226.625994 152.850006 227.814 151.662 229.002006 150.473994 230.405992 149.544003 232.026 148.872 233.646008 148.199997 235.403991 147.864 237.3 147.864 239.196009 147.864 240.953992 148.199997 242.574 148.872 244.194008 149.544003 245.597994 150.473994 246.786 151.662 247.974006 152.850006 248.903997 154.259992 249.576 155.892 250.248003 157.524008 250.584 159.31199 250.584 161.256zM247.848 161.256C247.848 159.767993 247.608002 158.352007 247.128 157.008 246.647998 155.663993 245.952005 154.482005 245.04 153.462 244.127995 152.441995 243.018007 151.632003 241.71 151.032 240.401993 150.431997 238.932008 150.132 237.3 150.132 235.667992 150.132 234.198007 150.431997 232.89 151.032 231.581993 151.632003 230.472005 152.441995 229.56 153.462 228.647995 154.482005 227.952002 155.663993 227.472 157.008 226.991998 158.352007 226.752 159.767993 226.752 161.256 226.752 162.744007 226.991998 164.159993 227.472 165.504 227.952002 166.848007 228.647995 168.023995 229.56 169.032 230.472005 170.040005 231.581993 170.843997 232.89 171.444 234.198007 172.044003 235.667992 172.344 237.3 172.344 238.932008 172.344 240.401993 172.044003 241.71 171.444 243.018007 170.843997 244.127995 170.040005 245.04 169.032 245.952005 168.023995 246.647998 166.848007 247.128 165.504 247.608002 164.159993 247.848 162.744007 247.848 161.256zM272.58 165.576C272.58 166.848006 272.358002 168.023995 271.914 169.104 271.469998 170.184005 270.852004 171.119996 270.06 171.912 269.267996 172.704004 268.320006 173.321998 267.216 173.766 266.111994 174.210002 264.900007 174.432 263.58 174.432 262.283994 174.432 261.084006 174.210002 259.98 173.766 258.875994 173.321998 257.928004 172.704004 257.136 171.912 256.343996 171.119996 255.726002 170.184005 255.282 169.104 254.837998 168.023995 254.616 166.848006 254.616 165.576 254.616 164.303994 254.837998 163.128005 255.282 162.048 255.726002 160.967995 256.343996 160.032004 257.136 159.24 257.928004 158.447996 258.875994 157.830002 259.98 157.386 261.084006 156.941998 262.283994 156.72 263.58 156.72 264.900007 156.72 266.111994 156.941998 267.216 157.386 268.320006 157.830002 269.267996 158.447996 270.06 159.24 270.852004 160.032004 271.469998 160.967995 271.914 162.048 272.358002 163.128005 272.58 164.303994 272.58 165.576zM269.988 165.576C269.988 164.639995 269.838002 163.758004 269.538 162.93 269.237999 162.101996 268.812003 161.382003 268.26 160.77 267.707997 160.157997 267.036004 159.672002 266.244 159.312 265.451996 158.951998 264.564005 158.772 263.58 158.772 262.595995 158.772 261.714004 158.951998 260.934 159.312 260.153996 159.672002 259.488003 160.157997 258.936 160.77 258.383997 161.382003 257.958002 162.101996 257.658 162.93 257.357999 163.758004 257.208 164.639995 257.208 165.576 257.208 166.512005 257.357999 167.393996 257.658 168.222 257.958002 169.050004 258.383997 169.769997 258.936 170.382 259.488003 170.994003 260.153996 171.473998 260.934 171.822 261.714004 172.170002 262.595995 172.344 263.58 172.344 264.564005 172.344 265.451996 172.170002 266.244 171.822 267.036004 171.473998 267.707997 170.994003 268.26 170.382 268.812003 169.769997 269.237999 169.050004 269.538 168.222 269.838002 167.393996 269.988 166.512005 269.988 165.576zM286.98 148.512L294.18 148.512C295.476006 148.512 296.651995 148.649999 297.708 148.926 298.764005 149.202001 299.669996 149.621997 300.426 150.186 301.182004 150.750003 301.763998 151.457996 302.172 152.31 302.580002 153.162004 302.784 154.163994 302.784 155.316 302.784 156.468006 302.574002 157.469996 302.154 158.322 301.733998 159.174004 301.146004 159.881997 300.39 160.446 299.633996 161.010003 298.722005 161.435999 297.654 161.724 296.585995 162.012001 295.404006 162.156 294.108 162.156L289.572 162.156 289.572 174 286.98 174 286.98 148.512zM289.572 159.96L293.964 159.96C296.00401 159.96 297.551995 159.564004 298.608 158.772 299.664005 157.979996 300.192 156.828008 300.192 155.316 300.192 153.731992 299.646005 152.574004 298.554 151.842 297.461995 151.109996 295.93201 150.744 293.964 150.744L289.572 150.744 289.572 159.96zM310.164 182.64L307.716 182.64 307.716 157.152 310.164 157.152 310.164 160.068 310.272 160.068C310.968003 158.963994 311.897994 158.130003 313.062 157.566 314.226006 157.001997 315.407994 156.72 316.608 156.72 317.928007 156.72 319.121995 156.947998 320.19 157.404 321.258005 157.860002 322.169996 158.483996 322.926 159.276 323.682004 160.068004 324.269998 161.003995 324.69 162.084 325.110002 163.164005 325.32 164.327994 325.32 165.576 325.32 166.824006 325.110002 167.987995 324.69 169.068 324.269998 170.148005 323.682004 171.083996 322.926 171.876 322.169996 172.668004 321.258005 173.291998 320.19 173.748 319.121995 174.204002 317.928007 174.432 316.608 174.432 315.407994 174.432 314.226006 174.150003 313.062 173.586 311.897994 173.021997 310.968003 172.212005 310.272 171.156L310.164 171.156 310.164 182.64zM322.728 165.576C322.728 164.639995 322.584001 163.758004 322.296 162.93 322.007999 162.101996 321.594003 161.382003 321.054 160.77 320.513997 160.157997 319.848004 159.672002 319.056 159.312 318.263996 158.951998 317.364005 158.772 316.356 158.772 315.419995 158.772 314.556004 158.945998 313.764 159.294 312.971996 159.642002 312.288003 160.121997 311.712 160.734 311.135997 161.346003 310.686002 162.065996 310.362 162.894 310.037998 163.722004 309.876 164.615995 309.876 165.576 309.876 166.536005 310.037998 167.429996 310.362 168.258 310.686002 169.086004 311.135997 169.799997 311.712 170.4 312.288003 171.000003 312.971996 171.473998 313.764 171.822 314.556004 172.170002 315.419995 172.344 316.356 172.344 317.364005 172.344 318.263996 172.170002 319.056 171.822 319.848004 171.473998 320.513997 170.994003 321.054 170.382 321.594003 169.769997 322.007999 169.050004 322.296 168.222 322.584001 167.393996 322.728 166.512005 322.728 165.576zM341.088 160.932C341.088 162.372007 341.321998 163.739994 341.79 165.036 342.258002 166.332006 342.923996 167.477995 343.788 168.474 344.652004 169.470005 345.713994 170.261997 346.974 170.85 348.234006 171.438003 349.655992 171.732 351.24 171.732 352.800008 171.732 354.209994 171.438003 355.47 170.85 356.730006 170.261997 357.797996 169.470005 358.674 168.474 359.550004 167.477995 360.227998 166.332006 360.708 165.036 361.188002 163.739994 361.428 162.372007 361.428 160.932 361.428 159.491993 361.188002 158.124006 360.708 156.828 360.227998 155.531994 359.550004 154.386005 358.674 153.39 357.797996 152.393995 356.730006 151.602003 355.47 151.014 354.209994 150.425997 352.800008 150.132 351.24 150.132 349.655992 150.132 348.234006 150.425997 346.974 151.014 345.713994 151.602003 344.652004 152.393995 343.788 153.39 342.923996 154.386005 342.258002 155.531994 341.79 156.828 341.321998 158.124006 341.088 159.491993 341.088 160.932zM365.82 174L351.24 174C349.391991 174 347.682008 173.676003 346.11 173.028 344.537992 172.379997 343.176006 171.474006 342.024 170.31 340.871994 169.145994 339.972003 167.766008 339.324 166.17 338.675997 164.573992 338.352 162.828009 338.352 160.932 338.352 159.035991 338.675997 157.290008 339.324 155.694 339.972003 154.097992 340.871994 152.718006 342.024 151.554 343.176006 150.389994 344.537992 149.484003 346.11 148.836 347.682008 148.187997 349.391991 147.864 351.24 147.864 353.064009 147.864 354.761992 148.187997 356.334 148.836 357.906008 149.484003 359.267994 150.389994 360.42 151.554 361.572006 152.718006 362.471997 154.097992 363.12 155.694 363.768003 157.290008 364.092 159.035991 364.092 160.932 364.092 163.188011 363.594005 165.245991 362.598 167.106 361.601995 168.966009 360.10801 170.471994 358.116 171.624L358.116 171.696 365.82 171.696 365.82 174zM383.748 171.156C383.051997 172.212005 382.122006 173.021997 380.958 173.586 379.793994 174.150003 378.612006 174.432 377.412 174.432 376.091993 174.432 374.898005 174.204002 373.83 173.748 372.761995 173.291998 371.850004 172.668004 371.094 171.876 370.337996 171.083996 369.750002 170.148005 369.33 169.068 368.909998 167.987995 368.7 166.824006 368.7 165.576 368.7 164.327994 368.909998 163.164005 369.33 162.084 369.750002 161.003995 370.337996 160.068004 371.094 159.276 371.850004 158.483996 372.761995 157.860002 373.83 157.404 374.898005 156.947998 376.091993 156.72 377.412 156.72 378.612006 156.72 379.793994 157.001997 380.958 157.566 382.122006 158.130003 383.051997 158.963994 383.748 160.068L383.856 160.068 383.856 157.152 386.304 157.152 386.304 182.64 383.856 182.64 383.856 171.156 383.748 171.156zM371.292 165.576C371.292 166.512005 371.435999 167.393996 371.724 168.222 372.012001 169.050004 372.425997 169.769997 372.966 170.382 373.506003 170.994003 374.171996 171.473998 374.964 171.822 375.756004 172.170002 376.655995 172.344 377.664 172.344 378.600005 172.344 379.463996 172.170002 380.256 171.822 381.048004 171.473998 381.731997 171.000003 382.308 170.4 382.884003 169.799997 383.333998 169.086004 383.658 168.258 383.982002 167.429996 384.144 166.536005 384.144 165.576 384.144 164.615995 383.982002 163.722004 383.658 162.894 383.333998 162.065996 382.884003 161.346003 382.308 160.734 381.731997 160.121997 381.048004 159.642002 380.256 159.294 379.463996 158.945998 378.600005 158.772 377.664 158.772 376.655995 158.772 375.756004 158.951998 374.964 159.312 374.171996 159.672002 373.506003 160.157997 372.966 160.77 372.425997 161.382003 372.012001 162.101996 371.724 162.93 371.435999 163.758004 371.292 164.639995 371.292 165.576zM404.52 174L401.928 174 401.928 148.512 409.416 148.512C410.664006 148.512 411.821995 148.631999 412.89 148.872 413.958005 149.112001 414.881996 149.501997 415.662 150.042 416.442004 150.582003 417.047998 151.283996 417.48 152.148 417.912002 153.012004 418.128 154.067994 418.128 155.316 418.128 156.252005 417.960002 157.103996 417.624 157.872 417.287998 158.640004 416.832003 159.305997 416.256 159.87 415.679997 160.434003 414.996004 160.883998 414.204 161.22 413.411996 161.556002 412.548005 161.772 411.612 161.868L419.064 174 415.896 174 408.84 162.084 404.52 162.084 404.52 174zM404.52 159.852L409.02 159.852C411.10801 159.852 412.715994 159.474004 413.844 158.718 414.972006 157.961996 415.536 156.828008 415.536 155.316 415.536 154.475996 415.380002 153.768003 415.068 153.192 414.755998 152.615997 414.324003 152.148002 413.772 151.788 413.219997 151.427998 412.548004 151.164001 411.756 150.996 410.963996 150.827999 410.088005 150.744 409.128 150.744L404.52 150.744 404.52 159.852zM423.348 160.86C423.348 160.403998 423.336 159.816004 423.312 159.096 423.288 158.375996 423.252 157.728003 423.204 157.152L425.544 157.152C425.592 157.608002 425.628 158.111997 425.652 158.664 425.676 159.216003 425.688 159.671998 425.688 160.032L425.76 160.032C426.240002 159.047995 426.959995 158.250003 427.92 157.638 428.880005 157.025997 429.959994 156.72 431.16 156.72 431.472002 156.72 431.753999 156.732 432.006 156.756 432.258001 156.78 432.515999 156.828 432.78 156.9L432.456 159.204C432.311999 159.156 432.072002 159.108 431.736 159.06 431.399998 159.012 431.064002 158.988 430.728 158.988 430.079997 158.988 429.456003 159.107999 428.856 159.348 428.255997 159.588001 427.734002 159.965997 427.29 160.482 426.845998 160.998003 426.486001 161.657996 426.21 162.462 425.933999 163.266004 425.796 164.231994 425.796 165.36L425.796 174 423.348 174 423.348 160.86zM457.8 152.616C457.247997 151.847996 456.540004 151.230002 455.676 150.762 454.811996 150.293998 453.768006 150.06 452.544 150.06 451.919997 150.06 451.284003 150.155999 450.636 150.348 449.987997 150.540001 449.400003 150.833998 448.872 151.23 448.343997 151.626002 447.918002 152.123997 447.594 152.724 447.269998 153.324003 447.108 154.031996 447.108 154.848 447.108 155.664004 447.263998 156.335997 447.576 156.864 447.888002 157.392003 448.301997 157.841998 448.818 158.214 449.334003 158.586002 449.921997 158.891999 450.582 159.132 451.242003 159.372001 451.931996 159.611999 452.652 159.852 453.540004 160.140001 454.433996 160.451998 455.334 160.788 456.234005 161.124002 457.043996 161.561997 457.764 162.102 458.484004 162.642003 459.071998 163.325996 459.528 164.154 459.984002 164.982004 460.212 166.031994 460.212 167.304 460.212 168.576006 459.966002 169.673995 459.474 170.598 458.981998 171.522005 458.346004 172.283997 457.566 172.884 456.785996 173.484003 455.898005 173.927999 454.902 174.216 453.905995 174.504001 452.904005 174.648 451.896 174.648 451.127996 174.648 450.360004 174.570001 449.592 174.414 448.823996 174.257999 448.092003 174.024002 447.396 173.712 446.699997 173.399998 446.052003 173.004002 445.452 172.524 444.851997 172.043998 444.324002 171.492003 443.868 170.868L446.1 169.212C446.652003 170.124005 447.425995 170.885997 448.422 171.498 449.418005 172.110003 450.587993 172.416 451.932 172.416 452.580003 172.416 453.239997 172.314001 453.912 172.11 454.584003 171.905999 455.189997 171.594002 455.73 171.174 456.270003 170.753998 456.713998 170.238003 457.062 169.626 457.410002 169.013997 457.584 168.300004 457.584 167.484 457.584 166.595996 457.410002 165.858003 457.062 165.27 456.713998 164.681997 456.252003 164.190002 455.676 163.794 455.099997 163.397998 454.440004 163.068001 453.696 162.804 452.951996 162.539999 452.172004 162.276001 451.356 162.012 450.515996 161.747999 449.688004 161.448002 448.872 161.112 448.055996 160.775998 447.324003 160.338003 446.676 159.798 446.027997 159.257997 445.506002 158.592004 445.11 157.8 444.713998 157.007996 444.516 156.036006 444.516 154.884 444.516 153.659994 444.761998 152.604004 445.254 151.716 445.746002 150.827996 446.387996 150.096003 447.18 149.52 447.972004 148.943997 448.847995 148.524001 449.808 148.26 450.768005 147.995999 451.715995 147.864 452.652 147.864 454.380009 147.864 455.855994 148.169997 457.08 148.782 458.304006 149.394003 459.227997 150.119996 459.852 150.96L457.8 152.616zM474.576 161.148C474.215998 160.451997 473.670004 159.882002 472.938 159.438 472.205996 158.993998 471.372005 158.772 470.436 158.772 470.003998 158.772 469.572002 158.82 469.14 158.916 468.707998 159.012 468.324002 159.167999 467.988 159.384 467.651998 159.600001 467.382001 159.875998 467.178 160.212 466.973999 160.548002 466.872 160.943998 466.872 161.4 466.872 162.192004 467.195997 162.797998 467.844 163.218 468.492003 163.638002 469.511993 163.991999 470.904 164.28 472.89601 164.688002 474.365995 165.281996 475.314 166.062 476.262005 166.842004 476.736 167.891993 476.736 169.212 476.736 170.172005 476.550002 170.981997 476.178 171.642 475.805998 172.302003 475.320003 172.841998 474.72 173.262 474.119997 173.682002 473.442004 173.981999 472.686 174.162 471.929996 174.342001 471.168004 174.432 470.4 174.432 469.127994 174.432 467.892006 174.168003 466.692 173.64 465.491994 173.111997 464.508004 172.284006 463.74 171.156L465.684 169.716C466.116002 170.460004 466.751996 171.083997 467.592 171.588 468.432004 172.092003 469.355995 172.344 470.364 172.344 470.892003 172.344 471.395998 172.296 471.876 172.2 472.356002 172.104 472.775998 171.936001 473.136 171.696 473.496002 171.455999 473.783999 171.150002 474 170.778 474.216001 170.405998 474.324 169.944003 474.324 169.392 474.324 168.503996 473.898004 167.838002 473.046 167.394 472.193996 166.949998 470.964008 166.536002 469.356 166.152 468.851997 166.031999 468.318003 165.882001 467.754 165.702 467.189997 165.521999 466.668002 165.258002 466.188 164.91 465.707998 164.561998 465.312002 164.124003 465 163.596 464.687998 163.067997 464.532 162.408004 464.532 161.616 464.532 160.751996 464.699998 160.014003 465.036 159.402 465.372002 158.789997 465.821997 158.286002 466.386 157.89 466.950003 157.493998 467.591996 157.200001 468.312 157.008 469.032004 156.815999 469.775996 156.72 470.544 156.72 471.720006 156.72 472.859994 156.983997 473.964 157.512 475.068006 158.040003 475.895997 158.783995 476.448 159.744L474.576 161.148zM498.912 174L496.32 174 496.32 150.816 487.788 150.816 487.788 148.512 507.444 148.512 507.444 150.816 498.912 150.816 498.912 174zM518.712 159.204L513.96 159.204 513.96 169.032C513.96 169.656003 514.019999 170.171998 514.14 170.58 514.260001 170.988002 514.433999 171.305999 514.662 171.534 514.890001 171.762001 515.159998 171.918 515.472 172.002 515.784002 172.086 516.119998 172.128 516.48 172.128 516.816002 172.128 517.169998 172.08 517.542 171.984 517.914002 171.888 518.267998 171.756001 518.604 171.588L518.712 173.712C518.279998 173.880001 517.830002 174.006 517.362 174.09 516.893998 174.174 516.384003 174.216 515.832 174.216 515.375998 174.216 514.896003 174.156001 514.392 174.036 513.887997 173.915999 513.420002 173.688002 512.988 173.352 512.555998 173.015998 512.202001 172.560003 511.926 171.984 511.649999 171.407997 511.512 170.652005 511.512 169.716L511.512 159.204 508.02 159.204 508.02 157.152 511.512 157.152 511.512 152.4 513.96 152.4 513.96 157.152 518.712 157.152 518.712 159.204zM541.068 174.648C539.14799 174.648 537.576006 174.318003 536.352 173.658 535.127994 172.997997 534.156004 172.164005 533.436 171.156 532.715996 170.147995 532.218001 169.050006 531.942 167.862 531.665999 166.673994 531.528 165.552005 531.528 164.496L531.528 148.512 534.12 148.512 534.12 164.208C534.12 165.240005 534.239999 166.241995 534.48 167.214 534.720001 168.186005 535.109997 169.049996 535.65 169.806 536.190003 170.562004 536.903996 171.173998 537.792 171.642 538.680004 172.110002 539.771994 172.344 541.068 172.344 542.364006 172.344 543.455996 172.110002 544.344 171.642 545.232004 171.173998 545.945997 170.562004 546.486 169.806 547.026003 169.049996 547.415999 168.186005 547.656 167.214 547.896001 166.241995 548.016 165.240005 548.016 164.208L548.016 148.512 550.608 148.512 550.608 164.496C550.608 165.552005 550.470001 166.673994 550.194 167.862 549.917999 169.050006 549.420004 170.147995 548.7 171.156 547.979996 172.164005 547.002006 172.997997 545.766 173.658 544.529994 174.318003 542.964009 174.648 541.068 174.648zM569.328 174C569.28 173.543998 569.244 173.040003 569.22 172.488 569.196 171.935997 569.184 171.480002 569.184 171.12L569.112 171.12C568.631998 172.104005 567.852005 172.901997 566.772 173.514 565.691995 174.126003 564.552006 174.432 563.352 174.432 561.215989 174.432 559.614005 173.796006 558.546 172.524 557.477995 171.251994 556.944 169.57201 556.944 167.484L556.944 157.152 559.392 157.152 559.392 166.476C559.392 167.364004 559.463999 168.167996 559.608 168.888 559.752001 169.608004 559.997998 170.225997 560.346 170.742 560.694002 171.258003 561.161997 171.659999 561.75 171.948 562.338003 172.236001 563.075996 172.38 563.964 172.38 564.612003 172.38 565.241997 172.248001 565.854 171.984 566.466003 171.719999 567.011998 171.318003 567.492 170.778 567.972002 170.237997 568.355999 169.554004 568.644 168.726 568.932001 167.897996 569.076 166.920006 569.076 165.792L569.076 157.152 571.524 157.152 571.524 170.292C571.524 170.748002 571.536 171.335996 571.56 172.056 571.584 172.776004 571.62 173.423997 571.668 174L569.328 174zM233.196 235.652L233.268 235.652 241.548 213.512 244.32 213.512 234.564 239 231.828 239 222.108 213.512 224.916 213.512 233.196 235.652zM254.58 239L251.88 239 245.004 222.152 247.74 222.152 253.212 236.408 253.284 236.408 258.792 222.152 261.42 222.152 254.58 239zM280.536 235.436L280.608 235.436 286.98 213.512 290.076 213.512 296.448 235.436 296.52 235.436 302.748 213.512 305.484 213.512 297.96 239 294.936 239 288.528 217.112 288.456 217.112 282.048 239 279.024 239 271.5 213.512 274.236 213.512 280.536 235.436zM309.552 222.152L313.62 235.832 313.692 235.832 318.228 222.152 320.604 222.152 325.212 235.832 325.284 235.832 329.316 222.152 331.908 222.152 326.58 239 323.916 239 319.416 225.356 319.344 225.356 314.916 239 312.252 239 306.924 222.152 309.552 222.152zM353.58 223.808L360.528 213.512 363.624 213.512 355.164 225.644 364.524 239 361.284 239 353.508 227.516 345.768 239 342.528 239 351.888 225.608 343.356 213.512 346.596 213.512 353.58 223.808zM372.408 230.288L366.18 222.152 369.312 222.152 373.92 228.56 378.528 222.152 381.48 222.152 375.36 230.18 382.056 239 378.888 239 373.884 231.98 368.736 239 365.784 239 372.408 230.288zM403.764 239L401.172 239 401.172 228.02 391.632 213.512 394.872 213.512 402.54 225.86 410.28 213.512 413.304 213.512 403.764 228.02 403.764 239zM422.34 236.372L422.412 236.372 427.632 222.152 430.296 222.152 421.908 243.356C421.403997 244.652006 420.762004 245.689996 419.982 246.47 419.201996 247.250004 418.080007 247.64 416.616 247.64 415.871996 247.64 415.140004 247.568001 414.42 247.424L414.672 245.192C415.248003 245.384001 415.847997 245.48 416.472 245.48 417.312004 245.48 417.971998 245.222003 418.452 244.706 418.932002 244.189997 419.351998 243.452005 419.712 242.492L421.08 238.964 413.88 222.152 416.616 222.152 422.34 236.372zM459.132 215.672L444.264 236.696 459.348 236.696 459.348 239 440.988 239 440.988 236.84 455.892 215.816 441.384 215.816 441.384 213.512 459.132 213.512 459.132 215.672zM474.9 223.88L464.82 236.876 475.26 236.876 475.26 239 461.58 239 461.58 237.272 471.624 224.204 462.084 224.204 462.084 222.152 474.9 222.152 474.9 223.88z"/>
  </g>
</svg>
