<svg xmlns="http://www.w3.org/2000/svg" width="350" height="78"><g fill="#FFF" fill-rule="evenodd"><path d="M70.852 3.194a2.066 2.066 0 0 1 1.996-1.987h4.204a2.06 2.06 0 0 1 1.997 1.987v69.272a2.06 2.06 0 0 1-1.997 1.987h-4.204a2.066 2.066 0 0 1-1.996-1.987V3.194zm24.92 60.27c.528-.618 1.05-1.361 1.579-1.986 1.05-1.362 2.207-2.198 3.681-.941.734.619 8.408 7.954 17.768 7.954 8.513 0 14.086-5.336 14.086-11.514 0-7.218-6.306-11.508-18.396-16.535-11.567-5.02-18.501-9.731-18.501-21.666 0-7.113 5.678-18.627 22.388-18.627a34.492 34.492 0 0 1 17.973 5.336c.621.315 1.865 1.572.621 3.56-.422.618-.84 1.361-1.243 1.986-.946 1.468-1.997 1.858-3.682.941-.734-.42-7.357-4.816-13.769-4.816-11.144 0-14.508 7.113-14.508 11.514 0 7.014 5.36 11.094 14.191 14.752 14.192 5.758 23.34 11.094 23.34 23.233 0 10.883-10.41 18.838-22.705 18.838-12.407 0-20.815-7.218-22.183-8.475-.859-.724-1.885-1.56-.64-3.553zm60.745-59.75a2.47 2.47 0 0 1 .729-1.788 2.494 2.494 0 0 1 1.796-.725h3.048a2.55 2.55 0 0 1 2.524 2.513V33.33l32.799-31.083a3.114 3.114 0 0 1 1.996-1.046h5.15c1.865 0 2.941 2.092 1.243 3.665l-33.221 30.872 34.826 35.477c.453.643.5 1.486.121 2.175a2.073 2.073 0 0 1-1.906 1.069h-5.373a2.887 2.887 0 0 1-1.866-.73l-33.769-35.063V71.94a2.55 2.55 0 0 1-2.524 2.513h-3.048a2.494 2.494 0 0 1-1.796-.725 2.47 2.47 0 0 1-.729-1.788V3.714zm-115.1 33.49c4.945-2.822 10.306-8.666 10.306-16.714 0-10.988-8.707-19.252-21.549-19.252H7.164c-1.102 0-1.996.89-1.996 1.987v32.68c0 .618.332 1.19.87 1.498l6.406 3.665c.263.15.561.229.864.229h16.885c8.196 0 15.03 5.441 15.03 12.87 0 7.428-5.36 13.068-12.804 13.284-.288.006-.57.083-.82.223l-9.858 5.64a.618.618 0 0 0 .311 1.157h9.043c13.563 0 22.916-8.474 22.916-20.2.025-9.638-7.021-14.77-12.593-17.066zm-11.243-3.156H13.06V8.425h17.133c8.084 0 12.612 5.02 12.612 12.555-.019 7.329-4.54 13.068-12.63 13.068z"/><path d="M.348 60.048V43.952a1.726 1.726 0 0 1 .869-1.49 1.742 1.742 0 0 1 1.73-.002l14.03 8.048 14.03 8.048c.537.308.867.878.867 1.495 0 .616-.33 1.186-.867 1.495l-14.03 8.047-14.03 8.048a1.742 1.742 0 0 1-1.73-.001 1.726 1.726 0 0 1-.869-1.491V60.048zm336.596-22.7c4.944-2.824 10.305-8.667 10.305-16.715 0-10.988-8.706-19.252-21.548-19.252h-23.01c-1.103 0-1.997.89-1.997 1.987v32.68c0 .618.332 1.19.871 1.497l6.406 3.665c.263.15.56.23.864.23h16.884c8.197 0 15.031 5.44 15.031 12.87 0 7.428-5.36 13.067-12.804 13.284-.288.005-.57.082-.821.223l-9.857 5.64a.618.618 0 0 0 .31 1.157h9.043c13.563 0 22.917-8.475 22.917-20.2.025-9.638-7.021-14.77-12.594-17.067zm-11.243-3.158h-17.115V8.568h17.133c8.085 0 12.612 5.02 12.612 12.554-.018 7.33-4.54 13.068-12.63 13.068z"/><path d="M295.833 59.923V43.828a1.726 1.726 0 0 1 .869-1.49 1.742 1.742 0 0 1 1.73-.002l14.03 8.047 14.03 8.048c.537.309.867.879.867 1.495 0 .617-.33 1.186-.866 1.495l-14.03 8.048-14.03 8.047a1.742 1.742 0 0 1-1.731-.001 1.726 1.726 0 0 1-.869-1.49V59.922z"/></g></svg>