<svg xmlns="http://www.w3.org/2000/svg" width="585" height="243" viewBox="0 0 585 243">
  <g fill="none" fill-rule="evenodd" transform="translate(3 -7)">
    <path fill="#8B949B" d="M9.62890625,15.359375 L2.99804688,15.359375 L2.99804688,22 L1.796875,22 L1.796875,7.78125 L10.6054688,7.78125 L10.6054688,8.80664062 L2.99804688,8.80664062 L2.99804688,14.3339844 L9.62890625,14.3339844 L9.62890625,15.359375 Z M18.1166294,12.4296875 C17.8692324,12.3841144 17.6055631,12.3613281 17.3256138,12.3613281 C16.9284764,12.3613281 16.5704071,12.4199213 16.251395,12.5371094 C15.932383,12.6542975 15.6508103,12.8186838 15.4066685,13.0302734 C15.1625266,13.241863 14.9574506,13.4925116 14.7914341,13.7822266 C14.6254177,14.0719416 14.493583,14.3925764 14.3959263,14.7441406 L14.3959263,22 L13.2338169,22 L13.2338169,11.4335938 L14.376395,11.4335938 L14.3959263,13.1132812 C14.6823861,12.5338513 15.0713796,12.0764991 15.5629185,11.7412109 C16.0544574,11.4059228 16.6582925,11.2382812 17.3744419,11.2382812 C17.5176718,11.2382812 17.6641547,11.251302 17.813895,11.2773438 C17.9636354,11.3033855 18.0743114,11.3326821 18.1459263,11.3652344 L18.1166294,12.4296875 Z M24.5828682,22.1953125 C23.8927606,22.1953125 23.2580013,22.0667331 22.6785713,21.8095703 C22.0991414,21.5524076 21.5994719,21.1943382 21.1795479,20.7353516 C20.7596239,20.2763649 20.4324788,19.7311229 20.1981026,19.0996094 C19.9637264,18.4680958 19.8465401,17.7747434 19.8465401,17.0195312 L19.8465401,16.5996094 C19.8465401,15.7858032 19.9686092,15.0485059 20.212751,14.3876953 C20.4568929,13.7268847 20.7872932,13.1637393 21.203962,12.6982422 C21.6206307,12.2327451 22.1007691,11.8730481 22.6443917,11.6191406 C23.1880142,11.3652331 23.7625527,11.2382812 24.3680245,11.2382812 C25.0386007,11.2382812 25.6342979,11.3587228 26.1551338,11.5996094 C26.6759698,11.840496 27.1137909,12.1757791 27.4686104,12.6054688 C27.8234299,13.0351584 28.0919819,13.546221 28.2742745,14.1386719 C28.456567,14.7311228 28.547712,15.3789027 28.547712,16.0820312 L28.547712,16.7949219 L21.0086495,16.7949219 L21.0086495,17.0195312 C21.0086495,17.5989612 21.0965392,18.1442032 21.2723213,18.6552734 C21.4481035,19.1663437 21.6954968,19.6106752 22.0145088,19.9882812 C22.3335209,20.3658873 22.7143764,20.6637359 23.157087,20.8818359 C23.5997975,21.099936 24.0913291,21.2089844 24.6316963,21.2089844 C25.2566995,21.2089844 25.8084518,21.0950532 26.2869698,20.8671875 C26.7654878,20.6393218 27.2000538,20.2747421 27.5906807,19.7734375 L28.3231026,20.3300781 C28.1473205,20.5839856 27.943872,20.8248687 27.712751,21.0527344 C27.4816301,21.2806001 27.2130781,21.4791658 26.907087,21.6484375 C26.6010959,21.8177092 26.2560472,21.9511714 25.8719307,22.0488281 C25.4878142,22.1464849 25.058131,22.1953125 24.5828682,22.1953125 Z M24.3680245,12.234375 C23.9253139,12.234375 23.5151618,12.3190096 23.1375557,12.4882812 C22.7599497,12.6575529 22.4262941,12.8984359 22.1365792,13.2109375 C21.8468642,13.5234391 21.6092363,13.8994119 21.4236885,14.3388672 C21.2381407,14.7783225 21.1128165,15.2649713 21.047712,15.7988281 L27.3856026,15.7988281 L27.3856026,15.671875 C27.3725817,15.2291645 27.3009678,14.8011088 27.1707588,14.3876953 C27.0405499,13.9742818 26.8501221,13.6080745 26.5994698,13.2890625 C26.3488175,12.9700505 26.0379482,12.7145192 25.6668526,12.5224609 C25.295757,12.3304027 24.8628186,12.234375 24.3680245,12.234375 Z M32.845982,22 L31.674107,22 L31.674107,11.4335938 L32.845982,11.4335938 L32.845982,22 Z M31.4690289,8.37695312 C31.4690289,8.15559785 31.5406428,7.96842524 31.6838726,7.81542969 C31.8271025,7.66243413 32.0224131,7.5859375 32.2698101,7.5859375 C32.5172072,7.5859375 32.7141453,7.66243413 32.8606305,7.81542969 C33.0071156,7.96842524 33.080357,8.15559785 33.080357,8.37695312 C33.080357,8.5983084 33.0071156,8.78385342 32.8606305,8.93359375 C32.7141453,9.08333408 32.5172072,9.15820312 32.2698101,9.15820312 C32.0224131,9.15820312 31.8271025,9.08333408 31.6838726,8.93359375 C31.5406428,8.78385342 31.4690289,8.5983084 31.4690289,8.37695312 Z M36.2653458,16.6191406 C36.2653458,15.798824 36.3581183,15.0582715 36.5436661,14.3974609 C36.7292139,13.7366503 36.9977659,13.1718773 37.3493302,12.703125 C37.7008944,12.2343727 38.1289501,11.8730481 38.6335099,11.6191406 C39.1380697,11.3652331 39.709353,11.2382812 40.3473771,11.2382812 C41.1025892,11.2382812 41.7503692,11.3896469 42.2907364,11.6923828 C42.8311037,11.9951187 43.2770628,12.416664 43.6286271,12.9570312 L43.6872208,11.4335938 L44.7809708,11.4335938 L44.7809708,21.8144531 C44.7809708,22.4980503 44.6800604,23.1116509 44.4782364,23.6552734 C44.2764125,24.1988959 43.9915846,24.6595033 43.6237442,25.0371094 C43.2559039,25.4147154 42.8115724,25.7044261 42.2907364,25.90625 C41.7699005,26.1080739 41.187224,26.2089844 40.5426896,26.2089844 C40.2106567,26.2089844 39.8721184,26.1715499 39.5270646,26.0966797 C39.1820108,26.0218095 38.8483552,25.909506 38.526088,25.7597656 C38.2038208,25.6100253 37.8994618,25.4228527 37.6130021,25.1982422 C37.3265423,24.9736317 37.0758938,24.7083349 36.8610489,24.4023438 L37.5153458,23.6992188 C37.9450355,24.2265651 38.4007601,24.6123035 38.8825333,24.8564453 C39.3643066,25.1005872 39.891645,25.2226562 40.4645646,25.2226562 C40.9658692,25.2226562 41.4102006,25.1461596 41.7975724,24.9931641 C42.1849441,24.8401685 42.5120893,24.6188166 42.7790177,24.3291016 C43.0459461,24.0393866 43.2493946,23.6878276 43.3893692,23.2744141 C43.5293439,22.8610005 43.5993302,22.3906276 43.5993302,21.8632812 L43.5993302,20.6328125 C43.2477659,21.1210962 42.8018068,21.5035793 42.2614396,21.7802734 C41.7210723,22.0569675 41.0765475,22.1953125 40.3278458,22.1953125 C39.6963322,22.1953125 39.1299317,22.0634779 38.6286271,21.7998047 C38.1273225,21.5361315 37.7008944,21.1682966 37.3493302,20.6962891 C36.9977659,20.2242815 36.7292139,19.6595085 36.5436661,19.0019531 C36.3581183,18.3443978 36.2653458,17.6184936 36.2653458,16.8242188 L36.2653458,16.6191406 Z M37.4469864,16.8242188 C37.4469864,17.4427114 37.5088348,18.01725 37.6325333,18.5478516 C37.7562318,19.0784532 37.945032,19.5390605 38.1989396,19.9296875 C38.4528471,20.3203145 38.7734819,20.626301 39.1608536,20.8476562 C39.5482254,21.0690115 40.0088327,21.1796875 40.5426896,21.1796875 C40.9463374,21.1796875 41.3092895,21.1308599 41.6315567,21.0332031 C41.953824,20.9355464 42.2386519,20.8004566 42.4860489,20.6279297 C42.733446,20.4554028 42.9482876,20.2519543 43.1305802,20.0175781 C43.3128728,19.783202 43.4691212,19.5260431 43.5993302,19.2460938 L43.5993302,14.3339844 C43.4886526,14.0605455 43.3470524,13.7985039 43.1745255,13.5478516 C43.0019986,13.2971993 42.7936673,13.0758473 42.5495255,12.8837891 C42.3053837,12.6917308 42.0205558,12.5387375 41.6950333,12.4248047 C41.3695109,12.3108718 40.9919105,12.2539062 40.5622208,12.2539062 C40.0218535,12.2539062 39.5563634,12.3662098 39.1657364,12.5908203 C38.7751095,12.8154308 38.4528471,13.1230449 38.1989396,13.5136719 C37.945032,13.9042988 37.7562318,14.3665338 37.6325333,14.9003906 C37.5088348,15.4342475 37.4469864,16.0071584 37.4469864,16.6191406 L37.4469864,16.8242188 Z M49.7042409,13.2207031 C49.8865334,12.9212225 50.0981199,12.6494153 50.3390065,12.4052734 C50.5798931,12.1611316 50.8451899,11.9528003 51.1349049,11.7802734 C51.4246199,11.6077465 51.7371168,11.4742843 52.0724049,11.3798828 C52.4076931,11.2854813 52.7641348,11.2382812 53.1417409,11.2382812 C53.6690872,11.2382812 54.1410877,11.3098951 54.5577565,11.453125 C54.9744252,11.5963549 55.3276118,11.8242172 55.6173268,12.1367188 C55.9070418,12.4492203 56.1283937,12.8512345 56.2813893,13.3427734 C56.4343849,13.8343124 56.5108815,14.4283819 56.5108815,15.125 L56.5108815,22 L55.3487721,22 L55.3487721,15.1152344 C55.3487721,14.5683566 55.2901789,14.112632 55.1729909,13.7480469 C55.0558028,13.3834617 54.8897888,13.0904959 54.674944,12.8691406 C54.4600992,12.6477854 54.1980575,12.4899093 53.8888112,12.3955078 C53.5795648,12.3011063 53.2361438,12.2539062 52.8585377,12.2539062 C52.441869,12.2539062 52.0642686,12.3238925 51.7257252,12.4638672 C51.3871819,12.6038418 51.0877057,12.7910145 50.8272877,13.0253906 C50.5668698,13.2597668 50.3422626,13.5283188 50.1534596,13.8310547 C49.9646566,14.1337906 49.8149185,14.4446599 49.7042409,14.7636719 L49.7042409,22 L48.5421315,22 L48.5421315,7 L49.7042409,7 L49.7042409,13.2207031 Z M62.0493859,8.72851562 L62.0493859,11.4335938 L64.2368859,11.4335938 L64.2368859,12.390625 L62.0493859,12.390625 L62.0493859,19.4316406 C62.0493859,19.8027362 62.0868204,20.1005848 62.1616906,20.3251953 C62.2365608,20.5498058 62.3374712,20.7255853 62.464425,20.8525391 C62.5913787,20.9794928 62.7378616,21.0641274 62.9038781,21.1064453 C63.0698945,21.1487632 63.2440465,21.1699219 63.426339,21.1699219 C63.6021212,21.1699219 63.7713903,21.1585288 63.9341515,21.1357422 C64.0969128,21.1129556 64.2433957,21.091797 64.3736047,21.0722656 L64.4224328,22.0292969 C64.2792029,22.0813805 64.0920303,22.1220702 63.8609093,22.1513672 C63.6297884,22.1806642 63.4002985,22.1953125 63.1724328,22.1953125 C62.8403999,22.1953125 62.5327858,22.1513676 62.2495812,22.0634766 C61.9663767,21.9755855 61.7238661,21.8242198 61.5220422,21.609375 C61.3202182,21.3945302 61.1623422,21.1097023 61.0484093,20.7548828 C60.9344765,20.4000633 60.8775109,19.958987 60.8775109,19.4316406 L60.8775109,12.390625 L58.9341515,12.390625 L58.9341515,11.4335938 L60.8775109,11.4335938 L60.8775109,8.72851562 L62.0493859,8.72851562 Z M11.4453125,38.8066406 L6.57226562,38.8066406 L6.57226562,52 L5.37109375,52 L5.37109375,38.8066406 L0.5078125,38.8066406 L0.5078125,37.78125 L11.4453125,37.78125 L11.4453125,38.8066406 Z M17.3060825,52.1953125 C16.6159749,52.1953125 15.9812157,52.0667331 15.4017857,51.8095703 C14.8223557,51.5524076 14.3226862,51.1943382 13.9027622,50.7353516 C13.4828383,50.2763649 13.1556931,49.7311229 12.9213169,49.0996094 C12.6869407,48.4680958 12.5697544,47.7747434 12.5697544,47.0195312 L12.5697544,46.5996094 C12.5697544,45.7858032 12.6918235,45.0485059 12.9359654,44.3876953 C13.1801072,43.7268847 13.5105075,43.1637393 13.9271763,42.6982422 C14.343845,42.2327451 14.8239835,41.8730481 15.367606,41.6191406 C15.9112285,41.3652331 16.485767,41.2382812 17.0912388,41.2382812 C17.7618151,41.2382812 18.3575122,41.3587228 18.8783482,41.5996094 C19.3991841,41.840496 19.8370053,42.1757791 20.1918247,42.6054688 C20.5466442,43.0351584 20.8151962,43.546221 20.9974888,44.1386719 C21.1797814,44.7311228 21.2709263,45.3789027 21.2709263,46.0820312 L21.2709263,46.7949219 L13.7318638,46.7949219 L13.7318638,47.0195312 C13.7318638,47.5989612 13.8197535,48.1442032 13.9955357,48.6552734 C14.1713178,49.1663437 14.4187112,49.6106752 14.7377232,49.9882812 C15.0567352,50.3658873 15.4375907,50.6637359 15.8803013,50.8818359 C16.3230118,51.099936 16.8145434,51.2089844 17.3549107,51.2089844 C17.9799138,51.2089844 18.5316661,51.0950532 19.0101841,50.8671875 C19.4887021,50.6393218 19.9232681,50.2747421 20.313895,49.7734375 L21.0463169,50.3300781 C20.8705348,50.5839856 20.6670863,50.8248687 20.4359654,51.0527344 C20.2048444,51.2806001 19.9362924,51.4791658 19.6303013,51.6484375 C19.3243102,51.8177092 18.9792616,51.9511714 18.595145,52.0488281 C18.2110285,52.1464849 17.7813453,52.1953125 17.3060825,52.1953125 Z M17.0912388,42.234375 C16.6485282,42.234375 16.2383761,42.3190096 15.86077,42.4882812 C15.483164,42.6575529 15.1495085,42.8984359 14.8597935,43.2109375 C14.5700785,43.5234391 14.3324507,43.8994119 14.1469029,44.3388672 C13.9613551,44.7783225 13.8360308,45.2649713 13.7709263,45.7988281 L20.1088169,45.7988281 L20.1088169,45.671875 C20.095796,45.2291645 20.0241822,44.8011088 19.8939732,44.3876953 C19.7637642,43.9742818 19.5733364,43.6080745 19.3226841,43.2890625 C19.0720318,42.9700505 18.7611625,42.7145192 18.3900669,42.5224609 C18.0189713,42.3304027 17.5860329,42.234375 17.0912388,42.234375 Z M27.5809151,45.7207031 L30.4324776,41.4335938 L31.8191963,41.4335938 L28.235212,46.6191406 L31.9754463,52 L30.5984932,52 L27.5906807,47.5273438 L24.5828682,52 L23.2059151,52 L26.9363838,46.6191406 L23.3523995,41.4335938 L24.7293526,41.4335938 L27.5809151,45.7207031 Z M36.517857,38.7285156 L36.517857,41.4335938 L38.705357,41.4335938 L38.705357,42.390625 L36.517857,42.390625 L36.517857,49.4316406 C36.517857,49.8027362 36.5552915,50.1005848 36.6301617,50.3251953 C36.7050319,50.5498058 36.8059423,50.7255853 36.9328961,50.8525391 C37.0598498,50.9794928 37.2063327,51.0641274 37.3723492,51.1064453 C37.5383657,51.1487632 37.7125176,51.1699219 37.8948101,51.1699219 C38.0705923,51.1699219 38.2398614,51.1585288 38.4026226,51.1357422 C38.5653839,51.1129556 38.7118668,51.091797 38.8420758,51.0722656 L38.8909039,52.0292969 C38.747674,52.0813805 38.5605014,52.1220702 38.3293805,52.1513672 C38.0982595,52.1806642 37.8687696,52.1953125 37.6409039,52.1953125 C37.308871,52.1953125 37.0012569,52.1513676 36.7180523,52.0634766 C36.4348478,51.9755855 36.1923372,51.8242198 35.9905133,51.609375 C35.7886893,51.3945302 35.6308133,51.1097023 35.5168805,50.7548828 C35.4029476,50.4000633 35.345982,49.958987 35.345982,49.4316406 L35.345982,42.390625 L33.4026226,42.390625 L33.4026226,41.4335938 L35.345982,41.4335938 L35.345982,38.7285156 L36.517857,38.7285156 Z"/>
    <path fill="#222" d="M49.84 226L50.26 221.24 58.24 220.26C61.88 219.56 61.88 218.16 59.22 209.76L54.04 194.36 23.8 194.36 18.76 209.62C16.1 217.32 15.82 219.56 19.18 220.26L26.18 221.24 26.6 226-2.24 226-1.82 221.24 3.78 220.26C7.98 219.14 9.52 217.74 15.54 200.24L35 145.36 35 140.88 46.62 135.98 73.64 217.18C74.06 218.72 75.32 219.56 77.14 219.84L85.4 221.24 85.82 226 49.84 226zM39.76 149.28L39.06 149.28 25.76 188.62 52.22 188.62 39.76 149.28zM151.71333 219.42C147.37333 224.88 143.17333 228.1 138.69333 228.1 133.65333 228.1 129.73333 225.02 129.73333 217.74L129.17333 217.74C123.71333 223.48 118.39333 228.1 111.67333 228.1 102.43333 228.1 94.5933302 221.38 94.5933302 211.86 94.5933302 200.24 105.09333 193.52 130.29333 187.5L130.29333 186.24C130.29333 171.26 125.25333 167.34 116.01333 167.34 110.83333 167.34 104.95333 169.44 104.95333 170.98 104.95333 171.68 107.75333 173.92 107.75333 177.42 107.75333 180.64 104.95333 183.72 100.89333 183.72 96.9733302 183.72 94.1733302 181.34 94.1733302 177.56 94.1733302 170.84 108.73333 161.32 120.07333 161.32 135.75333 161.32 140.93333 167.76 140.23333 188.62L139.11333 215.36C138.97333 218.58 139.95333 220.26 142.19333 220.26 144.29333 220.26 146.39333 218.72 149.33333 216.34L151.71333 219.42zM130.01333 191.98C111.25333 196.88 104.81333 202.2 104.81333 209.48 104.81333 216.2 109.43333 220.26 115.45333 220.26 120.35333 220.26 124.55333 217.32 129.17333 212.98L130.01333 191.98zM236.24 44L236.36 42.64 238.64 42.36C239.68 42.16 239.68 41.76 238.92 39.36L237.44 34.96 228.8 34.96 227.36 39.32C226.6 41.52 226.52 42.16 227.48 42.36L229.48 42.64 229.6 44 221.36 44 221.48 42.64 223.08 42.36C224.28 42.04 224.72 41.64 226.44 36.64L232 20.96 232 19.68 235.32 18.28 243.04 41.48C243.16 41.92 243.52 42.16 244.04 42.24L246.4 42.64 246.52 44 236.24 44zM233.36 22.08L233.16 22.08 229.36 33.32 236.92 33.32 233.36 22.08zM264.48 42.12C263.24 43.68 262.04 44.6 260.76 44.6 259.32 44.6 258.2 43.72 258.2 41.64L258.04 41.64C256.48 43.28 254.96 44.6 253.04 44.6 250.4 44.6 248.16 42.68 248.16 39.96 248.16 36.64 251.16 34.72 258.36 33L258.36 32.64C258.36 28.36 256.92 27.24 254.28 27.24 252.8 27.24 251.12 27.84 251.12 28.28 251.12 28.48 251.92 29.12 251.92 30.12 251.92 31.04 251.12 31.92 249.96 31.92 248.84 31.92 248.04 31.24 248.04 30.16 248.04 28.24 252.2 25.52 255.44 25.52 259.92 25.52 261.4 27.36 261.2 33.32L260.88 40.96C260.84 41.88 261.12 42.36 261.76 42.36 262.36 42.36 262.96 41.92 263.8 41.24L264.48 42.12zM258.28 34.28C252.92 35.68 251.08 37.2 251.08 39.28 251.08 41.2 252.4 42.36 254.12 42.36 255.52 42.36 256.72 41.52 258.04 40.28L258.28 34.28zM294.08 37.2C294.08 41.68 290.44 44 284.24 44L274.2 44 274.32 42.64 276.4 42.4C277.08 42.32 277.44 42.12 277.44 41.84L277.44 21.12C277.44 20.8 277.24 20.72 276.4 20.6L274.32 20.36 274.2 19 284.4 19C291 19 293.16 21.64 293.16 24.52 293.16 27.72 290.72 30.32 287.08 30.96L287.08 31.12C291.92 31.64 294.08 34.2 294.08 37.2zM289.64 25.52C289.64 22.36 287.72 20.44 283.24 20.44L280.72 20.44 280.72 30.44 283.88 30.4C287.88 30.4 289.64 27.76 289.64 25.52zM290.6 37.48C290.6 33.76 287.52 31.92 283.2 31.92L280.72 31.92 280.72 42 283.84 42.56 285 42.52C287.96 42.32 290.6 40.76 290.6 37.48zM315.52 34.48C315.52 39.88 312 44.6 306.24 44.6 305.04 44.6 303 44.12 301.8 43.68L301.72 43.68 299.92 44.84 299.48 44.84 299.48 20.2C299.48 19.76 299.36 19.52 299.08 19.44L296.08 18.56 296.2 17.56 302.32 16.12 302.32 28.6 302.48 28.6C303.92 27.04 306 25.76 308.28 25.76 312.64 25.76 315.52 29.52 315.52 34.48zM312.44 35.6C312.44 31.12 310.28 28.16 307.08 28.16 305.04 28.16 303.4 29.32 302.32 30.56L302.32 40.84C303.56 42 305 43.04 306.92 43.04 310 43.04 312.44 40.08 312.44 35.6zM348.4 44.04L346.56 43.64C345.08 44.12 342.6 44.6 340.4 44.6 332.72 44.6 326.76 39.88 326.76 31.88 326.76 23.6 332.76 18.44 340.56 18.44 342.92 18.44 344.96 18.84 346.12 19.2L349.16 18.56 349.16 26.68 347.48 26.68 346.44 21.48C345.04 20.68 343.32 20 340.32 20 334.44 20 330.4 24.8 330.4 31.36 330.4 38.24 334.2 43.08 340.76 43.08 342.72 43.08 344.52 42.64 345.92 41.88L347.6 36.48 349.36 36.48 348.4 44.04zM368.88 40.08C367.44 42.96 364.84 44.56 361.68 44.56 357.04 44.56 353.64 40.84 353.64 35.6 353.64 29.72 357.92 25.56 362.96 25.56 366.6 25.56 368.68 27.4 368.68 29.28 368.68 30.84 367.6 31.32 366.64 31.32 365.2 31.32 364.2 29.84 364.8 27.8L364.8 27.72C364.2 27.28 363.36 27 362.28 27 359.12 27 356.68 29.88 356.68 34.2 356.68 38.68 359.28 42.04 362.96 42.04 364.84 42.04 366.64 41.32 368.08 39.6L368.88 40.08zM403.32 31C403.32 37.92 398.4 44 388.48 44L379.64 44 379.76 42.64 381.84 42.4C382.52 42.32 382.88 42.12 382.88 41.84L382.88 21.12C382.88 20.8 382.68 20.72 381.84 20.6L379.76 20.36 379.64 19 388.52 18.88C397.68 18.76 403.32 23.96 403.32 31zM399.72 31.92C399.72 25.04 395.52 20.44 387.68 20.44L386.16 20.44 386.16 42 389.36 42.52C395.92 42.4 399.72 37.8 399.72 31.92zM426.72 43.88L420.76 44.6 420.76 41.92 420.64 41.92C419.32 43.36 417.36 44.56 415 44.56 410.8 44.56 407.52 40.84 407.52 35.6 407.52 30.12 411.32 25.68 417.08 25.68 418.24 25.68 419.6 25.96 420.68 26.4L420.76 26.4 420.76 19.4C420.76 19 420.64 18.76 420.4 18.68L417.28 17.96 417.44 17 423.6 16.12 423.6 41.52C423.6 41.96 423.72 42.2 424 42.28L426.84 42.92 426.72 43.88zM420.76 29.6C419.52 28.36 418.12 27.28 416.16 27.28 412.84 27.28 410.64 30.2 410.64 34.56 410.64 39.2 412.88 42.16 416.36 42.16 418.24 42.16 419.6 41.4 420.76 40.32L420.76 29.6zM456.08 44L436.88 44 437 42.64 439.08 42.4C439.76 42.32 440.12 42.12 440.12 41.84L440.12 21.12C440.12 20.8 439.92 20.72 439.08 20.6L437 20.36 436.88 19 456.08 19 456.08 26.24 454.36 26.24 453.48 22.2C453.04 20.6 452.72 20.48 444.92 20.48L443.4 20.48 443.4 30.52 444.92 30.52C448.24 30.52 448.76 30.48 448.96 29.76L449.84 27.08 451.24 27.08 450.4 35.4 449.08 35.4 448.76 32.84C448.76 32.2 448.48 31.96 444.84 31.96L443.4 31.96 443.4 42.52 444.48 42.52C452.96 42.52 453.36 42.28 453.88 40.8L454.88 36.92 456.84 36.92 456.08 44zM475.92 40.08C474.48 42.96 471.88 44.56 468.72 44.56 464.08 44.56 460.68 40.84 460.68 35.6 460.68 29.72 464.88 25.56 469.84 25.56 473.64 25.56 476 27.88 476 31.36 476 32.04 475.92 32.88 475.8 33.48L463.76 33.32C463.72 33.48 463.72 34.12 463.72 34.28 463.72 38.8 466.32 42.04 470 42.04 471.88 42.04 473.68 41.32 475.12 39.6L475.92 40.08zM472.8 32.08C473 28.92 471.52 26.96 469.12 26.96 466.92 26.96 464.56 28.92 463.92 32.12 465.64 32.08 467.12 32.08 468.44 32.08L472.8 32.08zM504.44 26.24L503.6 22.2C503.16 20.6 502.76 20.48 495.04 20.48L493.8 20.48 493.8 30.76 495.64 30.76C499.04 30.76 499.36 30.72 499.68 30L500.6 27.32 501.96 27.32 501.12 35.64 499.8 35.64 499.52 33.08C499.4 32.44 499.2 32.2 495.56 32.2L493.8 32.2 493.8 41.88C493.8 42.2 494.04 42.28 494.84 42.4L497.72 42.64 497.84 44 487.28 44 487.4 42.64 489.48 42.4C490.16 42.32 490.52 42.12 490.52 41.84L490.52 21.12C490.52 20.8 490.32 20.72 489.48 20.6L487.4 20.36 487.28 19 506.2 19 506.2 26.24 504.44 26.24zM523.64 18.52C523.64 19.64 522.88 20.32 521.92 20.32 520.8 20.32 519.84 19.44 519.4 17.84L519.36 17.64 518.36 17.56C516.12 18.48 514.88 20.92 514.88 24.92L514.88 26.2 520.44 26.2 520.16 28.04 514.88 28.04 514.88 41.92C514.88 42.24 515.08 42.44 516 42.48L518.64 42.64 518.76 44 509.24 44 509.36 42.64 511.04 42.48C511.72 42.44 512.04 42.24 512.04 41.88L512.04 28.12 508.68 27.96 508.92 26.2 511.84 26.2 511.88 25.2C512.08 19.84 515.88 16.12 520.16 16.12 522.04 16.12 523.64 17.08 523.64 18.52zM555.84 34.32L553.76 34.56C553.08 34.68 552.72 34.88 552.72 35.16L552.72 41.4 555.04 41.6 555.12 42.64C551.8 43.76 547.68 44.6 544.2 44.6 536.4 44.6 530.52 39.88 530.52 31.88 530.52 23.52 536.84 18.44 544.56 18.44 546.96 18.44 548.96 18.84 550.08 19.2L553.12 18.56 553.12 26.68 551.44 26.68 550.4 21.48C549 20.68 547.28 20 544.24 20 538.48 20 534.16 24.8 534.16 31.36 534.16 38.24 537.84 43.08 544.36 43.08 546.28 43.08 548.24 42.6 549.48 42.08L549.48 35.08C549.48 34.76 549.28 34.68 548.44 34.56L545.92 34.32 545.8 33 555.96 33 555.84 34.32zM572 28.16L572 28.36C572.76 29.28 573.24 30.32 573.24 31.92 573.24 35.4 570.16 38.28 566.2 38.28 565.44 38.28 564.52 38.2 564 38.04 563.36 38.36 562.12 39.16 562.12 40.12 562.12 41.2 563.16 41.96 564.64 41.96 565.96 41.96 568.44 41.88 569.28 41.88 572.88 41.88 575.16 44.16 575.16 47 575.16 51.2 570.96 54.12 565.28 54.12 560.96 54.12 558.2 52.2 558.2 49.36 558.2 46.88 560.08 45.48 561.96 44.64L561.96 44.48C560.48 44.2 559.4 42.92 559.4 41.6 559.4 40 560.92 38.56 562.64 37.76 562.64 37.68 562.64 37.64 562.68 37.64L562.72 37.64C560.68 36.72 559.28 34.84 559.28 32.12 559.28 28.44 562.32 25.56 566.36 25.56 568.12 25.56 569.56 25.96 570.84 26.56L576.28 26.6 576.28 28.92 572 28.16zM570.28 32C570.28 30.2 569.8 28.76 568.84 27.84 568.12 27.16 567.28 26.84 566.32 26.84 563.88 26.84 562.28 28.84 562.28 31.6 562.28 33.64 562.92 35.2 564 36.16 564.68 36.72 565.44 37 566.24 37 567.36 37 568.24 36.72 568.84 36.12 569.8 35.28 570.28 33.88 570.28 32zM572.48 48.28C572.48 46.24 571.4 44.84 568.16 44.72 566.56 44.72 566.52 44.8 563.52 44.8 562.6 45.12 560.92 46.48 560.92 48.44 560.92 51.12 563.48 52.64 566.76 52.64 570.12 52.64 572.48 50.72 572.48 48.28zM239.88 109L240 107.64 242.08 107.4C242.76 107.32 243.12 107.12 243.12 106.84L243.12 97 230.2 97 230.2 106.88C230.2 107.2 230.44 107.28 231.24 107.4L233.32 107.64 233.44 109 223.68 109 223.8 107.64 225.88 107.4C226.56 107.32 226.92 107.12 226.92 106.84L226.92 86.12C226.92 85.8 226.72 85.72 225.88 85.6L223.8 85.36 223.68 84 233.44 84 233.32 85.36 231.24 85.6C230.56 85.68 230.2 85.88 230.2 86.16L230.2 95.36 243.12 95.36 243.12 86.12C243.12 85.76 242.92 85.72 242.08 85.6L240 85.36 239.88 84 249.64 84 249.52 85.36 247.44 85.6C246.76 85.68 246.4 85.88 246.4 86.16L246.4 106.88C246.4 107.2 246.6 107.28 247.44 107.4L249.52 107.64 249.64 109 239.88 109zM264.24 109L264.36 107.64 266 107.48C266.84 107.44 267 107.24 267 106.88L267 98.16C267 94.2 265.56 93 263.16 93 261.28 93 259.52 94.08 258.4 95L258.4 106.92C258.4 107.24 258.56 107.44 259.48 107.48L261.32 107.64 261.44 109 252.8 109 252.92 107.64 254.52 107.48C255.2 107.44 255.52 107.24 255.52 106.88L255.52 85.28C255.52 84.8 255.36 84.52 255.08 84.44L252.28 83.56 252.4 82.56 258.4 81.12 258.4 93.44 258.6 93.44C260.64 91.72 262.76 90.56 265 90.56 266.24 90.56 267.44 90.92 268.36 91.84 269.44 92.92 269.84 94.36 269.84 96.28L269.84 106.88C269.84 107.2 269.96 107.36 271.04 107.48L272.6 107.64 272.72 109 264.24 109zM283 109L283.12 107.64 285.6 107.4C286.28 107.32 286.64 107.12 286.64 106.84L286.64 86.12C286.64 85.8 286.44 85.72 285.6 85.6L283.12 85.36 283 84 293.56 84 293.44 85.36 290.96 85.6C290.28 85.68 289.92 85.88 289.92 86.16L289.92 106.88C289.92 107.2 290.16 107.28 290.96 107.4L293.44 107.64 293.56 109 283 109zM302.92 84.72C302.92 85.88 302.28 86.96 300.88 86.96 299.48 86.96 298.84 85.88 298.84 84.72 298.84 83.56 299.48 82.48 300.88 82.48 302.28 82.48 302.92 83.48 302.92 84.72zM297.08 109L297.2 107.64 298.88 107.48C299.56 107.44 299.88 107.24 299.88 106.88L299.88 95.64C299.88 93.68 299.64 93.52 298.52 93.2L296.92 92.96 297 91.88 302.72 90.56 302.72 106.92C302.72 107.24 302.92 107.44 303.84 107.48L305.52 107.64 305.64 109 297.08 109zM329.12 85.36L326.8 85.6C326 85.72 325.76 85.84 325.76 86.16L325.76 99.16C325.76 105.88 323.16 109.6 318.48 109.6 316.12 109.6 314.64 108.56 314.64 107.12 314.64 106.04 315.4 105.4 316.48 105.4 317.16 105.4 317.8 105.64 318.32 106.16 318.8 106.64 319.16 107.32 319.4 108.24L319.44 108.24C321.48 107.72 322.44 106.12 322.44 99.76L322.44 86.12C322.44 85.76 322.24 85.72 321.4 85.6L318.64 85.36 318.52 84 329.24 84 329.12 85.36zM337.68 84.72C337.68 85.88 337.04 86.96 335.64 86.96 334.24 86.96 333.6 85.88 333.6 84.72 333.6 83.56 334.24 82.48 335.64 82.48 337.04 82.48 337.68 83.48 337.68 84.72zM337.48 110.32C337.16 116 334.16 119.44 331.16 119.44 329.6 119.44 328.28 118.68 328.28 117.08 328.28 116 329.24 115.2 330.2 115.2 331.48 115.2 332.28 116.12 332.72 117.56 334.12 117.12 334.64 115.2 334.64 112.2L334.64 95.64C334.64 93.68 334.4 93.52 333.28 93.2L331.68 92.96 331.76 91.88 337.48 90.56 337.48 110.32zM365.2 109L365.32 107.64 366.88 107.4C367.2 107.28 367.16 106.96 366.88 106.52L359.84 96.6 357.12 99.28 357.12 106.88C357.12 107.2 357.36 107.28 358.16 107.4L360.24 107.64 360.36 109 350.6 109 350.72 107.64 352.8 107.4C353.48 107.32 353.84 107.12 353.84 106.84L353.84 86.12C353.84 85.8 353.64 85.72 352.8 85.6L350.72 85.36 350.6 84 360.36 84 360.24 85.36 358.16 85.6C357.48 85.68 357.12 85.88 357.12 86.16L357.12 97.12 365.72 88.48C367.8 86.44 367.8 85.72 366.56 85.6L364.52 85.36 364.4 84 373.96 84 373.84 85.36 372.16 85.56C371.24 85.72 370.56 86.12 369.16 87.52L362.04 94.6 370.64 106.12C371.4 107.12 371.68 107.32 372.48 107.44L373.92 107.64 374.04 109 365.2 109zM388.96 109L386.88 105.6 383.12 100.2 381.32 101.84 381.32 106.92C381.32 107.24 381.48 107.36 382.4 107.48L383.96 107.64 384.08 109 375.72 109 375.84 107.64 377.44 107.48C378.2 107.36 378.44 107.32 378.44 106.88L378.44 85.28C378.44 84.8 378.28 84.52 378 84.44L375.2 83.56 375.32 82.56 381.32 81.12 381.32 99.96 385.56 96C386.8 94.88 387.8 93.96 387.8 93.36 387.8 92.88 387.32 92.72 386.68 92.6L385.4 92.48 385.28 91.16 393.6 91.16 393.48 92.48 392.48 92.64C391.44 92.76 390.52 93.48 388.4 95.4L385.16 98.36 390.88 106.16C391.48 106.92 391.84 107.44 392.44 107.48L394 107.64 394.12 109 388.96 109zM422.68 109L404.12 109 404.24 107.64 406.32 107.4C407 107.32 407.36 107.12 407.36 106.84L407.36 86.12C407.36 85.8 407.16 85.72 406.32 85.6L404.24 85.36 404.12 84 414.24 84 414.12 85.36 411.68 85.6C411 85.68 410.64 85.88 410.64 86.16L410.64 107.52 411.64 107.52C419.52 107.52 420.08 107.28 420.52 105.8L421.72 101.04 423.56 101.04 422.68 109zM426.92 109L427.04 107.64 428.72 107.48C429.4 107.44 429.72 107.24 429.72 106.88L429.72 85.28C429.72 84.8 429.56 84.52 429.28 84.44L426.36 83.56 426.48 82.56 432.56 81.12 432.56 106.92C432.56 107.24 432.76 107.44 433.68 107.48L435.36 107.64 435.48 109 426.92 109zM467 109L467.12 107.64 469.72 107.44C470.28 107.36 470.52 106.16 470.32 101.76L469.76 86.24 469.48 86.24 461.44 108.2 459.76 108.2 451.96 87.04 451.56 87.04 450.88 101.64C450.68 106.76 450.6 107.36 451.24 107.36L453.88 107.64 454 109 445.08 109 445.24 107.64 447.92 107.36C448.56 107.24 448.8 106.88 449.12 101.64L449.8 88.48C449.88 86.92 449.48 86 448.64 85.8L445.8 85.36 445.68 84 454.24 84 461.32 103.28 461.52 103.28 468.44 84 476.8 84 476.72 85.36 473.76 85.56C473.24 85.6 473.08 86.08 473.04 86.52L473.6 101.76C473.72 106.4 474.04 107.32 474.56 107.44L477.08 107.64 477.2 109 467 109zM502.4 109L502.52 107.64 504.08 107.48C504.92 107.44 505.08 107.24 505.08 106.88L505.08 98.04C505.08 94.16 503.48 93 501.4 93 499.76 93 498.04 94.04 496.92 95.04 496.92 95.36 496.96 97.08 496.96 97.4L496.96 106.88C496.96 107.2 497.04 107.36 498.12 107.48L499.8 107.64 499.92 109 491.4 109 491.52 107.64 493.08 107.48C493.92 107.44 494.08 107.24 494.08 106.88L494.08 98.04C494.08 94.16 492.48 93 490.4 93 488.76 93 487.04 94.04 485.96 94.96L485.96 106.92C485.96 107.24 486.12 107.44 487.04 107.48L488.96 107.64 489.08 109 480.36 109 480.48 107.64 482.08 107.48C482.76 107.44 483.08 107.24 483.08 106.88L483.08 95.64C483.08 93.68 482.84 93.52 481.76 93.2L480.16 92.96 480.2 91.88 485.96 90.56 485.96 93.44 486.08 93.44C488.04 91.72 490.12 90.56 492.2 90.56 493.36 90.56 494.6 90.96 495.44 91.76 495.96 92.28 496.36 92.96 496.6 93.72L496.76 93.72C498.8 91.84 501 90.56 503.12 90.56 504.36 90.56 505.56 90.92 506.48 91.84 507.48 92.84 507.96 94.28 507.96 96.2L507.96 106.88C507.96 107.2 508.04 107.36 509.12 107.48L510.68 107.64 510.8 109 502.4 109zM547.92 85.36L545.52 85.68C544.36 85.88 544.2 86.2 544.2 91.36L544.2 109.32 542.28 109.32 526.56 87.32 526.4 87.32 526.4 101.64C526.4 106.8 526.52 107.12 527.68 107.32L530.08 107.64 530.2 109 521 109 521.12 107.64 523.52 107.32C524.68 107.12 524.8 106.8 524.8 101.64L524.8 88.44C524.8 86.72 524.48 86.16 523.56 85.72L521.28 85.36 521.16 84 528.08 84 542.48 104.16 542.6 104.16 542.6 91.36C542.6 86.2 542.48 85.88 541.32 85.68L538.92 85.36 538.8 84 548.04 84 547.92 85.36zM562.36 109L562.48 107.64 564.12 107.48C564.96 107.44 565.12 107.24 565.12 106.88L565.12 98.16C565.12 94.2 563.68 93 561.28 93 559.4 93 557.64 94.08 556.52 95L556.52 106.92C556.52 107.24 556.68 107.44 557.6 107.48L559.44 107.64 559.56 109 550.92 109 551.04 107.64 552.64 107.48C553.32 107.44 553.64 107.24 553.64 106.88L553.64 95.56C553.64 93.72 553.48 93.52 552.4 93.2L550.72 92.96 550.76 91.88 556.52 90.56 556.52 93.44 556.72 93.44C558.76 91.72 560.88 90.56 563.12 90.56 564.36 90.56 565.56 90.92 566.48 91.84 567.56 92.92 567.96 94.36 567.96 96.28L567.96 106.88C567.96 107.2 568.08 107.36 569.16 107.48L570.76 107.64 570.88 109 562.36 109zM249.72 161.4C249.72 168.56 244.2 174.6 236.72 174.6 229.36 174.6 223.84 169.4 223.84 161.72 223.84 154.56 229.36 148.48 236.84 148.48 244.16 148.48 249.72 153.72 249.72 161.4zM246.08 161.84C246.08 154.36 241.64 149.92 236.68 149.92 231.72 149.92 227.48 154.08 227.48 161.28 227.48 168.76 231.88 173.2 236.84 173.2 241.8 173.2 246.08 169.04 246.08 161.84zM271.96 164.68C271.96 170.28 268 174.6 262.72 174.6 257.44 174.6 254 170.56 254 165.16 254 159.68 258.12 155.56 263.28 155.56 268.4 155.56 271.96 159.4 271.96 164.68zM268.84 165.88C268.84 162.96 268.16 160.28 266.68 158.72 265.92 157.96 264.64 157.08 262.88 157.08 259.6 157.08 257.16 159.96 257.16 164.28 257.16 167.28 257.88 169.88 259.36 171.44 260.12 172.2 261.32 173.04 263.12 173.04 266.32 173.04 268.84 170.24 268.84 165.88zM302.56 155.84C302.56 160.96 298.24 163.88 292.92 163.88 291.76 163.88 290.6 163.8 289.52 163.68L289.52 171.88C289.52 172.2 289.76 172.28 290.56 172.4L293.4 172.64 293.52 174 283 174 283.12 172.64 285.2 172.4C285.88 172.32 286.24 172.12 286.24 171.84L286.24 151.12C286.24 150.8 286.04 150.72 285.2 150.6L283.12 150.36 283 149 292.68 149C299.36 149 302.56 152.04 302.56 155.84zM299.04 156.48C299.04 152.68 296.56 150.44 292.56 150.48L290.44 150.48C290.12 150.48 289.8 150.48 289.52 150.52L289.52 162.08C290.52 162.36 291.6 162.48 292.76 162.48 296.6 162.48 299.04 160.2 299.04 156.48zM324.2 164.48C324.2 169.88 320.68 174.6 314.96 174.6 313.72 174.6 312.16 174.32 311.08 173.88L311 173.88 311 181.76C311 182.08 311.16 182.28 312.12 182.32L314.2 182.48 314.32 183.84 305.36 183.84 305.48 182.48 307.12 182.32C307.8 182.28 308.12 182.08 308.12 181.72L308.12 160.56C308.12 158.72 307.96 158.52 306.88 158.2L305.2 157.96 305.28 156.88 311 155.56 311 158.6 311.16 158.6C312.6 157.04 314.68 155.76 316.96 155.76 321.32 155.76 324.2 159.52 324.2 164.48zM321.12 165.6C321.12 161.12 318.96 158.16 315.76 158.16 313.72 158.16 312.08 159.32 311 160.56L311 170.84C312.24 172 313.68 173.04 315.6 173.04 318.64 173.04 321.12 170.08 321.12 165.6zM363.36 180.48C362.24 180.84 360.2 181.2 358.28 181.2 353.16 181.2 350.36 179.36 347.92 174.6 340.88 174.48 335.44 169.28 335.44 161.72 335.44 154.56 340.96 148.48 348.44 148.48 355.76 148.48 361.32 153.72 361.32 161.4 361.32 167.44 357.4 172.64 351.72 174.16 354.48 178.96 358 179.84 363.24 179.2L363.36 180.48zM357.68 161.84C357.68 154.36 353.24 149.92 348.28 149.92 343.32 149.92 339.08 154.08 339.08 161.28 339.08 168.76 343.48 173.2 348.44 173.2 353.4 173.2 357.68 169.04 357.68 161.84zM375.6 183.84L375.72 182.48 377.8 182.32C378.64 182.28 378.8 182.08 378.8 181.72L378.8 171.92 378.68 171.92C377.36 173.36 375.4 174.56 373.04 174.56 368.84 174.56 365.56 170.84 365.56 165.6 365.56 160.12 369.36 155.68 375.12 155.68 376.52 155.68 378.2 156.12 379.32 156.64L379.4 156.64 381.2 155.52 381.64 155.52 381.64 181.72C381.64 182.04 381.76 182.2 382.84 182.32L384.44 182.48 384.56 183.84 375.6 183.84zM378.8 159.6C377.56 158.36 376.16 157.28 374.2 157.28 370.88 157.28 368.68 160.2 368.68 164.56 368.68 169.2 370.92 172.16 374.4 172.16 376.28 172.16 377.64 171.4 378.8 170.32L378.8 159.6zM409.92 155.84C409.92 152.2 407.92 150.28 403.64 150.56 403.44 150.56 402.72 150.56 402.12 150.6 401.76 150.64 401.4 150.64 400.96 150.64L400.96 161.28C401.16 161.28 401.32 161.28 401.52 161.32 401.84 161.36 402.24 161.4 402.68 161.44 403.16 161.48 403.72 161.52 404.36 161.56 407.72 161.2 409.92 159.36 409.92 155.84zM413 170.68C413.96 172.08 414.32 172.24 414.92 172.36L416.56 172.64 416.68 174 410.8 174 409.28 171.24 404.4 162.92C403.76 162.96 403.2 162.96 402.68 162.96L400.96 162.96 400.96 171.88C400.96 172.2 401.2 172.28 402 172.4L404.28 172.64 404.4 174 394.44 174 394.56 172.64 396.64 172.4C397.32 172.32 397.68 172.12 397.68 171.84L397.68 151.12C397.68 150.8 397.48 150.72 396.64 150.6L394.56 150.36 394.44 149 404.68 149C410.76 149 413.48 151.48 413.48 155.12 413.48 158.76 411.12 161.04 407.56 162.28L413 170.68zM431.84 157.56C431.84 158.68 431.2 159.6 429.96 159.6 429.12 159.6 428.4 159 428.04 158.32 426.84 159.04 424.88 160.96 423.96 162.92L423.96 171.92C423.96 172.24 424.12 172.44 425.04 172.48L427.16 172.64 427.28 174 418.36 174 418.48 172.64 420.08 172.48C420.76 172.44 421.08 172.24 421.08 171.88L421.08 160.56C421.08 158.72 420.92 158.52 419.84 158.2L418.2 157.96 418.28 156.88 423.96 155.56 423.96 160.76 424.12 160.76C426.48 156.92 427.84 155.52 429.6 155.52 431.04 155.52 431.84 156.44 431.84 157.56zM458.52 167.24C458.52 171.16 455 174.6 449.36 174.6 446.64 174.64 444.4 174.16 442.36 173.52L441.76 166.44 443.36 166.44 445.04 171.96C446.36 172.56 448.4 173.04 449.96 173.04 453.6 173.04 455.56 170.72 455.56 168.32 455.56 165 453.12 163.84 449.28 162.44 445.4 160.92 442.28 159.44 442.28 155.24 442.28 151.72 444.92 148.44 450.52 148.44 452.72 148.4 454.08 148.6 455.2 148.88L457.28 148.28 457.28 156.16 455.68 156.16 454.56 151.04C453.24 150.44 451.44 150.04 450 150.04 446.76 150.04 445.16 152.04 445.16 154.2 445.16 157.44 447.8 158.44 451.32 159.84 455.36 161.32 458.52 162.84 458.52 167.24zM475.32 168.92C475.32 171.84 472.96 174.6 468.36 174.6 466.48 174.6 464.6 174.36 463.16 173.76L462.92 168.6 464.72 168.6 465.56 172.16C466.48 172.8 467.56 173.2 468.84 173.2 470.8 173.2 472.8 171.88 472.8 169.84 472.8 167.84 470.64 167.04 468.32 166.2 465.68 165.24 463.04 164.04 463.04 160.68 463.04 158 465.24 155.48 469.28 155.48 471.04 155.48 472.16 155.8 473.16 156.12L474.36 155.72 474.68 161.32 472.92 161.32 472.16 157.84C471.24 157.24 470.04 156.88 468.96 156.88 466.92 156.88 465.56 158.08 465.56 159.72 465.56 161.64 467.36 162.4 469.96 163.36 472.64 164.32 475.32 165.56 475.32 168.92zM506.4 156.68L505.52 152.48C505.2 151 504.8 150.48 499.2 150.48L498.92 150.48 498.92 171.88C498.92 172.2 499.16 172.28 499.96 172.4L502.68 172.64 502.8 174 491.76 174 491.88 172.64 494.6 172.4C495.28 172.32 495.64 172.12 495.64 171.84L495.64 150.48 495.36 150.48C489.92 150.48 489.36 150.72 488.92 152.2L487.84 156.68 486.04 156.68 486.72 149 508.12 149 508.12 156.68 506.4 156.68zM522.44 172.32C521.16 173.64 519.12 174.6 517.36 174.6 514.64 174.6 512.76 173.08 512.8 169.4L513.04 158.12 509.88 157.96 509.92 156.8 512.64 155.16 514.52 152.64 515.92 152.8 515.88 156.2 522.36 156.2 522.08 158.04 515.88 158.04 515.64 168.68C515.52 171.36 516.72 172.32 518.84 172.32 519.92 172.32 521.12 171.88 522.2 171.28L522.44 172.32zM558.56 150.36L556.2 150.68C555.04 150.88 554.88 151.2 554.88 156.36L554.88 165.72C554.88 171.24 551.24 174.6 545.32 174.6 539.48 174.6 535.84 171.8 535.84 165.4L535.84 151.12C535.84 150.8 535.64 150.72 534.8 150.6L532.72 150.36 532.6 149 542.36 149 542.24 150.36 540.16 150.6C539.48 150.68 539.12 150.88 539.12 151.16L539.12 165C539.12 170.72 542.28 172.56 546.44 172.56 550.96 172.56 553.28 169.72 553.28 165.52L553.28 156.36C553.28 151.2 553.16 150.88 552 150.68L549.6 150.36 549.48 149 558.68 149 558.56 150.36zM581.04 173.88L575.04 174.6 575.04 171.68 574.84 171.68C572.8 173.4 570.68 174.6 568.44 174.6 567.2 174.6 566 174.2 565.08 173.28 564 172.28 563.6 170.76 563.6 168.88L563.68 158.24C563.68 157.64 563.48 157.8 562.4 157.64L560.88 157.48 560.76 156.16 566.72 156.16 566.44 166.96C566.44 170.96 567.88 172.16 570.28 172.16 572.16 172.16 573.92 171.08 575.04 170.12L575.04 158.24C575.04 157.88 574.88 157.76 573.96 157.64L571.96 157.48 571.84 156.16 577.92 156.16 577.92 171.52C577.92 171.96 578.04 172.2 578.28 172.28L581.16 172.92 581.04 173.88zM247.08 215.36L245.52 215.64C244.16 215.96 243.92 216.36 242.12 221.36L235.96 239.08 232.68 239.08 224.8 216.52C224.68 216.08 224.44 215.88 223.84 215.76L221.44 215.36 221.32 214 231.6 214 231.48 215.36 229.2 215.64C228.12 215.84 228.36 216.24 229.12 218.64L235 236.2 235.36 236.2 240.36 221.36C241.96 216.68 241.56 215.68 240.12 215.56L238.6 215.36 238.48 214 247.2 214 247.08 215.36zM265.92 222.48L264.6 222.76C263.72 222.88 263.44 223.16 262.8 224.88L257.28 239.28 255.28 239.28 249.2 223.92C248.84 223.08 248.6 222.92 247.64 222.76L246.4 222.52 246.24 221.16 254.6 221.16 254.48 222.48 253 222.68C252.36 222.8 252 223 252.28 223.76L257 236 261.12 224.72C261.6 223.4 261.64 222.88 260.56 222.76L259 222.48 258.88 221.16 266.04 221.16 265.92 222.48zM310.44 215.36L309 215.64C307.76 216.04 307.56 216.2 305.84 221.36L300.24 239.08 297.92 239.08 292.12 221.8 292.04 221.8 286 239.08 283.64 239.08 276.2 216.52C276.08 216.08 275.84 215.88 275.24 215.76L272.88 215.36 272.76 214 283.04 214 282.92 215.36 280.64 215.64C279.64 215.8 279.76 216.28 280.56 218.64L285.56 234.88 285.72 234.88 291.16 219.44 290.2 216.52C290.08 216.08 289.84 215.88 289.2 215.76L286.92 215.36 286.8 214 296.96 214 296.84 215.36 294.48 215.64C293.56 215.8 293.64 216.4 294.4 218.64L299.68 234.92 299.8 234.88 303.84 221.36C305.44 216.32 305.24 216 303.84 215.68L301.76 215.36 301.64 214 310.56 214 310.44 215.36zM338.92 222.48L337.68 222.68C336.68 222.8 336.4 223.12 335.8 224.88L331.16 239.28 329.2 239.28 324.84 227.64 320.24 239.28 318.28 239.28 313 223.92C312.72 223.08 312.44 222.84 311.6 222.72L310.4 222.52 310.28 221.16 318.28 221.16 318.16 222.48 316.84 222.68C316.2 222.8 315.8 223.16 316.08 223.84L320.12 235.84 324 225.6 323.4 223.92C323.08 223.08 322.8 222.88 321.88 222.76L320.64 222.48 320.52 221.16 328.64 221.16 328.52 222.48 327.24 222.68C326.56 222.8 326.16 223.08 326.44 223.84L330.76 235.92 334.12 224.92C334.56 223.48 334.48 222.84 333.24 222.68L332 222.48 331.88 221.16 339.04 221.16 338.92 222.48zM361.32 239L361.44 237.64 363.44 237.4C364.68 237.24 364.2 236.52 362.76 234.32L358.32 227.64 358.16 227.64 353.16 235.2C352.16 236.6 352.32 237.2 353.28 237.36L355.04 237.64 355.2 239 346.48 239 346.6 237.64 348.4 237.36C349.36 237.08 349.88 236.56 350.84 235.28L357.2 226.44 350.24 216.52C349.96 216.16 349.48 215.8 349.12 215.76L347.04 215.36 346.88 214 356.84 214 356.72 215.36 354.76 215.6C353.44 215.8 353.92 216.48 355.32 218.68L359.2 224.44 359.36 224.44 363.76 217.76C364.64 216.48 364.6 215.76 363.68 215.6L361.84 215.36 361.72 214 370.36 214 370.24 215.36 368.48 215.64C367.52 215.92 366.92 216.44 366 217.72L360.32 225.68 367.96 236.48C368.24 236.84 368.64 237.12 369.08 237.24L371.16 237.64 371.28 239 361.32 239zM382.92 239L383.04 237.68 384.2 237.44C385.12 237.24 385.12 236.88 384.32 235.72L381.08 231.28 381.04 231.28 377.64 235.68C376.72 236.92 376.64 237.32 377.72 237.44L379.04 237.68 379.16 239 371.84 239 371.96 237.68 373.32 237.44C374.16 237.32 374.56 236.88 375.8 235.48L380.12 230.24 375.8 224.64C374.72 223.24 374.28 222.88 373.36 222.76L372.2 222.48 372.08 221.16 380.24 221.16 380.12 222.48 378.96 222.72C378.04 222.84 378.12 223.24 378.96 224.4L381.84 228.36 381.88 228.36 384.88 224.44C385.8 223.28 385.88 222.84 384.8 222.72L383.48 222.48 383.36 221.16 390.76 221.16 390.64 222.48 389.28 222.72C388.28 222.84 387.92 223.24 386.76 224.64L382.8 229.4 387.44 235.48C388.52 236.88 389 237.24 389.8 237.4L390.92 237.64 391.04 239 382.92 239zM423.04 215.36L421.84 215.56C420.76 215.88 420.08 216.24 419.12 217.72L412.84 228.12 412.84 236.88C412.84 237.2 413.04 237.28 413.88 237.4L416.6 237.64 416.72 239 405.64 239 405.76 237.64 408.52 237.4C409.2 237.32 409.56 237.12 409.56 236.84L409.56 228.52 402.12 216.76C401.8 216.32 401.24 215.8 400.48 215.64L398.84 215.36 398.72 214 408.48 214 408.36 215.36 406.36 215.6C405.44 215.72 405.52 216.48 406.84 218.68L411.64 226.64 411.84 226.64 417.04 217.76C417.88 216.36 417.72 215.76 416.72 215.56L415.2 215.36 415.08 214 423.16 214 423.04 215.36zM441.88 222.48L440.56 222.76C439.72 222.88 439.4 223.16 438.72 224.88L433.84 238.16 431.92 244.24C430.8 247.72 429.6 249.48 427.24 249.48 425.64 249.48 424.64 248.64 424.64 247.4 424.64 246.28 425.24 245.4 426.52 245.4 427.76 245.4 428.36 246 428.8 246.84 429.48 246.52 429.96 245.56 430.56 243.76L432.08 239.4 432.08 239.36 425.12 223.92C424.76 223.12 424.6 222.92 423.6 222.76L422.44 222.52 422.28 221.16 430.52 221.16 430.4 222.48 429.04 222.68C428.4 222.72 428.04 223 428.36 223.76L433.32 235.56 437.12 224.72C437.56 223.32 437.44 222.88 436.36 222.76L434.88 222.48 434.76 221.16 442 221.16 441.88 222.48zM469.64 239L450.4 239 450.4 237.64 466.16 215.64 466.16 215.48 461.64 215.48C454.44 215.48 454.08 215.96 453.56 217.76L452.76 221.4 451.16 221.4 451.16 214 470.04 214 470.04 215.4 454.32 237.4 454.28 237.56 458.84 237.52C466.64 237.52 467.12 237.08 467.64 235.48L468.64 231.52 470.48 231.52 469.64 239zM476.88 237.6L478.6 237.6C484.56 237.6 485.56 237.32 486.32 235.56L487.8 232.24 489.48 232.24 487.88 239 473.32 239 473.32 237.8 484.88 222.52 483.6 222.52C477.64 222.52 476.72 222.84 476.4 224.56L475.76 227.92 474 227.92 474 221.16 488.4 221.16 488.4 222.36 476.88 237.6z"/>
  </g>
</svg>
