<svg xmlns="http://www.w3.org/2000/svg" width="208" height="690"><g fill="none" fill-rule="evenodd"><path fill="#87E6D3" d="M0 144h208v402H0z"/><path fill="#78F5B8" d="M0 0h208v72H0z"/><path fill="#2C2C36" d="M66.455 35.24l-.4 3.04h2.7l.42-3.04h-2.72zm-.56 4.16l-.62 4.6h-1.24l.62-4.6h-1.98v-1.12h2.14l.4-3.04h-1.98v-1.12h2.14l.62-4.56h1.24l-.62 4.56h2.72l.6-4.56h1.24l-.6 4.56h1.88v1.12h-2.04l-.42 3.04h1.9v1.12h-2.06l-.62 4.6h-1.24l.62-4.6h-2.7zm10.03-9.84h8.56v1.36h-6.96v4.84h5.16v1.36h-5.16V44h-1.6V29.56zm11.37 0h8.56v1.36h-6.96v4.84h5.16v1.36h-5.16V44h-1.6V29.56zm18.17 1.24h-7.32v-1.24h9.16v.88l-6.1 13.56h-1.68l5.94-13.2zm14.99 9.8h-2.48V44h-1.44v-3.4h-6.64v-1.24l5.96-9.8h2.12v9.8h2.48v1.24zm-3.98-9.52l-5.06 8.28h5.12v-8.28h-.06zm13.93-.28h-7.32v-1.24h9.16v.88l-6.1 13.56h-1.68l5.94-13.2zm14.99 9.8h-2.48V44h-1.44v-3.4h-6.64v-1.24l5.96-9.8h2.12v9.8h2.48v1.24zm-3.98-9.52l-5.06 8.28h5.12v-8.28h-.06z"/><path fill="#7EEDC2" d="M0 72h208v72H0z"/><path fill="#FAFAFF" d="M65.905 107.24l-.4 3.04h2.7l.42-3.04h-2.72zm-.56 4.16l-.62 4.6h-1.24l.62-4.6h-1.98v-1.12h2.14l.4-3.04h-1.98v-1.12h2.14l.62-4.56h1.24l-.62 4.56h2.72l.6-4.56h1.24l-.6 4.56h1.88v1.12h-2.04l-.42 3.04h1.9v1.12h-2.06l-.62 4.6h-1.24l.62-4.6h-2.7zm10.03-9.84h8.56v1.36h-6.96v4.84h5.16v1.36h-5.16V116h-1.6v-14.44zm19.37 9.84l1.44.28c-.64 2.68-2.12 4.52-5.08 4.52-3.24 0-5.52-2.36-5.52-7.42 0-4.7 2.04-7.42 5.52-7.42 2.68 0 4.24 1.56 4.88 4.2l-1.48.44c-.52-2.04-1.44-3.28-3.6-3.28-2.08 0-3.72 1.92-3.72 6.06 0 4.18 1.64 6.06 4.04 6.06 2.22 0 3.08-1.68 3.52-3.44zm12.71-9.2l-.62 1.22c-.66-.52-1.34-.82-2.46-.82-2.28 0-4.4 1.88-4.44 6.04.88-.92 1.96-1.72 3.96-1.72 2.16 0 4.34 1.52 4.34 4.64 0 3.08-2.26 4.64-4.66 4.64-3 0-5.16-1.76-5.16-6.68 0-4.56 2.04-8.16 5.92-8.16 1.56 0 2.7.44 3.12.84zm-.74 9.4c0-2.24-1.5-3.44-3.02-3.44-1.76 0-3.6 1.44-3.72 3.08.08 2.04 1.4 3.72 3.48 3.72 2.04 0 3.26-1.4 3.26-3.36zm11.77-8.8h-7.32v-1.24h9.16v.88l-6.1 13.56h-1.68l5.94-13.2zm15.03 9.44c0 2.2-1.72 3.96-5.26 3.96s-5.26-1.76-5.26-3.96c0-1.84 1.44-3.12 3.16-3.92v-.04c-1.6-.6-2.56-1.82-2.56-3.32 0-2.36 2-3.6 4.66-3.6s4.66 1.24 4.66 3.6c0 1.5-.96 2.72-2.56 3.32v.04c1.72.62 3.16 1.96 3.16 3.92zm-9 0c0 1.28 1.12 2.72 3.74 2.72s3.74-1.44 3.74-2.72c0-1.68-1.72-2.52-4-3.28-1.76.76-3.48 1.6-3.48 3.28zm6.88-7.36c0-1.6-1.56-2.28-3.14-2.28s-3.14.68-3.14 2.28c0 1.56 1.96 2.44 3.14 2.78 1.6-.4 3.14-1.38 3.14-2.78zm13.93 9.88V116h-9.38v-1.52c2.5-5.06 7.88-5.36 7.88-9.24 0-1.68-1.08-2.64-2.92-2.64-2.08 0-3.16 1.68-3.4 3.14l-1.42-.32c.46-2 1.64-4.06 4.86-4.06 2.36 0 4.4 1.36 4.4 3.84 0 4.4-6.32 5.6-7.88 9.56h7.86z"/><path fill="#92DEDE" d="M0 546h208v72H0z"/><path fill="#FAFAFF" d="M65.905 581.24l-.4 3.04h2.7l.42-3.04h-2.72zm-.56 4.16l-.62 4.6h-1.24l.62-4.6h-1.98v-1.12h2.14l.4-3.04h-1.98v-1.12h2.14l.62-4.56h1.24l-.62 4.56h2.72l.6-4.56h1.24l-.6 4.56h1.88v1.12h-2.04l-.42 3.04h1.9v1.12h-2.06l-.62 4.6h-1.24l.62-4.6h-2.7zm10.03-9.84h8.56v1.36h-6.96v4.84h5.16v1.36h-5.16V590h-1.6v-14.44zM94.245 590h-6.4v-1.24h2.5v-11.74l-2.78.28v-.94c1-.3 2.14-.6 2.78-1h1.44v13.4h2.46V590zm3.65-2.64l1.16-.8c1.1 1.48 2.46 2.4 3.96 2.4 2.12 0 3.4-1.08 3.4-2.8 0-2.02-1.2-3.24-4.08-3.24h-1.42v-1.24h.86c2.88 0 4.12-.92 4.12-2.7 0-1.46-1.26-2.38-2.64-2.38-1.76 0-2.52.76-3.48 2l-1.18-.8c.98-1.36 2.34-2.44 4.66-2.44 2.56 0 4.16 1.32 4.16 3.6 0 1.74-1.12 2.76-2.24 3.2 2.28.88 2.76 2.52 2.76 3.84 0 2.46-1.9 4.2-4.92 4.2-2.76 0-4.44-1.72-5.12-2.84zm13.77 2l.62-1.22c.66.52 1.34.82 2.46.82 2.28 0 4.26-2.04 4.44-6.04-.88.92-1.96 1.72-3.96 1.72-2.16 0-4.34-1.52-4.34-4.64 0-3.08 2.26-4.64 4.66-4.64 3 0 5.16 1.76 5.16 6.68 0 4.56-2.04 8.16-5.92 8.16-1.56 0-2.7-.44-3.12-.84zm.74-9.4c0 2.24 1.5 3.44 3.02 3.44 1.76 0 3.12-1.16 3.68-2.68-.04-2.52-1.36-4.12-3.44-4.12-2.04 0-3.26 1.4-3.26 3.36zm19.99-3.76l-.62 1.22c-.66-.52-1.34-.82-2.46-.82-2.28 0-4.4 1.88-4.44 6.04.88-.92 1.96-1.72 3.96-1.72 2.16 0 4.34 1.52 4.34 4.64 0 3.08-2.26 4.64-4.66 4.64-3 0-5.16-1.76-5.16-6.68 0-4.56 2.04-8.16 5.92-8.16 1.56 0 2.7.44 3.12.84zm-.74 9.4c0-2.24-1.5-3.44-3.02-3.44-1.76 0-3.6 1.44-3.72 3.08.08 2.04 1.4 3.72 3.48 3.72 2.04 0 3.26-1.4 3.26-3.36zm5.13-10.04h8.66v1.36h-7.06v4.84h5.02v1.36h-5.02v5.52h7.46V590h-9.06v-14.44z"/><path fill="#8CD9E9" d="M0 618h208v72H0z"/><path fill="#FAFAFF" d="M64.795 653.24l-.4 3.04h2.7l.42-3.04h-2.72zm-.56 4.16l-.62 4.6h-1.24l.62-4.6h-1.98v-1.12h2.14l.4-3.04h-1.98v-1.12h2.14l.62-4.56h1.24l-.62 4.56h2.72l.6-4.56h1.24l-.6 4.56h1.88v1.12h-2.04l-.42 3.04h1.9v1.12h-2.06l-.62 4.6h-1.24l.62-4.6h-2.7zm19.39.84c0 2.2-1.72 3.96-5.26 3.96s-5.26-1.76-5.26-3.96c0-1.84 1.44-3.12 3.16-3.92v-.04c-1.6-.6-2.56-1.82-2.56-3.32 0-2.36 2-3.6 4.66-3.6s4.66 1.24 4.66 3.6c0 1.5-.96 2.72-2.56 3.32v.04c1.72.62 3.16 1.96 3.16 3.92zm-9 0c0 1.28 1.12 2.72 3.74 2.72s3.74-1.44 3.74-2.72c0-1.68-1.72-2.52-4-3.28-1.76.76-3.48 1.6-3.48 3.28zm6.88-7.36c0-1.6-1.56-2.28-3.14-2.28s-3.14.68-3.14 2.28c0 1.56 1.96 2.44 3.14 2.78 1.6-.4 3.14-1.38 3.14-2.78zm13.23 6.52l1.44.28c-.64 2.68-2.12 4.52-5.08 4.52-3.24 0-5.52-2.36-5.52-7.42 0-4.7 2.04-7.42 5.52-7.42 2.68 0 4.24 1.56 4.88 4.2l-1.48.44c-.52-2.04-1.44-3.28-3.6-3.28-2.08 0-3.72 1.92-3.72 6.06 0 4.18 1.64 6.06 4.04 6.06 2.22 0 3.08-1.68 3.52-3.44zm6.07-8.48v11.72h2.16c3.32 0 5.04-1.98 5.04-5.86 0-4.22-2-5.86-4.96-5.86h-2.24zm-1.6 13.08v-14.44h3.88c3.92 0 6.52 2.48 6.52 7.22 0 4.24-2.28 7.22-6.6 7.22h-3.8zm13.57-.64l.62-1.22c.66.52 1.34.82 2.46.82 2.28 0 4.26-2.04 4.44-6.04-.88.92-1.96 1.72-3.96 1.72-2.16 0-4.34-1.52-4.34-4.64 0-3.08 2.26-4.64 4.66-4.64 3 0 5.16 1.76 5.16 6.68 0 4.56-2.04 8.16-5.92 8.16-1.56 0-2.7-.44-3.12-.84zm.74-9.4c0 2.24 1.5 3.44 3.02 3.44 1.76 0 3.12-1.16 3.68-2.68-.04-2.52-1.36-4.12-3.44-4.12-2.04 0-3.26 1.4-3.26 3.36zm11.91-4.4h8.66v1.36h-7.06v4.84h5.02v1.36h-5.02v5.52h7.46V662h-9.06v-14.44zm12.29 13.8l.62-1.22c.66.52 1.34.82 2.46.82 2.28 0 4.26-2.04 4.44-6.04-.88.92-1.96 1.72-3.96 1.72-2.16 0-4.34-1.52-4.34-4.64 0-3.08 2.26-4.64 4.66-4.64 3 0 5.16 1.76 5.16 6.68 0 4.56-2.04 8.16-5.92 8.16-1.56 0-2.7-.44-3.12-.84zm.74-9.4c0 2.24 1.5 3.44 3.02 3.44 1.76 0 3.12-1.16 3.68-2.68-.04-2.52-1.36-4.12-3.44-4.12-2.04 0-3.26 1.4-3.26 3.36zm-72.55-472.72l-.4 3.04h2.7l.42-3.04h-2.72zm-.56 4.16l-.62 4.6h-1.24l.62-4.6h-1.98v-1.12h2.14l.4-3.04h-1.98v-1.12h2.14l.62-4.56h1.24l-.62 4.56h2.72l.6-4.56h1.24l-.6 4.56h1.88v1.12h-2.04l-.42 3.04h1.9v1.12h-2.06l-.62 4.6h-1.24l.62-4.6h-2.7zm10.03-9.84h8.56v1.36h-6.96v4.84h5.16v1.36h-5.16V188h-1.6v-14.44zm19.61.64l-.62 1.22c-.66-.52-1.34-.82-2.46-.82-2.28 0-4.4 1.88-4.44 6.04.88-.92 1.96-1.72 3.96-1.72 2.16 0 4.34 1.52 4.34 4.64 0 3.08-2.26 4.64-4.66 4.64-3 0-5.16-1.76-5.16-6.68 0-4.56 2.04-8.16 5.92-8.16 1.56 0 2.7.44 3.12.84zm-.74 9.4c0-2.24-1.5-3.44-3.02-3.44-1.76 0-3.6 1.44-3.72 3.08.08 2.04 1.4 3.72 3.48 3.72 2.04 0 3.26-1.4 3.26-3.36zm14.29 1h-2.48v3.4h-1.44v-3.4h-6.64v-1.24l5.96-9.8h2.12v9.8h2.48v1.24zm-3.98-9.52l-5.06 8.28h5.12v-8.28h-.06zm15.13 8.32l1.44.28c-.64 2.68-2.12 4.52-5.08 4.52-3.24 0-5.52-2.36-5.52-7.42 0-4.7 2.04-7.42 5.52-7.42 2.68 0 4.24 1.56 4.88 4.2l-1.48.44c-.52-2.04-1.44-3.28-3.6-3.28-2.08 0-3.72 1.92-3.72 6.06 0 4.18 1.64 6.06 4.04 6.06 2.22 0 3.08-1.68 3.52-3.44zm8.47-8.72l-2.08 7.44h4.38l-2.08-7.44h-.22zm-3.84 13.32h-1.68l4.44-14.44h2.38l4.44 14.44h-1.68l-1.36-4.52h-5.18l-1.36 4.52zm19.81 0h-6.4v-1.24h2.5v-11.74l-2.78.28v-.94c1-.3 2.14-.6 2.78-1h1.44v13.4h2.46V188z"/></g></svg>