<svg xmlns="http://www.w3.org/2000/svg" width="288" height="300"><g fill="none" fill-rule="evenodd"><path fill="#F66486" d="M0 0h288v300H0z"/><path fill="#000" fill-opacity=".1" d="M0 228h288v72H0z"/><path fill="#FFF" d="M109.142 267.996h-3.057l-.752 4.004h-.977l.752-4.004h-2.49v-.908h2.656l.811-4.307h-2.725v-.937h2.9l.772-4.063h.977l-.772 4.063h3.067l.771-4.063h.977l-.772 4.063h2.237v.937h-2.413l-.81 4.307h2.49v.908h-2.666l-.752 4.004h-.976l.752-4.004zm-2.891-.908h3.066l.81-4.307h-3.065l-.811 4.307zm18.458-1.729h-6.63V272h-1.202v-14.219h8.809v1.026h-7.607v5.527h6.63v1.025zm10.568-7.685v1.025h-.176c-.852 0-1.613.13-2.28.39a4.785 4.785 0 0 0-1.714 1.124 5.257 5.257 0 0 0-1.123 1.787c-.273.703-.436 1.494-.488 2.373.39-.547.89-.968 1.499-1.265.609-.296 1.287-.444 2.036-.444.684 0 1.281.125 1.792.376.511.25.938.59 1.28 1.02.341.43.597.928.766 1.495.17.566.254 1.162.254 1.787 0 .683-.096 1.321-.288 1.914a4.523 4.523 0 0 1-.835 1.538 3.959 3.959 0 0 1-1.328 1.025c-.521.251-1.107.376-1.758.376-.716 0-1.36-.136-1.929-.41a4.278 4.278 0 0 1-1.45-1.123 5.073 5.073 0 0 1-.913-1.66 6.322 6.322 0 0 1-.317-2.022v-1.26c0-1.21.138-2.31.415-3.3.276-.99.696-1.836 1.26-2.54a5.646 5.646 0 0 1 2.123-1.63c.853-.384 1.853-.576 2.998-.576h.176zm-2.431 5.996a3.674 3.674 0 0 0-2.896 1.436 2.85 2.85 0 0 0-.474.927V267c0 .658.09 1.245.269 1.763.179.517.423.957.732 1.318.31.361.673.638 1.09.83a3.18 3.18 0 0 0 1.347.288c.475 0 .902-.1 1.28-.298a2.87 2.87 0 0 0 .961-.82c.264-.348.466-.754.606-1.216.14-.462.21-.957.21-1.484 0-.501-.066-.977-.196-1.426a3.58 3.58 0 0 0-.58-1.182 2.789 2.789 0 0 0-.972-.805c-.391-.199-.85-.298-1.377-.298zm14.23-5.996v1.025h-.176c-.853 0-1.613.13-2.28.39a4.785 4.785 0 0 0-1.714 1.124 5.257 5.257 0 0 0-1.123 1.787c-.274.703-.437 1.494-.489 2.373.39-.547.89-.968 1.5-1.265.608-.296 1.287-.444 2.035-.444.684 0 1.281.125 1.792.376.511.25.938.59 1.28 1.02.341.43.597.928.766 1.495.17.566.254 1.162.254 1.787 0 .683-.096 1.321-.288 1.914a4.523 4.523 0 0 1-.835 1.538 3.959 3.959 0 0 1-1.328 1.025c-.52.251-1.107.376-1.758.376-.716 0-1.359-.136-1.929-.41a4.278 4.278 0 0 1-1.45-1.123 5.073 5.073 0 0 1-.913-1.66 6.322 6.322 0 0 1-.317-2.022v-1.26c0-1.21.138-2.31.415-3.3.277-.99.696-1.836 1.26-2.54a5.646 5.646 0 0 1 2.124-1.63c.853-.384 1.852-.576 2.998-.576h.175zm-2.432 5.996a3.674 3.674 0 0 0-2.896 1.436 2.85 2.85 0 0 0-.473.927V267c0 .658.09 1.245.268 1.763.18.517.423.957.733 1.318.309.361.672.638 1.089.83a3.18 3.18 0 0 0 1.347.288c.475 0 .902-.1 1.28-.298a2.87 2.87 0 0 0 .961-.82c.264-.348.466-.754.606-1.216.14-.462.21-.957.21-1.484 0-.501-.065-.977-.195-1.426a3.58 3.58 0 0 0-.582-1.182 2.789 2.789 0 0 0-.971-.805c-.39-.199-.85-.298-1.377-.298zm14.513 3.75h2.217v.986h-2.217V272h-1.172v-3.594h-6.69v-.664l6.583-9.96h1.279v9.638zm-6.426 0h5.254v-8.125l-.518.898-4.736 7.227zm19.425-5.977a3.301 3.301 0 0 1-.649 1.988c-.205.276-.45.524-.737.742a3.908 3.908 0 0 1-.957.532c.403.137.771.32 1.103.547.332.228.619.493.86.796a3.456 3.456 0 0 1 .751 2.182c0 .652-.117 1.224-.351 1.72a3.522 3.522 0 0 1-.962 1.24 4.193 4.193 0 0 1-1.436.751c-.55.17-1.14.254-1.772.254a6.067 6.067 0 0 1-1.792-.254 4.193 4.193 0 0 1-1.436-.752 3.473 3.473 0 0 1-.957-1.24c-.23-.495-.346-1.067-.346-1.719a3.56 3.56 0 0 1 .728-2.183c.23-.302.51-.567.84-.795.328-.228.694-.41 1.098-.547a3.818 3.818 0 0 1-.952-.532 3.382 3.382 0 0 1-1.353-2.73c0-.618.104-1.167.313-1.645.208-.479.498-.882.869-1.211a3.757 3.757 0 0 1 1.313-.747 5.176 5.176 0 0 1 1.655-.254c.586 0 1.133.085 1.641.254a3.8 3.8 0 0 1 1.323.747c.375.329.67.732.884 1.21.215.48.322 1.028.322 1.646zm-.8 6.797c0-.455-.087-.87-.26-1.245a2.845 2.845 0 0 0-.707-.957 3.23 3.23 0 0 0-1.07-.615 3.963 3.963 0 0 0-1.333-.22 3.98 3.98 0 0 0-1.347.22c-.41.146-.764.351-1.06.615a2.764 2.764 0 0 0-.693.957c-.166.374-.25.79-.25 1.245 0 .475.084.897.25 1.265.166.368.397.679.693.933.296.253.651.445 1.065.576.413.13.867.195 1.362.195.488 0 .936-.065 1.343-.195a3.06 3.06 0 0 0 1.06-.577c.299-.253.532-.564.698-.932.166-.368.249-.79.249-1.265zm-.371-6.806a2.769 2.769 0 0 0-.86-2.05 2.828 2.828 0 0 0-.947-.592 3.297 3.297 0 0 0-1.192-.21c-.43 0-.826.067-1.19.2a2.77 2.77 0 0 0-.943.567c-.264.244-.47.543-.62.898-.15.355-.225.75-.225 1.187 0 .423.073.805.22 1.147.146.342.351.633.615.874s.58.427.947.557c.368.13.77.195 1.206.195.43 0 .827-.065 1.192-.195.364-.13.68-.316.947-.557.267-.24.475-.532.625-.874a2.83 2.83 0 0 0 .225-1.147zm11.485-3.76v1.025h-.175c-.853 0-1.613.13-2.28.39a4.785 4.785 0 0 0-1.715 1.124 5.257 5.257 0 0 0-1.123 1.787c-.273.703-.436 1.494-.488 2.373.39-.547.89-.968 1.5-1.265.608-.296 1.286-.444 2.035-.444.684 0 1.281.125 1.792.376.511.25.938.59 1.28 1.02.341.43.597.928.766 1.495.17.566.254 1.162.254 1.787 0 .683-.096 1.321-.288 1.914a4.523 4.523 0 0 1-.835 1.538 3.959 3.959 0 0 1-1.328 1.025c-.521.251-1.107.376-1.758.376-.716 0-1.359-.136-1.929-.41a4.278 4.278 0 0 1-1.45-1.123 5.073 5.073 0 0 1-.913-1.66 6.322 6.322 0 0 1-.317-2.022v-1.26c0-1.21.138-2.31.415-3.3.276-.99.696-1.836 1.26-2.54a5.646 5.646 0 0 1 2.123-1.63c.853-.384 1.853-.576 2.999-.576h.175zm-2.431 5.996a3.674 3.674 0 0 0-2.896 1.436 2.85 2.85 0 0 0-.473.927V267c0 .658.089 1.245.268 1.763.18.517.423.957.732 1.318.31.361.673.638 1.09.83a3.18 3.18 0 0 0 1.347.288c.475 0 .902-.1 1.28-.298a2.87 2.87 0 0 0 .961-.82c.264-.348.466-.754.606-1.216.14-.462.21-.957.21-1.484 0-.501-.065-.977-.196-1.426a3.58 3.58 0 0 0-.58-1.182 2.789 2.789 0 0 0-.972-.805c-.391-.199-.85-.298-1.377-.298z"/></g></svg>