<svg xmlns="http://www.w3.org/2000/svg" width="569" height="232"><g fill="none" fill-rule="evenodd"><path fill="#8B949B" d="M2.82 9.6V20h-1.2V9.6h1.2zm0-2.28h-1.2V5.56h1.2v1.76zm8.994-1.96c3.62 0 5.7 3.16 5.7 7.42s-2.08 7.42-5.7 7.42-5.7-3.16-5.7-7.42 2.08-7.42 5.7-7.42zm0 13.76c2.66 0 4.38-2.28 4.38-6.34 0-4.06-1.72-6.34-4.38-6.34s-4.38 2.28-4.38 6.34c0 4.06 1.72 6.34 4.38 6.34zm8.035-2.78l1.22-.38c.56 2.2 1.84 3.16 4.12 3.16 1.8 0 2.88-1.14 2.88-2.88 0-3.88-7.82-2.36-7.82-7.14 0-2.14 1.48-3.74 4.16-3.74 2.28 0 3.96 1.24 4.62 3.46l-1.14.34c-.52-1.6-1.64-2.72-3.48-2.72-1.68 0-2.84.96-2.84 2.66 0 .98.28 1.68 2.94 2.68 4.06 1.52 4.88 2.52 4.88 4.6 0 2.46-2.06 3.82-4.4 3.82-2.76 0-4.34-1.22-5.14-3.86zM.64 46.34l1.22-.38c.56 2.2 1.84 3.16 4.12 3.16 1.8 0 2.88-1.14 2.88-2.88 0-3.88-7.82-2.36-7.82-7.14 0-2.14 1.48-3.74 4.16-3.74 2.28 0 3.96 1.24 4.62 3.46l-1.14.34c-.52-1.6-1.64-2.72-3.48-2.72-1.68 0-2.84.96-2.84 2.66 0 .98.28 1.68 2.94 2.68 4.06 1.52 4.88 2.52 4.88 4.6 0 2.46-2.06 3.82-4.4 3.82-2.76 0-4.34-1.22-5.14-3.86zM20.314 50h-1.16l-.16-1.26c-1.24.98-2.18 1.46-3.78 1.46-1.62 0-2.86-1-2.86-2.72 0-2.84 2.32-3.36 6.66-4.32v-.72c0-1.38-.6-2.08-2.38-2.08-1.24 0-2.26.68-3.02 1.88l-.8-.48c.9-1.68 2.18-2.36 3.86-2.36 2.36 0 3.48.96 3.48 3.26v5.44c0 .52.04 1.2.16 1.9zm-1.36-2.48v-3.4c-4.76 1.04-5.4 2.02-5.4 3.34 0 1.14.78 1.78 1.86 1.78 1.12 0 2.5-.66 3.54-1.72zM25.39 50h-1.2V39.6h1.2v1.64c1.12-1.16 2.04-1.84 3.56-1.84 2.16 0 3.08 1.24 3.08 3.5V50h-1.2v-6.98c0-1.72-.52-2.66-2.12-2.66-1.28 0-2 .78-3.32 1.98V50zm18.588 0h-1.32V35.56h8.48v1.08h-7.16v5.32h5.22v1.08h-5.22V50zm11.274 0h-1.2V39.6h1.2v1.98h.04c.56-1.28 1.68-2.18 3-2.18h.54v1.16h-.54c-1.32 0-3.04 1.56-3.04 3.56V50zm13.095 0h-1.16l-.16-1.26c-1.24.98-2.18 1.46-3.78 1.46-1.62 0-2.86-1-2.86-2.72 0-2.84 2.32-3.36 6.66-4.32v-.72c0-1.38-.6-2.08-2.38-2.08-1.24 0-2.26.68-3.02 1.88l-.8-.48c.9-1.68 2.18-2.36 3.86-2.36 2.36 0 3.48.96 3.48 3.26v5.44c0 .52.04 1.2.16 1.9zm-1.36-2.48v-3.4c-4.76 1.04-5.4 2.02-5.4 3.34 0 1.14.78 1.78 1.86 1.78 1.12 0 2.5-.66 3.54-1.72zM73.42 50h-1.2V39.6h1.2v1.64c1.12-1.16 2.04-1.84 3.56-1.84 2.16 0 3.08 1.24 3.08 3.5V50h-1.2v-6.98c0-1.72-.52-2.66-2.12-2.66-1.28 0-2 .78-3.32 1.98V50zm17.994-7.78l-1.1.3c-.54-1.2-1.32-2.16-2.7-2.16-1.96 0-3.28 1.22-3.28 4.44 0 2.66 1.2 4.44 3.28 4.44 1.48 0 2.28-.82 3.12-2.16l.96.46c-.88 1.48-2.1 2.66-4.08 2.66-2.92 0-4.48-2.26-4.48-5.4 0-3.58 1.8-5.4 4.48-5.4 1.96 0 3.18 1.1 3.8 2.82zm4.535-2.62V50h-1.2V39.6h1.2zm0-2.28h-1.2v-1.76h1.2v1.76zm2.834 10.78l.88-.62c.98 1.4 1.86 1.76 3.22 1.76 1.32 0 2.32-.86 2.32-1.98 0-3.02-6.12-1.32-6.12-5.02 0-1.96 1.54-2.84 3.3-2.84 1.74 0 2.84.68 3.58 1.88l-.92.64c-.7-.96-1.46-1.56-2.7-1.56-1.16 0-2.06.56-2.06 1.82 0 2.54 6.12 1.04 6.12 5.08 0 1.86-1.72 2.94-3.6 2.94-1.6 0-3.04-.64-4.02-2.1zm18.094-5.88l-1.1.3c-.54-1.2-1.32-2.16-2.7-2.16-1.96 0-3.28 1.22-3.28 4.44 0 2.66 1.2 4.44 3.28 4.44 1.48 0 2.28-.82 3.12-2.16l.96.46c-.88 1.48-2.1 2.66-4.08 2.66-2.92 0-4.48-2.26-4.48-5.4 0-3.58 1.8-5.4 4.48-5.4 1.96 0 3.18 1.1 3.8 2.82zm6.714-1.86c-2.14 0-3.08 1.62-3.08 4.44 0 2.82.94 4.44 3.08 4.44s3.08-1.62 3.08-4.44c0-2.82-.94-4.44-3.08-4.44zm0-.96c3.24 0 4.28 2.58 4.28 5.4 0 2.82-1.04 5.4-4.28 5.4s-4.28-2.58-4.28-5.4c0-2.82 1.04-5.4 4.28-5.4z"/><path fill="#222" d="M17.059 224H4.87l27.89-79.98h13.067L73.66 224H60.77l-7.5-22.324H24.559L17.059 224zm22.148-66.328h-.469l-11.25 34.043h22.969l-11.25-34.043zm69.805 67.324c-11.953 0-20.215-7.441-20.215-18.984 0-10.899 7.558-18.282 21.797-18.282h15.879v-5.859c0-7.207-4.746-10.547-12.246-10.547-7.442 0-10.665 2.93-11.778 7.031H91.141c.82-10.312 8.847-17.167 23.437-17.167 13.008 0 23.73 5.449 23.73 20.859V224H127v-8.027h-.527c-2.871 4.746-8.32 9.023-17.461 9.023zm3.515-9.96c7.852 0 13.946-5.099 13.946-12.013v-6.68h-14.414c-7.91 0-11.309 3.868-11.309 9.024 0 6.563 5.625 9.668 11.777 9.668zM198.02 29h-4.063l9.297-26.66h4.355L216.887 29h-4.297l-2.5-7.441h-9.57L198.02 29zm7.382-22.11h-.156l-3.75 11.348h7.656l-3.75-11.347zm21.407 22.442c-3.985 0-6.739-2.48-6.739-6.328 0-3.633 2.52-6.094 7.266-6.094h5.293v-1.953c0-2.402-1.582-3.516-4.082-3.516-2.48 0-3.555.977-3.926 2.344h-3.77c.274-3.437 2.95-5.723 7.813-5.723 4.336 0 7.91 1.817 7.91 6.954V29h-3.77v-2.676h-.175c-.957 1.582-2.774 3.008-5.82 3.008zm1.171-3.32c2.618 0 4.649-1.7 4.649-4.004V19.78h-4.805c-2.637 0-3.77 1.29-3.77 3.008 0 2.188 1.876 3.223 3.926 3.223zM252.414 29V2.34h10.371c4.492 0 7.559 2.422 7.559 6.562 0 3.301-1.836 5.176-4.356 5.86v.195c3.575.41 5.84 2.813 5.84 6.543 0 4.902-3.926 7.5-9.316 7.5h-10.098zm4.004-23.203v7.832h3.887c4.004 0 6.035-1.23 6.035-3.984 0-2.637-1.875-3.848-4.317-3.848h-5.605zm0 11.133v8.613h4.394c4.024 0 6.895-.84 6.895-4.18 0-2.949-2.129-4.433-5.332-4.433h-5.957zm31.016 12.363c-3.32 0-5.313-1.582-6.055-3.398h-.195V29h-3.829V.348h3.946v11.289h.195c.547-1.797 2.559-3.555 6.035-3.555 4.746 0 7.832 3.281 7.832 8.984v3.223c0 5.723-3.144 9.004-7.93 9.004zm-.938-3.496c2.871 0 4.883-1.934 4.883-6.055V17.73c0-4.003-1.895-6.152-4.961-6.152-3.145 0-5.117 2.207-5.117 5.762v3.047c0 3.164 2.11 5.41 5.195 5.41zm26.875-11.836v3.555c0 5.644 2.656 8.28 6.719 8.28 3.965 0 6.015-2.48 6.015-5.35h3.926v.292c0 4.219-3.261 8.809-10.078 8.809-6.562 0-10.644-4.258-10.644-12.012v-3.613c0-7.637 4.16-12.11 10.683-12.11 6.543 0 10.04 4.493 10.04 9.16v.294h-3.927c0-2.852-2.128-5.723-6.093-5.723s-6.64 2.852-6.64 8.418zm21.406 6.191v-3.027c0-5.488 3.34-9.102 8.75-9.102 5.215 0 7.97 3.243 8.047 6.68h-3.77c-.195-1.27-1.152-3.144-4.199-3.144-3.203 0-4.882 2.207-4.882 5.664v2.93c0 3.495 1.855 5.663 4.882 5.663 2.95 0 4.004-1.425 4.317-2.93h3.789c-.117 3.614-2.871 6.466-8.203 6.466-5.332 0-8.73-3.438-8.73-9.2zM366.34 2.34h8.945c8.594 0 11.777 5.488 11.777 13.3 0 7.696-3.066 13.36-11.777 13.36h-8.945V2.34zm4.023 3.652v19.336h4.551c5.41 0 8.008-3.027 8.008-9.629 0-5.781-2.129-9.707-8.008-9.707h-4.55zm29.2 2.07c3.32 0 5.253 1.602 5.937 3.38h.195V.347h3.946V29h-3.809v-3.281h-.195c-.528 1.777-2.676 3.554-6.153 3.554-4.726 0-7.851-3.32-7.851-8.789v-3.613c0-5.371 3.086-8.808 7.93-8.808zm.957 3.497c-3.008 0-4.903 2.148-4.903 5.937v2.324c0 3.848 1.953 5.977 5 5.977 3.067 0 5.078-2.149 5.078-5.703V16.91c0-3.164-2.148-5.351-5.175-5.351zm41.543 13.77V29h-16.387V2.34h16.387v3.672H429.68v7.676h11.68v3.515h-11.68v8.125h12.382zm14.042 4.023c-5.585 0-8.964-3.457-8.964-9.258v-2.832c0-5.82 3.71-9.239 8.691-9.239 5.078 0 8.691 3.575 8.691 9.239v2.441h-13.476v1.016c0 2.988 1.797 5.215 5.02 5.215 2.343 0 3.925-1.094 4.257-2.364h3.946c-.293 2.364-2.793 5.782-8.165 5.782zm-5.058-12.442h9.59v-.293c0-3.144-1.895-5.234-4.785-5.234-2.891 0-4.805 2.09-4.805 5.234v.293zM483.43 29h-4.024V2.34h16.172V6.03H483.43v8.262h11.113v3.633H483.43V29zm18.925 0V11.832h-3.437v-3.34h3.437v-2.05c0-4.044 1.934-5.801 6.622-5.801 1.074 0 2.128.097 2.48.136V3.98a20.87 20.87 0 0 0-1.855-.097c-2.344 0-3.36.683-3.36 2.89v1.72h4.746v3.339h-4.687V29h-3.946zm43.223-18.34h-3.945c-.45-3.437-3.086-5.117-6.172-5.117-3.77 0-6.797 2.48-6.797 8.32v3.477c0 5.137 2.207 8.476 6.758 8.476 3.75 0 6.348-2.285 6.348-5.351v-2.149h-6.426V14.88h10.312v5.41c0 3.828-2.558 9.258-10.234 9.258-7.285 0-10.8-4.942-10.8-12.188v-3.535c0-7.48 4.257-12.011 10.917-12.011 6.406 0 9.766 4.238 10.04 8.847zm13.652 22.695c3.457 0 5.176-1.835 5.176-4.902v-3.066h-.215c-.8 1.797-2.91 3.242-5.78 3.242-4.552 0-8.048-3.262-8.048-8.867v-2.793c0-5.606 3.477-8.887 8.028-8.887 3.066 0 5.273 1.68 5.957 3.418h.175V8.375h3.809v20.234c0 5.782-3.965 8.086-9.258 8.086-5.508 0-8.008-2.695-8.261-5.8h3.945c.293 1.406 1.894 2.46 4.472 2.46zm.293-21.777c-3.183 0-5.156 2.344-5.156 5.957v1.797c0 3.594 2.149 5.938 5.196 5.938 3.105 0 4.843-2.5 4.843-5.41v-2.794c0-2.968-1.836-5.488-4.883-5.488zM217.336 94h-4.024V82.145h-12.695V94h-4.023V67.34h4.023v11.094h12.696V67.34h4.023V94zm7.05 0V65.348h3.927v11.718h.214c.41-1.445 2.09-4.004 6.309-4.004 3.984 0 6.894 2.305 6.894 7.012V94h-3.945V81.324c0-3.164-1.758-4.648-4.355-4.648-3.301 0-5.118 2.48-5.118 5.86V94h-3.925zm37.227 0h-4.023V67.34h4.023V94zm7.442 0V73.375H273V94h-3.945zm-.723-26.855c0-1.524 1.113-2.618 2.676-2.618 1.62 0 2.734 1.094 2.734 2.618 0 1.503-1.113 2.597-2.734 2.597-1.543 0-2.676-1.094-2.676-2.597zm18.496 20h3.906c.079 2.226 1.836 3.515 3.887 3.515 2.5 0 4.219-1.347 4.219-4.531v-18.79h4.023v18.556c0 5.859-3.34 8.652-8.222 8.652-4.883 0-7.813-3.223-7.813-7.402zm22.637-20c0-1.524 1.113-2.618 2.676-2.618 1.62 0 2.734 1.094 2.734 2.618 0 1.503-1.113 2.597-2.734 2.597-1.543 0-2.676-1.094-2.676-2.597zm4.668 6.23v21.074c0 4.785-2.324 6.778-5.977 6.778-.683 0-1.68-.098-2.011-.157v-3.183c.312.058.8.097 1.25.097 2.011 0 2.793-1.093 2.793-3.574V73.375h3.945zm36.328-6.035l-9.785 11.406L350.949 94h-4.98l-8.281-12.324-3.106 3.34V94h-4.023V67.34h4.023v12.422h.176L345.87 67.34h4.59zm8.516 19.258V94h-3.946V65.348h3.946v17.011h.156l7.93-8.984h4.53l-7.91 8.926L372.122 94h-4.668l-6.719-9.18-1.757 1.778zm42.597 3.632V94h-15.996V67.34h4.024v22.89h11.972zm4.453 3.77V65.348h3.946V94h-3.946zm23.75 0h-3.632V67.34h4.003l8.399 19.082h.156l8.379-19.082h4.004V94h-3.652V75.328h-.215l-7.07 15.899h-3.067l-7.11-15.899h-.195V94zm28.34 0V73.375h3.906v3.34h.196c.469-1.485 1.816-3.653 5.586-3.653 3.125 0 5.058 1.66 5.703 3.868h.176c.8-1.973 2.773-3.868 6.27-3.868 4.198 0 6.737 2.383 6.737 6.485V94h-3.945V80.777c0-2.617-1.465-4.16-4.082-4.16-2.441 0-4.316 1.797-4.316 4.551V94h-3.868V80.895c0-2.676-1.64-4.278-4.16-4.278-2.46 0-4.257 1.738-4.257 4.512V94h-3.946zm48.36 0h-3.907V67.34h3.653l12.812 19.297h.195V67.34h3.907V94h-3.653l-12.832-19.355h-.175V94zm23.613 0V73.375h3.906v3.691h.195c.528-1.601 1.973-4.004 6.211-4.004 4.16 0 6.973 2.286 6.973 6.973V94h-3.945V81.285c0-3.144-1.66-4.61-4.258-4.61-3.418 0-5.137 2.5-5.137 5.86V94h-3.945zm-330.488 49.922v3.71c0 5.567 2.93 8.184 6.835 8.184 3.926 0 6.875-2.617 6.875-8.183v-3.711c0-5.567-2.949-8.399-6.875-8.399-3.906 0-6.835 2.832-6.835 8.399zm-4.063 3.691v-3.672c0-7.578 4.258-12.129 10.938-12.129 6.68 0 10.898 4.57 10.898 12.13v3.671c0 7.54-4.277 11.934-10.977 11.934-6.68 0-10.859-4.395-10.859-11.934zm35.781-9.59c5.254 0 9.024 3.477 9.024 9.278v2.715c0 5.957-3.77 9.336-9.024 9.336-5.332 0-9.043-3.34-9.043-9.336V147.3c0-5.625 3.77-9.278 9.043-9.278zm.02 3.438c-3.184 0-5.098 2.578-5.098 6.055v2.343c0 3.496 1.778 6.055 5.098 6.055 3.281 0 5.039-2.539 5.039-6.055v-2.343c0-3.477-1.856-6.055-5.04-6.055zm23.984-9.121h10.02c5.312 0 8.672 3.613 8.672 8.594 0 5.02-3.38 8.535-8.692 8.535h-5.976V159h-4.024v-26.66zm4.024 3.613v9.942h3.75c4.277 0 6.797-.958 6.797-4.961 0-3.184-1.856-4.98-5.04-4.98h-5.507zm29.59 23.34c-3.34 0-5.118-1.582-5.899-3.398h-.195v10.136h-3.946v-27.676h3.829v3.282h.195c.723-1.914 2.773-3.555 6.133-3.555 4.707 0 7.812 3.3 7.812 8.984v3.223c0 5.723-3.144 9.004-7.93 9.004zm-.977-3.496c2.89 0 4.922-1.934 4.922-6.094v-2.012c0-4.023-1.914-6.113-5-6.113-3.145 0-5.04 2.149-5.04 5.684v3.183c0 3.184 2.052 5.352 5.118 5.352zm22.89-8.3v-3.634c0-7.539 4.278-12.05 10.899-12.05 6.621 0 10.938 4.53 10.938 12.05v3.633c0 4.082-1.27 7.266-3.497 9.316l3.575 5.02h-4.278l-2.304-3.105c-1.29.507-2.793.82-4.434.82-6.621 0-10.898-4.512-10.898-12.05zm3.985-3.634v3.653c0 5.683 2.95 8.437 6.855 8.476.899 0 1.68-.137 2.422-.43l-3.418-4.648h4.18l2.012 2.54c1.133-1.368 1.816-3.321 1.816-5.938v-3.653c0-5.586-3.008-8.36-6.953-8.36-3.926 0-6.914 2.774-6.914 8.36zm30.644-5.781c3.184 0 5.293 1.523 6.114 3.535h.195v-3.242h3.828v27.676h-3.945v-10.196h-.195c-.762 1.875-2.793 3.438-6.055 3.438-4.805 0-7.774-3.418-7.774-8.945v-3.32c0-5.47 3.047-8.946 7.832-8.946zm1.075 3.516c-3.106 0-4.922 2.285-4.922 5.937v2.305c0 3.808 1.855 5.976 4.98 5.976 3.106 0 5.059-2.148 5.059-5.683v-3.184c0-3.183-2.09-5.351-5.117-5.351zm35.02-9.258c6.054 0 8.808 3.75 8.808 8.183 0 4.395-2.676 6.641-4.922 7.461L390.87 159h-4.55l-4.844-10.273h-5.88V159h-4.003v-26.66h9.98zm-5.977 12.91h5.293c3.476 0 5.351-1.621 5.351-4.57 0-3.164-2.09-4.785-5.215-4.785h-5.43v9.355zM396.69 159v-20.625h3.946v3.203h.195c.488-1.387 1.992-3.516 5.527-3.516.508 0 .977.06 1.368.118v3.75c-.352-.098-1.075-.137-1.758-.137-3.535 0-5.274 2.09-5.274 4.863V159h-4.004zm22.95-7.383h3.964c.235 2.344 2.325 4.317 6.23 4.317 3.556 0 5.743-1.621 5.743-4.18 0-2.05-1.387-3.164-4.277-3.867l-4.512-1.094c-3.32-.82-6.406-2.852-6.406-7.168 0-5.098 4.472-7.871 9.472-7.871 4.942 0 9.356 2.754 9.454 7.754h-3.907c-.214-2.285-2.03-4.18-5.605-4.18-3.145 0-5.352 1.445-5.352 3.965 0 1.758 1.211 3.008 3.711 3.594l4.473 1.093c4.043.977 6.992 2.872 6.992 7.383 0 5.254-4.297 8.184-10.137 8.184-7.285 0-9.746-4.336-9.843-7.93zm24.668-7.265c0-4.454 3.73-6.329 7.832-6.329 4.472 0 7.5 2.266 7.5 5.899h-3.594c-.137-1.367-1.406-2.774-4.024-2.774-2.304 0-3.925 1.036-3.925 2.832 0 2.325 2.87 2.618 5.175 3.028 3.829.664 6.914 1.875 6.914 5.781 0 4.16-3.3 6.563-8.378 6.563-4.747 0-7.891-2.207-7.891-5.88h3.848c.254 1.68 1.484 2.774 4.238 2.774 3.066 0 4.336-1.328 4.336-2.969 0-2.168-2.324-2.52-5.156-3.066-3.79-.762-6.875-1.797-6.875-5.86zM484.23 159h-4.023v-22.95h-7.91v-3.71h19.844v3.71h-7.91V159zm13.438-20.508v-5.156h3.887v5.156h4.629v3.34h-4.63v11.055c0 2.265.821 2.89 3.223 2.89.547 0 1.328-.039 1.66-.078v3.262c-.312.078-1.757.195-2.636.195-4.961 0-6.172-1.816-6.172-5.957v-11.367h-3.145v-3.34h3.184zm27.031-6.152v17.129c0 3.926 2.461 6.308 6.309 6.308 3.828 0 6.308-2.382 6.308-6.308v-17.13h4.024v17.403c0 5.899-4.14 9.805-10.332 9.805-6.192 0-10.332-3.965-10.332-9.863V132.34h4.023zm40.352 6.035V159h-3.887v-3.438h-.215c-.566 1.66-2.48 3.77-6.094 3.77-4.12 0-7.011-1.973-7.011-6.797v-14.16h3.945v13.047c0 3.3 1.973 4.297 4.297 4.297 2.832 0 5.039-2.012 5.039-4.61v-12.734h3.926zM207.59 224h-4.434l-9.355-26.66h4.61l6.933 21.777h.215l6.875-21.777h4.53L207.59 224zm18.262 0l-7.13-20.625h4.337l4.804 16.484h.176l5.215-16.484h4.18L230.05 224h-4.2zm33.164 0h-3.653l-7.226-26.66h4.531l4.629 20.41h.195l5.078-20.41h3.868l5.039 20.41h.214l4.63-20.41h4.53L273.606 224h-3.671l-5.352-19.883h-.195L259.016 224zm51.718-20.625L305.285 224h-3.965l-4.472-15.293h-.118L292.375 224h-4.004l-5.703-20.625h4.297l3.476 15.781h.157l4.336-15.781h3.71l4.434 15.781h.176l3.535-15.781h3.945zm32.93-6.035l-8.73 13.418L343.508 224h-4.746l-6.348-10h-.195l-6.367 10h-4.473l8.555-13.438-8.457-13.222h4.804l6.328 10.078h.196l6.27-10.078h4.59zM359.387 224l-4.63-7.344h-.136L349.992 224h-4.336l6.739-10.215-6.856-10.41h4.668l4.492 7.324h.176l4.629-7.324h4.433l-6.914 10.137L363.957 224h-4.57zm28.379 0h-4.024v-10.82l-8.906-15.84h4.531l6.309 11.562h.195l6.348-11.562h4.453l-8.906 15.781V224zm29.55-20.625s-7.109 20.273-7.148 20.39l-.527 1.426c-1.211 3.38-2.813 6.25-7.422 6.25-.88 0-1.817-.097-2.344-.195v-3.223c.332.079 1.074.118 1.582.118 2.48 0 3.438-1.114 3.945-3.047l.274-.918-7.442-20.801h4.356l5.176 16.738h.175l5.196-16.738h4.18zM429.836 224v-2.91l13.809-19.844v-.234h-13.36v-3.672h18.3v2.91l-13.73 19.844v.234h14.082V224h-19.101zm23.789 0v-2.598l10.625-14.336v-.214h-10.625v-3.477h15.469v2.754l-10.508 14.18v.214h10.644V224h-15.605z"/></g></svg>