<svg xmlns="http://www.w3.org/2000/svg" width="704" height="226"><defs><linearGradient id="a" x1="0%" y1="0%" y2="100%"><stop offset="0%" stop-color="#FFE696"/><stop offset="100%" stop-color="#84FAB0"/></linearGradient><linearGradient id="b" x1="0%" y1="0%" y2="100%"><stop offset="0%" stop-color="#84FAB0"/><stop offset="100%" stop-color="#8FD3F4"/></linearGradient><linearGradient id="c" x1="0%" y1="0%" y2="100%"><stop offset="0%" stop-color="#8FD3F4"/><stop offset="100%" stop-color="#FBC2EB"/></linearGradient><linearGradient id="d" x1="0%" y1="0%" y2="100%"><stop offset="0%" stop-color="#FBC2EB"/><stop offset="100%" stop-color="#B26AD7"/></linearGradient><linearGradient id="e" x1="0%" y1="0%" y2="100%"><stop offset="0%" stop-color="#B26AD7"/><stop offset="100%" stop-color="#F6406C"/></linearGradient><linearGradient id="f" x1="0%" y1="0%" y2="100%"><stop offset="0%" stop-color="#F6406C"/><stop offset="100%" stop-color="#FDA085"/></linearGradient></defs><g fill="none" fill-rule="evenodd"><path fill="url(#a)" d="M1 30h105v105H1z" transform="translate(0 -5)"/><path fill="url(#b)" d="M121 30h105v105H121z" transform="translate(0 -5)"/><path fill="url(#c)" d="M241 30h105v105H241z" transform="translate(0 -5)"/><path fill="url(#d)" d="M360 30h105v105H360z" transform="translate(0 -5)"/><path fill="url(#e)" d="M480 30h105v105H480z" transform="translate(0 -5)"/><path fill="url(#f)" d="M599 30h105v105H599z" transform="translate(0 -5)"/><path fill="#FFE696" d="M1 154h45v72H1z"/><path fill="#84FAB0" d="M61 154h105v72H61z"/><path fill="#8FD3F4" d="M181 154h105v72H181z"/><path fill="#FBC2EB" d="M300 154h105v72H300z"/><path fill="#B26AD7" d="M419 154h105v72H419z"/><path fill="#F6406C" d="M539 154h105v72H539z"/><path fill="#FDA085" d="M659 154h45v72h-45z"/><path fill="#FAFAFF" d="M124.128 4.836h2.916V9h-.792v-.792h-.024c-.444.612-1.308.912-2.268.912-1.968 0-3.384-1.416-3.384-4.452S121.992.216 123.96.216c1.464 0 2.592.696 3.12 2.544l-.912.18c-.432-1.38-1.152-1.908-2.16-1.908-1.272 0-2.472.864-2.472 3.636 0 2.772 1.2 3.636 2.472 3.636 1.416 0 2.076-.864 2.076-1.92v-.732h-1.956v-.816zM129.031 9V2.76h.864v1.236h.024c.48-.852.996-1.332 2.028-1.332v.864c-1.08.024-1.643.732-2.052 2.016V9h-.864zm8.264-1.68l.672.348c-.408.708-.984 1.452-2.4 1.452-1.392 0-2.712-.96-2.712-3.24 0-2.016 1.008-3.24 2.544-3.24 1.296 0 2.376.84 2.376 2.832v.576h-4.056c0 1.368.816 2.328 1.848 2.328.768 0 1.368-.408 1.728-1.056zm-3.552-2.016h3.168c0-1.152-.552-1.92-1.488-1.92-1.044 0-1.608.768-1.68 1.92zm9.74 2.016l.672.348c-.409.708-.984 1.452-2.4 1.452-1.392 0-2.713-.96-2.713-3.24 0-2.016 1.008-3.24 2.544-3.24 1.296 0 2.376.84 2.376 2.832v.576h-4.055c0 1.368.815 2.328 1.847 2.328.769 0 1.369-.408 1.728-1.056zm-3.553-2.016h3.168c0-1.152-.552-1.92-1.488-1.92-1.044 0-1.608.768-1.68 1.92zm5.888-2.544h.864v.84h.024c.492-.552 1.14-.96 1.848-.96.924 0 1.8.48 1.8 1.824V9h-.864V4.488c0-.828-.396-1.104-1.02-1.104-.648 0-1.392.528-1.788.948V9h-.864V2.76zM2.856 9V5.352L.192.336h1.056l2.088 3.972L5.424.336H6.48L3.816 5.352V9h-.96zm8.264-1.68l.671.348c-.408.708-.984 1.452-2.4 1.452C8 9.12 6.68 8.16 6.68 5.88c0-2.016 1.008-3.24 2.544-3.24 1.296 0 2.377.84 2.377 2.832v.576H7.544c0 1.368.816 2.328 1.848 2.328.768 0 1.367-.408 1.728-1.056zM7.568 5.304h3.168c0-1.152-.553-1.92-1.489-1.92-1.043 0-1.607.768-1.68 1.92zM13.622.336h.864V9h-.864V.336zm3.524 0h.864V9h-.864V.336zm6.979 5.544c0-1.608-.66-2.496-1.692-2.496s-1.692.888-1.692 2.496.66 2.496 1.692 2.496 1.692-.888 1.692-2.496zm.864 0c0 1.8-.852 3.24-2.556 3.24-1.704 0-2.556-1.44-2.556-3.24 0-1.8.852-3.24 2.556-3.24 1.704 0 2.556 1.44 2.556 3.24zM27.506 9l-1.692-6.24h.875l1.26 4.8h.024l1.225-4.8h.875l1.248 4.824h.024l1.212-4.824h.877L31.766 9h-.876l-1.248-4.824h-.024L28.381 9h-.877zm213.79 0V.336h3.192c1.512 0 2.424.96 2.424 2.136 0 .948-.42 1.632-1.464 1.992l.012.024c.972.24 1.668 1.104 1.668 2.184 0 1.296-.792 2.328-3.144 2.328h-2.688zm.96-4.128v3.312h1.8c1.416 0 2.112-.48 2.112-1.56 0-1.104-.888-1.752-2.256-1.752h-1.656zm0-3.72v2.904h1.68c1.452 0 2.016-.744 2.016-1.476 0-.972-.528-1.428-1.632-1.428h-2.064zm7.172-.816h.864V9h-.864V.336zM257.319 9h-.864v-.84h-.024c-.492.552-1.14.96-1.848.96-.924 0-1.8-.48-1.8-1.824V2.76h.864v4.512c0 .828.396 1.104 1.02 1.104.648 0 1.392-.528 1.788-.948V2.76h.864V9zm6.175-1.68l.672.348c-.407.708-.983 1.452-2.4 1.452-1.392 0-2.712-.96-2.712-3.24 0-2.016 1.009-3.24 2.545-3.24 1.296 0 2.375.84 2.375 2.832v.576h-4.055c0 1.368.816 2.328 1.848 2.328.767 0 1.368-.408 1.728-1.056zm-3.552-2.016h3.168c0-1.152-.552-1.92-1.488-1.92-1.043 0-1.608.768-1.68 1.92zM481.16 1.152v3.096h1.74c1.32 0 2.016-.492 2.016-1.584 0-1.164-.792-1.512-2.028-1.512h-1.728zm0 7.848h-.96V.336h2.784c1.872 0 2.892.84 2.892 2.28 0 1.224-.708 1.92-1.728 2.256L485.984 9h-1.044l-1.752-3.936h-2.028V9zm10.951-1.68l.673.348c-.409.708-.984 1.452-2.4 1.452-1.393 0-2.713-.96-2.713-3.24 0-2.016 1.009-3.24 2.545-3.24 1.296 0 2.375.84 2.375 2.832v.576h-4.055c0 1.368.815 2.328 1.848 2.328.767 0 1.368-.408 1.727-1.056zm-3.551-2.016h3.168c0-1.152-.553-1.92-1.488-1.92-1.045 0-1.608.768-1.68 1.92zM498.13.336h.864v7.296c0 .456-.024.912.048 1.368h-.792l-.12-.612c-.288.396-.9.732-1.644.732-1.104 0-2.556-.744-2.556-3.24 0-2.424 1.452-3.24 2.508-3.24.588 0 1.164.3 1.644.696l.048.024V.336zm0 7.2V4.248c-.468-.516-1.056-.864-1.572-.864-1.008 0-1.764.66-1.764 2.544 0 1.584.684 2.448 1.764 2.448.552 0 .96-.24 1.572-.84zM361.16 1.152V4.32h1.632c1.596 0 2.124-.552 2.124-1.584s-.612-1.584-1.908-1.584h-1.848zm0 7.848h-.96V.336h3.024c1.848 0 2.652 1.056 2.652 2.424 0 1.44-.996 2.376-3.18 2.376h-1.536V9zm10.963 0h-.863v-.84h-.024c-.493.552-1.14.96-1.849.96-.923 0-1.8-.48-1.8-1.824V2.76h.865v4.512c0 .828.396 1.104 1.02 1.104.648 0 1.392-.528 1.788-.948V2.76h.863V9zm2.096 0V2.76h.864v1.236h.024c.48-.852.996-1.332 2.028-1.332v.864c-1.08.024-1.644.732-2.052 2.016V9h-.864zm5.264 2.304h-.865V2.76h.865v.732h.024c.323-.468 1.02-.852 1.62-.852 1.103 0 2.555.744 2.555 3.24 0 2.424-1.452 3.24-2.507 3.24-.589 0-1.165-.3-1.644-.696l-.048-.024v2.904zm0-7.08v3.288c.467.516 1.055.864 1.572.864 1.007 0 1.763-.66 1.763-2.544 0-1.584-.683-2.448-1.763-2.448-.553 0-.96.24-1.572.84zm6.175-3.888h.864V9h-.864V.336zm7.207 6.984l.673.348c-.409.708-.985 1.452-2.4 1.452-1.392 0-2.712-.96-2.712-3.24 0-2.016 1.007-3.24 2.543-3.24 1.296 0 2.377.84 2.377 2.832v.576h-4.057c0 1.368.817 2.328 1.849 2.328.768 0 1.368-.408 1.728-1.056zm-3.552-2.016h3.168c0-1.152-.551-1.92-1.488-1.92-1.043 0-1.608.768-1.68 1.92zm212.259-.636c0 2.46.9 3.636 2.424 3.636s2.424-1.176 2.424-3.636-.9-3.636-2.424-3.636-2.424 1.176-2.424 3.636zm-.96 0c0-2.892 1.26-4.452 3.384-4.452 2.124 0 3.384 1.56 3.384 4.452s-1.26 4.452-3.384 4.452c-2.124 0-3.384-1.56-3.384-4.452zM609.032 9V2.76h.863v1.236h.024c.48-.852.996-1.332 2.029-1.332v.864c-1.08.024-1.644.732-2.053 2.016V9h-.863zm4.783-4.644l-.756-.396c.396-.72 1.164-1.32 2.34-1.32 1.056 0 2.16.504 2.16 1.872v3.144c0 .684.06 1.02.144 1.344h-.888l-.096-.864c-.432.48-1.128.984-2.064.984-.96 0-1.776-.576-1.776-1.716 0-1.368 1.044-2.052 3.816-2.544v-.336c0-.828-.54-1.14-1.284-1.14-.96 0-1.428.552-1.596.972zm2.88 2.988V5.628c-1.98.348-2.952.924-2.952 1.788 0 .576.552.96 1.032.96.624 0 1.416-.456 1.92-1.032zm2.935-4.584h.865v.84h.024c.491-.552 1.14-.96 1.847-.96.924 0 1.8.48 1.8 1.824V9h-.864V4.488c0-.828-.395-1.104-1.02-1.104-.648 0-1.392.528-1.788.948V9h-.864V2.76zm11.552-.24v.864c-.36 0-.744.06-.96.168.18.216.432.696.432 1.272 0 1.236-1.02 2.184-2.28 2.184-.504 0-.768-.072-1.104-.168-.336.096-.492.3-.492.576 0 .288.204.456.516.456 2.952 0 3.9.528 3.9 1.752 0 .912-.9 1.68-2.844 1.68-1.752 0-2.688-.48-2.688-1.512 0-.624.384-.924 1.056-1.272-.48-.144-.78-.516-.78-.888 0-.54.36-.768.84-1.068-.588-.444-.852-1.056-.852-1.74 0-1.32 1.032-2.184 2.364-2.184.672 0 1.14.144 1.548.432.372-.264.876-.504 1.344-.552zm-.804 7.14c-.012-.612-.636-.924-2.16-.924-1.356 0-1.74.6-1.74 1.044 0 .468.288.78 2.016.78 1.032 0 1.872-.288 1.884-.9zm-.54-4.788c0-.912-.528-1.488-1.584-1.488-.984 0-1.512.624-1.512 1.44 0 .828.648 1.44 1.608 1.44.984 0 1.488-.648 1.488-1.392zm6.692 2.448l.672.348c-.409.708-.985 1.452-2.4 1.452-1.393 0-2.712-.96-2.712-3.24 0-2.016 1.007-3.24 2.543-3.24 1.296 0 2.376.84 2.376 2.832v.576h-4.056c0 1.368.817 2.328 1.849 2.328.767 0 1.367-.408 1.727-1.056zm-3.553-2.016h3.168c0-1.152-.552-1.92-1.487-1.92-1.044 0-1.609.768-1.68 1.92z"/></g></svg>