<svg xmlns="http://www.w3.org/2000/svg" width="278" height="1029"><defs><linearGradient id="a" x1="60.361%" x2="60.361%" y1="130.842%" y2="-72.613%"><stop offset="0%" stop-color="#F341C3"/><stop offset="100%" stop-color="#FC4748"/></linearGradient><linearGradient id="b" x1="58.831%" x2="58.831%" y1="137.497%" y2="0%"><stop offset="0%" stop-color="#F341C3"/><stop offset="100%" stop-color="#FC4748"/></linearGradient><linearGradient id="c" x1="53.794%" x2="53.794%" y1="100%" y2="-179.275%"><stop offset="0%" stop-color="#F341C3"/><stop offset="100%" stop-color="#FC4748"/></linearGradient><linearGradient id="d" x1="50%" x2="50%" y1="100%" y2="-101.663%"><stop offset="0%" stop-color="#F341C3"/><stop offset="100%" stop-color="#FC4748"/></linearGradient></defs><g fill="none" fill-rule="evenodd"><path fill="#D7D7DE" fill-rule="nonzero" d="M54 936v-2h12v2H54zm20 0v-2h12v2H74zm20 0v-2h12v2H94zm20 0v-2h12v2h-12zm20 0v-2h12v2h-12zm20 0v-2h12v2h-12zm20 0v-2h12v2h-12zm20 0v-2h12v2h-12zm20 0v-2h12v2h-12zm20 0v-2h12v2h-12zm20 0v-2h12v2h-12zm20 0v-2h3v2h-3z"/><path fill="url(#a)" fill-rule="nonzero" d="M185.447 63.722a.853.853 0 0 0 .016 0h-.016zm-.821.778c-.601.777-1.245 1.996-1.92 3.634-1.121 2.728-1.987 5.52-3.896 12.22-1.954 6.862-2.841 9.722-4.044 12.645-1.84 4.473-3.71 6.89-6.464 6.89-3.745 0-5.95-1.78-9.314-6.165l-.587-.768c-2.56-3.345-4.001-4.672-6.038-5.183-3.466-.869-5.44-3.28-7.622-7.867-.197-.414-.859-1.841-.988-2.115-1.322-2.793-2.118-3.735-2.923-3.735-.579 0-1.071.534-2.004 2.455-.016.033-.751 1.582-.991 2.061-2.404 4.788-5.422 7.13-10.907 6.671-3.096-.259-5.323-2.006-6.851-4.933-1.053-2.015-1.629-4.002-2.584-8.232l-.076-.336C115.722 64.235 114.53 62 111.642 62c-2.555 0-5.26 1.337-8.647 4.135-1.666 1.376-1.86 1.557-6.433 5.94-6.486 6.216-10.344 9.101-15.275 10.514-7.023 2.013-11.205 9.878-12.293 24.064a2 2 0 1 1-3.988-.306c1.201-15.666 6.177-25.023 15.179-27.603 4.094-1.173 7.587-3.785 13.61-9.557 4.68-4.485 4.873-4.666 6.652-6.136 4.037-3.335 7.51-5.051 11.195-5.051 3.198 0 5.515 1.644 7.076 4.57 1.059 1.985 1.607 3.887 2.6 8.292l.077.335c1.667 7.384 2.938 9.815 5.866 10.06 3.577.299 5.253-1.001 6.999-4.48.216-.431.935-1.945.968-2.013 1.559-3.21 2.939-4.708 5.602-4.708 3.002 0 4.562 1.847 6.539 6.025.138.293.798 1.715.984 2.106 1.703 3.58 3.047 5.221 4.983 5.706 3.21.805 5.15 2.592 8.241 6.632l.586.765c2.642 3.445 4.072 4.599 6.139 4.599.1 0 .393-.192.846-.777.6-.778 1.245-1.997 1.919-3.635 1.122-2.728 1.988-5.52 3.896-12.22 1.955-6.862 2.842-9.722 4.045-12.645 1.84-4.472 3.709-6.89 6.464-6.89 3.13 0 4.674 3.546 6.3 10.992 1.043 4.777 1.789 9.508 3.406 20.865 1.602 11.247 2.34 15.934 3.354 20.576.626 2.866 1.25 5.027 1.872 6.457.29.664.563 1.131.787 1.384 1.86-.054 2.997-.702 4.777-2.448.15-.146 1.17-1.169 1.494-1.484 2.57-2.488 4.943-3.918 8.522-4.636 2.653-.532 4.013-2.548 6.25-8.437l.345-.908c2.504-6.57 4.429-9.581 8.506-11.217 5.836-2.341 11.677-4.099 17.522-5.271a2 2 0 1 1 .786 3.921c-5.601 1.124-11.207 2.811-16.818 5.062-2.667 1.07-4.143 3.38-6.258 8.93l-.344.903c-1.273 3.355-1.998 4.979-3.109 6.625-1.566 2.32-3.532 3.8-6.093 4.314-2.734.548-4.463 1.59-6.526 3.588-.294.285-1.302 1.295-1.476 1.466-2.54 2.491-4.591 3.596-7.844 3.596-3.13 0-4.674-3.545-6.3-10.992-1.044-4.776-1.79-9.507-3.407-20.865-1.602-11.247-2.34-15.934-3.354-20.576-.626-2.865-1.25-5.027-1.872-6.456-.258-.593-.504-1.03-.713-1.297-.15.108-.37.32-.653.686z" transform="translate(0 844)"/><path fill="#2C2C36" d="M.588 856.946c0-2.898 1.008-5.194 3.682-5.194s3.682 2.296 3.682 5.194-1.008 5.194-3.682 5.194-3.682-2.296-3.682-5.194zm1.82 0c0 2.758.756 3.682 1.862 3.682s1.862-.924 1.862-3.682-.756-3.682-1.862-3.682-1.862.924-1.862 3.682zm9.74 5.054h-1.932v-1.988h1.932V862zm3.412-3.724h3.15v-4.508h-.028l-3.122 4.508zm-1.4 1.4v-1.778l4.312-6.006h1.974v6.384h1.428v1.4h-1.428V862H18.71v-2.324h-4.55zm11.714-7.784a2.518 2.518 0 0 1 2.52 2.52 2.518 2.518 0 0 1-2.52 2.52 2.518 2.518 0 0 1-2.52-2.52 2.518 2.518 0 0 1 2.52-2.52zm0 1.372c-.63 0-1.148.546-1.148 1.148 0 .602.518 1.148 1.148 1.148.63 0 1.148-.546 1.148-1.148 0-.602-.518-1.148-1.148-1.148zm6.454 3.696a2.518 2.518 0 0 1 2.52 2.52 2.518 2.518 0 0 1-2.52 2.52 2.518 2.518 0 0 1-2.52-2.52 2.518 2.518 0 0 1 2.52-2.52zm0 1.372c-.63 0-1.148.546-1.148 1.148 0 .602.518 1.148 1.148 1.148.63 0 1.148-.546 1.148-1.148 0-.602-.518-1.148-1.148-1.148zm-6.692 3.808l5.81-10.388h1.19l-5.81 10.388h-1.19zm-12.048 140.806c0-2.898 1.008-5.194 3.682-5.194s3.682 2.296 3.682 5.194-1.008 5.194-3.682 5.194-3.682-2.296-3.682-5.194zm1.82 0c0 2.758.756 3.682 1.862 3.682s1.862-.924 1.862-3.682-.756-3.682-1.862-3.682-1.862.924-1.862 3.682zm9.642-5.054a2.518 2.518 0 0 1 2.52 2.52 2.518 2.518 0 0 1-2.52 2.52 2.518 2.518 0 0 1-2.52-2.52 2.518 2.518 0 0 1 2.52-2.52zm0 1.372c-.63 0-1.148.546-1.148 1.148 0 .602.518 1.148 1.148 1.148.63 0 1.148-.546 1.148-1.148 0-.602-.518-1.148-1.148-1.148zm6.454 3.696a2.518 2.518 0 0 1 2.52 2.52 2.518 2.518 0 0 1-2.52 2.52 2.518 2.518 0 0 1-2.52-2.52 2.518 2.518 0 0 1 2.52-2.52zm0 1.372c-.63 0-1.148.546-1.148 1.148 0 .602.518 1.148 1.148 1.148.63 0 1.148-.546 1.148-1.148 0-.602-.518-1.148-1.148-1.148zm-6.692 3.808l5.81-10.388h1.19l-5.81 10.388h-1.19zm40.428 13.212l-.864.192c-.216-.84-.9-1.512-2.016-1.512-1.008 0-1.608.48-1.62 1.344-.024 1.896 4.872 1.416 4.872 4.2 0 1.26-.708 2.544-2.916 2.544-1.896 0-2.64-1.224-3.096-2.256l.876-.312c.348.912.996 1.752 2.268 1.752 1.272 0 1.908-.672 1.908-1.56 0-2.208-4.872-1.56-4.872-4.296 0-1.248 1.044-2.232 2.604-2.232 1.344 0 2.4.708 2.856 2.136zm6.284 3.528c0-1.608-.66-2.496-1.692-2.496s-1.692.888-1.692 2.496.66 2.496 1.692 2.496 1.692-.888 1.692-2.496zm.864 0c0 1.8-.852 3.24-2.556 3.24-1.704 0-2.556-1.44-2.556-3.24 0-1.8.852-3.24 2.556-3.24 1.704 0 2.556 1.44 2.556 3.24zm6.26-1.548l-.804.288c-.24-.756-.732-1.236-1.476-1.236-1.068 0-1.692.912-1.692 2.496s.624 2.496 1.692 2.496c.792 0 1.236-.264 1.716-1.152l.696.312c-.624 1.056-1.176 1.584-2.412 1.584-1.56 0-2.556-1.224-2.556-3.24s.996-3.24 2.556-3.24c1.284 0 1.884.72 2.28 1.692zm2.42 4.668v-6.24h.864v6.24h-.864zm0-8.784h.864v1.032h-.864v-1.032zm4.04 4.14l-.756-.396c.396-.72 1.164-1.32 2.34-1.32 1.056 0 2.16.504 2.16 1.872v3.144c0 .684.06 1.02.144 1.344h-.888l-.096-.864c-.432.48-1.128.984-2.064.984-.96 0-1.776-.576-1.776-1.716 0-1.368 1.044-2.052 3.816-2.544v-.336c0-.828-.54-1.14-1.284-1.14-.96 0-1.428.552-1.596.972zm2.88 2.988v-1.716c-1.98.348-2.952.924-2.952 1.788 0 .576.552.96 1.032.96.624 0 1.416-.456 1.92-1.032zm3.416-7.008h.864V1028h-.864v-8.664zm13 2.016l-.864.192c-.216-.84-.9-1.512-2.016-1.512-1.008 0-1.608.48-1.62 1.344-.024 1.896 4.872 1.416 4.872 4.2 0 1.26-.708 2.544-2.916 2.544-1.896 0-2.64-1.224-3.096-2.256l.876-.312c.348.912.996 1.752 2.268 1.752 1.272 0 1.908-.672 1.908-1.56 0-2.208-4.872-1.56-4.872-4.296 0-1.248 1.044-2.232 2.604-2.232 1.344 0 2.4.708 2.856 2.136zm2.66-2.016h.864v3.264h.024c.492-.552 1.14-.96 1.848-.96.924 0 1.8.48 1.8 1.824V1028h-.864v-4.512c0-.828-.396-1.104-1.02-1.104-.648 0-1.392.528-1.788.948V1028h-.864v-8.664zm7.544 4.02l-.756-.396c.396-.72 1.164-1.32 2.34-1.32 1.056 0 2.16.504 2.16 1.872v3.144c0 .684.06 1.02.144 1.344h-.888l-.096-.864c-.432.48-1.128.984-2.064.984-.96 0-1.776-.576-1.776-1.716 0-1.368 1.044-2.052 3.816-2.544v-.336c0-.828-.54-1.14-1.284-1.14-.96 0-1.428.552-1.596.972zm2.88 2.988v-1.716c-1.98.348-2.952.924-2.952 1.788 0 .576.552.96 1.032.96.624 0 1.416-.456 1.92-1.032zm3.02 1.656v-6.24h.864v1.236h.024c.48-.852.996-1.332 2.028-1.332v.864c-1.08.024-1.644.732-2.052 2.016V1028h-.864zm8.576-1.68l.672.348c-.408.708-.984 1.452-2.4 1.452-1.392 0-2.712-.96-2.712-3.24 0-2.016 1.008-3.24 2.544-3.24 1.296 0 2.376.84 2.376 2.832v.576h-4.056c0 1.368.816 2.328 1.848 2.328.768 0 1.368-.408 1.728-1.056zm-3.552-2.016h3.168c0-1.152-.552-1.92-1.488-1.92-1.044 0-1.608.768-1.68 1.92zm5.42 2.628l.684-.516c.408.588 1.008.96 1.788.96.936 0 1.344-.504 1.344-1.032 0-1.584-3.696-.744-3.624-3.024.036-1.08.864-1.692 2.064-1.68.816.012 1.716.456 2.136 1.092l-.6.528c-.48-.588-.936-.876-1.608-.876-.732 0-1.128.372-1.128.924 0 1.356 3.624.66 3.624 2.988 0 1.212-1.056 1.824-2.184 1.824-.972 0-1.92-.42-2.496-1.188zm13.204-1.68h-3.024v-.744h3.024v.744zm10.852 2.748h-3.84v-.744h1.5v-7.044l-1.668.168v-.564c.6-.18 1.284-.36 1.668-.6h.864v8.04h1.476v.744zm8.552-.744v.744h-5.628v-.912c1.5-3.036 4.728-3.216 4.728-5.544 0-1.008-.648-1.584-1.752-1.584-1.248 0-1.896 1.008-2.04 1.884l-.852-.192c.276-1.2.984-2.436 2.916-2.436 1.416 0 2.64.816 2.64 2.304 0 2.64-3.792 3.36-4.728 5.736h4.716zm14.272.744h-.864v-7.92h-.036l-2.424 7.92h-.744l-2.436-7.92h-.036v7.92h-.864v-8.664h1.488l2.208 7.008h.024l2.172-7.008h1.512V1028zm6.488-3.12c0-1.608-.66-2.496-1.692-2.496s-1.692.888-1.692 2.496.66 2.496 1.692 2.496 1.692-.888 1.692-2.496zm.864 0c0 1.8-.852 3.24-2.556 3.24-1.704 0-2.556-1.44-2.556-3.24 0-1.8.852-3.24 2.556-3.24 1.704 0 2.556 1.44 2.556 3.24zm2.012-3.12h.864v.84h.024c.492-.552 1.14-.96 1.848-.96.924 0 1.8.48 1.8 1.824V1028h-.864v-4.512c0-.828-.396-1.104-1.02-1.104-.648 0-1.392.528-1.788.948V1028h-.864v-6.24zm6.32 0h1.02v-2.052h.864v2.052h1.44v.744h-1.44v4.44c0 .288.204.432.708.432.288 0 .54-.024.768-.06v.708c-.156.048-.504.096-1.008.096-.936 0-1.332-.24-1.332-1.032v-4.584h-1.02v-.744zm5.348-2.424h.864v3.264h.024c.492-.552 1.14-.96 1.848-.96.924 0 1.8.48 1.8 1.824V1028h-.864v-4.512c0-.828-.396-1.104-1.02-1.104-.648 0-1.392.528-1.788.948V1028h-.864v-8.664zm6.392 7.596l.684-.516c.408.588 1.008.96 1.788.96.936 0 1.344-.504 1.344-1.032 0-1.584-3.696-.744-3.624-3.024.036-1.08.864-1.692 2.064-1.68.816.012 1.716.456 2.136 1.092l-.6.528c-.48-.588-.936-.876-1.608-.876-.732 0-1.128.372-1.128.924 0 1.356 3.624.66 3.624 2.988 0 1.212-1.056 1.824-2.184 1.824-.972 0-1.92-.42-2.496-1.188z"/><path fill="#48484F" d="M54.472 855.127c.37.026.66.335.66.712v145.734h221.482c.392 0 .71.32.71.714a.712.712 0 0 1-.71.713H43.548a.712.712 0 0 1-.71-.713c0-.394.318-.714.71-.714h10.164V856.427H42.71a.712.712 0 0 1-.71-.714c0-.394.318-.713.71-.713h11.357c.15 0 .29.047.405.127z"/><g><path fill="#D7D7DE" fill-rule="nonzero" d="M49 605v-2h12v2H49zm20 0v-2h12v2H69zm20 0v-2h12v2H89zm20 0v-2h12v2h-12zm20 0v-2h12v2h-12zm20 0v-2h12v2h-12zm20 0v-2h12v2h-12zm20 0v-2h12v2h-12zm20 0v-2h12v2h-12zm20 0v-2h12v2h-12zm20 0v-2h12v2h-12zm20 0v-2h3v2h-3z"/><path fill="url(#b)" fill-rule="nonzero" d="M59.957 83.12a2 2 0 1 1-3.914-.828c5.184-24.505 9.721-40.633 13.685-48.523C78.684 15.94 91.268 0 100.475 0c2.915 0 5.37 1.43 7.537 4.019 1.546 1.846 2.76 3.935 4.628 7.652.042.085.883 1.766 1.125 2.244 2.637 5.21 4.295 7.222 6.017 7.222 2.022 0 3.59-1.21 6.237-4.539.24-.302 1.079-1.37 1.123-1.425 4.153-5.261 7.081-7.487 11.947-7.487 4.677 0 7.595 3.635 12.067 12.44.23.45.463.915.774 1.534l.772 1.54c4.835 9.624 7.756 13.31 11.486 13.31 2.736 0 5.195-1.814 9.195-6.27 4.257-4.742 4.602-5.1 6.392-6.27 4.954-3.24 9.304-.721 13.262 7.944 3.041 6.66 5.023 15.301 7.131 28.974a763.3 763.3 0 0 1 .743 4.945l.716 4.86C204.535 90.304 206.93 98 210.525 98c3.745 0 7.54-4.976 13.175-16.192.2-.397 2.515-5.055 3.18-6.36 1.203-2.359 2.18-4.15 3.118-5.678 2.56-4.171 4.81-6.358 7.556-6.358 6.462 0 11.934 8.85 17.357 26.39a2 2 0 0 1-3.822 1.18c-4.875-15.767-9.7-23.57-13.535-23.57-.822 0-2.293 1.43-4.148 4.45-.872 1.422-1.803 3.13-2.961 5.402-.655 1.284-2.963 5.926-3.17 6.34-2.859 5.69-4.898 9.271-7.136 12.205-3.047 3.995-6.147 6.191-9.614 6.191-4.114 0-6.796-3.553-8.817-10.047-1.46-4.688-2.492-10.247-4.037-20.674-.15-1.01-.662-4.49-.717-4.862a759.619 759.619 0 0 0-.739-4.92c-2.053-13.318-3.976-21.702-6.816-27.921-3.077-6.736-5.002-7.85-7.435-6.26-1.346.881-1.725 1.275-5.605 5.597-4.748 5.289-7.876 7.597-12.17 7.597-3.41 0-6.327-1.864-9.02-5.262-1.933-2.439-3.492-5.177-6.042-10.252l-.773-1.543c-.307-.613-.539-1.072-.764-1.516-3.702-7.289-6.08-10.25-8.5-10.25-3.26 0-5.36 1.595-8.809 5.964-.037.047-.883 1.124-1.132 1.437-3.362 4.227-5.72 6.05-9.367 6.05-3.946 0-6.214-2.755-9.586-9.417-.247-.488-1.092-2.178-1.13-2.255C105.62 6.607 103.436 4 100.476 4 93.546 4 81.48 19.285 73.301 35.564c-3.76 7.483-8.232 23.382-13.345 47.556z" transform="translate(3 555)"/><path fill="#2C2C36" d="M4.232 568.268l.378-5.376h5.46v1.568H5.982l-.14 2.296c.322-.336.798-.588 1.89-.588 1.82 0 3.024 1.708 3.024 3.36 0 2.212-1.288 3.612-3.724 3.612-1.596 0-2.716-.756-3.276-1.89l1.512-.784c.308.714 1.106 1.134 1.792 1.148 1.288.042 1.876-.826 1.876-2.086 0-1.036-.658-1.848-1.722-1.848-.714 0-1.246.364-1.526.868l-1.456-.28zm8.41-.322c0-2.898 1.008-5.194 3.682-5.194s3.682 2.296 3.682 5.194-1.008 5.194-3.682 5.194-3.682-2.296-3.682-5.194zm1.82 0c0 2.758.756 3.682 1.862 3.682s1.862-.924 1.862-3.682-.756-3.682-1.862-3.682-1.862.924-1.862 3.682zm9.642-5.054a2.518 2.518 0 0 1 2.52 2.52 2.518 2.518 0 0 1-2.52 2.52 2.518 2.518 0 0 1-2.52-2.52 2.518 2.518 0 0 1 2.52-2.52zm0 1.372c-.63 0-1.148.546-1.148 1.148 0 .602.518 1.148 1.148 1.148.63 0 1.148-.546 1.148-1.148 0-.602-.518-1.148-1.148-1.148zm6.454 3.696a2.518 2.518 0 0 1 2.52 2.52 2.518 2.518 0 0 1-2.52 2.52 2.518 2.518 0 0 1-2.52-2.52 2.518 2.518 0 0 1 2.52-2.52zm0 1.372c-.63 0-1.148.546-1.148 1.148 0 .602.518 1.148 1.148 1.148.63 0 1.148-.546 1.148-1.148 0-.602-.518-1.148-1.148-1.148zm-6.692 3.808l5.81-10.388h1.19l-5.81 10.388h-1.19zM11.588 712.946c0-2.898 1.008-5.194 3.682-5.194s3.682 2.296 3.682 5.194-1.008 5.194-3.682 5.194-3.682-2.296-3.682-5.194zm1.82 0c0 2.758.756 3.682 1.862 3.682s1.862-.924 1.862-3.682-.756-3.682-1.862-3.682-1.862.924-1.862 3.682zm9.642-5.054a2.518 2.518 0 0 1 2.52 2.52 2.518 2.518 0 0 1-2.52 2.52 2.518 2.518 0 0 1-2.52-2.52 2.518 2.518 0 0 1 2.52-2.52zm0 1.372c-.63 0-1.148.546-1.148 1.148 0 .602.518 1.148 1.148 1.148.63 0 1.148-.546 1.148-1.148 0-.602-.518-1.148-1.148-1.148zm6.454 3.696a2.518 2.518 0 0 1 2.52 2.52 2.518 2.518 0 0 1-2.52 2.52 2.518 2.518 0 0 1-2.52-2.52 2.518 2.518 0 0 1 2.52-2.52zm0 1.372c-.63 0-1.148.546-1.148 1.148 0 .602.518 1.148 1.148 1.148.63 0 1.148-.546 1.148-1.148 0-.602-.518-1.148-1.148-1.148zm-6.692 3.808l5.81-10.388h1.19l-5.81 10.388h-1.19zm34.596 18.276l.696-.48c.66.888 1.476 1.44 2.376 1.44 1.272 0 2.04-.648 2.04-1.68 0-1.212-.72-1.944-2.448-1.944h-.852v-.744h.516c1.728 0 2.472-.552 2.472-1.62 0-.876-.756-1.428-1.584-1.428-1.056 0-1.512.456-2.088 1.2l-.708-.48c.588-.816 1.404-1.464 2.796-1.464 1.536 0 2.496.792 2.496 2.16 0 1.044-.672 1.656-1.344 1.92 1.368.528 1.656 1.512 1.656 2.304 0 1.476-1.14 2.52-2.952 2.52a3.591 3.591 0 0 1-3.072-1.704zm10.652-1.908v-2.748h.744v2.748h2.748v.744h-2.748V738h-.744v-2.748h-2.748v-.744h2.748zm10.792-4.356v3.168h1.632c1.596 0 2.124-.552 2.124-1.584s-.612-1.584-1.908-1.584h-1.848zm0 7.848h-.96v-8.664h3.024c1.848 0 2.652 1.056 2.652 2.424 0 1.44-.996 2.376-3.18 2.376h-1.536V738zm7.112-4.644l-.756-.396c.396-.72 1.164-1.32 2.34-1.32 1.056 0 2.16.504 2.16 1.872v3.144c0 .684.06 1.02.144 1.344h-.888l-.096-.864c-.432.48-1.128.984-2.064.984-.96 0-1.776-.576-1.776-1.716 0-1.368 1.044-2.052 3.816-2.544v-.336c0-.828-.54-1.14-1.284-1.14-.96 0-1.428.552-1.596.972zm2.88 2.988v-1.716c-1.98.348-2.952.924-2.952 1.788 0 .576.552.96 1.032.96.624 0 1.416-.456 1.92-1.032zm7.94-4.824v.864c-.36 0-.744.06-.96.168.18.216.432.696.432 1.272 0 1.236-1.02 2.184-2.28 2.184-.504 0-.768-.072-1.104-.168-.336.096-.492.3-.492.576 0 .288.204.456.516.456 2.952 0 3.9.528 3.9 1.752 0 .912-.9 1.68-2.844 1.68-1.752 0-2.688-.48-2.688-1.512 0-.624.384-.924 1.056-1.272-.48-.144-.78-.516-.78-.888 0-.54.36-.768.84-1.068-.588-.444-.852-1.056-.852-1.74 0-1.32 1.032-2.184 2.364-2.184.672 0 1.14.144 1.548.432.372-.264.876-.504 1.344-.552zm-.804 7.14c-.012-.612-.636-.924-2.16-.924-1.356 0-1.74.6-1.74 1.044 0 .468.288.78 2.016.78 1.032 0 1.872-.288 1.884-.9zm-.54-4.788c0-.912-.528-1.488-1.584-1.488-.984 0-1.512.624-1.512 1.44 0 .828.648 1.44 1.608 1.44.984 0 1.488-.648 1.488-1.392zm7.004 2.448l.672.348c-.408.708-.984 1.452-2.4 1.452-1.392 0-2.712-.96-2.712-3.24 0-2.016 1.008-3.24 2.544-3.24 1.296 0 2.376.84 2.376 2.832v.576h-4.056c0 1.368.816 2.328 1.848 2.328.768 0 1.368-.408 1.728-1.056zm-3.552-2.016h3.168c0-1.152-.552-1.92-1.488-1.92-1.044 0-1.608.768-1.68 1.92zM111.076 738l-2.676-8.664h.96l2.136 7.104h.024l2.148-7.104h.972L111.952 738h-.876zm5.516 0v-6.24h.864V738h-.864zm0-8.784h.864v1.032h-.864v-1.032zm7.52 7.104l.672.348c-.408.708-.984 1.452-2.4 1.452-1.392 0-2.712-.96-2.712-3.24 0-2.016 1.008-3.24 2.544-3.24 1.296 0 2.376.84 2.376 2.832v.576h-4.056c0 1.368.816 2.328 1.848 2.328.768 0 1.368-.408 1.728-1.056zm-3.552-2.016h3.168c0-1.152-.552-1.92-1.488-1.92-1.044 0-1.608.768-1.68 1.92zm7.016 3.696l-1.692-6.24h.876l1.26 4.8h.024l1.224-4.8h.876l1.248 4.824h.024l1.212-4.824h.876l-1.668 6.24h-.876l-1.248-4.824h-.024L128.452 738h-.876zm6.908-1.068l.684-.516c.408.588 1.008.96 1.788.96.936 0 1.344-.504 1.344-1.032 0-1.584-3.696-.744-3.624-3.024.036-1.08.864-1.692 2.064-1.68.816.012 1.716.456 2.136 1.092l-.6.528c-.48-.588-.936-.876-1.608-.876-.732 0-1.128.372-1.128.924 0 1.356 3.624.66 3.624 2.988 0 1.212-1.056 1.824-2.184 1.824-.972 0-1.92-.42-2.496-1.188zm13.204-1.68h-3.024v-.744h3.024v.744zM158.54 738h-3.84v-.744h1.5v-7.044l-1.668.168v-.564c.6-.18 1.284-.36 1.668-.6h.864v8.04h1.476V738zm8.552-.744V738h-5.628v-.912c1.5-3.036 4.728-3.216 4.728-5.544 0-1.008-.648-1.584-1.752-1.584-1.248 0-1.896 1.008-2.04 1.884l-.852-.192c.276-1.2.984-2.436 2.916-2.436 1.416 0 2.64.816 2.64 2.304 0 2.64-3.792 3.36-4.728 5.736h4.716zm14.272.744h-.864v-7.92h-.036L178.04 738h-.744l-2.436-7.92h-.036V738h-.864v-8.664h1.488l2.208 7.008h.024l2.172-7.008h1.512V738zm6.488-3.12c0-1.608-.66-2.496-1.692-2.496s-1.692.888-1.692 2.496.66 2.496 1.692 2.496 1.692-.888 1.692-2.496zm.864 0c0 1.8-.852 3.24-2.556 3.24-1.704 0-2.556-1.44-2.556-3.24 0-1.8.852-3.24 2.556-3.24 1.704 0 2.556 1.44 2.556 3.24zm2.012-3.12h.864v.84h.024c.492-.552 1.14-.96 1.848-.96.924 0 1.8.48 1.8 1.824V738h-.864v-4.512c0-.828-.396-1.104-1.02-1.104-.648 0-1.392.528-1.788.948V738h-.864v-6.24zm6.32 0h1.02v-2.052h.864v2.052h1.44v.744h-1.44v4.44c0 .288.204.432.708.432.288 0 .54-.024.768-.06v.708c-.156.048-.504.096-1.008.096-.936 0-1.332-.24-1.332-1.032v-4.584h-1.02v-.744zm5.348-2.424h.864v3.264h.024c.492-.552 1.14-.96 1.848-.96.924 0 1.8.48 1.8 1.824V738h-.864v-4.512c0-.828-.396-1.104-1.02-1.104-.648 0-1.392.528-1.788.948V738h-.864v-8.664zm6.392 7.596l.684-.516c.408.588 1.008.96 1.788.96.936 0 1.344-.504 1.344-1.032 0-1.584-3.696-.744-3.624-3.024.036-1.08.864-1.692 2.064-1.68.816.012 1.716.456 2.136 1.092l-.6.528c-.48-.588-.936-.876-1.608-.876-.732 0-1.128.372-1.128.924 0 1.356 3.624.66 3.624 2.988 0 1.212-1.056 1.824-2.184 1.824-.972 0-1.92-.42-2.496-1.188z"/><path fill="#48484F" d="M48.655 566.266c.374.025.67.334.67.711v145.735h224.729c.398 0 .72.32.72.713a.717.717 0 0 1-.72.713H37.57a.717.717 0 0 1-.72-.713c0-.394.322-.713.72-.713h10.314V567.565H36.72a.717.717 0 0 1-.72-.713c0-.394.322-.714.72-.714h11.524c.153 0 .295.047.411.128z"/></g><g><path fill="#D7D7DE" fill-rule="nonzero" d="M48 400v-2h12v2H48zm20 0v-2h12v2H68zm20 0v-2h12v2H88zm20 0v-2h12v2h-12zm20 0v-2h12v2h-12zm20 0v-2h12v2h-12zm20 0v-2h12v2h-12zm20 0v-2h12v2h-12zm20 0v-2h12v2h-12zm20 0v-2h12v2h-12zm20 0v-2h12v2h-12zm20 0v-2h3v2h-3z"/><path fill="url(#c)" fill-rule="nonzero" d="M53.1 140.11a2 2 0 0 1-2.2-3.34c4.136-2.724 8.336-4.106 12.57-4.106.92 0 2.107.043 3.857.134.9.046 4.54.25 5.244.288 6.653.359 11.646.499 16.659.375 3.786-.094 7.218-.345 10.285-.778 7.377-1.04 11.965-3.187 15.792-6.637 1.04-.938 4.2-4.22 4.111-4.134 3.052-3.013 4.475-4.206 6.576-5.128 2.995-1.315 6.09-1.016 9.312 1.105 2.66 1.751 4.633 4.025 9.096 9.901 4.14 5.452 5.99 7.584 8.11 8.98 3.13 2.06 7.499 3.401 11.714 3.212 5.384-.242 10.249-2.858 14.242-8.378 2.884-3.988 5.132-7.94 7.278-12.502.53-1.129 3.55-8.004 4.358-9.541 1.343-2.561 2.642-4.146 4.393-5.011 2.256-1.114 4.53-.518 6.866 1.288 1.453 1.122 1.927 1.62 5.316 5.366 2.266 2.505 3.653 3.846 5.097 4.797 5.1 3.357 11.997 3.357 19.044-.123 4.894-2.416 9.821-6.066 14.775-10.958a2 2 0 0 1 2.81 2.846c-5.242 5.178-10.511 9.08-15.814 11.699-8.246 4.072-16.643 4.072-23.014-.123-1.816-1.196-3.378-2.706-5.864-5.455-4.726-5.224-6.202-6.365-7.445-5.75-.817.403-1.637 1.404-2.622 3.282-.73 1.392-3.698 8.145-4.28 9.385-2.245 4.773-4.613 8.935-7.657 13.144-4.71 6.511-10.703 9.734-17.303 10.03-5.102.229-10.29-1.364-14.094-3.868-2.66-1.751-4.633-4.024-9.096-9.9-4.14-5.453-5.99-7.585-8.11-8.98-3.698-2.435-5.751-1.534-10.877 3.529.177-.175-3.079 3.207-4.244 4.257-4.418 3.984-9.744 6.476-17.911 7.628-3.234.456-6.816.719-10.745.816-5.14.127-10.225-.016-16.974-.38-.712-.038-4.345-.242-5.235-.288-1.685-.087-2.818-.128-3.65-.128-3.412 0-6.86 1.135-10.37 3.446z" transform="translate(7 274)"/><path fill="#2C2C36" d="M14.588 292H7.784v-1.666c.308-1.582 4.984-3.822 4.984-5.67 0-.882-.574-1.4-1.498-1.4-1.008 0-1.596.672-1.82 1.596l-1.624-.35c.21-1.554 1.666-2.758 3.472-2.758 1.778 0 3.29 1.022 3.29 2.912 0 2.464-2.268 3.472-4.788 5.768h4.788V292zm4.56 0h-1.932v-1.988h1.932V292zm2.264-5.054c0-2.898 1.008-5.194 3.682-5.194s3.682 2.296 3.682 5.194-1.008 5.194-3.682 5.194-3.682-2.296-3.682-5.194zm1.82 0c0 2.758.756 3.682 1.862 3.682s1.862-.924 1.862-3.682-.756-3.682-1.862-3.682-1.862.924-1.862 3.682zM13.986 437H9.044v-1.4h1.568v-6.972H8.82v-1.176c.924-.042 1.736-.252 2.198-.7h1.414v8.848h1.554v1.4zm5.162 0h-1.932v-1.988h1.932V437zm2.264-5.054c0-2.898 1.008-5.194 3.682-5.194s3.682 2.296 3.682 5.194-1.008 5.194-3.682 5.194-3.682-2.296-3.682-5.194zm1.82 0c0 2.758.756 3.682 1.862 3.682s1.862-.924 1.862-3.682-.756-3.682-1.862-3.682-1.862.924-1.862 3.682zm36.008 18.406l-.864.192c-.216-.84-.9-1.512-2.016-1.512-1.008 0-1.608.48-1.62 1.344-.024 1.896 4.872 1.416 4.872 4.2 0 1.26-.708 2.544-2.916 2.544-1.896 0-2.64-1.224-3.096-2.256l.876-.312c.348.912.996 1.752 2.268 1.752 1.272 0 1.908-.672 1.908-1.56 0-2.208-4.872-1.56-4.872-4.296 0-1.248 1.044-2.232 2.604-2.232 1.344 0 2.4.708 2.856 2.136zm6.512 4.968l.672.348c-.408.708-.984 1.452-2.4 1.452-1.392 0-2.712-.96-2.712-3.24 0-2.016 1.008-3.24 2.544-3.24 1.296 0 2.376.84 2.376 2.832v.576h-4.056c0 1.368.816 2.328 1.848 2.328.768 0 1.368-.408 1.728-1.056zm-3.552-2.016h3.168c0-1.152-.552-1.92-1.488-1.92-1.044 0-1.608.768-1.68 1.92zm5.42 2.628l.684-.516c.408.588 1.008.96 1.788.96.936 0 1.344-.504 1.344-1.032 0-1.584-3.696-.744-3.624-3.024.036-1.08.864-1.692 2.064-1.68.816.012 1.716.456 2.136 1.092l-.6.528c-.48-.588-.936-.876-1.608-.876-.732 0-1.128.372-1.128.924 0 1.356 3.624.66 3.624 2.988 0 1.212-1.056 1.824-2.184 1.824-.972 0-1.92-.42-2.496-1.188zm5.828 0l.684-.516c.408.588 1.008.96 1.788.96.936 0 1.344-.504 1.344-1.032 0-1.584-3.696-.744-3.624-3.024.036-1.08.864-1.692 2.064-1.68.816.012 1.716.456 2.136 1.092l-.6.528c-.48-.588-.936-.876-1.608-.876-.732 0-1.128.372-1.128.924 0 1.356 3.624.66 3.624 2.988 0 1.212-1.056 1.824-2.184 1.824-.972 0-1.92-.42-2.496-1.188zM80.224 457v-6.24h.864V457h-.864zm0-8.784h.864v1.032h-.864v-1.032zm7.292 5.664c0-1.608-.66-2.496-1.692-2.496s-1.692.888-1.692 2.496.66 2.496 1.692 2.496 1.692-.888 1.692-2.496zm.864 0c0 1.8-.852 3.24-2.556 3.24-1.704 0-2.556-1.44-2.556-3.24 0-1.8.852-3.24 2.556-3.24 1.704 0 2.556 1.44 2.556 3.24zm2.012-3.12h.864v.84h.024c.492-.552 1.14-.96 1.848-.96.924 0 1.8.48 1.8 1.824V457h-.864v-4.512c0-.828-.396-1.104-1.02-1.104-.648 0-1.392.528-1.788.948V457h-.864v-6.24zm6.392 5.172l.684-.516c.408.588 1.008.96 1.788.96.936 0 1.344-.504 1.344-1.032 0-1.584-3.696-.744-3.624-3.024.036-1.08.864-1.692 2.064-1.68.816.012 1.716.456 2.136 1.092l-.6.528c-.48-.588-.936-.876-1.608-.876-.732 0-1.128.372-1.128.924 0 1.356 3.624.66 3.624 2.988 0 1.212-1.056 1.824-2.184 1.824-.972 0-1.92-.42-2.496-1.188zm11.62 3.372h-.864v-8.544h.864v.732h.024c.324-.468 1.02-.852 1.62-.852 1.104 0 2.556.744 2.556 3.24 0 2.424-1.452 3.24-2.508 3.24-.588 0-1.164-.3-1.644-.696l-.048-.024v2.904zm0-7.08v3.288c.468.516 1.056.864 1.572.864 1.008 0 1.764-.66 1.764-2.544 0-1.584-.684-2.448-1.764-2.448-.552 0-.96.24-1.572.84zm10.172 3.096l.672.348c-.408.708-.984 1.452-2.4 1.452-1.392 0-2.712-.96-2.712-3.24 0-2.016 1.008-3.24 2.544-3.24 1.296 0 2.376.84 2.376 2.832v.576H115c0 1.368.816 2.328 1.848 2.328.768 0 1.368-.408 1.728-1.056zm-3.552-2.016h3.168c0-1.152-.552-1.92-1.488-1.92-1.044 0-1.608.768-1.68 1.92zm5.972 3.696v-6.24h.864v1.236h.024c.48-.852.996-1.332 2.028-1.332v.864c-1.08.024-1.644.732-2.052 2.016V457h-.864zm9.112-8.664h.96v6.12c0 1.008.72 1.848 2.076 1.848s2.076-.84 2.076-1.848v-6.12h.96v6.048c0 1.728-1.248 2.736-3.036 2.736s-3.036-1.008-3.036-2.736v-6.048zm8.156 7.596l.684-.516c.408.588 1.008.96 1.788.96.936 0 1.344-.504 1.344-1.032 0-1.584-3.696-.744-3.624-3.024.036-1.08.864-1.692 2.064-1.68.816.012 1.716.456 2.136 1.092l-.6.528c-.48-.588-.936-.876-1.608-.876-.732 0-1.128.372-1.128.924 0 1.356 3.624.66 3.624 2.988 0 1.212-1.056 1.824-2.184 1.824-.972 0-1.92-.42-2.496-1.188zm10.46-.612l.672.348c-.408.708-.984 1.452-2.4 1.452-1.392 0-2.712-.96-2.712-3.24 0-2.016 1.008-3.24 2.544-3.24 1.296 0 2.376.84 2.376 2.832v.576h-4.056c0 1.368.816 2.328 1.848 2.328.768 0 1.368-.408 1.728-1.056zm-3.552-2.016h3.168c0-1.152-.552-1.92-1.488-1.92-1.044 0-1.608.768-1.68 1.92zm5.972 3.696v-6.24h.864v1.236h.024c.48-.852.996-1.332 2.028-1.332v.864c-1.08.024-1.644.732-2.052 2.016V457h-.864zm11.32-2.748h-3.024v-.744h3.024v.744zM173.316 457h-3.84v-.744h1.5v-7.044l-1.668.168v-.564c.6-.18 1.284-.36 1.668-.6h.864v8.04h1.476V457zm8.552-.744V457h-5.628v-.912c1.5-3.036 4.728-3.216 4.728-5.544 0-1.008-.648-1.584-1.752-1.584-1.248 0-1.896 1.008-2.04 1.884l-.852-.192c.276-1.2.984-2.436 2.916-2.436 1.416 0 2.64.816 2.64 2.304 0 2.64-3.792 3.36-4.728 5.736h4.716zm14.272.744h-.864v-7.92h-.036l-2.424 7.92h-.744l-2.436-7.92h-.036V457h-.864v-8.664h1.488l2.208 7.008h.024l2.172-7.008h1.512V457zm6.488-3.12c0-1.608-.66-2.496-1.692-2.496s-1.692.888-1.692 2.496.66 2.496 1.692 2.496 1.692-.888 1.692-2.496zm.864 0c0 1.8-.852 3.24-2.556 3.24-1.704 0-2.556-1.44-2.556-3.24 0-1.8.852-3.24 2.556-3.24 1.704 0 2.556 1.44 2.556 3.24zm2.012-3.12h.864v.84h.024c.492-.552 1.14-.96 1.848-.96.924 0 1.8.48 1.8 1.824V457h-.864v-4.512c0-.828-.396-1.104-1.02-1.104-.648 0-1.392.528-1.788.948V457h-.864v-6.24zm6.32 0h1.02v-2.052h.864v2.052h1.44v.744h-1.44v4.44c0 .288.204.432.708.432.288 0 .54-.024.768-.06v.708c-.156.048-.504.096-1.008.096-.936 0-1.332-.24-1.332-1.032v-4.584h-1.02v-.744zm5.348-2.424h.864v3.264h.024c.492-.552 1.14-.96 1.848-.96.924 0 1.8.48 1.8 1.824V457h-.864v-4.512c0-.828-.396-1.104-1.02-1.104-.648 0-1.392.528-1.788.948V457h-.864v-8.664zm6.392 7.596l.684-.516c.408.588 1.008.96 1.788.96.936 0 1.344-.504 1.344-1.032 0-1.584-3.696-.744-3.624-3.024.036-1.08.864-1.692 2.064-1.68.816.012 1.716.456 2.136 1.092l-.6.528c-.48-.588-.936-.876-1.608-.876-.732 0-1.128.372-1.128.924 0 1.356 3.624.66 3.624 2.988 0 1.212-1.056 1.824-2.184 1.824-.972 0-1.92-.42-2.496-1.188z"/><path fill="#48484F" d="M48.472 285.127c.37.026.66.335.66.712v145.734h221.482c.392 0 .71.32.71.714a.712.712 0 0 1-.71.713H37.548a.712.712 0 0 1-.71-.713c0-.394.318-.714.71-.714h10.164V286.427H36.71a.712.712 0 0 1-.71-.714c0-.394.318-.713.71-.713h11.357c.15 0 .29.047.405.127z"/></g><g><path fill="#2C2C36" d="M9.716 6.394V4.882c1.484 0 2.716-.21 2.716-1.414 0-.728-.616-1.204-1.456-1.204-.854 0-1.428.476-1.932 1.008L7.84 2.18C8.82 1.144 9.884.752 10.92.752c1.848 0 3.332.896 3.332 2.604 0 1.008-.56 1.764-1.526 2.184 1.204.378 1.862 1.302 1.862 2.562 0 2.114-1.792 3.038-3.584 3.038-1.428 0-2.87-.672-3.57-1.96l1.456-.826c.49.826 1.162 1.274 2.128 1.274.896 0 1.75-.546 1.75-1.526 0-1.652-1.834-1.708-3.052-1.708zM18.868 11h-1.68V.892h2.716l1.946 7.056h.028l1.96-7.056h2.744V11h-1.68V3.048h-.028L22.606 11h-1.47l-2.24-7.952h-.028V11zM7.588 152.946c0-2.898 1.008-5.194 3.682-5.194s3.682 2.296 3.682 5.194-1.008 5.194-3.682 5.194-3.682-2.296-3.682-5.194zm1.82 0c0 2.758.756 3.682 1.862 3.682s1.862-.924 1.862-3.682-.756-3.682-1.862-3.682-1.862.924-1.862 3.682zm9.46 5.054h-1.68v-10.108h2.716l1.946 7.056h.028l1.96-7.056h2.744V158h-1.68v-7.952h-.028L22.606 158h-1.47l-2.24-7.952h-.028V158zm28.428 9.336h.96v6.12c0 1.008.72 1.848 2.076 1.848s2.076-.84 2.076-1.848v-6.12h.96v6.048c0 1.728-1.248 2.736-3.036 2.736s-3.036-1.008-3.036-2.736v-6.048zm8.936 2.424h.864v.84h.024c.492-.552 1.14-.96 1.848-.96.924 0 1.8.48 1.8 1.824V176h-.864v-4.512c0-.828-.396-1.104-1.02-1.104-.648 0-1.392.528-1.788.948V176h-.864v-6.24zm7.34 6.24v-6.24h.864V176h-.864zm0-8.784h.864v1.032h-.864v-1.032zm8.216 11.088h-.864V175.4l-.048.024c-.48.396-1.056.696-1.644.696-1.056 0-2.508-.816-2.508-3.24 0-2.496 1.452-3.24 2.556-3.24.744 0 1.296.312 1.656.78l.156-.66h.696v8.544zm-.864-3.792v-3.288c-.612-.6-1.02-.84-1.572-.84-1.08 0-1.764.864-1.764 2.448 0 1.884.756 2.544 1.764 2.544.516 0 1.104-.348 1.572-.864zM78.948 176h-.864v-.84h-.024c-.492.552-1.14.96-1.848.96-.924 0-1.8-.48-1.8-1.824v-4.536h.864v4.512c0 .828.396 1.104 1.02 1.104.648 0 1.392-.528 1.788-.948v-4.668h.864V176zm6.488-1.68l.672.348c-.408.708-.984 1.452-2.4 1.452-1.392 0-2.712-.96-2.712-3.24 0-2.016 1.008-3.24 2.544-3.24 1.296 0 2.376.84 2.376 2.832v.576H81.86c0 1.368.816 2.328 1.848 2.328.768 0 1.368-.408 1.728-1.056zm-3.552-2.016h3.168c0-1.152-.552-1.92-1.488-1.92-1.044 0-1.608.768-1.68 1.92zM94.068 176l-2.676-8.664h.96l2.136 7.104h.024l2.148-7.104h.972L94.944 176h-.876zm5.516 0v-6.24h.864V176h-.864zm0-8.784h.864v1.032h-.864v-1.032zm2.888 7.716l.684-.516c.408.588 1.008.96 1.788.96.936 0 1.344-.504 1.344-1.032 0-1.584-3.696-.744-3.624-3.024.036-1.08.864-1.692 2.064-1.68.816.012 1.716.456 2.136 1.092l-.6.528c-.48-.588-.936-.876-1.608-.876-.732 0-1.128.372-1.128.924 0 1.356 3.624.66 3.624 2.988 0 1.212-1.056 1.824-2.184 1.824-.972 0-1.92-.42-2.496-1.188zm6.776 1.068v-6.24h.864V176h-.864zm0-8.784h.864v1.032h-.864v-1.032zm2.816 2.544h1.02v-2.052h.864v2.052h1.44v.744h-1.44v4.44c0 .288.204.432.708.432.288 0 .54-.024.768-.06v.708c-.156.048-.504.096-1.008.096-.936 0-1.332-.24-1.332-1.032v-4.584h-1.02v-.744zm8.972 3.12c0-1.608-.66-2.496-1.692-2.496s-1.692.888-1.692 2.496.66 2.496 1.692 2.496 1.692-.888 1.692-2.496zm.864 0c0 1.8-.852 3.24-2.556 3.24-1.704 0-2.556-1.44-2.556-3.24 0-1.8.852-3.24 2.556-3.24 1.704 0 2.556 1.44 2.556 3.24zm1.784 3.12v-6.24h.864v1.236h.024c.48-.852.996-1.332 2.028-1.332v.864c-1.08.024-1.644.732-2.052 2.016V176h-.864zm3.944-1.068l.684-.516c.408.588 1.008.96 1.788.96.936 0 1.344-.504 1.344-1.032 0-1.584-3.696-.744-3.624-3.024.036-1.08.864-1.692 2.064-1.68.816.012 1.716.456 2.136 1.092l-.6.528c-.48-.588-.936-.876-1.608-.876-.732 0-1.128.372-1.128.924 0 1.356 3.624.66 3.624 2.988 0 1.212-1.056 1.824-2.184 1.824-.972 0-1.92-.42-2.496-1.188zm13.204-1.68h-3.024v-.744h3.024v.744zM151.684 176h-3.84v-.744h1.5v-7.044l-1.668.168v-.564c.6-.18 1.284-.36 1.668-.6h.864v8.04h1.476V176zm8.552-.744V176h-5.628v-.912c1.5-3.036 4.728-3.216 4.728-5.544 0-1.008-.648-1.584-1.752-1.584-1.248 0-1.896 1.008-2.04 1.884l-.852-.192c.276-1.2.984-2.436 2.916-2.436 1.416 0 2.64.816 2.64 2.304 0 2.64-3.792 3.36-4.728 5.736h4.716zm14.272.744h-.864v-7.92h-.036l-2.424 7.92h-.744l-2.436-7.92h-.036V176h-.864v-8.664h1.488l2.208 7.008h.024l2.172-7.008h1.512V176zm6.488-3.12c0-1.608-.66-2.496-1.692-2.496s-1.692.888-1.692 2.496.66 2.496 1.692 2.496 1.692-.888 1.692-2.496zm.864 0c0 1.8-.852 3.24-2.556 3.24-1.704 0-2.556-1.44-2.556-3.24 0-1.8.852-3.24 2.556-3.24 1.704 0 2.556 1.44 2.556 3.24zm2.012-3.12h.864v.84h.024c.492-.552 1.14-.96 1.848-.96.924 0 1.8.48 1.8 1.824V176h-.864v-4.512c0-.828-.396-1.104-1.02-1.104-.648 0-1.392.528-1.788.948V176h-.864v-6.24zm6.32 0h1.02v-2.052h.864v2.052h1.44v.744h-1.44v4.44c0 .288.204.432.708.432.288 0 .54-.024.768-.06v.708c-.156.048-.504.096-1.008.096-.936 0-1.332-.24-1.332-1.032v-4.584h-1.02v-.744zm5.348-2.424h.864v3.264h.024c.492-.552 1.14-.96 1.848-.96.924 0 1.8.48 1.8 1.824V176h-.864v-4.512c0-.828-.396-1.104-1.02-1.104-.648 0-1.392.528-1.788.948V176h-.864v-8.664zm6.392 7.596l.684-.516c.408.588 1.008.96 1.788.96.936 0 1.344-.504 1.344-1.032 0-1.584-3.696-.744-3.624-3.024.036-1.08.864-1.692 2.064-1.68.816.012 1.716.456 2.136 1.092l-.6.528c-.48-.588-.936-.876-1.608-.876-.732 0-1.128.372-1.128.924 0 1.356 3.624.66 3.624 2.988 0 1.212-1.056 1.824-2.184 1.824-.972 0-1.92-.42-2.496-1.188z"/><path fill="url(#d)" fill-rule="nonzero" d="M51.668 140.442a2 2 0 1 1 2.664-2.984c4.669 4.17 8.628 6.192 11.793 6.192 1.529 0 2.698-.418 4.54-1.495.27-.158 1.288-.768 1.234-.736 3.27-1.947 5.639-2.794 9.226-2.794 2.273 0 4.074.848 6.541 2.617 2.503 1.795 2.849 1.957 2.985 1.855.394-.297.934-1.277 1.498-3.071.685-2.18 1.345-5.372 1.998-9.746C98.589 100.517 106.6 80 116.75 80c4.885 0 7.17 1.504 9.245 5.21 3.078 5.5 3.537 6.146 6.918 8.563 8.117 5.8 13.353 14.076 19.412 27.61 3.38 7.545 8.403 12.408 15.866 15.74 2.096.937 3.45 1.911 6.204 4.212 5.667 4.736 8.855 5.839 16.92 4.038 10.29-2.298 29.209-1.735 56.927 1.642a2 2 0 1 1-.484 3.97c-27.282-3.323-45.863-3.876-55.572-1.708-5.217 1.165-9.323 1.075-12.82-.135-2.665-.922-4.306-2.038-7.536-4.738-2.478-2.07-3.617-2.89-5.27-3.628-8.342-3.726-14.095-9.293-17.885-17.759-5.783-12.914-10.728-20.73-18.088-25.99-2.31-1.651-4.045-3.41-5.449-5.39-.907-1.28-1.597-2.514-2.633-4.473C121.103 84.66 120.1 84 116.75 84c-6.944 0-14.564 19.514-18.647 46.87-1.375 9.217-2.791 13.724-5.046 15.422-1.382 1.041-2.94 1.041-4.527.296-.523-.245-1.043-.562-1.67-.997-.341-.237-1.536-1.106-1.525-1.098-1.836-1.316-3.007-1.868-4.21-1.868-2.741 0-4.473.619-7.18 2.23.072-.042-.969.582-1.26.753-2.4 1.403-4.189 2.042-6.56 2.042-4.335 0-9.126-2.445-14.457-7.208z" transform="translate(7 -7)"/><path fill="#48484F" d="M48.472 4.127c.37.026.66.335.66.712v145.734h221.482c.392 0 .71.32.71.714a.712.712 0 0 1-.71.713H37.548a.712.712 0 0 1-.71-.713c0-.394.318-.714.71-.714h10.164V5.427H36.71a.712.712 0 0 1-.71-.714c0-.394.318-.713.71-.713h11.357c.15 0 .29.047.405.127z"/></g></g></svg>