<svg xmlns="http://www.w3.org/2000/svg" width="316" height="87"><g fill="none" fill-rule="evenodd"><path fill="#8B949B" d="M9.473 35.016H3.018L1.553 39H.293l5.38-14.219h1.143L12.197 39h-1.25l-1.474-3.984zM3.389 33.99h5.703L6.24 26.246 3.39 33.99zM17.53 37.39l3.213-8.955h1.2L18 39h-.947l-3.965-10.566h1.202l3.242 8.955zm11.007 1.806c-.69 0-1.325-.128-1.904-.385a4.46 4.46 0 0 1-1.5-1.075 4.938 4.938 0 0 1-.98-1.635 5.936 5.936 0 0 1-.352-2.08v-.42c0-.814.122-1.551.366-2.212.244-.661.574-1.224.991-1.69a4.445 4.445 0 0 1 1.44-1.079 4.024 4.024 0 0 1 1.724-.38c.67 0 1.266.12 1.787.36.521.241.959.577 1.314 1.006.355.43.623.941.805 1.534.183.592.274 1.24.274 1.943v.713h-7.54v.225c0 .579.089 1.124.264 1.635.176.511.424.956.743 1.333.319.378.7.676 1.142.894.443.218.934.327 1.475.327.625 0 1.177-.114 1.655-.342.479-.228.913-.592 1.304-1.094l.732.557c-.176.254-.379.495-.61.723-.231.228-.5.426-.806.595-.306.17-.65.303-1.035.4a5.237 5.237 0 0 1-1.29.147zm-.215-9.96a2.973 2.973 0 0 0-2.231.976c-.29.312-.528.688-.713 1.128-.186.44-.311.926-.376 1.46h6.338v-.127a4.715 4.715 0 0 0-.215-1.284c-.13-.414-.32-.78-.571-1.099a2.816 2.816 0 0 0-.933-.767c-.371-.192-.804-.288-1.299-.288zm8.283-.801l.039 1.806c.182-.3.392-.573.63-.82a3.834 3.834 0 0 1 2.817-1.182c.527 0 1 .072 1.416.215.417.143.77.371 1.06.684.29.312.51.714.664 1.206.153.491.23 1.085.23 1.782V39h-1.163v-6.885c0-.547-.058-1.002-.176-1.367-.117-.365-.283-.658-.498-.879a1.812 1.812 0 0 0-.786-.473 3.52 3.52 0 0 0-1.03-.142c-.417 0-.794.07-1.133.21-.338.14-.638.327-.898.561a3.74 3.74 0 0 0-.674.806 4.626 4.626 0 0 0-.45.933V39h-1.162V28.434h1.114zM48.502 39H47.33V28.434h1.172V39zm-1.377-13.623c0-.221.071-.409.215-.562.143-.153.338-.23.586-.23.247 0 .444.077.59.23.147.153.22.34.22.562a.765.765 0 0 1-.22.557c-.146.15-.343.224-.59.224-.248 0-.443-.075-.586-.224a.774.774 0 0 1-.215-.557zm10.148 4.053a4.365 4.365 0 0 0-.791-.069c-.398 0-.756.059-1.075.176-.319.117-.6.282-.844.493-.245.212-.45.463-.616.752a4.17 4.17 0 0 0-.395.962V39H52.39V28.434h1.142l.02 1.68a3.497 3.497 0 0 1 1.167-1.373c.491-.335 1.095-.503 1.811-.503.144 0 .29.013.44.04.15.025.26.055.332.087l-.03 1.065zM12.383 69h-1.201L3.008 56.832V69H1.797V54.781h1.21l8.184 12.178V54.781h1.192V69zm8.146.195c-.69 0-1.325-.128-1.905-.385a4.46 4.46 0 0 1-1.499-1.075 4.938 4.938 0 0 1-.981-1.635 5.936 5.936 0 0 1-.352-2.08v-.42c0-.814.122-1.551.367-2.212.244-.661.574-1.224.99-1.69a4.445 4.445 0 0 1 1.441-1.079 4.024 4.024 0 0 1 1.724-.38c.67 0 1.266.12 1.787.36.52.241.959.577 1.313 1.006.355.43.624.941.806 1.534.182.592.274 1.24.274 1.943v.713h-7.54v.225c0 .579.088 1.124.264 1.635.176.511.423.956.742 1.333.32.378.7.676 1.143.894.443.218.934.327 1.475.327.625 0 1.176-.114 1.655-.342.478-.228.913-.592 1.304-1.094l.732.557c-.176.254-.38.495-.61.723-.231.228-.5.426-.806.595-.306.17-.651.303-1.035.4a5.237 5.237 0 0 1-1.29.147zm-.215-9.96a2.973 2.973 0 0 0-2.232.976c-.29.312-.527.688-.712 1.128-.186.44-.311.926-.376 1.46h6.337v-.127a4.715 4.715 0 0 0-.214-1.284c-.13-.414-.321-.78-.572-1.099a2.816 2.816 0 0 0-.932-.767c-.371-.192-.804-.288-1.3-.288zm10.49 3.486l2.851-4.287h1.387l-3.584 5.185L35.198 69h-1.377l-3.008-4.473L27.806 69h-1.377l3.73-5.38-3.584-5.186h1.377l2.852 4.287zm8.937-6.992v2.705h2.187v.957h-2.187v7.04c0 .372.037.67.112.894.075.225.176.4.303.528a.942.942 0 0 0 .439.253c.166.043.34.064.522.064.176 0 .346-.011.508-.034.163-.023.31-.044.44-.064l.049.957c-.144.052-.33.093-.562.122a5.47 5.47 0 0 1-.688.044 3.1 3.1 0 0 1-.923-.132 1.654 1.654 0 0 1-.728-.454c-.202-.214-.36-.5-.473-.854-.114-.355-.171-.796-.171-1.323V59.39h-1.944v-.957h1.944v-2.705h1.172z"/><path fill="#222" d="M182.68 85h-9.48L209.92.04h8.4L254.8 85h-9.6l-9.36-22.32h-43.92L182.68 85zm12.48-30.24h37.44L213.88 9.64l-18.72 45.12zm112.04-6c0-4.88-1.28-8.52-3.84-10.92-2.56-2.4-6.28-3.6-11.16-3.6-3.36 0-6.48.6-9.36 1.8-2.88 1.2-5.32 2.8-7.32 4.8l-4.56-5.4c2.32-2.32 5.38-4.24 9.18-5.76 3.8-1.52 8.1-2.28 12.9-2.28 3.04 0 5.88.42 8.52 1.26 2.64.84 4.96 2.1 6.96 3.78 2 1.68 3.56 3.8 4.68 6.36 1.12 2.56 1.68 5.56 1.68 9v24.6c0 2.16.08 4.4.24 6.72.16 2.32.4 4.28.72 5.88h-7.32c-.24-1.36-.44-2.84-.6-4.44-.16-1.6-.24-3.16-.24-4.68h-.24c-2.56 3.76-5.46 6.46-8.7 8.1-3.24 1.64-7.14 2.46-11.7 2.46-2.16 0-4.38-.3-6.66-.9-2.28-.6-4.36-1.58-6.24-2.94-1.88-1.36-3.44-3.12-4.68-5.28-1.24-2.16-1.86-4.8-1.86-7.92 0-4.32 1.1-7.74 3.3-10.26 2.2-2.52 5.14-4.4 8.82-5.64 3.68-1.24 7.9-2.04 12.66-2.4 4.76-.36 9.7-.54 14.82-.54v-1.8zm-2.4 8.16c-3.36 0-6.74.14-10.14.42-3.4.28-6.48.84-9.24 1.68s-5.02 2.06-6.78 3.66c-1.76 1.6-2.64 3.72-2.64 6.36 0 2 .38 3.68 1.14 5.04a9.325 9.325 0 0 0 3.06 3.3c1.28.84 2.7 1.44 4.26 1.8 1.56.36 3.14.54 4.74.54 2.88 0 5.44-.5 7.68-1.5 2.24-1 4.12-2.36 5.64-4.08 1.52-1.72 2.68-3.7 3.48-5.94.8-2.24 1.2-4.6 1.2-7.08v-4.2h-2.4z"/></g></svg>