<svg xmlns="http://www.w3.org/2000/svg" width="316" height="87" viewBox="0 0 316 87">
  <g fill="none" fill-rule="evenodd" transform="translate(0 -35)">
    <path fill="#8B949B" d="M9.47265625,70.015625 L3.01757812,70.015625 L1.55273438,74 L0.29296875,74 L5.67382812,59.78125 L6.81640625,59.78125 L12.1972656,74 L10.9472656,74 L9.47265625,70.015625 Z M3.38867188,68.9902344 L9.09179688,68.9902344 L6.24023438,61.2460938 L3.38867188,68.9902344 Z M17.5306919,72.3886719 L20.7435825,63.4335938 L21.9447544,63.4335938 L17.9994419,74 L17.0521763,74 L13.0873325,63.4335938 L14.2885044,63.4335938 L17.5306919,72.3886719 Z M28.5379463,74.1953125 C27.8478387,74.1953125 27.2130794,74.0667331 26.6336495,73.8095703 C26.0542195,73.5524076 25.55455,73.1943382 25.134626,72.7353516 C24.7147021,72.2763649 24.3875569,71.7311229 24.1531807,71.0996094 C23.9188045,70.4680958 23.8016182,69.7747434 23.8016182,69.0195312 L23.8016182,68.5996094 C23.8016182,67.7858032 23.9236873,67.0485059 24.1678292,66.3876953 C24.411971,65.7268847 24.7423713,65.1637393 25.1590401,64.6982422 C25.5757088,64.2327451 26.0558473,63.8730481 26.5994698,63.6191406 C27.1430923,63.3652331 27.7176308,63.2382812 28.3231026,63.2382812 C28.9936789,63.2382812 29.589376,63.3587228 30.110212,63.5996094 C30.6310479,63.840496 31.068869,64.1757791 31.4236885,64.6054688 C31.778508,65.0351584 32.04706,65.546221 32.2293526,66.1386719 C32.4116452,66.7311228 32.5027901,67.3789027 32.5027901,68.0820312 L32.5027901,68.7949219 L24.9637276,68.7949219 L24.9637276,69.0195312 C24.9637276,69.5989612 25.0516173,70.1442032 25.2273995,70.6552734 C25.4031816,71.1663437 25.650575,71.6106752 25.969587,71.9882812 C26.288599,72.3658873 26.6694545,72.6637359 27.1121651,72.8818359 C27.5548756,73.099936 28.0464072,73.2089844 28.5867745,73.2089844 C29.2117776,73.2089844 29.7635299,73.0950532 30.2420479,72.8671875 C30.7205659,72.6393218 31.1551319,72.2747421 31.5457588,71.7734375 L32.2781807,72.3300781 C32.1023986,72.5839856 31.8989501,72.8248687 31.6678292,73.0527344 C31.4367082,73.2806001 31.1681562,73.4791658 30.8621651,73.6484375 C30.556174,73.8177092 30.2111253,73.9511714 29.8270088,74.0488281 C29.4428923,74.1464849 29.0132091,74.1953125 28.5379463,74.1953125 Z M28.3231026,64.234375 C27.880392,64.234375 27.4702399,64.3190096 27.0926338,64.4882812 C26.7150278,64.6575529 26.3813723,64.8984359 26.0916573,65.2109375 C25.8019423,65.5234391 25.5643145,65.8994119 25.3787667,66.3388672 C25.1932189,66.7783225 25.0678946,67.2649713 25.0027901,67.7988281 L31.3406807,67.7988281 L31.3406807,67.671875 C31.3276598,67.2291645 31.256046,66.8011088 31.125837,66.3876953 C30.995628,65.9742818 30.8052002,65.6080745 30.5545479,65.2890625 C30.3038956,64.9700505 29.9930263,64.7145192 29.6219307,64.5224609 C29.2508351,64.3304027 28.8178967,64.234375 28.3231026,64.234375 Z M36.6057476,63.4335938 L36.6448101,65.2402344 C36.8271027,64.9407537 37.0370616,64.6673189 37.274693,64.4199219 C37.5123243,64.1725248 37.7776212,63.9609384 38.0705914,63.7851562 C38.3635616,63.6093741 38.6793137,63.4742843 39.017857,63.3798828 C39.3564004,63.2854813 39.7144697,63.2382812 40.0920758,63.2382812 C40.6194222,63.2382812 41.0914226,63.3098951 41.5080914,63.453125 C41.9247601,63.5963549 42.2779467,63.8242172 42.5676617,64.1367188 C42.8573767,64.4492203 43.0787286,64.8512345 43.2317242,65.3427734 C43.3847198,65.8343124 43.4612164,66.4283819 43.4612164,67.125 L43.4612164,74 L42.299107,74 L42.299107,67.1152344 C42.299107,66.5683566 42.2405139,66.112632 42.1233258,65.7480469 C42.0061377,65.3834617 41.8401237,65.0904959 41.6252789,64.8691406 C41.4104341,64.6477854 41.1483924,64.4899093 40.8391461,64.3955078 C40.5298997,64.3011063 40.1864787,64.2539062 39.8088726,64.2539062 C39.3922039,64.2539062 39.0146035,64.3238925 38.6760601,64.4638672 C38.3375168,64.6038418 38.0380406,64.7910145 37.7776226,65.0253906 C37.5172047,65.2597668 37.2925975,65.5283188 37.1037945,65.8310547 C36.9149915,66.1337906 36.7652534,66.4446599 36.6545758,66.7636719 L36.6545758,74 L35.4924664,74 L35.4924664,63.4335938 L36.6057476,63.4335938 Z M48.5016739,74 L47.3297989,74 L47.3297989,63.4335938 L48.5016739,63.4335938 L48.5016739,74 Z M47.1247208,60.3769531 C47.1247208,60.1555979 47.1963347,59.9684252 47.3395646,59.8154297 C47.4827944,59.6624341 47.678105,59.5859375 47.9255021,59.5859375 C48.1728991,59.5859375 48.3698373,59.6624341 48.5163224,59.8154297 C48.6628075,59.9684252 48.7360489,60.1555979 48.7360489,60.3769531 C48.7360489,60.5983084 48.6628075,60.7838534 48.5163224,60.9335938 C48.3698373,61.0833341 48.1728991,61.1582031 47.9255021,61.1582031 C47.678105,61.1582031 47.4827944,61.0833341 47.3395646,60.9335938 C47.1963347,60.7838534 47.1247208,60.5983084 47.1247208,60.3769531 Z M57.2726002,64.4296875 C57.0252032,64.3841144 56.7615339,64.3613281 56.4815846,64.3613281 C56.0844472,64.3613281 55.7263779,64.4199213 55.4073659,64.5371094 C55.0883538,64.6542975 54.8067811,64.8186838 54.5626393,65.0302734 C54.3184975,65.241863 54.1134214,65.4925116 53.9474049,65.7822266 C53.7813885,66.0719416 53.6495538,66.3925764 53.5518971,66.7441406 L53.5518971,74 L52.3897877,74 L52.3897877,63.4335938 L53.5323659,63.4335938 L53.5518971,65.1132812 C53.8383569,64.5338513 54.2273504,64.0764991 54.7188893,63.7412109 C55.2104282,63.4059228 55.8142633,63.2382812 56.5304127,63.2382812 C56.6736426,63.2382812 56.8201255,63.251302 56.9698659,63.2773438 C57.1196062,63.3033855 57.2302822,63.3326821 57.3018971,63.3652344 L57.2726002,64.4296875 Z M12.3828125,104 L11.1816406,104 L3.0078125,91.8320312 L3.0078125,104 L1.796875,104 L1.796875,89.78125 L3.0078125,89.78125 L11.1914062,101.958984 L11.1914062,89.78125 L12.3828125,89.78125 L12.3828125,104 Z M20.5287388,104.195312 C19.8386312,104.195312 19.2038719,104.066733 18.6244419,103.80957 C18.0450119,103.552408 17.5453425,103.194338 17.1254185,102.735352 C16.7054945,102.276365 16.3783493,101.731123 16.1439732,101.099609 C15.909597,100.468096 15.7924107,99.7747434 15.7924107,99.0195312 L15.7924107,98.5996094 C15.7924107,97.7858032 15.9144798,97.0485059 16.1586216,96.3876953 C16.4027635,95.7268847 16.7331638,95.1637393 17.1498325,94.6982422 C17.5665013,94.2327451 18.0466397,93.8730481 18.5902622,93.6191406 C19.1338847,93.3652331 19.7084233,93.2382812 20.313895,93.2382812 C20.9844713,93.2382812 21.5801685,93.3587228 22.1010044,93.5996094 C22.6218404,93.840496 23.0596615,94.1757791 23.414481,94.6054688 C23.7693005,95.0351584 24.0378525,95.546221 24.220145,96.1386719 C24.4024376,96.7311228 24.4935825,97.3789027 24.4935825,98.0820312 L24.4935825,98.7949219 L16.95452,98.7949219 L16.95452,99.0195312 C16.95452,99.5989612 17.0424098,100.144203 17.2181919,100.655273 C17.3939741,101.166344 17.6413674,101.610675 17.9603794,101.988281 C18.2793914,102.365887 18.660247,102.663736 19.1029575,102.881836 C19.5456681,103.099936 20.0371996,103.208984 20.5775669,103.208984 C21.20257,103.208984 21.7543223,103.095053 22.2328404,102.867188 C22.7113584,102.639322 23.1459243,102.274742 23.5365513,101.773438 L24.2689732,102.330078 C24.093191,102.583986 23.8897426,102.824869 23.6586216,103.052734 C23.4275007,103.2806 23.1589487,103.479166 22.8529575,103.648438 C22.5469664,103.817709 22.2019178,103.951171 21.8178013,104.048828 C21.4336848,104.146485 21.0040016,104.195312 20.5287388,104.195312 Z M20.313895,94.234375 C19.8711845,94.234375 19.4610324,94.3190096 19.0834263,94.4882812 C18.7058202,94.6575529 18.3721647,94.8984359 18.0824497,95.2109375 C17.7927347,95.5234391 17.5551069,95.8994119 17.3695591,96.3388672 C17.1840113,96.7783225 17.058687,97.2649713 16.9935825,97.7988281 L23.3314732,97.7988281 L23.3314732,97.671875 C23.3184523,97.2291645 23.2468384,96.8011088 23.1166294,96.3876953 C22.9864204,95.9742818 22.7959927,95.6080745 22.5453404,95.2890625 C22.2946881,94.9700505 21.9838188,94.7145192 21.6127232,94.5224609 C21.2416276,94.3304027 20.8086892,94.234375 20.313895,94.234375 Z M30.8035713,97.7207031 L33.6551338,93.4335938 L35.0418526,93.4335938 L31.4578682,98.6191406 L35.1981026,104 L33.8211495,104 L30.813337,99.5273438 L27.8055245,104 L26.4285713,104 L30.1590401,98.6191406 L26.5750557,93.4335938 L27.9520088,93.4335938 L30.8035713,97.7207031 Z M39.7405133,90.7285156 L39.7405133,93.4335938 L41.9280133,93.4335938 L41.9280133,94.390625 L39.7405133,94.390625 L39.7405133,101.431641 C39.7405133,101.802736 39.7779478,102.100585 39.852818,102.325195 C39.9276881,102.549806 40.0285986,102.725585 40.1555523,102.852539 C40.2825061,102.979493 40.428989,103.064127 40.5950055,103.106445 C40.7610219,103.148763 40.9351738,103.169922 41.1174664,103.169922 C41.2932485,103.169922 41.4625177,103.158529 41.6252789,103.135742 C41.7880401,103.112956 41.934523,103.091797 42.064732,103.072266 L42.1135601,104.029297 C41.9703303,104.08138 41.7831576,104.12207 41.5520367,104.151367 C41.3209158,104.180664 41.0914259,104.195312 40.8635601,104.195312 C40.5315272,104.195312 40.2239131,104.151368 39.9407086,104.063477 C39.657504,103.975585 39.4149934,103.82422 39.2131695,103.609375 C39.0113456,103.39453 38.8534696,103.109702 38.7395367,102.754883 C38.6256038,102.400063 38.5686383,101.958987 38.5686383,101.431641 L38.5686383,94.390625 L36.6252789,94.390625 L36.6252789,93.4335938 L38.5686383,93.4335938 L38.5686383,90.7285156 L39.7405133,90.7285156 Z"/>
    <path fill="#222" d="M182.68,120 L173.2,120 L209.92,35.04 L218.32,35.04 L254.8,120 L245.2,120 L235.84,97.68 L191.92,97.68 L182.68,120 Z M195.16,89.76 L232.6,89.76 L213.88,44.64 L195.16,89.76 Z M307.2,83.76 C307.2,78.8799756 305.920013,75.240012 303.36,72.84 C300.799987,70.439988 297.080024,69.24 292.2,69.24 C288.839983,69.24 285.720014,69.839994 282.84,71.04 C279.959986,72.240006 277.52001,73.83999 275.52,75.84 L270.96,70.44 C273.280012,68.1199884 276.339981,66.2000076 280.14,64.68 C283.940019,63.1599924 288.239976,62.4 293.04,62.4 C296.080015,62.4 298.919987,62.8199958 301.56,63.66 C304.200013,64.5000042 306.51999,65.7599916 308.52,67.44 C310.52001,69.1200084 312.079994,71.2399872 313.2,73.8 C314.320006,76.3600128 314.88,79.3599828 314.88,82.8 L314.88,107.4 C314.88,109.560011 314.959999,111.799988 315.12,114.12 C315.280001,116.440012 315.519998,118.399992 315.84,120 L308.52,120 C308.279999,118.639993 308.080001,117.160008 307.92,115.56 C307.759999,113.959992 307.68,112.400008 307.68,110.88 L307.44,110.88 C304.879987,114.640019 301.980016,117.339992 298.74,118.98 C295.499984,120.620008 291.600023,121.44 287.04,121.44 C284.879989,121.44 282.660011,121.140003 280.38,120.54 C278.099989,119.939997 276.020009,118.960007 274.14,117.6 C272.259991,116.239993 270.700006,114.480011 269.46,112.32 C268.219994,110.159989 267.6,107.520016 267.6,104.4 C267.6,100.079978 268.699989,96.6600126 270.9,94.14 C273.100011,91.6199874 276.039982,89.7400062 279.72,88.5 C283.400018,87.2599938 287.619976,86.4600018 292.38,86.1 C297.140024,85.7399982 302.079974,85.56 307.2,85.56 L307.2,83.76 Z M304.8,91.92 C301.439983,91.92 298.060017,92.0599986 294.66,92.34 C291.259983,92.6200014 288.180014,93.1799958 285.42,94.02 C282.659986,94.8600042 280.400009,96.079992 278.64,97.68 C276.879991,99.280008 276,101.399987 276,104.04 C276,106.04001 276.379996,107.719993 277.14,109.08 C277.900004,110.440007 278.919994,111.539996 280.2,112.38 C281.480006,113.220004 282.899992,113.819998 284.46,114.18 C286.020008,114.540002 287.599992,114.72 289.2,114.72 C292.080014,114.72 294.639989,114.220005 296.88,113.22 C299.120011,112.219995 300.999992,110.860009 302.52,109.14 C304.040008,107.419991 305.199996,105.440011 306,103.2 C306.800004,100.959989 307.2,98.6000124 307.2,96.12 L307.2,91.92 L304.8,91.92 Z"/>
  </g>
</svg>
