<svg xmlns="http://www.w3.org/2000/svg" width="297" height="75"><g fill="#FFF" fill-rule="evenodd"><path d="M68.22 3.071a1.988 1.988 0 0 1 1.922-1.91h4.048a1.982 1.982 0 0 1 1.922 1.91V69.68a1.982 1.982 0 0 1-1.922 1.91h-4.048a1.988 1.988 0 0 1-1.922-1.91V3.07zm23.994 57.953c.509-.595 1.012-1.31 1.52-1.91 1.013-1.31 2.127-2.114 3.546-.906.706.596 8.095 7.65 17.107 7.65 8.198 0 13.563-5.132 13.563-11.072 0-6.94-6.072-11.066-17.712-15.9C99.1 34.06 92.424 29.53 92.424 18.055c0-6.84 5.466-17.911 21.556-17.911a33.244 33.244 0 0 1 17.305 5.13c.599.304 1.796 1.513.599 3.423-.407.596-.808 1.31-1.198 1.911-.91 1.41-1.922 1.786-3.545.905-.706-.405-7.083-4.631-13.257-4.631-10.73 0-13.97 6.84-13.97 11.071 0 6.744 5.162 10.667 13.665 14.185 13.664 5.536 22.472 10.667 22.472 22.34 0 10.463-10.023 18.112-21.861 18.112-11.946 0-20.042-6.94-21.36-8.149-.826-.696-1.814-1.5-.616-3.416zm58.49-57.453a2.374 2.374 0 0 1 .701-1.72 2.403 2.403 0 0 1 1.73-.696h2.934A2.454 2.454 0 0 1 158.5 3.57v28.477L190.08 2.16a3 3 0 0 1 1.923-1.006h4.958c1.796 0 2.832 2.012 1.197 3.524l-31.987 29.684 33.532 34.113c.436.618.482 1.429.117 2.091a1.996 1.996 0 0 1-1.835 1.028h-5.174a2.782 2.782 0 0 1-1.796-.702L158.5 37.179v31.994a2.454 2.454 0 0 1-2.43 2.416h-2.935a2.403 2.403 0 0 1-1.73-.697 2.374 2.374 0 0 1-.701-1.72v-65.6zM39.88 35.774c4.76-2.714 9.922-8.334 9.922-16.072 0-10.565-8.384-18.512-20.749-18.512H6.898a1.916 1.916 0 0 0-1.922 1.911v31.423c0 .595.32 1.144.838 1.44l6.168 3.524c.253.145.54.22.832.22h16.257c7.892 0 14.473 5.232 14.473 12.375S38.383 64.65 31.215 64.857a1.684 1.684 0 0 0-.79.214l-9.491 5.423a.594.594 0 0 0 .3 1.113h8.706c13.06 0 22.065-8.149 22.065-19.422.024-9.268-6.76-14.203-12.125-16.411zm-10.827-3.036H12.575V8.101H29.07c7.785 0 12.144 4.828 12.144 12.072-.018 7.047-4.371 12.565-12.162 12.565z"/><path d="M.335 57.738V42.262c.002-.592.32-1.138.836-1.433a1.68 1.68 0 0 1 1.667-.002l13.509 7.738 13.509 7.739c.516.296.834.844.834 1.437 0 .593-.318 1.14-.834 1.438l-13.509 7.738-13.509 7.738a1.68 1.68 0 0 1-1.667-.001 1.659 1.659 0 0 1-.836-1.434V57.738zM284.43 35.911c4.76-2.715 9.922-8.334 9.922-16.072 0-10.565-8.383-18.512-20.748-18.512h-22.155a1.916 1.916 0 0 0-1.922 1.911v31.423c0 .595.32 1.144.838 1.44l6.168 3.524c.253.145.54.22.832.22h16.257c7.892 0 14.473 5.232 14.473 12.375s-5.162 12.566-12.33 12.774a1.684 1.684 0 0 0-.79.214l-9.49 5.423a.594.594 0 0 0 .299 1.113h8.706c13.06 0 22.066-8.149 22.066-19.423.024-9.267-6.76-14.202-12.126-16.41zm-10.826-3.036h-16.479V8.238h16.497c7.784 0 12.144 4.828 12.144 12.072-.018 7.047-4.372 12.565-12.162 12.565z"/><path d="M244.845 57.618V42.142c.002-.592.32-1.138.836-1.433a1.68 1.68 0 0 1 1.667-.001l13.509 7.738 13.509 7.738c.516.297.834.844.834 1.437 0 .593-.318 1.14-.834 1.438l-13.51 7.738-13.508 7.738a1.68 1.68 0 0 1-1.667-.001 1.659 1.659 0 0 1-.836-1.434V57.618z"/></g></svg>