<svg xmlns="http://www.w3.org/2000/svg" width="297" height="76"><g fill="none" fill-rule="evenodd"><path fill="#FFF" d="M68.356 3.115a2.004 2.004 0 0 1 1.926-1.938h4.056a1.998 1.998 0 0 1 1.926 1.938V70.67a1.998 1.998 0 0 1-1.926 1.938h-4.056a2.004 2.004 0 0 1-1.926-1.938V3.115zm24.041 58.776c.51-.604 1.014-1.328 1.524-1.938 1.014-1.328 2.13-2.143 3.552-.918.708.604 8.112 7.758 17.142 7.758 8.213 0 13.59-5.204 13.59-11.229 0-7.039-6.085-11.223-17.748-16.125-11.16-4.896-17.85-9.49-17.85-21.129 0-6.936 5.478-18.165 21.6-18.165a33.02 33.02 0 0 1 17.34 5.204c.6.308 1.799 1.533.6 3.471-.409.604-.81 1.328-1.2 1.938-.913 1.43-1.927 1.811-3.553.917-.708-.41-7.098-4.696-13.283-4.696-10.752 0-13.998 6.936-13.998 11.228 0 6.84 5.172 10.819 13.692 14.387 13.691 5.614 22.517 10.818 22.517 22.656 0 10.613-10.044 18.37-21.905 18.37-11.97 0-20.082-7.038-21.402-8.264-.828-.706-1.818-1.521-.618-3.465zm58.607-58.269a2.423 2.423 0 0 1 .702-1.744 2.392 2.392 0 0 1 1.733-.707h2.94a2.474 2.474 0 0 1 2.436 2.451v28.881l31.643-30.312a2.994 2.994 0 0 1 1.926-1.02h4.968c1.8 0 2.838 2.04 1.2 3.574l-32.05 30.106L200.1 69.45a2.02 2.02 0 0 1 .117 2.12 1.996 1.996 0 0 1-1.839 1.044h-5.184a2.769 2.769 0 0 1-1.8-.713l-32.579-34.193v32.449a2.474 2.474 0 0 1-2.436 2.45h-2.94a2.392 2.392 0 0 1-1.733-.706 2.423 2.423 0 0 1-.702-1.744V3.622zM39.959 36.282c4.77-2.753 9.942-8.452 9.942-16.3 0-10.715-8.4-18.775-20.79-18.775h-22.2a1.932 1.932 0 0 0-1.925 1.938v31.87c0 .603.32 1.16.84 1.46l6.18 3.574c.253.147.541.224.834.224h16.29c7.907 0 14.5 5.306 14.5 12.55 0 7.245-5.171 12.744-12.353 12.956-.278.005-.55.08-.792.217l-9.51 5.5a.605.605 0 0 0 .3 1.129H30c13.086 0 22.11-8.265 22.11-19.699.023-9.4-6.774-14.404-12.15-16.644zM29.11 33.203H12.6V8.216h16.53c7.799 0 12.167 4.896 12.167 12.243-.018 7.148-4.38 12.744-12.186 12.744z"/><path fill="#E31B48" d="M.336 58.559V42.862c.002-.6.321-1.153.838-1.453.517-.3 1.153-.3 1.67-.001l13.536 7.848 13.535 7.848c.517.3.836.856.836 1.458 0 .6-.319 1.156-.836 1.457L16.38 67.868 2.844 75.716a1.665 1.665 0 0 1-1.67-.002 1.686 1.686 0 0 1-.838-1.453V58.559z"/><path fill="#FFF" d="M284.404 36.421c4.77-2.753 9.942-8.452 9.942-16.3 0-10.715-8.4-18.775-20.79-18.775h-22.199a1.932 1.932 0 0 0-1.926 1.938v31.87c0 .602.32 1.16.84 1.46l6.18 3.574c.254.147.542.224.834.223h16.29c7.907 0 14.501 5.307 14.501 12.551 0 7.245-5.172 12.744-12.353 12.956-.278.005-.55.08-.792.217l-9.51 5.5a.605.605 0 0 0 .3 1.129h8.724c13.085 0 22.109-8.265 22.109-19.7.024-9.399-6.774-14.403-12.15-16.643zm-10.847-3.079h-16.512V8.355h16.53c7.8 0 12.167 4.896 12.167 12.243-.018 7.148-4.38 12.744-12.185 12.744z"/><path fill="#E31B48" d="M244.742 58.437V42.741c.001-.6.32-1.154.837-1.454.517-.3 1.153-.3 1.67-.001l13.536 7.848 13.536 7.848c.517.301.835.857.835 1.458s-.318 1.157-.835 1.458l-13.536 7.848-13.536 7.848a1.665 1.665 0 0 1-1.67-.001 1.686 1.686 0 0 1-.837-1.454V58.437z"/></g></svg>