<svg xmlns="http://www.w3.org/2000/svg" width="350" height="79"><g fill="none" fill-rule="evenodd"><path fill="#FFF" d="M70.993 3.235a2.081 2.081 0 0 1 2-2.012h4.212a2.075 2.075 0 0 1 2 2.012v70.16a2.075 2.075 0 0 1-2 2.012h-4.212a2.081 2.081 0 0 1-2-2.012V3.235zm24.969 61.043c.53-.627 1.053-1.379 1.582-2.012 1.053-1.38 2.212-2.226 3.69-.953.734.627 8.424 8.057 17.802 8.057 8.53 0 14.114-5.405 14.114-11.662 0-7.311-6.319-11.656-18.432-16.747-11.59-5.085-18.538-9.856-18.538-21.945 0-7.204 5.689-18.866 22.432-18.866a34.293 34.293 0 0 1 18.009 5.405c.623.32 1.869 1.593.623 3.605-.424.627-.842 1.38-1.247 2.013-.947 1.486-2 1.88-3.688.953-.736-.426-7.372-4.878-13.796-4.878-11.167 0-14.538 7.204-14.538 11.662 0 7.104 5.371 11.235 14.22 14.94 14.22 5.832 23.386 11.236 23.386 23.532 0 11.022-10.431 19.079-22.75 19.079-12.432 0-20.857-7.31-22.228-8.584-.86-.733-1.888-1.58-.641-3.599zm60.867-60.516a2.516 2.516 0 0 1 .73-1.811 2.485 2.485 0 0 1 1.8-.735h3.053a2.569 2.569 0 0 1 2.53 2.546v29.995l32.863-31.481a3.11 3.11 0 0 1 2-1.06h5.16c1.87 0 2.948 2.12 1.246 3.712l-33.287 31.268 34.895 35.932c.454.651.501 1.505.122 2.203a2.073 2.073 0 0 1-1.91 1.083h-5.384a2.875 2.875 0 0 1-1.87-.74L164.942 39.16v33.7a2.569 2.569 0 0 1-2.53 2.546h-3.054a2.485 2.485 0 0 1-1.8-.734 2.516 2.516 0 0 1-.73-1.811v-69.1zM41.5 37.682c4.954-2.86 10.325-8.778 10.325-16.929 0-11.129-8.723-19.499-21.59-19.499H7.177c-1.104 0-2 .901-2 2.013v33.098c0 .627.333 1.205.873 1.517l6.418 3.712c.263.152.562.232.866.232h16.918c8.213 0 15.06 5.511 15.06 13.035s-5.37 13.236-12.83 13.455a1.737 1.737 0 0 0-.822.226l-9.876 5.712a.629.629 0 0 0 .311 1.172h9.06c13.59 0 22.963-8.583 22.963-20.458.024-9.762-7.036-14.96-12.619-17.286zm-11.266-3.198H13.086V8.534h17.167c8.1 0 12.637 5.084 12.637 12.714-.019 7.424-4.549 13.236-12.656 13.236z"/><path fill="#E31B48" d="M.349 60.817V44.516a1.751 1.751 0 0 1 .87-1.51 1.73 1.73 0 0 1 1.735-.001l14.057 8.15 14.058 8.151c.537.313.868.89.868 1.515 0 .624-.33 1.201-.868 1.514l-14.058 8.15-14.057 8.151a1.73 1.73 0 0 1-1.735 0 1.751 1.751 0 0 1-.87-1.51V60.816z"/><path fill="#FFF" d="M336.918 37.826c4.954-2.859 10.326-8.778 10.326-16.929 0-11.129-8.724-19.499-21.592-19.499h-23.055c-1.105 0-2 .901-2 2.013v33.098c0 .627.332 1.206.872 1.518l6.418 3.711c.264.153.562.233.866.232h16.918c8.213 0 15.061 5.512 15.061 13.035 0 7.524-5.371 13.236-12.83 13.455a1.737 1.737 0 0 0-.823.226l-9.876 5.712a.629.629 0 0 0 .311 1.172h9.06c13.591 0 22.963-8.583 22.963-20.458.025-9.762-7.035-14.96-12.619-17.286zm-11.266-3.198h-17.148V8.678h17.167c8.1 0 12.637 5.084 12.637 12.715-.019 7.423-4.549 13.235-12.656 13.235z"/><path fill="#E31B48" d="M295.726 60.691V44.39a1.751 1.751 0 0 1 .87-1.51 1.73 1.73 0 0 1 1.734-.001l14.058 8.15 14.058 8.151c.537.313.868.89.868 1.514 0 .625-.331 1.202-.868 1.514l-14.058 8.151-14.058 8.151a1.73 1.73 0 0 1-1.734-.001 1.751 1.751 0 0 1-.87-1.51V60.691z"/></g></svg>