<svg xmlns="http://www.w3.org/2000/svg" width="319" height="100"><g fill="none" fill-rule="evenodd"><path fill="#8B949B" d="M.797 44V29.781h4.2c.722 0 1.37.073 1.942.22.573.146 1.06.371 1.46.674.4.303.708.688.923 1.157.215.469.323 1.025.323 1.67 0 .365-.05.708-.152 1.03-.1.322-.249.617-.444.884s-.431.5-.708.698c-.277.199-.591.357-.943.474a3.55 3.55 0 0 1 1.133.454 3.41 3.41 0 0 1 1.426 1.782c.13.371.195.762.195 1.172 0 .651-.109 1.226-.327 1.724a3.408 3.408 0 0 1-.928 1.255c-.4.338-.88.594-1.44.766A6.28 6.28 0 0 1 5.602 44H.797zm1.201-6.836v5.82h3.604c.52 0 .988-.068 1.4-.205a3.013 3.013 0 0 0 1.056-.586c.29-.254.51-.564.664-.932.153-.368.23-.783.23-1.245 0-.398-.066-.77-.196-1.119a2.397 2.397 0 0 0-.6-.908 2.85 2.85 0 0 0-1.016-.605c-.407-.147-.887-.22-1.44-.22H1.997zm0-1.006h3.281c1.003-.02 1.78-.255 2.33-.708.55-.452.825-1.111.825-1.977 0-.912-.285-1.584-.855-2.017-.57-.433-1.43-.65-2.583-.65H1.998v5.352zm16.378-1.728a4.365 4.365 0 0 0-.79-.069c-.398 0-.756.059-1.075.176-.319.117-.6.282-.845.493-.244.212-.449.463-.615.752a4.17 4.17 0 0 0-.395.962V44h-1.162V33.434h1.142l.02 1.68a3.497 3.497 0 0 1 1.167-1.373c.491-.335 1.095-.503 1.811-.503.143 0 .29.013.44.04.15.025.26.055.332.087l-.03 1.065zm8.84 9.57a3.357 3.357 0 0 1-.152-.669 9.257 9.257 0 0 1-.073-.806 4.152 4.152 0 0 1-1.435 1.172 4.701 4.701 0 0 1-2.148.498 4.15 4.15 0 0 1-1.402-.224c-.42-.15-.778-.36-1.074-.63a2.846 2.846 0 0 1-.933-2.144c0-.514.11-.978.332-1.391a3.01 3.01 0 0 1 .957-1.055c.417-.29.923-.511 1.519-.664a8.078 8.078 0 0 1 2.006-.23h2.168v-1.2c0-.756-.232-1.35-.698-1.783-.465-.433-1.144-.65-2.036-.65-.41 0-.788.056-1.133.167a2.86 2.86 0 0 0-.893.459 2.18 2.18 0 0 0-.586.678 1.7 1.7 0 0 0-.21.826l-1.172-.01c0-.397.097-.781.293-1.153.195-.37.47-.701.825-.99.355-.29.781-.523 1.28-.699a4.946 4.946 0 0 1 1.655-.264c.56 0 1.075.072 1.547.215.472.143.878.358 1.216.645.339.286.602.644.791 1.074.189.43.283.93.283 1.504v5.117c0 .182.007.371.02.566.013.196.034.384.063.567.03.182.064.356.103.522.039.166.085.311.137.435V44h-1.25zm-3.672-.84c.423 0 .815-.054 1.177-.161.36-.107.688-.256.981-.444.293-.19.547-.409.762-.66a3.32 3.32 0 0 0 .517-.815v-2.324H24.98a7.27 7.27 0 0 0-1.606.161c-.472.107-.87.262-1.196.464a2.19 2.19 0 0 0-.747.737c-.173.29-.26.617-.26.982 0 .286.056.555.167.805.11.25.268.469.473.655.205.185.455.332.747.439.293.107.622.161.987.161zm9.542-9.726l.04 1.806c.182-.3.392-.573.63-.82a3.834 3.834 0 0 1 2.817-1.182c.527 0 .999.072 1.416.215.416.143.77.371 1.06.684.289.312.51.714.663 1.206.153.491.23 1.085.23 1.782V44H38.78v-6.885c0-.547-.059-1.002-.176-1.367-.117-.365-.283-.658-.498-.879a1.812 1.812 0 0 0-.786-.473 3.52 3.52 0 0 0-1.03-.142c-.417 0-.795.07-1.133.21-.339.14-.638.327-.899.561a3.74 3.74 0 0 0-.674.806 4.626 4.626 0 0 0-.449.933V44h-1.162V33.434h1.113zm10.119 5.185c0-.82.094-1.56.283-2.222.189-.66.459-1.225.81-1.694a3.63 3.63 0 0 1 1.285-1.084c.504-.254 1.072-.38 1.704-.38.749 0 1.391.149 1.929.449.537.299.981.712 1.333 1.24V29h1.162v15h-1.094l-.049-1.406a3.71 3.71 0 0 1-1.343 1.177c-.543.283-1.196.424-1.958.424a3.573 3.573 0 0 1-1.69-.395 3.77 3.77 0 0 1-1.278-1.104c-.352-.472-.622-1.036-.811-1.694a7.874 7.874 0 0 1-.283-2.178v-.205zm1.181.205c0 .619.062 1.193.186 1.724.124.53.312.991.566 1.382.254.39.575.696.962.918.388.221.848.332 1.382.332.397 0 .757-.048 1.08-.142.322-.094.608-.226.859-.395.25-.17.468-.372.654-.606.185-.234.343-.488.474-.762v-4.96a4.736 4.736 0 0 0-.43-.772 2.92 2.92 0 0 0-1.485-1.118 3.426 3.426 0 0 0-1.132-.171c-.54 0-1.006.112-1.397.337-.39.224-.713.532-.967.923-.254.39-.442.853-.566 1.386a7.602 7.602 0 0 0-.186 1.72v.204zm10.47-.263c0-.769.113-1.478.337-2.13a5.044 5.044 0 0 1 .953-1.684c.41-.472.905-.841 1.484-1.108.58-.267 1.224-.4 1.934-.4.722 0 1.375.133 1.958.4.582.267 1.079.636 1.489 1.108.41.472.726 1.034.947 1.685.222.65.332 1.36.332 2.129v.322c0 .768-.11 1.478-.332 2.129a4.979 4.979 0 0 1-.947 1.684c-.41.472-.905.84-1.484 1.104-.58.263-1.228.395-1.944.395s-1.364-.132-1.943-.395a4.351 4.351 0 0 1-1.49-1.104 4.998 4.998 0 0 1-.957-1.684 6.488 6.488 0 0 1-.336-2.13v-.321zm1.172.322c0 .58.079 1.131.235 1.655.156.524.384.983.683 1.377.3.394.671.708 1.114.942.442.235.95.352 1.523.352s1.08-.117 1.519-.352c.44-.234.809-.548 1.108-.942.3-.394.527-.853.684-1.377a5.763 5.763 0 0 0 .234-1.655v-.322c0-.567-.078-1.112-.234-1.636a4.322 4.322 0 0 0-.684-1.382 3.363 3.363 0 0 0-1.118-.952c-.446-.238-.955-.357-1.528-.357-.567 0-1.07.12-1.51.357-.439.237-.808.555-1.108.952-.3.397-.527.858-.683 1.382a5.695 5.695 0 0 0-.235 1.636v.322zm12.502-5.45l.039 1.807c.182-.3.392-.573.63-.82a3.834 3.834 0 0 1 2.817-1.182c.528 0 1 .072 1.416.215.417.143.77.371 1.06.684.29.312.51.714.664 1.206.153.491.23 1.085.23 1.782V44h-1.163v-6.885c0-.547-.058-1.002-.176-1.367-.117-.365-.283-.658-.498-.879a1.812 1.812 0 0 0-.786-.473 3.52 3.52 0 0 0-1.03-.142c-.417 0-.794.07-1.133.21-.338.14-.638.327-.898.561a3.74 3.74 0 0 0-.674.806 4.626 4.626 0 0 0-.45.933V44h-1.161V33.434h1.113zM11.06 72.312c-.123.175-.31.374-.561.595-.25.222-.576.427-.977.615-.4.19-.882.349-1.445.479-.563.13-1.216.195-1.958.195-.84 0-1.608-.151-2.305-.454a5.143 5.143 0 0 1-1.801-1.299c-.505-.563-.897-1.245-1.177-2.046-.28-.8-.42-1.699-.42-2.695v-1.728c0-.977.127-1.86.38-2.647.255-.788.621-1.458 1.1-2.012a4.862 4.862 0 0 1 1.733-1.279c.677-.3 1.442-.45 2.295-.45.788 0 1.484.107 2.09.318a4.53 4.53 0 0 1 1.543.884c.423.378.758.822 1.005 1.333.248.511.41 1.066.489 1.665H9.85a4.836 4.836 0 0 0-.371-1.21 3.158 3.158 0 0 0-.733-1.012 3.479 3.479 0 0 0-1.157-.693c-.46-.172-1.01-.259-1.655-.259-.697 0-1.312.129-1.846.386a3.81 3.81 0 0 0-1.353 1.084c-.367.466-.646 1.027-.835 1.685a7.913 7.913 0 0 0-.283 2.187v1.748c0 .834.108 1.587.322 2.26.215.675.52 1.25.914 1.725.393.475.867.843 1.42 1.103a4.28 4.28 0 0 0 1.846.39c.547 0 1.029-.04 1.445-.121a5.957 5.957 0 0 0 1.084-.308c.306-.124.559-.257.757-.4.199-.144.35-.28.454-.41v-3.672H6.041v-1.016h5.02v5.059zm8.732-7.881a4.365 4.365 0 0 0-.79-.069c-.398 0-.756.059-1.075.176-.319.117-.6.282-.845.493-.244.212-.449.463-.615.752a4.17 4.17 0 0 0-.395.962V74H14.91V63.434h1.142l.02 1.68a3.497 3.497 0 0 1 1.167-1.373c.491-.335 1.095-.503 1.811-.503.143 0 .29.013.44.04.15.025.26.055.332.087l-.03 1.065zm1.72 4.13c0-.768.113-1.477.337-2.128a5.044 5.044 0 0 1 .953-1.685c.41-.472.905-.841 1.484-1.108.58-.267 1.224-.4 1.934-.4.722 0 1.375.133 1.958.4.582.267 1.079.636 1.489 1.108.41.472.726 1.034.947 1.685.221.65.332 1.36.332 2.129v.322c0 .768-.11 1.478-.332 2.129a4.979 4.979 0 0 1-.947 1.684c-.41.472-.905.84-1.485 1.104-.579.263-1.227.395-1.943.395s-1.364-.132-1.943-.395a4.351 4.351 0 0 1-1.49-1.104 4.998 4.998 0 0 1-.957-1.684 6.488 6.488 0 0 1-.336-2.13v-.321zm1.172.323c0 .58.079 1.131.235 1.655.156.524.384.983.683 1.377.3.394.671.708 1.114.942.442.235.95.352 1.523.352s1.08-.117 1.519-.352c.44-.234.809-.548 1.108-.942.3-.394.527-.853.684-1.377a5.763 5.763 0 0 0 .234-1.655v-.322c0-.567-.078-1.112-.234-1.636a4.322 4.322 0 0 0-.684-1.382 3.363 3.363 0 0 0-1.118-.952c-.446-.238-.955-.357-1.528-.357-.567 0-1.07.12-1.51.357-.439.237-.808.555-1.108.952-.3.397-.527.858-.683 1.382a5.695 5.695 0 0 0-.235 1.636v.322zm13.205-8.154v2.705h2.187v.957H35.89v7.04c0 .372.037.67.112.894.075.225.176.4.303.528a.942.942 0 0 0 .44.253c.165.043.34.064.522.064.176 0 .345-.011.508-.034l.44-.064.048.957c-.143.052-.33.093-.562.122a5.47 5.47 0 0 1-.688.044 3.1 3.1 0 0 1-.923-.132 1.654 1.654 0 0 1-.727-.454c-.202-.214-.36-.5-.474-.854-.114-.355-.17-.796-.17-1.323V64.39h-1.944v-.957h1.943v-2.705h1.172zm9.415 13.466c-.69 0-1.324-.128-1.904-.385a4.46 4.46 0 0 1-1.499-1.075 4.938 4.938 0 0 1-.981-1.635 5.936 5.936 0 0 1-.352-2.08v-.42c0-.814.122-1.551.366-2.212.244-.661.575-1.224.992-1.69a4.445 4.445 0 0 1 1.44-1.079 4.024 4.024 0 0 1 1.724-.38c.67 0 1.266.12 1.787.36.52.241.958.577 1.313 1.006.355.43.624.941.806 1.534.182.592.273 1.24.273 1.943v.713H41.73v.225c0 .579.088 1.124.264 1.635.176.511.423.956.742 1.333.32.378.7.676 1.143.894.442.218.934.327 1.474.327.625 0 1.177-.114 1.656-.342.478-.228.913-.592 1.303-1.094l.733.557c-.176.254-.38.495-.61.723-.232.228-.5.426-.806.595-.306.17-.651.303-1.036.4a5.237 5.237 0 0 1-1.289.147zm-.214-9.96a2.973 2.973 0 0 0-2.232.976c-.29.312-.527.688-.713 1.128-.185.44-.31.926-.376 1.46h6.338v-.127a4.715 4.715 0 0 0-.215-1.284c-.13-.414-.32-.78-.571-1.099a2.816 2.816 0 0 0-.933-.767c-.37-.192-.804-.288-1.298-.288zm13.497 7.08c0-.215-.037-.43-.112-.645a1.54 1.54 0 0 0-.42-.61c-.205-.192-.492-.372-.86-.538-.367-.166-.844-.31-1.43-.434a12.34 12.34 0 0 1-1.568-.43 4.511 4.511 0 0 1-1.162-.59 2.334 2.334 0 0 1-.717-.826c-.163-.319-.245-.693-.245-1.123 0-.39.087-.762.26-1.113.172-.352.42-.658.741-.918.323-.26.713-.467 1.172-.62a4.88 4.88 0 0 1 1.548-.23c.612 0 1.16.08 1.646.24.485.159.895.38 1.23.664.335.283.59.616.767 1 .175.385.263.801.263 1.25h-1.172c0-.273-.06-.54-.18-.8s-.296-.49-.528-.689a2.728 2.728 0 0 0-.859-.483 3.416 3.416 0 0 0-1.167-.186c-.456 0-.845.056-1.167.166a2.4 2.4 0 0 0-.79.43 1.634 1.634 0 0 0-.592 1.25c0 .234.036.448.108.64.071.192.21.37.415.537.205.166.491.319.86.459.367.14.847.278 1.44.415.638.15 1.188.316 1.65.498.462.182.845.399 1.147.65.303.25.528.536.674.859.147.322.22.695.22 1.118 0 .436-.091.835-.274 1.196-.182.361-.442.67-.78.928a3.807 3.807 0 0 1-1.231.6 5.644 5.644 0 0 1-1.612.215c-.67 0-1.263-.086-1.777-.258a3.984 3.984 0 0 1-1.299-.699 2.939 2.939 0 0 1-.796-1.01 2.758 2.758 0 0 1-.268-1.187h1.172c.026.417.133.763.322 1.04s.423.498.703.664c.28.166.59.285.933.357a4.92 4.92 0 0 0 1.01.107 3.99 3.99 0 0 0 1.172-.156 2.72 2.72 0 0 0 .855-.42c.23-.176.405-.378.522-.606a1.54 1.54 0 0 0 .176-.713zm4.044-2.696c0-.82.093-1.56.279-2.222.185-.66.454-1.225.805-1.694.352-.469.782-.83 1.29-1.084.507-.254 1.083-.38 1.728-.38.742 0 1.382.143 1.919.429.537.286.981.687 1.333 1.201l.059-1.435h1.093v14.629h-1.172V72.69a3.774 3.774 0 0 1-1.347 1.104c-.54.267-1.175.4-1.905.4-.638 0-1.209-.132-1.713-.395a3.756 3.756 0 0 1-1.285-1.104c-.351-.472-.62-1.036-.805-1.694a8.004 8.004 0 0 1-.279-2.178v-.205zm1.182.205c0 .619.062 1.195.186 1.729.123.534.314.997.57 1.391.258.394.582.703.973.928.39.225.852.337 1.386.337.384 0 .734-.046 1.05-.137a3.08 3.08 0 0 0 .845-.38 3.08 3.08 0 0 0 .654-.577c.189-.221.352-.465.488-.732v-5.176a4.035 4.035 0 0 0-.444-.737 3.098 3.098 0 0 0-1.48-1.07 3.329 3.329 0 0 0-1.093-.166c-.54 0-1.006.113-1.397.337a2.87 2.87 0 0 0-.976.933c-.26.397-.453.863-.576 1.396a7.602 7.602 0 0 0-.186 1.72v.204zm17.95 3.838a3.387 3.387 0 0 1-1.323 1.128c-.55.27-1.232.405-2.045.405-.521 0-.993-.073-1.416-.22a2.731 2.731 0 0 1-1.094-.698c-.306-.319-.542-.73-.708-1.235-.166-.505-.25-1.118-.25-1.84v-6.768h1.163v6.787c0 .566.065 1.038.195 1.416.13.377.306.68.527.908.222.228.48.39.777.488.296.098.61.147.942.147.469 0 .882-.052 1.24-.157.359-.104.668-.25.928-.439s.475-.41.645-.664a3.33 3.33 0 0 0 .4-.84v-7.646h1.172V74h-1.133l-.02-1.338zm8.996 1.533c-.69 0-1.325-.128-1.904-.385a4.46 4.46 0 0 1-1.5-1.075 4.938 4.938 0 0 1-.98-1.635 5.936 5.936 0 0 1-.352-2.08v-.42c0-.814.122-1.551.366-2.212.244-.661.575-1.224.991-1.69a4.445 4.445 0 0 1 1.44-1.079 4.024 4.024 0 0 1 1.724-.38c.67 0 1.267.12 1.787.36.521.241.96.577 1.314 1.006.355.43.623.941.806 1.534.182.592.273 1.24.273 1.943v.713h-7.539v.225c0 .579.088 1.124.264 1.635.175.511.423.956.742 1.333.319.378.7.676 1.142.894.443.218.935.327 1.475.327.625 0 1.177-.114 1.655-.342.479-.228.913-.592 1.304-1.094l.732.557c-.175.254-.379.495-.61.723-.231.228-.5.426-.806.595-.306.17-.65.303-1.035.4a5.237 5.237 0 0 1-1.289.147zm-.215-9.96a2.973 2.973 0 0 0-2.231.976c-.29.312-.527.688-.713 1.128-.186.44-.31.926-.376 1.46h6.338v-.127a4.715 4.715 0 0 0-.215-1.284c-.13-.414-.32-.78-.571-1.099a2.816 2.816 0 0 0-.933-.767c-.37-.192-.804-.288-1.299-.288z"/><path fill="#222" d="M173.329 98c-2.055 0-3.151-1.781-2.329-3.562l42.607-92.201c.411-.822 1.096-1.507 2.329-1.507h1.37c1.37 0 1.918.685 2.329 1.507l42.196 92.201c.822 1.781-.274 3.562-2.329 3.562h-11.919c-2.055 0-3.014-.822-3.973-2.74l-6.713-14.796h-40.963l-6.713 14.796c-.548 1.37-1.781 2.74-3.973 2.74h-11.919zm29.318-32.743h27.537l-13.7-30.14h-.411l-13.426 30.14zm69.14 15.344c0-9.727 7.945-17.262 21.92-17.262 5.48 0 10 1.507 10 1.507.137-6.987-2.055-9.453-7.124-9.453-5.069 0-12.193 1.096-15.344 2.055-1.918.548-2.877-.685-3.15-2.466l-1.234-7.124c-.41-2.055.685-3.014 1.918-3.425 1.096-.411 9.864-2.603 18.632-2.603 17.125 0 21.098 8.905 21.098 23.838v29.729c0 1.37-1.233 2.603-2.603 2.603h-4.932c-.959 0-1.644-.411-2.329-1.918l-1.644-3.699c-3.15 2.877-8.22 6.987-16.714 6.987-10.96 0-18.495-7.124-18.495-18.769zm15.07 0c0 4.11 2.876 7.124 7.123 7.124 4.384 0 8.631-3.699 9.453-5.343v-7.535s-3.699-1.644-7.672-1.644c-5.343 0-8.905 3.014-8.905 7.398z"/></g></svg>