<svg xmlns="http://www.w3.org/2000/svg" width="319" height="100" viewBox="0 0 319 100">
  <g fill="none" fill-rule="evenodd" transform="translate(-1 -46)">
    <path fill="#8B949B" d="M1.796875,90 L1.796875,75.78125 L5.99609375,75.78125 C6.71875361,75.78125 7.36653359,75.8544915 7.93945312,76.0009766 C8.51237266,76.1474617 8.99902144,76.3720688 9.39941406,76.6748047 C9.79980669,76.9775406 10.1074208,77.3632789 10.3222656,77.8320312 C10.5371104,78.3007836 10.6445312,78.8574187 10.6445312,79.5019531 C10.6445312,79.8665383 10.594076,80.2099593 10.4931641,80.5322266 C10.3922521,80.8544938 10.2441416,81.1490872 10.0488281,81.4160156 C9.85351465,81.682944 9.6175144,81.9156891 9.34082031,82.1142578 C9.06412622,82.3128265 8.75000176,82.4707025 8.3984375,82.5878906 C8.81510625,82.6790369 9.19270664,82.8304026 9.53125,83.0419922 C9.86979336,83.2535818 10.159504,83.5107407 10.4003906,83.8134766 C10.6412772,84.1162125 10.8268223,84.4531231 10.9570312,84.8242188 C11.0872402,85.1953144 11.1523438,85.5859354 11.1523438,85.9960938 C11.1523438,86.6471387 11.0432954,87.2216772 10.8251953,87.7197266 C10.6070953,88.2177759 10.2978536,88.636066 9.89746094,88.9746094 C9.49706831,89.3131527 9.01692988,89.568684 8.45703125,89.7412109 C7.89713262,89.9137378 7.27864922,90 6.6015625,90 L1.796875,90 Z M2.99804688,83.1640625 L2.99804688,88.984375 L6.6015625,88.984375 C7.12239844,88.984375 7.58951616,88.9160163 8.00292969,88.7792969 C8.41634321,88.6425774 8.7679022,88.4472669 9.05761719,88.1933594 C9.34733218,87.9394519 9.56868413,87.6285826 9.72167969,87.2607422 C9.87467524,86.8929018 9.95117188,86.4778669 9.95117188,86.015625 C9.95117188,85.6184876 9.88606836,85.24577 9.75585938,84.8974609 C9.62565039,84.5491519 9.42545708,84.2464206 9.15527344,83.9892578 C8.88508979,83.7320951 8.54655151,83.5302742 8.13964844,83.3837891 C7.73274536,83.237304 7.25260693,83.1640625 6.69921875,83.1640625 L2.99804688,83.1640625 Z M2.99804688,82.1582031 L6.27929688,82.1582031 C7.28190605,82.1386718 8.05826548,81.9026715 8.60839844,81.4501953 C9.1585314,80.9977191 9.43359375,80.338546 9.43359375,79.4726562 C9.43359375,78.5611934 9.14876587,77.8889996 8.57910156,77.4560547 C8.00943726,77.0231098 7.14844326,76.8066406 5.99609375,76.8066406 L2.99804688,76.8066406 L2.99804688,82.1582031 Z M19.376395,80.4296875 C19.128998,80.3841144 18.8653287,80.3613281 18.5853794,80.3613281 C18.188242,80.3613281 17.8301727,80.4199213 17.5111607,80.5371094 C17.1921487,80.6542975 16.910576,80.8186838 16.6664341,81.0302734 C16.4222923,81.241863 16.2172162,81.4925116 16.0511997,81.7822266 C15.8851833,82.0719416 15.7533487,82.3925764 15.6556919,82.7441406 L15.6556919,90 L14.4935825,90 L14.4935825,79.4335938 L15.6361607,79.4335938 L15.6556919,81.1132812 C15.9421517,80.5338513 16.3311452,80.0764991 16.8226841,79.7412109 C17.314223,79.4059228 17.9180581,79.2382812 18.6342075,79.2382812 C18.7774374,79.2382812 18.9239203,79.251302 19.0736607,79.2773438 C19.223401,79.3033855 19.334077,79.3326821 19.4056919,79.3652344 L19.376395,80.4296875 Z M28.2156807,90 C28.1505762,89.8177074 28.100121,89.5947279 28.0643135,89.3310547 C28.0285061,89.0673815 28.0040922,88.7988295 27.9910713,88.5253906 C27.8152892,88.7532563 27.606958,88.9680979 27.3660713,89.1699219 C27.1251847,89.3717458 26.8550051,89.5475253 26.5555245,89.6972656 C26.2560438,89.847006 25.9272711,89.9674475 25.5691963,90.0585938 C25.2111216,90.14974 24.8237557,90.1953125 24.407087,90.1953125 C23.8927615,90.1953125 23.4256438,90.1204435 23.0057198,89.9707031 C22.5857958,89.8209628 22.2277265,89.611004 21.931501,89.3408203 C21.6352756,89.0706367 21.4057857,88.753257 21.2430245,88.3886719 C21.0802632,88.0240867 20.9988838,87.6269553 20.9988838,87.1972656 C20.9988838,86.6829401 21.1095598,86.2190776 21.3309151,85.8056641 C21.5522704,85.3922505 21.8712776,85.0406916 22.2879463,84.7509766 C22.7046151,84.4612616 23.2107949,84.2399096 23.806501,84.0869141 C24.4022071,83.9339185 25.0711458,83.8574219 25.813337,83.8574219 L27.9813057,83.8574219 L27.9813057,82.65625 C27.9813057,81.9010379 27.7485607,81.3069683 27.2830635,80.8740234 C26.8175664,80.4410786 26.1388623,80.2246094 25.2469307,80.2246094 C24.8367724,80.2246094 24.459172,80.2799474 24.1141182,80.390625 C23.7690644,80.5013026 23.4712158,80.6542959 23.2205635,80.8496094 C22.9699112,81.0449229 22.7746007,81.2711576 22.634626,81.5283203 C22.4946514,81.7854831 22.4246651,82.0605454 22.4246651,82.3535156 L21.2527901,82.34375 C21.2527901,81.9466126 21.3504454,81.5625019 21.5457588,81.1914062 C21.7410723,80.8203106 22.0161347,80.4899103 22.3709542,80.2001953 C22.7257736,79.9104803 23.1522017,79.6777353 23.650251,79.5019531 C24.1483004,79.326171 24.7000527,79.2382812 25.3055245,79.2382812 C25.8654231,79.2382812 26.3813685,79.3098951 26.853376,79.453125 C27.3253836,79.5963549 27.730653,79.8111965 28.0691963,80.0976562 C28.4077397,80.384116 28.6714089,80.7421854 28.860212,81.171875 C29.049015,81.6015646 29.1434151,82.1028617 29.1434151,82.6757812 L29.1434151,87.7929688 C29.1434151,87.9752613 29.1499254,88.1640615 29.1629463,88.359375 C29.1759672,88.5546885 29.1971259,88.7434887 29.2264229,88.9257812 C29.2557199,89.1080738 29.2898993,89.2822257 29.328962,89.4482422 C29.3680247,89.6142586 29.4135971,89.759114 29.4656807,89.8828125 L29.4656807,90 L28.2156807,90 Z M24.5438057,89.1601562 C24.9669849,89.1601562 25.3592336,89.1064458 25.7205635,88.9990234 C26.0818935,88.891601 26.4090386,88.7434905 26.7020088,88.5546875 C26.9949791,88.3658845 27.2488828,88.1461601 27.4637276,87.8955078 C27.6785724,87.6448555 27.8510967,87.3730483 27.9813057,87.0800781 L27.9813057,84.7558594 L25.9793526,84.7558594 C25.3803913,84.7558594 24.8449148,84.8095698 24.3729073,84.9169922 C23.9008997,85.0244146 23.5021407,85.1790354 23.1766182,85.3808594 C22.8510958,85.5826833 22.6020748,85.8284491 22.4295479,86.1181641 C22.257021,86.4078791 22.1707588,86.7350242 22.1707588,87.0996094 C22.1707588,87.3860691 22.2260968,87.6546211 22.3367745,87.9052734 C22.4474521,88.1559257 22.6053281,88.3740225 22.8104073,88.5595703 C23.0154864,88.7451181 23.2645074,88.891601 23.5574776,88.9990234 C23.8504478,89.1064458 24.1792206,89.1601562 24.5438057,89.1601562 Z M34.0862164,79.4335938 L34.1252789,81.2402344 C34.3075715,80.9407537 34.5175303,80.6673189 34.7551617,80.4199219 C34.9927931,80.1725248 35.2580899,79.9609384 35.5510601,79.7851562 C35.8440304,79.6093741 36.1597824,79.4742843 36.4983258,79.3798828 C36.8368691,79.2854813 37.1949385,79.2382812 37.5725445,79.2382812 C38.0998909,79.2382812 38.5718914,79.3098951 38.9885601,79.453125 C39.4052289,79.5963549 39.7584155,79.8242172 40.0481305,80.1367188 C40.3378454,80.4492203 40.5591974,80.8512345 40.712193,81.3427734 C40.8651885,81.8343124 40.9416851,82.4283819 40.9416851,83.125 L40.9416851,90 L39.7795758,90 L39.7795758,83.1152344 C39.7795758,82.5683566 39.7209826,82.112632 39.6037945,81.7480469 C39.4866064,81.3834617 39.3205925,81.0904959 39.1057476,80.8691406 C38.8909028,80.6477854 38.6288612,80.4899093 38.3196148,80.3955078 C38.0103685,80.3011063 37.6669474,80.2539062 37.2893414,80.2539062 C36.8726726,80.2539062 36.4950722,80.3238925 36.1565289,80.4638672 C35.8179855,80.6038418 35.5185094,80.7910145 35.2580914,81.0253906 C34.9976734,81.2597668 34.7730663,81.5283188 34.5842633,81.8310547 C34.3954602,82.1337906 34.2457222,82.4446599 34.1350445,82.7636719 L34.1350445,90 L32.9729351,90 L32.9729351,79.4335938 L34.0862164,79.4335938 Z M44.2047989,84.6191406 C44.2047989,83.798824 44.299199,83.0582715 44.4880021,82.3974609 C44.6768051,81.7366503 44.9469847,81.1718773 45.2985489,80.703125 C45.6501132,80.2343727 46.0781688,79.8730481 46.5827286,79.6191406 C47.0872884,79.3652331 47.6553166,79.2382812 48.2868302,79.2382812 C49.0355318,79.2382812 49.6784291,79.3880193 50.2155411,79.6875 C50.7526532,79.9869807 51.1969847,80.400388 51.5485489,80.9277344 L51.5485489,75 L52.7106583,75 L52.7106583,90 L51.6169083,90 L51.5680802,88.59375 C51.2165159,89.0950546 50.7689293,89.4873033 50.2253067,89.7705078 C49.6816842,90.0537124 49.0290215,90.1953125 48.2672989,90.1953125 C47.6422958,90.1953125 47.0791504,90.0634779 46.5778458,89.7998047 C46.0765412,89.5361315 45.6501132,89.1682966 45.2985489,88.6962891 C44.9469847,88.2242815 44.6768051,87.6595085 44.4880021,87.0019531 C44.299199,86.3443978 44.2047989,85.6184936 44.2047989,84.8242188 L44.2047989,84.6191406 Z M45.3864396,84.8242188 C45.3864396,85.4427114 45.4482879,86.01725 45.5719864,86.5478516 C45.695685,87.0784532 45.8844852,87.5390605 46.1383927,87.9296875 C46.3923002,88.3203145 46.712935,88.626301 47.1003067,88.8476562 C47.4876785,89.0690115 47.9482859,89.1796875 48.4821427,89.1796875 C48.8792801,89.1796875 49.238977,89.1324875 49.5612442,89.0380859 C49.8835115,88.9436844 50.169967,88.8118498 50.4206192,88.6425781 C50.6712715,88.4733064 50.8893683,88.2714855 51.0749161,88.0371094 C51.2604639,87.8027332 51.41834,87.5488295 51.5485489,87.2753906 L51.5485489,82.3144531 C51.4313609,82.0475247 51.2881331,81.7903658 51.1188614,81.5429688 C50.9495898,81.2955717 50.7412585,81.0758473 50.4938614,80.8837891 C50.2464644,80.6917308 49.9600089,80.5387375 49.6344864,80.4248047 C49.308964,80.3108718 48.9313636,80.2539062 48.5016739,80.2539062 C47.9613067,80.2539062 47.4958165,80.3662098 47.1051896,80.5908203 C46.7145626,80.8154308 46.3923002,81.1230449 46.1383927,81.5136719 C45.8844852,81.9042988 45.695685,82.3665338 45.5719864,82.9003906 C45.4482879,83.4342475 45.3864396,84.0071584 45.3864396,84.6191406 L45.3864396,84.8242188 Z M55.8565846,84.5605469 C55.8565846,83.7923139 55.9688882,83.0826855 56.1934987,82.4316406 C56.4181092,81.7805957 56.7354888,81.2190779 57.1456471,80.7470703 C57.5558054,80.2750627 58.0505921,79.9056003 58.6300221,79.6386719 C59.2094521,79.3717435 59.8539769,79.2382812 60.5636159,79.2382812 C61.2862757,79.2382812 61.9389385,79.3717435 62.5216237,79.6386719 C63.1043089,79.9056003 63.6007232,80.2750627 64.0108815,80.7470703 C64.4210398,81.2190779 64.7367918,81.7805957 64.9581471,82.4316406 C65.1795024,83.0826855 65.2901784,83.7923139 65.2901784,84.5605469 L65.2901784,84.8828125 C65.2901784,85.6510455 65.1795024,86.3606738 64.9581471,87.0117188 C64.7367918,87.6627637 64.4210398,88.2242815 64.0108815,88.6962891 C63.6007232,89.1682966 63.1059365,89.5361315 62.5265065,89.7998047 C61.9470765,90.0634779 61.2992965,90.1953125 60.5831471,90.1953125 C59.8669977,90.1953125 59.2192177,90.0634779 58.6397877,89.7998047 C58.0603578,89.5361315 57.5639434,89.1682966 57.1505299,88.6962891 C56.7371164,88.2242815 56.4181092,87.6627637 56.1934987,87.0117188 C55.9688882,86.3606738 55.8565846,85.6510455 55.8565846,84.8828125 L55.8565846,84.5605469 Z M57.0284596,84.8828125 C57.0284596,85.4622425 57.1065838,86.0139948 57.2628346,86.5380859 C57.4190854,87.0621771 57.6469477,87.5211569 57.9464284,87.9150391 C58.245909,88.3089212 58.6169991,88.6230457 59.0597096,88.8574219 C59.5024202,89.091798 60.0102276,89.2089844 60.5831471,89.2089844 C61.1560666,89.2089844 61.6622465,89.091798 62.1017018,88.8574219 C62.5411571,88.6230457 62.9106196,88.3089212 63.2101002,87.9150391 C63.5095809,87.5211569 63.7374432,87.0621771 63.893694,86.5380859 C64.0499448,86.0139948 64.128069,85.4622425 64.128069,84.8828125 L64.128069,84.5605469 C64.128069,83.9941378 64.0499448,83.4488958 63.893694,82.9248047 C63.7374432,82.4007135 63.5095809,81.9401062 63.2101002,81.5429688 C62.9106196,81.1458313 62.5379019,80.8284517 62.0919362,80.5908203 C61.6459704,80.3531889 61.1365354,80.234375 60.5636159,80.234375 C59.9972068,80.234375 59.4942821,80.3531889 59.0548268,80.5908203 C58.6153715,80.8284517 58.245909,81.1458313 57.9464284,81.5429688 C57.6469477,81.9401062 57.4190854,82.4007135 57.2628346,82.9248047 C57.1065838,83.4488958 57.0284596,83.9941378 57.0284596,84.5605469 L57.0284596,84.8828125 Z M69.5298547,79.4335938 L69.5689172,81.2402344 C69.7512097,80.9407537 69.9611686,80.6673189 70.1988,80.4199219 C70.4364314,80.1725248 70.7017282,79.9609384 70.9946984,79.7851562 C71.2876686,79.6093741 71.6034207,79.4742843 71.941964,79.3798828 C72.2805074,79.2854813 72.6385767,79.2382812 73.0161828,79.2382812 C73.5435292,79.2382812 74.0155297,79.3098951 74.4321984,79.453125 C74.8488672,79.5963549 75.2020537,79.8242172 75.4917687,80.1367188 C75.7814837,80.4492203 76.0028357,80.8512345 76.1558312,81.3427734 C76.3088268,81.8343124 76.3853234,82.4283819 76.3853234,83.125 L76.3853234,90 L75.223214,90 L75.223214,83.1152344 C75.223214,82.5683566 75.1646209,82.112632 75.0474328,81.7480469 C74.9302447,81.3834617 74.7642307,81.0904959 74.5493859,80.8691406 C74.3345411,80.6477854 74.0724994,80.4899093 73.7632531,80.3955078 C73.4540068,80.3011063 73.1105857,80.2539062 72.7329797,80.2539062 C72.3163109,80.2539062 71.9387105,80.3238925 71.6001672,80.4638672 C71.2616238,80.6038418 70.9621476,80.7910145 70.7017297,81.0253906 C70.4413117,81.2597668 70.2167046,81.5283188 70.0279015,81.8310547 C69.8390985,82.1337906 69.6893604,82.4446599 69.5786828,82.7636719 L69.5786828,90 L68.4165734,90 L68.4165734,79.4335938 L69.5298547,79.4335938 Z M12.0605469,118.310547 C11.9368483,118.486329 11.7496757,118.684895 11.4990234,118.90625 C11.2483711,119.127605 10.9228536,119.332681 10.5224609,119.521484 C10.1220683,119.710287 9.64030229,119.869791 9.07714844,120 C8.51399458,120.130209 7.86133184,120.195312 7.11914062,120.195312 C6.27929268,120.195312 5.51107119,120.043947 4.81445312,119.741211 C4.11783506,119.438475 3.51725513,119.005537 3.01269531,118.442383 C2.5081355,117.879229 2.11588682,117.19727 1.8359375,116.396484 C1.55598818,115.595699 1.41601562,114.697271 1.41601562,113.701172 L1.41601562,111.972656 C1.41601562,110.996089 1.54296748,110.113936 1.796875,109.326172 C2.05078252,108.538408 2.41698979,107.867841 2.89550781,107.314453 C3.37402583,106.761065 3.95181953,106.334637 4.62890625,106.035156 C5.30599297,105.735676 6.07095928,105.585938 6.92382812,105.585938 C7.71159248,105.585938 8.4082001,105.691731 9.01367188,105.90332 C9.61914365,106.11491 10.1334614,106.409503 10.5566406,106.787109 C10.9798198,107.164715 11.3151029,107.609047 11.5625,108.120117 C11.8098971,108.631187 11.9726559,109.186195 12.0507812,109.785156 L10.8496094,109.785156 C10.7779944,109.361977 10.6542978,108.958335 10.4785156,108.574219 C10.3027335,108.190102 10.0585953,107.853192 9.74609375,107.563477 C9.43359219,107.273762 9.04785386,107.042644 8.58886719,106.870117 C8.12988052,106.69759 7.57812822,106.611328 6.93359375,106.611328 C6.23697568,106.611328 5.62174746,106.739908 5.08789062,106.99707 C4.55403379,107.254233 4.10319194,107.615558 3.73535156,108.081055 C3.36751118,108.546552 3.08919365,109.10807 2.90039062,109.765625 C2.7115876,110.42318 2.6171875,111.15234 2.6171875,111.953125 L2.6171875,113.701172 C2.6171875,114.534509 2.7246083,115.288083 2.93945312,115.961914 C3.15429795,116.635746 3.45865688,117.210284 3.85253906,117.685547 C4.24642124,118.16081 4.72004932,118.528645 5.2734375,118.789062 C5.82682568,119.04948 6.44205391,119.179688 7.11914062,119.179688 C7.66601836,119.179688 8.14778438,119.138998 8.56445312,119.057617 C8.98112187,118.976237 9.34244639,118.873699 9.6484375,118.75 C9.95442861,118.626301 10.2067047,118.492839 10.4052734,118.349609 C10.6038421,118.206379 10.7552078,118.069662 10.859375,117.939453 L10.859375,114.267578 L7.04101562,114.267578 L7.04101562,113.251953 L12.0605469,113.251953 L12.0605469,118.310547 Z M20.7924107,110.429688 C20.5450136,110.384114 20.2813444,110.361328 20.001395,110.361328 C19.6042576,110.361328 19.2461883,110.419921 18.9271763,110.537109 C18.6081643,110.654297 18.3265916,110.818684 18.0824497,111.030273 C17.8383079,111.241863 17.6332318,111.492512 17.4672154,111.782227 C17.3011989,112.071942 17.1693643,112.392576 17.0717075,112.744141 L17.0717075,120 L15.9095982,120 L15.9095982,109.433594 L17.0521763,109.433594 L17.0717075,111.113281 C17.3581673,110.533851 17.7471608,110.076499 18.2386997,109.741211 C18.7302387,109.405923 19.3340738,109.238281 20.0502232,109.238281 C20.1934531,109.238281 20.339936,109.251302 20.4896763,109.277344 C20.6394166,109.303386 20.7500926,109.332682 20.8217075,109.365234 L20.7924107,110.429688 Z M22.5125557,114.560547 C22.5125557,113.792314 22.6248593,113.082686 22.8494698,112.431641 C23.0740803,111.780596 23.3914599,111.219078 23.8016182,110.74707 C24.2117765,110.275063 24.7065632,109.9056 25.2859932,109.638672 C25.8654232,109.371743 26.509948,109.238281 27.219587,109.238281 C27.9422468,109.238281 28.5949096,109.371743 29.1775948,109.638672 C29.76028,109.9056 30.2566943,110.275063 30.6668526,110.74707 C31.0770109,111.219078 31.3927629,111.780596 31.6141182,112.431641 C31.8354735,113.082686 31.9461495,113.792314 31.9461495,114.560547 L31.9461495,114.882812 C31.9461495,115.651046 31.8354735,116.360674 31.6141182,117.011719 C31.3927629,117.662764 31.0770109,118.224281 30.6668526,118.696289 C30.2566943,119.168297 29.7619076,119.536131 29.1824776,119.799805 C28.6030476,120.063478 27.9552676,120.195312 27.2391182,120.195312 C26.5229688,120.195312 25.8751888,120.063478 25.2957588,119.799805 C24.7163289,119.536131 24.2199146,119.168297 23.806501,118.696289 C23.3930875,118.224281 23.0740803,117.662764 22.8494698,117.011719 C22.6248593,116.360674 22.5125557,115.651046 22.5125557,114.882812 L22.5125557,114.560547 Z M23.6844307,114.882812 C23.6844307,115.462242 23.7625549,116.013995 23.9188057,116.538086 C24.0750565,117.062177 24.3029188,117.521157 24.6023995,117.915039 C24.9018801,118.308921 25.2729702,118.623046 25.7156807,118.857422 C26.1583913,119.091798 26.6661987,119.208984 27.2391182,119.208984 C27.8120377,119.208984 28.3182176,119.091798 28.7576729,118.857422 C29.1971282,118.623046 29.5665907,118.308921 29.8660713,117.915039 C30.165552,117.521157 30.3934143,117.062177 30.5496651,116.538086 C30.7059159,116.013995 30.7840401,115.462242 30.7840401,114.882812 L30.7840401,114.560547 C30.7840401,113.994138 30.7059159,113.448896 30.5496651,112.924805 C30.3934143,112.400714 30.165552,111.940106 29.8660713,111.542969 C29.5665907,111.145831 29.1938731,110.828452 28.7479073,110.59082 C28.3019415,110.353189 27.7925065,110.234375 27.219587,110.234375 C26.6531779,110.234375 26.1502532,110.353189 25.7107979,110.59082 C25.2713426,110.828452 24.9018801,111.145831 24.6023995,111.542969 C24.3029188,111.940106 24.0750565,112.400714 23.9188057,112.924805 C23.7625549,113.448896 23.6844307,113.994138 23.6844307,114.560547 L23.6844307,114.882812 Z M36.8889508,106.728516 L36.8889508,109.433594 L39.0764508,109.433594 L39.0764508,110.390625 L36.8889508,110.390625 L36.8889508,117.431641 C36.8889508,117.802736 36.9263853,118.100585 37.0012555,118.325195 C37.0761256,118.549806 37.1770361,118.725585 37.3039898,118.852539 C37.4309436,118.979493 37.5774265,119.064127 37.743443,119.106445 C37.9094594,119.148763 38.0836113,119.169922 38.2659039,119.169922 C38.441686,119.169922 38.6109552,119.158529 38.7737164,119.135742 C38.9364776,119.112956 39.0829605,119.091797 39.2131695,119.072266 L39.2619976,120.029297 C39.1187678,120.08138 38.9315951,120.12207 38.7004742,120.151367 C38.4693533,120.180664 38.2398634,120.195312 38.0119976,120.195312 C37.6799647,120.195312 37.3723506,120.151368 37.0891461,120.063477 C36.8059415,119.975585 36.5634309,119.82422 36.361607,119.609375 C36.1597831,119.39453 36.0019071,119.109702 35.8879742,118.754883 C35.7740413,118.400063 35.7170758,117.958987 35.7170758,117.431641 L35.7170758,110.390625 L33.7737164,110.390625 L33.7737164,109.433594 L35.7170758,109.433594 L35.7170758,106.728516 L36.8889508,106.728516 Z M46.3044083,120.195312 C45.6143007,120.195312 44.9795414,120.066733 44.4001114,119.80957 C43.8206815,119.552408 43.321012,119.194338 42.901088,118.735352 C42.481164,118.276365 42.1540189,117.731123 41.9196427,117.099609 C41.6852665,116.468096 41.5680802,115.774743 41.5680802,115.019531 L41.5680802,114.599609 C41.5680802,113.785803 41.6901493,113.048506 41.9342911,112.387695 C42.178433,111.726885 42.5088333,111.163739 42.9255021,110.698242 C43.3421708,110.232745 43.8223092,109.873048 44.3659317,109.619141 C44.9095543,109.365233 45.4840928,109.238281 46.0895646,109.238281 C46.7601408,109.238281 47.355838,109.358723 47.8766739,109.599609 C48.3975099,109.840496 48.835331,110.175779 49.1901505,110.605469 C49.54497,111.035158 49.813522,111.546221 49.9958146,112.138672 C50.1781071,112.731123 50.2692521,113.378903 50.2692521,114.082031 L50.2692521,114.794922 L42.7301896,114.794922 L42.7301896,115.019531 C42.7301896,115.598961 42.8180793,116.144203 42.9938614,116.655273 C43.1696436,117.166344 43.4170369,117.610675 43.7360489,117.988281 C44.0550609,118.365887 44.4359165,118.663736 44.8786271,118.881836 C45.3213376,119.099936 45.8128692,119.208984 46.3532364,119.208984 C46.9782396,119.208984 47.5299919,119.095053 48.0085099,118.867188 C48.4870279,118.639322 48.9215939,118.274742 49.3122208,117.773438 L50.0446427,118.330078 C49.8688606,118.583986 49.6654121,118.824869 49.4342911,119.052734 C49.2031702,119.2806 48.9346182,119.479166 48.6286271,119.648438 C48.3226359,119.817709 47.9775873,119.951171 47.5934708,120.048828 C47.2093543,120.146485 46.7796711,120.195312 46.3044083,120.195312 Z M46.0895646,110.234375 C45.646854,110.234375 45.2367019,110.31901 44.8590958,110.488281 C44.4814898,110.657553 44.1478342,110.898436 43.8581192,111.210938 C43.5684043,111.523439 43.3307764,111.899412 43.1452286,112.338867 C42.9596808,112.778323 42.8343566,113.264971 42.7692521,113.798828 L49.1071427,113.798828 L49.1071427,113.671875 C49.0941218,113.229164 49.0225079,112.801109 48.8922989,112.387695 C48.76209,111.974282 48.5716622,111.608075 48.3210099,111.289062 C48.0703576,110.97005 47.7594883,110.714519 47.3883927,110.522461 C47.0172971,110.330403 46.5843587,110.234375 46.0895646,110.234375 Z M59.5870534,117.314453 C59.5870534,117.099608 59.5496188,116.884767 59.4747487,116.669922 C59.3998785,116.455077 59.2599059,116.251629 59.0548268,116.05957 C58.8497476,115.867512 58.5632922,115.688477 58.1954518,115.522461 C57.8276114,115.356444 57.3507282,115.211589 56.7647877,115.087891 C56.1788473,114.964192 55.6563916,114.820964 55.1974049,114.658203 C54.7384183,114.495442 54.3510523,114.298504 54.0352955,114.067383 C53.7195388,113.836262 53.4802833,113.5612 53.3175221,113.242188 C53.1547609,112.923175 53.0733815,112.54883 53.0733815,112.119141 C53.0733815,111.728514 53.1596436,111.357424 53.3321705,111.005859 C53.5046975,110.654295 53.7520908,110.348309 54.074358,110.087891 C54.3966253,109.827473 54.7872464,109.620769 55.246233,109.467773 C55.7052197,109.314778 56.2211651,109.238281 56.7940846,109.238281 C57.4060668,109.238281 57.954564,109.318033 58.4395924,109.477539 C58.9246209,109.637045 59.334773,109.858397 59.6700612,110.141602 C60.0053493,110.424806 60.2608806,110.758462 60.4366627,111.142578 C60.6124449,111.526695 60.7003346,111.943357 60.7003346,112.392578 L59.5284596,112.392578 C59.5284596,112.119139 59.4682389,111.852215 59.3477955,111.591797 C59.2273522,111.331379 59.0515727,111.101889 58.8204518,110.90332 C58.5893308,110.704752 58.3028754,110.54362 57.9610768,110.419922 C57.6192782,110.296223 57.2302847,110.234375 56.7940846,110.234375 C56.3383532,110.234375 55.9493597,110.289713 55.6270924,110.400391 C55.3048252,110.511068 55.0411559,110.654296 54.8360768,110.830078 C54.6309976,111.00586 54.4812596,111.202798 54.386858,111.420898 C54.2924565,111.638998 54.2452565,111.858723 54.2452565,112.080078 C54.2452565,112.314454 54.2810634,112.527668 54.3526784,112.719727 C54.4242933,112.911785 54.5626383,113.090819 54.7677174,113.256836 C54.9727966,113.422852 55.259252,113.575846 55.6270924,113.71582 C55.9949328,113.855795 56.4750712,113.99414 57.0675221,114.130859 C57.7055461,114.2806 58.2556708,114.446614 58.7179127,114.628906 C59.1801546,114.811199 59.5626378,115.027668 59.8653737,115.27832 C60.1681096,115.528973 60.3927167,115.815428 60.5392018,116.137695 C60.6856869,116.459963 60.7589284,116.83268 60.7589284,117.255859 C60.7589284,117.692059 60.6677834,118.090819 60.4854909,118.452148 C60.3031983,118.813478 60.0427842,119.12272 59.7042409,119.379883 C59.3656975,119.637046 58.9555454,119.837239 58.4737721,119.980469 C57.9919989,120.123699 57.4548949,120.195312 56.862444,120.195312 C56.1918677,120.195312 55.5994257,120.10905 55.0851002,119.936523 C54.5707747,119.763997 54.1378364,119.531251 53.7862721,119.238281 C53.4347079,118.945311 53.169411,118.6084 52.9903737,118.227539 C52.8113363,117.846678 52.721819,117.451174 52.721819,117.041016 L53.893694,117.041016 C53.9197358,117.457684 54.0271566,117.804361 54.2159596,118.081055 C54.4047626,118.357749 54.6391353,118.579101 54.9190846,118.745117 C55.1990339,118.911134 55.5099032,119.029948 55.8517018,119.101562 C56.1935004,119.173177 56.5304111,119.208984 56.862444,119.208984 C57.3051545,119.208984 57.6957756,119.156902 58.034319,119.052734 C58.3728623,118.948567 58.6576902,118.808595 58.8888112,118.632812 C59.1199321,118.45703 59.294084,118.255209 59.4112721,118.027344 C59.5284602,117.799478 59.5870534,117.56185 59.5870534,117.314453 Z M63.6314172,114.619141 C63.6314172,113.798824 63.7241897,113.058272 63.9097375,112.397461 C64.0952853,111.73665 64.3638373,111.171877 64.7154015,110.703125 C65.0669658,110.234373 65.496649,109.873048 66.004464,109.619141 C66.5122791,109.365233 67.0884452,109.238281 67.7329797,109.238281 C68.4751709,109.238281 69.1148129,109.381509 69.651925,109.667969 C70.189037,109.954429 70.6333685,110.354815 70.9849328,110.869141 L71.0435265,109.433594 L72.1372765,109.433594 L72.1372765,124.0625 L70.9654015,124.0625 L70.9654015,118.691406 C70.6073268,119.160159 70.1581126,119.527993 69.6177453,119.794922 C69.077378,120.06185 68.4426187,120.195312 67.7134484,120.195312 C67.0754244,120.195312 66.504141,120.063478 65.9995812,119.799805 C65.4950214,119.536131 65.0669658,119.168297 64.7154015,118.696289 C64.3638373,118.224281 64.0952853,117.659508 63.9097375,117.001953 C63.7241897,116.344398 63.6314172,115.618494 63.6314172,114.824219 L63.6314172,114.619141 Z M64.8130578,114.824219 C64.8130578,115.442711 64.8749061,116.018878 64.9986047,116.552734 C65.1223032,117.086591 65.312731,117.550454 65.5698937,117.944336 C65.8270565,118.338218 66.1509465,118.64746 66.5415734,118.87207 C66.9322004,119.096681 67.3944353,119.208984 67.9282922,119.208984 C68.3124087,119.208984 68.6623401,119.163412 68.9780968,119.072266 C69.2938536,118.981119 69.5754263,118.854167 69.8228234,118.691406 C70.0702205,118.528645 70.2883173,118.33659 70.4771203,118.115234 C70.6659233,117.893879 70.8286821,117.649741 70.9654015,117.382812 L70.9654015,112.207031 C70.8482134,111.953124 70.7001029,111.707358 70.5210656,111.469727 C70.3420282,111.232095 70.1304418,111.022136 69.8863,110.839844 C69.6421581,110.657551 69.3605854,110.511068 69.0415734,110.400391 C68.7225614,110.289713 68.3579817,110.234375 67.9478234,110.234375 C67.4074561,110.234375 66.941966,110.346679 66.551339,110.571289 C66.1607121,110.7959 65.8351945,111.106769 65.5747765,111.503906 C65.3143586,111.901044 65.1223032,112.366534 64.9986047,112.900391 C64.8749061,113.434247 64.8130578,114.007158 64.8130578,114.619141 L64.8130578,114.824219 Z M82.7636716,118.662109 C82.4316387,119.143883 81.9905623,119.519855 81.4404294,119.790039 C80.8902964,120.060223 80.2083371,120.195312 79.394531,120.195312 C78.873695,120.195312 78.4016945,120.122071 77.9785153,119.975586 C77.5553361,119.829101 77.1907564,119.596356 76.8847653,119.277344 C76.5787742,118.958332 76.342774,118.546552 76.1767575,118.041992 C76.0107411,117.537432 75.9277341,116.923832 75.9277341,116.201172 L75.9277341,109.433594 L77.0898435,109.433594 L77.0898435,116.220703 C77.0898435,116.787112 77.154947,117.259113 77.285156,117.636719 C77.4153649,118.014325 77.5911444,118.317056 77.8124997,118.544922 C78.033855,118.772788 78.2926415,118.935546 78.5888669,119.033203 C78.8850923,119.13086 79.1992168,119.179688 79.5312497,119.179688 C80.000002,119.179688 80.4134094,119.127605 80.7714841,119.023438 C81.1295588,118.91927 81.4388005,118.772787 81.6992185,118.583984 C81.9596364,118.395181 82.174478,118.173829 82.3437497,117.919922 C82.5130214,117.666014 82.6464836,117.386069 82.7441403,117.080078 L82.7441403,109.433594 L83.9160153,109.433594 L83.9160153,120 L82.7832028,120 L82.7636716,118.662109 Z M91.7592072,120.195312 C91.0690996,120.195312 90.4343404,120.066733 89.8549104,119.80957 C89.2754804,119.552408 88.7758109,119.194338 88.3558869,118.735352 C87.935963,118.276365 87.6088178,117.731123 87.3744416,117.099609 C87.1400655,116.468096 87.0228791,115.774743 87.0228791,115.019531 L87.0228791,114.599609 C87.0228791,113.785803 87.1449482,113.048506 87.3890901,112.387695 C87.6332319,111.726885 87.9636322,111.163739 88.380301,110.698242 C88.7969697,110.232745 89.2771082,109.873048 89.8207307,109.619141 C90.3643532,109.365233 90.9388917,109.238281 91.5443635,109.238281 C92.2149398,109.238281 92.8106369,109.358723 93.3314729,109.599609 C93.8523088,109.840496 94.29013,110.175779 94.6449494,110.605469 C94.9997689,111.035158 95.2683209,111.546221 95.4506135,112.138672 C95.6329061,112.731123 95.724051,113.378903 95.724051,114.082031 L95.724051,114.794922 L88.1849885,114.794922 L88.1849885,115.019531 C88.1849885,115.598961 88.2728782,116.144203 88.4486604,116.655273 C88.6244425,117.166344 88.8718359,117.610675 89.1908479,117.988281 C89.5098599,118.365887 89.8907155,118.663736 90.333426,118.881836 C90.7761365,119.099936 91.2676681,119.208984 91.8080354,119.208984 C92.4330385,119.208984 92.9847908,119.095053 93.4633088,118.867188 C93.9418268,118.639322 94.3763928,118.274742 94.7670197,117.773438 L95.4994416,118.330078 C95.3236595,118.583986 95.120211,118.824869 94.8890901,119.052734 C94.6579691,119.2806 94.3894171,119.479166 94.083426,119.648438 C93.7774349,119.817709 93.4323863,119.951171 93.0482697,120.048828 C92.6641532,120.146485 92.23447,120.195312 91.7592072,120.195312 Z M91.5443635,110.234375 C91.101653,110.234375 90.6915008,110.31901 90.3138947,110.488281 C89.9362887,110.657553 89.6026332,110.898436 89.3129182,111.210938 C89.0232032,111.523439 88.7855754,111.899412 88.6000276,112.338867 C88.4144798,112.778323 88.2891555,113.264971 88.224051,113.798828 L94.5619416,113.798828 L94.5619416,113.671875 C94.5489207,113.229164 94.4773069,112.801109 94.3470979,112.387695 C94.2168889,111.974282 94.0264611,111.608075 93.7758088,111.289062 C93.5251565,110.97005 93.2142872,110.714519 92.8431916,110.522461 C92.472096,110.330403 92.0391576,110.234375 91.5443635,110.234375 Z"/>
    <path fill="#222" d="M174.329,144 C172.274,144 171.178,142.219 172,140.438 L214.607,48.237 C215.018,47.415 215.703,46.73 216.936,46.73 L218.306,46.73 C219.676,46.73 220.224,47.415 220.635,48.237 L262.831,140.438 C263.653,142.219 262.557,144 260.502,144 L248.583,144 C246.528,144 245.569,143.178 244.61,141.26 L237.897,126.464 L196.934,126.464 L190.221,141.26 C189.673,142.63 188.44,144 186.248,144 L174.329,144 Z M203.647,111.257 L231.184,111.257 L217.484,81.117 L217.073,81.117 L203.647,111.257 Z M272.786331,126.601 C272.786331,116.874 280.732331,109.339 294.706331,109.339 C300.186331,109.339 304.707331,110.846 304.707331,110.846 C304.844331,103.859 302.652331,101.393 297.583331,101.393 C292.514331,101.393 285.390331,102.489 282.239331,103.448 C280.321331,103.996 279.362331,102.763 279.088331,100.982 L277.855331,93.858 C277.444331,91.803 278.540331,90.844 279.773331,90.433 C280.869331,90.022 289.637331,87.83 298.405331,87.83 C315.530331,87.83 319.503331,96.735 319.503331,111.668 L319.503331,141.397 C319.503331,142.767 318.270331,144 316.900331,144 L311.968331,144 C311.009331,144 310.324331,143.589 309.639331,142.082 L307.995331,138.383 C304.844331,141.26 299.775331,145.37 291.281331,145.37 C280.321331,145.37 272.786331,138.246 272.786331,126.601 Z M287.856331,126.601 C287.856331,130.711 290.733331,133.725 294.980331,133.725 C299.364331,133.725 303.611331,130.026 304.433331,128.382 L304.433331,120.847 C304.433331,120.847 300.734331,119.203 296.761331,119.203 C291.418331,119.203 287.856331,122.217 287.856331,126.601 Z"/>
  </g>
</svg>
