<svg xmlns="http://www.w3.org/2000/svg" width="324" height="93"><g fill="none" fill-rule="evenodd"><path fill="#8B949B" d="M9.629 43.36H2.998V50H1.797V35.781h8.808v1.026H2.998v5.527h6.63v1.025zm8.488-2.93a4.365 4.365 0 0 0-.791-.069c-.398 0-.756.059-1.075.176-.319.117-.6.282-.844.493-.244.212-.45.463-.616.752a4.17 4.17 0 0 0-.395.962V50h-1.162V39.434h1.142l.02 1.68a3.497 3.497 0 0 1 1.167-1.373c.491-.335 1.095-.503 1.811-.503.144 0 .29.013.44.04.15.025.26.055.332.087l-.03 1.065zm6.466 9.765c-.69 0-1.325-.128-1.904-.385a4.46 4.46 0 0 1-1.5-1.075 4.938 4.938 0 0 1-.98-1.635 5.936 5.936 0 0 1-.352-2.08v-.42c0-.814.122-1.551.366-2.212.244-.661.574-1.224.991-1.69a4.445 4.445 0 0 1 1.44-1.079 4.024 4.024 0 0 1 1.724-.38c.67 0 1.266.12 1.787.36.521.241.959.577 1.314 1.006.354.43.623.941.805 1.534.183.592.274 1.24.274 1.943v.713h-7.54v.225c0 .579.089 1.124.264 1.635.176.511.423.956.743 1.333.319.378.7.676 1.142.894.443.218.934.327 1.475.327.625 0 1.176-.114 1.655-.342.478-.228.913-.592 1.304-1.094l.732.557c-.176.254-.38.495-.61.723-.231.228-.5.426-.806.595-.306.17-.651.303-1.035.4a5.237 5.237 0 0 1-1.29.147zm-.215-9.96a2.973 2.973 0 0 0-2.231.976c-.29.312-.528.688-.713 1.128-.186.44-.311.926-.376 1.46h6.338v-.127a4.715 4.715 0 0 0-.215-1.284c-.13-.414-.32-.78-.572-1.099a2.816 2.816 0 0 0-.932-.767c-.371-.192-.804-.288-1.299-.288zM32.846 50h-1.172V39.434h1.172V50zm-1.377-13.623c0-.221.072-.409.215-.562.143-.153.338-.23.586-.23.247 0 .444.077.59.23.147.153.22.34.22.562a.765.765 0 0 1-.22.557c-.146.15-.343.224-.59.224-.248 0-.443-.075-.586-.224a.774.774 0 0 1-.215-.557zm4.796 8.242c0-.82.093-1.56.279-2.222.185-.66.454-1.225.805-1.694a3.63 3.63 0 0 1 1.285-1.084c.504-.254 1.075-.38 1.713-.38.756 0 1.403.15 1.944.453.54.303.986.725 1.338 1.265l.058-1.523h1.094v10.38c0 .684-.1 1.298-.303 1.841a3.89 3.89 0 0 1-.854 1.382 3.7 3.7 0 0 1-1.333.87 4.804 4.804 0 0 1-1.748.302c-.332 0-.67-.037-1.016-.112a4.656 4.656 0 0 1-1.914-.898 3.722 3.722 0 0 1-.752-.797l.654-.703c.43.528.886.913 1.368 1.157a3.45 3.45 0 0 0 1.582.367c.5 0 .945-.077 1.333-.23.387-.153.714-.374.981-.664.267-.29.47-.641.61-1.055.14-.413.21-.883.21-1.41v-1.231c-.351.488-.797.87-1.338 1.147-.54.277-1.184.415-1.933.415-.632 0-1.198-.132-1.7-.395a3.77 3.77 0 0 1-1.279-1.104c-.351-.472-.62-1.036-.805-1.694a8.004 8.004 0 0 1-.279-2.178v-.205zm1.182.205c0 .619.062 1.193.186 1.724.123.53.312.991.566 1.382.254.39.574.696.962.918.387.221.848.332 1.382.332a3.75 3.75 0 0 0 1.089-.147c.322-.097.607-.233.854-.405.247-.173.462-.376.645-.61.182-.235.338-.492.468-.772v-4.912a4.091 4.091 0 0 0-.424-.786 2.94 2.94 0 0 0-1.48-1.123 3.426 3.426 0 0 0-1.133-.171c-.54 0-1.006.112-1.396.337-.39.224-.713.532-.967.923-.254.39-.443.853-.566 1.386a7.602 7.602 0 0 0-.186 1.72v.204zm12.257-3.603c.183-.3.394-.572.635-.816a3.876 3.876 0 0 1 2.803-1.167c.527 0 1 .072 1.416.215.416.143.77.371 1.06.684.289.312.51.714.663 1.206.153.491.23 1.085.23 1.782V50h-1.162v-6.885c0-.547-.059-1.002-.176-1.367-.117-.365-.283-.658-.498-.879a1.812 1.812 0 0 0-.786-.473 3.52 3.52 0 0 0-1.03-.142c-.417 0-.795.07-1.133.21-.339.14-.638.327-.899.561a3.74 3.74 0 0 0-.674.806 4.626 4.626 0 0 0-.449.933V50h-1.162V35h1.162v6.22zm12.345-4.492v2.705h2.188v.957h-2.188v7.04c0 .372.038.67.113.894.075.225.175.4.302.528a.942.942 0 0 0 .44.253c.166.043.34.064.522.064.176 0 .345-.011.508-.034.163-.023.31-.044.44-.064l.048.957c-.143.052-.33.093-.561.122a5.47 5.47 0 0 1-.689.044 3.1 3.1 0 0 1-.922-.132 1.654 1.654 0 0 1-.728-.454c-.202-.214-.36-.5-.474-.854-.114-.355-.17-.796-.17-1.323V40.39h-1.944v-.957h1.944v-2.705h1.171zM11.445 66.807H6.572V80h-1.2V66.807H.507V65.78h10.937v1.026zm5.861 13.388c-.69 0-1.325-.128-1.904-.385a4.46 4.46 0 0 1-1.5-1.075 4.938 4.938 0 0 1-.98-1.635 5.936 5.936 0 0 1-.352-2.08v-.42c0-.814.122-1.551.366-2.212.244-.661.575-1.224.991-1.69a4.445 4.445 0 0 1 1.44-1.079 4.024 4.024 0 0 1 1.724-.38c.67 0 1.267.12 1.787.36.521.241.959.577 1.314 1.006.355.43.623.941.805 1.534.183.592.274 1.24.274 1.943v.713h-7.54v.225c0 .579.089 1.124.265 1.635.175.511.423.956.742 1.333.319.378.7.676 1.142.894.443.218.935.327 1.475.327.625 0 1.177-.114 1.655-.342.479-.228.913-.592 1.304-1.094l.732.557c-.175.254-.379.495-.61.723-.231.228-.5.426-.806.595-.306.17-.65.303-1.035.4a5.237 5.237 0 0 1-1.289.147zm-.215-9.96a2.973 2.973 0 0 0-2.231.976c-.29.312-.528.688-.713 1.128-.186.44-.311.926-.376 1.46h6.338v-.127a4.715 4.715 0 0 0-.215-1.284c-.13-.414-.32-.78-.571-1.099a2.816 2.816 0 0 0-.933-.767c-.371-.192-.804-.288-1.299-.288zm10.49 3.486l2.851-4.287h1.387l-3.584 5.185L31.975 80h-1.377l-3.007-4.473L24.583 80h-1.377l3.73-5.38-3.584-5.186h1.377l2.852 4.287zm8.937-6.992v2.705h2.187v.957h-2.187v7.04c0 .372.037.67.112.894.075.225.176.4.303.528a.942.942 0 0 0 .44.253c.165.043.34.064.522.064.176 0 .345-.011.508-.034l.44-.064.048.957c-.143.052-.33.093-.562.122a5.47 5.47 0 0 1-.688.044 3.1 3.1 0 0 1-.923-.132 1.654 1.654 0 0 1-.727-.454c-.202-.214-.36-.5-.474-.854-.114-.355-.171-.796-.171-1.323V70.39h-1.943v-.957h1.943v-2.705h1.172z"/><path fill="#222" d="M221.84 90l.42-4.76 7.98-.98c3.64-.7 3.64-2.1.98-10.5l-5.18-15.4H195.8l-5.04 15.26c-2.66 7.7-2.94 9.94.42 10.64l7 .98.42 4.76h-28.84l.42-4.76 5.6-.98c4.2-1.12 5.74-2.52 11.76-20.02L207 9.36V4.88l11.62-4.9 27.02 81.2c.42 1.54 1.68 2.38 3.5 2.66l8.26 1.4.42 4.76h-35.98zm-10.08-76.72h-.7l-13.3 39.34h26.46l-12.46-39.34zm111.953 70.14c-4.34 5.46-8.54 8.68-13.02 8.68-5.04 0-8.96-3.08-8.96-10.36h-.56c-5.46 5.74-10.78 10.36-17.5 10.36-9.24 0-17.08-6.72-17.08-16.24 0-11.62 10.5-18.34 35.7-24.36v-1.26c0-14.98-5.04-18.9-14.28-18.9-5.18 0-11.06 2.1-11.06 3.64 0 .7 2.8 2.94 2.8 6.44 0 3.22-2.8 6.3-6.86 6.3-3.92 0-6.72-2.38-6.72-6.16 0-6.72 14.56-16.24 25.9-16.24 15.68 0 20.86 6.44 20.16 27.3l-1.12 26.74c-.14 3.22.84 4.9 3.08 4.9 2.1 0 4.2-1.54 7.14-3.92l2.38 3.08zm-21.7-27.44c-18.76 4.9-25.2 10.22-25.2 17.5 0 6.72 4.62 10.78 10.64 10.78 4.9 0 9.1-2.94 13.72-7.28l.84-21z"/></g></svg>