<svg xmlns="http://www.w3.org/2000/svg" width="324" height="93" viewBox="0 0 324 93">
  <g fill="none" fill-rule="evenodd" transform="translate(0 -8)">
    <path fill="#8B949B" d="M9.62890625,51.359375 L2.99804688,51.359375 L2.99804688,58 L1.796875,58 L1.796875,43.78125 L10.6054688,43.78125 L10.6054688,44.8066406 L2.99804688,44.8066406 L2.99804688,50.3339844 L9.62890625,50.3339844 L9.62890625,51.359375 Z M18.1166294,48.4296875 C17.8692324,48.3841144 17.6055631,48.3613281 17.3256138,48.3613281 C16.9284764,48.3613281 16.5704071,48.4199213 16.251395,48.5371094 C15.932383,48.6542975 15.6508103,48.8186838 15.4066685,49.0302734 C15.1625266,49.241863 14.9574506,49.4925116 14.7914341,49.7822266 C14.6254177,50.0719416 14.493583,50.3925764 14.3959263,50.7441406 L14.3959263,58 L13.2338169,58 L13.2338169,47.4335938 L14.376395,47.4335938 L14.3959263,49.1132812 C14.6823861,48.5338513 15.0713796,48.0764991 15.5629185,47.7412109 C16.0544574,47.4059228 16.6582925,47.2382812 17.3744419,47.2382812 C17.5176718,47.2382812 17.6641547,47.251302 17.813895,47.2773438 C17.9636354,47.3033855 18.0743114,47.3326821 18.1459263,47.3652344 L18.1166294,48.4296875 Z M24.5828682,58.1953125 C23.8927606,58.1953125 23.2580013,58.0667331 22.6785713,57.8095703 C22.0991414,57.5524076 21.5994719,57.1943382 21.1795479,56.7353516 C20.7596239,56.2763649 20.4324788,55.7311229 20.1981026,55.0996094 C19.9637264,54.4680958 19.8465401,53.7747434 19.8465401,53.0195312 L19.8465401,52.5996094 C19.8465401,51.7858032 19.9686092,51.0485059 20.212751,50.3876953 C20.4568929,49.7268847 20.7872932,49.1637393 21.203962,48.6982422 C21.6206307,48.2327451 22.1007691,47.8730481 22.6443917,47.6191406 C23.1880142,47.3652331 23.7625527,47.2382812 24.3680245,47.2382812 C25.0386007,47.2382812 25.6342979,47.3587228 26.1551338,47.5996094 C26.6759698,47.840496 27.1137909,48.1757791 27.4686104,48.6054688 C27.8234299,49.0351584 28.0919819,49.546221 28.2742745,50.1386719 C28.456567,50.7311228 28.547712,51.3789027 28.547712,52.0820312 L28.547712,52.7949219 L21.0086495,52.7949219 L21.0086495,53.0195312 C21.0086495,53.5989612 21.0965392,54.1442032 21.2723213,54.6552734 C21.4481035,55.1663437 21.6954968,55.6106752 22.0145088,55.9882812 C22.3335209,56.3658873 22.7143764,56.6637359 23.157087,56.8818359 C23.5997975,57.099936 24.0913291,57.2089844 24.6316963,57.2089844 C25.2566995,57.2089844 25.8084518,57.0950532 26.2869698,56.8671875 C26.7654878,56.6393218 27.2000538,56.2747421 27.5906807,55.7734375 L28.3231026,56.3300781 C28.1473205,56.5839856 27.943872,56.8248687 27.712751,57.0527344 C27.4816301,57.2806001 27.2130781,57.4791658 26.907087,57.6484375 C26.6010959,57.8177092 26.2560472,57.9511714 25.8719307,58.0488281 C25.4878142,58.1464849 25.058131,58.1953125 24.5828682,58.1953125 Z M24.3680245,48.234375 C23.9253139,48.234375 23.5151618,48.3190096 23.1375557,48.4882812 C22.7599497,48.6575529 22.4262941,48.8984359 22.1365792,49.2109375 C21.8468642,49.5234391 21.6092363,49.8994119 21.4236885,50.3388672 C21.2381407,50.7783225 21.1128165,51.2649713 21.047712,51.7988281 L27.3856026,51.7988281 L27.3856026,51.671875 C27.3725817,51.2291645 27.3009678,50.8011088 27.1707588,50.3876953 C27.0405499,49.9742818 26.8501221,49.6080745 26.5994698,49.2890625 C26.3488175,48.9700505 26.0379482,48.7145192 25.6668526,48.5224609 C25.295757,48.3304027 24.8628186,48.234375 24.3680245,48.234375 Z M32.845982,58 L31.674107,58 L31.674107,47.4335938 L32.845982,47.4335938 L32.845982,58 Z M31.4690289,44.3769531 C31.4690289,44.1555979 31.5406428,43.9684252 31.6838726,43.8154297 C31.8271025,43.6624341 32.0224131,43.5859375 32.2698101,43.5859375 C32.5172072,43.5859375 32.7141453,43.6624341 32.8606305,43.8154297 C33.0071156,43.9684252 33.080357,44.1555979 33.080357,44.3769531 C33.080357,44.5983084 33.0071156,44.7838534 32.8606305,44.9335938 C32.7141453,45.0833341 32.5172072,45.1582031 32.2698101,45.1582031 C32.0224131,45.1582031 31.8271025,45.0833341 31.6838726,44.9335938 C31.5406428,44.7838534 31.4690289,44.5983084 31.4690289,44.3769531 Z M36.2653458,52.6191406 C36.2653458,51.798824 36.3581183,51.0582715 36.5436661,50.3974609 C36.7292139,49.7366503 36.9977659,49.1718773 37.3493302,48.703125 C37.7008944,48.2343727 38.1289501,47.8730481 38.6335099,47.6191406 C39.1380697,47.3652331 39.709353,47.2382812 40.3473771,47.2382812 C41.1025892,47.2382812 41.7503692,47.3896469 42.2907364,47.6923828 C42.8311037,47.9951187 43.2770628,48.416664 43.6286271,48.9570312 L43.6872208,47.4335938 L44.7809708,47.4335938 L44.7809708,57.8144531 C44.7809708,58.4980503 44.6800604,59.1116509 44.4782364,59.6552734 C44.2764125,60.1988959 43.9915846,60.6595033 43.6237442,61.0371094 C43.2559039,61.4147154 42.8115724,61.7044261 42.2907364,61.90625 C41.7699005,62.1080739 41.187224,62.2089844 40.5426896,62.2089844 C40.2106567,62.2089844 39.8721184,62.1715499 39.5270646,62.0966797 C39.1820108,62.0218095 38.8483552,61.909506 38.526088,61.7597656 C38.2038208,61.6100253 37.8994618,61.4228527 37.6130021,61.1982422 C37.3265423,60.9736317 37.0758938,60.7083349 36.8610489,60.4023438 L37.5153458,59.6992188 C37.9450355,60.2265651 38.4007601,60.6123035 38.8825333,60.8564453 C39.3643066,61.1005872 39.891645,61.2226562 40.4645646,61.2226562 C40.9658692,61.2226562 41.4102006,61.1461596 41.7975724,60.9931641 C42.1849441,60.8401685 42.5120893,60.6188166 42.7790177,60.3291016 C43.0459461,60.0393866 43.2493946,59.6878276 43.3893692,59.2744141 C43.5293439,58.8610005 43.5993302,58.3906276 43.5993302,57.8632812 L43.5993302,56.6328125 C43.2477659,57.1210962 42.8018068,57.5035793 42.2614396,57.7802734 C41.7210723,58.0569675 41.0765475,58.1953125 40.3278458,58.1953125 C39.6963322,58.1953125 39.1299317,58.0634779 38.6286271,57.7998047 C38.1273225,57.5361315 37.7008944,57.1682966 37.3493302,56.6962891 C36.9977659,56.2242815 36.7292139,55.6595085 36.5436661,55.0019531 C36.3581183,54.3443978 36.2653458,53.6184936 36.2653458,52.8242188 L36.2653458,52.6191406 Z M37.4469864,52.8242188 C37.4469864,53.4427114 37.5088348,54.01725 37.6325333,54.5478516 C37.7562318,55.0784532 37.945032,55.5390605 38.1989396,55.9296875 C38.4528471,56.3203145 38.7734819,56.626301 39.1608536,56.8476562 C39.5482254,57.0690115 40.0088327,57.1796875 40.5426896,57.1796875 C40.9463374,57.1796875 41.3092895,57.1308599 41.6315567,57.0332031 C41.953824,56.9355464 42.2386519,56.8004566 42.4860489,56.6279297 C42.733446,56.4554028 42.9482876,56.2519543 43.1305802,56.0175781 C43.3128728,55.783202 43.4691212,55.5260431 43.5993302,55.2460938 L43.5993302,50.3339844 C43.4886526,50.0605455 43.3470524,49.7985039 43.1745255,49.5478516 C43.0019986,49.2971993 42.7936673,49.0758473 42.5495255,48.8837891 C42.3053837,48.6917308 42.0205558,48.5387375 41.6950333,48.4248047 C41.3695109,48.3108718 40.9919105,48.2539062 40.5622208,48.2539062 C40.0218535,48.2539062 39.5563634,48.3662098 39.1657364,48.5908203 C38.7751095,48.8154308 38.4528471,49.1230449 38.1989396,49.5136719 C37.945032,49.9042988 37.7562318,50.3665338 37.6325333,50.9003906 C37.5088348,51.4342475 37.4469864,52.0071584 37.4469864,52.6191406 L37.4469864,52.8242188 Z M49.7042409,49.2207031 C49.8865334,48.9212225 50.0981199,48.6494153 50.3390065,48.4052734 C50.5798931,48.1611316 50.8451899,47.9528003 51.1349049,47.7802734 C51.4246199,47.6077465 51.7371168,47.4742843 52.0724049,47.3798828 C52.4076931,47.2854813 52.7641348,47.2382812 53.1417409,47.2382812 C53.6690872,47.2382812 54.1410877,47.3098951 54.5577565,47.453125 C54.9744252,47.5963549 55.3276118,47.8242172 55.6173268,48.1367188 C55.9070418,48.4492203 56.1283937,48.8512345 56.2813893,49.3427734 C56.4343849,49.8343124 56.5108815,50.4283819 56.5108815,51.125 L56.5108815,58 L55.3487721,58 L55.3487721,51.1152344 C55.3487721,50.5683566 55.2901789,50.112632 55.1729909,49.7480469 C55.0558028,49.3834617 54.8897888,49.0904959 54.674944,48.8691406 C54.4600992,48.6477854 54.1980575,48.4899093 53.8888112,48.3955078 C53.5795648,48.3011063 53.2361438,48.2539062 52.8585377,48.2539062 C52.441869,48.2539062 52.0642686,48.3238925 51.7257252,48.4638672 C51.3871819,48.6038418 51.0877057,48.7910145 50.8272877,49.0253906 C50.5668698,49.2597668 50.3422626,49.5283188 50.1534596,49.8310547 C49.9646566,50.1337906 49.8149185,50.4446599 49.7042409,50.7636719 L49.7042409,58 L48.5421315,58 L48.5421315,43 L49.7042409,43 L49.7042409,49.2207031 Z M62.0493859,44.7285156 L62.0493859,47.4335938 L64.2368859,47.4335938 L64.2368859,48.390625 L62.0493859,48.390625 L62.0493859,55.4316406 C62.0493859,55.8027362 62.0868204,56.1005848 62.1616906,56.3251953 C62.2365608,56.5498058 62.3374712,56.7255853 62.464425,56.8525391 C62.5913787,56.9794928 62.7378616,57.0641274 62.9038781,57.1064453 C63.0698945,57.1487632 63.2440465,57.1699219 63.426339,57.1699219 C63.6021212,57.1699219 63.7713903,57.1585288 63.9341515,57.1357422 C64.0969128,57.1129556 64.2433957,57.091797 64.3736047,57.0722656 L64.4224328,58.0292969 C64.2792029,58.0813805 64.0920303,58.1220702 63.8609093,58.1513672 C63.6297884,58.1806642 63.4002985,58.1953125 63.1724328,58.1953125 C62.8403999,58.1953125 62.5327858,58.1513676 62.2495812,58.0634766 C61.9663767,57.9755855 61.7238661,57.8242198 61.5220422,57.609375 C61.3202182,57.3945302 61.1623422,57.1097023 61.0484093,56.7548828 C60.9344765,56.4000633 60.8775109,55.958987 60.8775109,55.4316406 L60.8775109,48.390625 L58.9341515,48.390625 L58.9341515,47.4335938 L60.8775109,47.4335938 L60.8775109,44.7285156 L62.0493859,44.7285156 Z M11.4453125,74.8066406 L6.57226562,74.8066406 L6.57226562,88 L5.37109375,88 L5.37109375,74.8066406 L0.5078125,74.8066406 L0.5078125,73.78125 L11.4453125,73.78125 L11.4453125,74.8066406 Z M17.3060825,88.1953125 C16.6159749,88.1953125 15.9812157,88.0667331 15.4017857,87.8095703 C14.8223557,87.5524076 14.3226862,87.1943382 13.9027622,86.7353516 C13.4828383,86.2763649 13.1556931,85.7311229 12.9213169,85.0996094 C12.6869407,84.4680958 12.5697544,83.7747434 12.5697544,83.0195312 L12.5697544,82.5996094 C12.5697544,81.7858032 12.6918235,81.0485059 12.9359654,80.3876953 C13.1801072,79.7268847 13.5105075,79.1637393 13.9271763,78.6982422 C14.343845,78.2327451 14.8239835,77.8730481 15.367606,77.6191406 C15.9112285,77.3652331 16.485767,77.2382812 17.0912388,77.2382812 C17.7618151,77.2382812 18.3575122,77.3587228 18.8783482,77.5996094 C19.3991841,77.840496 19.8370053,78.1757791 20.1918247,78.6054688 C20.5466442,79.0351584 20.8151962,79.546221 20.9974888,80.1386719 C21.1797814,80.7311228 21.2709263,81.3789027 21.2709263,82.0820312 L21.2709263,82.7949219 L13.7318638,82.7949219 L13.7318638,83.0195312 C13.7318638,83.5989612 13.8197535,84.1442032 13.9955357,84.6552734 C14.1713178,85.1663437 14.4187112,85.6106752 14.7377232,85.9882812 C15.0567352,86.3658873 15.4375907,86.6637359 15.8803013,86.8818359 C16.3230118,87.099936 16.8145434,87.2089844 17.3549107,87.2089844 C17.9799138,87.2089844 18.5316661,87.0950532 19.0101841,86.8671875 C19.4887021,86.6393218 19.9232681,86.2747421 20.313895,85.7734375 L21.0463169,86.3300781 C20.8705348,86.5839856 20.6670863,86.8248687 20.4359654,87.0527344 C20.2048444,87.2806001 19.9362924,87.4791658 19.6303013,87.6484375 C19.3243102,87.8177092 18.9792616,87.9511714 18.595145,88.0488281 C18.2110285,88.1464849 17.7813453,88.1953125 17.3060825,88.1953125 Z M17.0912388,78.234375 C16.6485282,78.234375 16.2383761,78.3190096 15.86077,78.4882812 C15.483164,78.6575529 15.1495085,78.8984359 14.8597935,79.2109375 C14.5700785,79.5234391 14.3324507,79.8994119 14.1469029,80.3388672 C13.9613551,80.7783225 13.8360308,81.2649713 13.7709263,81.7988281 L20.1088169,81.7988281 L20.1088169,81.671875 C20.095796,81.2291645 20.0241822,80.8011088 19.8939732,80.3876953 C19.7637642,79.9742818 19.5733364,79.6080745 19.3226841,79.2890625 C19.0720318,78.9700505 18.7611625,78.7145192 18.3900669,78.5224609 C18.0189713,78.3304027 17.5860329,78.234375 17.0912388,78.234375 Z M27.5809151,81.7207031 L30.4324776,77.4335938 L31.8191963,77.4335938 L28.235212,82.6191406 L31.9754463,88 L30.5984932,88 L27.5906807,83.5273438 L24.5828682,88 L23.2059151,88 L26.9363838,82.6191406 L23.3523995,77.4335938 L24.7293526,77.4335938 L27.5809151,81.7207031 Z M36.517857,74.7285156 L36.517857,77.4335938 L38.705357,77.4335938 L38.705357,78.390625 L36.517857,78.390625 L36.517857,85.4316406 C36.517857,85.8027362 36.5552915,86.1005848 36.6301617,86.3251953 C36.7050319,86.5498058 36.8059423,86.7255853 36.9328961,86.8525391 C37.0598498,86.9794928 37.2063327,87.0641274 37.3723492,87.1064453 C37.5383657,87.1487632 37.7125176,87.1699219 37.8948101,87.1699219 C38.0705923,87.1699219 38.2398614,87.1585288 38.4026226,87.1357422 C38.5653839,87.1129556 38.7118668,87.091797 38.8420758,87.0722656 L38.8909039,88.0292969 C38.747674,88.0813805 38.5605014,88.1220702 38.3293805,88.1513672 C38.0982595,88.1806642 37.8687696,88.1953125 37.6409039,88.1953125 C37.308871,88.1953125 37.0012569,88.1513676 36.7180523,88.0634766 C36.4348478,87.9755855 36.1923372,87.8242198 35.9905133,87.609375 C35.7886893,87.3945302 35.6308133,87.1097023 35.5168805,86.7548828 C35.4029476,86.4000633 35.345982,85.958987 35.345982,85.4316406 L35.345982,78.390625 L33.4026226,78.390625 L33.4026226,77.4335938 L35.345982,77.4335938 L35.345982,74.7285156 L36.517857,74.7285156 Z"/>
    <path fill="#222" d="M221.84,98 L222.26,93.24 L230.24,92.26 C233.88,91.56 233.88,90.16 231.22,81.76 L226.04,66.36 L195.8,66.36 L190.76,81.62 C188.1,89.32 187.82,91.56 191.18,92.26 L198.18,93.24 L198.6,98 L169.76,98 L170.18,93.24 L175.78,92.26 C179.98,91.14 181.52,89.74 187.54,72.24 L207,17.36 L207,12.88 L218.62,7.98 L245.64,89.18 C246.06,90.72 247.32,91.56 249.14,91.84 L257.4,93.24 L257.82,98 L221.84,98 Z M211.76,21.28 L211.06,21.28 L197.76,60.62 L224.22,60.62 L211.76,21.28 Z M323.71333,91.42 C319.37333,96.88 315.17333,100.1 310.69333,100.1 C305.65333,100.1 301.73333,97.02 301.73333,89.74 L301.17333,89.74 C295.71333,95.48 290.39333,100.1 283.67333,100.1 C274.43333,100.1 266.59333,93.38 266.59333,83.86 C266.59333,72.24 277.09333,65.52 302.29333,59.5 L302.29333,58.24 C302.29333,43.26 297.25333,39.34 288.01333,39.34 C282.83333,39.34 276.95333,41.44 276.95333,42.98 C276.95333,43.68 279.75333,45.92 279.75333,49.42 C279.75333,52.64 276.95333,55.72 272.89333,55.72 C268.97333,55.72 266.17333,53.34 266.17333,49.56 C266.17333,42.84 280.73333,33.32 292.07333,33.32 C307.75333,33.32 312.93333,39.76 312.23333,60.62 L311.11333,87.36 C310.97333,90.58 311.95333,92.26 314.19333,92.26 C316.29333,92.26 318.39333,90.72 321.33333,88.34 L323.71333,91.42 Z M302.01333,63.98 C283.25333,68.88 276.81333,74.2 276.81333,81.48 C276.81333,88.2 281.43333,92.26 287.45333,92.26 C292.35333,92.26 296.55333,89.32 301.17333,84.98 L302.01333,63.98 Z"/>
  </g>
</svg>
