<svg xmlns="http://www.w3.org/2000/svg" width="458" height="393"><g fill="#48484F" fill-opacity=".25" fill-rule="evenodd" opacity=".699"><path d="M101.446 221c2.609-3.145 5.886-3.77 8.65-2.925L229.41 11.817l115.461 199.597c.217-.094.43-.212.65-.287 1.533-.532 3.91-.837 6.815.476.312-.01.853-.053 1.664-.163L232.828 1.97a3.951 3.951 0 0 0-6.838 0L101 218.038c.259.847.41 1.617.454 2.353.01.195-.004.404-.008.609m352.028 166.072l-63.853-110.9c-.357.018-.708.033-1.11.05-1.038.023-1.964.035-2.786.035-1.79 0-3.092-.054-4.046-.164a14.231 14.231 0 0 1-1.332-.218l62.888 109.221H13.765l62.667-108.84h-.089c-1.789 0-3.092-.053-4.043-.163-1.3-.147-2.704-.51-4.247-1.093L3.526 387.072a3.974 3.974 0 0 0 0 3.952A3.942 3.942 0 0 0 6.941 393h443.12c1.407 0 2.71-.753 3.413-1.976a3.974 3.974 0 0 0 0-3.952"/><path d="M195.527 164.101l-.215 24.722c-9.477-1.305-19.182-3.314-28.925-6.246 8.393-7.911 18.261-14.225 29.14-18.476zm1.734 26.994c1.428.181 2.857.358 4.275.51a261.944 261.944 0 0 1-4.327 5.195l.052-5.705zm.242-27.75a89.017 89.017 0 0 1 27.183-5.288c-3.502 6.164-10.737 18.014-21.649 31.695a212.22 212.22 0 0 1-5.759-.656l.225-25.752zm30.519-5.374c.326 0 .647.022.972.026 6.125 11.627 13.262 22.187 20.83 31.64-13.115 1.294-28.3 1.773-44.454.334 11.19-14.171 18.41-26.246 21.61-31.974.349-.004.691-.026 1.042-.026zm30.519 5.373l.196 22.605a3.964 3.964 0 0 0-3.062 3.05c-1.151.139-2.305.278-3.496.406-7.577-9.359-14.751-19.811-20.922-31.35a89.04 89.04 0 0 1 27.284 5.29zm.295 33.89a222.697 222.697 0 0 1-5.16-6.004c.698-.078 1.397-.157 2.084-.24.415 1.422 1.582 2.51 3.046 2.781l.03 3.464zm30.745-14.729c-5.292 1.445-14.602 3.697-26.602 5.5a3.926 3.926 0 0 0-2.271-1.926l-.191-21.978c10.845 4.24 20.688 10.527 29.064 18.404zm3.116 3.075c-3.126 10.413-5.255 20.802-6.6 30.924l-8.14-.072c-5.639-5.072-11.427-10.716-17.131-16.967l-.051-5.85a3.971 3.971 0 0 0 2.666-3.666c12.943-1.953 22.727-4.416 27.8-5.841.491.486.976.976 1.456 1.472zm-53.793 30.655h-21.767l10.292-10.42c.199-.003.394-.015.593-.015.196 0 .393.012.592.016l10.29 10.419zm4.314 4.368a32.146 32.146 0 0 0-5.601-2.376h3.255l2.346 2.376zm-30.395 0l2.346-2.376h3.258a32.166 32.166 0 0 0-5.604 2.376zm-67.854-7.364a92.051 92.051 0 0 1 16.77-25.953c1.3 4.781 3.25 12.834 4.955 23.165a7.62 7.62 0 0 1 1.911-.47c-1.854-11.226-3.997-19.75-5.288-24.37.474-.49.95-.975 1.435-1.455 10.286 3.164 20.546 5.32 30.542 6.684l-.073 8.24a245.982 245.982 0 0 1-15.434 16.074c.537.728 1.08 1.513 1.635 2.412.162.263.325.552.487.823l1.247-.01c.044-.62.15-1.291.347-1.997l-2.146.02a247.364 247.364 0 0 0 13.839-14.313l-.06 6.73c.633.158 1.284.4 1.963.72l.085-9.704a263.28 263.28 0 0 0 6.71-8.009c17.316 1.644 33.579 1.096 47.443-.34a228.354 228.354 0 0 0 7.526 8.736l.117 13.342c-8.298-7.31-19.124-11.75-30.958-11.75-10.516 0-20.222 3.518-28.079 9.426a36.15 36.15 0 0 1 1.811 1.358l.315.27c.413.383.722.664.945.832.043.032.088.08.131.111 6.145-4.386 13.45-7.208 21.361-7.856l-10.152 10.28h-8.833c.427.556.868 1.213 1.21 1.992h5.655l-4.775 4.837c.02.644.01 1.268-.057 1.85-.053.446-.124 1.15-.214 2.086 5.444-5.102 12.697-8.246 20.682-8.246 6.646 0 12.783 2.186 17.8 5.855a46.78 46.78 0 0 1 1.846-2.316l-4.013-4.066h7.893a23.739 23.739 0 0 1 2.507-1.992h-12.368l-10.15-10.28c8.904.73 17.037 4.215 23.612 9.588a13.536 13.536 0 0 1 2.445-1.13 25.472 25.472 0 0 1 3.354-.95l-.097-11.069a247.079 247.079 0 0 0 14.134 14.01l-1.31-.012c.198.142.389.253.59.403a91.495 91.495 0 0 1 2.125 1.614l.82.008a255.974 255.974 0 0 0 5.849 5.058c.206-.718.429-1.395.665-2.031-1.167-.985-2.329-1.957-3.517-3l4.851.045a17.91 17.91 0 0 1 3.393-4.34c1.29-8.841 3.15-17.857 5.807-26.91a92.02 92.02 0 0 1 18.247 29.502l-6.605-.06c.5.662.948 1.33 1.338 2.007l5.735.052c1.012-2.21 2.195-3.968 3.598-5.311.61-.58 1.421-1.196 2.429-1.728C304.23 175.527 269.021 150 228.022 150c-41.043 0-76.28 25.578-91.022 61.81.417-.035.825-.08 1.258-.103 1.858-.1 4 .406 6.711 1.532zm149.912 96.88c-1.523-5.626-3.947-15.77-5.786-28.874l24.045-.213a90.713 90.713 0 0 1-18.26 29.087zm-3.04 3.108c-10.328-3.167-20.642-5.326-30.697-6.687l.075-8.194a241.056 241.056 0 0 1 16.68-17l9.21-.081c1.988 14.282 4.673 25.092 6.18 30.516-.477.487-.96.97-1.448 1.446zM260.91 333.06l.22-24.527c9.528 1.304 19.289 3.315 29.071 6.252a91.123 91.123 0 0 1-29.291 18.275zm.453-50.716c.292-.282.58-.57.864-.86l12.766-.115a244.242 244.242 0 0 0-13.747 14.003l.117-13.028zm23.628-7.243c.409.357.891.627 1.425.792.137 1.152.275 2.289.424 3.402l-6.734.059a217.77 217.77 0 0 1 4.885-4.253zm-25.744 22.5a255.07 255.07 0 0 0-6.761 7.958c-17.308-1.629-33.59-1.085-47.488.34a222.616 222.616 0 0 0-5.09-5.944 3.909 3.909 0 0 0 .673-2.198c0-1.964-1.446-3.579-3.332-3.878l-.087-9.705c8.337 7.223 19.21 11.613 31.103 11.613 11.89 0 22.766-4.39 31.102-11.615l-.12 13.43zm-.077 8.687a210.72 210.72 0 0 0-4.319-.508 256.291 256.291 0 0 1 4.37-5.177l-.051 5.685zm-.246 27.52c-8.585 3.074-17.769 4.882-27.321 5.228 3.507-6.11 10.778-17.875 21.745-31.428 1.924.189 3.858.407 5.806.654l-.23 25.547zm-30.66 5.313c-.32 0-.632-.022-.95-.024-6.095-11.542-13.223-22.013-20.8-31.373 13.143-1.284 28.343-1.757 44.495-.335-11.248 14.042-18.5 26.028-21.71 31.705-.346.003-.688.027-1.034.027zm-30.661-5.312l-.223-25.035c2.189-.292 4.435-.568 6.768-.818 7.593 9.264 14.762 19.627 20.901 31.084-9.598-.334-18.823-2.145-27.446-5.231zm-.287-32.183a3.94 3.94 0 0 0 1.1-.375c1.423 1.6 2.837 3.23 4.24 4.903-1.804.2-3.578.412-5.292.638l-.048-5.166zm17.218-20.094l10.197 10.16a43.376 43.376 0 0 1-24.595-10.16h14.398zm4.09-1.97h-3.272l-2.357-2.347a32.236 32.236 0 0 0 5.63 2.348zm20.574 1.97l-10.34 10.3c-.198.004-.396.016-.593.016-.2 0-.398-.012-.596-.016l-10.34-10.3h21.869zm4.334-4.317l-2.357 2.348h-3.27a32.28 32.28 0 0 0 5.627-2.348zm12.86 4.317a43.376 43.376 0 0 1-24.596 10.16l10.198-10.16h14.397zm-89.983 33.332c5.648-1.528 15.837-3.97 28.995-5.824l.214 24.02a91.14 91.14 0 0 1-29.209-18.196zm-3.104-3.012c3.21-10.3 5.394-20.573 6.778-30.582l8.311.073a239.917 239.917 0 0 1 14.886 14.332 3.899 3.899 0 0 0-.609 2.082c0 1.724 1.12 3.171 2.666 3.705l.051 5.604c-14.338 2.003-25.2 4.7-30.646 6.214-.484-.47-.963-.945-1.437-1.428zm-19.919-30.82l24.694.219c-1.323 9.49-3.361 19.212-6.337 28.968a90.66 90.66 0 0 1-18.357-29.187zm50.913.451c.284.292.575.581.868.865l.105 11.722a3.98 3.98 0 0 0-.558.258 241.048 241.048 0 0 0-13.332-12.959l12.917.114zm120.584-5.348c-.316.981-.642 1.954-.99 2.92l-25.06.222a296.143 296.143 0 0 1-.414-3.277 3.966 3.966 0 0 0 2.466-1.7c-.854-.461-1.635-.95-2.284-1.5-.472-.4-.937-.88-1.4-1.408-1.645 2.059-3.557 3.414-5.67 4.08a236.766 236.766 0 0 0-4.387 3.91l-13.082.114c.682-.78 1.31-1.604 1.942-2.425-1.946.44-3.926.686-5.937.686-.21 0-.42-.022-.632-.026v.967c-.285.292-.576.581-.868.865H243.97l4.438-4.42a18.055 18.055 0 0 1-2.607-1.627c-4.975 3.472-11.016 5.529-17.537 5.529-11.224 0-21.028-6.06-26.367-15.045a7.235 7.235 0 0 1-.56 1.156c-.085.865-.326 1.722-.666 2.57l11.884 11.837H197.96a44.619 44.619 0 0 1-.866-.863v-6.049a8.974 8.974 0 0 1-1.978 1.302v2.58a43.958 43.958 0 0 1-1.6-2.027c-1.283.282-2.68.25-4.25-.116a7.31 7.31 0 0 1-.776-.209c1.216 1.856 2.52 3.648 3.975 5.315l-13.324-.116a267.383 267.383 0 0 0-4.485-3.845c-.39.283-.765.569-1.2.843-.166.108-.328.193-.495.297 1.05.87 2.104 1.757 3.17 2.677l-5.79-.051c.054-.43.1-.855.153-1.284-.698.326-1.394.612-2.088.839-.02.141-.032.283-.05.427l-1.483-.014c-.194.044-.388.109-.58.142-.838.154-1.615.22-2.335.22a9.552 9.552 0 0 1-2.75-.413l-18.574-.163a86.198 86.198 0 0 1-1.712-5.313c-2.524.694-5.049 1.086-7.548 1.086-.127 0-.25-.014-.374-.016C144.582 316.385 182.888 347 228.264 347c45.976 0 84.724-31.425 95.736-73.847-.773.465-1.527.863-2.256 1.145-1.539.658-3.75 1.25-6.862 1.837z"/><path d="M161 216l-9 .078c.988.63 1.847 1.27 2.59 1.922l5.555-.047c.232-.663.508-1.319.855-1.953m-155.457.739c1.209-.694 2.499-.9 3.869-.615 1.37.283 2.596 1.024 3.681 2.22 1.145 1.264 2.007 2.652 2.58 4.167.574 1.512 1.018 3.627 1.339 6.337.38 3.534 1.208 5.106 2.485 4.73.19-.061.414-.19.669-.377.635-.504.953-1.074.953-1.704 0-.568.78-1.906 2.344-4.021 1.559-2.113 3.52-4.43 5.875-6.953 1.402-1.577 2.421-2.555 3.059-2.931.637-.38 1.53-.57 2.678-.57 1.654 0 3.056.379 4.203 1.136 1.149.756 1.722 1.702 1.722 2.838 0 1.263-1.595 4.682-4.78 10.264-3.186 5.582-4.777 8.625-4.777 9.13 0 .821-.384 1.986-1.147 3.5L28 249.093a70.78 70.78 0 0 1-2.007 4.446c-.828 1.703-1.465 3.073-1.91 4.117a21.998 21.998 0 0 0-1.052 2.978c-1.338 5.109-2.292 8.012-2.865 8.704-.512.441-1.532.662-3.059.662-1.085 0-1.911-.142-2.485-.426-.575-.284-1.308-.867-2.198-1.75-1.529-1.638-3.026-4.62-4.494-8.94-1.465-4.32-2.387-8.656-2.77-13.008-.383-3.595-.957-6.244-1.721-7.946-.763-1.703-1.528-3.94-2.292-6.715C.38 228.44 0 226.453 0 225.25c0-1.07.635-2.6 1.911-4.586 1.273-1.99 2.485-3.296 3.632-3.926m44.478 8.901c1.108-1.597 2.25-2.028 3.423-1.291 1.174.732 2.543 2.697 4.108 5.891.783 1.597 1.24 2.893 1.37 3.881.13.992.098 3.02-.098 6.085a97.8 97.8 0 0 1-1.223 9.487c-.556 3.067-1.027 6.39-1.418 9.967-.587 5.175-1.206 8.4-1.858 9.679-.457.896-.915 1.407-1.37 1.533-.456.13-1.728.16-3.815.096-3.195-.192-5.184-.655-5.966-1.39-.783-.733-1.174-2.571-1.174-5.51 0-3.194.228-6.261.685-9.2 1.565-9.774 2.82-16.578 3.766-20.411.945-3.834 2.135-6.772 3.57-8.817m32.257-12.459c1.312-.255 2.887-.241 4.732.046 1.841.29 3.2.754 4.076 1.393.998.768 1.905 1.983 2.718 3.643.5 1.152.765 2.017.796 2.592.031.574-.203 1.663-.703 3.262-.562 1.918-1.485 3.725-2.764 5.42-1.28 1.692-2.376 2.54-3.28 2.54-.905 0-1.67-.558-2.295-1.679-.625-1.115-.812-2.284-.56-3.501.31-1.47.247-2.14-.19-2.015-.75.13-1.624 1.473-2.623 4.03a85.81 85.81 0 0 0-.75 2.207c-.314 1.407-.408 2.337-.281 2.78.125.45.687 1.217 1.686 2.304 1.435 1.533 2.53 2.303 3.28 2.303 1.062 0 2.343.48 3.844 1.439 1.497.957 2.465 1.918 2.902 2.877.752 1.535 1.344 3.997 1.78 7.384.438 3.394.47 5.758.095 7.1-.375 1.536-1.281 3.358-2.718 5.467-1.437 2.11-2.905 3.775-4.404 4.99-1.124.957-2.108 1.535-2.95 1.726-.845.19-2.797.352-5.856.48-2.813.062-4.767.032-5.856-.098-1.095-.126-2.425-.542-3.982-1.245-2.314-1.09-4.25-2.334-5.812-3.743-3.06-2.812-2.873-5.434.562-7.864 1.812-1.279 3.311-1.838 4.498-1.679 1.185.16 2.717 1.072 4.591 2.732 2.122 1.985 3.686 2.974 4.686 2.974 1.061 0 2.123-.733 3.187-2.204 1.06-1.473 1.591-2.91 1.591-4.319 0-2.044-.267-3.485-.796-4.317-.531-.829-1.734-1.724-3.608-2.683-2.436-1.28-4.341-2.494-5.715-3.648-1.125-1.02-2.25-2.67-3.374-4.938-1.124-2.27-1.684-4.108-1.684-5.517 0-1.597.513-3.771 1.546-6.523 1.028-2.748 2.137-4.922 3.324-6.521 1.125-1.535 2.733-3.038 4.826-4.509 2.092-1.472 3.92-2.366 5.481-2.686m22.743 12.46c1.108-1.598 2.25-2.03 3.423-1.292 1.174.732 2.543 2.697 4.108 5.891.783 1.597 1.24 2.893 1.37 3.881.13.992.098 3.02-.098 6.085a97.8 97.8 0 0 1-1.223 9.487c-.556 3.067-1.027 6.39-1.418 9.967-.587 5.175-1.206 8.4-1.858 9.679-.457.896-.915 1.407-1.37 1.533-.456.13-1.728.16-3.815.096-3.195-.192-5.184-.655-5.966-1.39-.783-.733-1.174-2.571-1.174-5.51 0-3.194.228-6.261.685-9.2 1.565-9.774 2.82-16.578 3.766-20.411.945-3.834 2.135-6.772 3.57-8.817m36.68 9.138c-.378-1.008-.742-1.639-1.087-1.893-.348-.25-.96-.407-1.841-.47-1.511-.126-2.678.126-3.495.756-.82.63-2.016 2.172-3.588 4.63-1.197 1.893-1.952 3.327-2.267 4.304-.315.979-.537 2.566-.661 4.774-.128 2.267-.112 3.733.047 4.395.156.661.675 1.5 1.558 2.505.756.821 1.37 1.341 1.842 1.56.472.224 1.021.27 1.653.144 2.014-.505 3.825-1.97 5.428-4.398a19.063 19.063 0 0 0 3.024-7.94c.41-2.868.203-5.657-.614-8.367m-12.75-14.843c1.825-1.701 5.038-2.678 9.634-2.93 1.194-.064 3.132.535 5.808 1.796 2.676 1.26 4.643 2.49 5.902 3.687 1.89 1.828 3.636 4.506 5.242 8.036a43.747 43.747 0 0 1 3.353 10.967c.377 2.269-.205 5.481-1.748 9.643-1.544 4.16-3.386 7.374-5.524 9.64-2.206 2.524-4.959 4.525-8.264 6.006-3.305 1.481-6.564 2.22-9.775 2.22-3.903 0-7.319-1.324-10.246-3.97-2.928-2.646-5.147-6.396-6.659-11.251-.377-1.385-.598-3.402-.66-6.049-.066-2.649.125-4.475.564-5.485 1.007-2.708 2.033-5.025 3.071-6.947 1.04-1.922 1.92-3.293 2.645-4.112a19.382 19.382 0 0 1 2.172-2.128c.722-.598 1.29-.93 1.7-.992.409-.061.787-.268 1.133-.617.344-.344.52-.675.52-.992 0-.316-.032-1.038-.095-2.173-.189-1.262-.222-2.127-.094-2.6.124-.474.566-1.055 1.322-1.749m61.728-4.534c1.011-1.07 2.02-1.528 3.034-1.37 1.012.157 2.56 1.055 4.647 2.696.695.631 1.199 1.06 1.517 1.279.314.222.68.585 1.09 1.089.411.507.648.883.711 1.136.064.252.143.742.238 1.468.094.728.108 1.359.047 1.894-.063.536-.158 1.453-.285 2.748a54.387 54.387 0 0 1-.474 3.645c-.19 1.137-.413 2.778-.663 4.924-.253 2.147-.508 4.262-.76 6.343-1.516 13.32-2.686 20.393-3.508 21.212-.444.441-.663 1.136-.663 2.083 0 .949-.475 1.988-1.423 3.125-.632.696-1.156 1.12-1.564 1.28-.413.158-1.028.142-1.85-.05-.885-.189-2.512-1.42-4.883-3.692-2.37-2.273-3.572-3.755-3.604-4.45-.033-.693-.869-2.163-2.512-4.404-1.646-2.24-2.719-3.36-3.224-3.36-1.138 0-1.77 3.312-1.897 9.941 0 2.462-.269 4.261-.806 5.398-.537 1.136-1.66 2.243-3.366 3.314-1.834 1.201-3.525 1.941-5.074 2.227-1.548.282-2.702.08-3.46-.617-.633-.566-.947-2.018-.947-4.356 0-2.334.344-7.542 1.041-15.625l1.517-18.75c.506-7.194.98-11.741 1.423-13.635.314-1.515 1.045-2.873 2.18-4.07 1.139-1.2 2.087-1.673 2.846-1.423.63.255 1.452.38 2.465.38.506 0 1.122.41 1.85 1.23.726.82 1.485 1.865 2.275 3.125a70.61 70.61 0 0 1 2.418 4.214 315.494 315.494 0 0 1 2.418 4.642c.79 1.547 1.517 2.951 2.181 4.212.664 1.265 1.233 2.259 1.707 2.983.474.726.806 1.057.996.996.379-.126.788-2.843 1.232-8.146.443-5.3.822-8.11 1.138-8.425.382-.381.57-1.107.57-2.18 0-1.074.475-2.084 1.422-3.03m74.157 20.134c-.94-2.92-1.788-4.282-2.54-4.092-.19 0-.377.222-.565.665-1.694 4.698-2.996 9.044-3.906 13.045-.91 3.997-1.302 7.172-1.176 9.516.125 2.353.753 3.527 1.882 3.527.437 0 1.27-.7 2.494-2.096 1.223-1.395 2.178-2.761 2.87-4.094.437-.889.908-3.206 1.412-6.95.312-2.537.437-4.332.376-5.38-.064-1.047-.345-2.427-.847-4.141m-5.74-16.47c2.444-.887 4.437-1.22 5.976-1 1.535.224 3.278 1.065 5.223 2.523 1.378 1.017 2.4 1.809 3.059 2.38.658.571 1.27 1.079 1.835 1.525a4.23 4.23 0 0 1 1.27 1.617c.283.634.516 1.142.706 1.525.188.379.484 1.222.894 2.52.406 1.302.769 2.43 1.082 3.38.877 2.605 1.318 6.046 1.318 10.33 0 4.285-.441 7.601-1.318 9.95-.878 2.348-1.24 4.014-1.082 4.998.155.984.955 2.332 2.4 4.046l2.541 2.954-1.412 1.997c-.943 1.206-1.929 1.954-2.964 2.235a5.868 5.868 0 0 1-3.153 0c-1.069-.281-2.368-.424-3.906-.424-1.539 0-3.215.347-5.035 1.045-3.515 1.333-7.201 1.666-11.058 1-3.858-.667-6.762-2.174-8.705-4.52-2.573-3.051-3.83-8.222-3.765-15.521.063-7.297 1.412-13.771 4.047-19.422 1.253-2.666 3.135-5.38 5.647-8.14 2.508-2.761 4.643-4.427 6.4-4.999M334 234.288c0 1.579-.41 5.04-1.224 10.377-.816 5.338-1.224 8.479-1.224 9.426 0 1.516-.441 2.94-1.318 4.264l-2.542 3.885c-.755 1.137-2.025 2.497-3.813 4.075-1.79 1.579-3.282 2.59-4.473 3.034-1.257.566-3.593 1.153-7.014 1.75-3.423.6-6.012.901-7.77.901-2.32 0-4.488-.25-6.494-.758-2.637-.695-4.488-1.5-5.555-2.416-1.07-.916-2.26-2.667-3.578-5.26-1.132-2.334-1.836-4.121-2.119-5.353-.282-1.232-.517-3.806-.706-7.722-.188-2.338-.221-4.515-.094-6.538.126-2.022.236-3.299.33-3.838.094-.535.343-1.784.753-3.743a98.28 98.28 0 0 0 1.083-6.254c.502-3.282 1.16-5.874 1.977-7.77.816-1.895 1.946-3.442 3.39-4.64 1.378-1.2 2.555-1.722 3.53-1.566.973.16 2.244 1.06 3.813 2.703 1.568 1.703 2.556 3.458 2.966 5.258.408 1.8.485 4.786.236 8.953-.063.886-.157 2.148-.283 3.79-.502 6.761-.737 10.788-.706 12.081a7.252 7.252 0 0 0 1.083 3.65c.125.253.249.44.374.567 1.132 1.958 1.962 2.937 2.497 2.937.532 0 1.46-.566 2.778-1.703 1.255-1.076 2.43-3.048 3.53-5.923 1.097-2.874 1.648-5.416 1.648-7.63 0-1.515.314-3.424.942-5.732.626-2.304.941-4.374.941-6.204 0-1.96.424-4.093 1.271-6.398.848-2.306 1.836-3.994 2.966-5.07 1.003-.947 2.354-1.421 4.049-1.421 1.13 0 1.93.176 2.4.521.471.35 1.24 1.313 2.307 2.89 1.13 1.897 2.086 4.264 2.87 7.107.787 2.844 1.179 5.434 1.179 7.77m25.676-17.74c.438-.444 1.86-.618 4.273-.523 2.409.093 3.804.364 4.18.81.31.378.548 1.233.704 2.561a25.48 25.48 0 0 1 .141 4.088 2.114 2.114 0 0 1-.517 1.14 3.037 3.037 0 0 1-.892.71c-.315.161-.845.383-1.597.666-.75.287-1.377.558-1.878.81-1.254.633-4.32 1.425-9.204 2.375-1.002.19-1.785.57-2.348 1.14-.566.57-.691 1.138-.376 1.71.311.507 1.784.636 4.414.38 2.317-.25 3.788-.156 4.415.286.624.445.937 1.583.937 3.42 0 1.14-.125 1.982-.374 2.518-.25.539-.783 1.156-1.597 1.853-1.314 1.079-2.316 1.615-3.007 1.615-.689 0-1.72.446-3.1 1.33l-2.064 1.236.186 4.939c.065 2.789.362 4.452.894 4.99.53.538 1.485.11 2.863-1.283 1.002-1.013 2.57-2.248 4.698-3.707 2.129-1.453 3.63-2.34 4.508-2.66.626-.189 1.018-.205 1.174-.046.155.158.235.554.235 1.187 0 1.077.311 1.869.94 2.376.436.318.704.918.798 1.805.094.887.11 2.47.047 4.749l-.188 5.703-3.1 2.85c-2.442 2.22-4.525 3.692-6.245 4.419-1.724.728-3.932 1.06-6.624.997-1.876-.061-3.364-.205-4.46-.43-1.095-.219-2.332-.678-3.71-1.375-2.318-1.203-3.819-2.344-4.508-3.423-.814-1.201-1.55-2.943-2.207-5.223-.657-2.28-1.017-4.308-1.08-6.082-.064-1.712.311-5.415 1.125-11.118.816-5.7 1.599-10.165 2.35-13.396.564-2.534 1.112-4.369 1.644-5.51.53-1.141 1.55-2.63 3.052-4.465 1.19-1.395 2.19-2.235 3.006-2.52.812-.285 1.782-.11 2.912.523.688.38 2.3.38 4.837 0 2.535-.382 4.117-.857 4.743-1.425m32.602-3.367c1.312-.255 2.887-.241 4.732.046 1.841.29 3.2.754 4.076 1.393.998.768 1.905 1.983 2.718 3.643.5 1.152.765 2.017.796 2.592.031.574-.203 1.663-.703 3.262-.562 1.918-1.485 3.725-2.764 5.42-1.28 1.692-2.376 2.54-3.28 2.54-.905 0-1.67-.558-2.295-1.679-.625-1.115-.812-2.284-.56-3.501.31-1.47.247-2.14-.19-2.015-.75.13-1.624 1.473-2.623 4.03-.25.707-.502 1.44-.75 2.207-.314 1.407-.408 2.337-.281 2.78.125.45.687 1.217 1.686 2.304 1.435 1.533 2.53 2.303 3.28 2.303 1.062 0 2.343.48 3.844 1.439 1.497.957 2.465 1.918 2.902 2.877.752 1.535 1.344 3.997 1.78 7.384.438 3.394.47 5.758.095 7.1-.375 1.536-1.281 3.358-2.718 5.467-1.437 2.11-2.905 3.775-4.404 4.99-1.124.957-2.108 1.535-2.95 1.726-.845.19-2.797.352-5.856.48-2.813.062-4.767.032-5.856-.098-1.095-.126-2.425-.542-3.982-1.245-2.314-1.09-4.25-2.334-5.812-3.743-3.06-2.812-2.873-5.434.562-7.864 1.812-1.279 3.311-1.838 4.498-1.679 1.185.16 2.717 1.072 4.591 2.732 2.122 1.985 3.686 2.974 4.686 2.974 1.061 0 2.123-.733 3.187-2.204 1.06-1.473 1.591-2.91 1.591-4.319 0-2.044-.267-3.485-.796-4.317-.531-.829-1.734-1.724-3.608-2.683-2.436-1.28-4.341-2.494-5.715-3.648-1.125-1.02-2.25-2.67-3.374-4.938-1.124-2.27-1.684-4.108-1.684-5.517 0-1.597.513-3.771 1.546-6.523 1.028-2.748 2.137-4.922 3.324-6.521 1.125-1.535 2.733-3.038 4.826-4.509 2.092-1.472 3.92-2.366 5.481-2.686m33.7 4.022a483.723 483.723 0 0 1 9.68-1.565c2.36-.348 4.233-.554 5.618-.617 1.383-.063 2.314.016 2.786.237.472.224.738.587.802 1.091.252 1.075.866 1.818 1.842 2.227.976.413 2.754.619 5.335.619 2.833 0 4.58.237 5.241.709.661.474.866 1.662.614 3.559-.19 1.583-.756 2.767-1.7 3.557s-2.772 1.723-5.477 2.798c-2.77 1.075-7.523 2.245-14.259 3.51-2.77.506-4.47 1.17-5.099 1.992-.63.822-.944 2.843-.944 6.07 0 3.1-.252 8.505-.756 16.218-.505 7.719-.755 11.892-.755 12.52 0 1.015-.126 1.647-.378 1.9-.252.253-.74.49-1.464.711-.724.224-1.432.68-2.124 1.376-.567.508-.992.788-1.275.853-.283.064-.517.032-.708-.094-.19-.129-.6-.41-1.228-.854a14.125 14.125 0 0 0-2.172-1.233c-1.007-.38-1.733-1.107-2.172-2.184-.44-1.073-.66-2.654-.66-4.74 0-2.087.06-4.222.188-6.403.126-2.184.315-5.264.567-9.248.252-3.984.409-7.713.472-11.193.06-3.164.031-5.106-.095-5.834-.125-.725-.535-1.373-1.227-1.944-.693-.57-1.653-.996-2.88-1.28a59.668 59.668 0 0 0-3.21-.664c-.916-.157-1.734-.615-2.456-1.376-.724-.759-1.084-1.865-1.084-3.32 0-1.644.423-2.798 1.273-3.462.85-.664 2.66-1.249 5.43-1.755l12.275-2.181zM210.607 116.479c-.647-.354-1.246-.342-1.797.036-.241.189-.395.631-.467 1.328-.072.696 0 1.08.216 1.15.19.071.67-.141 1.437-.637 1.222-.802 1.425-1.428.61-1.877m-.862 9.455c.312-.52.036-.85-.826-.991-.814-.142-1.353-.095-1.617.141-.191.236-.311.738-.36 1.505-.047.767.013 1.175.18 1.222.144.047.563-.177 1.258-.673.693-.496 1.15-.897 1.365-1.204m-3.557-13.74c.527-.094.875-.153 1.042-.176.168-.024.288-.024.36 0 .07.023.125.065.161.124.036.059.222.124.557.194.336.071.803.13 1.401.177 1.222.071 2.072.26 2.551.567.456.26.969.79 1.545 1.593.575.803.91 1.452 1.004 1.948.146.614.084 1.263-.177 1.948a4.55 4.55 0 0 1-1.222 1.77l-1.006.92.611.39c1.27.85 1.928 1.735 1.976 2.656.048 1.322-.078 2.308-.377 2.957-.302.65-1.072 1.564-2.318 2.744-1.006.992-1.796 1.659-2.37 2-.576.343-1.522.703-2.84 1.08-.886.26-2.017.497-3.395.71-1.377.212-2.125.259-2.245.14-.048-.046.036-.176.251-.389.216-.212.471-.419.773-.62.3-.2.509-.3.629-.3.165 0 .353-.06.556-.177.204-.119.372-.242.503-.372.132-.13.172-.23.126-.301-.072-.071-.575-.018-1.509.16-.934.176-1.485.194-1.653.052-.167-.189-.161-1.074.018-2.656.18-1.581.473-3.328.88-5.24 1.294-6.162 2.12-9.68 2.478-10.553.29-.684.67-1.097 1.151-1.239.094-.024.274-.059.54-.106m11.643 4.399c.39-.578.794-.734 1.21-.468.414.265.897.976 1.45 2.131.274.578.435 1.046.483 1.404.044.358.032 1.092-.037 2.201a36.433 36.433 0 0 1-.43 3.432 51.162 51.162 0 0 0-.5 3.604c-.209 1.872-.427 3.039-.656 3.501-.163.324-.324.509-.485.555-.16.046-.608.058-1.344.034-1.13-.069-1.83-.236-2.108-.502-.274-.266-.414-.93-.414-1.993 0-1.156.08-2.265.242-3.328.552-3.535.995-5.996 1.33-7.383.334-1.386.752-2.449 1.259-3.188m11.679-4.527c.463-.095 1.02-.089 1.67.017.65.106 1.128.277 1.438.513.353.282.673.73.96 1.343.176.424.27.742.28.954.012.212-.071.612-.248 1.201a6.284 6.284 0 0 1-.975 1.997c-.452.624-.838.937-1.158.937-.321 0-.59-.207-.81-.619a1.887 1.887 0 0 1-.198-1.29c.11-.542.088-.789-.066-.742-.265.047-.574.542-.926 1.484-.089.26-.177.53-.265.813-.11.519-.143.86-.1 1.025.045.165.243.448.596.848.507.566.893.848 1.158.848.374 0 .826.177 1.356.53.529.354.87.707 1.025 1.06.264.566.474 1.473.628 2.722.154 1.249.165 2.12.035 2.615-.134.566-.454 1.237-.96 2.015-.508.777-1.026 1.39-1.555 1.837-.395.354-.744.566-1.042.637-.298.07-.987.13-2.067.176-.992.024-1.681.012-2.067-.035-.386-.047-.854-.2-1.405-.46-.816-.4-1.5-.86-2.05-1.378-1.081-1.036-1.015-2.002.2-2.898.637-.471 1.166-.677 1.585-.618.419.059.96.394 1.62 1.007.75.73 1.301 1.096 1.654 1.096.375 0 .75-.271 1.125-.813.374-.542.562-1.072.562-1.59 0-.755-.094-1.285-.281-1.591-.188-.306-.612-.636-1.274-.99-.858-.47-1.532-.918-2.017-1.342-.397-.377-.794-.984-1.19-1.82-.397-.837-.596-1.514-.596-2.033 0-.589.182-1.39.546-2.403.364-1.013.755-1.814 1.176-2.403.395-.565.963-1.119 1.701-1.66.739-.543 1.384-.873 1.935-.99m12.215-.07c.338-.664.616-.997.833-.997.167 0 .453.255.851.766.397.51.683 1.003.852 1.479.096.237.253 1.14.469 2.707.123.784.28 1.2.473 1.247.169.024.384-.166.652-.57.215-.332 1.196-1.122 2.935-2.37 1.739-1.246 2.8-1.81 3.188-1.691.312.095.846.178 1.594.249.508.071 1.037.285 1.595.641.553.357.833.665.833.927 0 .142-.19.45-.564.926-.374.475-.62.712-.742.712-.095 0-.355.179-.777.535-.423.356-1.081.867-1.977 1.532a21.97 21.97 0 0 1-2.897 1.817c-1.086.594-1.763.997-2.029 1.211a1.24 1.24 0 0 0-.47.82c-.025.285.01.516.106.694.097.178.207.291.326.339.123.047.238.119.344.214.111.095.163.225.163.391 0 .12.045.208.13.268.084.059.253.207.507.445.253.238.535.594.851 1.069.507.784.868 1.176 1.087 1.176.119 0 .248.077.378.231.135.154.347.416.636.784.288.368.59.707.906 1.015.508.523.82 1.117.942 1.782.073.45.073.783 0 .997-.074.214-.29.523-.654.927-.507.64-1.014.961-1.522.961-.314 0-.573.048-.777.143-.207.095-.344.16-.416.196-.073.036-.208-.012-.4-.143-.192-.13-.506-.421-.94-.872-.824-.832-1.38-1.473-1.668-1.924-.362-.57-.956-1.396-1.775-2.476-.821-1.081-1.294-1.657-1.413-1.728-.388-.238-.666.593-.833 2.494-.147 1.258-.334 2.131-.564 2.618-.23.487-.574.73-1.03.73-.339 0-.655.12-.942.357a2.873 2.873 0 0 0-.653.712 1.91 1.91 0 0 1-.525.57c-.207.143-.395.12-.564-.07-.241-.215-.674-.452-1.302-.713l-.942-.392.109-1.746c.096-1.259.26-2.31.489-3.153.227-.843.48-1.562.76-2.156.278-.593.454-1.104.526-1.532.048-.237.312-1.086.795-2.547.485-1.46.763-2.262.833-2.405.123-.285.206-.95.254-1.995.05-1.045.292-1.995.727-2.85l1.232-2.351z"/></g></svg>