<svg xmlns="http://www.w3.org/2000/svg" width="458" height="393" viewBox="0 0 458 393">
  <g fill="#48484F" fill-opacity=".25" fill-rule="evenodd" opacity=".699">
    <path d="M101.445978 221C104.054755 217.854646 107.332499 217.230302 110.095197 218.075235L229.410208 11.8172339 344.871256 211.414254C345.088325 211.319716 345.301448 211.201544 345.52049 211.126701 347.053788 210.594926 349.431681 210.289647 352.336461 211.60333 352.648251 211.593482 353.188951 211.550152 354 211.439858L232.828061 1.96953899C232.123573.750394353 230.821158 0 229.410208 0 227.999259 0 226.696844.750394353 225.990383 1.96953899L101 218.037813C101.25851 218.884715 101.410458 219.654805 101.453872 220.391412 101.463739 220.586397 101.449925 220.795168 101.445978 221M453.473867 387.072139L389.620692 276.171741C389.264025 276.189524 388.91327 276.205332 388.511281 276.221139 387.47281 276.244851 386.546659 276.256707 385.724947 276.256707 383.935702 276.256707 382.633179 276.203356 381.679441 276.092702 381.247894 276.045279 380.804524 275.970193 380.34736 275.875347L443.234974 385.096185 13.7650259 385.096185 76.4319401 276.256707 76.3432661 276.256707C74.5540215 276.256707 73.2514987 276.203356 72.2997309 276.092702 70.9991786 275.946482 69.5961586 275.582906 68.0532306 275L3.52613251 387.072139C2.8246225 388.295254 2.8246225 389.800931 3.52613251 391.024046 4.23158359 392.247162 5.53213587 393 6.9410675 393L450.060903 393C451.467864 393 452.770387 392.247162 453.473867 391.024046 454.175378 389.800931 454.175378 388.295254 453.473867 387.072139"/>
    <path d="M195.526571 164.101455L195.312036 188.822843C185.835125 187.517522 176.129902 185.508722 166.387282 182.57723 174.779712 174.665588 184.648297 168.352218 195.526571 164.101455zM197.26056 191.0947C198.689478 191.276049 200.118395 191.453414 201.535503 191.604871 200.143982 193.316735 198.713096 195.044542 197.209387 196.800248L197.26056 191.0947zM197.50265 163.344169C206.046631 160.237305 215.181075 158.407863 224.685541 158.05712 221.184103 164.221026 213.948978 176.070552 203.037245 189.751514 201.130053 189.5602 199.209084 189.342978 197.278274 189.095864L197.50265 163.344169zM228.02165 157.971427C228.348372 157.971427 228.66919 157.993349 228.993944 157.997334 235.119001 169.623661 242.255715 180.183809 249.823467 189.637921 236.709311 190.931285 221.524603 191.409571 205.369569 189.970728 216.560787 175.799524 223.780167 163.724805 226.980469 157.997334 227.328842 157.993349 227.67131 157.971427 228.02165 157.971427zM258.540651 163.344169L258.737472 185.949143C257.212112 186.260029 256.00757 187.463714 255.674943 188.998214 254.523543 189.137714 253.370174 189.277214 252.17941 189.404757 244.601817 180.046302 237.427706 169.593768 231.257381 158.055127 240.797275 158.395906 249.965178 160.227341 258.540651 163.344169zM258.835882 197.234691C257.101893 195.285677 255.379712 193.288835 253.675246 191.230214 254.373959 191.152492 255.072672 191.072778 255.759576 190.989078 256.174868 192.411978 257.342014 193.500078 258.806359 193.771106L258.835882 197.234691zM289.581226 182.505487C284.288721 183.950308 274.979107 186.202236 262.978955 188.005772 262.50265 187.093043 261.693717 186.397536 260.707646 186.078679L260.51673 164.101455C271.361544 168.340261 281.204542 174.627724 289.581226 182.505487zM292.696896 185.580465C289.571385 195.993141 287.441787 206.381904 286.097502 216.503623L277.957002 216.431881C272.318092 211.36006 266.529599 205.71629 260.825738 199.464698L260.774565 193.615663C262.297956 193.089549 263.400151 191.658678 263.441484 189.948807 276.384406 187.995807 286.168357 185.532636 291.240424 184.107744 291.732475 184.594001 292.216654 185.084243 292.696896 185.580465zM238.903861 216.234588L217.137472 216.234588 227.42922 205.815933C227.628009 205.811947 227.822861 205.79999 228.02165 205.79999 228.218471 205.79999 228.415291 205.811947 228.61408 205.815933L238.903861 216.234588zM243.218168 220.60293C241.440878 219.646359 239.571083 218.841244 237.616654 218.227444L240.872067 218.227444 243.218168 220.60293zM212.823164 220.60293L215.169266 218.227444 218.426646 218.227444C216.472218 218.841244 214.600454 219.646359 212.823164 220.60293zM144.969266 213.239324C149.094625 203.625783 154.784709 194.861199 161.73838 187.28635 163.039364 192.067214 164.989856 200.120348 166.694322 210.451317 167.369417 210.186267 168.005148 210.052746 168.60545 209.981003 166.7514 198.755241 164.608024 190.231793 163.316881 185.610358 163.791219 185.120115 164.267525 184.635851 164.751703 184.155572 175.037547 187.320229 185.297805 189.4765 195.294322 190.839614L195.221499 199.080077C190.580469 204.373104 185.427706 209.791682 179.786828 215.154459 180.324148 215.881852 180.867373 216.667038 181.422407 217.565816 181.5838 217.828873 181.747161 218.117837 181.908554 218.388866L183.156397 218.378902C183.199697 217.759123 183.30598 217.08753 183.502801 216.382059L181.357456 216.401988C186.362604 211.631089 190.974111 206.818339 195.195912 202.08929L195.136866 208.819168C195.76866 208.976603 196.420136 209.219732 197.099167 209.538589L197.1838 199.835369C199.551552 197.119106 201.789402 194.442699 203.893414 191.826078 221.20969 193.470185 237.472975 192.922149 251.337017 191.485299 253.814989 194.512449 256.328388 197.426005 258.863437 200.221984L258.979561 213.56416C250.681605 206.254361 239.856472 201.814276 228.02165 201.814276 217.505526 201.814276 207.800303 205.331668 199.943225 211.240489 200.517941 211.643046 201.114307 212.087453 201.753974 212.597624L202.068887 212.868653C202.48221 213.251281 202.791219 213.532274 203.013626 213.699674 203.056927 213.73156 203.102195 213.779388 203.145496 213.811274 209.290235 209.424996 216.594247 206.603111 224.506435 205.955432L214.354428 216.234588 205.52112 216.234588C205.948221 216.790595 206.389099 217.448237 206.731567 218.227444L212.386223 218.227444 207.611355 223.064108C207.631037 223.707801 207.621196 224.331565 207.554277 224.913479 207.501136 225.359879 207.43028 226.063357 207.339743 227 212.7838 221.898287 220.036639 218.753559 228.02165 218.753559 234.668282 218.753559 240.805148 220.939723 245.822104 224.608572 246.398789 223.835343 247.014837 223.062115 247.668282 222.292872L243.65511 218.227444 251.547615 218.227444C252.403785 217.454216 253.238304 216.792588 254.05511 216.234588L241.686904 216.234588 231.536866 205.955432C240.44103 206.684818 248.573656 210.170325 255.149432 215.543066 255.974111 215.066774 256.78698 214.684145 257.593944 214.413117 258.780772 213.984652 259.880999 213.691702 260.947767 213.462524L260.851325 202.394197C265.56321 207.462032 270.316427 212.131296 274.985011 216.403981L273.674186 216.392023C273.872975 216.533516 274.063891 216.645116 274.264648 216.79458 275.101136 217.412366 275.795912 217.942466 276.39031 218.408794L277.209084 218.416766C279.185163 220.18443 281.131718 221.852451 283.058592 223.474636 283.265254 222.757208 283.487661 222.079637 283.723846 221.443915 282.556699 220.459444 281.395458 219.48693 280.206662 218.444666L285.058289 218.488509C285.97941 216.834438 287.126874 215.395595 288.451476 214.148067 289.740651 205.307754 291.600606 196.29207 294.257684 187.238522 302.071461 195.73407 308.304769 205.726254 312.504921 216.740773L305.899621 216.680988C306.399546 217.342616 306.848297 218.010223 307.238002 218.687794L312.973354 218.739609C313.985011 216.529531 315.167903 214.771831 316.571234 213.428645 317.181378 212.848724 317.992279 212.232931 319 211.700839 304.230583 175.526502 269.021347 150 228.02165 150 186.978653 150 151.741862 175.578317 137 211.810446 137.41726 211.774574 137.824678 211.730731 138.257684 211.706817 140.11567 211.607174 142.257078 212.11336 144.969266 213.239324zM294.880662 310.11899C293.358056 304.493474 290.933752 294.349423 289.09476 281.244886L313.140065 281.032156C308.934114 291.887275 302.697363 301.737838 294.880662 310.11899zM291.841383 313.227206C281.513371 310.059898 271.199201 307.901087 261.144071 306.540011L261.219213 298.345982C266.206241 292.744103 271.758808 287.002373 277.898666 281.345341L287.109441 281.264583C289.096738 295.547012 291.78206 306.356828 293.288847 311.781432 292.812291 312.267953 292.329803 312.750534 291.841383 313.227206zM260.90876 333.060302L261.128252 308.533367C270.65739 309.83732 280.417886 311.848403 290.200133 314.785253 281.766479 322.612915 271.845814 328.856922 260.90876 333.060302zM261.361586 282.343989C261.654243 282.062319 261.942945 281.77474 262.225715 281.483222L274.991873 281.368978C270.024619 286.033272 265.440983 290.742869 261.244919 295.371707L261.361586 282.343989zM284.989657 275.101334C285.398981 275.457853 285.881469 275.727704 286.41537 275.893161 286.551811 277.045446 286.69023 278.181974 286.838536 279.294864L280.105455 279.353956C281.695293 277.92591 283.324678 276.509682 284.989657 275.101334zM259.245758 297.601429C256.857047 300.299943 254.604777 302.957093 252.484993 305.559092 235.176725 303.930134 218.894731 304.473777 204.997495 305.899853 203.314719 303.869073 201.620078 301.879657 199.907641 299.955242 200.332785 299.326902 200.579961 298.57053 200.579961 297.757036 200.579961 295.793227 199.134474 294.178058 197.248025 293.878661L197.161019 284.173857C205.497779 291.396815 216.371556 295.787318 228.2637 295.787318 240.153865 295.787318 251.02962 291.396815 259.36638 284.171888L259.245758 297.601429zM259.168639 306.287887C257.72513 306.106673 256.28162 305.929399 254.849976 305.7797 256.255914 304.073924 257.699423 302.35239 259.220052 300.60328L259.168639 306.287887zM258.92344 333.808795C250.337526 336.881556 241.154435 338.689757 231.601567 339.036428 235.109493 332.926361 242.380429 321.161232 253.347144 307.607599 255.271164 307.796692 257.205071 308.015331 259.15282 308.261545L258.92344 333.808795zM228.2637 339.121126C227.943359 339.121126 227.630928 339.099459 227.312565 339.097489 221.218188 327.554939 214.089625 317.083915 206.512191 307.723812 219.656034 306.439556 234.856384 305.966823 251.007868 307.38896 239.760361 321.431084 232.507221 333.416821 229.297885 339.09355 228.951838 339.097489 228.609746 339.121126 228.2637 339.121126zM197.601982 333.808795L197.378534 308.773672C199.567527 308.482154 201.813865 308.206393 204.147208 307.956239 211.740462 317.219825 218.908573 327.582515 225.048431 339.040367 215.450083 338.705515 206.225466 336.895344 197.601982 333.808795zM197.315257 301.625564C197.706784 301.556623 198.072605 301.424652 198.414697 301.251317 199.838432 302.850729 201.25228 304.481656 202.654264 306.153947 200.850866 306.354858 199.077129 306.565618 197.362715 306.792135L197.315257 301.625564zM214.532565 281.532465L224.730068 291.692273C215.394716 290.94181 206.883944 287.246618 200.135044 281.532465L214.532565 281.532465zM218.623826 279.562746L215.351213 279.562746 212.99414 277.214842C214.779741 278.162276 216.658281 278.958043 218.623826 279.562746zM239.196799 281.532465L228.856922 291.832123C228.659181 291.836062 228.461441 291.847881 228.2637 291.847881 228.063981 291.847881 227.86624 291.836062 227.668499 291.832123L217.328623 281.532465 239.196799 281.532465zM243.531281 277.214842L241.174209 279.562746 237.903573 279.562746C239.867141 278.958043 241.74568 278.162276 243.531281 277.214842zM256.390378 281.532465C249.641478 287.246618 241.130706 290.94181 231.795354 291.692273L241.992856 281.532465 256.390378 281.532465zM166.40834 314.864042C172.055823 313.33554 182.245416 310.893089 195.403102 309.039584L195.616662 333.060302C184.715201 328.870711 174.824197 322.654279 166.40834 314.864042zM163.303807 311.852342C166.513143 301.552684 168.698181 291.278632 170.082368 281.270492L178.393422 281.343372C183.301353 285.678722 188.310132 290.457259 193.279364 295.675044 192.899701 296.279747 192.670321 296.988846 192.670321 297.757036 192.670321 299.48054 193.789535 300.928283 195.33587 301.462077L195.387282 307.065926C181.049083 309.06913 170.187171 311.765675 164.741384 313.280388 164.256918 312.809626 163.778385 312.334923 163.303807 311.852342zM143.385357 281.032156L168.079252 281.250795C166.756364 290.740899 164.717655 300.46343 161.741653 310.219446 153.879471 301.816626 147.607127 291.932579 143.385357 281.032156zM194.29773 281.483222C194.582477 281.77474 194.873156 282.064289 195.165813 282.347928L195.270615 294.069723C195.074852 294.140633 194.89293 294.22927 194.712986 294.327756 190.269746 289.661493 185.790912 285.335991 181.381288 281.368978L194.29773 281.483222zM314.882163 276.135436C314.565777 277.116356 314.239505 278.089397 313.891481 279.054559L288.831765 279.277137C288.689391 278.201671 288.55295 277.110447 288.418486 275.999525 289.450694 275.776947 290.322732 275.148607 290.884316 274.299658 290.030075 273.838744 289.248998 273.350254 288.600408 272.800702 288.127807 272.40085 287.663116 271.920238 287.200402 271.392354 285.555197 273.45071 283.643041 274.805876 281.52919 275.471641 280.042178 276.767716 278.57494 278.0697 277.143295 279.381532L264.060751 279.495776C264.742957 278.715767 265.371774 277.892425 266.002568 277.071052 264.056796 277.510299 262.077409 277.756514 260.066383 277.756514 259.856778 277.756514 259.645195 277.734847 259.433612 277.730908L259.433612 278.69804C259.148865 278.989558 258.858186 279.279107 258.565529 279.562746L243.970266 279.562746 248.407574 275.142698C247.474237 274.666026 246.610109 274.120414 245.801348 273.51571 240.826185 276.988324 234.785197 279.04471 228.2637 279.04471 217.039921 279.04471 207.235923 272.985856 201.896916 264 201.711039 264.472732 201.525163 264.852888 201.337309 265.156225 201.25228 266.020931 201.011036 266.877759 200.670922 267.726707L212.555155 279.562746 197.959893 279.562746C197.667236 279.279107 197.378534 278.991528 197.093787 278.700009L197.093787 272.651004C196.441242 273.206464 195.786719 273.635863 195.116377 273.952988L195.116377 276.533319C194.558748 275.877403 194.034734 275.19391 193.516653 274.506479 192.233314 274.788148 190.835285 274.756633 189.265221 274.390265 189.008158 274.337083 188.751095 274.266173 188.490077 274.181475 189.706184 276.03695 191.009297 277.829394 192.464671 279.495776L179.140883 279.379562C177.630142 278.053942 176.137197 276.777564 174.656117 275.534672 174.266567 275.818311 173.890859 276.10392 173.455829 276.377711 173.289727 276.486046 173.127579 276.570744 172.961477 276.675139 174.011481 277.545754 175.065441 278.432128 176.131265 279.351986L170.341409 279.300774C170.394799 278.871375 170.440279 278.445916 170.493669 278.016517 169.795643 278.34349 169.099595 278.6291 168.405524 278.855617 168.38575 278.997437 168.373886 279.139257 168.356089 279.283046L166.873032 279.269258C166.679245 279.312592 166.485459 279.377593 166.293651 279.411078 165.455229 279.564716 164.678107 279.631686 163.958329 279.631686 162.908325 279.631686 162.022445 279.456381 161.207752 279.218045L142.633941 279.054559C142.003147 277.311358 141.441563 275.534672 140.921504 273.742228 138.398329 274.435569 135.873177 274.827543 133.37373 274.827543 133.247176 274.827543 133.124577 274.813755 133 274.811785 144.58169 316.384665 182.888074 347 228.2637 347 274.240457 347 312.987804 315.57511 324 273.153282 323.226833 273.618136 322.47344 274.016019 321.743775 274.297689 320.20535 274.955575 317.994606 275.54846 314.882163 276.135436z"/>
    <path d="M161 216L152 216.077821C152.987536 216.708171 153.846873 217.348249 154.590029 218L160.144669 217.953307C160.377031 217.289883 160.653461 216.634241 161 216M5.54312354 216.738514C6.75169969 216.044758 8.04190948 215.839785 9.41176185 216.123594 10.7816142 216.407403 12.0081099 217.14846 13.0932401 218.344794 14.2381022 219.608138 15.1002331 220.995648 15.6736597 222.511267 16.2470862 224.022944 16.6910936 226.137715 17.011655 228.847697 17.3919483 232.381513 18.2202312 233.954288 19.4965035 233.577847 19.6876457 233.516749 19.9106449 233.388641 20.1655012 233.201406 20.8006507 232.696856 21.1192211 232.127268 21.1192211 231.496581 21.1192211 230.928963 21.8997183 229.590725 23.462704 227.475954 25.0217075 225.363153 26.982906 223.04538 29.3383353 220.522634 30.7400447 218.945917 31.7594697 217.968353 32.3966103 217.591912 33.033751 217.211529 33.9277389 217.022323 35.0745921 217.022323 36.7291667 217.022323 38.1308761 217.400735 39.2777292 218.157559 40.4265734 218.914383 41 219.860413 41 220.995648 41 222.258993 39.4051573 225.678497 36.2194542 231.260073 33.033751 236.84165 31.4428904 239.884713 31.4428904 240.389263 31.4428904 241.211126 31.058615 242.375925 30.2960373 243.889573L28.0003399 249.092738C27.4906274 250.356082 26.8236208 251.836225 25.9933469 253.539079 25.1650641 255.241933 24.5279235 256.611705 24.0839161 257.65628 23.6359266 258.694942 23.2854992 259.688274 23.030643 260.634303 21.6926476 265.742865 20.7389277 268.645995 20.1655012 269.337779 19.6537976 269.77926 18.6343726 270 17.1072261 270 16.022096 270 15.1958042 269.858096 14.6223776 269.574287 14.04696 269.290478 13.3142483 268.707092 12.4242424 267.824131 10.8951049 266.186317 9.3978244 263.204352 7.93040987 258.884148 6.4649864 254.563945 5.54312354 250.227974 5.16083916 245.876236 4.77656371 242.281322 4.20313714 239.632439 3.43856838 237.929585 2.67599068 236.226731 1.91142191 233.989764 1.14685315 231.214743.380293318 228.439722 0 226.453059 0 225.250812 0 224.180616.635149573 222.651201 1.91142191 220.664538 3.18371212 218.675904 4.3962704 217.3692 5.54312354 216.738514M50.0207135 225.640274C51.1292674 224.043117 52.2704258 223.611884 53.4441887 224.348573 54.6179517 225.081269 55.9873418 227.045773 57.552359 230.240089 58.3348677 231.837246 58.791331 233.132941 58.9217491 234.121182 59.0521672 235.113416 59.0195627 237.141806 58.8239356 240.206353 58.5610616 243.466551 58.153505 246.628923 57.6012658 249.693469 57.0449511 252.760012 56.5742232 256.0821 56.1829689 259.659733 55.5960875 264.834524 54.9766015 268.060783 54.3245109 269.338509 53.8680476 270.234914 53.4095464 270.746004 52.9551208 270.87178 52.4986575 271.001549 51.2270809 271.031496 49.1403913 270.96761 45.9451477 270.775951 43.9562716 270.312775 43.1737629 269.578083 42.3912543 268.845386 42 267.006659 42 264.067889 42 260.873573 42.2282317 257.80703 42.6846951 254.86826 44.2497123 245.093655 45.5049866 238.289763 46.4505178 234.456585 47.3960491 230.623406 48.5861143 227.684636 50.0207135 225.640274M82.278268 213.181478C83.590084 212.925679 85.1654345 212.939668 87.0101757 213.227442 88.8510127 213.517215 90.2096793 213.980852 91.0861754 214.620351 92.0837021 215.38775 92.9914319 216.602798 93.8035085 218.263497 94.3032479 219.414595 94.5687345 220.279917 94.5999682 220.855466 94.6312019 221.429017 94.3969491 222.518163 93.8972096 224.116911 93.3350028 226.035408 92.4116561 227.841992 91.1330259 229.536664 89.8524437 231.229338 88.7573116 232.076674 87.853486 232.076674 86.9477083 232.076674 86.1824823 231.519111 85.557808 230.39799 84.9331337 229.282863 84.7457314 228.113779 84.9975532 226.896733 85.3079383 225.427884 85.2454708 224.75641 84.8081988 224.882311 84.0585897 225.012209 83.1840457 226.355157 82.1845669 228.911155 81.9346972 229.6186 81.6828753 230.352026 81.4349577 231.119424 81.1206685 232.526322 81.0269673 233.455594 81.1538543 233.899247 81.2787892 234.348894 81.840996 235.116293 82.8404749 236.203441 84.2752736 237.73624 85.3704057 238.505638 86.1200148 238.505638 87.1819611 238.505638 88.4625434 238.985262 89.9637138 239.94451 91.4609799 240.90176 92.4292251 241.863007 92.8664971 242.822256 93.6180583 244.357053 94.2095468 246.819124 94.6468188 250.20647 95.0840908 253.599812 95.1153245 255.963959 94.7405199 257.306907 94.3657153 258.841705 93.4599376 260.664277 92.0231868 262.772625 90.5864359 264.882972 89.1184514 266.547667 87.6192331 267.762715 86.4948194 268.719965 85.5109574 269.297513 84.6695992 269.489363 83.8243369 269.679214 81.8722297 269.841087 78.8132779 269.968987 76.0002915 270.030938 74.0462323 270.000962 72.9569565 269.871064 71.8618244 269.745162 70.5324394 269.329488 68.9746579 268.626039 66.661411 267.536892 64.7249207 266.291868 63.163235 264.882972 60.102331 262.071175 60.2897333 259.449229 63.7254419 257.019133 65.5369973 255.740135 67.0362156 255.180573 68.2230967 255.340448 69.4080257 255.500323 70.9404298 256.411609 72.8144527 258.072308 74.9363931 260.056753 76.5000309 261.045978 77.4995098 261.045978 78.561456 261.045978 79.6234023 260.312552 80.6873007 258.841705 81.7472949 257.368859 82.278268 255.931984 82.278268 254.523088 82.278268 252.47869 82.0108293 251.037819 81.4818083 250.20647 80.9508352 249.37712 79.7483372 248.481821 77.8743143 247.522573 75.4380846 246.243575 73.5328281 245.028527 72.1585447 243.87543 71.034131 242.854231 69.9097173 241.205522 68.7853035 238.937299 67.6608898 236.667078 67.1006351 234.828518 67.1006351 233.419622 67.1006351 231.822873 67.6140393 229.648577 68.6467039 226.896733 69.6754644 224.148886 70.7842612 221.974589 71.9711424 220.375842 73.0955561 218.841044 74.7040924 217.338222 76.7967512 215.867374 78.88941 214.394528 80.7165823 213.501228 82.278268 213.181478M105.020713 225.640274C106.129267 224.043117 107.270426 223.611884 108.444189 224.348573 109.617952 225.081269 110.987342 227.045773 112.552359 230.240089 113.334868 231.837246 113.791331 233.132941 113.921749 234.121182 114.052167 235.113416 114.019563 237.141806 113.823936 240.206353 113.561062 243.466551 113.153505 246.628923 112.601266 249.693469 112.044951 252.760012 111.574223 256.0821 111.182969 259.659733 110.596087 264.834524 109.976601 268.060783 109.324511 269.338509 108.868048 270.234914 108.409546 270.746004 107.955121 270.87178 107.498657 271.001549 106.227081 271.031496 104.140391 270.96761 100.945148 270.775951 98.9562716 270.312775 98.1737629 269.578083 97.3912543 268.845386 97 267.006659 97 264.067889 97 260.873573 97.2282317 257.80703 97.6846951 254.86826 99.2497123 245.093655 100.504987 238.289763 101.450518 234.456585 102.396049 230.623406 103.586114 227.684636 105.020713 225.640274M141.700292 234.778182C141.322528 233.769746 140.958538 233.139474 140.614222 232.885395 140.265971 232.635256 139.654073 232.477688 138.772625 232.414661 137.261571 232.288606 136.094833 232.540715 135.278313 233.170987 134.457858 233.80126 133.261607 235.343457 131.689561 237.801519 130.49331 239.694306 129.737783 241.128176 129.42298 242.105098 129.108177 243.083989 128.885847 244.671488 128.761894 246.879411 128.634005 249.146421 128.649745 250.611805 128.809114 251.273591 128.964548 251.935377 129.483973 252.774427 130.367388 253.778923 131.122915 254.600247 131.736781 255.120221 132.208985 255.338847 132.68119 255.563382 133.230127 255.608682 133.8617 255.482628 135.876439 254.97841 137.686555 253.513027 139.290082 251.084509 140.897545 248.6619 141.904914 246.012786 142.314158 243.145047 142.723401 240.277308 142.516812 237.488353 141.700292 234.778182M128.950776 219.935268C130.774665 218.233533 133.987622 217.256611 138.583743 217.004502 139.778027 216.941475 141.716032 217.540233 144.391856 218.800778 147.067681 220.061323 149.035199 221.290354 150.29441 222.487871 152.183228 224.315661 153.930384 226.994318 155.535878 230.523844 157.141373 234.055338 158.258923 237.708948 158.888529 241.490582 159.266292 243.759563 158.683907 246.971982 157.141373 251.133749 155.596871 255.293546 153.755274 258.507935 151.616582 260.774946 149.410995 263.298005 146.658437 265.29912 143.353007 266.78026 140.047577 268.2614 136.789367 269 133.578378 269 129.674822 269 126.259211 267.676428 123.331544 265.029284 120.403878 262.38411 118.184517 258.63399 116.673463 253.778923 116.2957 252.394294 116.075338 250.377422 116.012377 247.730278 115.947449 245.081165 116.138299 243.255345 116.577055 242.244939 117.584424 239.536738 118.609501 237.220487 119.648351 235.298156 120.6872 233.375826 121.568648 232.004984 122.292695 231.185629 123.014774 230.366275 123.740788 229.657219 124.464835 229.05846 125.186914 228.459702 125.755526 228.128809 126.16477 228.065781 126.574014 228.004724 126.951777 227.797916 127.29806 227.449296 127.642376 227.104616 127.817485 226.773723 127.817485 226.456617 127.817485 226.141481 127.786005 225.418638 127.723044 224.284147 127.534163 223.021633 127.500715 222.156978 127.628603 221.684274 127.752557 221.2096 128.195249 220.628568 128.950776 219.935268M190.67861 215.401451C191.690089 214.33022 192.699593 213.872531 193.713047 214.030355 194.724526 214.188179 196.273353 215.085803 198.359529 216.727172 199.05492 217.358468 199.558684 217.786565 199.876747 218.005546 200.190859 218.228472 200.556334 218.591467 200.967248 219.094531 201.378161 219.601541 201.615227 219.978345 201.678444 220.230864 201.741661 220.483382 201.820683 220.972636 201.915509 221.698626 202.010336 222.426589 202.024164 223.057885 201.962922 223.592514 201.899705 224.129115 201.804879 225.046467 201.678444 226.340624 201.552009 227.63478 201.393966 228.848052 201.204313 229.986357 201.014661 231.12269 200.791424 232.764059 200.54053 234.910465 200.28766 237.05687 200.032815 239.171711 199.781921 241.253015 198.264702 254.573357 197.09518 261.645843 196.273353 262.464555 195.828856 262.906462 195.60957 263.600887 195.60957 264.547831 195.60957 265.496748 195.135439 266.536413 194.187178 267.672745 193.555004 268.369144 193.031484 268.793296 192.622546 268.953092 192.209658 269.110916 191.595263 269.095134 190.773436 268.903772 189.888392 268.714384 188.260543 267.483357 185.88989 265.210692 183.519236 262.938027 182.318104 261.456454 182.286496 260.760056 182.252911 260.067604 181.417256 258.597868 179.773603 256.356768 178.127974 254.11764 177.055253 252.99709 176.549514 252.99709 175.4116 252.99709 174.779425 256.309421 174.65299 262.938027 174.65299 265.40008 174.384316 267.199274 173.846968 268.335606 173.30962 269.471939 172.18751 270.578679 170.48064 271.649909 168.647334 272.851344 166.956268 273.591144 165.407441 273.8772 163.858613 274.15931 162.704895 273.956112 161.946286 273.259714 161.314112 272.69352 161 271.24154 161 268.903772 161 266.569951 161.343745 261.36176 162.041112 253.279201L163.558331 234.529714C164.06407 227.334915 164.538201 222.787612 164.980723 220.893724 165.294835 219.378614 166.025786 218.021328 167.161724 216.823839 168.299638 215.624377 169.2479 215.150905 170.006509 215.401451 170.636708 215.655942 171.458534 215.780228 172.471989 215.780228 172.977728 215.780228 173.594098 216.19057 174.321099 217.011255 175.048099 217.83194 175.806709 218.87555 176.596927 220.136169 177.385169 221.400734 178.193167 222.803394 179.014993 224.350069 179.83682 225.896744 180.642842 227.443419 181.43306 228.992066 182.223278 230.538741 182.950279 231.943374 183.614062 233.203993 184.277845 234.468558 184.846802 235.462848 185.320933 236.186866 185.795063 236.912856 186.126955 237.244286 186.316607 237.18313 186.695912 237.05687 187.10485 234.340326 187.549347 229.037441 187.991869 223.736528 188.371174 220.927262 188.687261 220.611614 189.068541 220.230864 189.256218 219.504873 189.256218 218.431671 189.256218 217.358468 189.732324 216.348394 190.67861 215.401451M264.836373 235.53603C263.895253 232.616373 263.048244 231.253735 262.295348 231.444147 262.105163 231.444147 261.918899 231.666295 261.730675 232.108607 260.036658 236.807429 258.734775 241.153195 257.825025 245.153838 256.915275 249.150515 256.523141 252.326038 256.648624 254.67049 256.774107 257.022876 257.401521 258.197086 258.530865 258.197086 258.968094 258.197086 259.801378 257.496924 261.024835 256.100567 262.248292 254.706193 263.203137 253.339587 263.895253 252.0067 264.332481 251.118109 264.803042 248.801425 265.306933 245.056649 265.61868 242.5198 265.744162 240.724767 265.683382 239.677499 265.61868 238.630231 265.338304 237.249741 264.836373 235.53603M259.095538 219.065359C261.54049 218.178752 263.532529 217.84553 265.071653 218.065694 266.606856 218.289825 268.34989 219.130813 270.294872 220.588658 271.673222 221.606174 272.69473 222.397576 273.353514 222.968813 274.012299 223.54005 274.624027 224.047816 275.188699 224.494095 275.751411 224.936407 276.176876 225.477893 276.459212 226.110617 276.741548 226.745325 276.974868 227.253091 277.165053 227.6359 277.353277 228.014741 277.649337 228.857712 278.059117 230.15688 278.464975 231.458031 278.827699 232.586621 279.141406 233.5367 280.017824 236.140986 280.458974 239.582293 280.458974 243.866571 280.458974 248.15085 280.017824 251.467199 279.141406 253.815618 278.263026 256.164037 277.900303 257.830146 278.059117 258.813943 278.21401 259.79774 279.013962 261.146495 280.458974 262.860206L283 265.813581 281.588319 267.810928C280.645238 269.016873 279.659022 269.764638 278.623789 270.04629 277.588557 270.333892 276.537639 270.333892 275.471035 270.04629 274.402472 269.764638 273.102549 269.621829 271.565385 269.621829 270.026261 269.621829 268.34989 269.968935 266.53039 270.667113 263.014913 272 259.328857 272.333222 255.472223 271.666778 251.613629 271.000335 248.70988 269.492904 246.766858 267.146468 244.194462 264.095903 242.937674 258.925017 243.002376 251.625876 243.065117 244.328718 244.414057 237.854697 247.049194 232.203813 248.302061 229.53804 250.184302 226.824664 252.695918 224.063684 255.203612 221.302705 257.338779 219.636596 259.095538 219.065359M334 234.287648C334 235.866892 333.590043 239.327411 332.776012 244.665257 331.96002 250.003102 331.552024 253.143824 331.552024 254.091371 331.552024 255.607445 331.110683 257.030739 330.233884 258.35533L327.691755 262.240271C326.93657 263.377327 325.667468 264.737451 323.878562 266.314721 322.089657 267.893965 320.596941 268.904681 319.406299 269.348844 318.148966 269.915398 315.812797 270.501692 312.391908 271.099831 308.969057 271.699944 306.379852 272 304.622331 272 302.301854 272 300.134376 271.749295 298.127742 271.241963 295.491461 270.547095 293.639787 269.741681 292.572721 268.825719 291.503693 267.909757 290.313051 266.15877 288.99491 263.566836 287.863114 261.231528 287.158928 259.445008 286.87647 258.213198 286.594011 256.981387 286.358629 254.407219 286.170323 250.490694 285.982017 248.153412 285.948671 245.976029 286.07617 243.952623 286.201707 241.93119 286.311552 240.653976 286.405705 240.115059 286.499858 239.58009 286.748971 238.330513 287.158928 236.37225 287.566924 234.415962 287.927844 232.331359 288.241687 230.118443 288.743836 226.835589 289.402906 224.243655 290.218898 222.348562 291.03489 220.453469 292.164725 218.905809 293.608403 217.707558 294.98735 216.507332 296.164262 215.986182 297.139137 216.142132 298.11205 216.30203 299.383114 217.2022 300.952329 218.844614 302.519583 220.548223 303.508189 222.303158 303.918146 224.103497 304.326142 225.903835 304.402641 228.888607 304.153528 233.055838 304.09076 233.942188 303.996607 235.20361 303.87107 236.846024 303.368921 243.607163 303.133538 247.634236 303.164923 248.927242 303.196307 250.222222 303.555265 251.43824 304.247681 252.57727 304.373218 252.829949 304.496794 253.017484 304.622331 253.143824 305.754128 255.102087 306.58385 256.081218 307.119345 256.081218 307.650916 256.081218 308.578715 255.514664 309.896856 254.377609 311.152228 253.301748 312.327178 251.329667 313.42759 248.455443 314.524079 245.581218 315.075266 243.038635 315.075266 240.825719 315.075266 239.309645 315.389109 237.400733 316.016795 235.093063 316.642519 232.78934 316.958324 230.718556 316.958324 228.888607 316.958324 226.92837 317.382012 224.79639 318.229388 222.490694 319.076764 220.184997 320.06537 218.49718 321.195205 217.42132 322.197541 216.473773 323.549027 216 325.24378 216 326.373614 216 327.173914 216.175691 327.644679 216.521151 328.115443 216.870558 328.884359 217.833897 329.951425 219.411168 331.08126 221.308235 332.03652 223.675127 332.821127 226.517766 333.607696 229.36238 334 231.952341 334 234.287648M359.675659 216.547744C360.113966 216.104332 361.536505 215.930135 363.949148 216.025152 366.357878 216.118189 367.753023 216.389383 368.128715 216.834774 368.439834 217.212862 368.676598 218.068014 368.833136 219.39627 368.989674 220.726506 369.034679 222.092373 368.97402 223.483974 368.911405 223.929366 368.739213 224.307454 368.457445 224.624176 368.175676 224.940899 367.876297 225.178441 367.565178 225.334823 367.250145 225.495164 366.719872 225.71687 365.968489 225.999941 365.217107 226.286971 364.590954 226.558165 364.090033 226.809564 362.835771 227.44301 359.769582 228.234817 354.885594 229.184985 353.883751 229.375019 353.10106 229.755086 352.537523 230.325187 351.97203 230.895288 351.846799 231.46341 352.161832 232.035491 352.472951 232.542247 353.946366 232.670916 356.576206 232.415558 358.892969 232.164159 360.364427 232.259176 360.990579 232.700609 361.614775 233.146 361.927851 234.284223 361.927851 236.121215 361.927851 237.261417 361.80262 238.102712 361.554116 238.639162 361.303655 239.17759 360.771426 239.7952 359.957428 240.49199 358.642508 241.570827 357.640664 242.107277 356.94994 242.107277 356.261173 242.107277 355.229978 242.552668 353.850486 243.437512L351.786141 244.672731 351.97203 249.611628C352.036602 252.400769 352.334024 254.063563 352.866253 254.601992 353.396526 255.140421 354.351408 254.712845 355.728943 253.319265 356.730787 252.305752 358.298124 251.070533 360.427042 249.611628 362.55596 248.158662 364.056768 247.271838 364.935338 246.951156 365.561491 246.763102 365.952836 246.747266 366.109374 246.905627 366.263955 247.063989 366.344181 247.459892 366.344181 248.093338 366.344181 249.170196 366.6553 249.962003 367.283409 250.468759 367.719759 250.787462 367.987831 251.387255 368.081753 252.274079 368.175676 253.160903 368.19133 254.744517 368.128715 257.022942L367.940869 262.725933 364.841415 265.576438C362.399422 267.795478 360.315509 269.268239 358.595547 269.994722 356.871671 270.723184 354.664484 271.055743 351.97203 270.992399 350.09553 270.931034 348.608418 270.786529 347.512652 270.562843 346.416885 270.343117 345.180234 269.883869 343.802699 269.187079 341.483979 267.983532 339.983171 266.84333 339.294403 265.764492 338.480405 264.562925 337.744676 262.82095 337.087216 260.540545 336.429756 258.260141 336.069719 256.233115 336.007104 254.459467 335.942532 252.747184 336.318223 249.043507 337.132221 243.340516 337.948176 237.641485 338.730866 233.175693 339.482249 229.94512 340.045786 227.411337 340.593669 225.576324 341.125898 224.434143 341.656171 223.29394 342.675625 221.805343 344.178391 219.97033 345.36808 218.57477 346.367967 217.735455 347.183922 217.450404 347.995963 217.165354 348.966499 217.339551 350.09553 217.972997 350.784297 218.353064 352.396639 218.353064 354.932556 217.972997 357.468473 217.59095 359.049507 217.115866 359.675659 216.547744M392.278268 213.181478C393.590084 212.925679 395.165434 212.939668 397.010176 213.227442 398.851013 213.517215 400.209679 213.980852 401.086175 214.620351 402.083702 215.38775 402.991432 216.602798 403.803508 218.263497 404.303248 219.414595 404.568734 220.279917 404.599968 220.855466 404.631202 221.429017 404.396949 222.518163 403.89721 224.116911 403.335003 226.035408 402.411656 227.841992 401.133026 229.536664 399.852444 231.229338 398.757312 232.076674 397.853486 232.076674 396.947708 232.076674 396.182482 231.519111 395.557808 230.39799 394.933134 229.282863 394.745731 228.113779 394.997553 226.896733 395.307938 225.427884 395.245471 224.75641 394.808199 224.882311 394.05859 225.012209 393.184046 226.355157 392.184567 228.911155 391.934697 229.6186 391.682875 230.352026 391.434958 231.119424 391.120668 232.526322 391.026967 233.455594 391.153854 233.899247 391.278789 234.348894 391.840996 235.116293 392.840475 236.203441 394.275274 237.73624 395.370406 238.505638 396.120015 238.505638 397.181961 238.505638 398.462543 238.985262 399.963714 239.94451 401.46098 240.90176 402.429225 241.863007 402.866497 242.822256 403.618058 244.357053 404.209547 246.819124 404.646819 250.20647 405.084091 253.599812 405.115324 255.963959 404.74052 257.306907 404.365715 258.841705 403.459938 260.664277 402.023187 262.772625 400.586436 264.882972 399.118451 266.547667 397.619233 267.762715 396.494819 268.719965 395.510957 269.297513 394.669599 269.489363 393.824337 269.679214 391.87223 269.841087 388.813278 269.968987 386.000291 270.030938 384.046232 270.000962 382.956956 269.871064 381.861824 269.745162 380.532439 269.329488 378.974658 268.626039 376.661411 267.536892 374.724921 266.291868 373.163235 264.882972 370.102331 262.071175 370.289733 259.449229 373.725442 257.019133 375.536997 255.740135 377.036216 255.180573 378.223097 255.340448 379.408026 255.500323 380.94043 256.411609 382.814453 258.072308 384.936393 260.056753 386.500031 261.045978 387.49951 261.045978 388.561456 261.045978 389.623402 260.312552 390.687301 258.841705 391.747295 257.368859 392.278268 255.931984 392.278268 254.523088 392.278268 252.47869 392.010829 251.037819 391.481808 250.20647 390.950835 249.37712 389.748337 248.481821 387.874314 247.522573 385.438085 246.243575 383.532828 245.028527 382.158545 243.87543 381.034131 242.854231 379.909717 241.205522 378.785304 238.937299 377.66089 236.667078 377.100635 234.828518 377.100635 233.419622 377.100635 231.822873 377.614039 229.648577 378.646704 226.896733 379.675464 224.148886 380.784261 221.974589 381.971142 220.375842 383.095556 218.841044 384.704092 217.338222 386.796751 215.867374 388.88941 214.394528 390.716582 213.501228 392.278268 213.181478M425.978462 217.202705C430.070429 216.507114 433.296787 215.987397 435.657537 215.637625 438.018287 215.28983 439.891149 215.084314 441.276122 215.021079 442.659128 214.957843 443.589657 215.036887 444.061807 215.258212 444.533957 215.481512 444.799541 215.845117 444.864462 216.349025 445.116275 217.42403 445.73007 218.167047 446.705847 218.576102 447.681623 218.989109 449.460055 219.194625 452.041142 219.194625 454.874041 219.194625 456.620996 219.431758 457.282006 219.904049 457.943016 220.378315 458.147615 221.565958 457.895801 223.463025 457.706941 225.04589 457.140361 226.22958 456.196061 227.020025 455.251761 227.810469 453.424148 228.743193 450.719122 229.818198 447.949175 230.893202 443.196198 232.06306 436.460192 233.327771 433.690245 233.833655 431.990505 234.497629 431.360972 235.319691 430.731439 236.141753 430.416672 238.163315 430.416672 241.390304 430.416672 244.490822 430.164859 249.895486 429.661232 257.608247 429.155638 265.326937 428.905792 269.500483 428.905792 270.128886 428.905792 271.142631 428.779885 271.774987 428.528072 272.027929 428.276259 272.280871 427.78837 272.518005 427.064407 272.739329 426.340444 272.96263 425.632219 273.419111 424.939732 274.114702 424.373152 274.622563 423.948217 274.903171 423.664927 274.968382 423.381637 275.031618 423.14753 275 422.956702 274.873529 422.767842 274.745082 422.356678 274.464474 421.729112 274.019849 421.099579 273.5772 420.373648 273.166169 419.557222 272.786756 418.549969 272.407342 417.824038 271.680133 417.385332 270.603153 416.944659 269.530125 416.724322 267.949236 416.724322 265.862463 416.724322 263.775689 416.785308 261.64149 416.913182 259.459863 417.039089 257.27626 417.227949 254.195503 417.479762 250.211663 417.731576 246.227824 417.888959 242.498902 417.951912 239.018971 418.012898 235.855217 417.983389 233.9127 417.857482 233.185491 417.731576 232.460258 417.322379 231.812094 416.629892 231.240998 415.937406 230.671878 414.977368 230.245038 413.749778 229.960478 412.522188 229.675918 411.450014 229.454593 410.539158 229.296504 409.624367 229.140392 408.805974 228.681934 408.083978 227.921131 407.360014 227.162305 407 226.055682 407 224.601265 407 222.95714 407.422968 221.803092 408.272838 221.139118 409.122708 220.475145 410.932616 219.890216 413.702563 219.384332L425.978462 217.202705zM210.606726 116.479421C209.96 116.125316 209.36118 116.13712 208.810265 116.514831 208.568741 116.703687 208.415044 117.146317 208.343186 117.842722 208.271327 118.539128 208.343186 118.922741 208.558761 118.993562 208.748387 119.064383 209.22944 118.85192 209.995929 118.356174 211.217522 117.553537 211.421121 116.927953 210.606726 116.479421M209.744425 125.934008C210.055811 125.414655 209.780354 125.084157 208.918053 124.942516 208.103658 124.800874 207.56472 124.848088 207.301239 125.084157 207.109617 125.320227 206.989853 125.821875 206.941947 126.589101 206.894041 127.356327 206.953923 127.763547 207.121593 127.810761 207.26531 127.857975 207.684484 127.633709 208.379115 127.137963 209.07175 126.642217 209.52885 126.240898 209.744425 125.934008M206.187434 112.194757C206.714395 112.10033 207.061711 112.041312 207.229381 112.017705 207.39705 111.994098 207.516814 111.994098 207.588673 112.017705 207.658535 112.041312 207.714425 112.082624 207.750354 112.141642 207.786283 112.200659 207.971917 112.265578 208.307257 112.336399 208.642596 112.40722 209.109676 112.466237 209.708496 112.513451 210.930088 112.584272 211.780413 112.773128 212.259469 113.080018 212.714572 113.339695 213.227561 113.870852 213.804425 114.673488 214.379292 115.476125 214.714631 116.125316 214.808446 116.621062 214.954159 117.234843 214.892281 117.884035 214.630796 118.568636 214.367316 119.253238 213.960118 119.843412 213.409204 120.339158L212.403186 121.25983 213.013982 121.649345C214.283481 122.499195 214.942183 123.384456 214.990088 124.305128 215.037994 125.627117 214.912242 126.612708 214.612832 127.261899 214.311426 127.911091 213.540944 128.82586 212.295398 130.006208 211.289381 130.997701 210.498938 131.664597 209.924071 132.006898 209.349204 132.349199 208.403068 132.709205 207.085664 133.086917 206.19941 133.346593 205.06764 133.582663 203.690354 133.795125 202.313068 134.007588 201.564543 134.054802 201.444779 133.936767 201.396873 133.889553 201.480708 133.759715 201.696283 133.547252 201.911858 133.33479 202.167355 133.128229 202.468761 132.92757 202.768171 132.72691 202.977758 132.626581 203.097522 132.626581 203.263196 132.626581 203.450826 132.567563 203.654425 132.449529 203.858024 132.331494 204.025693 132.207557 204.157434 132.077719 204.289174 131.947881 204.329095 131.847551 204.283186 131.77673 204.211327 131.705909 203.708319 131.759025 202.774159 131.936077 201.84 132.113129 201.289086 132.130835 201.121416 131.989193 200.953746 131.800337 200.959735 130.915076 201.139381 129.33341 201.319027 127.751744 201.612448 126.004829 202.019646 124.092665 203.313097 117.931249 204.139469 114.413812 204.496765 113.540354 204.786195 112.855752 205.167443 112.44263 205.648496 112.300989 205.742311 112.277382 205.921957 112.241971 206.187434 112.194757M217.830642 116.59352C218.221869 116.015827 218.624602 115.85985 219.04076 116.125589 219.455 116.391328 219.938281 117.10189 220.490601 118.257276 220.764843 118.834969 220.925937 119.3029 220.973881 119.66107 221.01799 120.019239 221.006483 120.752909 220.937443 121.86208 220.84539 123.040574 220.701557 124.184406 220.507861 125.293576 220.31033 126.402746 220.143483 127.604348 220.007321 128.89838 219.798283 130.770105 219.579656 131.937045 219.35144 132.399199 219.188429 132.722707 219.027336 132.907569 218.866242 132.953785 218.705149 133 218.258306 133.011554 217.521879 132.988446 216.392307 132.919123 215.692318 132.751592 215.41424 132.485853 215.139998 132.220115 215 131.555768 215 130.492813 215 129.337427 215.080547 128.228256 215.24164 127.165301 215.79396 123.62982 216.236967 121.168848 216.572579 119.782385 216.906272 118.395922 217.324348 117.332967 217.830642 116.59352M229.509725 112.066524C229.972715 111.972282 230.529405 111.978172 231.179796 112.084194 231.830187 112.190216 232.307876 112.36103 232.618373 112.596634 232.971127 112.87936 233.290811 113.327009 233.577424 113.939581 233.753801 114.363669 233.847502 114.681736 233.858525 114.89378 233.869549 115.105824 233.786872 115.506352 233.610495 116.095364 233.41207 116.802178 233.086875 117.467761 232.634908 118.092114 232.182942 118.716466 231.797117 119.028642 231.477433 119.028642 231.155912 119.028642 230.887672 118.822488 230.6672 118.41018 230.446729 117.997872 230.380587 117.567893 230.468776 117.120244 230.579011 116.578353 230.556964 116.330968 230.402634 116.378089 230.138068 116.42521 229.829408 116.91998 229.476654 117.862399 229.388465 118.121564 229.300277 118.392509 229.212088 118.675235 229.101852 119.193565 229.068782 119.535192 229.112876 119.700115 229.15697 119.865039 229.355395 120.147764 229.708149 120.548292 230.215233 121.113744 230.601059 121.396469 230.865624 121.396469 231.240426 121.396469 231.692393 121.573173 232.221524 121.92658 232.750656 122.279987 233.092387 122.633394 233.246717 122.986801 233.511282 123.552252 233.72073 124.45933 233.87506 125.708035 234.029391 126.95674 234.040414 127.828477 233.909968 128.323247 233.775848 128.888698 233.456165 129.560172 232.94908 130.337667 232.441996 131.115163 231.923888 131.727735 231.394756 132.175384 230.999745 132.528791 230.650665 132.740835 230.353028 132.811516 230.055392 132.882198 229.366418 132.941099 228.286108 132.98822 227.293986 133.01178 226.605013 133 226.219187 132.952879 225.833362 132.905758 225.36486 132.752615 224.813682 132.49345 223.997937 132.092922 223.314475 131.633493 222.763297 131.115163 221.682986 130.078502 221.749128 129.112523 222.963558 128.217225 223.601088 127.746016 224.13022 127.539861 224.549116 127.598763 224.968012 127.657664 225.508167 127.9934 226.169581 128.605973 226.919184 129.336347 227.470363 129.701534 227.823118 129.701534 228.197919 129.701534 228.572721 129.430589 228.947522 128.888698 229.322324 128.346807 229.509725 127.816697 229.509725 127.298367 229.509725 126.544432 229.416024 126.014321 229.228623 125.708035 229.041223 125.401749 228.616815 125.071902 227.955401 124.718495 227.097399 124.247286 226.423124 123.799637 225.938086 123.375549 225.541238 122.998581 225.144389 122.391899 224.74754 121.555502 224.350691 120.719106 224.152267 120.041742 224.152267 119.523412 224.152267 118.9344 224.334156 118.133344 224.697934 117.120244 225.061712 116.107144 225.453049 115.306088 225.873782 114.717076 226.268793 114.151625 226.836508 113.597954 227.575087 113.056063 228.313667 112.514173 228.958546 112.184326 229.509725 112.066524M241.724638 111.997566C242.062802 111.332522 242.34058 111 242.557971 111 242.72504 111 243.01087 111.255329 243.40942 111.765988 243.805958 112.276647 244.091787 112.769492 244.26087 113.244523 244.357488 113.482039 244.514493 114.384598 244.729871 115.952202 244.852657 116.736004 245.009662 117.151656 245.202899 117.199159 245.371981 117.222911 245.587359 117.032898 245.855072 116.629121 246.070451 116.2966 247.050725 115.50686 248.789855 114.259903 250.528986 113.012945 251.589775 112.448846 251.978261 112.567603 252.290258 112.66261 252.823671 112.74574 253.572464 112.816995 254.07971 112.88825 254.609098 113.102014 255.166667 113.458287 255.720209 113.814561 256 114.123331 256 114.384598 256 114.527108 255.810789 114.835878 255.436393 115.310909 255.061997 115.785941 254.816425 116.023457 254.693639 116.023457 254.599034 116.023457 254.339372 116.201593 253.916667 116.557867 253.493961 116.91414 252.835749 117.424799 251.940016 118.089843 251.048309 118.754887 250.080113 119.360552 249.043478 119.906838 247.956522 120.500627 247.280193 120.904404 247.014493 121.118168 246.746779 121.331932 246.591787 121.605075 246.543478 121.937597 246.519324 122.222616 246.553543 122.454193 246.650161 122.63233 246.746779 122.810467 246.857488 122.923287 246.976248 122.97079 247.099034 123.018293 247.213768 123.089548 247.320451 123.184554 247.431159 123.27956 247.483494 123.410194 247.483494 123.576455 247.483494 123.695213 247.527778 123.784281 247.612319 123.84366 247.69686 123.903039 247.865942 124.051486 248.119565 124.289002 248.373188 124.526518 248.654992 124.882791 248.971014 125.357823 249.478261 126.141624 249.838567 126.533525 250.057971 126.533525 250.176731 126.533525 250.305556 126.610718 250.436393 126.765103 250.571256 126.919488 250.782609 127.180755 251.072464 127.548905 251.360306 127.917054 251.662238 128.255514 251.978261 128.564284 252.485507 129.086819 252.797504 129.680608 252.92029 130.345652 252.992754 130.796931 252.992754 131.129453 252.92029 131.343218 252.845813 131.556982 252.630435 131.865752 252.266103 132.269529 251.758857 132.910821 251.25161 133.231467 250.744364 133.231467 250.430354 133.231467 250.170692 133.27897 249.967391 133.373977 249.760064 133.468983 249.623188 133.5343 249.550725 133.569927 249.478261 133.605554 249.343398 133.558051 249.150161 133.427418 248.958937 133.296784 248.644928 133.005827 248.210145 132.554547 247.386876 131.723243 246.83132 131.08195 246.543478 130.630671 246.181159 130.060633 245.587359 129.235266 244.768116 128.15457 243.94686 127.073873 243.473833 126.497898 243.355072 126.426643 242.966586 126.189127 242.688808 127.020432 242.521739 128.920558 242.374799 130.179391 242.187601 131.052261 241.958132 131.539168 241.728663 132.026075 241.384461 132.269529 240.927536 132.269529 240.589372 132.269529 240.273349 132.388286 239.985507 132.625802 239.693639 132.863318 239.478261 133.100834 239.333333 133.338349 239.186393 133.575865 239.011272 133.765877 238.807971 133.908387 238.600644 134.050896 238.413446 134.027145 238.244364 133.837132 238.002818 133.623368 237.570048 133.385852 236.942029 133.124585L236 132.732684 236.108696 130.986944C236.205314 129.728111 236.368357 128.677104 236.597826 127.833923 236.825282 126.990743 237.078905 126.272258 237.358696 125.678469 237.636473 125.08468 237.811594 124.574021 237.884058 124.146493 237.932367 123.908977 238.196055 123.059858 238.679147 121.599137 239.164251 120.138416 239.442029 119.3368 239.51248 119.194291 239.635266 118.909272 239.717794 118.244228 239.766103 117.199159 239.816425 116.15409 240.057971 115.204027 240.492754 114.348971L241.724638 111.997566z"/>
  </g>
</svg>
