<svg xmlns="http://www.w3.org/2000/svg" width="278" height="1029"><defs><linearGradient id="a" x1="53.342%" x2="53.342%" y1="140.386%" y2="7.618%"><stop offset="0%" stop-color="#F341C3"/><stop offset="100%" stop-color="#FC4748"/></linearGradient><linearGradient id="b" x1="58.831%" x2="58.831%" y1="100%" y2="-161.966%"><stop offset="0%" stop-color="#F341C3"/><stop offset="100%" stop-color="#FC4748"/></linearGradient><linearGradient id="c" x1="53.794%" x2="53.794%" y1="198.562%" y2="-198.168%"><stop offset="0%" stop-color="#F341C3"/><stop offset="100%" stop-color="#FC4748"/></linearGradient><linearGradient id="d" x1="50%" x2="50%" y1="100%" y2="0%"><stop offset="0%" stop-color="#F341C3"/><stop offset="100%" stop-color="#FC4748"/></linearGradient></defs><g fill="none" fill-rule="evenodd"><path fill="#D7D7DE" fill-rule="nonzero" d="M54 902v-2h12v2H54zm20 0v-2h12v2H74zm20 0v-2h12v2H94zm20 0v-2h12v2h-12zm20 0v-2h12v2h-12zm20 0v-2h12v2h-12zm20 0v-2h12v2h-12zm20 0v-2h12v2h-12zm20 0v-2h12v2h-12zm20 0v-2h12v2h-12zm20 0v-2h12v2h-12zm20 0v-2h3v2h-3z"/><path fill="url(#a)" fill-rule="nonzero" d="M69.985 88.067a2 2 0 0 1-3.97-.497c1.362-10.876 6.906-18.488 16.492-22.59 4.57-1.956 9.076-11.699 15.793-31.985-.144.437 3.18-9.682 4.084-12.358 1.525-4.513 2.775-7.966 3.968-10.886C109.559 1.903 112.238-2 115.794-2c4.05 0 6.161 5.163 8.896 17.3.985 4.37 4.856 23.995 5.865 28.662 5.322 24.639 10.935 38.571 18.566 42.035 6.037 2.74 10.306 3.8 13.414 3.595 2.203-.145 3.49-.744 5.938-2.465 3.38-2.376 5.312-3.218 8.498-3.218 3.371 0 5.771-1.414 9.876-5.198l.925-.855c.368-.34.656-.604.938-.857 3.461-3.11 6.004-4.544 9.29-4.544 2.75 0 4.865 2.075 6.896 5.819 1.356 2.499 2.349 4.927 4.535 10.75C213.23 99.14 215.324 103 217.118 103c2.637 0 3.9-1.134 6.258-4.944 2.455-3.97 3.83-5.522 6.639-6.45 8.33-2.78 12.664-4.635 20.486-9.322 5.728-3.431 9.291-11.14 10.509-23.301a2 2 0 0 1 3.98.398c-1.331 13.294-5.415 22.13-12.433 26.335-8.108 4.858-12.696 6.821-21.572 9.77-1.309.442-2.24 1.492-4.051 4.421-3.185 5.149-5.351 7.093-9.816 7.093-2.75 0-4.866-2.076-6.896-5.82-1.356-2.498-2.349-4.927-4.536-10.75-3.798-10.115-5.892-13.975-7.686-13.975-2.029 0-3.83 1.016-6.616 3.52-.266.238-.543.491-.9.82l-.926.857c-4.792 4.418-7.914 6.257-12.587 6.257-2.18 0-3.432.546-5.86 2.253-6.5 4.57-11.67 4.912-23.644-.523-9.344-4.241-15.186-18.742-20.822-44.833-1.02-4.72-4.887-24.32-5.857-28.626-1.133-5.026-2.138-8.613-3.139-11.06-.895-2.19-1.663-3.12-1.855-3.12-.38 0-1.145.6-2.12 2.021-1.103 1.607-2.3 4.015-3.62 7.243-1.155 2.829-2.38 6.212-3.88 10.654a2869.854 2869.854 0 0 0-4.077 12.334c-7.275 21.974-11.793 31.742-18.016 34.405-8.257 3.533-12.909 9.921-14.096 19.41z" transform="translate(0 836)"/><path fill="#2C2C36" d="M.588 864.946c0-2.898 1.008-5.194 3.682-5.194s3.682 2.296 3.682 5.194-1.008 5.194-3.682 5.194-3.682-2.296-3.682-5.194zm1.82 0c0 2.758.756 3.682 1.862 3.682s1.862-.924 1.862-3.682-.756-3.682-1.862-3.682-1.862.924-1.862 3.682zm9.74 5.054h-1.932v-1.988h1.932V870zm3.412-3.724h3.15v-4.508h-.028l-3.122 4.508zm-1.4 1.4v-1.778l4.312-6.006h1.974v6.384h1.428v1.4h-1.428V870H18.71v-2.324h-4.55zm11.714-7.784a2.518 2.518 0 0 1 2.52 2.52 2.518 2.518 0 0 1-2.52 2.52 2.518 2.518 0 0 1-2.52-2.52 2.518 2.518 0 0 1 2.52-2.52zm0 1.372c-.63 0-1.148.546-1.148 1.148 0 .602.518 1.148 1.148 1.148.63 0 1.148-.546 1.148-1.148 0-.602-.518-1.148-1.148-1.148zm6.454 3.696a2.518 2.518 0 0 1 2.52 2.52 2.518 2.518 0 0 1-2.52 2.52 2.518 2.518 0 0 1-2.52-2.52 2.518 2.518 0 0 1 2.52-2.52zm0 1.372c-.63 0-1.148.546-1.148 1.148 0 .602.518 1.148 1.148 1.148.63 0 1.148-.546 1.148-1.148 0-.602-.518-1.148-1.148-1.148zm-6.692 3.808l5.81-10.388h1.19l-5.81 10.388h-1.19zm-12.048 132.806c0-2.898 1.008-5.194 3.682-5.194s3.682 2.296 3.682 5.194-1.008 5.194-3.682 5.194-3.682-2.296-3.682-5.194zm1.82 0c0 2.758.756 3.682 1.862 3.682s1.862-.924 1.862-3.682-.756-3.682-1.862-3.682-1.862.924-1.862 3.682zm9.642-5.054a2.518 2.518 0 0 1 2.52 2.52 2.518 2.518 0 0 1-2.52 2.52 2.518 2.518 0 0 1-2.52-2.52 2.518 2.518 0 0 1 2.52-2.52zm0 1.372c-.63 0-1.148.546-1.148 1.148 0 .602.518 1.148 1.148 1.148.63 0 1.148-.546 1.148-1.148 0-.602-.518-1.148-1.148-1.148zm6.454 3.696a2.518 2.518 0 0 1 2.52 2.52 2.518 2.518 0 0 1-2.52 2.52 2.518 2.518 0 0 1-2.52-2.52 2.518 2.518 0 0 1 2.52-2.52zm0 1.372c-.63 0-1.148.546-1.148 1.148 0 .602.518 1.148 1.148 1.148.63 0 1.148-.546 1.148-1.148 0-.602-.518-1.148-1.148-1.148zm-6.692 3.808l5.81-10.388h1.19l-5.81 10.388h-1.19zm40.428 13.212l-.864.192c-.216-.84-.9-1.512-2.016-1.512-1.008 0-1.608.48-1.62 1.344-.024 1.896 4.872 1.416 4.872 4.2 0 1.26-.708 2.544-2.916 2.544-1.896 0-2.64-1.224-3.096-2.256l.876-.312c.348.912.996 1.752 2.268 1.752 1.272 0 1.908-.672 1.908-1.56 0-2.208-4.872-1.56-4.872-4.296 0-1.248 1.044-2.232 2.604-2.232 1.344 0 2.4.708 2.856 2.136zm6.284 3.528c0-1.608-.66-2.496-1.692-2.496s-1.692.888-1.692 2.496.66 2.496 1.692 2.496 1.692-.888 1.692-2.496zm.864 0c0 1.8-.852 3.24-2.556 3.24-1.704 0-2.556-1.44-2.556-3.24 0-1.8.852-3.24 2.556-3.24 1.704 0 2.556 1.44 2.556 3.24zm6.26-1.548l-.804.288c-.24-.756-.732-1.236-1.476-1.236-1.068 0-1.692.912-1.692 2.496s.624 2.496 1.692 2.496c.792 0 1.236-.264 1.716-1.152l.696.312c-.624 1.056-1.176 1.584-2.412 1.584-1.56 0-2.556-1.224-2.556-3.24s.996-3.24 2.556-3.24c1.284 0 1.884.72 2.28 1.692zm2.42 4.668v-6.24h.864v6.24h-.864zm0-8.784h.864v1.032h-.864v-1.032zm4.04 4.14l-.756-.396c.396-.72 1.164-1.32 2.34-1.32 1.056 0 2.16.504 2.16 1.872v3.144c0 .684.06 1.02.144 1.344h-.888l-.096-.864c-.432.48-1.128.984-2.064.984-.96 0-1.776-.576-1.776-1.716 0-1.368 1.044-2.052 3.816-2.544v-.336c0-.828-.54-1.14-1.284-1.14-.96 0-1.428.552-1.596.972zm2.88 2.988v-1.716c-1.98.348-2.952.924-2.952 1.788 0 .576.552.96 1.032.96.624 0 1.416-.456 1.92-1.032zm3.416-7.008h.864V1028h-.864v-8.664zm13 2.016l-.864.192c-.216-.84-.9-1.512-2.016-1.512-1.008 0-1.608.48-1.62 1.344-.024 1.896 4.872 1.416 4.872 4.2 0 1.26-.708 2.544-2.916 2.544-1.896 0-2.64-1.224-3.096-2.256l.876-.312c.348.912.996 1.752 2.268 1.752 1.272 0 1.908-.672 1.908-1.56 0-2.208-4.872-1.56-4.872-4.296 0-1.248 1.044-2.232 2.604-2.232 1.344 0 2.4.708 2.856 2.136zm2.66-2.016h.864v3.264h.024c.492-.552 1.14-.96 1.848-.96.924 0 1.8.48 1.8 1.824V1028h-.864v-4.512c0-.828-.396-1.104-1.02-1.104-.648 0-1.392.528-1.788.948V1028h-.864v-8.664zm7.544 4.02l-.756-.396c.396-.72 1.164-1.32 2.34-1.32 1.056 0 2.16.504 2.16 1.872v3.144c0 .684.06 1.02.144 1.344h-.888l-.096-.864c-.432.48-1.128.984-2.064.984-.96 0-1.776-.576-1.776-1.716 0-1.368 1.044-2.052 3.816-2.544v-.336c0-.828-.54-1.14-1.284-1.14-.96 0-1.428.552-1.596.972zm2.88 2.988v-1.716c-1.98.348-2.952.924-2.952 1.788 0 .576.552.96 1.032.96.624 0 1.416-.456 1.92-1.032zm3.02 1.656v-6.24h.864v1.236h.024c.48-.852.996-1.332 2.028-1.332v.864c-1.08.024-1.644.732-2.052 2.016V1028h-.864zm8.576-1.68l.672.348c-.408.708-.984 1.452-2.4 1.452-1.392 0-2.712-.96-2.712-3.24 0-2.016 1.008-3.24 2.544-3.24 1.296 0 2.376.84 2.376 2.832v.576h-4.056c0 1.368.816 2.328 1.848 2.328.768 0 1.368-.408 1.728-1.056zm-3.552-2.016h3.168c0-1.152-.552-1.92-1.488-1.92-1.044 0-1.608.768-1.68 1.92zm5.42 2.628l.684-.516c.408.588 1.008.96 1.788.96.936 0 1.344-.504 1.344-1.032 0-1.584-3.696-.744-3.624-3.024.036-1.08.864-1.692 2.064-1.68.816.012 1.716.456 2.136 1.092l-.6.528c-.48-.588-.936-.876-1.608-.876-.732 0-1.128.372-1.128.924 0 1.356 3.624.66 3.624 2.988 0 1.212-1.056 1.824-2.184 1.824-.972 0-1.92-.42-2.496-1.188zm13.204-1.68h-3.024v-.744h3.024v.744zm10.852 2.748h-3.84v-.744h1.5v-7.044l-1.668.168v-.564c.6-.18 1.284-.36 1.668-.6h.864v8.04h1.476v.744zm8.552-.744v.744h-5.628v-.912c1.5-3.036 4.728-3.216 4.728-5.544 0-1.008-.648-1.584-1.752-1.584-1.248 0-1.896 1.008-2.04 1.884l-.852-.192c.276-1.2.984-2.436 2.916-2.436 1.416 0 2.64.816 2.64 2.304 0 2.64-3.792 3.36-4.728 5.736h4.716zm14.272.744h-.864v-7.92h-.036l-2.424 7.92h-.744l-2.436-7.92h-.036v7.92h-.864v-8.664h1.488l2.208 7.008h.024l2.172-7.008h1.512V1028zm6.488-3.12c0-1.608-.66-2.496-1.692-2.496s-1.692.888-1.692 2.496.66 2.496 1.692 2.496 1.692-.888 1.692-2.496zm.864 0c0 1.8-.852 3.24-2.556 3.24-1.704 0-2.556-1.44-2.556-3.24 0-1.8.852-3.24 2.556-3.24 1.704 0 2.556 1.44 2.556 3.24zm2.012-3.12h.864v.84h.024c.492-.552 1.14-.96 1.848-.96.924 0 1.8.48 1.8 1.824V1028h-.864v-4.512c0-.828-.396-1.104-1.02-1.104-.648 0-1.392.528-1.788.948V1028h-.864v-6.24zm6.32 0h1.02v-2.052h.864v2.052h1.44v.744h-1.44v4.44c0 .288.204.432.708.432.288 0 .54-.024.768-.06v.708c-.156.048-.504.096-1.008.096-.936 0-1.332-.24-1.332-1.032v-4.584h-1.02v-.744zm5.348-2.424h.864v3.264h.024c.492-.552 1.14-.96 1.848-.96.924 0 1.8.48 1.8 1.824V1028h-.864v-4.512c0-.828-.396-1.104-1.02-1.104-.648 0-1.392.528-1.788.948V1028h-.864v-8.664zm6.392 7.596l.684-.516c.408.588 1.008.96 1.788.96.936 0 1.344-.504 1.344-1.032 0-1.584-3.696-.744-3.624-3.024.036-1.08.864-1.692 2.064-1.68.816.012 1.716.456 2.136 1.092l-.6.528c-.48-.588-.936-.876-1.608-.876-.732 0-1.128.372-1.128.924 0 1.356 3.624.66 3.624 2.988 0 1.212-1.056 1.824-2.184 1.824-.972 0-1.92-.42-2.496-1.188z"/><path fill="#48484F" d="M54.472 855.356c.37.025.66.334.66.711v145.735h221.482c.392 0 .71.319.71.713a.712.712 0 0 1-.71.713H43.548a.712.712 0 0 1-.71-.713c0-.394.318-.713.71-.713h10.164V856.655H42.71a.712.712 0 0 1-.71-.714c0-.394.318-.713.71-.713h11.357c.15 0 .29.047.405.128z"/><path fill="#D7D7DE" fill-rule="nonzero" d="M50 676v-2h12v2H50zm20 0v-2h12v2H70zm20 0v-2h12v2H90zm20 0v-2h12v2h-12zm20 0v-2h12v2h-12zm20 0v-2h12v2h-12zm20 0v-2h12v2h-12zm20 0v-2h12v2h-12zm20 0v-2h12v2h-12zm20 0v-2h12v2h-12zm20 0v-2h12v2h-12zm20 0v-2h3v2h-3z"/><path fill="url(#b)" fill-rule="nonzero" d="M60.246 101.664a2 2 0 1 1 3.508-1.921c7.178 13.104 15.936 19.5 26.371 19.5 6.49 0 12.187-3.624 20.142-11.54.942-.936 4.031-4.08 4.398-4.448 1.7-1.708 2.98-2.93 4.209-3.99 3.274-2.82 5.991-4.273 8.757-4.265 4.97.014 8.893 3.058 13.769 9.418.77 1.004 1.547 2.063 2.607 3.54.297.412 1.387 1.935 1.308 1.825.528.737.928 1.292 1.322 1.834 2.62 3.6 4.626 6.072 6.773 8.208 8.43 8.383 24.774 16.202 32.333 16.175 1.744-.006 3.944-1.006 6.764-3.013 1.133-.806 2.27-1.695 3.932-3.05 7.178-5.856 8.78-6.95 11.802-6.964 3.318-.016 5.163 1.814 9.133 7.336 3.062 4.26 4.503 5.69 5.876 5.69 1.647 0 2.892-.758 7.457-4.25 4.652-3.56 7.545-5.073 11.293-5.073 4.099 0 8.586-3.905 13.266-12.05a2 2 0 0 1 3.468 1.992c-5.32 9.26-10.833 14.058-16.734 14.058-2.58 0-4.883 1.205-8.863 4.25-5.49 4.2-6.924 5.074-9.887 5.074-3.31 0-5.149-1.827-9.117-7.346-3.06-4.257-4.503-5.688-5.874-5.682-1.587.008-3.31 1.185-9.292 6.064-1.724 1.407-2.92 2.341-4.14 3.21-3.438 2.446-6.293 3.744-9.07 3.754-8.713.03-26.034-8.255-35.167-17.34-2.33-2.316-4.454-4.933-7.187-8.69a301.51 301.51 0 0 1-1.34-1.858l-1.304-1.821a134.931 134.931 0 0 0-2.534-3.44c-4.176-5.448-7.262-7.842-10.606-7.851-1.556-.004-3.527 1.049-6.134 3.296-1.135.978-2.351 2.138-3.985 3.78-.351.354-3.45 3.507-4.412 4.463-8.658 8.615-15.086 12.704-22.963 12.704-12.065 0-22.057-7.297-29.88-21.579z" transform="translate(0 555)"/><path fill="#2C2C36" d="M1.232 568.268l.378-5.376h5.46v1.568H2.982l-.14 2.296c.322-.336.798-.588 1.89-.588 1.82 0 3.024 1.708 3.024 3.36 0 2.212-1.288 3.612-3.724 3.612-1.596 0-2.716-.756-3.276-1.89l1.512-.784c.308.714 1.106 1.134 1.792 1.148 1.288.042 1.876-.826 1.876-2.086 0-1.036-.658-1.848-1.722-1.848-.714 0-1.246.364-1.526.868l-1.456-.28zm8.41-.322c0-2.898 1.008-5.194 3.682-5.194s3.682 2.296 3.682 5.194-1.008 5.194-3.682 5.194-3.682-2.296-3.682-5.194zm1.82 0c0 2.758.756 3.682 1.862 3.682s1.862-.924 1.862-3.682-.756-3.682-1.862-3.682-1.862.924-1.862 3.682zm9.642-5.054a2.518 2.518 0 0 1 2.52 2.52 2.518 2.518 0 0 1-2.52 2.52 2.518 2.518 0 0 1-2.52-2.52 2.518 2.518 0 0 1 2.52-2.52zm0 1.372c-.63 0-1.148.546-1.148 1.148 0 .602.518 1.148 1.148 1.148.63 0 1.148-.546 1.148-1.148 0-.602-.518-1.148-1.148-1.148zm6.454 3.696a2.518 2.518 0 0 1 2.52 2.52 2.518 2.518 0 0 1-2.52 2.52 2.518 2.518 0 0 1-2.52-2.52 2.518 2.518 0 0 1 2.52-2.52zm0 1.372c-.63 0-1.148.546-1.148 1.148 0 .602.518 1.148 1.148 1.148.63 0 1.148-.546 1.148-1.148 0-.602-.518-1.148-1.148-1.148zm-6.692 3.808l5.81-10.388h1.19l-5.81 10.388h-1.19zM8.588 712.946c0-2.898 1.008-5.194 3.682-5.194s3.682 2.296 3.682 5.194-1.008 5.194-3.682 5.194-3.682-2.296-3.682-5.194zm1.82 0c0 2.758.756 3.682 1.862 3.682s1.862-.924 1.862-3.682-.756-3.682-1.862-3.682-1.862.924-1.862 3.682zm9.642-5.054a2.518 2.518 0 0 1 2.52 2.52 2.518 2.518 0 0 1-2.52 2.52 2.518 2.518 0 0 1-2.52-2.52 2.518 2.518 0 0 1 2.52-2.52zm0 1.372c-.63 0-1.148.546-1.148 1.148 0 .602.518 1.148 1.148 1.148.63 0 1.148-.546 1.148-1.148 0-.602-.518-1.148-1.148-1.148zm6.454 3.696a2.518 2.518 0 0 1 2.52 2.52 2.518 2.518 0 0 1-2.52 2.52 2.518 2.518 0 0 1-2.52-2.52 2.518 2.518 0 0 1 2.52-2.52zm0 1.372c-.63 0-1.148.546-1.148 1.148 0 .602.518 1.148 1.148 1.148.63 0 1.148-.546 1.148-1.148 0-.602-.518-1.148-1.148-1.148zm-6.692 3.808l5.81-10.388h1.19l-5.81 10.388h-1.19zm34.596 18.276l.696-.48c.66.888 1.476 1.44 2.376 1.44 1.272 0 2.04-.648 2.04-1.68 0-1.212-.72-1.944-2.448-1.944h-.852v-.744h.516c1.728 0 2.472-.552 2.472-1.62 0-.876-.756-1.428-1.584-1.428-1.056 0-1.512.456-2.088 1.2l-.708-.48c.588-.816 1.404-1.464 2.796-1.464 1.536 0 2.496.792 2.496 2.16 0 1.044-.672 1.656-1.344 1.92 1.368.528 1.656 1.512 1.656 2.304 0 1.476-1.14 2.52-2.952 2.52a3.591 3.591 0 0 1-3.072-1.704zm10.652-1.908v-2.748h.744v2.748h2.748v.744h-2.748V738h-.744v-2.748h-2.748v-.744h2.748zm10.792-4.356v3.168h1.632c1.596 0 2.124-.552 2.124-1.584s-.612-1.584-1.908-1.584h-1.848zm0 7.848h-.96v-8.664h3.024c1.848 0 2.652 1.056 2.652 2.424 0 1.44-.996 2.376-3.18 2.376h-1.536V738zm7.112-4.644l-.756-.396c.396-.72 1.164-1.32 2.34-1.32 1.056 0 2.16.504 2.16 1.872v3.144c0 .684.06 1.02.144 1.344h-.888l-.096-.864c-.432.48-1.128.984-2.064.984-.96 0-1.776-.576-1.776-1.716 0-1.368 1.044-2.052 3.816-2.544v-.336c0-.828-.54-1.14-1.284-1.14-.96 0-1.428.552-1.596.972zm2.88 2.988v-1.716c-1.98.348-2.952.924-2.952 1.788 0 .576.552.96 1.032.96.624 0 1.416-.456 1.92-1.032zm7.94-4.824v.864c-.36 0-.744.06-.96.168.18.216.432.696.432 1.272 0 1.236-1.02 2.184-2.28 2.184-.504 0-.768-.072-1.104-.168-.336.096-.492.3-.492.576 0 .288.204.456.516.456 2.952 0 3.9.528 3.9 1.752 0 .912-.9 1.68-2.844 1.68-1.752 0-2.688-.48-2.688-1.512 0-.624.384-.924 1.056-1.272-.48-.144-.78-.516-.78-.888 0-.54.36-.768.84-1.068-.588-.444-.852-1.056-.852-1.74 0-1.32 1.032-2.184 2.364-2.184.672 0 1.14.144 1.548.432.372-.264.876-.504 1.344-.552zm-.804 7.14c-.012-.612-.636-.924-2.16-.924-1.356 0-1.74.6-1.74 1.044 0 .468.288.78 2.016.78 1.032 0 1.872-.288 1.884-.9zm-.54-4.788c0-.912-.528-1.488-1.584-1.488-.984 0-1.512.624-1.512 1.44 0 .828.648 1.44 1.608 1.44.984 0 1.488-.648 1.488-1.392zm7.004 2.448l.672.348c-.408.708-.984 1.452-2.4 1.452-1.392 0-2.712-.96-2.712-3.24 0-2.016 1.008-3.24 2.544-3.24 1.296 0 2.376.84 2.376 2.832v.576h-4.056c0 1.368.816 2.328 1.848 2.328.768 0 1.368-.408 1.728-1.056zm-3.552-2.016h3.168c0-1.152-.552-1.92-1.488-1.92-1.044 0-1.608.768-1.68 1.92zM108.076 738l-2.676-8.664h.96l2.136 7.104h.024l2.148-7.104h.972L108.952 738h-.876zm5.516 0v-6.24h.864V738h-.864zm0-8.784h.864v1.032h-.864v-1.032zm7.52 7.104l.672.348c-.408.708-.984 1.452-2.4 1.452-1.392 0-2.712-.96-2.712-3.24 0-2.016 1.008-3.24 2.544-3.24 1.296 0 2.376.84 2.376 2.832v.576h-4.056c0 1.368.816 2.328 1.848 2.328.768 0 1.368-.408 1.728-1.056zm-3.552-2.016h3.168c0-1.152-.552-1.92-1.488-1.92-1.044 0-1.608.768-1.68 1.92zm7.016 3.696l-1.692-6.24h.876l1.26 4.8h.024l1.224-4.8h.876l1.248 4.824h.024l1.212-4.824h.876l-1.668 6.24h-.876l-1.248-4.824h-.024L125.452 738h-.876zm6.908-1.068l.684-.516c.408.588 1.008.96 1.788.96.936 0 1.344-.504 1.344-1.032 0-1.584-3.696-.744-3.624-3.024.036-1.08.864-1.692 2.064-1.68.816.012 1.716.456 2.136 1.092l-.6.528c-.48-.588-.936-.876-1.608-.876-.732 0-1.128.372-1.128.924 0 1.356 3.624.66 3.624 2.988 0 1.212-1.056 1.824-2.184 1.824-.972 0-1.92-.42-2.496-1.188zm13.204-1.68h-3.024v-.744h3.024v.744zM155.54 738h-3.84v-.744h1.5v-7.044l-1.668.168v-.564c.6-.18 1.284-.36 1.668-.6h.864v8.04h1.476V738zm8.552-.744V738h-5.628v-.912c1.5-3.036 4.728-3.216 4.728-5.544 0-1.008-.648-1.584-1.752-1.584-1.248 0-1.896 1.008-2.04 1.884l-.852-.192c.276-1.2.984-2.436 2.916-2.436 1.416 0 2.64.816 2.64 2.304 0 2.64-3.792 3.36-4.728 5.736h4.716zm14.272.744h-.864v-7.92h-.036L175.04 738h-.744l-2.436-7.92h-.036V738h-.864v-8.664h1.488l2.208 7.008h.024l2.172-7.008h1.512V738zm6.488-3.12c0-1.608-.66-2.496-1.692-2.496s-1.692.888-1.692 2.496.66 2.496 1.692 2.496 1.692-.888 1.692-2.496zm.864 0c0 1.8-.852 3.24-2.556 3.24-1.704 0-2.556-1.44-2.556-3.24 0-1.8.852-3.24 2.556-3.24 1.704 0 2.556 1.44 2.556 3.24zm2.012-3.12h.864v.84h.024c.492-.552 1.14-.96 1.848-.96.924 0 1.8.48 1.8 1.824V738h-.864v-4.512c0-.828-.396-1.104-1.02-1.104-.648 0-1.392.528-1.788.948V738h-.864v-6.24zm6.32 0h1.02v-2.052h.864v2.052h1.44v.744h-1.44v4.44c0 .288.204.432.708.432.288 0 .54-.024.768-.06v.708c-.156.048-.504.096-1.008.096-.936 0-1.332-.24-1.332-1.032v-4.584h-1.02v-.744zm5.348-2.424h.864v3.264h.024c.492-.552 1.14-.96 1.848-.96.924 0 1.8.48 1.8 1.824V738h-.864v-4.512c0-.828-.396-1.104-1.02-1.104-.648 0-1.392.528-1.788.948V738h-.864v-8.664zm6.392 7.596l.684-.516c.408.588 1.008.96 1.788.96.936 0 1.344-.504 1.344-1.032 0-1.584-3.696-.744-3.624-3.024.036-1.08.864-1.692 2.064-1.68.816.012 1.716.456 2.136 1.092l-.6.528c-.48-.588-.936-.876-1.608-.876-.732 0-1.128.372-1.128.924 0 1.356 3.624.66 3.624 2.988 0 1.212-1.056 1.824-2.184 1.824-.972 0-1.92-.42-2.496-1.188z"/><path fill="#48484F" d="M49.472 566.127c.37.026.66.335.66.712v145.734h221.482c.392 0 .71.32.71.714a.712.712 0 0 1-.71.713H38.548a.712.712 0 0 1-.71-.713c0-.394.318-.714.71-.714h10.164V567.427H37.71a.712.712 0 0 1-.71-.714c0-.394.318-.713.71-.713h11.357c.15 0 .29.047.405.127z"/><g><path fill="#D7D7DE" fill-rule="nonzero" d="M42 383h-1v-2h12v2H42zm20 0h-1v-2h12v2H62zm20 0h-1v-2h12v2H82zm20 0h-1v-2h12v2h-11zm20 0h-1v-2h12v2h-11zm20 0h-1v-2h12v2h-11zm20 0h-1v-2h12v2h-11zm20 0h-1v-2h12v2h-11zm20 0h-1v-2h12v2h-11zm20 0h-1v-2h12v2h-11zm20 0h-1v-2h12v2h-11zm19 0v-2h3v2h-3z"/><path fill="url(#c)" fill-rule="nonzero" d="M53.991 119.298a2 2 0 1 1-1.982-3.474c15.766-8.995 26.25-13.48 31.882-13.48 3.728 0 5.89.965 9.818 3.653 3.313 2.268 4.851 2.955 7.558 2.955 2.515 0 4.093-1.069 6.78-4.1.036-.041.661-.75.847-.957 2.79-3.129 4.763-4.49 7.819-4.49 3.766 0 5.793 1.628 8.262 5.399.015.022.771 1.19.991 1.52 1.2 1.799 2.156 2.871 3.413 3.68 2.033 1.31 4.541 2.178 7.77 2.802 1.582.306 2.134.385 5.881.88a76.6 76.6 0 0 1 2.98.435c1.528.261 2.082.48 5.642 2.047 5.481 2.413 8.405 2.625 12.117-.199 1.64-1.247 3.192-2.703 4.906-4.544-.498.535 5.423-6.153 6.99-7.544 2.22-1.97 4.328-3.006 6.691-3.006 2.463 0 4.312.718 6.788 2.292.3.19 1.372.89 1.298.841 2.783 1.802 4.558 2.492 7.36 2.492 2.562 0 4.361-1.079 8.344-4.528 4.705-4.074 7.09-5.503 10.963-5.503 3.931 0 6.451 1.533 9.87 5.001-.056-.057.993 1.014 1.272 1.291 1.84 1.834 2.968 2.52 4.303 2.52 3.14 0 7.905-3.171 13.988-9.65a2 2 0 1 1 2.916 2.738c-6.788 7.229-12.32 10.911-16.904 10.911-2.68 0-4.598-1.167-7.126-3.684-.3-.298-1.37-1.392-1.296-1.317-2.735-2.774-4.438-3.81-7.023-3.81-2.562 0-4.361 1.078-8.344 4.527-4.705 4.075-7.09 5.504-10.963 5.504-3.714 0-6.163-.951-9.534-3.134.056.036-.992-.647-1.27-.823-1.893-1.204-3.089-1.668-4.642-1.668-1.223 0-2.48.618-4.035 1.998-1.356 1.203-7.046 7.63-6.719 7.278-1.857 1.995-3.567 3.6-5.411 5.002-5.162 3.926-9.477 3.614-16.15.676-3.143-1.383-3.657-1.586-4.705-1.765a73.234 73.234 0 0 0-2.829-.413c-3.846-.507-4.422-.59-6.118-.918-3.686-.713-6.647-1.738-9.174-3.365-1.813-1.166-3.099-2.61-4.577-4.826-.237-.355-1.007-1.544-1.01-1.547-1.803-2.754-2.843-3.59-4.915-3.59-1.57 0-2.748.813-4.834 3.152l-.839.948c-3.382 3.817-5.79 5.447-9.773 5.447-3.728 0-5.89-.965-9.818-3.654-3.312-2.268-4.85-2.955-7.558-2.955-4.665 0-14.775 4.326-29.9 12.955z" transform="translate(0 274)"/><path fill="#2C2C36" d="M7.588 292H.784v-1.666c.308-1.582 4.984-3.822 4.984-5.67 0-.882-.574-1.4-1.498-1.4-1.008 0-1.596.672-1.82 1.596l-1.624-.35c.21-1.554 1.666-2.758 3.472-2.758 1.778 0 3.29 1.022 3.29 2.912 0 2.464-2.268 3.472-4.788 5.768h4.788V292zm4.56 0h-1.932v-1.988h1.932V292zm2.264-5.054c0-2.898 1.008-5.194 3.682-5.194s3.682 2.296 3.682 5.194-1.008 5.194-3.682 5.194-3.682-2.296-3.682-5.194zm1.82 0c0 2.758.756 3.682 1.862 3.682s1.862-.924 1.862-3.682-.756-3.682-1.862-3.682-1.862.924-1.862 3.682zM6.986 437H2.044v-1.4h1.568v-6.972H1.82v-1.176c.924-.042 1.736-.252 2.198-.7h1.414v8.848h1.554v1.4zm5.162 0h-1.932v-1.988h1.932V437zm2.264-5.054c0-2.898 1.008-5.194 3.682-5.194s3.682 2.296 3.682 5.194-1.008 5.194-3.682 5.194-3.682-2.296-3.682-5.194zm1.82 0c0 2.758.756 3.682 1.862 3.682s1.862-.924 1.862-3.682-.756-3.682-1.862-3.682-1.862.924-1.862 3.682zm36.008 18.406l-.864.192c-.216-.84-.9-1.512-2.016-1.512-1.008 0-1.608.48-1.62 1.344-.024 1.896 4.872 1.416 4.872 4.2 0 1.26-.708 2.544-2.916 2.544-1.896 0-2.64-1.224-3.096-2.256l.876-.312c.348.912.996 1.752 2.268 1.752 1.272 0 1.908-.672 1.908-1.56 0-2.208-4.872-1.56-4.872-4.296 0-1.248 1.044-2.232 2.604-2.232 1.344 0 2.4.708 2.856 2.136zm6.512 4.968l.672.348c-.408.708-.984 1.452-2.4 1.452-1.392 0-2.712-.96-2.712-3.24 0-2.016 1.008-3.24 2.544-3.24 1.296 0 2.376.84 2.376 2.832v.576h-4.056c0 1.368.816 2.328 1.848 2.328.768 0 1.368-.408 1.728-1.056zm-3.552-2.016h3.168c0-1.152-.552-1.92-1.488-1.92-1.044 0-1.608.768-1.68 1.92zm5.42 2.628l.684-.516c.408.588 1.008.96 1.788.96.936 0 1.344-.504 1.344-1.032 0-1.584-3.696-.744-3.624-3.024.036-1.08.864-1.692 2.064-1.68.816.012 1.716.456 2.136 1.092l-.6.528c-.48-.588-.936-.876-1.608-.876-.732 0-1.128.372-1.128.924 0 1.356 3.624.66 3.624 2.988 0 1.212-1.056 1.824-2.184 1.824-.972 0-1.92-.42-2.496-1.188zm5.828 0l.684-.516c.408.588 1.008.96 1.788.96.936 0 1.344-.504 1.344-1.032 0-1.584-3.696-.744-3.624-3.024.036-1.08.864-1.692 2.064-1.68.816.012 1.716.456 2.136 1.092l-.6.528c-.48-.588-.936-.876-1.608-.876-.732 0-1.128.372-1.128.924 0 1.356 3.624.66 3.624 2.988 0 1.212-1.056 1.824-2.184 1.824-.972 0-1.92-.42-2.496-1.188zM73.224 457v-6.24h.864V457h-.864zm0-8.784h.864v1.032h-.864v-1.032zm7.292 5.664c0-1.608-.66-2.496-1.692-2.496s-1.692.888-1.692 2.496.66 2.496 1.692 2.496 1.692-.888 1.692-2.496zm.864 0c0 1.8-.852 3.24-2.556 3.24-1.704 0-2.556-1.44-2.556-3.24 0-1.8.852-3.24 2.556-3.24 1.704 0 2.556 1.44 2.556 3.24zm2.012-3.12h.864v.84h.024c.492-.552 1.14-.96 1.848-.96.924 0 1.8.48 1.8 1.824V457h-.864v-4.512c0-.828-.396-1.104-1.02-1.104-.648 0-1.392.528-1.788.948V457h-.864v-6.24zm6.392 5.172l.684-.516c.408.588 1.008.96 1.788.96.936 0 1.344-.504 1.344-1.032 0-1.584-3.696-.744-3.624-3.024.036-1.08.864-1.692 2.064-1.68.816.012 1.716.456 2.136 1.092l-.6.528c-.48-.588-.936-.876-1.608-.876-.732 0-1.128.372-1.128.924 0 1.356 3.624.66 3.624 2.988 0 1.212-1.056 1.824-2.184 1.824-.972 0-1.92-.42-2.496-1.188zm11.62 3.372h-.864v-8.544h.864v.732h.024c.324-.468 1.02-.852 1.62-.852 1.104 0 2.556.744 2.556 3.24 0 2.424-1.452 3.24-2.508 3.24-.588 0-1.164-.3-1.644-.696l-.048-.024v2.904zm0-7.08v3.288c.468.516 1.056.864 1.572.864 1.008 0 1.764-.66 1.764-2.544 0-1.584-.684-2.448-1.764-2.448-.552 0-.96.24-1.572.84zm10.172 3.096l.672.348c-.408.708-.984 1.452-2.4 1.452-1.392 0-2.712-.96-2.712-3.24 0-2.016 1.008-3.24 2.544-3.24 1.296 0 2.376.84 2.376 2.832v.576H108c0 1.368.816 2.328 1.848 2.328.768 0 1.368-.408 1.728-1.056zm-3.552-2.016h3.168c0-1.152-.552-1.92-1.488-1.92-1.044 0-1.608.768-1.68 1.92zm5.972 3.696v-6.24h.864v1.236h.024c.48-.852.996-1.332 2.028-1.332v.864c-1.08.024-1.644.732-2.052 2.016V457h-.864zm9.112-8.664h.96v6.12c0 1.008.72 1.848 2.076 1.848s2.076-.84 2.076-1.848v-6.12h.96v6.048c0 1.728-1.248 2.736-3.036 2.736s-3.036-1.008-3.036-2.736v-6.048zm8.156 7.596l.684-.516c.408.588 1.008.96 1.788.96.936 0 1.344-.504 1.344-1.032 0-1.584-3.696-.744-3.624-3.024.036-1.08.864-1.692 2.064-1.68.816.012 1.716.456 2.136 1.092l-.6.528c-.48-.588-.936-.876-1.608-.876-.732 0-1.128.372-1.128.924 0 1.356 3.624.66 3.624 2.988 0 1.212-1.056 1.824-2.184 1.824-.972 0-1.92-.42-2.496-1.188zm10.46-.612l.672.348c-.408.708-.984 1.452-2.4 1.452-1.392 0-2.712-.96-2.712-3.24 0-2.016 1.008-3.24 2.544-3.24 1.296 0 2.376.84 2.376 2.832v.576h-4.056c0 1.368.816 2.328 1.848 2.328.768 0 1.368-.408 1.728-1.056zm-3.552-2.016h3.168c0-1.152-.552-1.92-1.488-1.92-1.044 0-1.608.768-1.68 1.92zm5.972 3.696v-6.24h.864v1.236h.024c.48-.852.996-1.332 2.028-1.332v.864c-1.08.024-1.644.732-2.052 2.016V457h-.864zm11.32-2.748h-3.024v-.744h3.024v.744zM166.316 457h-3.84v-.744h1.5v-7.044l-1.668.168v-.564c.6-.18 1.284-.36 1.668-.6h.864v8.04h1.476V457zm8.552-.744V457h-5.628v-.912c1.5-3.036 4.728-3.216 4.728-5.544 0-1.008-.648-1.584-1.752-1.584-1.248 0-1.896 1.008-2.04 1.884l-.852-.192c.276-1.2.984-2.436 2.916-2.436 1.416 0 2.64.816 2.64 2.304 0 2.64-3.792 3.36-4.728 5.736h4.716zm14.272.744h-.864v-7.92h-.036l-2.424 7.92h-.744l-2.436-7.92h-.036V457h-.864v-8.664h1.488l2.208 7.008h.024l2.172-7.008h1.512V457zm6.488-3.12c0-1.608-.66-2.496-1.692-2.496s-1.692.888-1.692 2.496.66 2.496 1.692 2.496 1.692-.888 1.692-2.496zm.864 0c0 1.8-.852 3.24-2.556 3.24-1.704 0-2.556-1.44-2.556-3.24 0-1.8.852-3.24 2.556-3.24 1.704 0 2.556 1.44 2.556 3.24zm2.012-3.12h.864v.84h.024c.492-.552 1.14-.96 1.848-.96.924 0 1.8.48 1.8 1.824V457h-.864v-4.512c0-.828-.396-1.104-1.02-1.104-.648 0-1.392.528-1.788.948V457h-.864v-6.24zm6.32 0h1.02v-2.052h.864v2.052h1.44v.744h-1.44v4.44c0 .288.204.432.708.432.288 0 .54-.024.768-.06v.708c-.156.048-.504.096-1.008.096-.936 0-1.332-.24-1.332-1.032v-4.584h-1.02v-.744zm5.348-2.424h.864v3.264h.024c.492-.552 1.14-.96 1.848-.96.924 0 1.8.48 1.8 1.824V457h-.864v-4.512c0-.828-.396-1.104-1.02-1.104-.648 0-1.392.528-1.788.948V457h-.864v-8.664zm6.392 7.596l.684-.516c.408.588 1.008.96 1.788.96.936 0 1.344-.504 1.344-1.032 0-1.584-3.696-.744-3.624-3.024.036-1.08.864-1.692 2.064-1.68.816.012 1.716.456 2.136 1.092l-.6.528c-.48-.588-.936-.876-1.608-.876-.732 0-1.128.372-1.128.924 0 1.356 3.624.66 3.624 2.988 0 1.212-1.056 1.824-2.184 1.824-.972 0-1.92-.42-2.496-1.188z"/><path fill="#48484F" d="M41.472 285.127c.37.026.66.335.66.712v145.734h221.482c.392 0 .71.32.71.714a.712.712 0 0 1-.71.713H30.548a.712.712 0 0 1-.71-.713c0-.394.318-.714.71-.714h10.164V286.427H29.71a.712.712 0 0 1-.71-.714c0-.394.318-.713.71-.713h11.357c.15 0 .29.047.405.127z"/></g><path fill="#2C2C36" d="M2.716 6.394V4.882c1.484 0 2.716-.21 2.716-1.414 0-.728-.616-1.204-1.456-1.204-.854 0-1.428.476-1.932 1.008L.84 2.18C1.82 1.144 2.884.752 3.92.752c1.848 0 3.332.896 3.332 2.604 0 1.008-.56 1.764-1.526 2.184 1.204.378 1.862 1.302 1.862 2.562 0 2.114-1.792 3.038-3.584 3.038-1.428 0-2.87-.672-3.57-1.96l1.456-.826c.49.826 1.162 1.274 2.128 1.274.896 0 1.75-.546 1.75-1.526 0-1.652-1.834-1.708-3.052-1.708zM11.868 11h-1.68V.892h2.716l1.946 7.056h.028l1.96-7.056h2.744V11h-1.68V3.048h-.028L15.606 11h-1.47l-2.24-7.952h-.028V11zM.588 151.946c0-2.898 1.008-5.194 3.682-5.194s3.682 2.296 3.682 5.194-1.008 5.194-3.682 5.194-3.682-2.296-3.682-5.194zm1.82 0c0 2.758.756 3.682 1.862 3.682s1.862-.924 1.862-3.682-.756-3.682-1.862-3.682-1.862.924-1.862 3.682zm9.46 5.054h-1.68v-10.108h2.716l1.946 7.056h.028l1.96-7.056h2.744V157h-1.68v-7.952h-.028L15.606 157h-1.47l-2.24-7.952h-.028V157zm30.428 10.336h.96v6.12c0 1.008.72 1.848 2.076 1.848s2.076-.84 2.076-1.848v-6.12h.96v6.048c0 1.728-1.248 2.736-3.036 2.736s-3.036-1.008-3.036-2.736v-6.048zm8.936 2.424h.864v.84h.024c.492-.552 1.14-.96 1.848-.96.924 0 1.8.48 1.8 1.824V176h-.864v-4.512c0-.828-.396-1.104-1.02-1.104-.648 0-1.392.528-1.788.948V176h-.864v-6.24zm7.34 6.24v-6.24h.864V176h-.864zm0-8.784h.864v1.032h-.864v-1.032zm8.216 11.088h-.864V175.4l-.048.024c-.48.396-1.056.696-1.644.696-1.056 0-2.508-.816-2.508-3.24 0-2.496 1.452-3.24 2.556-3.24.744 0 1.296.312 1.656.78l.156-.66h.696v8.544zm-.864-3.792v-3.288c-.612-.6-1.02-.84-1.572-.84-1.08 0-1.764.864-1.764 2.448 0 1.884.756 2.544 1.764 2.544.516 0 1.104-.348 1.572-.864zM73.948 176h-.864v-.84h-.024c-.492.552-1.14.96-1.848.96-.924 0-1.8-.48-1.8-1.824v-4.536h.864v4.512c0 .828.396 1.104 1.02 1.104.648 0 1.392-.528 1.788-.948v-4.668h.864V176zm6.488-1.68l.672.348c-.408.708-.984 1.452-2.4 1.452-1.392 0-2.712-.96-2.712-3.24 0-2.016 1.008-3.24 2.544-3.24 1.296 0 2.376.84 2.376 2.832v.576H76.86c0 1.368.816 2.328 1.848 2.328.768 0 1.368-.408 1.728-1.056zm-3.552-2.016h3.168c0-1.152-.552-1.92-1.488-1.92-1.044 0-1.608.768-1.68 1.92zM89.068 176l-2.676-8.664h.96l2.136 7.104h.024l2.148-7.104h.972L89.944 176h-.876zm5.516 0v-6.24h.864V176h-.864zm0-8.784h.864v1.032h-.864v-1.032zm2.888 7.716l.684-.516c.408.588 1.008.96 1.788.96.936 0 1.344-.504 1.344-1.032 0-1.584-3.696-.744-3.624-3.024.036-1.08.864-1.692 2.064-1.68.816.012 1.716.456 2.136 1.092l-.6.528c-.48-.588-.936-.876-1.608-.876-.732 0-1.128.372-1.128.924 0 1.356 3.624.66 3.624 2.988 0 1.212-1.056 1.824-2.184 1.824-.972 0-1.92-.42-2.496-1.188zm6.776 1.068v-6.24h.864V176h-.864zm0-8.784h.864v1.032h-.864v-1.032zm2.816 2.544h1.02v-2.052h.864v2.052h1.44v.744h-1.44v4.44c0 .288.204.432.708.432.288 0 .54-.024.768-.06v.708c-.156.048-.504.096-1.008.096-.936 0-1.332-.24-1.332-1.032v-4.584h-1.02v-.744zm8.972 3.12c0-1.608-.66-2.496-1.692-2.496s-1.692.888-1.692 2.496.66 2.496 1.692 2.496 1.692-.888 1.692-2.496zm.864 0c0 1.8-.852 3.24-2.556 3.24-1.704 0-2.556-1.44-2.556-3.24 0-1.8.852-3.24 2.556-3.24 1.704 0 2.556 1.44 2.556 3.24zm1.784 3.12v-6.24h.864v1.236h.024c.48-.852.996-1.332 2.028-1.332v.864c-1.08.024-1.644.732-2.052 2.016V176h-.864zm3.944-1.068l.684-.516c.408.588 1.008.96 1.788.96.936 0 1.344-.504 1.344-1.032 0-1.584-3.696-.744-3.624-3.024.036-1.08.864-1.692 2.064-1.68.816.012 1.716.456 2.136 1.092l-.6.528c-.48-.588-.936-.876-1.608-.876-.732 0-1.128.372-1.128.924 0 1.356 3.624.66 3.624 2.988 0 1.212-1.056 1.824-2.184 1.824-.972 0-1.92-.42-2.496-1.188zm13.204-1.68h-3.024v-.744h3.024v.744zM146.684 176h-3.84v-.744h1.5v-7.044l-1.668.168v-.564c.6-.18 1.284-.36 1.668-.6h.864v8.04h1.476V176zm8.552-.744V176h-5.628v-.912c1.5-3.036 4.728-3.216 4.728-5.544 0-1.008-.648-1.584-1.752-1.584-1.248 0-1.896 1.008-2.04 1.884l-.852-.192c.276-1.2.984-2.436 2.916-2.436 1.416 0 2.64.816 2.64 2.304 0 2.64-3.792 3.36-4.728 5.736h4.716zm14.272.744h-.864v-7.92h-.036l-2.424 7.92h-.744l-2.436-7.92h-.036V176h-.864v-8.664h1.488l2.208 7.008h.024l2.172-7.008h1.512V176zm6.488-3.12c0-1.608-.66-2.496-1.692-2.496s-1.692.888-1.692 2.496.66 2.496 1.692 2.496 1.692-.888 1.692-2.496zm.864 0c0 1.8-.852 3.24-2.556 3.24-1.704 0-2.556-1.44-2.556-3.24 0-1.8.852-3.24 2.556-3.24 1.704 0 2.556 1.44 2.556 3.24zm2.012-3.12h.864v.84h.024c.492-.552 1.14-.96 1.848-.96.924 0 1.8.48 1.8 1.824V176h-.864v-4.512c0-.828-.396-1.104-1.02-1.104-.648 0-1.392.528-1.788.948V176h-.864v-6.24zm6.32 0h1.02v-2.052h.864v2.052h1.44v.744h-1.44v4.44c0 .288.204.432.708.432.288 0 .54-.024.768-.06v.708c-.156.048-.504.096-1.008.096-.936 0-1.332-.24-1.332-1.032v-4.584h-1.02v-.744zm5.348-2.424h.864v3.264h.024c.492-.552 1.14-.96 1.848-.96.924 0 1.8.48 1.8 1.824V176h-.864v-4.512c0-.828-.396-1.104-1.02-1.104-.648 0-1.392.528-1.788.948V176h-.864v-8.664zm6.392 7.596l.684-.516c.408.588 1.008.96 1.788.96.936 0 1.344-.504 1.344-1.032 0-1.584-3.696-.744-3.624-3.024.036-1.08.864-1.692 2.064-1.68.816.012 1.716.456 2.136 1.092l-.6.528c-.48-.588-.936-.876-1.608-.876-.732 0-1.128.372-1.128.924 0 1.356 3.624.66 3.624 2.988 0 1.212-1.056 1.824-2.184 1.824-.972 0-1.92-.42-2.496-1.188z"/><path fill="url(#d)" fill-rule="nonzero" d="M54.017 145.722a2 2 0 0 1-2.034-3.444c5.982-3.533 10.848-5.329 14.701-5.329 2.75 0 4.65.962 7.063 2.997.168.142.712.608.74.63.268.23.468.395.657.543.812.64 1.327.881 1.803.881.31 0 .738-.307 1.397-1.259 1.055-1.523 6.054-12.456 7.083-14.482 1.18-2.322 2.44-4.156 4.57-6.857.224-.284 1.184-1.492 1.436-1.813a79.68 79.68 0 0 0 1.424-1.853c4.906-6.607 7.75-13.957 9.475-27.545 2.612-20.571 4.83-35.617 7.506-48.964C113.838 19.285 117.623 9 123.132 9c3.242 0 5.49 2.51 7.226 6.9 1.21 3.056 2.112 6.692 3.317 12.741.156.782.683 3.465.773 3.919 1.502 7.579 2.558 11.175 3.77 12.369 5.405 5.32 13.368 7.382 21.922 4.576 1.491-.49 2.828-1.16 4.22-2.06.677-.44 3.124-2.21 3.711-2.569 1.644-1.007 3.082-1.324 4.611-.622 2.407 1.106 4.145 4.576 7.08 13.244 1.789 5.279 3.199 11.581 4.587 19.825.384 2.28.75 4.598 1.222 7.703.13.846.573 3.78.565 3.73.222 1.461.388 2.548.55 3.587 1.021 6.53 1.806 10.549 2.716 13.504.499 1.623 1.013 2.808 1.52 3.537.205.294.388.484.534.581 2.388.048 3.868-.73 6.263-2.825-.066.058.884-.779 1.152-1.008 2.265-1.946 3.993-2.854 6.366-2.854 5.477 0 9.165 1.65 16.582 7.126 1.696 1.252 3.092 2.646 4.463 4.357.405.505.798 1.025 1.262 1.66.211.29.96 1.33 1.124 1.555 2.548 3.497 4.256 4.856 7.745 5.543 6.65 1.309 11.102 7.568 13.538 18.357a2 2 0 0 1-3.902.88c-2.125-9.413-5.656-14.377-10.409-15.313-4.655-.916-7.12-2.877-10.205-7.112-.173-.237-.92-1.275-1.122-1.551-.431-.591-.79-1.066-1.153-1.518-1.167-1.458-2.322-2.611-3.716-3.64-6.793-5.015-9.764-6.344-14.207-6.344-1.186 0-2.155.51-3.76 1.888-.245.21-1.173 1.028-1.124.985-3.057 2.674-5.319 3.862-8.8 3.862-2.858 0-4.588-2.486-5.974-6.989-.984-3.196-1.795-7.349-2.844-14.063-.164-1.047-.331-2.139-.554-3.607l-.564-3.726c-.47-3.086-.833-5.385-1.213-7.641-1.355-8.051-2.725-14.17-4.43-19.206-1.36-4.014-2.42-6.74-3.315-8.527-.75-1.499-1.324-2.217-1.646-2.365-.05-.023-.229.016-.853.398-.424.26-2.816 1.99-3.627 2.515-1.662 1.075-3.3 1.898-5.146 2.503-10.011 3.285-19.527.82-25.974-5.525-2.08-2.047-3.163-5.737-4.889-14.443-.09-.458-.617-3.14-.772-3.914-2.26-11.34-4.27-16.423-6.62-16.423-.817 0-2.48 2.355-4.19 7.003-1.745 4.74-3.475 11.498-5.182 20.01-2.652 13.227-4.859 28.2-7.46 48.682-1.81 14.252-4.905 22.252-10.231 29.426a83.489 83.489 0 0 1-1.494 1.944c-.26.33-1.22 1.538-1.438 1.814-1.98 2.511-3.109 4.154-4.143 6.191-.872 1.715-6.069 13.083-7.362 14.949-1.33 1.921-2.805 2.981-4.685 2.981-1.557 0-2.826-.595-4.278-1.738-.235-.185-.47-.38-.774-.638-.037-.031-.572-.49-.727-.62-1.758-1.483-2.887-2.055-4.484-2.055-2.988 0-7.246 1.572-12.667 4.773z" transform="translate(0 -5)"/><path fill="#48484F" d="M41.472 4.127c.37.026.66.335.66.712v145.734h221.482c.392 0 .71.32.71.714a.712.712 0 0 1-.71.713H30.548a.712.712 0 0 1-.71-.713c0-.394.318-.714.71-.714h10.164V5.427H29.71a.712.712 0 0 1-.71-.714c0-.394.318-.713.71-.713h11.357c.15 0 .29.047.405.127z"/></g></svg>