<svg xmlns="http://www.w3.org/2000/svg" width="427" height="690" viewBox="0 0 427 690">
  <g fill="none" fill-rule="evenodd">
    <rect width="427" height="258" y="216" fill="#ED0644"/>
    <rect width="427" height="72" fill="#F8BED1"/>
    <path fill="#2C2C36" d="M174.285,35.24 L173.885,38.28 L176.585,38.28 L177.005,35.24 L174.285,35.24 Z M173.725,39.4 L173.105,44 L171.865,44 L172.485,39.4 L170.505,39.4 L170.505,38.28 L172.645,38.28 L173.045,35.24 L171.065,35.24 L171.065,34.12 L173.205,34.12 L173.825,29.56 L175.065,29.56 L174.445,34.12 L177.165,34.12 L177.765,29.56 L179.005,29.56 L178.405,34.12 L180.285,34.12 L180.285,35.24 L178.245,35.24 L177.825,38.28 L179.725,38.28 L179.725,39.4 L177.665,39.4 L177.045,44 L175.805,44 L176.425,39.4 L173.725,39.4 Z M183.755,29.56 L192.315,29.56 L192.315,30.92 L185.355,30.92 L185.355,35.76 L190.515,35.76 L190.515,37.12 L185.355,37.12 L185.355,44 L183.755,44 L183.755,29.56 Z M204.485,40.24 C204.485,42.44 202.765,44.2 199.225,44.2 C195.685,44.2 193.965,42.44 193.965,40.24 C193.965,38.4 195.405,37.12 197.125,36.32 L197.125,36.28 C195.525,35.68 194.565,34.46 194.565,32.96 C194.565,30.6 196.565,29.36 199.225,29.36 C201.885,29.36 203.885,30.6 203.885,32.96 C203.885,34.46 202.925,35.68 201.325,36.28 L201.325,36.32 C203.045,36.94 204.485,38.28 204.485,40.24 Z M195.485,40.24 C195.485,41.52 196.605,42.96 199.225,42.96 C201.845,42.96 202.965,41.52 202.965,40.24 C202.965,38.56 201.245,37.72 198.965,36.96 C197.205,37.72 195.485,38.56 195.485,40.24 Z M202.365,32.88 C202.365,31.28 200.805,30.6 199.225,30.6 C197.645,30.6 196.085,31.28 196.085,32.88 C196.085,34.44 198.045,35.32 199.225,35.66 C200.825,35.26 202.365,34.28 202.365,32.88 Z M207.755,44 L207.755,29.56 L213.075,29.56 C215.595,29.56 217.115,31.16 217.115,33.12 C217.115,34.7 216.415,35.84 214.675,36.44 L214.695,36.48 C216.315,36.88 217.475,38.32 217.475,40.12 C217.475,42.28 216.155,44 212.235,44 L207.755,44 Z M209.355,37.12 L209.355,42.64 L212.355,42.64 C214.715,42.64 215.875,41.84 215.875,40.04 C215.875,38.2 214.395,37.12 212.115,37.12 L209.355,37.12 Z M209.355,30.92 L209.355,35.76 L212.155,35.76 C214.575,35.76 215.515,34.52 215.515,33.3 C215.515,31.68 214.635,30.92 212.795,30.92 L209.355,30.92 Z M221.345,29.56 L230.005,29.56 L230.005,30.92 L222.945,30.92 L222.945,35.76 L227.965,35.76 L227.965,37.12 L222.945,37.12 L222.945,42.64 L230.405,42.64 L230.405,44 L221.345,44 L221.345,29.56 Z M235.255,30.92 L235.255,42.64 L237.415,42.64 C240.735,42.64 242.455,40.66 242.455,36.78 C242.455,32.56 240.455,30.92 237.495,30.92 L235.255,30.92 Z M233.655,44 L233.655,29.56 L237.535,29.56 C241.455,29.56 244.055,32.04 244.055,36.78 C244.055,41.02 241.775,44 237.455,44 L233.655,44 Z M254.745,44 L248.345,44 L248.345,42.76 L250.845,42.76 L250.845,31.02 L248.065,31.3 L248.065,30.36 C249.065,30.06 250.205,29.76 250.845,29.36 L252.285,29.36 L252.285,42.76 L254.745,42.76 L254.745,44 Z"/>
    <rect width="427" height="72" y="72" fill="#F280A1"/>
    <path fill="#FAFAFF" d="M175.405,107.24 L175.005,110.28 L177.705,110.28 L178.125,107.24 L175.405,107.24 Z M174.845,111.4 L174.225,116 L172.985,116 L173.605,111.4 L171.625,111.4 L171.625,110.28 L173.765,110.28 L174.165,107.24 L172.185,107.24 L172.185,106.12 L174.325,106.12 L174.945,101.56 L176.185,101.56 L175.565,106.12 L178.285,106.12 L178.885,101.56 L180.125,101.56 L179.525,106.12 L181.405,106.12 L181.405,107.24 L179.365,107.24 L178.945,110.28 L180.845,110.28 L180.845,111.4 L178.785,111.4 L178.165,116 L176.925,116 L177.545,111.4 L174.845,111.4 Z M184.875,101.56 L193.435,101.56 L193.435,102.92 L186.475,102.92 L186.475,107.76 L191.635,107.76 L191.635,109.12 L186.475,109.12 L186.475,116 L184.875,116 L184.875,101.56 Z M204.945,114.76 L204.945,116 L195.565,116 L195.565,114.48 C198.065,109.42 203.445,109.12 203.445,105.24 C203.445,103.56 202.365,102.6 200.525,102.6 C198.445,102.6 197.365,104.28 197.125,105.74 L195.705,105.42 C196.165,103.42 197.345,101.36 200.565,101.36 C202.925,101.36 204.965,102.72 204.965,105.2 C204.965,109.6 198.645,110.8 197.085,114.76 L204.945,114.76 Z M218.075,112.24 C218.075,114.44 216.355,116.2 212.815,116.2 C209.275,116.2 207.555,114.44 207.555,112.24 C207.555,110.4 208.995,109.12 210.715,108.32 L210.715,108.28 C209.115,107.68 208.155,106.46 208.155,104.96 C208.155,102.6 210.155,101.36 212.815,101.36 C215.475,101.36 217.475,102.6 217.475,104.96 C217.475,106.46 216.515,107.68 214.915,108.28 L214.915,108.32 C216.635,108.94 218.075,110.28 218.075,112.24 Z M209.075,112.24 C209.075,113.52 210.195,114.96 212.815,114.96 C215.435,114.96 216.555,113.52 216.555,112.24 C216.555,110.56 214.835,109.72 212.555,108.96 C210.795,109.72 209.075,110.56 209.075,112.24 Z M215.955,104.88 C215.955,103.28 214.395,102.6 212.815,102.6 C211.235,102.6 209.675,103.28 209.675,104.88 C209.675,106.44 211.635,107.32 212.815,107.66 C214.415,107.26 215.955,106.28 215.955,104.88 Z M220.185,108.78 C220.185,103.56 222.145,101.36 225.285,101.36 C228.425,101.36 230.385,103.56 230.385,108.78 C230.385,114 228.425,116.2 225.285,116.2 C222.145,116.2 220.185,114 220.185,108.78 Z M221.705,108.78 C221.705,113.16 222.945,114.96 225.285,114.96 C227.625,114.96 228.865,113.16 228.865,108.78 C228.865,104.4 227.625,102.6 225.285,102.6 C222.945,102.6 221.705,104.4 221.705,108.78 Z M237.655,102.68 L235.575,110.12 L239.955,110.12 L237.875,102.68 L237.655,102.68 Z M233.815,116 L232.135,116 L236.575,101.56 L238.955,101.56 L243.395,116 L241.715,116 L240.355,111.48 L235.175,111.48 L233.815,116 Z M253.625,116 L247.225,116 L247.225,114.76 L249.725,114.76 L249.725,103.02 L246.945,103.3 L246.945,102.36 C247.945,102.06 249.085,101.76 249.725,101.36 L251.165,101.36 L251.165,114.76 L253.625,114.76 L253.625,116 Z"/>
    <rect width="427" height="72" y="144" fill="#EA3D75"/>
    <path fill="#FAFAFF" d="M174.295,179.24 L173.895,182.28 L176.595,182.28 L177.015,179.24 L174.295,179.24 Z M173.735,183.4 L173.115,188 L171.875,188 L172.495,183.4 L170.515,183.4 L170.515,182.28 L172.655,182.28 L173.055,179.24 L171.075,179.24 L171.075,178.12 L173.215,178.12 L173.835,173.56 L175.075,173.56 L174.455,178.12 L177.175,178.12 L177.775,173.56 L179.015,173.56 L178.415,178.12 L180.295,178.12 L180.295,179.24 L178.255,179.24 L177.835,182.28 L179.735,182.28 L179.735,183.4 L177.675,183.4 L177.055,188 L175.815,188 L176.435,183.4 L173.735,183.4 Z M183.925,173.56 L192.585,173.56 L192.585,174.92 L185.525,174.92 L185.525,179.76 L190.545,179.76 L190.545,181.12 L185.525,181.12 L185.525,186.64 L192.985,186.64 L192.985,188 L183.925,188 L183.925,173.56 Z M200.235,174.68 L198.155,182.12 L202.535,182.12 L200.455,174.68 L200.235,174.68 Z M196.395,188 L194.715,188 L199.155,173.56 L201.535,173.56 L205.975,188 L204.295,188 L202.935,183.48 L197.755,183.48 L196.395,188 Z M207.385,185.36 L208.545,184.56 C209.645,186.04 211.005,186.96 212.505,186.96 C214.625,186.96 215.905,185.88 215.905,184.16 C215.905,182.14 214.705,180.92 211.825,180.92 L210.405,180.92 L210.405,179.68 L211.265,179.68 C214.145,179.68 215.385,178.76 215.385,176.98 C215.385,175.52 214.125,174.6 212.745,174.6 C210.985,174.6 210.225,175.36 209.265,176.6 L208.085,175.8 C209.065,174.44 210.425,173.36 212.745,173.36 C215.305,173.36 216.905,174.68 216.905,176.96 C216.905,178.7 215.785,179.72 214.665,180.16 C216.945,181.04 217.425,182.68 217.425,184 C217.425,186.46 215.525,188.2 212.505,188.2 C209.745,188.2 208.065,186.48 207.385,185.36 Z M222.775,174.92 L222.775,186.64 L224.935,186.64 C228.255,186.64 229.975,184.66 229.975,180.78 C229.975,176.56 227.975,174.92 225.015,174.92 L222.775,174.92 Z M221.175,188 L221.175,173.56 L225.055,173.56 C228.975,173.56 231.575,176.04 231.575,180.78 C231.575,185.02 229.295,188 224.975,188 L221.175,188 Z M241.565,174.8 L234.245,174.8 L234.245,173.56 L243.405,173.56 L243.405,174.44 L237.305,188 L235.625,188 L241.565,174.8 Z M255.255,173.56 L255.255,174.8 L249.055,174.8 L248.695,179.42 C249.635,178.56 250.635,178.24 251.655,178.24 C254.055,178.24 256.275,179.88 256.275,183.12 C256.275,185.32 254.955,188.2 251.275,188.2 C248.815,188.2 247.575,186.84 246.675,185.44 L247.975,184.76 C248.675,186.06 249.795,186.96 251.315,186.96 C253.215,186.96 254.755,185.84 254.755,183.12 C254.755,181 253.515,179.48 251.515,179.48 C250.115,179.48 249.055,180.32 248.475,181.66 L247.215,181.38 L247.855,173.56 L255.255,173.56 Z"/>
    <rect width="427" height="72" y="474" fill="#B71E3D"/>
    <path fill="#FAFAFF" d="M173.735,509.24 L173.335,512.28 L176.035,512.28 L176.455,509.24 L173.735,509.24 Z M173.175,513.4 L172.555,518 L171.315,518 L171.935,513.4 L169.955,513.4 L169.955,512.28 L172.095,512.28 L172.495,509.24 L170.515,509.24 L170.515,508.12 L172.655,508.12 L173.275,503.56 L174.515,503.56 L173.895,508.12 L176.615,508.12 L177.215,503.56 L178.455,503.56 L177.855,508.12 L179.735,508.12 L179.735,509.24 L177.695,509.24 L177.275,512.28 L179.175,512.28 L179.175,513.4 L177.115,513.4 L176.495,518 L175.255,518 L175.875,513.4 L173.175,513.4 Z M183.365,518 L183.365,503.56 L188.685,503.56 C191.205,503.56 192.725,505.16 192.725,507.12 C192.725,508.7 192.025,509.84 190.285,510.44 L190.305,510.48 C191.925,510.88 193.085,512.32 193.085,514.12 C193.085,516.28 191.765,518 187.845,518 L183.365,518 Z M184.965,511.12 L184.965,516.64 L187.965,516.64 C190.325,516.64 191.485,515.84 191.485,514.04 C191.485,512.2 190.005,511.12 187.725,511.12 L184.965,511.12 Z M184.965,504.92 L184.965,509.76 L187.765,509.76 C190.185,509.76 191.125,508.52 191.125,507.3 C191.125,505.68 190.245,504.92 188.405,504.92 L184.965,504.92 Z M203.595,504.8 L196.275,504.8 L196.275,503.56 L205.435,503.56 L205.435,504.44 L199.335,518 L197.655,518 L203.595,504.8 Z M216.765,518 L210.365,518 L210.365,516.76 L212.865,516.76 L212.865,505.02 L210.085,505.3 L210.085,504.36 C211.085,504.06 212.225,503.76 212.865,503.36 L214.305,503.36 L214.305,516.76 L216.765,516.76 L216.765,518 Z M221.895,503.56 L230.555,503.56 L230.555,504.92 L223.495,504.92 L223.495,509.76 L228.515,509.76 L228.515,511.12 L223.495,511.12 L223.495,516.64 L230.955,516.64 L230.955,518 L221.895,518 L221.895,503.56 Z M232.885,515.36 L234.045,514.56 C235.145,516.04 236.505,516.96 238.005,516.96 C240.125,516.96 241.405,515.88 241.405,514.16 C241.405,512.14 240.205,510.92 237.325,510.92 L235.905,510.92 L235.905,509.68 L236.765,509.68 C239.645,509.68 240.885,508.76 240.885,506.98 C240.885,505.52 239.625,504.6 238.245,504.6 C236.485,504.6 235.725,505.36 234.765,506.6 L233.585,505.8 C234.565,504.44 235.925,503.36 238.245,503.36 C240.805,503.36 242.405,504.68 242.405,506.96 C242.405,508.7 241.285,509.72 240.165,510.16 C242.445,511.04 242.925,512.68 242.925,514 C242.925,516.46 241.025,518.2 238.005,518.2 C235.245,518.2 233.565,516.48 232.885,515.36 Z M248.275,504.92 L248.275,516.64 L250.435,516.64 C253.755,516.64 255.475,514.66 255.475,510.78 C255.475,506.56 253.475,504.92 250.515,504.92 L248.275,504.92 Z M246.675,518 L246.675,503.56 L250.555,503.56 C254.475,503.56 257.075,506.04 257.075,510.78 C257.075,515.02 254.795,518 250.475,518 L246.675,518 Z"/>
    <rect width="427" height="72" y="546" fill="#88152D"/>
    <path fill="#FAFAFF" d="M174.295,581.24 L173.895,584.28 L176.595,584.28 L177.015,581.24 L174.295,581.24 Z M173.735,585.4 L173.115,590 L171.875,590 L172.495,585.4 L170.515,585.4 L170.515,584.28 L172.655,584.28 L173.055,581.24 L171.075,581.24 L171.075,580.12 L173.215,580.12 L173.835,575.56 L175.075,575.56 L174.455,580.12 L177.175,580.12 L177.775,575.56 L179.015,575.56 L178.415,580.12 L180.295,580.12 L180.295,581.24 L178.255,581.24 L177.835,584.28 L179.735,584.28 L179.735,585.4 L177.675,585.4 L177.055,590 L175.815,590 L176.435,585.4 L173.735,585.4 Z M193.125,586.24 C193.125,588.44 191.405,590.2 187.865,590.2 C184.325,590.2 182.605,588.44 182.605,586.24 C182.605,584.4 184.045,583.12 185.765,582.32 L185.765,582.28 C184.165,581.68 183.205,580.46 183.205,578.96 C183.205,576.6 185.205,575.36 187.865,575.36 C190.525,575.36 192.525,576.6 192.525,578.96 C192.525,580.46 191.565,581.68 189.965,582.28 L189.965,582.32 C191.685,582.94 193.125,584.28 193.125,586.24 Z M184.125,586.24 C184.125,587.52 185.245,588.96 187.865,588.96 C190.485,588.96 191.605,587.52 191.605,586.24 C191.605,584.56 189.885,583.72 187.605,582.96 C185.845,583.72 184.125,584.56 184.125,586.24 Z M191.005,578.88 C191.005,577.28 189.445,576.6 187.865,576.6 C186.285,576.6 184.725,577.28 184.725,578.88 C184.725,580.44 186.685,581.32 187.865,581.66 C189.465,581.26 191.005,580.28 191.005,578.88 Z M205.595,586.24 C205.595,588.44 203.875,590.2 200.335,590.2 C196.795,590.2 195.075,588.44 195.075,586.24 C195.075,584.4 196.515,583.12 198.235,582.32 L198.235,582.28 C196.635,581.68 195.675,580.46 195.675,578.96 C195.675,576.6 197.675,575.36 200.335,575.36 C202.995,575.36 204.995,576.6 204.995,578.96 C204.995,580.46 204.035,581.68 202.435,582.28 L202.435,582.32 C204.155,582.94 205.595,584.28 205.595,586.24 Z M196.595,586.24 C196.595,587.52 197.715,588.96 200.335,588.96 C202.955,588.96 204.075,587.52 204.075,586.24 C204.075,584.56 202.355,583.72 200.075,582.96 C198.315,583.72 196.595,584.56 196.595,586.24 Z M203.475,578.88 C203.475,577.28 201.915,576.6 200.335,576.6 C198.755,576.6 197.195,577.28 197.195,578.88 C197.195,580.44 199.155,581.32 200.335,581.66 C201.935,581.26 203.475,580.28 203.475,578.88 Z M216.205,590 L209.805,590 L209.805,588.76 L212.305,588.76 L212.305,577.02 L209.525,577.3 L209.525,576.36 C210.525,576.06 211.665,575.76 212.305,575.36 L213.745,575.36 L213.745,588.76 L216.205,588.76 L216.205,590 Z M229.195,575.56 L229.195,576.8 L222.995,576.8 L222.635,581.42 C223.575,580.56 224.575,580.24 225.595,580.24 C227.995,580.24 230.215,581.88 230.215,585.12 C230.215,587.32 228.895,590.2 225.215,590.2 C222.755,590.2 221.515,588.84 220.615,587.44 L221.915,586.76 C222.615,588.06 223.735,588.96 225.255,588.96 C227.155,588.96 228.695,587.84 228.695,585.12 C228.695,583 227.455,581.48 225.455,581.48 C224.055,581.48 222.995,582.32 222.415,583.66 L221.155,583.38 L221.795,575.56 L229.195,575.56 Z M242.345,588.76 L242.345,590 L232.965,590 L232.965,588.48 C235.465,583.42 240.845,583.12 240.845,579.24 C240.845,577.56 239.765,576.6 237.925,576.6 C235.845,576.6 234.765,578.28 234.525,579.74 L233.105,579.42 C233.565,577.42 234.745,575.36 237.965,575.36 C240.325,575.36 242.365,576.72 242.365,579.2 C242.365,583.6 236.045,584.8 234.485,588.76 L242.345,588.76 Z M247.715,576.92 L247.715,588.64 L249.875,588.64 C253.195,588.64 254.915,586.66 254.915,582.78 C254.915,578.56 252.915,576.92 249.955,576.92 L247.715,576.92 Z M246.115,590 L246.115,575.56 L249.995,575.56 C253.915,575.56 256.515,578.04 256.515,582.78 C256.515,587.02 254.235,590 249.915,590 L246.115,590 Z"/>
    <rect width="427" height="72" y="618" fill="#590A1F"/>
    <path fill="#FAFAFF" d="M175.405 653.24L175.005 656.28 177.705 656.28 178.125 653.24 175.405 653.24zM174.845 657.4L174.225 662 172.985 662 173.605 657.4 171.625 657.4 171.625 656.28 173.765 656.28 174.165 653.24 172.185 653.24 172.185 652.12 174.325 652.12 174.945 647.56 176.185 647.56 175.565 652.12 178.285 652.12 178.885 647.56 180.125 647.56 179.525 652.12 181.405 652.12 181.405 653.24 179.365 653.24 178.945 656.28 180.845 656.28 180.845 657.4 178.785 657.4 178.165 662 176.925 662 177.545 657.4 174.845 657.4zM192.895 647.56L192.895 648.8 186.695 648.8 186.335 653.42C187.275 652.56 188.275 652.24 189.295 652.24 191.695 652.24 193.915 653.88 193.915 657.12 193.915 659.32 192.595 662.2 188.915 662.2 186.455 662.2 185.215 660.84 184.315 659.44L185.615 658.76C186.315 660.06 187.435 660.96 188.955 660.96 190.855 660.96 192.395 659.84 192.395 657.12 192.395 655 191.155 653.48 189.155 653.48 187.755 653.48 186.695 654.32 186.115 655.66L184.855 655.38 185.495 647.56 192.895 647.56zM197.325 661.36L197.945 660.14C198.605 660.66 199.285 660.96 200.405 660.96 202.685 660.96 204.665 658.92 204.845 654.92 203.965 655.84 202.885 656.64 200.885 656.64 198.725 656.64 196.545 655.12 196.545 652 196.545 648.92 198.805 647.36 201.205 647.36 204.205 647.36 206.365 649.12 206.365 654.04 206.365 658.6 204.325 662.2 200.445 662.2 198.885 662.2 197.745 661.76 197.325 661.36zM198.065 651.96C198.065 654.2 199.565 655.4 201.085 655.4 202.845 655.4 204.205 654.24 204.765 652.72 204.725 650.2 203.405 648.6 201.325 648.6 199.285 648.6 198.065 650 198.065 651.96zM208.815 654.78C208.815 649.56 210.775 647.36 213.915 647.36 217.055 647.36 219.015 649.56 219.015 654.78 219.015 660 217.055 662.2 213.915 662.2 210.775 662.2 208.815 660 208.815 654.78zM210.335 654.78C210.335 659.16 211.575 660.96 213.915 660.96 216.255 660.96 217.495 659.16 217.495 654.78 217.495 650.4 216.255 648.6 213.915 648.6 211.575 648.6 210.335 650.4 210.335 654.78zM226.285 648.68L224.205 656.12 228.585 656.12 226.505 648.68 226.285 648.68zM222.445 662L220.765 662 225.205 647.56 227.585 647.56 232.025 662 230.345 662 228.985 657.48 223.805 657.48 222.445 662zM242.255 662L235.855 662 235.855 660.76 238.355 660.76 238.355 649.02 235.575 649.3 235.575 648.36C236.575 648.06 237.715 647.76 238.355 647.36L239.795 647.36 239.795 660.76 242.255 660.76 242.255 662zM247.225 647.56L255.785 647.56 255.785 648.92 248.825 648.92 248.825 653.76 253.985 653.76 253.985 655.12 248.825 655.12 248.825 662 247.225 662 247.225 647.56zM174.295 251.24L173.895 254.28 176.595 254.28 177.015 251.24 174.295 251.24zM173.735 255.4L173.115 260 171.875 260 172.495 255.4 170.515 255.4 170.515 254.28 172.655 254.28 173.055 251.24 171.075 251.24 171.075 250.12 173.215 250.12 173.835 245.56 175.075 245.56 174.455 250.12 177.175 250.12 177.775 245.56 179.015 245.56 178.415 250.12 180.295 250.12 180.295 251.24 178.255 251.24 177.835 254.28 179.735 254.28 179.735 255.4 177.675 255.4 177.055 260 175.815 260 176.435 255.4 173.735 255.4zM183.925 245.56L192.585 245.56 192.585 246.92 185.525 246.92 185.525 251.76 190.545 251.76 190.545 253.12 185.525 253.12 185.525 258.64 192.985 258.64 192.985 260 183.925 260 183.925 245.56zM197.835 246.92L197.835 258.64 199.995 258.64C203.315 258.64 205.035 256.66 205.035 252.78 205.035 248.56 203.035 246.92 200.075 246.92L197.835 246.92zM196.235 260L196.235 245.56 200.115 245.56C204.035 245.56 206.635 248.04 206.635 252.78 206.635 257.02 204.355 260 200.035 260L196.235 260zM208.825 252.78C208.825 247.56 210.785 245.36 213.925 245.36 217.065 245.36 219.025 247.56 219.025 252.78 219.025 258 217.065 260.2 213.925 260.2 210.785 260.2 208.825 258 208.825 252.78zM210.345 252.78C210.345 257.16 211.585 258.96 213.925 258.96 216.265 258.96 217.505 257.16 217.505 252.78 217.505 248.4 216.265 246.6 213.925 246.6 211.585 246.6 210.345 248.4 210.345 252.78zM230.535 246.2L229.915 247.42C229.255 246.9 228.575 246.6 227.455 246.6 225.175 246.6 223.055 248.48 223.015 252.64 223.895 251.72 224.975 250.92 226.975 250.92 229.135 250.92 231.315 252.44 231.315 255.56 231.315 258.64 229.055 260.2 226.655 260.2 223.655 260.2 221.495 258.44 221.495 253.52 221.495 248.96 223.535 245.36 227.415 245.36 228.975 245.36 230.115 245.8 230.535 246.2zM229.795 255.6C229.795 253.36 228.295 252.16 226.775 252.16 225.015 252.16 223.175 253.6 223.055 255.24 223.135 257.28 224.455 258.96 226.535 258.96 228.575 258.96 229.795 257.56 229.795 255.6zM244.085 256.6L241.605 256.6 241.605 260 240.165 260 240.165 256.6 233.525 256.6 233.525 255.36 239.485 245.56 241.605 245.56 241.605 255.36 244.085 255.36 244.085 256.6zM240.105 247.08L235.045 255.36 240.165 255.36 240.165 247.08 240.105 247.08zM256.555 256.6L254.075 256.6 254.075 260 252.635 260 252.635 256.6 245.995 256.6 245.995 255.36 251.955 245.56 254.075 245.56 254.075 255.36 256.555 255.36 256.555 256.6zM252.575 247.08L247.515 255.36 252.635 255.36 252.635 247.08 252.575 247.08z"/>
  </g>
</svg>
