<svg xmlns="http://www.w3.org/2000/svg" width="654" height="241" viewBox="0 0 654 241">
  <g fill="none" fill-rule="evenodd" transform="translate(0 -7)">
    <path fill="#8B949B" d="M9.47265625,18.015625 L3.01757812,18.015625 L1.55273438,22 L0.29296875,22 L5.67382812,7.78125 L6.81640625,7.78125 L12.1972656,22 L10.9472656,22 L9.47265625,18.015625 Z M3.38867188,16.9902344 L9.09179688,16.9902344 L6.24023438,9.24609375 L3.38867188,16.9902344 Z M17.5306919,20.3886719 L20.7435825,11.4335938 L21.9447544,11.4335938 L17.9994419,22 L17.0521763,22 L13.0873325,11.4335938 L14.2885044,11.4335938 L17.5306919,20.3886719 Z M28.5379463,22.1953125 C27.8478387,22.1953125 27.2130794,22.0667331 26.6336495,21.8095703 C26.0542195,21.5524076 25.55455,21.1943382 25.134626,20.7353516 C24.7147021,20.2763649 24.3875569,19.7311229 24.1531807,19.0996094 C23.9188045,18.4680958 23.8016182,17.7747434 23.8016182,17.0195312 L23.8016182,16.5996094 C23.8016182,15.7858032 23.9236873,15.0485059 24.1678292,14.3876953 C24.411971,13.7268847 24.7423713,13.1637393 25.1590401,12.6982422 C25.5757088,12.2327451 26.0558473,11.8730481 26.5994698,11.6191406 C27.1430923,11.3652331 27.7176308,11.2382812 28.3231026,11.2382812 C28.9936789,11.2382812 29.589376,11.3587228 30.110212,11.5996094 C30.6310479,11.840496 31.068869,12.1757791 31.4236885,12.6054688 C31.778508,13.0351584 32.04706,13.546221 32.2293526,14.1386719 C32.4116452,14.7311228 32.5027901,15.3789027 32.5027901,16.0820312 L32.5027901,16.7949219 L24.9637276,16.7949219 L24.9637276,17.0195312 C24.9637276,17.5989612 25.0516173,18.1442032 25.2273995,18.6552734 C25.4031816,19.1663437 25.650575,19.6106752 25.969587,19.9882812 C26.288599,20.3658873 26.6694545,20.6637359 27.1121651,20.8818359 C27.5548756,21.099936 28.0464072,21.2089844 28.5867745,21.2089844 C29.2117776,21.2089844 29.7635299,21.0950532 30.2420479,20.8671875 C30.7205659,20.6393218 31.1551319,20.2747421 31.5457588,19.7734375 L32.2781807,20.3300781 C32.1023986,20.5839856 31.8989501,20.8248687 31.6678292,21.0527344 C31.4367082,21.2806001 31.1681562,21.4791658 30.8621651,21.6484375 C30.556174,21.8177092 30.2111253,21.9511714 29.8270088,22.0488281 C29.4428923,22.1464849 29.0132091,22.1953125 28.5379463,22.1953125 Z M28.3231026,12.234375 C27.880392,12.234375 27.4702399,12.3190096 27.0926338,12.4882812 C26.7150278,12.6575529 26.3813723,12.8984359 26.0916573,13.2109375 C25.8019423,13.5234391 25.5643145,13.8994119 25.3787667,14.3388672 C25.1932189,14.7783225 25.0678946,15.2649713 25.0027901,15.7988281 L31.3406807,15.7988281 L31.3406807,15.671875 C31.3276598,15.2291645 31.256046,14.8011088 31.125837,14.3876953 C30.995628,13.9742818 30.8052002,13.6080745 30.5545479,13.2890625 C30.3038956,12.9700505 29.9930263,12.7145192 29.6219307,12.5224609 C29.2508351,12.3304027 28.8178967,12.234375 28.3231026,12.234375 Z M36.6057476,11.4335938 L36.6448101,13.2402344 C36.8271027,12.9407537 37.0370616,12.6673189 37.274693,12.4199219 C37.5123243,12.1725248 37.7776212,11.9609384 38.0705914,11.7851562 C38.3635616,11.6093741 38.6793137,11.4742843 39.017857,11.3798828 C39.3564004,11.2854813 39.7144697,11.2382812 40.0920758,11.2382812 C40.6194222,11.2382812 41.0914226,11.3098951 41.5080914,11.453125 C41.9247601,11.5963549 42.2779467,11.8242172 42.5676617,12.1367188 C42.8573767,12.4492203 43.0787286,12.8512345 43.2317242,13.3427734 C43.3847198,13.8343124 43.4612164,14.4283819 43.4612164,15.125 L43.4612164,22 L42.299107,22 L42.299107,15.1152344 C42.299107,14.5683566 42.2405139,14.112632 42.1233258,13.7480469 C42.0061377,13.3834617 41.8401237,13.0904959 41.6252789,12.8691406 C41.4104341,12.6477854 41.1483924,12.4899093 40.8391461,12.3955078 C40.5298997,12.3011063 40.1864787,12.2539062 39.8088726,12.2539062 C39.3922039,12.2539062 39.0146035,12.3238925 38.6760601,12.4638672 C38.3375168,12.6038418 38.0380406,12.7910145 37.7776226,13.0253906 C37.5172047,13.2597668 37.2925975,13.5283188 37.1037945,13.8310547 C36.9149915,14.1337906 36.7652534,14.4446599 36.6545758,14.7636719 L36.6545758,22 L35.4924664,22 L35.4924664,11.4335938 L36.6057476,11.4335938 Z M48.5016739,22 L47.3297989,22 L47.3297989,11.4335938 L48.5016739,11.4335938 L48.5016739,22 Z M47.1247208,8.37695312 C47.1247208,8.15559785 47.1963347,7.96842524 47.3395646,7.81542969 C47.4827944,7.66243413 47.678105,7.5859375 47.9255021,7.5859375 C48.1728991,7.5859375 48.3698373,7.66243413 48.5163224,7.81542969 C48.6628075,7.96842524 48.7360489,8.15559785 48.7360489,8.37695312 C48.7360489,8.5983084 48.6628075,8.78385342 48.5163224,8.93359375 C48.3698373,9.08333408 48.1728991,9.15820312 47.9255021,9.15820312 C47.678105,9.15820312 47.4827944,9.08333408 47.3395646,8.93359375 C47.1963347,8.78385342 47.1247208,8.5983084 47.1247208,8.37695312 Z M57.2726002,12.4296875 C57.0252032,12.3841144 56.7615339,12.3613281 56.4815846,12.3613281 C56.0844472,12.3613281 55.7263779,12.4199213 55.4073659,12.5371094 C55.0883538,12.6542975 54.8067811,12.8186838 54.5626393,13.0302734 C54.3184975,13.241863 54.1134214,13.4925116 53.9474049,13.7822266 C53.7813885,14.0719416 53.6495538,14.3925764 53.5518971,14.7441406 L53.5518971,22 L52.3897877,22 L52.3897877,11.4335938 L53.5323659,11.4335938 L53.5518971,13.1132812 C53.8383569,12.5338513 54.2273504,12.0764991 54.7188893,11.7412109 C55.2104282,11.4059228 55.8142633,11.2382812 56.5304127,11.2382812 C56.6736426,11.2382812 56.8201255,11.251302 56.9698659,11.2773438 C57.1196062,11.3033855 57.2302822,11.3326821 57.3018971,11.3652344 L57.2726002,12.4296875 Z M12.3828125,52 L11.1816406,52 L3.0078125,39.8320312 L3.0078125,52 L1.796875,52 L1.796875,37.78125 L3.0078125,37.78125 L11.1914062,49.9589844 L11.1914062,37.78125 L12.3828125,37.78125 L12.3828125,52 Z M20.5287388,52.1953125 C19.8386312,52.1953125 19.2038719,52.0667331 18.6244419,51.8095703 C18.0450119,51.5524076 17.5453425,51.1943382 17.1254185,50.7353516 C16.7054945,50.2763649 16.3783493,49.7311229 16.1439732,49.0996094 C15.909597,48.4680958 15.7924107,47.7747434 15.7924107,47.0195312 L15.7924107,46.5996094 C15.7924107,45.7858032 15.9144798,45.0485059 16.1586216,44.3876953 C16.4027635,43.7268847 16.7331638,43.1637393 17.1498325,42.6982422 C17.5665013,42.2327451 18.0466397,41.8730481 18.5902622,41.6191406 C19.1338847,41.3652331 19.7084233,41.2382812 20.313895,41.2382812 C20.9844713,41.2382812 21.5801685,41.3587228 22.1010044,41.5996094 C22.6218404,41.840496 23.0596615,42.1757791 23.414481,42.6054688 C23.7693005,43.0351584 24.0378525,43.546221 24.220145,44.1386719 C24.4024376,44.7311228 24.4935825,45.3789027 24.4935825,46.0820312 L24.4935825,46.7949219 L16.95452,46.7949219 L16.95452,47.0195312 C16.95452,47.5989612 17.0424098,48.1442032 17.2181919,48.6552734 C17.3939741,49.1663437 17.6413674,49.6106752 17.9603794,49.9882812 C18.2793914,50.3658873 18.660247,50.6637359 19.1029575,50.8818359 C19.5456681,51.099936 20.0371996,51.2089844 20.5775669,51.2089844 C21.20257,51.2089844 21.7543223,51.0950532 22.2328404,50.8671875 C22.7113584,50.6393218 23.1459243,50.2747421 23.5365513,49.7734375 L24.2689732,50.3300781 C24.093191,50.5839856 23.8897426,50.8248687 23.6586216,51.0527344 C23.4275007,51.2806001 23.1589487,51.4791658 22.8529575,51.6484375 C22.5469664,51.8177092 22.2019178,51.9511714 21.8178013,52.0488281 C21.4336848,52.1464849 21.0040016,52.1953125 20.5287388,52.1953125 Z M20.313895,42.234375 C19.8711845,42.234375 19.4610324,42.3190096 19.0834263,42.4882812 C18.7058202,42.6575529 18.3721647,42.8984359 18.0824497,43.2109375 C17.7927347,43.5234391 17.5551069,43.8994119 17.3695591,44.3388672 C17.1840113,44.7783225 17.058687,45.2649713 16.9935825,45.7988281 L23.3314732,45.7988281 L23.3314732,45.671875 C23.3184523,45.2291645 23.2468384,44.8011088 23.1166294,44.3876953 C22.9864204,43.9742818 22.7959927,43.6080745 22.5453404,43.2890625 C22.2946881,42.9700505 21.9838188,42.7145192 21.6127232,42.5224609 C21.2416276,42.3304027 20.8086892,42.234375 20.313895,42.234375 Z M30.8035713,45.7207031 L33.6551338,41.4335938 L35.0418526,41.4335938 L31.4578682,46.6191406 L35.1981026,52 L33.8211495,52 L30.813337,47.5273438 L27.8055245,52 L26.4285713,52 L30.1590401,46.6191406 L26.5750557,41.4335938 L27.9520088,41.4335938 L30.8035713,45.7207031 Z M39.7405133,38.7285156 L39.7405133,41.4335938 L41.9280133,41.4335938 L41.9280133,42.390625 L39.7405133,42.390625 L39.7405133,49.4316406 C39.7405133,49.8027362 39.7779478,50.1005848 39.852818,50.3251953 C39.9276881,50.5498058 40.0285986,50.7255853 40.1555523,50.8525391 C40.2825061,50.9794928 40.428989,51.0641274 40.5950055,51.1064453 C40.7610219,51.1487632 40.9351738,51.1699219 41.1174664,51.1699219 C41.2932485,51.1699219 41.4625177,51.1585288 41.6252789,51.1357422 C41.7880401,51.1129556 41.934523,51.091797 42.064732,51.0722656 L42.1135601,52.0292969 C41.9703303,52.0813805 41.7831576,52.1220702 41.5520367,52.1513672 C41.3209158,52.1806642 41.0914259,52.1953125 40.8635601,52.1953125 C40.5315272,52.1953125 40.2239131,52.1513676 39.9407086,52.0634766 C39.657504,51.9755855 39.4149934,51.8242198 39.2131695,51.609375 C39.0113456,51.3945302 38.8534696,51.1097023 38.7395367,50.7548828 C38.6256038,50.4000633 38.5686383,49.958987 38.5686383,49.4316406 L38.5686383,42.390625 L36.6252789,42.390625 L36.6252789,41.4335938 L38.5686383,41.4335938 L38.5686383,38.7285156 L39.7405133,38.7285156 Z"/>
    <path fill="#222" d="M10.68 216L1.2 216 37.92 131.04 46.32 131.04 82.8 216 73.2 216 63.84 193.68 19.92 193.68 10.68 216zM23.16 185.76L60.6 185.76 41.88 140.64 23.16 185.76zM135.2 179.76C135.2 174.879976 133.920013 171.240012 131.36 168.84 128.799987 166.439988 125.080024 165.24 120.2 165.24 116.839983 165.24 113.720014 165.839994 110.84 167.04 107.959986 168.240006 105.52001 169.83999 103.52 171.84L98.96 166.44C101.280012 164.119988 104.339981 162.200008 108.14 160.68 111.940019 159.159992 116.239976 158.4 121.04 158.4 124.080015 158.4 126.919987 158.819996 129.56 159.66 132.200013 160.500004 134.51999 161.759992 136.52 163.44 138.52001 165.120008 140.079994 167.239987 141.2 169.8 142.320006 172.360013 142.88 175.359983 142.88 178.8L142.88 203.4C142.88 205.560011 142.959999 207.799988 143.12 210.12 143.280001 212.440012 143.519998 214.399992 143.84 216L136.52 216C136.279999 214.639993 136.080001 213.160008 135.92 211.56 135.759999 209.959992 135.68 208.400008 135.68 206.88L135.44 206.88C132.879987 210.640019 129.980016 213.339992 126.74 214.98 123.499984 216.620008 119.600023 217.44 115.04 217.44 112.879989 217.44 110.660011 217.140003 108.38 216.54 106.099989 215.939997 104.020009 214.960007 102.14 213.6 100.259991 212.239993 98.7000062 210.480011 97.46 208.32 96.2199938 206.159989 95.6 203.520016 95.6 200.4 95.6 196.079978 96.699989 192.660013 98.9 190.14 101.100011 187.619987 104.039982 185.740006 107.72 184.5 111.400018 183.259994 115.619976 182.460002 120.38 182.1 125.140024 181.739998 130.079974 181.56 135.2 181.56L135.2 179.76zM132.8 187.92C129.439983 187.92 126.060017 188.059999 122.66 188.34 119.259983 188.620001 116.180014 189.179996 113.42 190.02 110.659986 190.860004 108.400009 192.079992 106.64 193.68 104.879991 195.280008 104 197.399987 104 200.04 104 202.04001 104.379996 203.719993 105.14 205.08 105.900004 206.440007 106.919994 207.539996 108.2 208.38 109.480006 209.220004 110.899992 209.819998 112.46 210.18 114.020008 210.540002 115.599992 210.72 117.2 210.72 120.080014 210.72 122.639989 210.220005 124.88 209.22 127.120011 208.219995 128.999992 206.860009 130.52 205.14 132.040008 203.419991 133.199996 201.440011 134 199.2 134.800004 196.959989 135.2 194.600012 135.2 192.12L135.2 187.92 132.8 187.92zM298.204 44L295.36 44 306.376 18.512 308.896 18.512 319.84 44 316.96 44 314.152 37.304 300.976 37.304 298.204 44zM301.948 34.928L313.18 34.928 307.564 21.392 301.948 34.928zM334.06 33.128C334.06 31.6639927 333.676004 30.5720036 332.908 29.852 332.139996 29.1319964 331.024007 28.772 329.56 28.772 328.551995 28.772 327.616004 28.9519982 326.752 29.312 325.887996 29.6720018 325.156003 30.151997 324.556 30.752L323.188 29.132C323.884003 28.4359965 324.801994 27.8600023 325.942 27.404 327.082006 26.9479977 328.371993 26.72 329.812 26.72 330.724005 26.72 331.575996 26.8459987 332.368 27.098 333.160004 27.3500013 333.855997 27.7279975 334.456 28.232 335.056003 28.7360025 335.523998 29.3719962 335.86 30.14 336.196002 30.9080038 336.364 31.8079948 336.364 32.84L336.364 40.22C336.364 40.8680032 336.388 41.5399965 336.436 42.236 336.484 42.9320035 336.556 43.5199976 336.652 44L334.456 44C334.384 43.591998 334.324 43.1480024 334.276 42.668 334.228 42.1879976 334.204 41.7200023 334.204 41.264L334.132 41.264C333.363996 42.3920056 332.494005 43.2019975 331.522 43.694 330.549995 44.1860025 329.380007 44.432 328.012 44.432 327.363997 44.432 326.698003 44.3420009 326.014 44.162 325.329997 43.9819991 324.706003 43.688002 324.142 43.28 323.577997 42.871998 323.110002 42.3440032 322.738 41.696 322.365998 41.0479968 322.18 40.2560047 322.18 39.32 322.18 38.0239935 322.509997 36.9980038 323.17 36.242 323.830003 35.4859962 324.711994 34.9220019 325.816 34.55 326.920006 34.1779981 328.185993 33.9380005 329.614 33.83 331.042007 33.7219995 332.523992 33.668 334.06 33.668L334.06 33.128zM333.34 35.576C332.331995 35.576 331.318005 35.6179996 330.298 35.702 329.277995 35.7860004 328.354004 35.9539987 327.526 36.206 326.697996 36.4580013 326.020003 36.8239976 325.492 37.304 324.963997 37.7840024 324.7 38.419996 324.7 39.212 324.7 39.812003 324.813999 40.315998 325.042 40.724 325.270001 41.132002 325.575998 41.4619987 325.96 41.714 326.344002 41.9660013 326.769998 42.1459995 327.238 42.254 327.706002 42.3620005 328.179998 42.416 328.66 42.416 329.524004 42.416 330.291997 42.2660015 330.964 41.966 331.636003 41.6659985 332.199998 41.2580026 332.656 40.742 333.112002 40.2259974 333.459999 39.6320034 333.7 38.96 333.940001 38.2879966 334.06 37.5800037 334.06 36.836L334.06 35.576 333.34 35.576zM351.808 18.512L359.404 18.512C360.364005 18.512 361.335995 18.613999 362.32 18.818 363.304005 19.022001 364.185996 19.3699975 364.966 19.862 365.746004 20.3540025 366.381998 21.0199958 366.874 21.86 367.366002 22.7000042 367.612 23.7559936 367.612 25.028 367.612 26.3720067 367.204004 27.541995 366.388 28.538 365.571996 29.534005 364.480007 30.1879984 363.112 30.5L363.112 30.572C364.768008 30.764001 366.141995 31.4059945 367.234 32.498 368.326005 33.5900055 368.872 35.0719906 368.872 36.944 368.872 38.0000053 368.650002 38.9659956 368.206 39.842 367.761998 40.7180044 367.132004 41.4619969 366.316 42.074 365.499996 42.6860031 364.504006 43.1599983 363.328 43.496 362.151994 43.8320017 360.832007 44 359.368 44L351.808 44 351.808 18.512zM354.4 29.672L359.62 29.672C360.244003 29.672 360.873997 29.6000007 361.51 29.456 362.146003 29.3119993 362.727997 29.0660017 363.256 28.718 363.784003 28.3699983 364.209998 27.9080029 364.534 27.332 364.858002 26.7559971 365.02 26.0480042 365.02 25.208 365.02 24.3919959 364.858002 23.7020028 364.534 23.138 364.209998 22.5739972 363.772003 22.1120018 363.22 21.752 362.667997 21.3919982 362.020004 21.1340008 361.276 20.978 360.531996 20.8219992 359.740004 20.744 358.9 20.744L354.4 20.744 354.4 29.672zM354.4 41.768L359.224 41.768C360.160005 41.768 361.053996 41.6780009 361.906 41.498 362.758004 41.3179991 363.501997 41.030002 364.138 40.634 364.774003 40.237998 365.283998 39.7220032 365.668 39.086 366.052002 38.4499968 366.244 37.6880044 366.244 36.8 366.244 35.1199916 365.674006 33.8660041 364.534 33.038 363.393994 32.2099959 361.78001 31.796 359.692 31.796L354.4 31.796 354.4 41.768zM377.08 41.156L377.08 44 374.632 44 374.632 16.784 377.08 16.784 377.08 30.068 377.152 30.068C377.872004 28.9639945 378.807994 28.1300028 379.96 27.566 381.112006 27.0019972 382.299994 26.72 383.524 26.72 384.844007 26.72 386.037995 26.9479977 387.106 27.404 388.174005 27.8600023 389.085996 28.483996 389.842 29.276 390.598004 30.068004 391.185998 31.0039946 391.606 32.084 392.026002 33.1640054 392.236 34.3279938 392.236 35.576 392.236 36.8240062 392.026002 37.9879946 391.606 39.068 391.185998 40.1480054 390.598004 41.083996 389.842 41.876 389.085996 42.668004 388.174005 43.2919977 387.106 43.748 386.037995 44.2040023 384.844007 44.432 383.524 44.432 382.299994 44.432 381.112006 44.1560028 379.96 43.604 378.807994 43.0519972 377.872004 42.2360054 377.152 41.156L377.08 41.156zM389.644 35.576C389.644 34.6399953 389.500001 33.7580041 389.212 32.93 388.923999 32.1019959 388.510003 31.3820031 387.97 30.77 387.429997 30.1579969 386.764004 29.6720018 385.972 29.312 385.179996 28.9519982 384.280005 28.772 383.272 28.772 382.335995 28.772 381.472004 28.9459983 380.68 29.294 379.887996 29.6420017 379.204003 30.1219969 378.628 30.734 378.051997 31.3460031 377.602002 32.0659959 377.278 32.894 376.953998 33.7220041 376.792 34.6159952 376.792 35.576 376.792 36.5360048 376.953998 37.4299959 377.278 38.258 377.602002 39.0860041 378.051997 39.799997 378.628 40.4 379.204003 41.000003 379.887996 41.4739983 380.68 41.822 381.472004 42.1700017 382.335995 42.344 383.272 42.344 384.280005 42.344 385.179996 42.1700017 385.972 41.822 386.764004 41.4739983 387.429997 40.9940031 387.97 40.382 388.510003 39.7699969 388.923999 39.0500041 389.212 38.222 389.500001 37.3939959 389.644 36.5120047 389.644 35.576zM428.092 39.896C427.659998 40.5440032 427.138003 41.1559971 426.526 41.732 425.913997 42.3080029 425.206004 42.8119978 424.402 43.244 423.597996 43.6760022 422.710005 44.0179987 421.738 44.27 420.765995 44.5220013 419.704006 44.648 418.552 44.648 416.63199 44.648 414.856008 44.3120034 413.224 43.64 411.591992 42.9679966 410.188006 42.0380059 409.012 40.85 407.835994 39.6619941 406.918003 38.2520082 406.258 36.62 405.597997 34.9879918 405.268 33.2000097 405.268 31.256 405.268 29.3119903 405.603997 27.5240082 406.276 25.892 406.948003 24.2599918 407.877994 22.8500059 409.066 21.662 410.254006 20.4739941 411.657992 19.5440034 413.278 18.872 414.898008 18.1999966 416.655991 17.864 418.552 17.864 419.488005 17.864 420.405996 17.959999 421.306 18.152 422.206005 18.344001 423.051996 18.6139983 423.844 18.962 424.636004 19.3100017 425.355997 19.7299975 426.004 20.222 426.652003 20.7140025 427.191998 21.2719969 427.624 21.896L425.464 23.48C425.199999 23.071998 424.846002 22.664002 424.402 22.256 423.957998 21.847998 423.436003 21.4880016 422.836 21.176 422.235997 20.8639984 421.582004 20.612001 420.874 20.42 420.165996 20.227999 419.404004 20.132 418.588 20.132 416.931992 20.132 415.450007 20.431997 414.142 21.032 412.833993 21.632003 411.724005 22.4419949 410.812 23.462 409.899995 24.4820051 409.204002 25.6639933 408.724 27.008 408.243998 28.3520067 408.004 29.7679926 408.004 31.256 408.004 32.7440074 408.249998 34.1599933 408.742 35.504 409.234002 36.8480067 409.935995 38.0299949 410.848 39.05 411.760005 40.0700051 412.869993 40.879997 414.178 41.48 415.486007 42.080003 416.955992 42.38 418.588 42.38 420.052007 42.38 421.443993 42.080003 422.764 41.48 424.084007 40.879997 425.187996 39.9200066 426.076 38.6L428.092 39.896zM444.544 31.004C444.135998 30.3559968 443.542004 29.8220021 442.762 29.402 441.981996 28.9819979 441.136005 28.772 440.224 28.772 439.239995 28.772 438.352004 28.9459983 437.56 29.294 436.767996 29.6420017 436.090003 30.1219969 435.526 30.734 434.961997 31.3460031 434.530002 32.0659959 434.23 32.894 433.929999 33.7220041 433.78 34.6159952 433.78 35.576 433.78 36.5360048 433.929999 37.4239959 434.23 38.24 434.530002 39.0560041 434.955997 39.7699969 435.508 40.382 436.060003 40.9940031 436.731996 41.4739983 437.524 41.822 438.316004 42.1700017 439.203995 42.344 440.188 42.344 441.268005 42.344 442.179996 42.140002 442.924 41.732 443.668004 41.323998 444.279998 40.7960032 444.76 40.148L446.596 41.516C445.875996 42.4040044 444.994005 43.1119974 443.95 43.64 442.905995 44.1680026 441.652007 44.432 440.188 44.432 438.819993 44.432 437.584006 44.2100022 436.48 43.766 435.375994 43.3219978 434.434004 42.704004 433.654 41.912 432.873996 41.119996 432.268002 40.1840054 431.836 39.104 431.403998 38.0239946 431.188 36.8480064 431.188 35.576 431.188 34.3039936 431.403998 33.1280054 431.836 32.048 432.268002 30.9679946 432.873996 30.032004 433.654 29.24 434.434004 28.447996 435.375994 27.8300022 436.48 27.386 437.584006 26.9419978 438.819993 26.72 440.188 26.72 441.316006 26.72 442.461994 26.9659975 443.626 27.458 444.790006 27.9500025 445.731996 28.6759952 446.452 29.636L444.544 31.004zM459.556 18.512L468.016 18.512C469.600008 18.512 471.189992 18.7759974 472.786 19.304 474.382008 19.8320026 475.821994 20.6299947 477.106 21.698 478.390006 22.7660053 479.427996 24.097992 480.22 25.694 481.012004 27.290008 481.408 29.1439894 481.408 31.256 481.408 33.3920107 481.012004 35.2519921 480.22 36.836 479.427996 38.4200079 478.390006 39.7459947 477.106 40.814 475.821994 41.8820053 474.382008 42.6799974 472.786 43.208 471.189992 43.7360026 469.600008 44 468.016 44L459.556 44 459.556 18.512zM462.148 41.696L467.296 41.696C469.21601 41.696 470.889993 41.396003 472.318 40.796 473.746007 40.195997 474.927995 39.4100049 475.864 38.438 476.800005 37.4659951 477.501998 36.3560062 477.97 35.108 478.438002 33.8599938 478.672 32.5760066 478.672 31.256 478.672 29.9359934 478.438002 28.6520062 477.97 27.404 477.501998 26.1559938 476.800005 25.0460049 475.864 24.074 474.927995 23.1019951 473.746007 22.316003 472.318 21.716 470.889993 21.115997 469.21601 20.816 467.296 20.816L462.148 20.816 462.148 41.696zM500.524 41.156C499.803996 42.2360054 498.868006 43.0519972 497.716 43.604 496.563994 44.1560028 495.376006 44.432 494.152 44.432 492.831993 44.432 491.638005 44.2040023 490.57 43.748 489.501995 43.2919977 488.590004 42.668004 487.834 41.876 487.077996 41.083996 486.490002 40.1480054 486.07 39.068 485.649998 37.9879946 485.44 36.8240062 485.44 35.576 485.44 34.3279938 485.649998 33.1640054 486.07 32.084 486.490002 31.0039946 487.077996 30.068004 487.834 29.276 488.590004 28.483996 489.501995 27.8600023 490.57 27.404 491.638005 26.9479977 492.831993 26.72 494.152 26.72 495.376006 26.72 496.563994 27.0019972 497.716 27.566 498.868006 28.1300028 499.803996 28.9639945 500.524 30.068L500.596 30.068 500.596 16.784 503.044 16.784 503.044 44 500.596 44 500.596 41.156 500.524 41.156zM488.032 35.576C488.032 36.5120047 488.175999 37.3939959 488.464 38.222 488.752001 39.0500041 489.165997 39.7699969 489.706 40.382 490.246003 40.9940031 490.911996 41.4739983 491.704 41.822 492.496004 42.1700017 493.395995 42.344 494.404 42.344 495.340005 42.344 496.203996 42.1700017 496.996 41.822 497.788004 41.4739983 498.471997 41.000003 499.048 40.4 499.624003 39.799997 500.073998 39.0860041 500.398 38.258 500.722002 37.4299959 500.884 36.5360048 500.884 35.576 500.884 34.6159952 500.722002 33.7220041 500.398 32.894 500.073998 32.0659959 499.624003 31.3460031 499.048 30.734 498.471997 30.1219969 497.788004 29.6420017 496.996 29.294 496.203996 28.9459983 495.340005 28.772 494.404 28.772 493.395995 28.772 492.496004 28.9519982 491.704 29.312 490.911996 29.6720018 490.246003 30.1579969 489.706 30.77 489.165997 31.3820031 488.752001 32.1019959 488.464 32.93 488.175999 33.7580041 488.032 34.6399953 488.032 35.576zM521.332 41.696L534.976 41.696 534.976 44 518.74 44 518.74 18.512 534.544 18.512 534.544 20.816 521.332 20.816 521.332 29.6 533.68 29.6 533.68 31.868 521.332 31.868 521.332 41.696zM552.76 34.28C552.688 32.6959921 552.178005 31.3820052 551.23 30.338 550.281995 29.2939948 548.932009 28.772 547.18 28.772 546.363996 28.772 545.608003 28.9219985 544.912 29.222 544.215997 29.5220015 543.604003 29.9299974 543.076 30.446 542.547997 30.9620026 542.128002 31.5499967 541.816 32.21 541.503998 32.8700033 541.324 33.5599964 541.276 34.28L552.76 34.28zM555.244 35.072L555.244 35.612C555.244 35.804001 555.232 36.0079989 555.208 36.224L541.24 36.224C541.264 37.0640042 541.431998 37.8559963 541.744 38.6 542.056002 39.3440037 542.487997 39.9919972 543.04 40.544 543.592003 41.0960028 544.239996 41.5339984 544.984 41.858 545.728004 42.1820016 546.531996 42.344 547.396 42.344 548.668006 42.344 549.765995 42.0500029 550.69 41.462 551.614005 40.8739971 552.315998 40.1960038 552.796 39.428L554.632 40.868C553.623995 42.1400064 552.514006 43.0519972 551.302 43.604 550.089994 44.1560028 548.788007 44.432 547.396 44.432 546.147994 44.432 544.990005 44.2100022 543.922 43.766 542.853995 43.3219978 541.936004 42.704004 541.168 41.912 540.399996 41.119996 539.794002 40.1840054 539.35 39.104 538.905998 38.0239946 538.684 36.8480064 538.684 35.576 538.684 34.3039936 538.899998 33.1280054 539.332 32.048 539.764002 30.9679946 540.363996 30.032004 541.132 29.24 541.900004 28.447996 542.799995 27.8300022 543.832 27.386 544.864005 26.9419978 545.979994 26.72 547.18 26.72 548.500007 26.72 549.663995 26.9419978 550.672 27.386 551.680005 27.8300022 552.519997 28.4299962 553.192 29.186 553.864003 29.9420038 554.373998 30.823995 554.722 31.832 555.070002 32.840005 555.244 33.9199942 555.244 35.072zM572.236 44L569.644 44 569.644 18.512 585.016 18.512 585.016 20.816 572.236 20.816 572.236 29.672 584.116 29.672 584.116 31.94 572.236 31.94 572.236 44zM596.86 29.204L592.9 29.204 592.9 44 590.452 44 590.452 29.204 586.924 29.204 586.924 27.152 590.452 27.152 590.452 22.544C590.452 20.6239904 590.919995 19.1120055 591.856 18.008 592.792005 16.9039945 594.23199 16.352 596.176 16.352 596.488002 16.352 596.823998 16.3699998 597.184 16.406 597.544002 16.4420002 597.879998 16.5079995 598.192 16.604L597.76 18.764C597.495999 18.6919996 597.232001 18.6320002 596.968 18.584 596.703999 18.5359998 596.404002 18.512 596.068 18.512 595.419997 18.512 594.886002 18.6199989 594.466 18.836 594.045998 19.0520011 593.722001 19.357998 593.494 19.754 593.265999 20.150002 593.11 20.6119974 593.026 21.14 592.942 21.6680026 592.9 22.231997 592.9 22.832L592.9 27.152 596.86 27.152 596.86 29.204zM628.828 23.084C627.939996 22.1479953 626.884006 21.4220026 625.66 20.906 624.435994 20.3899974 623.032008 20.132 621.448 20.132 619.815992 20.132 618.346007 20.431997 617.038 21.032 615.729993 21.632003 614.620005 22.4419949 613.708 23.462 612.795995 24.4820051 612.094002 25.6639933 611.602 27.008 611.109998 28.3520067 610.864 29.7679926 610.864 31.256 610.864 32.7440074 611.109998 34.1599933 611.602 35.504 612.094002 36.8480067 612.795995 38.023995 613.708 39.032 614.620005 40.040005 615.729993 40.843997 617.038 41.444 618.346007 42.044003 619.815992 42.344 621.448 42.344 622.888007 42.344 624.207994 42.1880016 625.408 41.876 626.608006 41.5639984 627.579996 41.1680024 628.324 40.688L628.324 32.948 622.384 32.948 622.384 30.68 630.916 30.68 630.916 42.164C629.523993 43.0040042 628.024008 43.627998 626.416 44.036 624.807992 44.444002 623.140009 44.648 621.412 44.648 619.49199 44.648 617.716008 44.3120034 616.084 43.64 614.451992 42.9679966 613.048006 42.0380059 611.872 40.85 610.695994 39.6619941 609.778003 38.2520082 609.118 36.62 608.457997 34.9879918 608.128 33.2000097 608.128 31.256 608.128 29.3119903 608.463997 27.5240082 609.136 25.892 609.808003 24.2599918 610.737994 22.8500059 611.926 21.662 613.114006 20.4739941 614.517992 19.5440034 616.138 18.872 617.758008 18.1999966 619.515991 17.864 621.412 17.864 623.45201 17.864 625.227992 18.163997 626.74 18.764 628.252008 19.364003 629.547995 20.2039946 630.628 21.284L628.828 23.084zM638.296 47.384C638.968003 48.2480043 639.885994 48.979997 641.05 49.58 642.214006 50.180003 643.443994 50.48 644.74 50.48 645.940006 50.48 646.959996 50.3060017 647.8 49.958 648.640004 49.6099983 649.317997 49.136003 649.834 48.536 650.350003 47.935997 650.727999 47.234004 650.968 46.43 651.208001 45.625996 651.328 44.7680046 651.328 43.856L651.328 40.688 651.256 40.688C650.607997 41.7440053 649.690006 42.5599971 648.502 43.136 647.313994 43.7120029 646.108006 44 644.884 44 643.563993 44 642.370005 43.7840022 641.302 43.352 640.233995 42.9199978 639.322004 42.3260038 638.566 41.57 637.809996 40.8139962 637.222002 39.9080053 636.802 38.852 636.381998 37.7959947 636.172 36.6560061 636.172 35.432 636.172 34.231994 636.381998 33.1040053 636.802 32.048 637.222002 30.9919947 637.809996 30.068004 638.566 29.276 639.322004 28.483996 640.233995 27.8600023 641.302 27.404 642.370005 26.9479977 643.563993 26.72 644.884 26.72 646.108006 26.72 647.307994 27.0079971 648.484 27.584 649.660006 28.1600029 650.583997 28.9879946 651.256 30.068L651.328 30.068 651.328 27.152 653.776 27.152 653.776 43.856C653.776 44.7680046 653.650001 45.7399948 653.398 46.772 653.145999 47.8040052 652.678003 48.7519957 651.994 49.616 651.309997 50.4800043 650.380006 51.1999971 649.204 51.776 648.027994 52.3520029 646.504009 52.64 644.632 52.64 643.071992 52.64 641.584007 52.340003 640.168 51.74 638.751993 51.139997 637.540005 50.3120053 636.532 49.256L638.296 47.384zM638.764 35.36C638.764 36.2480044 638.907999 37.087996 639.196 37.88 639.484001 38.672004 639.897997 39.367997 640.438 39.968 640.978003 40.568003 641.643996 41.0419983 642.436 41.39 643.228004 41.7380017 644.127995 41.912 645.136 41.912 646.072005 41.912 646.935996 41.7560016 647.728 41.444 648.520004 41.1319984 649.203997 40.6880029 649.78 40.112 650.356003 39.5359971 650.805998 38.846004 651.13 38.042 651.454002 37.237996 651.616 36.3440049 651.616 35.36 651.616 34.4719956 651.454002 33.632004 651.13 32.84 650.805998 32.047996 650.356003 31.352003 649.78 30.752 649.203997 30.151997 648.520004 29.6720018 647.728 29.312 646.935996 28.9519982 646.072005 28.772 645.136 28.772 644.127995 28.772 643.228004 28.9519982 642.436 29.312 641.643996 29.6720018 640.978003 30.151997 640.438 30.752 639.897997 31.352003 639.484001 32.047996 639.196 32.84 638.907999 33.632004 638.764 34.4719956 638.764 35.36zM298.384 83.512L300.976 83.512 300.976 94.564 314.872 94.564 314.872 83.512 317.464 83.512 317.464 109 314.872 109 314.872 96.94 300.976 96.94 300.976 109 298.384 109 298.384 83.512zM326.68 94.924C327.136002 93.9399951 327.891995 93.1600029 328.948 92.584 330.004005 92.0079971 331.131994 91.72 332.332 91.72 334.468011 91.72 336.069995 92.3559936 337.138 93.628 338.206005 94.9000064 338.74 96.5799896 338.74 98.668L338.74 109 336.292 109 336.292 99.676C336.292 98.7879956 336.220001 97.9840036 336.076 97.264 335.931999 96.5439964 335.686002 95.9260026 335.338 95.41 334.989998 94.8939974 334.522003 94.4920014 333.934 94.204 333.345997 93.9159986 332.608004 93.772 331.72 93.772 331.071997 93.772 330.442003 93.9039987 329.83 94.168 329.217997 94.4320013 328.672002 94.8339973 328.192 95.374 327.711998 95.9140027 327.328001 96.5979959 327.04 97.426 326.751999 98.2540041 326.608 99.2319944 326.608 100.36L326.608 109 324.16 109 324.16 81.784 326.608 81.784 326.608 94.924 326.68 94.924zM356.812 109L354.22 109 354.22 83.512 356.812 83.512 356.812 109zM365.92 109L363.472 109 363.472 92.152 365.92 92.152 365.92 109zM366.424 85.672C366.424 86.1760025 366.244002 86.5899984 365.884 86.914 365.523998 87.2380016 365.128002 87.4 364.696 87.4 364.263998 87.4 363.868002 87.2380016 363.508 86.914 363.147998 86.5899984 362.968 86.1760025 362.968 85.672 362.968 85.1679975 363.147998 84.7540016 363.508 84.43 363.868002 84.1059984 364.263998 83.944 364.696 83.944 365.128002 83.944 365.523998 84.1059984 365.884 84.43 366.244002 84.7540016 366.424 85.1679975 366.424 85.672zM381.508 103.816C381.700001 104.824005 382.149996 105.669997 382.858 106.354 383.566004 107.038003 384.495994 107.38 385.648 107.38 386.536004 107.38 387.267997 107.218002 387.844 106.894 388.420003 106.569998 388.881998 106.132003 389.23 105.58 389.578002 105.027997 389.817999 104.398004 389.95 103.69 390.082001 102.981996 390.148 102.244004 390.148 101.476L390.148 83.512 392.74 83.512 392.74 101.656C392.74 102.496004 392.650001 103.383995 392.47 104.32 392.289999 105.256005 391.948003 106.119996 391.444 106.912 390.939997 107.704004 390.244004 108.357997 389.356 108.874 388.467996 109.390003 387.328007 109.648 385.936 109.648 384.087991 109.648 382.564006 109.162005 381.364 108.19 380.163994 107.217995 379.408002 105.976008 379.096 104.464L381.508 103.816zM395.296 115.336C395.536001 115.408 395.793999 115.462 396.07 115.498 396.346001 115.534 396.603999 115.552 396.844 115.552 397.348003 115.552 397.755998 115.462001 398.068 115.282 398.380002 115.101999 398.619999 114.856002 398.788 114.544 398.956001 114.231998 399.07 113.854002 399.13 113.41 399.19 112.965998 399.22 112.480003 399.22 111.952L399.22 92.152 401.668 92.152 401.668 112.348C401.668 113.020003 401.596001 113.673997 401.452 114.31 401.307999 114.946003 401.056002 115.509998 400.696 116.002 400.335998 116.494002 399.850003 116.889999 399.238 117.19 398.625997 117.490001 397.840005 117.64 396.88 117.64 396.615999 117.64 396.304002 117.622 395.944 117.586 395.583998 117.55 395.248002 117.484 394.936 117.388L395.296 115.336zM402.172 85.672C402.172 86.1760025 401.992002 86.5899984 401.632 86.914 401.271998 87.2380016 400.876002 87.4 400.444 87.4 400.011998 87.4 399.616002 87.2380016 399.256 86.914 398.895998 86.5899984 398.716 86.1760025 398.716 85.672 398.716 85.1679975 398.895998 84.7540016 399.256 84.43 399.616002 84.1059984 400.011998 83.944 400.444 83.944 400.876002 83.944 401.271998 84.1059984 401.632 84.43 401.992002 84.7540016 402.172 85.1679975 402.172 85.672zM419.92 94.96L419.956 94.96 432.088 83.512 435.796 83.512 422.944 95.068 436.516 109 432.7 109 419.956 95.428 419.92 95.428 419.92 109 417.328 109 417.328 83.512 419.92 83.512 419.92 94.96zM442.312 99.748L442.42 99.748 450.196 92.152 453.724 92.152 445.228 99.856 454.588 109 450.988 109 442.42 100.144 442.312 100.144 442.312 109 439.864 109 439.864 81.784 442.312 81.784 442.312 99.748zM469.888 106.696L481.768 106.696 481.768 109 467.296 109 467.296 83.512 469.888 83.512 469.888 106.696zM488.032 109L485.584 109 485.584 81.784 488.032 81.784 488.032 109zM516.328 104.608L516.364 104.608 524.896 83.512 528.856 83.512 528.856 109 526.264 109 526.264 86.86 526.192 86.86 516.976 109 515.608 109 506.392 86.86 506.32 86.86 506.32 109 503.728 109 503.728 83.512 507.688 83.512 516.328 104.608zM537.892 95.032C538.372002 94.0479951 539.109995 93.2500031 540.106 92.638 541.102005 92.0259969 542.211994 91.72 543.436 91.72 543.892002 91.72 544.365998 91.7679995 544.858 91.864 545.350002 91.9600005 545.829998 92.1459986 546.298 92.422 546.766002 92.6980014 547.197998 93.0639977 547.594 93.52 547.990002 93.9760023 548.331999 94.5639964 548.62 95.284 549.196003 94.1319942 549.981995 93.2500031 550.978 92.638 551.974005 92.0259969 553.155993 91.72 554.524 91.72 556.660011 91.72 558.261995 92.3559936 559.33 93.628 560.398005 94.9000064 560.932 96.5799896 560.932 98.668L560.932 109 558.484 109 558.484 99.676C558.484 97.8999911 558.154003 96.4720054 557.494 95.392 556.833997 94.3119946 555.712008 93.772 554.128 93.772 553.239996 93.772 552.490003 93.9519982 551.878 94.312 551.265997 94.6720018 550.774002 95.1459971 550.402 95.734 550.029998 96.3220029 549.760001 96.9879963 549.592 97.732 549.423999 98.4760037 549.34 99.243996 549.34 100.036L549.34 109 546.892 109 546.892 99.172C546.892 98.3559959 546.832001 97.6120034 546.712 96.94 546.591999 96.2679966 546.382002 95.6980023 546.082 95.23 545.781999 94.7619977 545.368003 94.4020013 544.84 94.15 544.311997 93.8979987 543.640004 93.772 542.824 93.772 542.247997 93.772 541.666003 93.9039987 541.078 94.168 540.489997 94.4320013 539.962002 94.8339973 539.494 95.374 539.025998 95.9140027 538.648001 96.5979959 538.36 97.426 538.071999 98.2540041 537.928 99.2319944 537.928 100.36L537.928 109 535.48 109 535.48 95.86C535.48 95.4039977 535.468 94.8160036 535.444 94.096 535.42 93.3759964 535.384 92.7280029 535.336 92.152L537.676 92.152C537.724 92.6080023 537.76 93.1119972 537.784 93.664 537.808 94.2160028 537.82 94.6719982 537.82 95.032L537.892 95.032zM594.484 105.22L594.556 105.22 594.556 83.512 597.148 83.512 597.148 109 593.908 109 579.076 87.076 579.004 87.076 579.004 109 576.412 109 576.412 83.512 579.652 83.512 594.484 105.22zM605.968 92.152C606.016 92.6080023 606.052 93.1119972 606.076 93.664 606.1 94.2160028 606.112 94.6719982 606.112 95.032L606.184 95.032C606.664002 94.0479951 607.443995 93.2500031 608.524 92.638 609.604005 92.0259969 610.743994 91.72 611.944 91.72 614.080011 91.72 615.681995 92.3559936 616.75 93.628 617.818005 94.9000064 618.352 96.5799896 618.352 98.668L618.352 109 615.904 109 615.904 99.676C615.904 98.7879956 615.832001 97.9840036 615.688 97.264 615.543999 96.5439964 615.298002 95.9260026 614.95 95.41 614.601998 94.8939974 614.134003 94.4920014 613.546 94.204 612.957997 93.9159986 612.220004 93.772 611.332 93.772 610.683997 93.772 610.054003 93.9039987 609.442 94.168 608.829997 94.4320013 608.284002 94.8339973 607.804 95.374 607.323998 95.9140027 606.940001 96.5979959 606.652 97.426 606.363999 98.2540041 606.22 99.2319944 606.22 100.36L606.22 109 603.772 109 603.772 95.86C603.772 95.4039977 603.76 94.8160036 603.736 94.096 603.712 93.3759964 603.676 92.7280029 603.628 92.152L605.968 92.152zM323.584 161.256C323.584 163.20001 323.248003 164.987992 322.576 166.62 321.903997 168.252008 320.974006 169.661994 319.786 170.85 318.597994 172.038006 317.194008 172.967997 315.574 173.64 313.953992 174.312003 312.196009 174.648 310.3 174.648 308.403991 174.648 306.646008 174.312003 305.026 173.64 303.405992 172.967997 302.002006 172.038006 300.814 170.85 299.625994 169.661994 298.696003 168.252008 298.024 166.62 297.351997 164.987992 297.016 163.20001 297.016 161.256 297.016 159.31199 297.351997 157.524008 298.024 155.892 298.696003 154.259992 299.625994 152.850006 300.814 151.662 302.002006 150.473994 303.405992 149.544003 305.026 148.872 306.646008 148.199997 308.403991 147.864 310.3 147.864 312.196009 147.864 313.953992 148.199997 315.574 148.872 317.194008 149.544003 318.597994 150.473994 319.786 151.662 320.974006 152.850006 321.903997 154.259992 322.576 155.892 323.248003 157.524008 323.584 159.31199 323.584 161.256zM320.848 161.256C320.848 159.767993 320.608002 158.352007 320.128 157.008 319.647998 155.663993 318.952005 154.482005 318.04 153.462 317.127995 152.441995 316.018007 151.632003 314.71 151.032 313.401993 150.431997 311.932008 150.132 310.3 150.132 308.667992 150.132 307.198007 150.431997 305.89 151.032 304.581993 151.632003 303.472005 152.441995 302.56 153.462 301.647995 154.482005 300.952002 155.663993 300.472 157.008 299.991998 158.352007 299.752 159.767993 299.752 161.256 299.752 162.744007 299.991998 164.159993 300.472 165.504 300.952002 166.848007 301.647995 168.023995 302.56 169.032 303.472005 170.040005 304.581993 170.843997 305.89 171.444 307.198007 172.044003 308.667992 172.344 310.3 172.344 311.932008 172.344 313.401993 172.044003 314.71 171.444 316.018007 170.843997 317.127995 170.040005 318.04 169.032 318.952005 168.023995 319.647998 166.848007 320.128 165.504 320.608002 164.159993 320.848 162.744007 320.848 161.256zM345.58 165.576C345.58 166.848006 345.358002 168.023995 344.914 169.104 344.469998 170.184005 343.852004 171.119996 343.06 171.912 342.267996 172.704004 341.320006 173.321998 340.216 173.766 339.111994 174.210002 337.900007 174.432 336.58 174.432 335.283994 174.432 334.084006 174.210002 332.98 173.766 331.875994 173.321998 330.928004 172.704004 330.136 171.912 329.343996 171.119996 328.726002 170.184005 328.282 169.104 327.837998 168.023995 327.616 166.848006 327.616 165.576 327.616 164.303994 327.837998 163.128005 328.282 162.048 328.726002 160.967995 329.343996 160.032004 330.136 159.24 330.928004 158.447996 331.875994 157.830002 332.98 157.386 334.084006 156.941998 335.283994 156.72 336.58 156.72 337.900007 156.72 339.111994 156.941998 340.216 157.386 341.320006 157.830002 342.267996 158.447996 343.06 159.24 343.852004 160.032004 344.469998 160.967995 344.914 162.048 345.358002 163.128005 345.58 164.303994 345.58 165.576zM342.988 165.576C342.988 164.639995 342.838002 163.758004 342.538 162.93 342.237999 162.101996 341.812003 161.382003 341.26 160.77 340.707997 160.157997 340.036004 159.672002 339.244 159.312 338.451996 158.951998 337.564005 158.772 336.58 158.772 335.595995 158.772 334.714004 158.951998 333.934 159.312 333.153996 159.672002 332.488003 160.157997 331.936 160.77 331.383997 161.382003 330.958002 162.101996 330.658 162.93 330.357999 163.758004 330.208 164.639995 330.208 165.576 330.208 166.512005 330.357999 167.393996 330.658 168.222 330.958002 169.050004 331.383997 169.769997 331.936 170.382 332.488003 170.994003 333.153996 171.473998 333.934 171.822 334.714004 172.170002 335.595995 172.344 336.58 172.344 337.564005 172.344 338.451996 172.170002 339.244 171.822 340.036004 171.473998 340.707997 170.994003 341.26 170.382 341.812003 169.769997 342.237999 169.050004 342.538 168.222 342.838002 167.393996 342.988 166.512005 342.988 165.576zM359.98 148.512L367.18 148.512C368.476006 148.512 369.651995 148.649999 370.708 148.926 371.764005 149.202001 372.669996 149.621997 373.426 150.186 374.182004 150.750003 374.763998 151.457996 375.172 152.31 375.580002 153.162004 375.784 154.163994 375.784 155.316 375.784 156.468006 375.574002 157.469996 375.154 158.322 374.733998 159.174004 374.146004 159.881997 373.39 160.446 372.633996 161.010003 371.722005 161.435999 370.654 161.724 369.585995 162.012001 368.404006 162.156 367.108 162.156L362.572 162.156 362.572 174 359.98 174 359.98 148.512zM362.572 159.96L366.964 159.96C369.00401 159.96 370.551995 159.564004 371.608 158.772 372.664005 157.979996 373.192 156.828008 373.192 155.316 373.192 153.731992 372.646005 152.574004 371.554 151.842 370.461995 151.109996 368.93201 150.744 366.964 150.744L362.572 150.744 362.572 159.96zM383.164 182.64L380.716 182.64 380.716 157.152 383.164 157.152 383.164 160.068 383.272 160.068C383.968003 158.963994 384.897994 158.130003 386.062 157.566 387.226006 157.001997 388.407994 156.72 389.608 156.72 390.928007 156.72 392.121995 156.947998 393.19 157.404 394.258005 157.860002 395.169996 158.483996 395.926 159.276 396.682004 160.068004 397.269998 161.003995 397.69 162.084 398.110002 163.164005 398.32 164.327994 398.32 165.576 398.32 166.824006 398.110002 167.987995 397.69 169.068 397.269998 170.148005 396.682004 171.083996 395.926 171.876 395.169996 172.668004 394.258005 173.291998 393.19 173.748 392.121995 174.204002 390.928007 174.432 389.608 174.432 388.407994 174.432 387.226006 174.150003 386.062 173.586 384.897994 173.021997 383.968003 172.212005 383.272 171.156L383.164 171.156 383.164 182.64zM395.728 165.576C395.728 164.639995 395.584001 163.758004 395.296 162.93 395.007999 162.101996 394.594003 161.382003 394.054 160.77 393.513997 160.157997 392.848004 159.672002 392.056 159.312 391.263996 158.951998 390.364005 158.772 389.356 158.772 388.419995 158.772 387.556004 158.945998 386.764 159.294 385.971996 159.642002 385.288003 160.121997 384.712 160.734 384.135997 161.346003 383.686002 162.065996 383.362 162.894 383.037998 163.722004 382.876 164.615995 382.876 165.576 382.876 166.536005 383.037998 167.429996 383.362 168.258 383.686002 169.086004 384.135997 169.799997 384.712 170.4 385.288003 171.000003 385.971996 171.473998 386.764 171.822 387.556004 172.170002 388.419995 172.344 389.356 172.344 390.364005 172.344 391.263996 172.170002 392.056 171.822 392.848004 171.473998 393.513997 170.994003 394.054 170.382 394.594003 169.769997 395.007999 169.050004 395.296 168.222 395.584001 167.393996 395.728 166.512005 395.728 165.576zM414.088 160.932C414.088 162.372007 414.321998 163.739994 414.79 165.036 415.258002 166.332006 415.923996 167.477995 416.788 168.474 417.652004 169.470005 418.713994 170.261997 419.974 170.85 421.234006 171.438003 422.655992 171.732 424.24 171.732 425.800008 171.732 427.209994 171.438003 428.47 170.85 429.730006 170.261997 430.797996 169.470005 431.674 168.474 432.550004 167.477995 433.227998 166.332006 433.708 165.036 434.188002 163.739994 434.428 162.372007 434.428 160.932 434.428 159.491993 434.188002 158.124006 433.708 156.828 433.227998 155.531994 432.550004 154.386005 431.674 153.39 430.797996 152.393995 429.730006 151.602003 428.47 151.014 427.209994 150.425997 425.800008 150.132 424.24 150.132 422.655992 150.132 421.234006 150.425997 419.974 151.014 418.713994 151.602003 417.652004 152.393995 416.788 153.39 415.923996 154.386005 415.258002 155.531994 414.79 156.828 414.321998 158.124006 414.088 159.491993 414.088 160.932zM438.82 174L424.24 174C422.391991 174 420.682008 173.676003 419.11 173.028 417.537992 172.379997 416.176006 171.474006 415.024 170.31 413.871994 169.145994 412.972003 167.766008 412.324 166.17 411.675997 164.573992 411.352 162.828009 411.352 160.932 411.352 159.035991 411.675997 157.290008 412.324 155.694 412.972003 154.097992 413.871994 152.718006 415.024 151.554 416.176006 150.389994 417.537992 149.484003 419.11 148.836 420.682008 148.187997 422.391991 147.864 424.24 147.864 426.064009 147.864 427.761992 148.187997 429.334 148.836 430.906008 149.484003 432.267994 150.389994 433.42 151.554 434.572006 152.718006 435.471997 154.097992 436.12 155.694 436.768003 157.290008 437.092 159.035991 437.092 160.932 437.092 163.188011 436.594005 165.245991 435.598 167.106 434.601995 168.966009 433.10801 170.471994 431.116 171.624L431.116 171.696 438.82 171.696 438.82 174zM456.748 171.156C456.051997 172.212005 455.122006 173.021997 453.958 173.586 452.793994 174.150003 451.612006 174.432 450.412 174.432 449.091993 174.432 447.898005 174.204002 446.83 173.748 445.761995 173.291998 444.850004 172.668004 444.094 171.876 443.337996 171.083996 442.750002 170.148005 442.33 169.068 441.909998 167.987995 441.7 166.824006 441.7 165.576 441.7 164.327994 441.909998 163.164005 442.33 162.084 442.750002 161.003995 443.337996 160.068004 444.094 159.276 444.850004 158.483996 445.761995 157.860002 446.83 157.404 447.898005 156.947998 449.091993 156.72 450.412 156.72 451.612006 156.72 452.793994 157.001997 453.958 157.566 455.122006 158.130003 456.051997 158.963994 456.748 160.068L456.856 160.068 456.856 157.152 459.304 157.152 459.304 182.64 456.856 182.64 456.856 171.156 456.748 171.156zM444.292 165.576C444.292 166.512005 444.435999 167.393996 444.724 168.222 445.012001 169.050004 445.425997 169.769997 445.966 170.382 446.506003 170.994003 447.171996 171.473998 447.964 171.822 448.756004 172.170002 449.655995 172.344 450.664 172.344 451.600005 172.344 452.463996 172.170002 453.256 171.822 454.048004 171.473998 454.731997 171.000003 455.308 170.4 455.884003 169.799997 456.333998 169.086004 456.658 168.258 456.982002 167.429996 457.144 166.536005 457.144 165.576 457.144 164.615995 456.982002 163.722004 456.658 162.894 456.333998 162.065996 455.884003 161.346003 455.308 160.734 454.731997 160.121997 454.048004 159.642002 453.256 159.294 452.463996 158.945998 451.600005 158.772 450.664 158.772 449.655995 158.772 448.756004 158.951998 447.964 159.312 447.171996 159.672002 446.506003 160.157997 445.966 160.77 445.425997 161.382003 445.012001 162.101996 444.724 162.93 444.435999 163.758004 444.292 164.639995 444.292 165.576zM477.52 174L474.928 174 474.928 148.512 482.416 148.512C483.664006 148.512 484.821995 148.631999 485.89 148.872 486.958005 149.112001 487.881996 149.501997 488.662 150.042 489.442004 150.582003 490.047998 151.283996 490.48 152.148 490.912002 153.012004 491.128 154.067994 491.128 155.316 491.128 156.252005 490.960002 157.103996 490.624 157.872 490.287998 158.640004 489.832003 159.305997 489.256 159.87 488.679997 160.434003 487.996004 160.883998 487.204 161.22 486.411996 161.556002 485.548005 161.772 484.612 161.868L492.064 174 488.896 174 481.84 162.084 477.52 162.084 477.52 174zM477.52 159.852L482.02 159.852C484.10801 159.852 485.715994 159.474004 486.844 158.718 487.972006 157.961996 488.536 156.828008 488.536 155.316 488.536 154.475996 488.380002 153.768003 488.068 153.192 487.755998 152.615997 487.324003 152.148002 486.772 151.788 486.219997 151.427998 485.548004 151.164001 484.756 150.996 483.963996 150.827999 483.088005 150.744 482.128 150.744L477.52 150.744 477.52 159.852zM496.348 160.86C496.348 160.403998 496.336 159.816004 496.312 159.096 496.288 158.375996 496.252 157.728003 496.204 157.152L498.544 157.152C498.592 157.608002 498.628 158.111997 498.652 158.664 498.676 159.216003 498.688 159.671998 498.688 160.032L498.76 160.032C499.240002 159.047995 499.959995 158.250003 500.92 157.638 501.880005 157.025997 502.959994 156.72 504.16 156.72 504.472002 156.72 504.753999 156.732 505.006 156.756 505.258001 156.78 505.515999 156.828 505.78 156.9L505.456 159.204C505.311999 159.156 505.072002 159.108 504.736 159.06 504.399998 159.012 504.064002 158.988 503.728 158.988 503.079997 158.988 502.456003 159.107999 501.856 159.348 501.255997 159.588001 500.734002 159.965997 500.29 160.482 499.845998 160.998003 499.486001 161.657996 499.21 162.462 498.933999 163.266004 498.796 164.231994 498.796 165.36L498.796 174 496.348 174 496.348 160.86zM530.8 152.616C530.247997 151.847996 529.540004 151.230002 528.676 150.762 527.811996 150.293998 526.768006 150.06 525.544 150.06 524.919997 150.06 524.284003 150.155999 523.636 150.348 522.987997 150.540001 522.400003 150.833998 521.872 151.23 521.343997 151.626002 520.918002 152.123997 520.594 152.724 520.269998 153.324003 520.108 154.031996 520.108 154.848 520.108 155.664004 520.263998 156.335997 520.576 156.864 520.888002 157.392003 521.301997 157.841998 521.818 158.214 522.334003 158.586002 522.921997 158.891999 523.582 159.132 524.242003 159.372001 524.931996 159.611999 525.652 159.852 526.540004 160.140001 527.433996 160.451998 528.334 160.788 529.234005 161.124002 530.043996 161.561997 530.764 162.102 531.484004 162.642003 532.071998 163.325996 532.528 164.154 532.984002 164.982004 533.212 166.031994 533.212 167.304 533.212 168.576006 532.966002 169.673995 532.474 170.598 531.981998 171.522005 531.346004 172.283997 530.566 172.884 529.785996 173.484003 528.898005 173.927999 527.902 174.216 526.905995 174.504001 525.904005 174.648 524.896 174.648 524.127996 174.648 523.360004 174.570001 522.592 174.414 521.823996 174.257999 521.092003 174.024002 520.396 173.712 519.699997 173.399998 519.052003 173.004002 518.452 172.524 517.851997 172.043998 517.324002 171.492003 516.868 170.868L519.1 169.212C519.652003 170.124005 520.425995 170.885997 521.422 171.498 522.418005 172.110003 523.587993 172.416 524.932 172.416 525.580003 172.416 526.239997 172.314001 526.912 172.11 527.584003 171.905999 528.189997 171.594002 528.73 171.174 529.270003 170.753998 529.713998 170.238003 530.062 169.626 530.410002 169.013997 530.584 168.300004 530.584 167.484 530.584 166.595996 530.410002 165.858003 530.062 165.27 529.713998 164.681997 529.252003 164.190002 528.676 163.794 528.099997 163.397998 527.440004 163.068001 526.696 162.804 525.951996 162.539999 525.172004 162.276001 524.356 162.012 523.515996 161.747999 522.688004 161.448002 521.872 161.112 521.055996 160.775998 520.324003 160.338003 519.676 159.798 519.027997 159.257997 518.506002 158.592004 518.11 157.8 517.713998 157.007996 517.516 156.036006 517.516 154.884 517.516 153.659994 517.761998 152.604004 518.254 151.716 518.746002 150.827996 519.387996 150.096003 520.18 149.52 520.972004 148.943997 521.847995 148.524001 522.808 148.26 523.768005 147.995999 524.715995 147.864 525.652 147.864 527.380009 147.864 528.855994 148.169997 530.08 148.782 531.304006 149.394003 532.227997 150.119996 532.852 150.96L530.8 152.616zM547.576 161.148C547.215998 160.451997 546.670004 159.882002 545.938 159.438 545.205996 158.993998 544.372005 158.772 543.436 158.772 543.003998 158.772 542.572002 158.82 542.14 158.916 541.707998 159.012 541.324002 159.167999 540.988 159.384 540.651998 159.600001 540.382001 159.875998 540.178 160.212 539.973999 160.548002 539.872 160.943998 539.872 161.4 539.872 162.192004 540.195997 162.797998 540.844 163.218 541.492003 163.638002 542.511993 163.991999 543.904 164.28 545.89601 164.688002 547.365995 165.281996 548.314 166.062 549.262005 166.842004 549.736 167.891993 549.736 169.212 549.736 170.172005 549.550002 170.981997 549.178 171.642 548.805998 172.302003 548.320003 172.841998 547.72 173.262 547.119997 173.682002 546.442004 173.981999 545.686 174.162 544.929996 174.342001 544.168004 174.432 543.4 174.432 542.127994 174.432 540.892006 174.168003 539.692 173.64 538.491994 173.111997 537.508004 172.284006 536.74 171.156L538.684 169.716C539.116002 170.460004 539.751996 171.083997 540.592 171.588 541.432004 172.092003 542.355995 172.344 543.364 172.344 543.892003 172.344 544.395998 172.296 544.876 172.2 545.356002 172.104 545.775998 171.936001 546.136 171.696 546.496002 171.455999 546.783999 171.150002 547 170.778 547.216001 170.405998 547.324 169.944003 547.324 169.392 547.324 168.503996 546.898004 167.838002 546.046 167.394 545.193996 166.949998 543.964008 166.536002 542.356 166.152 541.851997 166.031999 541.318003 165.882001 540.754 165.702 540.189997 165.521999 539.668002 165.258002 539.188 164.91 538.707998 164.561998 538.312002 164.124003 538 163.596 537.687998 163.067997 537.532 162.408004 537.532 161.616 537.532 160.751996 537.699998 160.014003 538.036 159.402 538.372002 158.789997 538.821997 158.286002 539.386 157.89 539.950003 157.493998 540.591996 157.200001 541.312 157.008 542.032004 156.815999 542.775996 156.72 543.544 156.72 544.720006 156.72 545.859994 156.983997 546.964 157.512 548.068006 158.040003 548.895997 158.783995 549.448 159.744L547.576 161.148zM571.912 174L569.32 174 569.32 150.816 560.788 150.816 560.788 148.512 580.444 148.512 580.444 150.816 571.912 150.816 571.912 174zM591.712 159.204L586.96 159.204 586.96 169.032C586.96 169.656003 587.019999 170.171998 587.14 170.58 587.260001 170.988002 587.433999 171.305999 587.662 171.534 587.890001 171.762001 588.159998 171.918 588.472 172.002 588.784002 172.086 589.119998 172.128 589.48 172.128 589.816002 172.128 590.169998 172.08 590.542 171.984 590.914002 171.888 591.267998 171.756001 591.604 171.588L591.712 173.712C591.279998 173.880001 590.830002 174.006 590.362 174.09 589.893998 174.174 589.384003 174.216 588.832 174.216 588.375998 174.216 587.896003 174.156001 587.392 174.036 586.887997 173.915999 586.420002 173.688002 585.988 173.352 585.555998 173.015998 585.202001 172.560003 584.926 171.984 584.649999 171.407997 584.512 170.652005 584.512 169.716L584.512 159.204 581.02 159.204 581.02 157.152 584.512 157.152 584.512 152.4 586.96 152.4 586.96 157.152 591.712 157.152 591.712 159.204zM614.068 174.648C612.14799 174.648 610.576006 174.318003 609.352 173.658 608.127994 172.997997 607.156004 172.164005 606.436 171.156 605.715996 170.147995 605.218001 169.050006 604.942 167.862 604.665999 166.673994 604.528 165.552005 604.528 164.496L604.528 148.512 607.12 148.512 607.12 164.208C607.12 165.240005 607.239999 166.241995 607.48 167.214 607.720001 168.186005 608.109997 169.049996 608.65 169.806 609.190003 170.562004 609.903996 171.173998 610.792 171.642 611.680004 172.110002 612.771994 172.344 614.068 172.344 615.364006 172.344 616.455996 172.110002 617.344 171.642 618.232004 171.173998 618.945997 170.562004 619.486 169.806 620.026003 169.049996 620.415999 168.186005 620.656 167.214 620.896001 166.241995 621.016 165.240005 621.016 164.208L621.016 148.512 623.608 148.512 623.608 164.496C623.608 165.552005 623.470001 166.673994 623.194 167.862 622.917999 169.050006 622.420004 170.147995 621.7 171.156 620.979996 172.164005 620.002006 172.997997 618.766 173.658 617.529994 174.318003 615.964009 174.648 614.068 174.648zM642.328 174C642.28 173.543998 642.244 173.040003 642.22 172.488 642.196 171.935997 642.184 171.480002 642.184 171.12L642.112 171.12C641.631998 172.104005 640.852005 172.901997 639.772 173.514 638.691995 174.126003 637.552006 174.432 636.352 174.432 634.215989 174.432 632.614005 173.796006 631.546 172.524 630.477995 171.251994 629.944 169.57201 629.944 167.484L629.944 157.152 632.392 157.152 632.392 166.476C632.392 167.364004 632.463999 168.167996 632.608 168.888 632.752001 169.608004 632.997998 170.225997 633.346 170.742 633.694002 171.258003 634.161997 171.659999 634.75 171.948 635.338003 172.236001 636.075996 172.38 636.964 172.38 637.612003 172.38 638.241997 172.248001 638.854 171.984 639.466003 171.719999 640.011998 171.318003 640.492 170.778 640.972002 170.237997 641.355999 169.554004 641.644 168.726 641.932001 167.897996 642.076 166.920006 642.076 165.792L642.076 157.152 644.524 157.152 644.524 170.292C644.524 170.748002 644.536 171.335996 644.56 172.056 644.584 172.776004 644.62 173.423997 644.668 174L642.328 174zM306.196 235.652L306.268 235.652 314.548 213.512 317.32 213.512 307.564 239 304.828 239 295.108 213.512 297.916 213.512 306.196 235.652zM327.58 239L324.88 239 318.004 222.152 320.74 222.152 326.212 236.408 326.284 236.408 331.792 222.152 334.42 222.152 327.58 239zM353.536 235.436L353.608 235.436 359.98 213.512 363.076 213.512 369.448 235.436 369.52 235.436 375.748 213.512 378.484 213.512 370.96 239 367.936 239 361.528 217.112 361.456 217.112 355.048 239 352.024 239 344.5 213.512 347.236 213.512 353.536 235.436zM382.552 222.152L386.62 235.832 386.692 235.832 391.228 222.152 393.604 222.152 398.212 235.832 398.284 235.832 402.316 222.152 404.908 222.152 399.58 239 396.916 239 392.416 225.356 392.344 225.356 387.916 239 385.252 239 379.924 222.152 382.552 222.152zM426.58 223.808L433.528 213.512 436.624 213.512 428.164 225.644 437.524 239 434.284 239 426.508 227.516 418.768 239 415.528 239 424.888 225.608 416.356 213.512 419.596 213.512 426.58 223.808zM445.408 230.288L439.18 222.152 442.312 222.152 446.92 228.56 451.528 222.152 454.48 222.152 448.36 230.18 455.056 239 451.888 239 446.884 231.98 441.736 239 438.784 239 445.408 230.288zM476.764 239L474.172 239 474.172 228.02 464.632 213.512 467.872 213.512 475.54 225.86 483.28 213.512 486.304 213.512 476.764 228.02 476.764 239zM495.34 236.372L495.412 236.372 500.632 222.152 503.296 222.152 494.908 243.356C494.403997 244.652006 493.762004 245.689996 492.982 246.47 492.201996 247.250004 491.080007 247.64 489.616 247.64 488.871996 247.64 488.140004 247.568001 487.42 247.424L487.672 245.192C488.248003 245.384001 488.847997 245.48 489.472 245.48 490.312004 245.48 490.971998 245.222003 491.452 244.706 491.932002 244.189997 492.351998 243.452005 492.712 242.492L494.08 238.964 486.88 222.152 489.616 222.152 495.34 236.372zM532.132 215.672L517.264 236.696 532.348 236.696 532.348 239 513.988 239 513.988 236.84 528.892 215.816 514.384 215.816 514.384 213.512 532.132 213.512 532.132 215.672zM547.9 223.88L537.82 236.876 548.26 236.876 548.26 239 534.58 239 534.58 237.272 544.624 224.204 535.084 224.204 535.084 222.152 547.9 222.152 547.9 223.88z"/>
  </g>
</svg>
