<svg xmlns="http://www.w3.org/2000/svg" width="656" height="246"><g fill="none" fill-rule="evenodd"><path fill="#8B949B" d="M2.797 15V.781h4.2c.722 0 1.37.073 1.942.22.573.146 1.06.371 1.46.674.4.303.708.688.923 1.157.215.469.323 1.025.323 1.67 0 .365-.05.708-.152 1.03-.1.322-.249.617-.444.884s-.431.5-.708.698c-.277.199-.591.357-.943.474a3.55 3.55 0 0 1 1.133.454 3.41 3.41 0 0 1 1.426 1.782c.13.371.195.762.195 1.172 0 .651-.109 1.226-.327 1.724a3.408 3.408 0 0 1-.928 1.255c-.4.338-.88.594-1.44.766A6.28 6.28 0 0 1 7.602 15H2.797zm1.201-6.836v5.82h3.604c.52 0 .988-.068 1.4-.205a3.013 3.013 0 0 0 1.056-.586c.29-.254.51-.564.664-.932.153-.368.23-.783.23-1.245 0-.398-.066-.77-.196-1.119a2.397 2.397 0 0 0-.6-.908 2.85 2.85 0 0 0-1.016-.605c-.407-.147-.887-.22-1.44-.22H3.997zm0-1.006h3.281c1.003-.02 1.78-.255 2.33-.708.55-.452.825-1.111.825-1.977 0-.912-.285-1.584-.855-2.017-.57-.433-1.43-.65-2.583-.65H3.998v5.352zM20.376 5.43a4.365 4.365 0 0 0-.79-.069c-.398 0-.756.059-1.075.176-.319.117-.6.282-.845.493-.244.212-.449.463-.615.752a4.17 4.17 0 0 0-.395.962V15h-1.162V4.434h1.142l.02 1.68a3.497 3.497 0 0 1 1.167-1.373c.491-.335 1.095-.503 1.811-.503.143 0 .29.013.44.04.15.025.26.055.332.087l-.03 1.065zm8.84 9.57a3.357 3.357 0 0 1-.152-.669 9.257 9.257 0 0 1-.073-.806 4.152 4.152 0 0 1-1.435 1.172 4.701 4.701 0 0 1-2.148.498 4.15 4.15 0 0 1-1.402-.224c-.42-.15-.778-.36-1.074-.63a2.846 2.846 0 0 1-.933-2.144c0-.514.11-.978.332-1.391a3.01 3.01 0 0 1 .957-1.055c.417-.29.923-.511 1.519-.664a8.078 8.078 0 0 1 2.006-.23h2.168v-1.2c0-.756-.232-1.35-.698-1.783-.465-.433-1.144-.65-2.036-.65-.41 0-.788.056-1.133.167a2.86 2.86 0 0 0-.893.459 2.18 2.18 0 0 0-.586.678 1.7 1.7 0 0 0-.21.826l-1.172-.01c0-.397.097-.781.293-1.153.195-.37.47-.701.825-.99.355-.29.781-.523 1.28-.699a4.946 4.946 0 0 1 1.655-.264c.56 0 1.075.072 1.547.215.472.143.878.358 1.216.645.339.286.602.644.791 1.074.189.43.283.93.283 1.504v5.117c0 .182.007.371.02.566.013.196.034.384.063.567.03.182.064.356.103.522.039.166.085.311.137.435V15h-1.25zm-3.672-.84c.423 0 .815-.054 1.177-.161.36-.107.688-.256.981-.444.293-.19.547-.409.762-.66a3.32 3.32 0 0 0 .517-.815V9.756H26.98a7.27 7.27 0 0 0-1.606.161c-.472.107-.87.262-1.196.464a2.19 2.19 0 0 0-.747.737c-.173.29-.26.617-.26.982 0 .286.056.555.167.805.11.25.268.469.473.655.205.185.455.332.747.439.293.107.622.161.987.161zm9.542-9.726l.04 1.806c.182-.3.392-.573.63-.82a3.834 3.834 0 0 1 2.817-1.182c.527 0 .999.072 1.416.215.416.143.77.371 1.06.684.289.312.51.714.663 1.206.153.491.23 1.085.23 1.782V15H40.78V8.115c0-.547-.059-1.002-.176-1.367-.117-.365-.283-.658-.498-.879a1.812 1.812 0 0 0-.786-.473 3.52 3.52 0 0 0-1.03-.142c-.417 0-.795.07-1.133.21-.339.14-.638.327-.899.561a3.74 3.74 0 0 0-.674.806 4.626 4.626 0 0 0-.449.933V15h-1.162V4.434h1.113zm10.119 5.185c0-.82.094-1.56.283-2.222.189-.66.459-1.225.81-1.694a3.63 3.63 0 0 1 1.285-1.084c.504-.254 1.072-.38 1.704-.38.749 0 1.391.149 1.929.449.537.299.981.712 1.333 1.24V0h1.162v15h-1.094l-.049-1.406a3.71 3.71 0 0 1-1.343 1.177c-.543.283-1.196.424-1.958.424a3.573 3.573 0 0 1-1.69-.395 3.77 3.77 0 0 1-1.278-1.104c-.352-.472-.622-1.036-.811-1.694a7.874 7.874 0 0 1-.283-2.178V9.62zm1.181.205c0 .619.062 1.193.186 1.724.124.53.312.991.566 1.382.254.39.575.696.962.918.388.221.848.332 1.382.332.397 0 .757-.048 1.08-.142.322-.094.608-.226.859-.395.25-.17.468-.372.654-.606.185-.234.343-.488.474-.762v-4.96a4.736 4.736 0 0 0-.43-.772 2.92 2.92 0 0 0-1.485-1.118 3.426 3.426 0 0 0-1.132-.171c-.54 0-1.006.112-1.397.337-.39.224-.713.532-.967.923-.254.39-.442.853-.566 1.386a7.602 7.602 0 0 0-.186 1.72v.204zm10.47-.263c0-.769.113-1.478.337-2.13a5.044 5.044 0 0 1 .953-1.684c.41-.472.905-.841 1.484-1.108.58-.267 1.224-.4 1.934-.4.722 0 1.375.133 1.958.4.582.267 1.079.636 1.489 1.108.41.472.726 1.034.947 1.685.222.65.332 1.36.332 2.129v.322c0 .768-.11 1.478-.332 2.129a4.979 4.979 0 0 1-.947 1.684c-.41.472-.905.84-1.484 1.104-.58.263-1.228.395-1.944.395s-1.364-.132-1.943-.395a4.351 4.351 0 0 1-1.49-1.104 4.998 4.998 0 0 1-.957-1.684 6.488 6.488 0 0 1-.336-2.13v-.321zm1.172.322c0 .58.079 1.131.235 1.655.156.524.384.983.683 1.377.3.394.671.708 1.114.942.442.235.95.352 1.523.352s1.08-.117 1.519-.352c.44-.234.809-.548 1.108-.942.3-.394.527-.853.684-1.377a5.763 5.763 0 0 0 .234-1.655V9.56c0-.567-.078-1.112-.234-1.636a4.322 4.322 0 0 0-.684-1.382 3.363 3.363 0 0 0-1.118-.952c-.446-.238-.955-.357-1.528-.357-.567 0-1.07.12-1.51.357-.439.237-.808.555-1.108.952-.3.397-.527.858-.683 1.382a5.695 5.695 0 0 0-.235 1.636v.322zm12.502-5.45l.039 1.807c.182-.3.392-.573.63-.82a3.834 3.834 0 0 1 2.817-1.182c.528 0 1 .072 1.416.215.417.143.77.371 1.06.684.29.312.51.714.664 1.206.153.491.23 1.085.23 1.782V15h-1.163V8.115c0-.547-.058-1.002-.176-1.367-.117-.365-.283-.658-.498-.879a1.812 1.812 0 0 0-.786-.473 3.52 3.52 0 0 0-1.03-.142c-.417 0-.794.07-1.133.21-.338.14-.638.327-.898.561a3.74 3.74 0 0 0-.674.806 4.626 4.626 0 0 0-.45.933V15h-1.161V4.434h1.113zM13.06 43.312c-.123.175-.31.374-.561.595-.25.222-.576.427-.977.615-.4.19-.882.349-1.445.479-.563.13-1.216.195-1.958.195-.84 0-1.608-.151-2.305-.454a5.143 5.143 0 0 1-1.801-1.299c-.505-.563-.897-1.245-1.177-2.046-.28-.8-.42-1.699-.42-2.695v-1.728c0-.977.127-1.86.38-2.647.255-.788.621-1.458 1.1-2.012a4.862 4.862 0 0 1 1.733-1.279c.677-.3 1.442-.45 2.295-.45.788 0 1.484.107 2.09.318a4.53 4.53 0 0 1 1.543.884c.423.378.758.822 1.005 1.333.248.511.41 1.066.489 1.665H11.85a4.836 4.836 0 0 0-.371-1.21 3.158 3.158 0 0 0-.733-1.012 3.479 3.479 0 0 0-1.157-.693c-.46-.172-1.01-.259-1.655-.259-.697 0-1.312.129-1.846.386a3.81 3.81 0 0 0-1.353 1.084c-.367.466-.646 1.027-.835 1.685a7.913 7.913 0 0 0-.283 2.187v1.748c0 .834.108 1.587.322 2.26.215.675.52 1.25.914 1.725.393.475.867.843 1.42 1.103a4.28 4.28 0 0 0 1.846.39c.547 0 1.029-.04 1.445-.121a5.957 5.957 0 0 0 1.084-.308c.306-.124.559-.257.757-.4.199-.144.35-.28.454-.41v-3.672H8.041v-1.016h5.02v5.059zm8.732-7.881a4.365 4.365 0 0 0-.79-.069c-.398 0-.756.059-1.075.176-.319.117-.6.282-.845.493-.244.212-.449.463-.615.752a4.17 4.17 0 0 0-.395.962V45H16.91V34.434h1.142l.02 1.68a3.497 3.497 0 0 1 1.167-1.373c.491-.335 1.095-.503 1.811-.503.143 0 .29.013.44.04.15.025.26.055.332.087l-.03 1.065zm1.72 4.13c0-.768.113-1.477.337-2.128a5.044 5.044 0 0 1 .953-1.685c.41-.472.905-.841 1.484-1.108.58-.267 1.224-.4 1.934-.4.722 0 1.375.133 1.958.4.582.267 1.079.636 1.489 1.108.41.472.726 1.034.947 1.685.221.65.332 1.36.332 2.129v.322c0 .768-.11 1.478-.332 2.129a4.979 4.979 0 0 1-.947 1.684c-.41.472-.905.84-1.485 1.104-.579.263-1.227.395-1.943.395s-1.364-.132-1.943-.395a4.351 4.351 0 0 1-1.49-1.104 4.998 4.998 0 0 1-.957-1.684 6.488 6.488 0 0 1-.336-2.13v-.321zm1.172.323c0 .58.079 1.131.235 1.655.156.524.384.983.683 1.377.3.394.671.708 1.114.942.442.235.95.352 1.523.352s1.08-.117 1.519-.352c.44-.234.809-.548 1.108-.942.3-.394.527-.853.684-1.377a5.763 5.763 0 0 0 .234-1.655v-.322c0-.567-.078-1.112-.234-1.636a4.322 4.322 0 0 0-.684-1.382 3.363 3.363 0 0 0-1.118-.952c-.446-.238-.955-.357-1.528-.357-.567 0-1.07.12-1.51.357-.439.237-.808.555-1.108.952-.3.397-.527.858-.683 1.382a5.695 5.695 0 0 0-.235 1.636v.322zm13.205-8.154v2.705h2.187v.957H37.89v7.04c0 .372.037.67.112.894.075.225.176.4.303.528a.942.942 0 0 0 .44.253c.165.043.34.064.522.064.176 0 .345-.011.508-.034l.44-.064.048.957c-.143.052-.33.093-.562.122a5.47 5.47 0 0 1-.688.044 3.1 3.1 0 0 1-.923-.132 1.654 1.654 0 0 1-.727-.454c-.202-.214-.36-.5-.474-.854-.114-.355-.17-.796-.17-1.323V35.39h-1.944v-.957h1.943v-2.705h1.172zm9.415 13.466c-.69 0-1.324-.128-1.904-.385a4.46 4.46 0 0 1-1.499-1.075 4.938 4.938 0 0 1-.981-1.635 5.936 5.936 0 0 1-.352-2.08v-.42c0-.814.122-1.551.366-2.212.244-.661.575-1.224.992-1.69a4.445 4.445 0 0 1 1.44-1.079 4.024 4.024 0 0 1 1.724-.38c.67 0 1.266.12 1.787.36.52.241.958.577 1.313 1.006.355.43.624.941.806 1.534.182.592.273 1.24.273 1.943v.713H43.73v.225c0 .579.088 1.124.264 1.635.176.511.423.956.742 1.333.32.378.7.676 1.143.894.442.218.934.327 1.474.327.625 0 1.177-.114 1.656-.342.478-.228.913-.592 1.303-1.094l.733.557c-.176.254-.38.495-.61.723-.232.228-.5.426-.806.595-.306.17-.651.303-1.036.4a5.237 5.237 0 0 1-1.289.147zm-.214-9.96a2.973 2.973 0 0 0-2.232.976c-.29.312-.527.688-.713 1.128-.185.44-.31.926-.376 1.46h6.338v-.127a4.715 4.715 0 0 0-.215-1.284c-.13-.414-.32-.78-.571-1.099a2.816 2.816 0 0 0-.933-.767c-.37-.192-.804-.288-1.298-.288zm13.497 7.08c0-.215-.037-.43-.112-.645a1.54 1.54 0 0 0-.42-.61c-.205-.192-.492-.372-.86-.538-.367-.166-.844-.31-1.43-.434a12.34 12.34 0 0 1-1.568-.43 4.511 4.511 0 0 1-1.162-.59 2.334 2.334 0 0 1-.717-.826c-.163-.319-.245-.693-.245-1.123 0-.39.087-.762.26-1.113.172-.352.42-.658.741-.918.323-.26.713-.467 1.172-.62a4.88 4.88 0 0 1 1.548-.23c.612 0 1.16.08 1.646.24.485.159.895.38 1.23.664.335.283.59.616.767 1 .175.385.263.801.263 1.25h-1.172c0-.273-.06-.54-.18-.8s-.296-.49-.528-.689a2.728 2.728 0 0 0-.859-.483 3.416 3.416 0 0 0-1.167-.186c-.456 0-.845.056-1.167.166a2.4 2.4 0 0 0-.79.43 1.634 1.634 0 0 0-.592 1.25c0 .234.036.448.108.64.071.192.21.37.415.537.205.166.491.319.86.459.367.14.847.278 1.44.415.638.15 1.188.316 1.65.498.462.182.845.399 1.147.65.303.25.528.536.674.859.147.322.22.695.22 1.118 0 .436-.091.835-.274 1.196-.182.361-.442.67-.78.928a3.807 3.807 0 0 1-1.231.6 5.644 5.644 0 0 1-1.612.215c-.67 0-1.263-.086-1.777-.258a3.984 3.984 0 0 1-1.299-.699 2.939 2.939 0 0 1-.796-1.01 2.758 2.758 0 0 1-.268-1.187h1.172c.026.417.133.763.322 1.04s.423.498.703.664c.28.166.59.285.933.357a4.92 4.92 0 0 0 1.01.107 3.99 3.99 0 0 0 1.172-.156 2.72 2.72 0 0 0 .855-.42c.23-.176.405-.378.522-.606a1.54 1.54 0 0 0 .176-.713zm4.044-2.696c0-.82.093-1.56.279-2.222.185-.66.454-1.225.805-1.694.352-.469.782-.83 1.29-1.084.507-.254 1.083-.38 1.728-.38.742 0 1.382.143 1.919.429.537.286.981.687 1.333 1.201l.059-1.435h1.093v14.629h-1.172V43.69a3.774 3.774 0 0 1-1.347 1.104c-.54.267-1.175.4-1.905.4-.638 0-1.209-.132-1.713-.395a3.756 3.756 0 0 1-1.285-1.104c-.351-.472-.62-1.036-.805-1.694a8.004 8.004 0 0 1-.279-2.178v-.205zm1.182.205c0 .619.062 1.195.186 1.729.123.534.314.997.57 1.391.258.394.582.703.973.928.39.225.852.337 1.386.337.384 0 .734-.046 1.05-.137a3.08 3.08 0 0 0 .845-.38 3.08 3.08 0 0 0 .654-.577c.189-.221.352-.465.488-.732v-5.176a4.035 4.035 0 0 0-.444-.737 3.098 3.098 0 0 0-1.48-1.07 3.329 3.329 0 0 0-1.093-.166c-.54 0-1.006.113-1.397.337a2.87 2.87 0 0 0-.976.933c-.26.397-.453.863-.576 1.396a7.602 7.602 0 0 0-.186 1.72v.204zm17.95 3.838a3.387 3.387 0 0 1-1.323 1.128c-.55.27-1.232.405-2.045.405-.521 0-.993-.073-1.416-.22a2.731 2.731 0 0 1-1.094-.698c-.306-.319-.542-.73-.708-1.235-.166-.505-.25-1.118-.25-1.84v-6.768h1.163v6.787c0 .566.065 1.038.195 1.416.13.377.306.68.527.908.222.228.48.39.777.488.296.098.61.147.942.147.469 0 .882-.052 1.24-.157.359-.104.668-.25.928-.439s.475-.41.645-.664a3.33 3.33 0 0 0 .4-.84v-7.646h1.172V45h-1.133l-.02-1.338zm8.996 1.533c-.69 0-1.325-.128-1.904-.385a4.46 4.46 0 0 1-1.5-1.075 4.938 4.938 0 0 1-.98-1.635 5.936 5.936 0 0 1-.352-2.08v-.42c0-.814.122-1.551.366-2.212.244-.661.575-1.224.991-1.69a4.445 4.445 0 0 1 1.44-1.079 4.024 4.024 0 0 1 1.724-.38c.67 0 1.267.12 1.787.36.521.241.96.577 1.314 1.006.355.43.623.941.806 1.534.182.592.273 1.24.273 1.943v.713h-7.539v.225c0 .579.088 1.124.264 1.635.175.511.423.956.742 1.333.319.378.7.676 1.142.894.443.218.935.327 1.475.327.625 0 1.177-.114 1.655-.342.479-.228.913-.592 1.304-1.094l.732.557c-.175.254-.379.495-.61.723-.231.228-.5.426-.806.595-.306.17-.65.303-1.035.4a5.237 5.237 0 0 1-1.289.147zm-.215-9.96a2.973 2.973 0 0 0-2.231.976c-.29.312-.527.688-.713 1.128-.186.44-.31.926-.376 1.46h6.338v-.127a4.715 4.715 0 0 0-.215-1.284c-.13-.414-.32-.78-.571-1.099a2.816 2.816 0 0 0-.933-.767c-.37-.192-.804-.288-1.299-.288z"/><path fill="#222" d="M3.329 201c-2.055 0-3.151-1.781-2.329-3.562l42.607-92.201c.411-.822 1.096-1.507 2.329-1.507h1.37c1.37 0 1.918.685 2.329 1.507l42.196 92.201c.822 1.781-.274 3.562-2.329 3.562H77.583c-2.055 0-3.014-.822-3.973-2.74l-6.713-14.796H25.934l-6.713 14.796c-.548 1.37-1.781 2.74-3.973 2.74H3.329zm29.318-32.743h27.537l-13.7-30.14h-.411l-13.426 30.14zm69.14 15.344c0-9.727 7.945-17.262 21.92-17.262 5.48 0 10 1.507 10 1.507.137-6.987-2.055-9.453-7.124-9.453-5.069 0-12.193 1.096-15.344 2.055-1.918.548-2.877-.685-3.15-2.466l-1.234-7.124c-.41-2.055.685-3.014 1.918-3.425 1.096-.411 9.864-2.603 18.632-2.603 17.125 0 21.098 8.905 21.098 23.838v29.729c0 1.37-1.233 2.603-2.603 2.603h-4.932c-.959 0-1.644-.411-2.329-1.918l-1.644-3.699c-3.15 2.877-8.22 6.987-16.714 6.987-10.96 0-18.495-7.124-18.495-18.769zm15.07 0c0 4.11 2.876 7.124 7.123 7.124 4.384 0 8.631-3.699 9.453-5.343v-7.535s-3.699-1.644-7.672-1.644c-5.343 0-8.905 3.014-8.905 7.398zM296.68 39c-.6 0-.92-.52-.68-1.04l12.44-26.92c.12-.24.32-.44.68-.44h.4c.4 0 .56.2.68.44l12.32 26.92c.24.52-.08 1.04-.68 1.04h-3.48c-.6 0-.88-.24-1.16-.8l-1.96-4.32h-11.96l-1.96 4.32c-.16.4-.52.8-1.16.8h-3.48zm8.56-9.56h8.04l-4-8.8h-.12l-3.92 8.8zm18.52 4.48c0-2.84 2.32-5.04 6.4-5.04 1.6 0 2.92.44 2.92.44.04-2.04-.6-2.76-2.08-2.76s-3.56.32-4.48.6c-.56.16-.84-.2-.92-.72l-.36-2.08c-.12-.6.2-.88.56-1 .32-.12 2.88-.76 5.44-.76 5 0 6.16 2.6 6.16 6.96v8.68c0 .4-.36.76-.76.76h-1.44c-.28 0-.48-.12-.68-.56l-.48-1.08c-.92.84-2.4 2.04-4.88 2.04-3.2 0-5.4-2.08-5.4-5.48zm4.4 0c0 1.2.84 2.08 2.08 2.08 1.28 0 2.52-1.08 2.76-1.56v-2.2s-1.08-.48-2.24-.48c-1.56 0-2.6.88-2.6 2.16zm23.92 4.32V11.76c0-.4.32-.76.76-.76H362c4.76 0 8.44 3.2 8.44 7.4 0 3.08-2.52 5.48-4.4 6.36 2.12.68 5.2 2.84 5.2 6.52 0 4.48-3.84 7.72-8.72 7.72h-9.68a.76.76 0 0 1-.76-.76zm5.16-15.48h4.28c2.04 0 3.44-1.6 3.44-3.6s-1.4-3.4-3.44-3.4h-4.28v7zm0 11.52h4.84c2 0 3.6-1.56 3.6-3.64 0-2-2-3.48-4.08-3.48h-4.36v7.12zm18.28 3.96V11.76c0-.4.36-.76.76-.76h3.4c.4 0 .76.36.76.76v11.56c.72-.28 1.96-.72 3.56-.72 4.76 0 7.92 3.72 7.92 8.4 0 4.6-3.32 8.4-7.68 8.4-3.36 0-5.24-2.4-5.24-2.4l-.4 1.24c-.12.44-.4.76-.76.76h-1.56c-.4 0-.76-.36-.76-.76zm4.76-5.76c.28.96 1.24 2.6 3.36 2.6s3.64-1.84 3.64-4.08-1.64-4.08-3.88-4.08c-2 0-3.12.92-3.12.92v4.64zm23.28-7.44c0-8 6.44-14.44 14.44-14.44 4.04 0 6.96 1.28 9.68 3.72.36.32.36.8.04 1.12l-2.44 2.52c-.28.32-.68.32-1 0-1.68-1.48-3.92-2.36-6.16-2.36-5.12 0-8.92 4.28-8.92 9.32 0 5 3.84 9.24 8.96 9.24 2.4 0 4.44-.92 6.12-2.28.32-.28.76-.24 1 0l2.48 2.56c.32.28.24.8-.04 1.08-2.72 2.64-6.16 3.88-9.72 3.88-8 0-14.44-6.36-14.44-14.36zM430.48 31c0-4.72 4.04-8.4 8.52-8.4 2.48 0 4.4 1 5.92 2.84.28.36.2.84-.2 1.12l-1.84 1.76c-.36.32-.72.12-1-.12-.64-.72-1.64-1.28-2.76-1.28-2.16 0-3.92 1.84-3.92 4.08 0 2.28 1.72 4.08 3.88 4.08 1.72 0 2.48-.84 3.2-1.52.28-.28.68-.36 1-.12l1.72 1.48c.4.32.56.72.28 1.12-1.36 2.12-3.48 3.36-6.32 3.36-4.52 0-8.48-3.6-8.48-8.4zm28.36 7.24V11.76c0-.4.32-.76.72-.76h9.48c7.72 0 14.04 6.28 14.04 13.96 0 7.76-6.32 14.04-14.04 14.04h-9.48c-.4 0-.72-.36-.72-.76zm5.16-4.12h4.56c5.2 0 9-3.92 9-9.16 0-5.2-3.8-9.12-9-9.12H464v18.28zM485.92 31c0-4.68 3.16-8.4 7.92-8.4 1.6 0 2.84.44 3.56.72V11.76c0-.4.36-.76.76-.76h3.4c.4 0 .76.36.76.76v26.48c0 .4-.36.76-.76.76H500c-.36 0-.64-.32-.76-.76l-.4-1.24s-1.88 2.4-5.24 2.4c-4.36 0-7.68-3.8-7.68-8.4zm4.64 0c0 2.24 1.52 4.08 3.64 4.08s3.08-1.64 3.36-2.6v-4.64s-1.12-.92-3.12-.92c-2.24 0-3.88 1.84-3.88 4.08zm26.64 7.24V11.76c0-.4.32-.76.76-.76h16.28c.44 0 .76.36.76.76v3.28c0 .4-.32.76-.76.76H522.4v6.56h9.88c.4 0 .76.36.76.76v3.32c0 .44-.36.76-.76.76h-9.88v7h11.84c.44 0 .76.36.76.76v3.28c0 .4-.32.76-.76.76h-16.28a.76.76 0 0 1-.76-.76zM538.28 31c0-4.52 3.4-8.4 8.16-8.4 4.12 0 7.48 3.12 7.48 7.44 0 .28-.04.8-.08 1.08-.04.4-.4.68-.76.68h-10.24c.12 1.64 1.52 3.48 3.84 3.48 1.24 0 2.4-.48 3.12-1 .4-.24.76-.32 1.04 0l1.64 1.88c.28.28.36.72-.04 1.04-1.32 1.24-3.36 2.2-5.96 2.2-4.8 0-8.2-3.8-8.2-8.4zm4.92-2h6.04c-.12-1.48-1.4-2.72-2.92-2.72-1.6 0-2.92 1.2-3.12 2.72zm24.16 9.24V11.76c0-.4.32-.76.76-.76h16.28c.44 0 .76.36.76.76v3.28c0 .4-.32.76-.76.76h-11.84v7.52h9.88c.4 0 .76.36.76.76v3.28c0 .4-.36.76-.76.76h-9.88v10.12c0 .4-.36.76-.76.76h-3.68a.76.76 0 0 1-.76-.76zm22.28 0V27.2h-1.36a.76.76 0 0 1-.76-.76v-2.68c0-.44.32-.76.76-.76h1.36v-4.32c0-5.28 3.24-8.08 7.48-8.08 2.12 0 4 .92 4.72 1.56.24.2.32.64.16.92l-1.36 2.56c-.16.32-.6.4-.96.2-.52-.32-1.48-.8-2.36-.8-1.72 0-2.68 1.32-2.68 3.64V23h4c.44 0 .76.32.76.76v2.68c0 .4-.32.76-.76.76h-4v11.04c0 .4-.36.76-.76.76h-3.48c-.4 0-.76-.36-.76-.76zm20.88-13.2c0-8 6.4-14.44 14.36-14.44 3.6 0 7.04 1.4 9.76 3.72.32.32.36.8.04 1.12l-2.48 2.6c-.32.32-.68.32-1.04 0-1.72-1.52-3.84-2.32-6.04-2.32-5 0-8.96 4.28-8.96 9.28 0 4.96 3.96 9.16 9 9.16 2.24 0 3.96-.68 4.76-1v-3.4h-3.2c-.44 0-.76-.32-.76-.72v-3.16c0-.44.32-.76.76-.76h7.68c.4 0 .72.36.72.76v10.24c0 .32-.16.52-.32.64 0 0-4.12 2.6-9.92 2.6-7.96 0-14.36-6.32-14.36-14.32zm30.56 8.28zm0 0s-1.2-1.36-1.2-3.76c0-3.72 3-6.96 6.96-6.96h7.28c.44 0 .76.32.76.76v1.32c0 .28-.16.6-.44.68l-2.24.72s1.6 1.24 1.6 4.08c0 3.16-2.64 6.28-6.84 6.28-1.52 0-2.56-.32-3.2-.32-.56 0-1.48.56-1.48 1.52 0 .84.72 1.36 1.6 1.36H649c3.64 0 6.6 2.08 6.6 5.6 0 3.68-2.96 6.8-8.76 6.8-5.92 0-8.16-2.92-8.16-5.48 0-2.4 2-3.56 2.4-3.8V42c-.68-.2-3-1.28-3-4.2 0-3.12 3-4.48 3-4.48zm3.08-3.56c0 1.68 1.2 2.88 2.8 2.88 1.64 0 2.76-1.2 2.76-2.88s-1.12-2.88-2.76-2.88c-1.6 0-2.8 1.2-2.8 2.88zm-.88 15.28c0 1.4 1.36 2.36 3.52 2.36 2.24 0 3.72-1 3.72-2.52 0-.72-.56-1.96-2.92-1.96-.88 0-1.76.04-2.6.16-.48.16-1.72.72-1.72 1.96zm-343.64 58.2V76.76c0-.4.36-.76.76-.76h3.72c.44 0 .76.36.76.76v10.6h13.04v-10.6c0-.4.32-.76.76-.76h3.68c.4 0 .76.36.76.76v26.48c0 .4-.36.76-.76.76h-3.68a.76.76 0 0 1-.76-.76V92.2h-13.04v11.04c0 .4-.32.76-.76.76h-3.72c-.4 0-.76-.36-.76-.76zm29.52 0V76.76c0-.4.36-.76.76-.76h3.4c.4 0 .76.36.76.76v12.16c.8-.6 2.36-1.32 4.24-1.32 5.08 0 7.16 3.92 7.16 7.96v7.68c0 .4-.36.76-.76.76h-3.24a.76.76 0 0 1-.76-.76v-7.72c0-2.2-1.24-3.6-3.16-3.6-1.84 0-3.08 1.2-3.48 2.84v8.48c0 .44-.24.76-.84.76h-3.32c-.4 0-.76-.36-.76-.76zm30.88 0V76.76c0-.4.36-.76.76-.76h3.72c.4 0 .76.36.76.76v26.48c0 .4-.36.76-.76.76h-3.72c-.4 0-.76-.36-.76-.76zm13.64-20.92c-1.52 0-2.72-1.24-2.72-2.76 0-1.52 1.2-2.76 2.72-2.76 1.56 0 2.8 1.24 2.8 2.76 0 1.52-1.24 2.76-2.8 2.76zm-2.36 20.92V88.76c0-.44.36-.76.76-.76h3.32c.4 0 .76.32.76.76v14.48c0 .4-.36.76-.76.76h-3.32c-.4 0-.76-.36-.76-.76zm15.44-1.76c-.2-.32-.16-.72.08-1l2.08-2.12c.44-.4.84-.32 1.2.04.52.56 1.32 1.28 2.64 1.28 1.56 0 3.2-1.28 3.2-4.04V76.76c0-.4.32-.76.76-.76h3.76c.44 0 .76.36.76.76v18.88c0 5.56-3.72 8.76-8.4 8.76-3.48 0-5.4-2.08-6.08-2.92zm22.16-19.16c-1.52 0-2.72-1.24-2.72-2.76 0-1.52 1.2-2.76 2.72-2.76 1.56 0 2.8 1.24 2.8 2.76 0 1.52-1.24 2.76-2.8 2.76zm-2.4 26V88.76c0-.44.36-.76.76-.76h3.36c.4 0 .76.32.76.76v19.56c0 5.28-3.2 8.08-7.44 8.08-2.12 0-4.04-.92-4.72-1.56-.28-.2-.32-.64-.16-.92l1.32-2.56c.16-.32.6-.4.96-.2.52.32 1.48.8 2.36.8 1.8 0 2.8-1.32 2.8-3.64zm19.76-5.28V76.96c0-.52.4-.96.96-.96h3.52c.52 0 .96.44.96.96v10.8L441.8 76.4c.16-.2.4-.4.76-.4h4c.76 0 1.16.84.64 1.44L436.76 89.2l11.2 13.4c.4.52.08 1.4-.72 1.4h-4.36c-.4 0-.64-.16-.72-.28l-10.44-12.88v12.2c0 .52-.44.96-.96.96h-3.52c-.56 0-.96-.44-.96-.96zm24.96.2V76.76c0-.4.36-.76.76-.76h3.4c.4 0 .76.36.76.76v17.32l5.52-5.6c.28-.24.56-.48 1-.48h3.64c.68 0 .92.72.52 1.16l-5.96 6.08 7.12 7.64c.4.44.16 1.12-.52 1.12h-4.32c-.24 0-.56-.16-.68-.32l-6.32-7.2v6.76c0 .4-.36.76-.76.76H452c-.4 0-.76-.36-.76-.76zm29.64 0V76.76c0-.4.32-.76.76-.76h3.68c.4 0 .76.36.76.76V99.2h10.2c.44 0 .76.36.76.76v3.28c0 .4-.32.76-.76.76h-14.64a.76.76 0 0 1-.76-.76zm18.96 0V76.76c0-.4.36-.76.76-.76h3.36c.4 0 .76.36.76.76v26.48c0 .4-.36.76-.76.76h-3.36c-.4 0-.76-.36-.76-.76zm17.92-.16l4.76-26.88c.04-.32.28-.6.72-.6h.64c.32 0 .56.16.68.4l8.8 18.88h.12l8.8-18.88c.12-.24.32-.4.68-.4h.64c.44 0 .68.28.72.6l4.72 26.88c.12.56-.2.92-.72.92h-3.64c-.36 0-.68-.32-.76-.6l-2.36-15.16h-.12l-7 15.72c-.08.24-.32.44-.68.44h-.72c-.36 0-.56-.2-.68-.44l-7.08-15.72h-.12l-2.32 15.16c-.04.28-.36.6-.72.6h-3.6c-.52 0-.84-.36-.76-.92zm35.52.16V88.76c0-.44.36-.76.76-.76h1.48c.36 0 .6.2.68.44l.56 1.52c.68-.76 2.52-2.36 5.36-2.36 2.28 0 3.88.88 5.2 2.48.68-.72 2.76-2.48 5.64-2.48 5.12 0 7 3.8 7 8v7.64c0 .4-.32.76-.76.76h-3.24a.76.76 0 0 1-.76-.76v-7.92c0-2.08-1-3.4-3-3.4-2.32 0-3.36 1.68-3.36 1.68s.04.8.04 1.52v8.12c0 .4-.36.76-.76.76h-3a.76.76 0 0 1-.76-.76v-7.92c0-2.08-.92-3.4-2.96-3.4-2 0-2.96 1.44-3.36 2.52v8.8c0 .4-.36.76-.76.76h-3.24c-.4 0-.76-.36-.76-.76zm41.24 0V76.32c0-.4.36-.72.76-.72h1l16.64 17.68h.04V76.76c0-.4.32-.76.76-.76h3.68c.4 0 .76.36.76.76v26.92c0 .4-.36.72-.76.72h-.96l-16.72-18.36h-.04v17.2c0 .4-.32.76-.76.76h-3.64c-.4 0-.76-.36-.76-.76zm29.68 0V88.76c0-.44.36-.76.76-.76h1.52c.36 0 .56.2.68.48l.56 1.48c.6-.64 2.56-2.36 5.64-2.36 5.08 0 7.12 3.8 7.12 7.96v7.68c0 .4-.36.76-.76.76h-3.28a.76.76 0 0 1-.76-.76v-7.92c0-2.08-1.08-3.4-3-3.4-2.08 0-3.36 1.44-3.76 2.52v8.8c0 .56-.24.76-1 .76h-2.96c-.4 0-.76-.36-.76-.76zm-326.56 51.8c0-8 6.36-14.44 14.36-14.44 8 0 14.4 6.44 14.4 14.44 0 8-6.4 14.36-14.4 14.36s-14.36-6.36-14.36-14.36zm5.2 0c0 5.04 4.12 9.16 9.16 9.16s9.2-4.12 9.2-9.16-4.16-9.24-9.2-9.24c-5.04 0-9.16 4.2-9.16 9.24zm26.32 5.92c0-4.52 3.68-8.36 8.2-8.36s8.2 3.84 8.2 8.36c0 4.6-3.68 8.44-8.2 8.44s-8.2-3.84-8.2-8.44zm4.36 0c0 2.28 1.68 4.12 3.84 4.12 2.12 0 3.84-1.84 3.84-4.12 0-2.24-1.72-4.04-3.84-4.04-2.16 0-3.84 1.8-3.84 4.04zm25.68 7.28v-26.48c0-.4.32-.76.76-.76h9.4c4.92 0 8.96 4 8.96 8.84 0 4.96-4.04 9-8.92 9h-5v9.4c0 .4-.36.76-.76.76h-3.68a.76.76 0 0 1-.76-.76zm5.2-14.28h4.64c2.24 0 4.12-1.8 4.12-4.16 0-2.2-1.88-3.88-4.12-3.88h-4.64v8.04zm22.16 14.56v11.72c0 .48-.24.76-.96.76h-3.2c-.4 0-.76-.36-.76-.76v-26.48c0-.44.36-.76.76-.76h1.56c.28 0 .56.16.68.48l.52 1.32c.6-.8 2.56-2.2 5.16-2.2 4.4 0 7.72 3.8 7.72 8.4 0 4.72-3.6 8.4-7.92 8.4-1.56 0-3-.56-3.56-.88zm-.2-4.36s1.12.92 3.12.92c2.24 0 3.88-1.84 3.88-4.08s-1.52-4.08-3.72-4.08c-2.04 0-3.04 1.6-3.28 2.44v4.8zm23.36-9.12c0-8 6.36-14.44 14.36-14.44 8 0 14.4 6.44 14.4 14.44 0 5.44-3.16 10.24-7.8 12.8l5 7.88c.36.56 0 1.2-.64 1.2h-4.24c-.16 0-.52-.16-.64-.4l-4.28-7.24c-.64.08-1.32.12-1.8.12-8 0-14.36-6.36-14.36-14.36zm5.2 0c0 5.04 4.12 9.16 9.16 9.16s9.2-4.12 9.2-9.16-4.16-9.24-9.2-9.24c-5.04 0-9.16 4.2-9.16 9.24zm26.4 5.96c0-4.6 3.32-8.4 7.72-8.4 2.6 0 4.56 1.4 5.16 2.2l.52-1.32c.12-.32.4-.48.68-.48h1.56c.4 0 .76.32.76.76v26.48c0 .4-.36.76-.76.76h-3.2c-.72 0-.96-.28-.96-.76v-11.72c-.56.32-2 .88-3.56.88-4.32 0-7.92-3.68-7.92-8.4zm4.68.08c0 2.24 1.64 4 3.88 4 2 0 3.12-.92 3.12-.92v-4.8c-.24-.84-1.24-2.44-3.28-2.44-2.2 0-3.72 1.92-3.72 4.16zm26.6 7.16v-26.48c0-.4.32-.76.76-.76h11.44c4.8 0 8.72 3.84 8.72 8.6 0 3.68-2.44 6.68-5.92 8.08l5.48 10.16c.28.52 0 1.16-.68 1.16h-4.2c-.36 0-.56-.2-.64-.36l-5.32-10.6h-4.44v10.2c0 .4-.36.76-.76.76h-3.68a.76.76 0 0 1-.76-.76zm5.24-14.48h6.52c2.12 0 3.96-1.84 3.96-4.08 0-2.12-1.84-3.88-3.96-3.88h-6.52v7.96zM498 168.24v-14.48c0-.44.36-.76.76-.76h1.52c.36 0 .6.2.72.52l.56 1.56c.56-.8 2.04-2.48 4.52-2.48 1.88 0 3.56.6 3.08 1.6l-1.48 2.6c-.2.36-.6.52-.92.36-.12-.04-.72-.24-1.16-.24-1.6 0-2.56 1.08-2.84 1.64v9.68c0 .56-.36.76-.92.76h-3.08c-.4 0-.76-.36-.76-.76zm22.28-1.96c-.36-.36-.56-.56-.2-1.2l1.44-2.48c.32-.56 1-.56 1.36-.28.2.12 3.44 2.48 6.04 2.48 2.08 0 3.64-1.36 3.64-3.08 0-2.04-1.72-3.44-5.08-4.8-3.76-1.52-7.52-3.92-7.52-8.64 0-3.56 2.64-7.68 9-7.68 4.08 0 7.2 2.08 8 2.68.4.24.52.92.24 1.32l-1.52 2.28c-.32.48-.92.8-1.4.48-.32-.2-3.36-2.2-5.56-2.2-2.28 0-3.52 1.52-3.52 2.8 0 1.88 1.48 3.16 4.72 4.48 3.88 1.56 8.36 3.88 8.36 9.04 0 4.12-3.56 7.92-9.2 7.92-5.04 0-8-2.36-8.8-3.12zm21.24 1.64c-.24-.2-.4-.52-.24-.84l1.08-2.16c.16-.4.56-.48.92-.28 0 0 1.8.96 3.64.96.8 0 1.36-.32 1.36-1 0-.72-.56-1.16-2.68-2-3.08-1.2-4.52-2.84-4.52-5.28 0-2.44 1.8-4.72 5.88-4.72 2.36 0 4.08.68 4.92 1.24.36.24.56.68.36 1.08l-1 2.04c-.2.36-.64.4-.96.28 0 0-1.8-.84-3.32-.84-.96 0-1.36.4-1.36.92 0 .72.72.96 2.2 1.56 3.08 1.2 5.4 2.52 5.4 5.64 0 2.64-2.32 4.88-6.36 4.88-2.64 0-4.48-.84-5.32-1.48zm29.04.32V145.8h-6.12a.76.76 0 0 1-.76-.76v-3.28c0-.4.32-.76.76-.76h17.48c.44 0 .76.36.76.76v3.28c0 .4-.32.76-.76.76h-6.12v22.44c0 .4-.36.76-.76.76h-3.72c-.4 0-.76-.36-.76-.76zm15.88-4v-7.04h-1.36c-.4 0-.72-.36-.72-.76v-2.68c0-.44.32-.76.72-.76h1.36v-4.44c0-.4.36-.76.76-.76l3.28-.04c.4 0 .72.36.72.76V153h3.52c.44 0 .76.32.76.76v2.68c0 .4-.32.76-.76.76h-3.52v6.4c0 1.12.6 1.28 1.24 1.28.68 0 1.52-.28 1.96-.44.44-.16.76.04.88.44l.8 2.52c.16.4-.04.8-.44.96-.2.12-2.8 1.04-4.76 1.04-3.08 0-4.44-1.92-4.44-5.16zm22.64-5.84v-16.64c0-.4.36-.76.76-.76h3.8c.44 0 .76.36.76.76v16.36c0 3.4 2.32 6.08 5.8 6.08s5.84-2.68 5.84-6.04v-16.4c0-.4.32-.76.76-.76h3.8c.4 0 .76.36.76.76v16.64c0 6.08-4.84 11-11.16 11-6.28 0-11.12-4.92-11.12-11zm27.64 3.12v-7.76c0-.44.36-.76.76-.76h3.28c.4 0 .76.32.76.76v7.88c0 2.12 1.08 3.44 2.92 3.44 1.68 0 2.96-1.56 3.2-3v-8.32c0-.6.24-.76.88-.76h3.04c.4 0 .76.32.76.76v14.48c0 .4-.36.76-.76.76h-1.48c-.4 0-.64-.28-.76-.6l-.48-1.32c-.72.64-2.2 2.32-5.36 2.32-4.96 0-6.76-3.8-6.76-7.88zm-328.36 72.44L296 207.04c-.24-.52.08-1.04.68-1.04h4.08c.36 0 .6.24.68.44l7.68 17.2h.28l7.68-17.2c.08-.2.32-.44.68-.44h4.08c.6 0 .92.52.68 1.04l-12.4 26.92c-.12.24-.32.44-.68.44h-.4c-.36 0-.56-.2-.68-.44zm21.72.04l-7.28-15.04c-.24-.52-.04-.96.56-.96h3.48c.4 0 .6.2.72.44l3.24 7.44h.08l3.44-7.44c.2-.4.52-.44.96-.44h3.12c.6 0 .84.44.56.96L331.64 234c-.12.2-.32.4-.68.4h-.2c-.36 0-.56-.2-.68-.4zm26.72-.16l-7.56-26.88c-.16-.56.16-.96.72-.96h3.68c.32 0 .64.28.72.56l4.16 15.96h.16l6.36-16.48c.08-.24.28-.44.68-.44h.72c.4 0 .6.2.68.44l6.4 16.48h.16l4.08-15.96c.08-.28.4-.56.72-.56h3.68c.56 0 .88.4.72.96l-7.56 26.88c-.08.32-.4.56-.72.56h-.64c-.36 0-.6-.2-.68-.44l-7.16-18.12h-.2l-7.08 18.12c-.12.24-.28.44-.68.44h-.64c-.32 0-.64-.24-.72-.56zm32.96.12l-5-15.04c-.24-.52.12-.92.68-.92h2.88c.24 0 .64.2.72.48l2.4 7.16h.04l4.08-7.68c.08-.16.28-.36.64-.36h.32c.36 0 .52.16.64.36l4.04 7.68h.04l2.4-7.16c.16-.44.48-.48.92-.48h2.6c.56 0 .92.4.72.92l-5 15.04c-.08.24-.32.44-.72.44H402c-.32 0-.52-.16-.64-.36l-5.04-9.32h-.04l-5 9.32c-.12.2-.32.36-.64.36h-.2c-.36 0-.6-.2-.68-.44zm28.96-1.08l8.32-13.24-8-12.52c-.32-.52 0-1.12.68-1.12h4.64c.32 0 .52.2.64.36l5.12 8.48h.04l5.2-8.48c.08-.16.32-.36.64-.36h4.64c.68 0 1 .6.68 1.12l-8.04 12.52 8.32 13.24c.32.56 0 1.12-.68 1.12h-4.32c-.32 0-.6-.2-.68-.36l-5.72-9.16h-.12l-5.64 9.16c-.12.16-.36.36-.68.36h-4.32c-.72 0-1.04-.6-.72-1.12zm25.52 1.12c-.68 0-.84-.64-.48-1.16l5.2-7-5.04-6.68c-.4-.52-.08-1.16.6-1.16h3.32c.52 0 .96.04 1.32.56l2.6 3.76h.04l2.64-3.76c.32-.44.64-.56 1.2-.56h3.6c.68 0 .88.64.48 1.16l-5.04 6.64 5.08 7.04c.36.52.16 1.16-.48 1.16h-3.52c-.52 0-.84-.24-1.12-.64l-2.84-4h-.04l-3.04 4.32c-.12.16-.44.32-.64.32h-3.84zm34.44-.76v-12.72l-9.12-13.36c-.32-.52 0-1.16.64-1.16h4.08c.32 0 .52.2.64.36l6.4 9.2 6.4-9.2c.12-.16.32-.36.64-.36h4.12c.64 0 .96.64.64 1.16l-9.24 13.32v12.76c0 .4-.36.76-.76.76h-3.68a.76.76 0 0 1-.76-.76zm21.16-.36l-6.52-13.84c-.24-.52.08-1.04.68-1.04h3.6c.36 0 .56.2.68.44l4.04 9.04h.04l4-9.04c.2-.4.48-.44.96-.44h3.2c.64 0 .96.52.68 1.04l-12.24 26.48c-.12.24-.36.48-.68.48h-3.44c-.6 0-.96-.52-.68-1.08l5.68-12.04zm21.52.36v-.72L533.28 211v-.16h-10c-.4 0-.76-.36-.76-.76v-3.32c0-.4.36-.76.76-.76H540c.4 0 .76.36.76.76v.52L529 229.08v.08h10.2c.44 0 .76.36.76.76v3.32c0 .4-.32.76-.76.76h-17.08c-.4 0-.76-.36-.76-.76zm21.72 0v-.4l5.68-10.48v-.08h-4.56c-.4 0-.72-.36-.72-.76v-2.76c0-.44.32-.76.72-.76h10.56c.6 0 1 .56.68 1.08l-5.8 10.56v.12h4.32c.44 0 .76.32.76.76v2.72c0 .4-.32.76-.76.76h-10.12c-.4 0-.76-.36-.76-.76z"/></g></svg>