<svg xmlns="http://www.w3.org/2000/svg" width="656" height="246" viewBox="0 0 656 246">
  <g fill="none" fill-rule="evenodd" transform="translate(1 -7)">
    <path fill="#8B949B" d="M1.796875,22 L1.796875,7.78125 L5.99609375,7.78125 C6.71875361,7.78125 7.36653359,7.85449146 7.93945312,8.00097656 C8.51237266,8.14746167 8.99902144,8.3720688 9.39941406,8.67480469 C9.79980669,8.97754058 10.1074208,9.36327891 10.3222656,9.83203125 C10.5371104,10.3007836 10.6445312,10.8574187 10.6445312,11.5019531 C10.6445312,11.8665383 10.594076,12.2099593 10.4931641,12.5322266 C10.3922521,12.8544938 10.2441416,13.1490872 10.0488281,13.4160156 C9.85351465,13.682944 9.6175144,13.9156891 9.34082031,14.1142578 C9.06412622,14.3128265 8.75000176,14.4707025 8.3984375,14.5878906 C8.81510625,14.6790369 9.19270664,14.8304026 9.53125,15.0419922 C9.86979336,15.2535818 10.159504,15.5107407 10.4003906,15.8134766 C10.6412772,16.1162125 10.8268223,16.4531231 10.9570312,16.8242188 C11.0872402,17.1953144 11.1523438,17.5859354 11.1523438,17.9960938 C11.1523438,18.6471387 11.0432954,19.2216772 10.8251953,19.7197266 C10.6070953,20.2177759 10.2978536,20.636066 9.89746094,20.9746094 C9.49706831,21.3131527 9.01692988,21.568684 8.45703125,21.7412109 C7.89713262,21.9137378 7.27864922,22 6.6015625,22 L1.796875,22 Z M2.99804688,15.1640625 L2.99804688,20.984375 L6.6015625,20.984375 C7.12239844,20.984375 7.58951616,20.9160163 8.00292969,20.7792969 C8.41634321,20.6425774 8.7679022,20.4472669 9.05761719,20.1933594 C9.34733218,19.9394519 9.56868413,19.6285826 9.72167969,19.2607422 C9.87467524,18.8929018 9.95117188,18.4778669 9.95117188,18.015625 C9.95117188,17.6184876 9.88606836,17.24577 9.75585938,16.8974609 C9.62565039,16.5491519 9.42545708,16.2464206 9.15527344,15.9892578 C8.88508979,15.7320951 8.54655151,15.5302742 8.13964844,15.3837891 C7.73274536,15.237304 7.25260693,15.1640625 6.69921875,15.1640625 L2.99804688,15.1640625 Z M2.99804688,14.1582031 L6.27929688,14.1582031 C7.28190605,14.1386718 8.05826548,13.9026715 8.60839844,13.4501953 C9.1585314,12.9977191 9.43359375,12.338546 9.43359375,11.4726562 C9.43359375,10.5611934 9.14876587,9.88899956 8.57910156,9.45605469 C8.00943726,9.02310981 7.14844326,8.80664062 5.99609375,8.80664062 L2.99804688,8.80664062 L2.99804688,14.1582031 Z M19.376395,12.4296875 C19.128998,12.3841144 18.8653287,12.3613281 18.5853794,12.3613281 C18.188242,12.3613281 17.8301727,12.4199213 17.5111607,12.5371094 C17.1921487,12.6542975 16.910576,12.8186838 16.6664341,13.0302734 C16.4222923,13.241863 16.2172162,13.4925116 16.0511997,13.7822266 C15.8851833,14.0719416 15.7533487,14.3925764 15.6556919,14.7441406 L15.6556919,22 L14.4935825,22 L14.4935825,11.4335938 L15.6361607,11.4335938 L15.6556919,13.1132812 C15.9421517,12.5338513 16.3311452,12.0764991 16.8226841,11.7412109 C17.314223,11.4059228 17.9180581,11.2382812 18.6342075,11.2382812 C18.7774374,11.2382812 18.9239203,11.251302 19.0736607,11.2773438 C19.223401,11.3033855 19.334077,11.3326821 19.4056919,11.3652344 L19.376395,12.4296875 Z M28.2156807,22 C28.1505762,21.8177074 28.100121,21.5947279 28.0643135,21.3310547 C28.0285061,21.0673815 28.0040922,20.7988295 27.9910713,20.5253906 C27.8152892,20.7532563 27.606958,20.9680979 27.3660713,21.1699219 C27.1251847,21.3717458 26.8550051,21.5475253 26.5555245,21.6972656 C26.2560438,21.847006 25.9272711,21.9674475 25.5691963,22.0585938 C25.2111216,22.14974 24.8237557,22.1953125 24.407087,22.1953125 C23.8927615,22.1953125 23.4256438,22.1204435 23.0057198,21.9707031 C22.5857958,21.8209628 22.2277265,21.611004 21.931501,21.3408203 C21.6352756,21.0706367 21.4057857,20.753257 21.2430245,20.3886719 C21.0802632,20.0240867 20.9988838,19.6269553 20.9988838,19.1972656 C20.9988838,18.6829401 21.1095598,18.2190776 21.3309151,17.8056641 C21.5522704,17.3922505 21.8712776,17.0406916 22.2879463,16.7509766 C22.7046151,16.4612616 23.2107949,16.2399096 23.806501,16.0869141 C24.4022071,15.9339185 25.0711458,15.8574219 25.813337,15.8574219 L27.9813057,15.8574219 L27.9813057,14.65625 C27.9813057,13.9010379 27.7485607,13.3069683 27.2830635,12.8740234 C26.8175664,12.4410786 26.1388623,12.2246094 25.2469307,12.2246094 C24.8367724,12.2246094 24.459172,12.2799474 24.1141182,12.390625 C23.7690644,12.5013026 23.4712158,12.6542959 23.2205635,12.8496094 C22.9699112,13.0449229 22.7746007,13.2711576 22.634626,13.5283203 C22.4946514,13.7854831 22.4246651,14.0605454 22.4246651,14.3535156 L21.2527901,14.34375 C21.2527901,13.9466126 21.3504454,13.5625019 21.5457588,13.1914062 C21.7410723,12.8203106 22.0161347,12.4899103 22.3709542,12.2001953 C22.7257736,11.9104803 23.1522017,11.6777353 23.650251,11.5019531 C24.1483004,11.326171 24.7000527,11.2382812 25.3055245,11.2382812 C25.8654231,11.2382812 26.3813685,11.3098951 26.853376,11.453125 C27.3253836,11.5963549 27.730653,11.8111965 28.0691963,12.0976562 C28.4077397,12.384116 28.6714089,12.7421854 28.860212,13.171875 C29.049015,13.6015646 29.1434151,14.1028617 29.1434151,14.6757812 L29.1434151,19.7929688 C29.1434151,19.9752613 29.1499254,20.1640615 29.1629463,20.359375 C29.1759672,20.5546885 29.1971259,20.7434887 29.2264229,20.9257812 C29.2557199,21.1080738 29.2898993,21.2822257 29.328962,21.4482422 C29.3680247,21.6142586 29.4135971,21.759114 29.4656807,21.8828125 L29.4656807,22 L28.2156807,22 Z M24.5438057,21.1601562 C24.9669849,21.1601562 25.3592336,21.1064458 25.7205635,20.9990234 C26.0818935,20.891601 26.4090386,20.7434905 26.7020088,20.5546875 C26.9949791,20.3658845 27.2488828,20.1461601 27.4637276,19.8955078 C27.6785724,19.6448555 27.8510967,19.3730483 27.9813057,19.0800781 L27.9813057,16.7558594 L25.9793526,16.7558594 C25.3803913,16.7558594 24.8449148,16.8095698 24.3729073,16.9169922 C23.9008997,17.0244146 23.5021407,17.1790354 23.1766182,17.3808594 C22.8510958,17.5826833 22.6020748,17.8284491 22.4295479,18.1181641 C22.257021,18.4078791 22.1707588,18.7350242 22.1707588,19.0996094 C22.1707588,19.3860691 22.2260968,19.6546211 22.3367745,19.9052734 C22.4474521,20.1559257 22.6053281,20.3740225 22.8104073,20.5595703 C23.0154864,20.7451181 23.2645074,20.891601 23.5574776,20.9990234 C23.8504478,21.1064458 24.1792206,21.1601562 24.5438057,21.1601562 Z M34.0862164,11.4335938 L34.1252789,13.2402344 C34.3075715,12.9407537 34.5175303,12.6673189 34.7551617,12.4199219 C34.9927931,12.1725248 35.2580899,11.9609384 35.5510601,11.7851562 C35.8440304,11.6093741 36.1597824,11.4742843 36.4983258,11.3798828 C36.8368691,11.2854813 37.1949385,11.2382812 37.5725445,11.2382812 C38.0998909,11.2382812 38.5718914,11.3098951 38.9885601,11.453125 C39.4052289,11.5963549 39.7584155,11.8242172 40.0481305,12.1367188 C40.3378454,12.4492203 40.5591974,12.8512345 40.712193,13.3427734 C40.8651885,13.8343124 40.9416851,14.4283819 40.9416851,15.125 L40.9416851,22 L39.7795758,22 L39.7795758,15.1152344 C39.7795758,14.5683566 39.7209826,14.112632 39.6037945,13.7480469 C39.4866064,13.3834617 39.3205925,13.0904959 39.1057476,12.8691406 C38.8909028,12.6477854 38.6288612,12.4899093 38.3196148,12.3955078 C38.0103685,12.3011063 37.6669474,12.2539062 37.2893414,12.2539062 C36.8726726,12.2539062 36.4950722,12.3238925 36.1565289,12.4638672 C35.8179855,12.6038418 35.5185094,12.7910145 35.2580914,13.0253906 C34.9976734,13.2597668 34.7730663,13.5283188 34.5842633,13.8310547 C34.3954602,14.1337906 34.2457222,14.4446599 34.1350445,14.7636719 L34.1350445,22 L32.9729351,22 L32.9729351,11.4335938 L34.0862164,11.4335938 Z M44.2047989,16.6191406 C44.2047989,15.798824 44.299199,15.0582715 44.4880021,14.3974609 C44.6768051,13.7366503 44.9469847,13.1718773 45.2985489,12.703125 C45.6501132,12.2343727 46.0781688,11.8730481 46.5827286,11.6191406 C47.0872884,11.3652331 47.6553166,11.2382812 48.2868302,11.2382812 C49.0355318,11.2382812 49.6784291,11.3880193 50.2155411,11.6875 C50.7526532,11.9869807 51.1969847,12.400388 51.5485489,12.9277344 L51.5485489,7 L52.7106583,7 L52.7106583,22 L51.6169083,22 L51.5680802,20.59375 C51.2165159,21.0950546 50.7689293,21.4873033 50.2253067,21.7705078 C49.6816842,22.0537124 49.0290215,22.1953125 48.2672989,22.1953125 C47.6422958,22.1953125 47.0791504,22.0634779 46.5778458,21.7998047 C46.0765412,21.5361315 45.6501132,21.1682966 45.2985489,20.6962891 C44.9469847,20.2242815 44.6768051,19.6595085 44.4880021,19.0019531 C44.299199,18.3443978 44.2047989,17.6184936 44.2047989,16.8242188 L44.2047989,16.6191406 Z M45.3864396,16.8242188 C45.3864396,17.4427114 45.4482879,18.01725 45.5719864,18.5478516 C45.695685,19.0784532 45.8844852,19.5390605 46.1383927,19.9296875 C46.3923002,20.3203145 46.712935,20.626301 47.1003067,20.8476562 C47.4876785,21.0690115 47.9482859,21.1796875 48.4821427,21.1796875 C48.8792801,21.1796875 49.238977,21.1324875 49.5612442,21.0380859 C49.8835115,20.9436844 50.169967,20.8118498 50.4206192,20.6425781 C50.6712715,20.4733064 50.8893683,20.2714855 51.0749161,20.0371094 C51.2604639,19.8027332 51.41834,19.5488295 51.5485489,19.2753906 L51.5485489,14.3144531 C51.4313609,14.0475247 51.2881331,13.7903658 51.1188614,13.5429688 C50.9495898,13.2955717 50.7412585,13.0758473 50.4938614,12.8837891 C50.2464644,12.6917308 49.9600089,12.5387375 49.6344864,12.4248047 C49.308964,12.3108718 48.9313636,12.2539062 48.5016739,12.2539062 C47.9613067,12.2539062 47.4958165,12.3662098 47.1051896,12.5908203 C46.7145626,12.8154308 46.3923002,13.1230449 46.1383927,13.5136719 C45.8844852,13.9042988 45.695685,14.3665338 45.5719864,14.9003906 C45.4482879,15.4342475 45.3864396,16.0071584 45.3864396,16.6191406 L45.3864396,16.8242188 Z M55.8565846,16.5605469 C55.8565846,15.7923139 55.9688882,15.0826855 56.1934987,14.4316406 C56.4181092,13.7805957 56.7354888,13.2190779 57.1456471,12.7470703 C57.5558054,12.2750627 58.0505921,11.9056003 58.6300221,11.6386719 C59.2094521,11.3717435 59.8539769,11.2382812 60.5636159,11.2382812 C61.2862757,11.2382812 61.9389385,11.3717435 62.5216237,11.6386719 C63.1043089,11.9056003 63.6007232,12.2750627 64.0108815,12.7470703 C64.4210398,13.2190779 64.7367918,13.7805957 64.9581471,14.4316406 C65.1795024,15.0826855 65.2901784,15.7923139 65.2901784,16.5605469 L65.2901784,16.8828125 C65.2901784,17.6510455 65.1795024,18.3606738 64.9581471,19.0117188 C64.7367918,19.6627637 64.4210398,20.2242815 64.0108815,20.6962891 C63.6007232,21.1682966 63.1059365,21.5361315 62.5265065,21.7998047 C61.9470765,22.0634779 61.2992965,22.1953125 60.5831471,22.1953125 C59.8669977,22.1953125 59.2192177,22.0634779 58.6397877,21.7998047 C58.0603578,21.5361315 57.5639434,21.1682966 57.1505299,20.6962891 C56.7371164,20.2242815 56.4181092,19.6627637 56.1934987,19.0117188 C55.9688882,18.3606738 55.8565846,17.6510455 55.8565846,16.8828125 L55.8565846,16.5605469 Z M57.0284596,16.8828125 C57.0284596,17.4622425 57.1065838,18.0139948 57.2628346,18.5380859 C57.4190854,19.0621771 57.6469477,19.5211569 57.9464284,19.9150391 C58.245909,20.3089212 58.6169991,20.6230457 59.0597096,20.8574219 C59.5024202,21.091798 60.0102276,21.2089844 60.5831471,21.2089844 C61.1560666,21.2089844 61.6622465,21.091798 62.1017018,20.8574219 C62.5411571,20.6230457 62.9106196,20.3089212 63.2101002,19.9150391 C63.5095809,19.5211569 63.7374432,19.0621771 63.893694,18.5380859 C64.0499448,18.0139948 64.128069,17.4622425 64.128069,16.8828125 L64.128069,16.5605469 C64.128069,15.9941378 64.0499448,15.4488958 63.893694,14.9248047 C63.7374432,14.4007135 63.5095809,13.9401062 63.2101002,13.5429688 C62.9106196,13.1458313 62.5379019,12.8284517 62.0919362,12.5908203 C61.6459704,12.3531889 61.1365354,12.234375 60.5636159,12.234375 C59.9972068,12.234375 59.4942821,12.3531889 59.0548268,12.5908203 C58.6153715,12.8284517 58.245909,13.1458313 57.9464284,13.5429688 C57.6469477,13.9401062 57.4190854,14.4007135 57.2628346,14.9248047 C57.1065838,15.4488958 57.0284596,15.9941378 57.0284596,16.5605469 L57.0284596,16.8828125 Z M69.5298547,11.4335938 L69.5689172,13.2402344 C69.7512097,12.9407537 69.9611686,12.6673189 70.1988,12.4199219 C70.4364314,12.1725248 70.7017282,11.9609384 70.9946984,11.7851562 C71.2876686,11.6093741 71.6034207,11.4742843 71.941964,11.3798828 C72.2805074,11.2854813 72.6385767,11.2382812 73.0161828,11.2382812 C73.5435292,11.2382812 74.0155297,11.3098951 74.4321984,11.453125 C74.8488672,11.5963549 75.2020537,11.8242172 75.4917687,12.1367188 C75.7814837,12.4492203 76.0028357,12.8512345 76.1558312,13.3427734 C76.3088268,13.8343124 76.3853234,14.4283819 76.3853234,15.125 L76.3853234,22 L75.223214,22 L75.223214,15.1152344 C75.223214,14.5683566 75.1646209,14.112632 75.0474328,13.7480469 C74.9302447,13.3834617 74.7642307,13.0904959 74.5493859,12.8691406 C74.3345411,12.6477854 74.0724994,12.4899093 73.7632531,12.3955078 C73.4540068,12.3011063 73.1105857,12.2539062 72.7329797,12.2539062 C72.3163109,12.2539062 71.9387105,12.3238925 71.6001672,12.4638672 C71.2616238,12.6038418 70.9621476,12.7910145 70.7017297,13.0253906 C70.4413117,13.2597668 70.2167046,13.5283188 70.0279015,13.8310547 C69.8390985,14.1337906 69.6893604,14.4446599 69.5786828,14.7636719 L69.5786828,22 L68.4165734,22 L68.4165734,11.4335938 L69.5298547,11.4335938 Z M12.0605469,50.3105469 C11.9368483,50.486329 11.7496757,50.6848947 11.4990234,50.90625 C11.2483711,51.1276053 10.9228536,51.3326813 10.5224609,51.5214844 C10.1220683,51.7102874 9.64030229,51.869791 9.07714844,52 C8.51399458,52.130209 7.86133184,52.1953125 7.11914062,52.1953125 C6.27929268,52.1953125 5.51107119,52.0439468 4.81445312,51.7412109 C4.11783506,51.438475 3.51725513,51.0055367 3.01269531,50.4423828 C2.5081355,49.879229 2.11588682,49.1972696 1.8359375,48.3964844 C1.55598818,47.5956991 1.41601562,46.6972706 1.41601562,45.7011719 L1.41601562,43.9726562 C1.41601562,42.9960889 1.54296748,42.1139362 1.796875,41.3261719 C2.05078252,40.5384075 2.41698979,39.8678413 2.89550781,39.3144531 C3.37402583,38.7610649 3.95181953,38.3346369 4.62890625,38.0351562 C5.30599297,37.7356756 6.07095928,37.5859375 6.92382812,37.5859375 C7.71159248,37.5859375 8.4082001,37.6917307 9.01367188,37.9033203 C9.61914365,38.1149099 10.1334614,38.4095033 10.5566406,38.7871094 C10.9798198,39.1647154 11.3151029,39.6090469 11.5625,40.1201172 C11.8098971,40.6311875 11.9726559,41.1861949 12.0507812,41.7851562 L10.8496094,41.7851562 C10.7779944,41.3619771 10.6542978,40.9583353 10.4785156,40.5742188 C10.3027335,40.1901022 10.0585953,39.8531916 9.74609375,39.5634766 C9.43359219,39.2737616 9.04785386,39.0426441 8.58886719,38.8701172 C8.12988052,38.6975903 7.57812822,38.6113281 6.93359375,38.6113281 C6.23697568,38.6113281 5.62174746,38.7399076 5.08789062,38.9970703 C4.55403379,39.2542331 4.10319194,39.6155576 3.73535156,40.0810547 C3.36751118,40.5465518 3.08919365,41.1080696 2.90039062,41.765625 C2.7115876,42.4231804 2.6171875,43.1523397 2.6171875,43.953125 L2.6171875,45.7011719 C2.6171875,46.5345094 2.7246083,47.2880826 2.93945312,47.9619141 C3.15429795,48.6357456 3.45865688,49.2102841 3.85253906,49.6855469 C4.24642124,50.1608097 4.72004932,50.5286445 5.2734375,50.7890625 C5.82682568,51.0494805 6.44205391,51.1796875 7.11914062,51.1796875 C7.66601836,51.1796875 8.14778438,51.1389978 8.56445312,51.0576172 C8.98112187,50.9762366 9.34244639,50.8736985 9.6484375,50.75 C9.95442861,50.6263015 10.2067047,50.4928393 10.4052734,50.3496094 C10.6038421,50.2063795 10.7552078,50.0696621 10.859375,49.9394531 L10.859375,46.2675781 L7.04101562,46.2675781 L7.04101562,45.2519531 L12.0605469,45.2519531 L12.0605469,50.3105469 Z M20.7924107,42.4296875 C20.5450136,42.3841144 20.2813444,42.3613281 20.001395,42.3613281 C19.6042576,42.3613281 19.2461883,42.4199213 18.9271763,42.5371094 C18.6081643,42.6542975 18.3265916,42.8186838 18.0824497,43.0302734 C17.8383079,43.241863 17.6332318,43.4925116 17.4672154,43.7822266 C17.3011989,44.0719416 17.1693643,44.3925764 17.0717075,44.7441406 L17.0717075,52 L15.9095982,52 L15.9095982,41.4335938 L17.0521763,41.4335938 L17.0717075,43.1132812 C17.3581673,42.5338513 17.7471608,42.0764991 18.2386997,41.7412109 C18.7302387,41.4059228 19.3340738,41.2382812 20.0502232,41.2382812 C20.1934531,41.2382812 20.339936,41.251302 20.4896763,41.2773438 C20.6394166,41.3033855 20.7500926,41.3326821 20.8217075,41.3652344 L20.7924107,42.4296875 Z M22.5125557,46.5605469 C22.5125557,45.7923139 22.6248593,45.0826855 22.8494698,44.4316406 C23.0740803,43.7805957 23.3914599,43.2190779 23.8016182,42.7470703 C24.2117765,42.2750627 24.7065632,41.9056003 25.2859932,41.6386719 C25.8654232,41.3717435 26.509948,41.2382812 27.219587,41.2382812 C27.9422468,41.2382812 28.5949096,41.3717435 29.1775948,41.6386719 C29.76028,41.9056003 30.2566943,42.2750627 30.6668526,42.7470703 C31.0770109,43.2190779 31.3927629,43.7805957 31.6141182,44.4316406 C31.8354735,45.0826855 31.9461495,45.7923139 31.9461495,46.5605469 L31.9461495,46.8828125 C31.9461495,47.6510455 31.8354735,48.3606738 31.6141182,49.0117188 C31.3927629,49.6627637 31.0770109,50.2242815 30.6668526,50.6962891 C30.2566943,51.1682966 29.7619076,51.5361315 29.1824776,51.7998047 C28.6030476,52.0634779 27.9552676,52.1953125 27.2391182,52.1953125 C26.5229688,52.1953125 25.8751888,52.0634779 25.2957588,51.7998047 C24.7163289,51.5361315 24.2199146,51.1682966 23.806501,50.6962891 C23.3930875,50.2242815 23.0740803,49.6627637 22.8494698,49.0117188 C22.6248593,48.3606738 22.5125557,47.6510455 22.5125557,46.8828125 L22.5125557,46.5605469 Z M23.6844307,46.8828125 C23.6844307,47.4622425 23.7625549,48.0139948 23.9188057,48.5380859 C24.0750565,49.0621771 24.3029188,49.5211569 24.6023995,49.9150391 C24.9018801,50.3089212 25.2729702,50.6230457 25.7156807,50.8574219 C26.1583913,51.091798 26.6661987,51.2089844 27.2391182,51.2089844 C27.8120377,51.2089844 28.3182176,51.091798 28.7576729,50.8574219 C29.1971282,50.6230457 29.5665907,50.3089212 29.8660713,49.9150391 C30.165552,49.5211569 30.3934143,49.0621771 30.5496651,48.5380859 C30.7059159,48.0139948 30.7840401,47.4622425 30.7840401,46.8828125 L30.7840401,46.5605469 C30.7840401,45.9941378 30.7059159,45.4488958 30.5496651,44.9248047 C30.3934143,44.4007135 30.165552,43.9401062 29.8660713,43.5429688 C29.5665907,43.1458313 29.1938731,42.8284517 28.7479073,42.5908203 C28.3019415,42.3531889 27.7925065,42.234375 27.219587,42.234375 C26.6531779,42.234375 26.1502532,42.3531889 25.7107979,42.5908203 C25.2713426,42.8284517 24.9018801,43.1458313 24.6023995,43.5429688 C24.3029188,43.9401062 24.0750565,44.4007135 23.9188057,44.9248047 C23.7625549,45.4488958 23.6844307,45.9941378 23.6844307,46.5605469 L23.6844307,46.8828125 Z M36.8889508,38.7285156 L36.8889508,41.4335938 L39.0764508,41.4335938 L39.0764508,42.390625 L36.8889508,42.390625 L36.8889508,49.4316406 C36.8889508,49.8027362 36.9263853,50.1005848 37.0012555,50.3251953 C37.0761256,50.5498058 37.1770361,50.7255853 37.3039898,50.8525391 C37.4309436,50.9794928 37.5774265,51.0641274 37.743443,51.1064453 C37.9094594,51.1487632 38.0836113,51.1699219 38.2659039,51.1699219 C38.441686,51.1699219 38.6109552,51.1585288 38.7737164,51.1357422 C38.9364776,51.1129556 39.0829605,51.091797 39.2131695,51.0722656 L39.2619976,52.0292969 C39.1187678,52.0813805 38.9315951,52.1220702 38.7004742,52.1513672 C38.4693533,52.1806642 38.2398634,52.1953125 38.0119976,52.1953125 C37.6799647,52.1953125 37.3723506,52.1513676 37.0891461,52.0634766 C36.8059415,51.9755855 36.5634309,51.8242198 36.361607,51.609375 C36.1597831,51.3945302 36.0019071,51.1097023 35.8879742,50.7548828 C35.7740413,50.4000633 35.7170758,49.958987 35.7170758,49.4316406 L35.7170758,42.390625 L33.7737164,42.390625 L33.7737164,41.4335938 L35.7170758,41.4335938 L35.7170758,38.7285156 L36.8889508,38.7285156 Z M46.3044083,52.1953125 C45.6143007,52.1953125 44.9795414,52.0667331 44.4001114,51.8095703 C43.8206815,51.5524076 43.321012,51.1943382 42.901088,50.7353516 C42.481164,50.2763649 42.1540189,49.7311229 41.9196427,49.0996094 C41.6852665,48.4680958 41.5680802,47.7747434 41.5680802,47.0195312 L41.5680802,46.5996094 C41.5680802,45.7858032 41.6901493,45.0485059 41.9342911,44.3876953 C42.178433,43.7268847 42.5088333,43.1637393 42.9255021,42.6982422 C43.3421708,42.2327451 43.8223092,41.8730481 44.3659317,41.6191406 C44.9095543,41.3652331 45.4840928,41.2382812 46.0895646,41.2382812 C46.7601408,41.2382812 47.355838,41.3587228 47.8766739,41.5996094 C48.3975099,41.840496 48.835331,42.1757791 49.1901505,42.6054688 C49.54497,43.0351584 49.813522,43.546221 49.9958146,44.1386719 C50.1781071,44.7311228 50.2692521,45.3789027 50.2692521,46.0820312 L50.2692521,46.7949219 L42.7301896,46.7949219 L42.7301896,47.0195312 C42.7301896,47.5989612 42.8180793,48.1442032 42.9938614,48.6552734 C43.1696436,49.1663437 43.4170369,49.6106752 43.7360489,49.9882812 C44.0550609,50.3658873 44.4359165,50.6637359 44.8786271,50.8818359 C45.3213376,51.099936 45.8128692,51.2089844 46.3532364,51.2089844 C46.9782396,51.2089844 47.5299919,51.0950532 48.0085099,50.8671875 C48.4870279,50.6393218 48.9215939,50.2747421 49.3122208,49.7734375 L50.0446427,50.3300781 C49.8688606,50.5839856 49.6654121,50.8248687 49.4342911,51.0527344 C49.2031702,51.2806001 48.9346182,51.4791658 48.6286271,51.6484375 C48.3226359,51.8177092 47.9775873,51.9511714 47.5934708,52.0488281 C47.2093543,52.1464849 46.7796711,52.1953125 46.3044083,52.1953125 Z M46.0895646,42.234375 C45.646854,42.234375 45.2367019,42.3190096 44.8590958,42.4882812 C44.4814898,42.6575529 44.1478342,42.8984359 43.8581192,43.2109375 C43.5684043,43.5234391 43.3307764,43.8994119 43.1452286,44.3388672 C42.9596808,44.7783225 42.8343566,45.2649713 42.7692521,45.7988281 L49.1071427,45.7988281 L49.1071427,45.671875 C49.0941218,45.2291645 49.0225079,44.8011088 48.8922989,44.3876953 C48.76209,43.9742818 48.5716622,43.6080745 48.3210099,43.2890625 C48.0703576,42.9700505 47.7594883,42.7145192 47.3883927,42.5224609 C47.0172971,42.3304027 46.5843587,42.234375 46.0895646,42.234375 Z M59.5870534,49.3144531 C59.5870534,49.0996083 59.5496188,48.8847667 59.4747487,48.6699219 C59.3998785,48.4550771 59.2599059,48.2516286 59.0548268,48.0595703 C58.8497476,47.8675121 58.5632922,47.6884774 58.1954518,47.5224609 C57.8276114,47.3564445 57.3507282,47.2115892 56.7647877,47.0878906 C56.1788473,46.9641921 55.6563916,46.8209644 55.1974049,46.6582031 C54.7384183,46.4954419 54.3510523,46.2985038 54.0352955,46.0673828 C53.7195388,45.8362619 53.4802833,45.5611995 53.3175221,45.2421875 C53.1547609,44.9231755 53.0733815,44.5488303 53.0733815,44.1191406 C53.0733815,43.7285137 53.1596436,43.3574236 53.3321705,43.0058594 C53.5046975,42.6542951 53.7520908,42.3483086 54.074358,42.0878906 C54.3966253,41.8274727 54.7872464,41.620769 55.246233,41.4677734 C55.7052197,41.3147779 56.2211651,41.2382812 56.7940846,41.2382812 C57.4060668,41.2382812 57.954564,41.3180331 58.4395924,41.4775391 C58.9246209,41.6370451 59.334773,41.858397 59.6700612,42.1416016 C60.0053493,42.4248061 60.2608806,42.7584616 60.4366627,43.1425781 C60.6124449,43.5266946 60.7003346,43.9433571 60.7003346,44.3925781 L59.5284596,44.3925781 C59.5284596,44.1191393 59.4682389,43.8522148 59.3477955,43.5917969 C59.2273522,43.3313789 59.0515727,43.101889 58.8204518,42.9033203 C58.5893308,42.7047516 58.3028754,42.5436204 57.9610768,42.4199219 C57.6192782,42.2962233 57.2302847,42.234375 56.7940846,42.234375 C56.3383532,42.234375 55.9493597,42.289713 55.6270924,42.4003906 C55.3048252,42.5110683 55.0411559,42.654296 54.8360768,42.8300781 C54.6309976,43.0058603 54.4812596,43.2027984 54.386858,43.4208984 C54.2924565,43.6389985 54.2452565,43.8587229 54.2452565,44.0800781 C54.2452565,44.3144543 54.2810634,44.5276683 54.3526784,44.7197266 C54.4242933,44.9117848 54.5626383,45.0908195 54.7677174,45.2568359 C54.9727966,45.4228524 55.259252,45.5758457 55.6270924,45.7158203 C55.9949328,45.855795 56.4750712,45.9941399 57.0675221,46.1308594 C57.7055461,46.2805997 58.2556708,46.4466137 58.7179127,46.6289062 C59.1801546,46.8111988 59.5626378,47.027668 59.8653737,47.2783203 C60.1681096,47.5289726 60.3927167,47.8154281 60.5392018,48.1376953 C60.6856869,48.4599625 60.7589284,48.8326802 60.7589284,49.2558594 C60.7589284,49.6920595 60.6677834,50.0908185 60.4854909,50.4521484 C60.3031983,50.8134784 60.0427842,51.1227201 59.7042409,51.3798828 C59.3656975,51.6370456 58.9555454,51.8372389 58.4737721,51.9804688 C57.9919989,52.1236986 57.4548949,52.1953125 56.862444,52.1953125 C56.1918677,52.1953125 55.5994257,52.1090503 55.0851002,51.9365234 C54.5707747,51.7639965 54.1378364,51.5312515 53.7862721,51.2382812 C53.4347079,50.945311 53.169411,50.6084003 52.9903737,50.2275391 C52.8113363,49.8466778 52.721819,49.4511739 52.721819,49.0410156 L53.893694,49.0410156 C53.9197358,49.4576844 54.0271566,49.8043606 54.2159596,50.0810547 C54.4047626,50.3577488 54.6391353,50.5791007 54.9190846,50.7451172 C55.1990339,50.9111336 55.5099032,51.0299476 55.8517018,51.1015625 C56.1935004,51.1731774 56.5304111,51.2089844 56.862444,51.2089844 C57.3051545,51.2089844 57.6957756,51.1569016 58.034319,51.0527344 C58.3728623,50.9485672 58.6576902,50.8085946 58.8888112,50.6328125 C59.1199321,50.4570304 59.294084,50.2552095 59.4112721,50.0273438 C59.5284602,49.799478 59.5870534,49.5618502 59.5870534,49.3144531 Z M63.6314172,46.6191406 C63.6314172,45.798824 63.7241897,45.0582715 63.9097375,44.3974609 C64.0952853,43.7366503 64.3638373,43.1718773 64.7154015,42.703125 C65.0669658,42.2343727 65.496649,41.8730481 66.004464,41.6191406 C66.5122791,41.3652331 67.0884452,41.2382812 67.7329797,41.2382812 C68.4751709,41.2382812 69.1148129,41.381509 69.651925,41.6679688 C70.189037,41.9544285 70.6333685,42.3548151 70.9849328,42.8691406 L71.0435265,41.4335938 L72.1372765,41.4335938 L72.1372765,56.0625 L70.9654015,56.0625 L70.9654015,50.6914062 C70.6073268,51.1601586 70.1581126,51.5279935 69.6177453,51.7949219 C69.077378,52.0618503 68.4426187,52.1953125 67.7134484,52.1953125 C67.0754244,52.1953125 66.504141,52.0634779 65.9995812,51.7998047 C65.4950214,51.5361315 65.0669658,51.1682966 64.7154015,50.6962891 C64.3638373,50.2242815 64.0952853,49.6595085 63.9097375,49.0019531 C63.7241897,48.3443978 63.6314172,47.6184936 63.6314172,46.8242188 L63.6314172,46.6191406 Z M64.8130578,46.8242188 C64.8130578,47.4427114 64.8749061,48.0188775 64.9986047,48.5527344 C65.1223032,49.0865912 65.312731,49.5504538 65.5698937,49.9443359 C65.8270565,50.3382181 66.1509465,50.6474598 66.5415734,50.8720703 C66.9322004,51.0966808 67.3944353,51.2089844 67.9282922,51.2089844 C68.3124087,51.2089844 68.6623401,51.1634119 68.9780968,51.0722656 C69.2938536,50.9811193 69.5754263,50.8541675 69.8228234,50.6914062 C70.0702205,50.528645 70.2883173,50.3365896 70.4771203,50.1152344 C70.6659233,49.8938791 70.8286821,49.6497409 70.9654015,49.3828125 L70.9654015,44.2070312 C70.8482134,43.9531237 70.7001029,43.707358 70.5210656,43.4697266 C70.3420282,43.2320952 70.1304418,43.0221363 69.8863,42.8398438 C69.6421581,42.6575512 69.3605854,42.5110683 69.0415734,42.4003906 C68.7225614,42.289713 68.3579817,42.234375 67.9478234,42.234375 C67.4074561,42.234375 66.941966,42.3466786 66.551339,42.5712891 C66.1607121,42.7958996 65.8351945,43.1067688 65.5747765,43.5039062 C65.3143586,43.9010437 65.1223032,44.3665338 64.9986047,44.9003906 C64.8749061,45.4342475 64.8130578,46.0071584 64.8130578,46.6191406 L64.8130578,46.8242188 Z M82.7636716,50.6621094 C82.4316387,51.1438826 81.9905623,51.5198554 81.4404294,51.7900391 C80.8902964,52.0602227 80.2083371,52.1953125 79.394531,52.1953125 C78.873695,52.1953125 78.4016945,52.122071 77.9785153,51.9755859 C77.5553361,51.8291008 77.1907564,51.5963558 76.8847653,51.2773438 C76.5787742,50.9583317 76.342774,50.546552 76.1767575,50.0419922 C76.0107411,49.5374324 75.9277341,48.9238317 75.9277341,48.2011719 L75.9277341,41.4335938 L77.0898435,41.4335938 L77.0898435,48.2207031 C77.0898435,48.7871122 77.154947,49.2591127 77.285156,49.6367188 C77.4153649,50.0143248 77.5911444,50.3170562 77.8124997,50.5449219 C78.033855,50.7727876 78.2926415,50.9355464 78.5888669,51.0332031 C78.8850923,51.1308599 79.1992168,51.1796875 79.5312497,51.1796875 C80.000002,51.1796875 80.4134094,51.1276047 80.7714841,51.0234375 C81.1295588,50.9192703 81.4388005,50.7727874 81.6992185,50.5839844 C81.9596364,50.3951813 82.174478,50.1738294 82.3437497,49.9199219 C82.5130214,49.6660144 82.6464836,49.3860692 82.7441403,49.0800781 L82.7441403,41.4335938 L83.9160153,41.4335938 L83.9160153,52 L82.7832028,52 L82.7636716,50.6621094 Z M91.7592072,52.1953125 C91.0690996,52.1953125 90.4343404,52.0667331 89.8549104,51.8095703 C89.2754804,51.5524076 88.7758109,51.1943382 88.3558869,50.7353516 C87.935963,50.2763649 87.6088178,49.7311229 87.3744416,49.0996094 C87.1400655,48.4680958 87.0228791,47.7747434 87.0228791,47.0195312 L87.0228791,46.5996094 C87.0228791,45.7858032 87.1449482,45.0485059 87.3890901,44.3876953 C87.6332319,43.7268847 87.9636322,43.1637393 88.380301,42.6982422 C88.7969697,42.2327451 89.2771082,41.8730481 89.8207307,41.6191406 C90.3643532,41.3652331 90.9388917,41.2382812 91.5443635,41.2382812 C92.2149398,41.2382812 92.8106369,41.3587228 93.3314729,41.5996094 C93.8523088,41.840496 94.29013,42.1757791 94.6449494,42.6054688 C94.9997689,43.0351584 95.2683209,43.546221 95.4506135,44.1386719 C95.6329061,44.7311228 95.724051,45.3789027 95.724051,46.0820312 L95.724051,46.7949219 L88.1849885,46.7949219 L88.1849885,47.0195312 C88.1849885,47.5989612 88.2728782,48.1442032 88.4486604,48.6552734 C88.6244425,49.1663437 88.8718359,49.6106752 89.1908479,49.9882812 C89.5098599,50.3658873 89.8907155,50.6637359 90.333426,50.8818359 C90.7761365,51.099936 91.2676681,51.2089844 91.8080354,51.2089844 C92.4330385,51.2089844 92.9847908,51.0950532 93.4633088,50.8671875 C93.9418268,50.6393218 94.3763928,50.2747421 94.7670197,49.7734375 L95.4994416,50.3300781 C95.3236595,50.5839856 95.120211,50.8248687 94.8890901,51.0527344 C94.6579691,51.2806001 94.3894171,51.4791658 94.083426,51.6484375 C93.7774349,51.8177092 93.4323863,51.9511714 93.0482697,52.0488281 C92.6641532,52.1464849 92.23447,52.1953125 91.7592072,52.1953125 Z M91.5443635,42.234375 C91.101653,42.234375 90.6915008,42.3190096 90.3138947,42.4882812 C89.9362887,42.6575529 89.6026332,42.8984359 89.3129182,43.2109375 C89.0232032,43.5234391 88.7855754,43.8994119 88.6000276,44.3388672 C88.4144798,44.7783225 88.2891555,45.2649713 88.224051,45.7988281 L94.5619416,45.7988281 L94.5619416,45.671875 C94.5489207,45.2291645 94.4773069,44.8011088 94.3470979,44.3876953 C94.2168889,43.9742818 94.0264611,43.6080745 93.7758088,43.2890625 C93.5251565,42.9700505 93.2142872,42.7145192 92.8431916,42.5224609 C92.472096,42.3304027 92.0391576,42.234375 91.5443635,42.234375 Z"/>
    <path fill="#222" d="M2.329 208C.274 208-.822 206.219 3.33066907e-16 204.438L42.607 112.237C43.018 111.415 43.703 110.73 44.936 110.73L46.306 110.73C47.676 110.73 48.224 111.415 48.635 112.237L90.831 204.438C91.653 206.219 90.557 208 88.502 208L76.583 208C74.528 208 73.569 207.178 72.61 205.26L65.897 190.464 24.934 190.464 18.221 205.26C17.673 206.63 16.44 208 14.248 208L2.329 208zM31.647 175.257L59.184 175.257 45.484 145.117 45.073 145.117 31.647 175.257zM100.786331 190.601C100.786331 180.874 108.732331 173.339 122.706331 173.339 128.186331 173.339 132.707331 174.846 132.707331 174.846 132.844331 167.859 130.652331 165.393 125.583331 165.393 120.514331 165.393 113.390331 166.489 110.239331 167.448 108.321331 167.996 107.362331 166.763 107.088331 164.982L105.855331 157.858C105.444331 155.803 106.540331 154.844 107.773331 154.433 108.869331 154.022 117.637331 151.83 126.405331 151.83 143.530331 151.83 147.503331 160.735 147.503331 175.668L147.503331 205.397C147.503331 206.767 146.270331 208 144.900331 208L139.968331 208C139.009331 208 138.324331 207.589 137.639331 206.082L135.995331 202.383C132.844331 205.26 127.775331 209.37 119.281331 209.37 108.321331 209.37 100.786331 202.246 100.786331 190.601zM115.856331 190.601C115.856331 194.711 118.733331 197.725 122.980331 197.725 127.364331 197.725 131.611331 194.026 132.433331 192.382L132.433331 184.847C132.433331 184.847 128.734331 183.203 124.761331 183.203 119.418331 183.203 115.856331 186.217 115.856331 190.601zM295.68 46C295.08 46 294.76 45.48 295 44.96L307.44 18.04C307.56 17.8 307.76 17.6 308.12 17.6L308.52 17.6C308.92 17.6 309.08 17.8 309.2 18.04L321.52 44.96C321.76 45.48 321.44 46 320.84 46L317.36 46C316.76 46 316.48 45.76 316.2 45.2L314.24 40.88 302.28 40.88 300.32 45.2C300.16 45.6 299.8 46 299.16 46L295.68 46zM304.24 36.44L312.28 36.44 308.28 27.64 308.16 27.64 304.24 36.44zM322.76 40.92C322.76 38.08 325.08 35.88 329.16 35.88 330.76 35.88 332.08 36.32 332.08 36.32 332.12 34.28 331.48 33.56 330 33.56 328.52 33.56 326.44 33.88 325.52 34.16 324.96 34.32 324.68 33.96 324.6 33.44L324.24 31.36C324.12 30.76 324.44 30.48 324.8 30.36 325.12 30.24 327.68 29.6 330.24 29.6 335.24 29.6 336.4 32.2 336.4 36.56L336.4 45.24C336.4 45.64 336.04 46 335.64 46L334.2 46C333.92 46 333.72 45.88 333.52 45.44L333.04 44.36C332.12 45.2 330.64 46.4 328.16 46.4 324.96 46.4 322.76 44.32 322.76 40.92zM327.16 40.92C327.16 42.12 328 43 329.24 43 330.52 43 331.76 41.92 332 41.44L332 39.24C332 39.24 330.92 38.76 329.76 38.76 328.2 38.76 327.16 39.64 327.16 40.92zM351.08 45.24L351.08 18.76C351.08 18.36 351.4 18 351.84 18L361 18C365.76 18 369.44 21.2 369.44 25.4 369.44 28.48 366.92 30.88 365.04 31.76 367.16 32.44 370.24 34.6 370.24 38.28 370.24 42.76 366.4 46 361.52 46L351.84 46C351.4 46 351.08 45.64 351.08 45.24zM356.24 29.76L360.52 29.76C362.56 29.76 363.96 28.16 363.96 26.16 363.96 24.16 362.56 22.76 360.52 22.76L356.24 22.76 356.24 29.76zM356.24 41.28L361.08 41.28C363.08 41.28 364.68 39.72 364.68 37.64 364.68 35.64 362.68 34.16 360.6 34.16L356.24 34.16 356.24 41.28zM374.52 45.24L374.52 18.76C374.52 18.36 374.88 18 375.28 18L378.68 18C379.08 18 379.44 18.36 379.44 18.76L379.44 30.32C380.16 30.04 381.4 29.6 383 29.6 387.76 29.6 390.92 33.32 390.92 38 390.92 42.6 387.6 46.4 383.24 46.4 379.88 46.4 378 44 378 44L377.6 45.24C377.48 45.68 377.2 46 376.84 46L375.28 46C374.88 46 374.52 45.64 374.52 45.24zM379.28 39.48C379.56 40.44 380.52 42.08 382.64 42.08 384.76 42.08 386.28 40.24 386.28 38 386.28 35.76 384.64 33.92 382.4 33.92 380.4 33.92 379.28 34.84 379.28 34.84L379.28 39.48zM402.56 32.04C402.56 24.04 409 17.6 417 17.6 421.04 17.6 423.96 18.88 426.68 21.32 427.04 21.64 427.04 22.12 426.72 22.44L424.28 24.96C424 25.28 423.6 25.28 423.28 24.96 421.6 23.48 419.36 22.6 417.12 22.6 412 22.6 408.2 26.88 408.2 31.92 408.2 36.92 412.04 41.16 417.16 41.16 419.56 41.16 421.6 40.24 423.28 38.88 423.6 38.6 424.04 38.64 424.28 38.88L426.76 41.44C427.08 41.72 427 42.24 426.72 42.52 424 45.16 420.56 46.4 417 46.4 409 46.4 402.56 40.04 402.56 32.04zM429.48 38C429.48 33.28 433.52 29.6 438 29.6 440.48 29.6 442.4 30.6 443.92 32.44 444.2 32.8 444.12 33.28 443.72 33.56L441.88 35.32C441.52 35.64 441.16 35.44 440.88 35.2 440.24 34.48 439.24 33.92 438.12 33.92 435.96 33.92 434.2 35.76 434.2 38 434.2 40.28 435.92 42.08 438.08 42.08 439.8 42.08 440.56 41.24 441.28 40.56 441.56 40.28 441.96 40.2 442.28 40.44L444 41.92C444.4 42.24 444.56 42.64 444.28 43.04 442.92 45.16 440.8 46.4 437.96 46.4 433.44 46.4 429.48 42.8 429.48 38zM457.84 45.24L457.84 18.76C457.84 18.36 458.16 18 458.56 18L468.04 18C475.76 18 482.08 24.28 482.08 31.96 482.08 39.72 475.76 46 468.04 46L458.56 46C458.16 46 457.84 45.64 457.84 45.24zM463 41.12L467.56 41.12C472.76 41.12 476.56 37.2 476.56 31.96 476.56 26.76 472.76 22.84 467.56 22.84L463 22.84 463 41.12zM484.92 38C484.92 33.32 488.08 29.6 492.84 29.6 494.44 29.6 495.68 30.04 496.4 30.32L496.4 18.76C496.4 18.36 496.76 18 497.16 18L500.56 18C500.96 18 501.32 18.36 501.32 18.76L501.32 45.24C501.32 45.64 500.96 46 500.56 46L499 46C498.64 46 498.36 45.68 498.24 45.24L497.84 44C497.84 44 495.96 46.4 492.6 46.4 488.24 46.4 484.92 42.6 484.92 38zM489.56 38C489.56 40.24 491.08 42.08 493.2 42.08 495.32 42.08 496.28 40.44 496.56 39.48L496.56 34.84C496.56 34.84 495.44 33.92 493.44 33.92 491.2 33.92 489.56 35.76 489.56 38zM516.2 45.24L516.2 18.76C516.2 18.36 516.52 18 516.96 18L533.24 18C533.68 18 534 18.36 534 18.76L534 22.04C534 22.44 533.68 22.8 533.24 22.8L521.4 22.8 521.4 29.36 531.28 29.36C531.68 29.36 532.04 29.72 532.04 30.12L532.04 33.44C532.04 33.88 531.68 34.2 531.28 34.2L521.4 34.2 521.4 41.2 533.24 41.2C533.68 41.2 534 41.56 534 41.96L534 45.24C534 45.64 533.68 46 533.24 46L516.96 46C516.52 46 516.2 45.64 516.2 45.24zM537.28 38C537.28 33.48 540.68 29.6 545.44 29.6 549.56 29.6 552.92 32.72 552.92 37.04 552.92 37.32 552.88 37.84 552.84 38.12 552.8 38.52 552.44 38.8 552.08 38.8L541.84 38.8C541.96 40.44 543.36 42.28 545.68 42.28 546.92 42.28 548.08 41.8 548.8 41.28 549.2 41.04 549.56 40.96 549.84 41.28L551.48 43.16C551.76 43.44 551.84 43.88 551.44 44.2 550.12 45.44 548.08 46.4 545.48 46.4 540.68 46.4 537.28 42.6 537.28 38zM542.2 36L548.24 36C548.12 34.52 546.84 33.28 545.32 33.28 543.72 33.28 542.4 34.48 542.2 36zM566.36 45.24L566.36 18.76C566.36 18.36 566.68 18 567.12 18L583.4 18C583.84 18 584.16 18.36 584.16 18.76L584.16 22.04C584.16 22.44 583.84 22.8 583.4 22.8L571.56 22.8 571.56 30.32 581.44 30.32C581.84 30.32 582.2 30.68 582.2 31.08L582.2 34.36C582.2 34.76 581.84 35.12 581.44 35.12L571.56 35.12 571.56 45.24C571.56 45.64 571.2 46 570.8 46L567.12 46C566.68 46 566.36 45.64 566.36 45.24zM588.64 45.24L588.64 34.2 587.28 34.2C586.84 34.2 586.52 33.84 586.52 33.44L586.52 30.76C586.52 30.32 586.84 30 587.28 30L588.64 30 588.64 25.68C588.64 20.4 591.88 17.6 596.12 17.6 598.24 17.6 600.12 18.52 600.84 19.16 601.08 19.36 601.16 19.8 601 20.08L599.64 22.64C599.48 22.96 599.04 23.04 598.68 22.84 598.16 22.52 597.2 22.04 596.32 22.04 594.6 22.04 593.64 23.36 593.64 25.68L593.64 30 597.64 30C598.08 30 598.4 30.32 598.4 30.76L598.4 33.44C598.4 33.84 598.08 34.2 597.64 34.2L593.64 34.2 593.64 45.24C593.64 45.64 593.28 46 592.88 46L589.4 46C589 46 588.64 45.64 588.64 45.24zM609.52 32.04C609.52 24.04 615.92 17.6 623.88 17.6 627.48 17.6 630.92 19 633.64 21.32 633.96 21.64 634 22.12 633.68 22.44L631.2 25.04C630.88 25.36 630.52 25.36 630.16 25.04 628.44 23.52 626.32 22.72 624.12 22.72 619.12 22.72 615.16 27 615.16 32 615.16 36.96 619.12 41.16 624.16 41.16 626.4 41.16 628.12 40.48 628.92 40.16L628.92 36.76 625.72 36.76C625.28 36.76 624.96 36.44 624.96 36.04L624.96 32.88C624.96 32.44 625.28 32.12 625.72 32.12L633.4 32.12C633.8 32.12 634.12 32.48 634.12 32.88L634.12 43.12C634.12 43.44 633.96 43.64 633.8 43.76 633.8 43.76 629.68 46.36 623.88 46.36 615.92 46.36 609.52 40.04 609.52 32.04zM640.08 40.3199996C640.08 40.3199996 640.08 40.3199996 640.08 40.3199996 640.08 40.3199996 640.08 40.3199996 640.08 40.3199996zM640.08 40.3199996C640.079291 40.3191966 638.88 38.9592912 638.88 36.56 638.88 32.84 641.88 29.6 645.84 29.6L653.12 29.6C653.56 29.6 653.88 29.92 653.88 30.36L653.88 31.68C653.88 31.96 653.72 32.28 653.44 32.36L651.2 33.08C651.2 33.08 652.8 34.32 652.8 37.16 652.8 40.32 650.16 43.44 645.96 43.44 644.44 43.44 643.4 43.12 642.76 43.12 642.2 43.12 641.28 43.68 641.28 44.64 641.28 45.48 642 46 642.88 46L648 46C651.64 46 654.6 48.08 654.6 51.6 654.6 55.28 651.64 58.4 645.84 58.4 639.92 58.4 637.68 55.48 637.68 52.92 637.68 50.52 639.68 49.36 640.08 49.12L640.08 49C639.4 48.8 637.08 47.72 637.08 44.8 637.08 41.680121 640.079767 40.3201055 640.08 40.32L640.08 40.3199996zM643.16 36.76C643.16 38.44 644.36 39.64 645.96 39.64 647.6 39.64 648.72 38.44 648.72 36.76 648.72 35.08 647.6 33.88 645.96 33.88 644.36 33.88 643.16 35.08 643.16 36.76zM642.28 52.04C642.28 53.44 643.64 54.4 645.8 54.4 648.04 54.4 649.52 53.4 649.52 51.88 649.52 51.16 648.96 49.92 646.6 49.92 645.72 49.92 644.84 49.96 644 50.08 643.52 50.24 642.28 50.8 642.28 52.04zM298.64 110.24L298.64 83.76C298.64 83.36 299 83 299.4 83L303.12 83C303.56 83 303.88 83.36 303.88 83.76L303.88 94.36 316.92 94.36 316.92 83.76C316.92 83.36 317.24 83 317.68 83L321.36 83C321.76 83 322.12 83.36 322.12 83.76L322.12 110.24C322.12 110.64 321.76 111 321.36 111L317.68 111C317.24 111 316.92 110.64 316.92 110.24L316.92 99.2 303.88 99.2 303.88 110.24C303.88 110.64 303.56 111 303.12 111L299.4 111C299 111 298.64 110.64 298.64 110.24zM328.16 110.24L328.16 83.76C328.16 83.36 328.52 83 328.92 83L332.32 83C332.72 83 333.08 83.36 333.08 83.76L333.08 95.92C333.88 95.32 335.44 94.6 337.32 94.6 342.4 94.6 344.48 98.52 344.48 102.56L344.48 110.24C344.48 110.64 344.12 111 343.72 111L340.48 111C340.04 111 339.72 110.64 339.72 110.24L339.72 102.52C339.72 100.32 338.48 98.92 336.56 98.92 334.72 98.92 333.48 100.12 333.08 101.76L333.08 110.24C333.08 110.68 332.84 111 332.24 111L328.92 111C328.52 111 328.16 110.64 328.16 110.24zM359.04 110.24L359.04 83.76C359.04 83.36 359.4 83 359.8 83L363.52 83C363.92 83 364.28 83.36 364.28 83.76L364.28 110.24C364.28 110.64 363.92 111 363.52 111L359.8 111C359.4 111 359.04 110.64 359.04 110.24zM372.68 89.32C371.16 89.32 369.96 88.08 369.96 86.56 369.96 85.04 371.16 83.8 372.68 83.8 374.24 83.8 375.48 85.04 375.48 86.56 375.48 88.08 374.24 89.32 372.68 89.32zM370.32 110.24L370.32 95.76C370.32 95.32 370.68 95 371.08 95L374.4 95C374.8 95 375.16 95.32 375.16 95.76L375.16 110.24C375.16 110.64 374.8 111 374.4 111L371.08 111C370.68 111 370.32 110.64 370.32 110.24zM385.76 108.48C385.56 108.16 385.6 107.76 385.84 107.48L387.92 105.36C388.36 104.96 388.76 105.04 389.12 105.4 389.64 105.96 390.44 106.68 391.76 106.68 393.32 106.68 394.96 105.4 394.96 102.64L394.96 83.76C394.96 83.36 395.28 83 395.72 83L399.48 83C399.92 83 400.24 83.36 400.24 83.76L400.24 102.64C400.24 108.2 396.52 111.4 391.84 111.4 388.36 111.4 386.44 109.32 385.76 108.48zM407.92 89.32C406.4 89.32 405.2 88.08 405.2 86.56 405.2 85.04 406.4 83.8 407.92 83.8 409.48 83.8 410.72 85.04 410.72 86.56 410.72 88.08 409.48 89.32 407.92 89.32zM405.52 115.32L405.52 95.76C405.52 95.32 405.88 95 406.28 95L409.64 95C410.04 95 410.4 95.32 410.4 95.76L410.4 115.32C410.4 120.6 407.2 123.4 402.96 123.4 400.84 123.4 398.92 122.48 398.24 121.84 397.96 121.64 397.92 121.2 398.08 120.92L399.4 118.36C399.56 118.04 400 117.96 400.36 118.16 400.88 118.48 401.84 118.96 402.72 118.96 404.52 118.96 405.52 117.64 405.52 115.32zM425.28 110.04L425.28 83.96C425.28 83.44 425.68 83 426.24 83L429.76 83C430.28 83 430.72 83.44 430.72 83.96L430.72 94.76 440.8 83.4C440.96 83.2 441.2 83 441.56 83L445.56 83C446.32 83 446.72 83.84 446.2 84.44L435.76 96.2 446.96 109.6C447.36 110.12 447.04 111 446.24 111L441.88 111C441.48 111 441.24 110.84 441.16 110.72L430.72 97.84 430.72 110.04C430.72 110.56 430.28 111 429.76 111L426.24 111C425.68 111 425.28 110.56 425.28 110.04zM450.24 110.24L450.24 83.76C450.24 83.36 450.6 83 451 83L454.4 83C454.8 83 455.16 83.36 455.16 83.76L455.16 101.08 460.68 95.48C460.96 95.24 461.24 95 461.68 95L465.32 95C466 95 466.24 95.72 465.84 96.16L459.88 102.24 467 109.88C467.4 110.32 467.16 111 466.48 111L462.16 111C461.92 111 461.6 110.84 461.48 110.68L455.16 103.48 455.16 110.24C455.16 110.64 454.8 111 454.4 111L451 111C450.6 111 450.24 110.64 450.24 110.24zM479.88 110.24L479.88 83.76C479.88 83.36 480.2 83 480.64 83L484.32 83C484.72 83 485.08 83.36 485.08 83.76L485.08 106.2 495.28 106.2C495.72 106.2 496.04 106.56 496.04 106.96L496.04 110.24C496.04 110.64 495.72 111 495.28 111L480.64 111C480.2 111 479.88 110.64 479.88 110.24zM498.84 110.24L498.84 83.76C498.84 83.36 499.2 83 499.6 83L502.96 83C503.36 83 503.72 83.36 503.72 83.76L503.72 110.24C503.72 110.64 503.36 111 502.96 111L499.6 111C499.2 111 498.84 110.64 498.84 110.24zM516.76 110.08L521.52 83.2C521.56 82.88 521.8 82.6 522.24 82.6L522.88 82.6C523.2 82.6 523.44 82.76 523.56 83L532.36 101.88 532.48 101.88 541.28 83C541.4 82.76 541.6 82.6 541.96 82.6L542.6 82.6C543.04 82.6 543.28 82.88 543.32 83.2L548.04 110.08C548.16 110.64 547.84 111 547.32 111L543.68 111C543.32 111 543 110.68 542.92 110.4L540.56 95.24 540.44 95.24 533.44 110.96C533.36 111.2 533.12 111.4 532.76 111.4L532.04 111.4C531.68 111.4 531.48 111.2 531.36 110.96L524.28 95.24 524.16 95.24 521.84 110.4C521.8 110.68 521.48 111 521.12 111L517.52 111C517 111 516.68 110.64 516.76 110.08zM552.28 110.24L552.28 95.76C552.28 95.32 552.64 95 553.04 95L554.52 95C554.88 95 555.12 95.2 555.2 95.44L555.76 96.96C556.44 96.2 558.28 94.6 561.12 94.6 563.4 94.6 565 95.48 566.32 97.08 567 96.36 569.08 94.6 571.96 94.6 577.08 94.6 578.96 98.4 578.96 102.6L578.96 110.24C578.96 110.64 578.64 111 578.2 111L574.96 111C574.52 111 574.2 110.64 574.2 110.24L574.2 102.32C574.2 100.24 573.2 98.92 571.2 98.92 568.88 98.92 567.84 100.6 567.84 100.6 567.84 100.6 567.88 101.4 567.88 102.12L567.88 110.24C567.88 110.64 567.52 111 567.12 111L564.12 111C563.68 111 563.36 110.64 563.36 110.24L563.36 102.32C563.36 100.24 562.44 98.92 560.4 98.92 558.4 98.92 557.44 100.36 557.04 101.44L557.04 110.24C557.04 110.64 556.68 111 556.28 111L553.04 111C552.64 111 552.28 110.64 552.28 110.24zM593.52 110.24L593.52 83.32C593.52 82.92 593.88 82.6 594.28 82.6L595.28 82.6 611.92 100.28 611.96 100.28 611.96 83.76C611.96 83.36 612.28 83 612.72 83L616.4 83C616.8 83 617.16 83.36 617.16 83.76L617.16 110.68C617.16 111.08 616.8 111.4 616.4 111.4L615.44 111.4 598.72 93.04 598.68 93.04 598.68 110.24C598.68 110.64 598.36 111 597.92 111L594.28 111C593.88 111 593.52 110.64 593.52 110.24zM623.2 110.24L623.2 95.76C623.2 95.32 623.56 95 623.96 95L625.48 95C625.84 95 626.04 95.2 626.16 95.48L626.72 96.96C627.32 96.32 629.28 94.6 632.36 94.6 637.44 94.6 639.48 98.4 639.48 102.56L639.48 110.24C639.48 110.64 639.12 111 638.72 111L635.44 111C635 111 634.68 110.64 634.68 110.24L634.68 102.32C634.68 100.24 633.6 98.92 631.68 98.92 629.6 98.92 628.32 100.36 627.92 101.44L627.92 110.24C627.92 110.8 627.68 111 626.92 111L623.96 111C623.56 111 623.2 110.64 623.2 110.24zM296.64 162.04C296.64 154.04 303 147.6 311 147.6 319 147.6 325.4 154.04 325.4 162.04 325.4 170.04 319 176.4 311 176.4 303 176.4 296.64 170.04 296.64 162.04zM301.84 162.04C301.84 167.08 305.96 171.2 311 171.2 316.04 171.2 320.2 167.08 320.2 162.04 320.2 157 316.04 152.8 311 152.8 305.96 152.8 301.84 157 301.84 162.04zM328.16 167.96C328.16 163.44 331.84 159.6 336.36 159.6 340.88 159.6 344.56 163.44 344.56 167.96 344.56 172.56 340.88 176.4 336.36 176.4 331.84 176.4 328.16 172.56 328.16 167.96zM332.52 167.96C332.52 170.24 334.2 172.08 336.36 172.08 338.48 172.08 340.2 170.24 340.2 167.96 340.2 165.72 338.48 163.92 336.36 163.92 334.2 163.92 332.52 165.72 332.52 167.96zM358.2 175.24L358.2 148.76C358.2 148.36 358.52 148 358.96 148L368.36 148C373.28 148 377.32 152 377.32 156.84 377.32 161.8 373.28 165.84 368.4 165.84L363.4 165.84 363.4 175.24C363.4 175.64 363.04 176 362.64 176L358.96 176C358.52 176 358.2 175.64 358.2 175.24zM363.4 160.96L368.04 160.96C370.28 160.96 372.16 159.16 372.16 156.8 372.16 154.6 370.28 152.92 368.04 152.92L363.4 152.92 363.4 160.96zM385.56 175.52L385.56 187.24C385.56 187.72 385.32 188 384.6 188L381.4 188C381 188 380.64 187.64 380.64 187.24L380.64 160.76C380.64 160.32 381 160 381.4 160L382.96 160C383.24 160 383.52 160.16 383.64 160.48L384.16 161.8C384.76 161 386.72 159.6 389.32 159.6 393.72 159.6 397.04 163.4 397.04 168 397.04 172.72 393.44 176.4 389.12 176.4 387.56 176.4 386.12 175.84 385.56 175.52zM385.36 171.16C385.36 171.16 386.48 172.08 388.48 172.08 390.72 172.08 392.36 170.24 392.36 168 392.36 165.76 390.84 163.92 388.64 163.92 386.6 163.92 385.6 165.52 385.36 166.36L385.36 171.16zM408.72 162.04C408.72 154.04 415.08 147.6 423.08 147.6 431.08 147.6 437.48 154.04 437.48 162.04 437.48 167.48 434.32 172.28 429.68 174.84L434.68 182.72C435.04 183.28 434.68 183.92 434.04 183.92L429.8 183.92C429.64 183.92 429.28 183.76 429.16 183.52L424.88 176.28C424.24 176.36 423.56 176.4 423.08 176.4 415.08 176.4 408.72 170.04 408.72 162.04zM413.92 162.04C413.92 167.08 418.04 171.2 423.08 171.2 428.12 171.2 432.28 167.08 432.28 162.04 432.28 157 428.12 152.8 423.08 152.8 418.04 152.8 413.92 157 413.92 162.04zM440.32 168C440.32 163.4 443.64 159.6 448.04 159.6 450.64 159.6 452.6 161 453.2 161.8L453.72 160.48C453.84 160.16 454.12 160 454.4 160L455.96 160C456.36 160 456.72 160.32 456.72 160.76L456.72 187.24C456.72 187.64 456.36 188 455.96 188L452.76 188C452.04 188 451.8 187.72 451.8 187.24L451.8 175.52C451.24 175.84 449.8 176.4 448.24 176.4 443.92 176.4 440.32 172.72 440.32 168zM445 168.08C445 170.32 446.64 172.08 448.88 172.08 450.88 172.08 452 171.16 452 171.16L452 166.36C451.76 165.52 450.76 163.92 448.72 163.92 446.52 163.92 445 165.84 445 168.08zM471.6 175.24L471.6 148.76C471.6 148.36 471.92 148 472.36 148L483.8 148C488.6 148 492.52 151.84 492.52 156.6 492.52 160.28 490.08 163.28 486.6 164.68L492.08 174.84C492.36 175.36 492.08 176 491.4 176L487.2 176C486.84 176 486.64 175.8 486.56 175.64L481.24 165.04 476.8 165.04 476.8 175.24C476.8 175.64 476.44 176 476.04 176L472.36 176C471.92 176 471.6 175.64 471.6 175.24zM476.84 160.76L483.36 160.76C485.48 160.76 487.32 158.92 487.32 156.68 487.32 154.56 485.48 152.8 483.36 152.8L476.84 152.8 476.84 160.76zM497 175.24L497 160.76C497 160.32 497.36 160 497.76 160L499.28 160C499.64 160 499.88 160.2 500 160.52L500.56 162.08C501.12 161.28 502.6 159.6 505.08 159.6 506.96 159.6 508.64 160.2 508.16 161.2L506.68 163.8C506.48 164.16 506.08 164.32 505.76 164.16 505.64 164.12 505.04 163.92 504.6 163.92 503 163.92 502.04 165 501.76 165.56L501.76 175.24C501.76 175.8 501.4 176 500.84 176L497.76 176C497.36 176 497 175.64 497 175.24zM519.28 173.28C518.92 172.92 518.72 172.72 519.08 172.08L520.52 169.6C520.84 169.04 521.52 169.04 521.88 169.32 522.08 169.44 525.32 171.8 527.92 171.8 530 171.8 531.56 170.44 531.56 168.72 531.56 166.68 529.84 165.28 526.48 163.92 522.72 162.4 518.96 160 518.96 155.28 518.96 151.72 521.6 147.6 527.96 147.6 532.04 147.6 535.16 149.68 535.96 150.28 536.36 150.52 536.48 151.2 536.2 151.6L534.68 153.88C534.36 154.36 533.76 154.68 533.28 154.36 532.96 154.16 529.92 152.16 527.72 152.16 525.44 152.16 524.2 153.68 524.2 154.96 524.2 156.84 525.68 158.12 528.92 159.44 532.8 161 537.28 163.32 537.28 168.48 537.28 172.6 533.72 176.4 528.08 176.4 523.04 176.4 520.08 174.04 519.28 173.28zM540.52 174.92C540.28 174.72 540.12 174.4 540.28 174.08L541.36 171.92C541.52 171.52 541.92 171.44 542.28 171.64 542.28 171.64 544.08 172.6 545.92 172.6 546.72 172.6 547.28 172.28 547.28 171.6 547.28 170.88 546.72 170.44 544.6 169.6 541.52 168.4 540.08 166.76 540.08 164.32 540.08 161.88 541.88 159.6 545.96 159.6 548.32 159.6 550.04 160.28 550.88 160.84 551.24 161.08 551.44 161.52 551.24 161.92L550.24 163.96C550.04 164.32 549.6 164.36 549.28 164.24 549.28 164.24 547.48 163.4 545.96 163.4 545 163.4 544.6 163.8 544.6 164.32 544.6 165.04 545.32 165.28 546.8 165.88 549.88 167.08 552.2 168.4 552.2 171.52 552.2 174.16 549.88 176.4 545.84 176.4 543.2 176.4 541.36 175.56 540.52 174.92zM569.56 175.24L569.56 152.8 563.44 152.8C563 152.8 562.68 152.44 562.68 152.04L562.68 148.76C562.68 148.36 563 148 563.44 148L580.92 148C581.36 148 581.68 148.36 581.68 148.76L581.68 152.04C581.68 152.44 581.36 152.8 580.92 152.8L574.8 152.8 574.8 175.24C574.8 175.64 574.44 176 574.04 176L570.32 176C569.92 176 569.56 175.64 569.56 175.24zM585.44 171.24L585.44 164.2 584.08 164.2C583.68 164.2 583.36 163.84 583.36 163.44L583.36 160.76C583.36 160.32 583.68 160 584.08 160L585.44 160 585.44 155.56C585.44 155.16 585.8 154.8 586.2 154.8L589.48 154.76C589.88 154.76 590.2 155.12 590.2 155.52L590.2 160 593.72 160C594.16 160 594.48 160.32 594.48 160.76L594.48 163.44C594.48 163.84 594.16 164.2 593.72 164.2L590.2 164.2 590.2 170.6C590.2 171.72 590.8 171.88 591.44 171.88 592.12 171.88 592.96 171.6 593.4 171.44 593.84 171.28 594.16 171.48 594.28 171.88L595.08 174.4C595.24 174.8 595.04 175.2 594.64 175.36 594.44 175.48 591.84 176.4 589.88 176.4 586.8 176.4 585.44 174.48 585.44 171.24zM608.08 165.4L608.08 148.76C608.08 148.36 608.44 148 608.84 148L612.64 148C613.08 148 613.4 148.36 613.4 148.76L613.4 165.12C613.4 168.52 615.72 171.2 619.2 171.2 622.68 171.2 625.04 168.52 625.04 165.16L625.04 148.76C625.04 148.36 625.36 148 625.8 148L629.6 148C630 148 630.36 148.36 630.36 148.76L630.36 165.4C630.36 171.48 625.52 176.4 619.2 176.4 612.92 176.4 608.08 171.48 608.08 165.4zM635.72 168.52L635.72 160.76C635.72 160.32 636.08 160 636.48 160L639.76 160C640.16 160 640.52 160.32 640.52 160.76L640.52 168.64C640.52 170.76 641.6 172.08 643.44 172.08 645.12 172.08 646.4 170.52 646.64 169.08L646.64 160.76C646.64 160.16 646.88 160 647.52 160L650.56 160C650.96 160 651.32 160.32 651.32 160.76L651.32 175.24C651.32 175.64 650.96 176 650.56 176L649.08 176C648.68 176 648.44 175.72 648.32 175.4L647.84 174.08C647.12 174.72 645.64 176.4 642.48 176.4 637.52 176.4 635.72 172.6 635.72 168.52zM307.36 240.96L295 214.04C294.76 213.52 295.08 213 295.68 213L299.76 213C300.12 213 300.36 213.24 300.44 213.44L308.12 230.64 308.4 230.64 316.08 213.44C316.16 213.24 316.4 213 316.76 213L320.84 213C321.44 213 321.76 213.52 321.52 214.04L309.12 240.96C309 241.2 308.8 241.4 308.44 241.4L308.04 241.4C307.68 241.4 307.48 241.2 307.36 240.96zM329.08 241L321.8 225.96C321.56 225.44 321.76 225 322.36 225L325.84 225C326.24 225 326.44 225.2 326.56 225.44L329.8 232.88 329.88 232.88 333.32 225.44C333.52 225.04 333.84 225 334.28 225L337.4 225C338 225 338.24 225.44 337.96 225.96L330.64 241C330.52 241.2 330.32 241.4 329.96 241.4L329.76 241.4C329.4 241.4 329.2 241.2 329.08 241zM355.8 240.84L348.24 213.96C348.08 213.4 348.4 213 348.96 213L352.64 213C352.96 213 353.28 213.28 353.36 213.56L357.52 229.52 357.68 229.52 364.04 213.04C364.12 212.8 364.32 212.6 364.72 212.6L365.44 212.6C365.84 212.6 366.04 212.8 366.12 213.04L372.52 229.52 372.68 229.52 376.76 213.56C376.84 213.28 377.16 213 377.48 213L381.16 213C381.72 213 382.04 213.4 381.88 213.96L374.32 240.84C374.24 241.16 373.92 241.4 373.6 241.4L372.96 241.4C372.6 241.4 372.36 241.2 372.28 240.96L365.12 222.84 364.92 222.84 357.84 240.96C357.72 241.2 357.56 241.4 357.16 241.4L356.52 241.4C356.2 241.4 355.88 241.16 355.8 240.84zM388.76 240.96L383.76 225.92C383.52 225.4 383.88 225 384.44 225L387.32 225C387.56 225 387.96 225.2 388.04 225.48L390.44 232.64 390.48 232.64 394.56 224.96C394.64 224.8 394.84 224.6 395.2 224.6L395.52 224.6C395.88 224.6 396.04 224.76 396.16 224.96L400.2 232.64 400.24 232.64 402.64 225.48C402.8 225.04 403.12 225 403.56 225L406.16 225C406.72 225 407.08 225.4 406.88 225.92L401.88 240.96C401.8 241.2 401.56 241.4 401.16 241.4L401 241.4C400.68 241.4 400.48 241.24 400.36 241.04L395.32 231.72 395.28 231.72 390.28 241.04C390.16 241.24 389.96 241.4 389.64 241.4L389.44 241.4C389.08 241.4 388.84 241.2 388.76 240.96zM417.72 239.88L426.04 226.64 418.04 214.12C417.72 213.6 418.04 213 418.72 213L423.36 213C423.68 213 423.88 213.2 424 213.36L429.12 221.84 429.16 221.84 434.36 213.36C434.44 213.2 434.68 213 435 213L439.64 213C440.32 213 440.64 213.6 440.32 214.12L432.28 226.64 440.6 239.88C440.92 240.44 440.6 241 439.92 241L435.6 241C435.28 241 435 240.8 434.92 240.64L429.2 231.48 429.08 231.48 423.44 240.64C423.32 240.8 423.08 241 422.76 241L418.44 241C417.72 241 417.4 240.4 417.72 239.88zM443.24 241C442.56 241 442.4 240.36 442.76 239.84L447.96 232.84 442.92 226.16C442.52 225.64 442.84 225 443.52 225L446.84 225C447.36 225 447.8 225.04 448.16 225.56L450.76 229.32 450.8 229.32 453.44 225.56C453.76 225.12 454.08 225 454.64 225L458.24 225C458.92 225 459.12 225.64 458.72 226.16L453.68 232.8 458.76 239.84C459.12 240.36 458.92 241 458.28 241L454.76 241C454.24 241 453.92 240.76 453.64 240.36L450.8 236.36 450.76 236.36 447.72 240.68C447.6 240.84 447.28 241 447.08 241L443.24 241zM477.68 240.24L477.68 227.52 468.56 214.16C468.24 213.64 468.56 213 469.2 213L473.28 213C473.6 213 473.8 213.2 473.92 213.36L480.32 222.56 486.72 213.36C486.84 213.2 487.04 213 487.36 213L491.48 213C492.12 213 492.44 213.64 492.12 214.16L482.88 227.48 482.88 240.24C482.88 240.64 482.52 241 482.12 241L478.44 241C478 241 477.68 240.64 477.68 240.24zM498.84 239.88L492.32 226.04C492.08 225.52 492.4 225 493 225L496.6 225C496.96 225 497.16 225.2 497.28 225.44L501.32 234.48 501.36 234.48 505.36 225.44C505.56 225.04 505.84 225 506.32 225L509.52 225C510.16 225 510.48 225.52 510.2 226.04L497.96 252.52C497.84 252.76 497.6 253 497.28 253L493.84 253C493.24 253 492.88 252.48 493.16 251.92L498.84 239.88zM520.36 240.24L520.36 239.52 532.28 218 532.28 217.84 522.28 217.84C521.88 217.84 521.52 217.48 521.52 217.08L521.52 213.76C521.52 213.36 521.88 213 522.28 213L539 213C539.4 213 539.76 213.36 539.76 213.76L539.76 214.28 528 236.08 528 236.16 538.2 236.16C538.64 236.16 538.96 236.52 538.96 236.92L538.96 240.24C538.96 240.64 538.64 241 538.2 241L521.12 241C520.72 241 520.36 240.64 520.36 240.24zM542.08 240.24L542.08 239.84 547.76 229.36 547.76 229.28 543.2 229.28C542.8 229.28 542.48 228.92 542.48 228.52L542.48 225.76C542.48 225.32 542.8 225 543.2 225L553.76 225C554.36 225 554.76 225.56 554.44 226.08L548.64 236.64 548.64 236.76 552.96 236.76C553.4 236.76 553.72 237.08 553.72 237.52L553.72 240.24C553.72 240.64 553.4 241 552.96 241L542.84 241C542.44 241 542.08 240.64 542.08 240.24z"/>
  </g>
</svg>
