<svg xmlns="http://www.w3.org/2000/svg" width="356" height="690" viewBox="0 0 356 690">
  <g fill="none" fill-rule="evenodd">
    <rect width="356" height="258" y="216" fill="#0AC2DE"/>
    <rect width="356" height="72" fill="#C2E8F3"/>
    <path fill="#2C2C36" d="M139.905,35.24 L139.505,38.28 L142.205,38.28 L142.625,35.24 L139.905,35.24 Z M139.345,39.4 L138.725,44 L137.485,44 L138.105,39.4 L136.125,39.4 L136.125,38.28 L138.265,38.28 L138.665,35.24 L136.685,35.24 L136.685,34.12 L138.825,34.12 L139.445,29.56 L140.685,29.56 L140.065,34.12 L142.785,34.12 L143.385,29.56 L144.625,29.56 L144.025,34.12 L145.905,34.12 L145.905,35.24 L143.865,35.24 L143.445,38.28 L145.345,38.28 L145.345,39.4 L143.285,39.4 L142.665,44 L141.425,44 L142.045,39.4 L139.345,39.4 Z M157.375,39.4 L158.815,39.68 C158.175,42.36 156.695,44.2 153.735,44.2 C150.495,44.2 148.215,41.84 148.215,36.78 C148.215,32.08 150.255,29.36 153.735,29.36 C156.415,29.36 157.975,30.92 158.615,33.56 L157.135,34 C156.615,31.96 155.695,30.72 153.535,30.72 C151.455,30.72 149.815,32.64 149.815,36.78 C149.815,40.96 151.455,42.84 153.855,42.84 C156.075,42.84 156.935,41.16 157.375,39.4 Z M170.545,42.76 L170.545,44 L161.165,44 L161.165,42.48 C163.665,37.42 169.045,37.12 169.045,33.24 C169.045,31.56 167.965,30.6 166.125,30.6 C164.045,30.6 162.965,32.28 162.725,33.74 L161.305,33.42 C161.765,31.42 162.945,29.36 166.165,29.36 C168.525,29.36 170.565,30.72 170.565,33.2 C170.565,37.6 164.245,38.8 162.685,42.76 L170.545,42.76 Z M174.475,29.56 L183.135,29.56 L183.135,30.92 L176.075,30.92 L176.075,35.76 L181.095,35.76 L181.095,37.12 L176.075,37.12 L176.075,42.64 L183.535,42.64 L183.535,44 L174.475,44 L174.475,29.56 Z M196.145,40.24 C196.145,42.44 194.425,44.2 190.885,44.2 C187.345,44.2 185.625,42.44 185.625,40.24 C185.625,38.4 187.065,37.12 188.785,36.32 L188.785,36.28 C187.185,35.68 186.225,34.46 186.225,32.96 C186.225,30.6 188.225,29.36 190.885,29.36 C193.545,29.36 195.545,30.6 195.545,32.96 C195.545,34.46 194.585,35.68 192.985,36.28 L192.985,36.32 C194.705,36.94 196.145,38.28 196.145,40.24 Z M187.145,40.24 C187.145,41.52 188.265,42.96 190.885,42.96 C193.505,42.96 194.625,41.52 194.625,40.24 C194.625,38.56 192.905,37.72 190.625,36.96 C188.865,37.72 187.145,38.56 187.145,40.24 Z M194.025,32.88 C194.025,31.28 192.465,30.6 190.885,30.6 C189.305,30.6 187.745,31.28 187.745,32.88 C187.745,34.44 189.705,35.32 190.885,35.66 C192.485,35.26 194.025,34.28 194.025,32.88 Z M199.255,29.56 L207.815,29.56 L207.815,30.92 L200.855,30.92 L200.855,35.76 L206.015,35.76 L206.015,37.12 L200.855,37.12 L200.855,44 L199.255,44 L199.255,29.56 Z M209.305,41.36 L210.465,40.56 C211.565,42.04 212.925,42.96 214.425,42.96 C216.545,42.96 217.825,41.88 217.825,40.16 C217.825,38.14 216.625,36.92 213.745,36.92 L212.325,36.92 L212.325,35.68 L213.185,35.68 C216.065,35.68 217.305,34.76 217.305,32.98 C217.305,31.52 216.045,30.6 214.665,30.6 C212.905,30.6 212.145,31.36 211.185,32.6 L210.005,31.8 C210.985,30.44 212.345,29.36 214.665,29.36 C217.225,29.36 218.825,30.68 218.825,32.96 C218.825,34.7 217.705,35.72 216.585,36.16 C218.865,37.04 219.345,38.68 219.345,40 C219.345,42.46 217.445,44.2 214.425,44.2 C211.665,44.2 209.985,42.48 209.305,41.36 Z"/>
    <rect width="356" height="72" y="72" fill="#87D4E5"/>
    <path fill="#FAFAFF" d="M138.795,107.24 L138.395,110.28 L141.095,110.28 L141.515,107.24 L138.795,107.24 Z M138.235,111.4 L137.615,116 L136.375,116 L136.995,111.4 L135.015,111.4 L135.015,110.28 L137.155,110.28 L137.555,107.24 L135.575,107.24 L135.575,106.12 L137.715,106.12 L138.335,101.56 L139.575,101.56 L138.955,106.12 L141.675,106.12 L142.275,101.56 L143.515,101.56 L142.915,106.12 L144.795,106.12 L144.795,107.24 L142.755,107.24 L142.335,110.28 L144.235,110.28 L144.235,111.4 L142.175,111.4 L141.555,116 L140.315,116 L140.935,111.4 L138.235,111.4 Z M157.625,112.24 C157.625,114.44 155.905,116.2 152.365,116.2 C148.825,116.2 147.105,114.44 147.105,112.24 C147.105,110.4 148.545,109.12 150.265,108.32 L150.265,108.28 C148.665,107.68 147.705,106.46 147.705,104.96 C147.705,102.6 149.705,101.36 152.365,101.36 C155.025,101.36 157.025,102.6 157.025,104.96 C157.025,106.46 156.065,107.68 154.465,108.28 L154.465,108.32 C156.185,108.94 157.625,110.28 157.625,112.24 Z M148.625,112.24 C148.625,113.52 149.745,114.96 152.365,114.96 C154.985,114.96 156.105,113.52 156.105,112.24 C156.105,110.56 154.385,109.72 152.105,108.96 C150.345,109.72 148.625,110.56 148.625,112.24 Z M155.505,104.88 C155.505,103.28 153.945,102.6 152.365,102.6 C150.785,102.6 149.225,103.28 149.225,104.88 C149.225,106.44 151.185,107.32 152.365,107.66 C153.965,107.26 155.505,106.28 155.505,104.88 Z M167.535,102.8 L160.215,102.8 L160.215,101.56 L169.375,101.56 L169.375,102.44 L163.275,116 L161.595,116 L167.535,102.8 Z M174.805,102.92 L174.805,114.64 L176.965,114.64 C180.285,114.64 182.005,112.66 182.005,108.78 C182.005,104.56 180.005,102.92 177.045,102.92 L174.805,102.92 Z M173.205,116 L173.205,101.56 L177.085,101.56 C181.005,101.56 183.605,104.04 183.605,108.78 C183.605,113.02 181.325,116 177.005,116 L173.205,116 Z M196.115,112.6 L193.635,112.6 L193.635,116 L192.195,116 L192.195,112.6 L185.555,112.6 L185.555,111.36 L191.515,101.56 L193.635,101.56 L193.635,111.36 L196.115,111.36 L196.115,112.6 Z M192.135,103.08 L187.075,111.36 L192.195,111.36 L192.195,103.08 L192.135,103.08 Z M199.425,101.56 L208.085,101.56 L208.085,102.92 L201.025,102.92 L201.025,107.76 L206.045,107.76 L206.045,109.12 L201.025,109.12 L201.025,114.64 L208.485,114.64 L208.485,116 L199.425,116 L199.425,101.56 Z M219.755,101.56 L219.755,102.8 L213.555,102.8 L213.195,107.42 C214.135,106.56 215.135,106.24 216.155,106.24 C218.555,106.24 220.775,107.88 220.775,111.12 C220.775,113.32 219.455,116.2 215.775,116.2 C213.315,116.2 212.075,114.84 211.175,113.44 L212.475,112.76 C213.175,114.06 214.295,114.96 215.815,114.96 C217.715,114.96 219.255,113.84 219.255,111.12 C219.255,109 218.015,107.48 216.015,107.48 C214.615,107.48 213.555,108.32 212.975,109.66 L211.715,109.38 L212.355,101.56 L219.755,101.56 Z"/>
    <rect width="356" height="72" y="144" fill="#51C7E0"/>
    <path fill="#FAFAFF" d="M139.355,179.24 L138.955,182.28 L141.655,182.28 L142.075,179.24 L139.355,179.24 Z M138.795,183.4 L138.175,188 L136.935,188 L137.555,183.4 L135.575,183.4 L135.575,182.28 L137.715,182.28 L138.115,179.24 L136.135,179.24 L136.135,178.12 L138.275,178.12 L138.895,173.56 L140.135,173.56 L139.515,178.12 L142.235,178.12 L142.835,173.56 L144.075,173.56 L143.475,178.12 L145.355,178.12 L145.355,179.24 L143.315,179.24 L142.895,182.28 L144.795,182.28 L144.795,183.4 L142.735,183.4 L142.115,188 L140.875,188 L141.495,183.4 L138.795,183.4 Z M156.845,173.56 L156.845,174.8 L150.645,174.8 L150.285,179.42 C151.225,178.56 152.225,178.24 153.245,178.24 C155.645,178.24 157.865,179.88 157.865,183.12 C157.865,185.32 156.545,188.2 152.865,188.2 C150.405,188.2 149.165,186.84 148.265,185.44 L149.565,184.76 C150.265,186.06 151.385,186.96 152.905,186.96 C154.805,186.96 156.345,185.84 156.345,183.12 C156.345,181 155.105,179.48 153.105,179.48 C151.705,179.48 150.645,180.32 150.065,181.66 L148.805,181.38 L149.445,173.56 L156.845,173.56 Z M168.795,188 L162.395,188 L162.395,186.76 L164.895,186.76 L164.895,175.02 L162.115,175.3 L162.115,174.36 C163.115,174.06 164.255,173.76 164.895,173.36 L166.335,173.36 L166.335,186.76 L168.795,186.76 L168.795,188 Z M181.765,183.4 L183.205,183.68 C182.565,186.36 181.085,188.2 178.125,188.2 C174.885,188.2 172.605,185.84 172.605,180.78 C172.605,176.08 174.645,173.36 178.125,173.36 C180.805,173.36 182.365,174.92 183.005,177.56 L181.525,178 C181.005,175.96 180.085,174.72 177.925,174.72 C175.845,174.72 174.205,176.64 174.205,180.78 C174.205,184.96 175.845,186.84 178.245,186.84 C180.465,186.84 181.325,185.16 181.765,183.4 Z M193.035,174.8 L185.715,174.8 L185.715,173.56 L194.875,173.56 L194.875,174.44 L188.775,188 L187.095,188 L193.035,174.8 Z M198.865,173.56 L207.525,173.56 L207.525,174.92 L200.465,174.92 L200.465,179.76 L205.485,179.76 L205.485,181.12 L200.465,181.12 L200.465,186.64 L207.925,186.64 L207.925,188 L198.865,188 L198.865,173.56 Z M210.175,180.78 C210.175,175.56 212.135,173.36 215.275,173.36 C218.415,173.36 220.375,175.56 220.375,180.78 C220.375,186 218.415,188.2 215.275,188.2 C212.135,188.2 210.175,186 210.175,180.78 Z M211.695,180.78 C211.695,185.16 212.935,186.96 215.275,186.96 C217.615,186.96 218.855,185.16 218.855,180.78 C218.855,176.4 217.615,174.6 215.275,174.6 C212.935,174.6 211.695,176.4 211.695,180.78 Z"/>
    <rect width="356" height="72" y="474" fill="#139BB1"/>
    <path fill="#FAFAFF" d="M138.235,509.24 L137.835,512.28 L140.535,512.28 L140.955,509.24 L138.235,509.24 Z M137.675,513.4 L137.055,518 L135.815,518 L136.435,513.4 L134.455,513.4 L134.455,512.28 L136.595,512.28 L136.995,509.24 L135.015,509.24 L135.015,508.12 L137.155,508.12 L137.775,503.56 L139.015,503.56 L138.395,508.12 L141.115,508.12 L141.715,503.56 L142.955,503.56 L142.355,508.12 L144.235,508.12 L144.235,509.24 L142.195,509.24 L141.775,512.28 L143.675,512.28 L143.675,513.4 L141.615,513.4 L140.995,518 L139.755,518 L140.375,513.4 L137.675,513.4 Z M155.205,518 L148.805,518 L148.805,516.76 L151.305,516.76 L151.305,505.02 L148.525,505.3 L148.525,504.36 C149.525,504.06 150.665,503.76 151.305,503.36 L152.745,503.36 L152.745,516.76 L155.205,516.76 L155.205,518 Z M158.855,515.36 L160.015,514.56 C161.115,516.04 162.475,516.96 163.975,516.96 C166.095,516.96 167.375,515.88 167.375,514.16 C167.375,512.14 166.175,510.92 163.295,510.92 L161.875,510.92 L161.875,509.68 L162.735,509.68 C165.615,509.68 166.855,508.76 166.855,506.98 C166.855,505.52 165.595,504.6 164.215,504.6 C162.455,504.6 161.695,505.36 160.735,506.6 L159.555,505.8 C160.535,504.44 161.895,503.36 164.215,503.36 C166.775,503.36 168.375,504.68 168.375,506.96 C168.375,508.7 167.255,509.72 166.135,510.16 C168.415,511.04 168.895,512.68 168.895,514 C168.895,516.46 166.995,518.2 163.975,518.2 C161.215,518.2 159.535,516.48 158.855,515.36 Z M172.625,517.36 L173.245,516.14 C173.905,516.66 174.585,516.96 175.705,516.96 C177.985,516.96 179.965,514.92 180.145,510.92 C179.265,511.84 178.185,512.64 176.185,512.64 C174.025,512.64 171.845,511.12 171.845,508 C171.845,504.92 174.105,503.36 176.505,503.36 C179.505,503.36 181.665,505.12 181.665,510.04 C181.665,514.6 179.625,518.2 175.745,518.2 C174.185,518.2 173.045,517.76 172.625,517.36 Z M173.365,507.96 C173.365,510.2 174.865,511.4 176.385,511.4 C178.145,511.4 179.505,510.24 180.065,508.72 C180.025,506.2 178.705,504.6 176.625,504.6 C174.585,504.6 173.365,506 173.365,507.96 Z M185.275,518 L185.275,503.56 L190.595,503.56 C193.115,503.56 194.635,505.16 194.635,507.12 C194.635,508.7 193.935,509.84 192.195,510.44 L192.215,510.48 C193.835,510.88 194.995,512.32 194.995,514.12 C194.995,516.28 193.675,518 189.755,518 L185.275,518 Z M186.875,511.12 L186.875,516.64 L189.875,516.64 C192.235,516.64 193.395,515.84 193.395,514.04 C193.395,512.2 191.915,511.12 189.635,511.12 L186.875,511.12 Z M186.875,504.92 L186.875,509.76 L189.675,509.76 C192.095,509.76 193.035,508.52 193.035,507.3 C193.035,505.68 192.155,504.92 190.315,504.92 L186.875,504.92 Z M198.865,518 L198.865,503.56 L204.185,503.56 C206.705,503.56 208.225,505.16 208.225,507.12 C208.225,508.7 207.525,509.84 205.785,510.44 L205.805,510.48 C207.425,510.88 208.585,512.32 208.585,514.12 C208.585,516.28 207.265,518 203.345,518 L198.865,518 Z M200.465,511.12 L200.465,516.64 L203.465,516.64 C205.825,516.64 206.985,515.84 206.985,514.04 C206.985,512.2 205.505,511.12 203.225,511.12 L200.465,511.12 Z M200.465,504.92 L200.465,509.76 L203.265,509.76 C205.685,509.76 206.625,508.52 206.625,507.3 C206.625,505.68 205.745,504.92 203.905,504.92 L200.465,504.92 Z M219.795,518 L213.395,518 L213.395,516.76 L215.895,516.76 L215.895,505.02 L213.115,505.3 L213.115,504.36 C214.115,504.06 215.255,503.76 215.895,503.36 L217.335,503.36 L217.335,516.76 L219.795,516.76 L219.795,518 Z"/>
    <rect width="356" height="72" y="546" fill="#067486"/>
    <path fill="#FAFAFF" d="M139.355,581.24 L138.955,584.28 L141.655,584.28 L142.075,581.24 L139.355,581.24 Z M138.795,585.4 L138.175,590 L136.935,590 L137.555,585.4 L135.575,585.4 L135.575,584.28 L137.715,584.28 L138.115,581.24 L136.135,581.24 L136.135,580.12 L138.275,580.12 L138.895,575.56 L140.135,575.56 L139.515,580.12 L142.235,580.12 L142.835,575.56 L144.075,575.56 L143.475,580.12 L145.355,580.12 L145.355,581.24 L143.315,581.24 L142.895,584.28 L144.795,584.28 L144.795,585.4 L142.735,585.4 L142.115,590 L140.875,590 L141.495,585.4 L138.795,585.4 Z M147.825,582.78 C147.825,577.56 149.785,575.36 152.925,575.36 C156.065,575.36 158.025,577.56 158.025,582.78 C158.025,588 156.065,590.2 152.925,590.2 C149.785,590.2 147.825,588 147.825,582.78 Z M149.345,582.78 C149.345,587.16 150.585,588.96 152.925,588.96 C155.265,588.96 156.505,587.16 156.505,582.78 C156.505,578.4 155.265,576.6 152.925,576.6 C150.585,576.6 149.345,578.4 149.345,582.78 Z M169.535,576.2 L168.915,577.42 C168.255,576.9 167.575,576.6 166.455,576.6 C164.175,576.6 162.055,578.48 162.015,582.64 C162.895,581.72 163.975,580.92 165.975,580.92 C168.135,580.92 170.315,582.44 170.315,585.56 C170.315,588.64 168.055,590.2 165.655,590.2 C162.655,590.2 160.495,588.44 160.495,583.52 C160.495,578.96 162.535,575.36 166.415,575.36 C167.975,575.36 169.115,575.8 169.535,576.2 Z M168.795,585.6 C168.795,583.36 167.295,582.16 165.775,582.16 C164.015,582.16 162.175,583.6 162.055,585.24 C162.135,587.28 163.455,588.96 165.535,588.96 C167.575,588.96 168.795,587.56 168.795,585.6 Z M180.565,576.8 L173.245,576.8 L173.245,575.56 L182.405,575.56 L182.405,576.44 L176.305,590 L174.625,590 L180.565,576.8 Z M195.555,586.6 L193.075,586.6 L193.075,590 L191.635,590 L191.635,586.6 L184.995,586.6 L184.995,585.36 L190.955,575.56 L193.075,575.56 L193.075,585.36 L195.555,585.36 L195.555,586.6 Z M191.575,577.08 L186.515,585.36 L191.635,585.36 L191.635,577.08 L191.575,577.08 Z M208.065,586.24 C208.065,588.44 206.345,590.2 202.805,590.2 C199.265,590.2 197.545,588.44 197.545,586.24 C197.545,584.4 198.985,583.12 200.705,582.32 L200.705,582.28 C199.105,581.68 198.145,580.46 198.145,578.96 C198.145,576.6 200.145,575.36 202.805,575.36 C205.465,575.36 207.465,576.6 207.465,578.96 C207.465,580.46 206.505,581.68 204.905,582.28 L204.905,582.32 C206.625,582.94 208.065,584.28 208.065,586.24 Z M199.065,586.24 C199.065,587.52 200.185,588.96 202.805,588.96 C205.425,588.96 206.545,587.52 206.545,586.24 C206.545,584.56 204.825,583.72 202.545,582.96 C200.785,583.72 199.065,584.56 199.065,586.24 Z M205.945,578.88 C205.945,577.28 204.385,576.6 202.805,576.6 C201.225,576.6 199.665,577.28 199.665,578.88 C199.665,580.44 201.625,581.32 202.805,581.66 C204.405,581.26 205.945,580.28 205.945,578.88 Z M219.415,576.2 L218.795,577.42 C218.135,576.9 217.455,576.6 216.335,576.6 C214.055,576.6 211.935,578.48 211.895,582.64 C212.775,581.72 213.855,580.92 215.855,580.92 C218.015,580.92 220.195,582.44 220.195,585.56 C220.195,588.64 217.935,590.2 215.535,590.2 C212.535,590.2 210.375,588.44 210.375,583.52 C210.375,578.96 212.415,575.36 216.295,575.36 C217.855,575.36 218.995,575.8 219.415,576.2 Z M218.675,585.6 C218.675,583.36 217.175,582.16 215.655,582.16 C213.895,582.16 212.055,583.6 211.935,585.24 C212.015,587.28 213.335,588.96 215.415,588.96 C217.455,588.96 218.675,587.56 218.675,585.6 Z"/>
    <rect width="356" height="72" y="618" fill="#064D58"/>
    <path fill="#FAFAFF" d="M138.795 653.24L138.395 656.28 141.095 656.28 141.515 653.24 138.795 653.24zM138.235 657.4L137.615 662 136.375 662 136.995 657.4 135.015 657.4 135.015 656.28 137.155 656.28 137.555 653.24 135.575 653.24 135.575 652.12 137.715 652.12 138.335 647.56 139.575 647.56 138.955 652.12 141.675 652.12 142.275 647.56 143.515 647.56 142.915 652.12 144.795 652.12 144.795 653.24 142.755 653.24 142.335 656.28 144.235 656.28 144.235 657.4 142.175 657.4 141.555 662 140.315 662 140.935 657.4 138.235 657.4zM147.265 654.78C147.265 649.56 149.225 647.36 152.365 647.36 155.505 647.36 157.465 649.56 157.465 654.78 157.465 660 155.505 662.2 152.365 662.2 149.225 662.2 147.265 660 147.265 654.78zM148.785 654.78C148.785 659.16 150.025 660.96 152.365 660.96 154.705 660.96 155.945 659.16 155.945 654.78 155.945 650.4 154.705 648.6 152.365 648.6 150.025 648.6 148.785 650.4 148.785 654.78zM168.975 648.2L168.355 649.42C167.695 648.9 167.015 648.6 165.895 648.6 163.615 648.6 161.495 650.48 161.455 654.64 162.335 653.72 163.415 652.92 165.415 652.92 167.575 652.92 169.755 654.44 169.755 657.56 169.755 660.64 167.495 662.2 165.095 662.2 162.095 662.2 159.935 660.44 159.935 655.52 159.935 650.96 161.975 647.36 165.855 647.36 167.415 647.36 168.555 647.8 168.975 648.2zM168.235 657.6C168.235 655.36 166.735 654.16 165.215 654.16 163.455 654.16 161.615 655.6 161.495 657.24 161.575 659.28 162.895 660.96 164.975 660.96 167.015 660.96 168.235 659.56 168.235 657.6zM182.525 658.6L180.045 658.6 180.045 662 178.605 662 178.605 658.6 171.965 658.6 171.965 657.36 177.925 647.56 180.045 647.56 180.045 657.36 182.525 657.36 182.525 658.6zM178.545 649.08L173.485 657.36 178.605 657.36 178.605 649.08 178.545 649.08zM187.275 648.92L187.275 660.64 189.435 660.64C192.755 660.64 194.475 658.66 194.475 654.78 194.475 650.56 192.475 648.92 189.515 648.92L187.275 648.92zM185.675 662L185.675 647.56 189.555 647.56C193.475 647.56 196.075 650.04 196.075 654.78 196.075 659.02 193.795 662 189.475 662L185.675 662zM207.285 647.56L207.285 648.8 201.085 648.8 200.725 653.42C201.665 652.56 202.665 652.24 203.685 652.24 206.085 652.24 208.305 653.88 208.305 657.12 208.305 659.32 206.985 662.2 203.305 662.2 200.845 662.2 199.605 660.84 198.705 659.44L200.005 658.76C200.705 660.06 201.825 660.96 203.345 660.96 205.245 660.96 206.785 659.84 206.785 657.12 206.785 655 205.545 653.48 203.545 653.48 202.145 653.48 201.085 654.32 200.505 655.66L199.245 655.38 199.885 647.56 207.285 647.56zM221.095 658.24C221.095 660.44 219.375 662.2 215.835 662.2 212.295 662.2 210.575 660.44 210.575 658.24 210.575 656.4 212.015 655.12 213.735 654.32L213.735 654.28C212.135 653.68 211.175 652.46 211.175 650.96 211.175 648.6 213.175 647.36 215.835 647.36 218.495 647.36 220.495 648.6 220.495 650.96 220.495 652.46 219.535 653.68 217.935 654.28L217.935 654.32C219.655 654.94 221.095 656.28 221.095 658.24zM212.095 658.24C212.095 659.52 213.215 660.96 215.835 660.96 218.455 660.96 219.575 659.52 219.575 658.24 219.575 656.56 217.855 655.72 215.575 654.96 213.815 655.72 212.095 656.56 212.095 658.24zM218.975 650.88C218.975 649.28 217.415 648.6 215.835 648.6 214.255 648.6 212.695 649.28 212.695 650.88 212.695 652.44 214.655 653.32 215.835 653.66 217.435 653.26 218.975 652.28 218.975 650.88zM138.795 251.24L138.395 254.28 141.095 254.28 141.515 251.24 138.795 251.24zM138.235 255.4L137.615 260 136.375 260 136.995 255.4 135.015 255.4 135.015 254.28 137.155 254.28 137.555 251.24 135.575 251.24 135.575 250.12 137.715 250.12 138.335 245.56 139.575 245.56 138.955 250.12 141.675 250.12 142.275 245.56 143.515 245.56 142.915 250.12 144.795 250.12 144.795 251.24 142.755 251.24 142.335 254.28 144.235 254.28 144.235 255.4 142.175 255.4 141.555 260 140.315 260 140.935 255.4 138.235 255.4zM147.265 252.78C147.265 247.56 149.225 245.36 152.365 245.36 155.505 245.36 157.465 247.56 157.465 252.78 157.465 258 155.505 260.2 152.365 260.2 149.225 260.2 147.265 258 147.265 252.78zM148.785 252.78C148.785 257.16 150.025 258.96 152.365 258.96 154.705 258.96 155.945 257.16 155.945 252.78 155.945 248.4 154.705 246.6 152.365 246.6 150.025 246.6 148.785 248.4 148.785 252.78zM164.735 246.68L162.655 254.12 167.035 254.12 164.955 246.68 164.735 246.68zM160.895 260L159.215 260 163.655 245.56 166.035 245.56 170.475 260 168.795 260 167.435 255.48 162.255 255.48 160.895 260zM181.205 255.4L182.645 255.68C182.005 258.36 180.525 260.2 177.565 260.2 174.325 260.2 172.045 257.84 172.045 252.78 172.045 248.08 174.085 245.36 177.565 245.36 180.245 245.36 181.805 246.92 182.445 249.56L180.965 250C180.445 247.96 179.525 246.72 177.365 246.72 175.285 246.72 173.645 248.64 173.645 252.78 173.645 256.96 175.285 258.84 177.685 258.84 179.905 258.84 180.765 257.16 181.205 255.4zM194.375 258.76L194.375 260 184.995 260 184.995 258.48C187.495 253.42 192.875 253.12 192.875 249.24 192.875 247.56 191.795 246.6 189.955 246.6 187.875 246.6 186.795 248.28 186.555 249.74L185.135 249.42C185.595 247.42 186.775 245.36 189.995 245.36 192.355 245.36 194.395 246.72 194.395 249.2 194.395 253.6 188.075 254.8 186.515 258.76L194.375 258.76zM199.745 246.92L199.745 258.64 201.905 258.64C205.225 258.64 206.945 256.66 206.945 252.78 206.945 248.56 204.945 246.92 201.985 246.92L199.745 246.92zM198.145 260L198.145 245.56 202.025 245.56C205.945 245.56 208.545 248.04 208.545 252.78 208.545 257.02 206.265 260 201.945 260L198.145 260zM211.895 245.56L220.555 245.56 220.555 246.92 213.495 246.92 213.495 251.76 218.515 251.76 218.515 253.12 213.495 253.12 213.495 258.64 220.955 258.64 220.955 260 211.895 260 211.895 245.56z"/>
  </g>
</svg>
