<svg xmlns="http://www.w3.org/2000/svg" width="658" height="243" viewBox="0 0 658 243">
  <g fill="none" fill-rule="evenodd" transform="translate(3 -7)">
    <path fill="#8B949B" d="M9.62890625,15.359375 L2.99804688,15.359375 L2.99804688,22 L1.796875,22 L1.796875,7.78125 L10.6054688,7.78125 L10.6054688,8.80664062 L2.99804688,8.80664062 L2.99804688,14.3339844 L9.62890625,14.3339844 L9.62890625,15.359375 Z M18.1166294,12.4296875 C17.8692324,12.3841144 17.6055631,12.3613281 17.3256138,12.3613281 C16.9284764,12.3613281 16.5704071,12.4199213 16.251395,12.5371094 C15.932383,12.6542975 15.6508103,12.8186838 15.4066685,13.0302734 C15.1625266,13.241863 14.9574506,13.4925116 14.7914341,13.7822266 C14.6254177,14.0719416 14.493583,14.3925764 14.3959263,14.7441406 L14.3959263,22 L13.2338169,22 L13.2338169,11.4335938 L14.376395,11.4335938 L14.3959263,13.1132812 C14.6823861,12.5338513 15.0713796,12.0764991 15.5629185,11.7412109 C16.0544574,11.4059228 16.6582925,11.2382812 17.3744419,11.2382812 C17.5176718,11.2382812 17.6641547,11.251302 17.813895,11.2773438 C17.9636354,11.3033855 18.0743114,11.3326821 18.1459263,11.3652344 L18.1166294,12.4296875 Z M24.5828682,22.1953125 C23.8927606,22.1953125 23.2580013,22.0667331 22.6785713,21.8095703 C22.0991414,21.5524076 21.5994719,21.1943382 21.1795479,20.7353516 C20.7596239,20.2763649 20.4324788,19.7311229 20.1981026,19.0996094 C19.9637264,18.4680958 19.8465401,17.7747434 19.8465401,17.0195312 L19.8465401,16.5996094 C19.8465401,15.7858032 19.9686092,15.0485059 20.212751,14.3876953 C20.4568929,13.7268847 20.7872932,13.1637393 21.203962,12.6982422 C21.6206307,12.2327451 22.1007691,11.8730481 22.6443917,11.6191406 C23.1880142,11.3652331 23.7625527,11.2382812 24.3680245,11.2382812 C25.0386007,11.2382812 25.6342979,11.3587228 26.1551338,11.5996094 C26.6759698,11.840496 27.1137909,12.1757791 27.4686104,12.6054688 C27.8234299,13.0351584 28.0919819,13.546221 28.2742745,14.1386719 C28.456567,14.7311228 28.547712,15.3789027 28.547712,16.0820312 L28.547712,16.7949219 L21.0086495,16.7949219 L21.0086495,17.0195312 C21.0086495,17.5989612 21.0965392,18.1442032 21.2723213,18.6552734 C21.4481035,19.1663437 21.6954968,19.6106752 22.0145088,19.9882812 C22.3335209,20.3658873 22.7143764,20.6637359 23.157087,20.8818359 C23.5997975,21.099936 24.0913291,21.2089844 24.6316963,21.2089844 C25.2566995,21.2089844 25.8084518,21.0950532 26.2869698,20.8671875 C26.7654878,20.6393218 27.2000538,20.2747421 27.5906807,19.7734375 L28.3231026,20.3300781 C28.1473205,20.5839856 27.943872,20.8248687 27.712751,21.0527344 C27.4816301,21.2806001 27.2130781,21.4791658 26.907087,21.6484375 C26.6010959,21.8177092 26.2560472,21.9511714 25.8719307,22.0488281 C25.4878142,22.1464849 25.058131,22.1953125 24.5828682,22.1953125 Z M24.3680245,12.234375 C23.9253139,12.234375 23.5151618,12.3190096 23.1375557,12.4882812 C22.7599497,12.6575529 22.4262941,12.8984359 22.1365792,13.2109375 C21.8468642,13.5234391 21.6092363,13.8994119 21.4236885,14.3388672 C21.2381407,14.7783225 21.1128165,15.2649713 21.047712,15.7988281 L27.3856026,15.7988281 L27.3856026,15.671875 C27.3725817,15.2291645 27.3009678,14.8011088 27.1707588,14.3876953 C27.0405499,13.9742818 26.8501221,13.6080745 26.5994698,13.2890625 C26.3488175,12.9700505 26.0379482,12.7145192 25.6668526,12.5224609 C25.295757,12.3304027 24.8628186,12.234375 24.3680245,12.234375 Z M32.845982,22 L31.674107,22 L31.674107,11.4335938 L32.845982,11.4335938 L32.845982,22 Z M31.4690289,8.37695312 C31.4690289,8.15559785 31.5406428,7.96842524 31.6838726,7.81542969 C31.8271025,7.66243413 32.0224131,7.5859375 32.2698101,7.5859375 C32.5172072,7.5859375 32.7141453,7.66243413 32.8606305,7.81542969 C33.0071156,7.96842524 33.080357,8.15559785 33.080357,8.37695312 C33.080357,8.5983084 33.0071156,8.78385342 32.8606305,8.93359375 C32.7141453,9.08333408 32.5172072,9.15820312 32.2698101,9.15820312 C32.0224131,9.15820312 31.8271025,9.08333408 31.6838726,8.93359375 C31.5406428,8.78385342 31.4690289,8.5983084 31.4690289,8.37695312 Z M36.2653458,16.6191406 C36.2653458,15.798824 36.3581183,15.0582715 36.5436661,14.3974609 C36.7292139,13.7366503 36.9977659,13.1718773 37.3493302,12.703125 C37.7008944,12.2343727 38.1289501,11.8730481 38.6335099,11.6191406 C39.1380697,11.3652331 39.709353,11.2382812 40.3473771,11.2382812 C41.1025892,11.2382812 41.7503692,11.3896469 42.2907364,11.6923828 C42.8311037,11.9951187 43.2770628,12.416664 43.6286271,12.9570312 L43.6872208,11.4335938 L44.7809708,11.4335938 L44.7809708,21.8144531 C44.7809708,22.4980503 44.6800604,23.1116509 44.4782364,23.6552734 C44.2764125,24.1988959 43.9915846,24.6595033 43.6237442,25.0371094 C43.2559039,25.4147154 42.8115724,25.7044261 42.2907364,25.90625 C41.7699005,26.1080739 41.187224,26.2089844 40.5426896,26.2089844 C40.2106567,26.2089844 39.8721184,26.1715499 39.5270646,26.0966797 C39.1820108,26.0218095 38.8483552,25.909506 38.526088,25.7597656 C38.2038208,25.6100253 37.8994618,25.4228527 37.6130021,25.1982422 C37.3265423,24.9736317 37.0758938,24.7083349 36.8610489,24.4023438 L37.5153458,23.6992188 C37.9450355,24.2265651 38.4007601,24.6123035 38.8825333,24.8564453 C39.3643066,25.1005872 39.891645,25.2226562 40.4645646,25.2226562 C40.9658692,25.2226562 41.4102006,25.1461596 41.7975724,24.9931641 C42.1849441,24.8401685 42.5120893,24.6188166 42.7790177,24.3291016 C43.0459461,24.0393866 43.2493946,23.6878276 43.3893692,23.2744141 C43.5293439,22.8610005 43.5993302,22.3906276 43.5993302,21.8632812 L43.5993302,20.6328125 C43.2477659,21.1210962 42.8018068,21.5035793 42.2614396,21.7802734 C41.7210723,22.0569675 41.0765475,22.1953125 40.3278458,22.1953125 C39.6963322,22.1953125 39.1299317,22.0634779 38.6286271,21.7998047 C38.1273225,21.5361315 37.7008944,21.1682966 37.3493302,20.6962891 C36.9977659,20.2242815 36.7292139,19.6595085 36.5436661,19.0019531 C36.3581183,18.3443978 36.2653458,17.6184936 36.2653458,16.8242188 L36.2653458,16.6191406 Z M37.4469864,16.8242188 C37.4469864,17.4427114 37.5088348,18.01725 37.6325333,18.5478516 C37.7562318,19.0784532 37.945032,19.5390605 38.1989396,19.9296875 C38.4528471,20.3203145 38.7734819,20.626301 39.1608536,20.8476562 C39.5482254,21.0690115 40.0088327,21.1796875 40.5426896,21.1796875 C40.9463374,21.1796875 41.3092895,21.1308599 41.6315567,21.0332031 C41.953824,20.9355464 42.2386519,20.8004566 42.4860489,20.6279297 C42.733446,20.4554028 42.9482876,20.2519543 43.1305802,20.0175781 C43.3128728,19.783202 43.4691212,19.5260431 43.5993302,19.2460938 L43.5993302,14.3339844 C43.4886526,14.0605455 43.3470524,13.7985039 43.1745255,13.5478516 C43.0019986,13.2971993 42.7936673,13.0758473 42.5495255,12.8837891 C42.3053837,12.6917308 42.0205558,12.5387375 41.6950333,12.4248047 C41.3695109,12.3108718 40.9919105,12.2539062 40.5622208,12.2539062 C40.0218535,12.2539062 39.5563634,12.3662098 39.1657364,12.5908203 C38.7751095,12.8154308 38.4528471,13.1230449 38.1989396,13.5136719 C37.945032,13.9042988 37.7562318,14.3665338 37.6325333,14.9003906 C37.5088348,15.4342475 37.4469864,16.0071584 37.4469864,16.6191406 L37.4469864,16.8242188 Z M49.7042409,13.2207031 C49.8865334,12.9212225 50.0981199,12.6494153 50.3390065,12.4052734 C50.5798931,12.1611316 50.8451899,11.9528003 51.1349049,11.7802734 C51.4246199,11.6077465 51.7371168,11.4742843 52.0724049,11.3798828 C52.4076931,11.2854813 52.7641348,11.2382812 53.1417409,11.2382812 C53.6690872,11.2382812 54.1410877,11.3098951 54.5577565,11.453125 C54.9744252,11.5963549 55.3276118,11.8242172 55.6173268,12.1367188 C55.9070418,12.4492203 56.1283937,12.8512345 56.2813893,13.3427734 C56.4343849,13.8343124 56.5108815,14.4283819 56.5108815,15.125 L56.5108815,22 L55.3487721,22 L55.3487721,15.1152344 C55.3487721,14.5683566 55.2901789,14.112632 55.1729909,13.7480469 C55.0558028,13.3834617 54.8897888,13.0904959 54.674944,12.8691406 C54.4600992,12.6477854 54.1980575,12.4899093 53.8888112,12.3955078 C53.5795648,12.3011063 53.2361438,12.2539062 52.8585377,12.2539062 C52.441869,12.2539062 52.0642686,12.3238925 51.7257252,12.4638672 C51.3871819,12.6038418 51.0877057,12.7910145 50.8272877,13.0253906 C50.5668698,13.2597668 50.3422626,13.5283188 50.1534596,13.8310547 C49.9646566,14.1337906 49.8149185,14.4446599 49.7042409,14.7636719 L49.7042409,22 L48.5421315,22 L48.5421315,7 L49.7042409,7 L49.7042409,13.2207031 Z M62.0493859,8.72851562 L62.0493859,11.4335938 L64.2368859,11.4335938 L64.2368859,12.390625 L62.0493859,12.390625 L62.0493859,19.4316406 C62.0493859,19.8027362 62.0868204,20.1005848 62.1616906,20.3251953 C62.2365608,20.5498058 62.3374712,20.7255853 62.464425,20.8525391 C62.5913787,20.9794928 62.7378616,21.0641274 62.9038781,21.1064453 C63.0698945,21.1487632 63.2440465,21.1699219 63.426339,21.1699219 C63.6021212,21.1699219 63.7713903,21.1585288 63.9341515,21.1357422 C64.0969128,21.1129556 64.2433957,21.091797 64.3736047,21.0722656 L64.4224328,22.0292969 C64.2792029,22.0813805 64.0920303,22.1220702 63.8609093,22.1513672 C63.6297884,22.1806642 63.4002985,22.1953125 63.1724328,22.1953125 C62.8403999,22.1953125 62.5327858,22.1513676 62.2495812,22.0634766 C61.9663767,21.9755855 61.7238661,21.8242198 61.5220422,21.609375 C61.3202182,21.3945302 61.1623422,21.1097023 61.0484093,20.7548828 C60.9344765,20.4000633 60.8775109,19.958987 60.8775109,19.4316406 L60.8775109,12.390625 L58.9341515,12.390625 L58.9341515,11.4335938 L60.8775109,11.4335938 L60.8775109,8.72851562 L62.0493859,8.72851562 Z M11.4453125,38.8066406 L6.57226562,38.8066406 L6.57226562,52 L5.37109375,52 L5.37109375,38.8066406 L0.5078125,38.8066406 L0.5078125,37.78125 L11.4453125,37.78125 L11.4453125,38.8066406 Z M17.3060825,52.1953125 C16.6159749,52.1953125 15.9812157,52.0667331 15.4017857,51.8095703 C14.8223557,51.5524076 14.3226862,51.1943382 13.9027622,50.7353516 C13.4828383,50.2763649 13.1556931,49.7311229 12.9213169,49.0996094 C12.6869407,48.4680958 12.5697544,47.7747434 12.5697544,47.0195312 L12.5697544,46.5996094 C12.5697544,45.7858032 12.6918235,45.0485059 12.9359654,44.3876953 C13.1801072,43.7268847 13.5105075,43.1637393 13.9271763,42.6982422 C14.343845,42.2327451 14.8239835,41.8730481 15.367606,41.6191406 C15.9112285,41.3652331 16.485767,41.2382812 17.0912388,41.2382812 C17.7618151,41.2382812 18.3575122,41.3587228 18.8783482,41.5996094 C19.3991841,41.840496 19.8370053,42.1757791 20.1918247,42.6054688 C20.5466442,43.0351584 20.8151962,43.546221 20.9974888,44.1386719 C21.1797814,44.7311228 21.2709263,45.3789027 21.2709263,46.0820312 L21.2709263,46.7949219 L13.7318638,46.7949219 L13.7318638,47.0195312 C13.7318638,47.5989612 13.8197535,48.1442032 13.9955357,48.6552734 C14.1713178,49.1663437 14.4187112,49.6106752 14.7377232,49.9882812 C15.0567352,50.3658873 15.4375907,50.6637359 15.8803013,50.8818359 C16.3230118,51.099936 16.8145434,51.2089844 17.3549107,51.2089844 C17.9799138,51.2089844 18.5316661,51.0950532 19.0101841,50.8671875 C19.4887021,50.6393218 19.9232681,50.2747421 20.313895,49.7734375 L21.0463169,50.3300781 C20.8705348,50.5839856 20.6670863,50.8248687 20.4359654,51.0527344 C20.2048444,51.2806001 19.9362924,51.4791658 19.6303013,51.6484375 C19.3243102,51.8177092 18.9792616,51.9511714 18.595145,52.0488281 C18.2110285,52.1464849 17.7813453,52.1953125 17.3060825,52.1953125 Z M17.0912388,42.234375 C16.6485282,42.234375 16.2383761,42.3190096 15.86077,42.4882812 C15.483164,42.6575529 15.1495085,42.8984359 14.8597935,43.2109375 C14.5700785,43.5234391 14.3324507,43.8994119 14.1469029,44.3388672 C13.9613551,44.7783225 13.8360308,45.2649713 13.7709263,45.7988281 L20.1088169,45.7988281 L20.1088169,45.671875 C20.095796,45.2291645 20.0241822,44.8011088 19.8939732,44.3876953 C19.7637642,43.9742818 19.5733364,43.6080745 19.3226841,43.2890625 C19.0720318,42.9700505 18.7611625,42.7145192 18.3900669,42.5224609 C18.0189713,42.3304027 17.5860329,42.234375 17.0912388,42.234375 Z M27.5809151,45.7207031 L30.4324776,41.4335938 L31.8191963,41.4335938 L28.235212,46.6191406 L31.9754463,52 L30.5984932,52 L27.5906807,47.5273438 L24.5828682,52 L23.2059151,52 L26.9363838,46.6191406 L23.3523995,41.4335938 L24.7293526,41.4335938 L27.5809151,45.7207031 Z M36.517857,38.7285156 L36.517857,41.4335938 L38.705357,41.4335938 L38.705357,42.390625 L36.517857,42.390625 L36.517857,49.4316406 C36.517857,49.8027362 36.5552915,50.1005848 36.6301617,50.3251953 C36.7050319,50.5498058 36.8059423,50.7255853 36.9328961,50.8525391 C37.0598498,50.9794928 37.2063327,51.0641274 37.3723492,51.1064453 C37.5383657,51.1487632 37.7125176,51.1699219 37.8948101,51.1699219 C38.0705923,51.1699219 38.2398614,51.1585288 38.4026226,51.1357422 C38.5653839,51.1129556 38.7118668,51.091797 38.8420758,51.0722656 L38.8909039,52.0292969 C38.747674,52.0813805 38.5605014,52.1220702 38.3293805,52.1513672 C38.0982595,52.1806642 37.8687696,52.1953125 37.6409039,52.1953125 C37.308871,52.1953125 37.0012569,52.1513676 36.7180523,52.0634766 C36.4348478,51.9755855 36.1923372,51.8242198 35.9905133,51.609375 C35.7886893,51.3945302 35.6308133,51.1097023 35.5168805,50.7548828 C35.4029476,50.4000633 35.345982,49.958987 35.345982,49.4316406 L35.345982,42.390625 L33.4026226,42.390625 L33.4026226,41.4335938 L35.345982,41.4335938 L35.345982,38.7285156 L36.517857,38.7285156 Z"/>
    <path fill="#222" d="M49.84 226L50.26 221.24 58.24 220.26C61.88 219.56 61.88 218.16 59.22 209.76L54.04 194.36 23.8 194.36 18.76 209.62C16.1 217.32 15.82 219.56 19.18 220.26L26.18 221.24 26.6 226-2.24 226-1.82 221.24 3.78 220.26C7.98 219.14 9.52 217.74 15.54 200.24L35 145.36 35 140.88 46.62 135.98 73.64 217.18C74.06 218.72 75.32 219.56 77.14 219.84L85.4 221.24 85.82 226 49.84 226zM39.76 149.28L39.06 149.28 25.76 188.62 52.22 188.62 39.76 149.28zM151.71333 219.42C147.37333 224.88 143.17333 228.1 138.69333 228.1 133.65333 228.1 129.73333 225.02 129.73333 217.74L129.17333 217.74C123.71333 223.48 118.39333 228.1 111.67333 228.1 102.43333 228.1 94.5933302 221.38 94.5933302 211.86 94.5933302 200.24 105.09333 193.52 130.29333 187.5L130.29333 186.24C130.29333 171.26 125.25333 167.34 116.01333 167.34 110.83333 167.34 104.95333 169.44 104.95333 170.98 104.95333 171.68 107.75333 173.92 107.75333 177.42 107.75333 180.64 104.95333 183.72 100.89333 183.72 96.9733302 183.72 94.1733302 181.34 94.1733302 177.56 94.1733302 170.84 108.73333 161.32 120.07333 161.32 135.75333 161.32 140.93333 167.76 140.23333 188.62L139.11333 215.36C138.97333 218.58 139.95333 220.26 142.19333 220.26 144.29333 220.26 146.39333 218.72 149.33333 216.34L151.71333 219.42zM130.01333 191.98C111.25333 196.88 104.81333 202.2 104.81333 209.48 104.81333 216.2 109.43333 220.26 115.45333 220.26 120.35333 220.26 124.55333 217.32 129.17333 212.98L130.01333 191.98zM309.24 44L309.36 42.64 311.64 42.36C312.68 42.16 312.68 41.76 311.92 39.36L310.44 34.96 301.8 34.96 300.36 39.32C299.6 41.52 299.52 42.16 300.48 42.36L302.48 42.64 302.6 44 294.36 44 294.48 42.64 296.08 42.36C297.28 42.04 297.72 41.64 299.44 36.64L305 20.96 305 19.68 308.32 18.28 316.04 41.48C316.16 41.92 316.52 42.16 317.04 42.24L319.4 42.64 319.52 44 309.24 44zM306.36 22.08L306.16 22.08 302.36 33.32 309.92 33.32 306.36 22.08zM337.48 42.12C336.24 43.68 335.04 44.6 333.76 44.6 332.32 44.6 331.2 43.72 331.2 41.64L331.04 41.64C329.48 43.28 327.96 44.6 326.04 44.6 323.4 44.6 321.16 42.68 321.16 39.96 321.16 36.64 324.16 34.72 331.36 33L331.36 32.64C331.36 28.36 329.92 27.24 327.28 27.24 325.8 27.24 324.12 27.84 324.12 28.28 324.12 28.48 324.92 29.12 324.92 30.12 324.92 31.04 324.12 31.92 322.96 31.92 321.84 31.92 321.04 31.24 321.04 30.16 321.04 28.24 325.2 25.52 328.44 25.52 332.92 25.52 334.4 27.36 334.2 33.32L333.88 40.96C333.84 41.88 334.12 42.36 334.76 42.36 335.36 42.36 335.96 41.92 336.8 41.24L337.48 42.12zM331.28 34.28C325.92 35.68 324.08 37.2 324.08 39.28 324.08 41.2 325.4 42.36 327.12 42.36 328.52 42.36 329.72 41.52 331.04 40.28L331.28 34.28zM367.08 37.2C367.08 41.68 363.44 44 357.24 44L347.2 44 347.32 42.64 349.4 42.4C350.08 42.32 350.44 42.12 350.44 41.84L350.44 21.12C350.44 20.8 350.24 20.72 349.4 20.6L347.32 20.36 347.2 19 357.4 19C364 19 366.16 21.64 366.16 24.52 366.16 27.72 363.72 30.32 360.08 30.96L360.08 31.12C364.92 31.64 367.08 34.2 367.08 37.2zM362.64 25.52C362.64 22.36 360.72 20.44 356.24 20.44L353.72 20.44 353.72 30.44 356.88 30.4C360.88 30.4 362.64 27.76 362.64 25.52zM363.6 37.48C363.6 33.76 360.52 31.92 356.2 31.92L353.72 31.92 353.72 42 356.84 42.56 358 42.52C360.96 42.32 363.6 40.76 363.6 37.48zM388.52 34.48C388.52 39.88 385 44.6 379.24 44.6 378.04 44.6 376 44.12 374.8 43.68L374.72 43.68 372.92 44.84 372.48 44.84 372.48 20.2C372.48 19.76 372.36 19.52 372.08 19.44L369.08 18.56 369.2 17.56 375.32 16.12 375.32 28.6 375.48 28.6C376.92 27.04 379 25.76 381.28 25.76 385.64 25.76 388.52 29.52 388.52 34.48zM385.44 35.6C385.44 31.12 383.28 28.16 380.08 28.16 378.04 28.16 376.4 29.32 375.32 30.56L375.32 40.84C376.56 42 378 43.04 379.92 43.04 383 43.04 385.44 40.08 385.44 35.6zM421.4 44.04L419.56 43.64C418.08 44.12 415.6 44.6 413.4 44.6 405.72 44.6 399.76 39.88 399.76 31.88 399.76 23.6 405.76 18.44 413.56 18.44 415.92 18.44 417.96 18.84 419.12 19.2L422.16 18.56 422.16 26.68 420.48 26.68 419.44 21.48C418.04 20.68 416.32 20 413.32 20 407.44 20 403.4 24.8 403.4 31.36 403.4 38.24 407.2 43.08 413.76 43.08 415.72 43.08 417.52 42.64 418.92 41.88L420.6 36.48 422.36 36.48 421.4 44.04zM441.88 40.08C440.44 42.96 437.84 44.56 434.68 44.56 430.04 44.56 426.64 40.84 426.64 35.6 426.64 29.72 430.92 25.56 435.96 25.56 439.6 25.56 441.68 27.4 441.68 29.28 441.68 30.84 440.6 31.32 439.64 31.32 438.2 31.32 437.2 29.84 437.8 27.8L437.8 27.72C437.2 27.28 436.36 27 435.28 27 432.12 27 429.68 29.88 429.68 34.2 429.68 38.68 432.28 42.04 435.96 42.04 437.84 42.04 439.64 41.32 441.08 39.6L441.88 40.08zM476.32 31C476.32 37.92 471.4 44 461.48 44L452.64 44 452.76 42.64 454.84 42.4C455.52 42.32 455.88 42.12 455.88 41.84L455.88 21.12C455.88 20.8 455.68 20.72 454.84 20.6L452.76 20.36 452.64 19 461.52 18.88C470.68 18.76 476.32 23.96 476.32 31zM472.72 31.92C472.72 25.04 468.52 20.44 460.68 20.44L459.16 20.44 459.16 42 462.36 42.52C468.92 42.4 472.72 37.8 472.72 31.92zM499.72 43.88L493.76 44.6 493.76 41.92 493.64 41.92C492.32 43.36 490.36 44.56 488 44.56 483.8 44.56 480.52 40.84 480.52 35.6 480.52 30.12 484.32 25.68 490.08 25.68 491.24 25.68 492.6 25.96 493.68 26.4L493.76 26.4 493.76 19.4C493.76 19 493.64 18.76 493.4 18.68L490.28 17.96 490.44 17 496.6 16.12 496.6 41.52C496.6 41.96 496.72 42.2 497 42.28L499.84 42.92 499.72 43.88zM493.76 29.6C492.52 28.36 491.12 27.28 489.16 27.28 485.84 27.28 483.64 30.2 483.64 34.56 483.64 39.2 485.88 42.16 489.36 42.16 491.24 42.16 492.6 41.4 493.76 40.32L493.76 29.6zM529.08 44L509.88 44 510 42.64 512.08 42.4C512.76 42.32 513.12 42.12 513.12 41.84L513.12 21.12C513.12 20.8 512.92 20.72 512.08 20.6L510 20.36 509.88 19 529.08 19 529.08 26.24 527.36 26.24 526.48 22.2C526.04 20.6 525.72 20.48 517.92 20.48L516.4 20.48 516.4 30.52 517.92 30.52C521.24 30.52 521.76 30.48 521.96 29.76L522.84 27.08 524.24 27.08 523.4 35.4 522.08 35.4 521.76 32.84C521.76 32.2 521.48 31.96 517.84 31.96L516.4 31.96 516.4 42.52 517.48 42.52C525.96 42.52 526.36 42.28 526.88 40.8L527.88 36.92 529.84 36.92 529.08 44zM548.92 40.08C547.48 42.96 544.88 44.56 541.72 44.56 537.08 44.56 533.68 40.84 533.68 35.6 533.68 29.72 537.88 25.56 542.84 25.56 546.64 25.56 549 27.88 549 31.36 549 32.04 548.92 32.88 548.8 33.48L536.76 33.32C536.72 33.48 536.72 34.12 536.72 34.28 536.72 38.8 539.32 42.04 543 42.04 544.88 42.04 546.68 41.32 548.12 39.6L548.92 40.08zM545.8 32.08C546 28.92 544.52 26.96 542.12 26.96 539.92 26.96 537.56 28.92 536.92 32.12 538.64 32.08 540.12 32.08 541.44 32.08L545.8 32.08zM577.44 26.24L576.6 22.2C576.16 20.6 575.76 20.48 568.04 20.48L566.8 20.48 566.8 30.76 568.64 30.76C572.04 30.76 572.36 30.72 572.68 30L573.6 27.32 574.96 27.32 574.12 35.64 572.8 35.64 572.52 33.08C572.4 32.44 572.2 32.2 568.56 32.2L566.8 32.2 566.8 41.88C566.8 42.2 567.04 42.28 567.84 42.4L570.72 42.64 570.84 44 560.28 44 560.4 42.64 562.48 42.4C563.16 42.32 563.52 42.12 563.52 41.84L563.52 21.12C563.52 20.8 563.32 20.72 562.48 20.6L560.4 20.36 560.28 19 579.2 19 579.2 26.24 577.44 26.24zM596.64 18.52C596.64 19.64 595.88 20.32 594.92 20.32 593.8 20.32 592.84 19.44 592.4 17.84L592.36 17.64 591.36 17.56C589.12 18.48 587.88 20.92 587.88 24.92L587.88 26.2 593.44 26.2 593.16 28.04 587.88 28.04 587.88 41.92C587.88 42.24 588.08 42.44 589 42.48L591.64 42.64 591.76 44 582.24 44 582.36 42.64 584.04 42.48C584.72 42.44 585.04 42.24 585.04 41.88L585.04 28.12 581.68 27.96 581.92 26.2 584.84 26.2 584.88 25.2C585.08 19.84 588.88 16.12 593.16 16.12 595.04 16.12 596.64 17.08 596.64 18.52zM628.84 34.32L626.76 34.56C626.08 34.68 625.72 34.88 625.72 35.16L625.72 41.4 628.04 41.6 628.12 42.64C624.8 43.76 620.68 44.6 617.2 44.6 609.4 44.6 603.52 39.88 603.52 31.88 603.52 23.52 609.84 18.44 617.56 18.44 619.96 18.44 621.96 18.84 623.08 19.2L626.12 18.56 626.12 26.68 624.44 26.68 623.4 21.48C622 20.68 620.28 20 617.24 20 611.48 20 607.16 24.8 607.16 31.36 607.16 38.24 610.84 43.08 617.36 43.08 619.28 43.08 621.24 42.6 622.48 42.08L622.48 35.08C622.48 34.76 622.28 34.68 621.44 34.56L618.92 34.32 618.8 33 628.96 33 628.84 34.32zM645 28.16L645 28.36C645.76 29.28 646.24 30.32 646.24 31.92 646.24 35.4 643.16 38.28 639.2 38.28 638.44 38.28 637.52 38.2 637 38.04 636.36 38.36 635.12 39.16 635.12 40.12 635.12 41.2 636.16 41.96 637.64 41.96 638.96 41.96 641.44 41.88 642.28 41.88 645.88 41.88 648.16 44.16 648.16 47 648.16 51.2 643.96 54.12 638.28 54.12 633.96 54.12 631.2 52.2 631.2 49.36 631.2 46.88 633.08 45.48 634.96 44.64L634.96 44.48C633.48 44.2 632.4 42.92 632.4 41.6 632.4 40 633.92 38.56 635.64 37.76 635.64 37.68 635.64 37.64 635.68 37.64L635.72 37.64C633.68 36.72 632.28 34.84 632.28 32.12 632.28 28.44 635.32 25.56 639.36 25.56 641.12 25.56 642.56 25.96 643.84 26.56L649.28 26.6 649.28 28.92 645 28.16zM643.28 32C643.28 30.2 642.8 28.76 641.84 27.84 641.12 27.16 640.28 26.84 639.32 26.84 636.88 26.84 635.28 28.84 635.28 31.6 635.28 33.64 635.92 35.2 637 36.16 637.68 36.72 638.44 37 639.24 37 640.36 37 641.24 36.72 641.84 36.12 642.8 35.28 643.28 33.88 643.28 32zM645.48 48.28C645.48 46.24 644.4 44.84 641.16 44.72 639.56 44.72 639.52 44.8 636.52 44.8 635.6 45.12 633.92 46.48 633.92 48.44 633.92 51.12 636.48 52.64 639.76 52.64 643.12 52.64 645.48 50.72 645.48 48.28zM312.88 109L313 107.64 315.08 107.4C315.76 107.32 316.12 107.12 316.12 106.84L316.12 97 303.2 97 303.2 106.88C303.2 107.2 303.44 107.28 304.24 107.4L306.32 107.64 306.44 109 296.68 109 296.8 107.64 298.88 107.4C299.56 107.32 299.92 107.12 299.92 106.84L299.92 86.12C299.92 85.8 299.72 85.72 298.88 85.6L296.8 85.36 296.68 84 306.44 84 306.32 85.36 304.24 85.6C303.56 85.68 303.2 85.88 303.2 86.16L303.2 95.36 316.12 95.36 316.12 86.12C316.12 85.76 315.92 85.72 315.08 85.6L313 85.36 312.88 84 322.64 84 322.52 85.36 320.44 85.6C319.76 85.68 319.4 85.88 319.4 86.16L319.4 106.88C319.4 107.2 319.6 107.28 320.44 107.4L322.52 107.64 322.64 109 312.88 109zM337.24 109L337.36 107.64 339 107.48C339.84 107.44 340 107.24 340 106.88L340 98.16C340 94.2 338.56 93 336.16 93 334.28 93 332.52 94.08 331.4 95L331.4 106.92C331.4 107.24 331.56 107.44 332.48 107.48L334.32 107.64 334.44 109 325.8 109 325.92 107.64 327.52 107.48C328.2 107.44 328.52 107.24 328.52 106.88L328.52 85.28C328.52 84.8 328.36 84.52 328.08 84.44L325.28 83.56 325.4 82.56 331.4 81.12 331.4 93.44 331.6 93.44C333.64 91.72 335.76 90.56 338 90.56 339.24 90.56 340.44 90.92 341.36 91.84 342.44 92.92 342.84 94.36 342.84 96.28L342.84 106.88C342.84 107.2 342.96 107.36 344.04 107.48L345.6 107.64 345.72 109 337.24 109zM356 109L356.12 107.64 358.6 107.4C359.28 107.32 359.64 107.12 359.64 106.84L359.64 86.12C359.64 85.8 359.44 85.72 358.6 85.6L356.12 85.36 356 84 366.56 84 366.44 85.36 363.96 85.6C363.28 85.68 362.92 85.88 362.92 86.16L362.92 106.88C362.92 107.2 363.16 107.28 363.96 107.4L366.44 107.64 366.56 109 356 109zM375.92 84.72C375.92 85.88 375.28 86.96 373.88 86.96 372.48 86.96 371.84 85.88 371.84 84.72 371.84 83.56 372.48 82.48 373.88 82.48 375.28 82.48 375.92 83.48 375.92 84.72zM370.08 109L370.2 107.64 371.88 107.48C372.56 107.44 372.88 107.24 372.88 106.88L372.88 95.64C372.88 93.68 372.64 93.52 371.52 93.2L369.92 92.96 370 91.88 375.72 90.56 375.72 106.92C375.72 107.24 375.92 107.44 376.84 107.48L378.52 107.64 378.64 109 370.08 109zM402.12 85.36L399.8 85.6C399 85.72 398.76 85.84 398.76 86.16L398.76 99.16C398.76 105.88 396.16 109.6 391.48 109.6 389.12 109.6 387.64 108.56 387.64 107.12 387.64 106.04 388.4 105.4 389.48 105.4 390.16 105.4 390.8 105.64 391.32 106.16 391.8 106.64 392.16 107.32 392.4 108.24L392.44 108.24C394.48 107.72 395.44 106.12 395.44 99.76L395.44 86.12C395.44 85.76 395.24 85.72 394.4 85.6L391.64 85.36 391.52 84 402.24 84 402.12 85.36zM410.68 84.72C410.68 85.88 410.04 86.96 408.64 86.96 407.24 86.96 406.6 85.88 406.6 84.72 406.6 83.56 407.24 82.48 408.64 82.48 410.04 82.48 410.68 83.48 410.68 84.72zM410.48 110.32C410.16 116 407.16 119.44 404.16 119.44 402.6 119.44 401.28 118.68 401.28 117.08 401.28 116 402.24 115.2 403.2 115.2 404.48 115.2 405.28 116.12 405.72 117.56 407.12 117.12 407.64 115.2 407.64 112.2L407.64 95.64C407.64 93.68 407.4 93.52 406.28 93.2L404.68 92.96 404.76 91.88 410.48 90.56 410.48 110.32zM438.2 109L438.32 107.64 439.88 107.4C440.2 107.28 440.16 106.96 439.88 106.52L432.84 96.6 430.12 99.28 430.12 106.88C430.12 107.2 430.36 107.28 431.16 107.4L433.24 107.64 433.36 109 423.6 109 423.72 107.64 425.8 107.4C426.48 107.32 426.84 107.12 426.84 106.84L426.84 86.12C426.84 85.8 426.64 85.72 425.8 85.6L423.72 85.36 423.6 84 433.36 84 433.24 85.36 431.16 85.6C430.48 85.68 430.12 85.88 430.12 86.16L430.12 97.12 438.72 88.48C440.8 86.44 440.8 85.72 439.56 85.6L437.52 85.36 437.4 84 446.96 84 446.84 85.36 445.16 85.56C444.24 85.72 443.56 86.12 442.16 87.52L435.04 94.6 443.64 106.12C444.4 107.12 444.68 107.32 445.48 107.44L446.92 107.64 447.04 109 438.2 109zM461.96 109L459.88 105.6 456.12 100.2 454.32 101.84 454.32 106.92C454.32 107.24 454.48 107.36 455.4 107.48L456.96 107.64 457.08 109 448.72 109 448.84 107.64 450.44 107.48C451.2 107.36 451.44 107.32 451.44 106.88L451.44 85.28C451.44 84.8 451.28 84.52 451 84.44L448.2 83.56 448.32 82.56 454.32 81.12 454.32 99.96 458.56 96C459.8 94.88 460.8 93.96 460.8 93.36 460.8 92.88 460.32 92.72 459.68 92.6L458.4 92.48 458.28 91.16 466.6 91.16 466.48 92.48 465.48 92.64C464.44 92.76 463.52 93.48 461.4 95.4L458.16 98.36 463.88 106.16C464.48 106.92 464.84 107.44 465.44 107.48L467 107.64 467.12 109 461.96 109zM495.68 109L477.12 109 477.24 107.64 479.32 107.4C480 107.32 480.36 107.12 480.36 106.84L480.36 86.12C480.36 85.8 480.16 85.72 479.32 85.6L477.24 85.36 477.12 84 487.24 84 487.12 85.36 484.68 85.6C484 85.68 483.64 85.88 483.64 86.16L483.64 107.52 484.64 107.52C492.52 107.52 493.08 107.28 493.52 105.8L494.72 101.04 496.56 101.04 495.68 109zM499.92 109L500.04 107.64 501.72 107.48C502.4 107.44 502.72 107.24 502.72 106.88L502.72 85.28C502.72 84.8 502.56 84.52 502.28 84.44L499.36 83.56 499.48 82.56 505.56 81.12 505.56 106.92C505.56 107.24 505.76 107.44 506.68 107.48L508.36 107.64 508.48 109 499.92 109zM540 109L540.12 107.64 542.72 107.44C543.28 107.36 543.52 106.16 543.32 101.76L542.76 86.24 542.48 86.24 534.44 108.2 532.76 108.2 524.96 87.04 524.56 87.04 523.88 101.64C523.68 106.76 523.6 107.36 524.24 107.36L526.88 107.64 527 109 518.08 109 518.24 107.64 520.92 107.36C521.56 107.24 521.8 106.88 522.12 101.64L522.8 88.48C522.88 86.92 522.48 86 521.64 85.8L518.8 85.36 518.68 84 527.24 84 534.32 103.28 534.52 103.28 541.44 84 549.8 84 549.72 85.36 546.76 85.56C546.24 85.6 546.08 86.08 546.04 86.52L546.6 101.76C546.72 106.4 547.04 107.32 547.56 107.44L550.08 107.64 550.2 109 540 109zM575.4 109L575.52 107.64 577.08 107.48C577.92 107.44 578.08 107.24 578.08 106.88L578.08 98.04C578.08 94.16 576.48 93 574.4 93 572.76 93 571.04 94.04 569.92 95.04 569.92 95.36 569.96 97.08 569.96 97.4L569.96 106.88C569.96 107.2 570.04 107.36 571.12 107.48L572.8 107.64 572.92 109 564.4 109 564.52 107.64 566.08 107.48C566.92 107.44 567.08 107.24 567.08 106.88L567.08 98.04C567.08 94.16 565.48 93 563.4 93 561.76 93 560.04 94.04 558.96 94.96L558.96 106.92C558.96 107.24 559.12 107.44 560.04 107.48L561.96 107.64 562.08 109 553.36 109 553.48 107.64 555.08 107.48C555.76 107.44 556.08 107.24 556.08 106.88L556.08 95.64C556.08 93.68 555.84 93.52 554.76 93.2L553.16 92.96 553.2 91.88 558.96 90.56 558.96 93.44 559.08 93.44C561.04 91.72 563.12 90.56 565.2 90.56 566.36 90.56 567.6 90.96 568.44 91.76 568.96 92.28 569.36 92.96 569.6 93.72L569.76 93.72C571.8 91.84 574 90.56 576.12 90.56 577.36 90.56 578.56 90.92 579.48 91.84 580.48 92.84 580.96 94.28 580.96 96.2L580.96 106.88C580.96 107.2 581.04 107.36 582.12 107.48L583.68 107.64 583.8 109 575.4 109zM620.92 85.36L618.52 85.68C617.36 85.88 617.2 86.2 617.2 91.36L617.2 109.32 615.28 109.32 599.56 87.32 599.4 87.32 599.4 101.64C599.4 106.8 599.52 107.12 600.68 107.32L603.08 107.64 603.2 109 594 109 594.12 107.64 596.52 107.32C597.68 107.12 597.8 106.8 597.8 101.64L597.8 88.44C597.8 86.72 597.48 86.16 596.56 85.72L594.28 85.36 594.16 84 601.08 84 615.48 104.16 615.6 104.16 615.6 91.36C615.6 86.2 615.48 85.88 614.32 85.68L611.92 85.36 611.8 84 621.04 84 620.92 85.36zM635.36 109L635.48 107.64 637.12 107.48C637.96 107.44 638.12 107.24 638.12 106.88L638.12 98.16C638.12 94.2 636.68 93 634.28 93 632.4 93 630.64 94.08 629.52 95L629.52 106.92C629.52 107.24 629.68 107.44 630.6 107.48L632.44 107.64 632.56 109 623.92 109 624.04 107.64 625.64 107.48C626.32 107.44 626.64 107.24 626.64 106.88L626.64 95.56C626.64 93.72 626.48 93.52 625.4 93.2L623.72 92.96 623.76 91.88 629.52 90.56 629.52 93.44 629.72 93.44C631.76 91.72 633.88 90.56 636.12 90.56 637.36 90.56 638.56 90.92 639.48 91.84 640.56 92.92 640.96 94.36 640.96 96.28L640.96 106.88C640.96 107.2 641.08 107.36 642.16 107.48L643.76 107.64 643.88 109 635.36 109zM322.72 161.4C322.72 168.56 317.2 174.6 309.72 174.6 302.36 174.6 296.84 169.4 296.84 161.72 296.84 154.56 302.36 148.48 309.84 148.48 317.16 148.48 322.72 153.72 322.72 161.4zM319.08 161.84C319.08 154.36 314.64 149.92 309.68 149.92 304.72 149.92 300.48 154.08 300.48 161.28 300.48 168.76 304.88 173.2 309.84 173.2 314.8 173.2 319.08 169.04 319.08 161.84zM344.96 164.68C344.96 170.28 341 174.6 335.72 174.6 330.44 174.6 327 170.56 327 165.16 327 159.68 331.12 155.56 336.28 155.56 341.4 155.56 344.96 159.4 344.96 164.68zM341.84 165.88C341.84 162.96 341.16 160.28 339.68 158.72 338.92 157.96 337.64 157.08 335.88 157.08 332.6 157.08 330.16 159.96 330.16 164.28 330.16 167.28 330.88 169.88 332.36 171.44 333.12 172.2 334.32 173.04 336.12 173.04 339.32 173.04 341.84 170.24 341.84 165.88zM375.56 155.84C375.56 160.96 371.24 163.88 365.92 163.88 364.76 163.88 363.6 163.8 362.52 163.68L362.52 171.88C362.52 172.2 362.76 172.28 363.56 172.4L366.4 172.64 366.52 174 356 174 356.12 172.64 358.2 172.4C358.88 172.32 359.24 172.12 359.24 171.84L359.24 151.12C359.24 150.8 359.04 150.72 358.2 150.6L356.12 150.36 356 149 365.68 149C372.36 149 375.56 152.04 375.56 155.84zM372.04 156.48C372.04 152.68 369.56 150.44 365.56 150.48L363.44 150.48C363.12 150.48 362.8 150.48 362.52 150.52L362.52 162.08C363.52 162.36 364.6 162.48 365.76 162.48 369.6 162.48 372.04 160.2 372.04 156.48zM397.2 164.48C397.2 169.88 393.68 174.6 387.96 174.6 386.72 174.6 385.16 174.32 384.08 173.88L384 173.88 384 181.76C384 182.08 384.16 182.28 385.12 182.32L387.2 182.48 387.32 183.84 378.36 183.84 378.48 182.48 380.12 182.32C380.8 182.28 381.12 182.08 381.12 181.72L381.12 160.56C381.12 158.72 380.96 158.52 379.88 158.2L378.2 157.96 378.28 156.88 384 155.56 384 158.6 384.16 158.6C385.6 157.04 387.68 155.76 389.96 155.76 394.32 155.76 397.2 159.52 397.2 164.48zM394.12 165.6C394.12 161.12 391.96 158.16 388.76 158.16 386.72 158.16 385.08 159.32 384 160.56L384 170.84C385.24 172 386.68 173.04 388.6 173.04 391.64 173.04 394.12 170.08 394.12 165.6zM436.36 180.48C435.24 180.84 433.2 181.2 431.28 181.2 426.16 181.2 423.36 179.36 420.92 174.6 413.88 174.48 408.44 169.28 408.44 161.72 408.44 154.56 413.96 148.48 421.44 148.48 428.76 148.48 434.32 153.72 434.32 161.4 434.32 167.44 430.4 172.64 424.72 174.16 427.48 178.96 431 179.84 436.24 179.2L436.36 180.48zM430.68 161.84C430.68 154.36 426.24 149.92 421.28 149.92 416.32 149.92 412.08 154.08 412.08 161.28 412.08 168.76 416.48 173.2 421.44 173.2 426.4 173.2 430.68 169.04 430.68 161.84zM448.6 183.84L448.72 182.48 450.8 182.32C451.64 182.28 451.8 182.08 451.8 181.72L451.8 171.92 451.68 171.92C450.36 173.36 448.4 174.56 446.04 174.56 441.84 174.56 438.56 170.84 438.56 165.6 438.56 160.12 442.36 155.68 448.12 155.68 449.52 155.68 451.2 156.12 452.32 156.64L452.4 156.64 454.2 155.52 454.64 155.52 454.64 181.72C454.64 182.04 454.76 182.2 455.84 182.32L457.44 182.48 457.56 183.84 448.6 183.84zM451.8 159.6C450.56 158.36 449.16 157.28 447.2 157.28 443.88 157.28 441.68 160.2 441.68 164.56 441.68 169.2 443.92 172.16 447.4 172.16 449.28 172.16 450.64 171.4 451.8 170.32L451.8 159.6zM482.92 155.84C482.92 152.2 480.92 150.28 476.64 150.56 476.44 150.56 475.72 150.56 475.12 150.6 474.76 150.64 474.4 150.64 473.96 150.64L473.96 161.28C474.16 161.28 474.32 161.28 474.52 161.32 474.84 161.36 475.24 161.4 475.68 161.44 476.16 161.48 476.72 161.52 477.36 161.56 480.72 161.2 482.92 159.36 482.92 155.84zM486 170.68C486.96 172.08 487.32 172.24 487.92 172.36L489.56 172.64 489.68 174 483.8 174 482.28 171.24 477.4 162.92C476.76 162.96 476.2 162.96 475.68 162.96L473.96 162.96 473.96 171.88C473.96 172.2 474.2 172.28 475 172.4L477.28 172.64 477.4 174 467.44 174 467.56 172.64 469.64 172.4C470.32 172.32 470.68 172.12 470.68 171.84L470.68 151.12C470.68 150.8 470.48 150.72 469.64 150.6L467.56 150.36 467.44 149 477.68 149C483.76 149 486.48 151.48 486.48 155.12 486.48 158.76 484.12 161.04 480.56 162.28L486 170.68zM504.84 157.56C504.84 158.68 504.2 159.6 502.96 159.6 502.12 159.6 501.4 159 501.04 158.32 499.84 159.04 497.88 160.96 496.96 162.92L496.96 171.92C496.96 172.24 497.12 172.44 498.04 172.48L500.16 172.64 500.28 174 491.36 174 491.48 172.64 493.08 172.48C493.76 172.44 494.08 172.24 494.08 171.88L494.08 160.56C494.08 158.72 493.92 158.52 492.84 158.2L491.2 157.96 491.28 156.88 496.96 155.56 496.96 160.76 497.12 160.76C499.48 156.92 500.84 155.52 502.6 155.52 504.04 155.52 504.84 156.44 504.84 157.56zM531.52 167.24C531.52 171.16 528 174.6 522.36 174.6 519.64 174.64 517.4 174.16 515.36 173.52L514.76 166.44 516.36 166.44 518.04 171.96C519.36 172.56 521.4 173.04 522.96 173.04 526.6 173.04 528.56 170.72 528.56 168.32 528.56 165 526.12 163.84 522.28 162.44 518.4 160.92 515.28 159.44 515.28 155.24 515.28 151.72 517.92 148.44 523.52 148.44 525.72 148.4 527.08 148.6 528.2 148.88L530.28 148.28 530.28 156.16 528.68 156.16 527.56 151.04C526.24 150.44 524.44 150.04 523 150.04 519.76 150.04 518.16 152.04 518.16 154.2 518.16 157.44 520.8 158.44 524.32 159.84 528.36 161.32 531.52 162.84 531.52 167.24zM548.32 168.92C548.32 171.84 545.96 174.6 541.36 174.6 539.48 174.6 537.6 174.36 536.16 173.76L535.92 168.6 537.72 168.6 538.56 172.16C539.48 172.8 540.56 173.2 541.84 173.2 543.8 173.2 545.8 171.88 545.8 169.84 545.8 167.84 543.64 167.04 541.32 166.2 538.68 165.24 536.04 164.04 536.04 160.68 536.04 158 538.24 155.48 542.28 155.48 544.04 155.48 545.16 155.8 546.16 156.12L547.36 155.72 547.68 161.32 545.92 161.32 545.16 157.84C544.24 157.24 543.04 156.88 541.96 156.88 539.92 156.88 538.56 158.08 538.56 159.72 538.56 161.64 540.36 162.4 542.96 163.36 545.64 164.32 548.32 165.56 548.32 168.92zM579.4 156.68L578.52 152.48C578.2 151 577.8 150.48 572.2 150.48L571.92 150.48 571.92 171.88C571.92 172.2 572.16 172.28 572.96 172.4L575.68 172.64 575.8 174 564.76 174 564.88 172.64 567.6 172.4C568.28 172.32 568.64 172.12 568.64 171.84L568.64 150.48 568.36 150.48C562.92 150.48 562.36 150.72 561.92 152.2L560.84 156.68 559.04 156.68 559.72 149 581.12 149 581.12 156.68 579.4 156.68zM595.44 172.32C594.16 173.64 592.12 174.6 590.36 174.6 587.64 174.6 585.76 173.08 585.8 169.4L586.04 158.12 582.88 157.96 582.92 156.8 585.64 155.16 587.52 152.64 588.92 152.8 588.88 156.2 595.36 156.2 595.08 158.04 588.88 158.04 588.64 168.68C588.52 171.36 589.72 172.32 591.84 172.32 592.92 172.32 594.12 171.88 595.2 171.28L595.44 172.32zM631.56 150.36L629.2 150.68C628.04 150.88 627.88 151.2 627.88 156.36L627.88 165.72C627.88 171.24 624.24 174.6 618.32 174.6 612.48 174.6 608.84 171.8 608.84 165.4L608.84 151.12C608.84 150.8 608.64 150.72 607.8 150.6L605.72 150.36 605.6 149 615.36 149 615.24 150.36 613.16 150.6C612.48 150.68 612.12 150.88 612.12 151.16L612.12 165C612.12 170.72 615.28 172.56 619.44 172.56 623.96 172.56 626.28 169.72 626.28 165.52L626.28 156.36C626.28 151.2 626.16 150.88 625 150.68L622.6 150.36 622.48 149 631.68 149 631.56 150.36zM654.04 173.88L648.04 174.6 648.04 171.68 647.84 171.68C645.8 173.4 643.68 174.6 641.44 174.6 640.2 174.6 639 174.2 638.08 173.28 637 172.28 636.6 170.76 636.6 168.88L636.68 158.24C636.68 157.64 636.48 157.8 635.4 157.64L633.88 157.48 633.76 156.16 639.72 156.16 639.44 166.96C639.44 170.96 640.88 172.16 643.28 172.16 645.16 172.16 646.92 171.08 648.04 170.12L648.04 158.24C648.04 157.88 647.88 157.76 646.96 157.64L644.96 157.48 644.84 156.16 650.92 156.16 650.92 171.52C650.92 171.96 651.04 172.2 651.28 172.28L654.16 172.92 654.04 173.88zM320.08 215.36L318.52 215.64C317.16 215.96 316.92 216.36 315.12 221.36L308.96 239.08 305.68 239.08 297.8 216.52C297.68 216.08 297.44 215.88 296.84 215.76L294.44 215.36 294.32 214 304.6 214 304.48 215.36 302.2 215.64C301.12 215.84 301.36 216.24 302.12 218.64L308 236.2 308.36 236.2 313.36 221.36C314.96 216.68 314.56 215.68 313.12 215.56L311.6 215.36 311.48 214 320.2 214 320.08 215.36zM338.92 222.48L337.6 222.76C336.72 222.88 336.44 223.16 335.8 224.88L330.28 239.28 328.28 239.28 322.2 223.92C321.84 223.08 321.6 222.92 320.64 222.76L319.4 222.52 319.24 221.16 327.6 221.16 327.48 222.48 326 222.68C325.36 222.8 325 223 325.28 223.76L330 236 334.12 224.72C334.6 223.4 334.64 222.88 333.56 222.76L332 222.48 331.88 221.16 339.04 221.16 338.92 222.48zM383.44 215.36L382 215.64C380.76 216.04 380.56 216.2 378.84 221.36L373.24 239.08 370.92 239.08 365.12 221.8 365.04 221.8 359 239.08 356.64 239.08 349.2 216.52C349.08 216.08 348.84 215.88 348.24 215.76L345.88 215.36 345.76 214 356.04 214 355.92 215.36 353.64 215.64C352.64 215.8 352.76 216.28 353.56 218.64L358.56 234.88 358.72 234.88 364.16 219.44 363.2 216.52C363.08 216.08 362.84 215.88 362.2 215.76L359.92 215.36 359.8 214 369.96 214 369.84 215.36 367.48 215.64C366.56 215.8 366.64 216.4 367.4 218.64L372.68 234.92 372.8 234.88 376.84 221.36C378.44 216.32 378.24 216 376.84 215.68L374.76 215.36 374.64 214 383.56 214 383.44 215.36zM411.92 222.48L410.68 222.68C409.68 222.8 409.4 223.12 408.8 224.88L404.16 239.28 402.2 239.28 397.84 227.64 393.24 239.28 391.28 239.28 386 223.92C385.72 223.08 385.44 222.84 384.6 222.72L383.4 222.52 383.28 221.16 391.28 221.16 391.16 222.48 389.84 222.68C389.2 222.8 388.8 223.16 389.08 223.84L393.12 235.84 397 225.6 396.4 223.92C396.08 223.08 395.8 222.88 394.88 222.76L393.64 222.48 393.52 221.16 401.64 221.16 401.52 222.48 400.24 222.68C399.56 222.8 399.16 223.08 399.44 223.84L403.76 235.92 407.12 224.92C407.56 223.48 407.48 222.84 406.24 222.68L405 222.48 404.88 221.16 412.04 221.16 411.92 222.48zM434.32 239L434.44 237.64 436.44 237.4C437.68 237.24 437.2 236.52 435.76 234.32L431.32 227.64 431.16 227.64 426.16 235.2C425.16 236.6 425.32 237.2 426.28 237.36L428.04 237.64 428.2 239 419.48 239 419.6 237.64 421.4 237.36C422.36 237.08 422.88 236.56 423.84 235.28L430.2 226.44 423.24 216.52C422.96 216.16 422.48 215.8 422.12 215.76L420.04 215.36 419.88 214 429.84 214 429.72 215.36 427.76 215.6C426.44 215.8 426.92 216.48 428.32 218.68L432.2 224.44 432.36 224.44 436.76 217.76C437.64 216.48 437.6 215.76 436.68 215.6L434.84 215.36 434.72 214 443.36 214 443.24 215.36 441.48 215.64C440.52 215.92 439.92 216.44 439 217.72L433.32 225.68 440.96 236.48C441.24 236.84 441.64 237.12 442.08 237.24L444.16 237.64 444.28 239 434.32 239zM455.92 239L456.04 237.68 457.2 237.44C458.12 237.24 458.12 236.88 457.32 235.72L454.08 231.28 454.04 231.28 450.64 235.68C449.72 236.92 449.64 237.32 450.72 237.44L452.04 237.68 452.16 239 444.84 239 444.96 237.68 446.32 237.44C447.16 237.32 447.56 236.88 448.8 235.48L453.12 230.24 448.8 224.64C447.72 223.24 447.28 222.88 446.36 222.76L445.2 222.48 445.08 221.16 453.24 221.16 453.12 222.48 451.96 222.72C451.04 222.84 451.12 223.24 451.96 224.4L454.84 228.36 454.88 228.36 457.88 224.44C458.8 223.28 458.88 222.84 457.8 222.72L456.48 222.48 456.36 221.16 463.76 221.16 463.64 222.48 462.28 222.72C461.28 222.84 460.92 223.24 459.76 224.64L455.8 229.4 460.44 235.48C461.52 236.88 462 237.24 462.8 237.4L463.92 237.64 464.04 239 455.92 239zM496.04 215.36L494.84 215.56C493.76 215.88 493.08 216.24 492.12 217.72L485.84 228.12 485.84 236.88C485.84 237.2 486.04 237.28 486.88 237.4L489.6 237.64 489.72 239 478.64 239 478.76 237.64 481.52 237.4C482.2 237.32 482.56 237.12 482.56 236.84L482.56 228.52 475.12 216.76C474.8 216.32 474.24 215.8 473.48 215.64L471.84 215.36 471.72 214 481.48 214 481.36 215.36 479.36 215.6C478.44 215.72 478.52 216.48 479.84 218.68L484.64 226.64 484.84 226.64 490.04 217.76C490.88 216.36 490.72 215.76 489.72 215.56L488.2 215.36 488.08 214 496.16 214 496.04 215.36zM514.88 222.48L513.56 222.76C512.72 222.88 512.4 223.16 511.72 224.88L506.84 238.16 504.92 244.24C503.8 247.72 502.6 249.48 500.24 249.48 498.64 249.48 497.64 248.64 497.64 247.4 497.64 246.28 498.24 245.4 499.52 245.4 500.76 245.4 501.36 246 501.8 246.84 502.48 246.52 502.96 245.56 503.56 243.76L505.08 239.4 505.08 239.36 498.12 223.92C497.76 223.12 497.6 222.92 496.6 222.76L495.44 222.52 495.28 221.16 503.52 221.16 503.4 222.48 502.04 222.68C501.4 222.72 501.04 223 501.36 223.76L506.32 235.56 510.12 224.72C510.56 223.32 510.44 222.88 509.36 222.76L507.88 222.48 507.76 221.16 515 221.16 514.88 222.48zM542.64 239L523.4 239 523.4 237.64 539.16 215.64 539.16 215.48 534.64 215.48C527.44 215.48 527.08 215.96 526.56 217.76L525.76 221.4 524.16 221.4 524.16 214 543.04 214 543.04 215.4 527.32 237.4 527.28 237.56 531.84 237.52C539.64 237.52 540.12 237.08 540.64 235.48L541.64 231.52 543.48 231.52 542.64 239zM549.88 237.6L551.6 237.6C557.56 237.6 558.56 237.32 559.32 235.56L560.8 232.24 562.48 232.24 560.88 239 546.32 239 546.32 237.8 557.88 222.52 556.6 222.52C550.64 222.52 549.72 222.84 549.4 224.56L548.76 227.92 547 227.92 547 221.16 561.4 221.16 561.4 222.36 549.88 237.6z"/>
  </g>
</svg>
