<svg xmlns="http://www.w3.org/2000/svg" width="356" height="690" viewBox="0 0 356 690">
  <g fill="none" fill-rule="evenodd">
    <rect width="356" height="258" y="216" fill="#8193DC"/>
    <rect width="356" height="72" fill="#E0E5F4"/>
    <path fill="#2C2C36" d="M139.905,35.24 L139.505,38.28 L142.205,38.28 L142.625,35.24 L139.905,35.24 Z M139.345,39.4 L138.725,44 L137.485,44 L138.105,39.4 L136.125,39.4 L136.125,38.28 L138.265,38.28 L138.665,35.24 L136.685,35.24 L136.685,34.12 L138.825,34.12 L139.445,29.56 L140.685,29.56 L140.065,34.12 L142.785,34.12 L143.385,29.56 L144.625,29.56 L144.025,34.12 L145.905,34.12 L145.905,35.24 L143.865,35.24 L143.445,38.28 L145.345,38.28 L145.345,39.4 L143.285,39.4 L142.665,44 L141.425,44 L142.045,39.4 L139.345,39.4 Z M149.535,29.56 L158.195,29.56 L158.195,30.92 L151.135,30.92 L151.135,35.76 L156.155,35.76 L156.155,37.12 L151.135,37.12 L151.135,42.64 L158.595,42.64 L158.595,44 L149.535,44 L149.535,29.56 Z M160.845,36.78 C160.845,31.56 162.805,29.36 165.945,29.36 C169.085,29.36 171.045,31.56 171.045,36.78 C171.045,42 169.085,44.2 165.945,44.2 C162.805,44.2 160.845,42 160.845,36.78 Z M162.365,36.78 C162.365,41.16 163.605,42.96 165.945,42.96 C168.285,42.96 169.525,41.16 169.525,36.78 C169.525,32.4 168.285,30.6 165.945,30.6 C163.605,30.6 162.365,32.4 162.365,36.78 Z M174.475,29.56 L183.135,29.56 L183.135,30.92 L176.075,30.92 L176.075,35.76 L181.095,35.76 L181.095,37.12 L176.075,37.12 L176.075,42.64 L183.535,42.64 L183.535,44 L174.475,44 L174.475,29.56 Z M194.805,29.56 L194.805,30.8 L188.605,30.8 L188.245,35.42 C189.185,34.56 190.185,34.24 191.205,34.24 C193.605,34.24 195.825,35.88 195.825,39.12 C195.825,41.32 194.505,44.2 190.825,44.2 C188.365,44.2 187.125,42.84 186.225,41.44 L187.525,40.76 C188.225,42.06 189.345,42.96 190.865,42.96 C192.765,42.96 194.305,41.84 194.305,39.12 C194.305,37 193.065,35.48 191.065,35.48 C189.665,35.48 188.605,36.32 188.025,37.66 L186.765,37.38 L187.405,29.56 L194.805,29.56 Z M199.255,29.56 L207.815,29.56 L207.815,30.92 L200.855,30.92 L200.855,35.76 L206.015,35.76 L206.015,37.12 L200.855,37.12 L200.855,44 L199.255,44 L199.255,29.56 Z M219.945,40.6 L217.465,40.6 L217.465,44 L216.025,44 L216.025,40.6 L209.385,40.6 L209.385,39.36 L215.345,29.56 L217.465,29.56 L217.465,39.36 L219.945,39.36 L219.945,40.6 Z M215.965,31.08 L210.905,39.36 L216.025,39.36 L216.025,31.08 L215.965,31.08 Z"/>
    <rect width="356" height="72" y="72" fill="#BFC6E5"/>
    <path fill="#FAFAFF" d="M139.345,107.24 L138.945,110.28 L141.645,110.28 L142.065,107.24 L139.345,107.24 Z M138.785,111.4 L138.165,116 L136.925,116 L137.545,111.4 L135.565,111.4 L135.565,110.28 L137.705,110.28 L138.105,107.24 L136.125,107.24 L136.125,106.12 L138.265,106.12 L138.885,101.56 L140.125,101.56 L139.505,106.12 L142.225,106.12 L142.825,101.56 L144.065,101.56 L143.465,106.12 L145.345,106.12 L145.345,107.24 L143.305,107.24 L142.885,110.28 L144.785,110.28 L144.785,111.4 L142.725,111.4 L142.105,116 L140.865,116 L141.485,111.4 L138.785,111.4 Z M148.975,116 L148.975,101.56 L154.295,101.56 C156.815,101.56 158.335,103.16 158.335,105.12 C158.335,106.7 157.635,107.84 155.895,108.44 L155.915,108.48 C157.535,108.88 158.695,110.32 158.695,112.12 C158.695,114.28 157.375,116 153.455,116 L148.975,116 Z M150.575,109.12 L150.575,114.64 L153.575,114.64 C155.935,114.64 157.095,113.84 157.095,112.04 C157.095,110.2 155.615,109.12 153.335,109.12 L150.575,109.12 Z M150.575,102.92 L150.575,107.76 L153.375,107.76 C155.795,107.76 156.735,106.52 156.735,105.3 C156.735,103.68 155.855,102.92 154.015,102.92 L150.575,102.92 Z M162.405,101.56 L170.965,101.56 L170.965,102.92 L164.005,102.92 L164.005,107.76 L169.165,107.76 L169.165,109.12 L164.005,109.12 L164.005,116 L162.405,116 L162.405,101.56 Z M181.775,111.4 L183.215,111.68 C182.575,114.36 181.095,116.2 178.135,116.2 C174.895,116.2 172.615,113.84 172.615,108.78 C172.615,104.08 174.655,101.36 178.135,101.36 C180.815,101.36 182.375,102.92 183.015,105.56 L181.535,106 C181.015,103.96 180.095,102.72 177.935,102.72 C175.855,102.72 174.215,104.64 174.215,108.78 C174.215,112.96 175.855,114.84 178.255,114.84 C180.475,114.84 181.335,113.16 181.775,111.4 Z M194.485,102.2 L193.865,103.42 C193.205,102.9 192.525,102.6 191.405,102.6 C189.125,102.6 187.005,104.48 186.965,108.64 C187.845,107.72 188.925,106.92 190.925,106.92 C193.085,106.92 195.265,108.44 195.265,111.56 C195.265,114.64 193.005,116.2 190.605,116.2 C187.605,116.2 185.445,114.44 185.445,109.52 C185.445,104.96 187.485,101.36 191.365,101.36 C192.925,101.36 194.065,101.8 194.485,102.2 Z M193.745,111.6 C193.745,109.36 192.245,108.16 190.725,108.16 C188.965,108.16 187.125,109.6 187.005,111.24 C187.085,113.28 188.405,114.96 190.485,114.96 C192.525,114.96 193.745,113.56 193.745,111.6 Z M198.875,101.56 L207.535,101.56 L207.535,102.92 L200.475,102.92 L200.475,107.76 L205.495,107.76 L205.495,109.12 L200.475,109.12 L200.475,114.64 L207.935,114.64 L207.935,116 L198.875,116 L198.875,101.56 Z M219.205,101.56 L219.205,102.8 L213.005,102.8 L212.645,107.42 C213.585,106.56 214.585,106.24 215.605,106.24 C218.005,106.24 220.225,107.88 220.225,111.12 C220.225,113.32 218.905,116.2 215.225,116.2 C212.765,116.2 211.525,114.84 210.625,113.44 L211.925,112.76 C212.625,114.06 213.745,114.96 215.265,114.96 C217.165,114.96 218.705,113.84 218.705,111.12 C218.705,109 217.465,107.48 215.465,107.48 C214.065,107.48 213.005,108.32 212.425,109.66 L211.165,109.38 L211.805,101.56 L219.205,101.56 Z"/>
    <rect width="356" height="72" y="144" fill="#A4AED7"/>
    <path fill="#FAFAFF" d="M138.795,179.24 L138.395,182.28 L141.095,182.28 L141.515,179.24 L138.795,179.24 Z M138.235,183.4 L137.615,188 L136.375,188 L136.995,183.4 L135.015,183.4 L135.015,182.28 L137.155,182.28 L137.555,179.24 L135.575,179.24 L135.575,178.12 L137.715,178.12 L138.335,173.56 L139.575,173.56 L138.955,178.12 L141.675,178.12 L142.275,173.56 L143.515,173.56 L142.915,178.12 L144.795,178.12 L144.795,179.24 L142.755,179.24 L142.335,182.28 L144.235,182.28 L144.235,183.4 L142.175,183.4 L141.555,188 L140.315,188 L140.935,183.4 L138.235,183.4 Z M152.265,174.68 L150.185,182.12 L154.565,182.12 L152.485,174.68 L152.265,174.68 Z M148.425,188 L146.745,188 L151.185,173.56 L153.565,173.56 L158.005,188 L156.325,188 L154.965,183.48 L149.785,183.48 L148.425,188 Z M170.055,184.6 L167.575,184.6 L167.575,188 L166.135,188 L166.135,184.6 L159.495,184.6 L159.495,183.36 L165.455,173.56 L167.575,173.56 L167.575,183.36 L170.055,183.36 L170.055,184.6 Z M166.075,175.08 L161.015,183.36 L166.135,183.36 L166.135,175.08 L166.075,175.08 Z M177.205,174.68 L175.125,182.12 L179.505,182.12 L177.425,174.68 L177.205,174.68 Z M173.365,188 L171.685,188 L176.125,173.56 L178.505,173.56 L182.945,188 L181.265,188 L179.905,183.48 L174.725,183.48 L173.365,188 Z M185.835,173.56 L194.495,173.56 L194.495,174.92 L187.435,174.92 L187.435,179.76 L192.455,179.76 L192.455,181.12 L187.435,181.12 L187.435,186.64 L194.895,186.64 L194.895,188 L185.835,188 L185.835,173.56 Z M199.745,174.92 L199.745,186.64 L201.905,186.64 C205.225,186.64 206.945,184.66 206.945,180.78 C206.945,176.56 204.945,174.92 201.985,174.92 L199.745,174.92 Z M198.145,188 L198.145,173.56 L202.025,173.56 C205.945,173.56 208.545,176.04 208.545,180.78 C208.545,185.02 206.265,188 201.945,188 L198.145,188 Z M218.535,174.8 L211.215,174.8 L211.215,173.56 L220.375,173.56 L220.375,174.44 L214.275,188 L212.595,188 L218.535,174.8 Z"/>
    <rect width="356" height="72" y="474" fill="#6775B1"/>
    <path fill="#FAFAFF" d="M138.795,509.24 L138.395,512.28 L141.095,512.28 L141.515,509.24 L138.795,509.24 Z M138.235,513.4 L137.615,518 L136.375,518 L136.995,513.4 L135.015,513.4 L135.015,512.28 L137.155,512.28 L137.555,509.24 L135.575,509.24 L135.575,508.12 L137.715,508.12 L138.335,503.56 L139.575,503.56 L138.955,508.12 L141.675,508.12 L142.275,503.56 L143.515,503.56 L142.915,508.12 L144.795,508.12 L144.795,509.24 L142.755,509.24 L142.335,512.28 L144.235,512.28 L144.235,513.4 L142.175,513.4 L141.555,518 L140.315,518 L140.935,513.4 L138.235,513.4 Z M156.505,504.2 L155.885,505.42 C155.225,504.9 154.545,504.6 153.425,504.6 C151.145,504.6 149.025,506.48 148.985,510.64 C149.865,509.72 150.945,508.92 152.945,508.92 C155.105,508.92 157.285,510.44 157.285,513.56 C157.285,516.64 155.025,518.2 152.625,518.2 C149.625,518.2 147.465,516.44 147.465,511.52 C147.465,506.96 149.505,503.36 153.385,503.36 C154.945,503.36 156.085,503.8 156.505,504.2 Z M155.765,513.6 C155.765,511.36 154.265,510.16 152.745,510.16 C150.985,510.16 149.145,511.6 149.025,513.24 C149.105,515.28 150.425,516.96 152.505,516.96 C154.545,516.96 155.765,515.56 155.765,513.6 Z M167.535,504.8 L160.215,504.8 L160.215,503.56 L169.375,503.56 L169.375,504.44 L163.275,518 L161.595,518 L167.535,504.8 Z M180.005,504.8 L172.685,504.8 L172.685,503.56 L181.845,503.56 L181.845,504.44 L175.745,518 L174.065,518 L180.005,504.8 Z M193.695,503.56 L193.695,504.8 L187.495,504.8 L187.135,509.42 C188.075,508.56 189.075,508.24 190.095,508.24 C192.495,508.24 194.715,509.88 194.715,513.12 C194.715,515.32 193.395,518.2 189.715,518.2 C187.255,518.2 186.015,516.84 185.115,515.44 L186.415,514.76 C187.115,516.06 188.235,516.96 189.755,516.96 C191.655,516.96 193.195,515.84 193.195,513.12 C193.195,511 191.955,509.48 189.955,509.48 C188.555,509.48 187.495,510.32 186.915,511.66 L185.655,511.38 L186.295,503.56 L193.695,503.56 Z M198.305,518 L198.305,503.56 L203.625,503.56 C206.145,503.56 207.665,505.16 207.665,507.12 C207.665,508.7 206.965,509.84 205.225,510.44 L205.245,510.48 C206.865,510.88 208.025,512.32 208.025,514.12 C208.025,516.28 206.705,518 202.785,518 L198.305,518 Z M199.905,511.12 L199.905,516.64 L202.905,516.64 C205.265,516.64 206.425,515.84 206.425,514.04 C206.425,512.2 204.945,511.12 202.665,511.12 L199.905,511.12 Z M199.905,504.92 L199.905,509.76 L202.705,509.76 C205.125,509.76 206.065,508.52 206.065,507.3 C206.065,505.68 205.185,504.92 203.345,504.92 L199.905,504.92 Z M219.235,518 L212.835,518 L212.835,516.76 L215.335,516.76 L215.335,505.02 L212.555,505.3 L212.555,504.36 C213.555,504.06 214.695,503.76 215.335,503.36 L216.775,503.36 L216.775,516.76 L219.235,516.76 L219.235,518 Z"/>
    <rect width="356" height="72" y="546" fill="#4F5985"/>
    <path fill="#FAFAFF" d="M139.905,581.24 L139.505,584.28 L142.205,584.28 L142.625,581.24 L139.905,581.24 Z M139.345,585.4 L138.725,590 L137.485,590 L138.105,585.4 L136.125,585.4 L136.125,584.28 L138.265,584.28 L138.665,581.24 L136.685,581.24 L136.685,580.12 L138.825,580.12 L139.445,575.56 L140.685,575.56 L140.065,580.12 L142.785,580.12 L143.385,575.56 L144.625,575.56 L144.025,580.12 L145.905,580.12 L145.905,581.24 L143.865,581.24 L143.445,584.28 L145.345,584.28 L145.345,585.4 L143.285,585.4 L142.665,590 L141.425,590 L142.045,585.4 L139.345,585.4 Z M158.695,586.6 L156.215,586.6 L156.215,590 L154.775,590 L154.775,586.6 L148.135,586.6 L148.135,585.36 L154.095,575.56 L156.215,575.56 L156.215,585.36 L158.695,585.36 L158.695,586.6 Z M154.715,577.08 L149.655,585.36 L154.775,585.36 L154.775,577.08 L154.715,577.08 Z M161.845,575.56 L170.405,575.56 L170.405,576.92 L163.445,576.92 L163.445,581.76 L168.605,581.76 L168.605,583.12 L163.445,583.12 L163.445,590 L161.845,590 L161.845,575.56 Z M181.235,575.56 L181.235,576.8 L175.035,576.8 L174.675,581.42 C175.615,580.56 176.615,580.24 177.635,580.24 C180.035,580.24 182.255,581.88 182.255,585.12 C182.255,587.32 180.935,590.2 177.255,590.2 C174.795,590.2 173.555,588.84 172.655,587.44 L173.955,586.76 C174.655,588.06 175.775,588.96 177.295,588.96 C179.195,588.96 180.735,587.84 180.735,585.12 C180.735,583 179.495,581.48 177.495,581.48 C176.095,581.48 175.035,582.32 174.455,583.66 L173.195,583.38 L173.835,575.56 L181.235,575.56 Z M185.665,589.36 L186.285,588.14 C186.945,588.66 187.625,588.96 188.745,588.96 C191.025,588.96 193.005,586.92 193.185,582.92 C192.305,583.84 191.225,584.64 189.225,584.64 C187.065,584.64 184.885,583.12 184.885,580 C184.885,576.92 187.145,575.36 189.545,575.36 C192.545,575.36 194.705,577.12 194.705,582.04 C194.705,586.6 192.665,590.2 188.785,590.2 C187.225,590.2 186.085,589.76 185.665,589.36 Z M186.405,579.96 C186.405,582.2 187.905,583.4 189.425,583.4 C191.185,583.4 192.545,582.24 193.105,580.72 C193.065,578.2 191.745,576.6 189.665,576.6 C187.625,576.6 186.405,578 186.405,579.96 Z M207.515,586.24 C207.515,588.44 205.795,590.2 202.255,590.2 C198.715,590.2 196.995,588.44 196.995,586.24 C196.995,584.4 198.435,583.12 200.155,582.32 L200.155,582.28 C198.555,581.68 197.595,580.46 197.595,578.96 C197.595,576.6 199.595,575.36 202.255,575.36 C204.915,575.36 206.915,576.6 206.915,578.96 C206.915,580.46 205.955,581.68 204.355,582.28 L204.355,582.32 C206.075,582.94 207.515,584.28 207.515,586.24 Z M198.515,586.24 C198.515,587.52 199.635,588.96 202.255,588.96 C204.875,588.96 205.995,587.52 205.995,586.24 C205.995,584.56 204.275,583.72 201.995,582.96 C200.235,583.72 198.515,584.56 198.515,586.24 Z M205.395,578.88 C205.395,577.28 203.835,576.6 202.255,576.6 C200.675,576.6 199.115,577.28 199.115,578.88 C199.115,580.44 201.075,581.32 202.255,581.66 C203.855,581.26 205.395,580.28 205.395,578.88 Z M218.645,575.56 L218.645,576.8 L212.445,576.8 L212.085,581.42 C213.025,580.56 214.025,580.24 215.045,580.24 C217.445,580.24 219.665,581.88 219.665,585.12 C219.665,587.32 218.345,590.2 214.665,590.2 C212.205,590.2 210.965,588.84 210.065,587.44 L211.365,586.76 C212.065,588.06 213.185,588.96 214.705,588.96 C216.605,588.96 218.145,587.84 218.145,585.12 C218.145,583 216.905,581.48 214.905,581.48 C213.505,581.48 212.445,582.32 211.865,583.66 L210.605,583.38 L211.245,575.56 L218.645,575.56 Z"/>
    <rect width="356" height="72" y="618" fill="#333B5A"/>
    <path fill="#FAFAFF" d="M138.795 653.24L138.395 656.28 141.095 656.28 141.515 653.24 138.795 653.24zM138.235 657.4L137.615 662 136.375 662 136.995 657.4 135.015 657.4 135.015 656.28 137.155 656.28 137.555 653.24 135.575 653.24 135.575 652.12 137.715 652.12 138.335 647.56 139.575 647.56 138.955 652.12 141.675 652.12 142.275 647.56 143.515 647.56 142.915 652.12 144.795 652.12 144.795 653.24 142.755 653.24 142.335 656.28 144.235 656.28 144.235 657.4 142.175 657.4 141.555 662 140.315 662 140.935 657.4 138.235 657.4zM146.945 659.36L148.105 658.56C149.205 660.04 150.565 660.96 152.065 660.96 154.185 660.96 155.465 659.88 155.465 658.16 155.465 656.14 154.265 654.92 151.385 654.92L149.965 654.92 149.965 653.68 150.825 653.68C153.705 653.68 154.945 652.76 154.945 650.98 154.945 649.52 153.685 648.6 152.305 648.6 150.545 648.6 149.785 649.36 148.825 650.6L147.645 649.8C148.625 648.44 149.985 647.36 152.305 647.36 154.865 647.36 156.465 648.68 156.465 650.96 156.465 652.7 155.345 653.72 154.225 654.16 156.505 655.04 156.985 656.68 156.985 658 156.985 660.46 155.085 662.2 152.065 662.2 149.305 662.2 147.625 660.48 146.945 659.36zM159.415 659.36L160.575 658.56C161.675 660.04 163.035 660.96 164.535 660.96 166.655 660.96 167.935 659.88 167.935 658.16 167.935 656.14 166.735 654.92 163.855 654.92L162.435 654.92 162.435 653.68 163.295 653.68C166.175 653.68 167.415 652.76 167.415 650.98 167.415 649.52 166.155 648.6 164.775 648.6 163.015 648.6 162.255 649.36 161.295 650.6L160.115 649.8C161.095 648.44 162.455 647.36 164.775 647.36 167.335 647.36 168.935 648.68 168.935 650.96 168.935 652.7 167.815 653.72 166.695 654.16 168.975 655.04 169.455 656.68 169.455 658 169.455 660.46 167.555 662.2 164.535 662.2 161.775 662.2 160.095 660.48 159.415 659.36zM171.885 659.36L173.045 658.56C174.145 660.04 175.505 660.96 177.005 660.96 179.125 660.96 180.405 659.88 180.405 658.16 180.405 656.14 179.205 654.92 176.325 654.92L174.905 654.92 174.905 653.68 175.765 653.68C178.645 653.68 179.885 652.76 179.885 650.98 179.885 649.52 178.625 648.6 177.245 648.6 175.485 648.6 174.725 649.36 173.765 650.6L172.585 649.8C173.565 648.44 174.925 647.36 177.245 647.36 179.805 647.36 181.405 648.68 181.405 650.96 181.405 652.7 180.285 653.72 179.165 654.16 181.445 655.04 181.925 656.68 181.925 658 181.925 660.46 180.025 662.2 177.005 662.2 174.245 662.2 172.565 660.48 171.885 659.36zM185.835 662L185.835 647.56 191.155 647.56C193.675 647.56 195.195 649.16 195.195 651.12 195.195 652.7 194.495 653.84 192.755 654.44L192.775 654.48C194.395 654.88 195.555 656.32 195.555 658.12 195.555 660.28 194.235 662 190.315 662L185.835 662zM187.435 655.12L187.435 660.64 190.435 660.64C192.795 660.64 193.955 659.84 193.955 658.04 193.955 656.2 192.475 655.12 190.195 655.12L187.435 655.12zM187.435 648.92L187.435 653.76 190.235 653.76C192.655 653.76 193.595 652.52 193.595 651.3 193.595 649.68 192.715 648.92 190.875 648.92L187.435 648.92zM207.285 647.56L207.285 648.8 201.085 648.8 200.725 653.42C201.665 652.56 202.665 652.24 203.685 652.24 206.085 652.24 208.305 653.88 208.305 657.12 208.305 659.32 206.985 662.2 203.305 662.2 200.845 662.2 199.605 660.84 198.705 659.44L200.005 658.76C200.705 660.06 201.825 660.96 203.345 660.96 205.245 660.96 206.785 659.84 206.785 657.12 206.785 655 205.545 653.48 203.545 653.48 202.145 653.48 201.085 654.32 200.505 655.66L199.245 655.38 199.885 647.56 207.285 647.56zM215.735 648.68L213.655 656.12 218.035 656.12 215.955 648.68 215.735 648.68zM211.895 662L210.215 662 214.655 647.56 217.035 647.56 221.475 662 219.795 662 218.435 657.48 213.255 657.48 211.895 662zM138.795 251.24L138.395 254.28 141.095 254.28 141.515 251.24 138.795 251.24zM138.235 255.4L137.615 260 136.375 260 136.995 255.4 135.015 255.4 135.015 254.28 137.155 254.28 137.555 251.24 135.575 251.24 135.575 250.12 137.715 250.12 138.335 245.56 139.575 245.56 138.955 250.12 141.675 250.12 142.275 245.56 143.515 245.56 142.915 250.12 144.795 250.12 144.795 251.24 142.755 251.24 142.335 254.28 144.235 254.28 144.235 255.4 142.175 255.4 141.555 260 140.315 260 140.935 255.4 138.235 255.4zM157.625 256.24C157.625 258.44 155.905 260.2 152.365 260.2 148.825 260.2 147.105 258.44 147.105 256.24 147.105 254.4 148.545 253.12 150.265 252.32L150.265 252.28C148.665 251.68 147.705 250.46 147.705 248.96 147.705 246.6 149.705 245.36 152.365 245.36 155.025 245.36 157.025 246.6 157.025 248.96 157.025 250.46 156.065 251.68 154.465 252.28L154.465 252.32C156.185 252.94 157.625 254.28 157.625 256.24zM148.625 256.24C148.625 257.52 149.745 258.96 152.365 258.96 154.985 258.96 156.105 257.52 156.105 256.24 156.105 254.56 154.385 253.72 152.105 252.96 150.345 253.72 148.625 254.56 148.625 256.24zM155.505 248.88C155.505 247.28 153.945 246.6 152.365 246.6 150.785 246.6 149.225 247.28 149.225 248.88 149.225 250.44 151.185 251.32 152.365 251.66 153.965 251.26 155.505 250.28 155.505 248.88zM168.235 260L161.835 260 161.835 258.76 164.335 258.76 164.335 247.02 161.555 247.3 161.555 246.36C162.555 246.06 163.695 245.76 164.335 245.36L165.775 245.36 165.775 258.76 168.235 258.76 168.235 260zM173.185 259.36L173.805 258.14C174.465 258.66 175.145 258.96 176.265 258.96 178.545 258.96 180.525 256.92 180.705 252.92 179.825 253.84 178.745 254.64 176.745 254.64 174.585 254.64 172.405 253.12 172.405 250 172.405 246.92 174.665 245.36 177.065 245.36 180.065 245.36 182.225 247.12 182.225 252.04 182.225 256.6 180.185 260.2 176.305 260.2 174.745 260.2 173.605 259.76 173.185 259.36zM173.925 249.96C173.925 252.2 175.425 253.4 176.945 253.4 178.705 253.4 180.065 252.24 180.625 250.72 180.585 248.2 179.265 246.6 177.185 246.6 175.145 246.6 173.925 248 173.925 249.96zM184.355 257.36L185.515 256.56C186.615 258.04 187.975 258.96 189.475 258.96 191.595 258.96 192.875 257.88 192.875 256.16 192.875 254.14 191.675 252.92 188.795 252.92L187.375 252.92 187.375 251.68 188.235 251.68C191.115 251.68 192.355 250.76 192.355 248.98 192.355 247.52 191.095 246.6 189.715 246.6 187.955 246.6 187.195 247.36 186.235 248.6L185.055 247.8C186.035 246.44 187.395 245.36 189.715 245.36 192.275 245.36 193.875 246.68 193.875 248.96 193.875 250.7 192.755 251.72 191.635 252.16 193.915 253.04 194.395 254.68 194.395 256 194.395 258.46 192.495 260.2 189.475 260.2 186.715 260.2 185.035 258.48 184.355 257.36zM199.745 246.92L199.745 258.64 201.905 258.64C205.225 258.64 206.945 256.66 206.945 252.78 206.945 248.56 204.945 246.92 201.985 246.92L199.745 246.92zM198.145 260L198.145 245.56 202.025 245.56C205.945 245.56 208.545 248.04 208.545 252.78 208.545 257.02 206.265 260 201.945 260L198.145 260zM219.735 255.4L221.175 255.68C220.535 258.36 219.055 260.2 216.095 260.2 212.855 260.2 210.575 257.84 210.575 252.78 210.575 248.08 212.615 245.36 216.095 245.36 218.775 245.36 220.335 246.92 220.975 249.56L219.495 250C218.975 247.96 218.055 246.72 215.895 246.72 213.815 246.72 212.175 248.64 212.175 252.78 212.175 256.96 213.815 258.84 216.215 258.84 218.435 258.84 219.295 257.16 219.735 255.4z"/>
  </g>
</svg>
