<svg xmlns="http://www.w3.org/2000/svg" width="427" height="690" viewBox="0 0 427 690">
  <g fill="none" fill-rule="evenodd">
    <rect width="427" height="258" fill="#223746"/>
    <rect width="427" height="72" y="258" fill="#465462"/>
    <path fill="#FAFAFF" d="M174.855,293.24 L174.455,296.28 L177.155,296.28 L177.575,293.24 L174.855,293.24 Z M174.295,297.4 L173.675,302 L172.435,302 L173.055,297.4 L171.075,297.4 L171.075,296.28 L173.215,296.28 L173.615,293.24 L171.635,293.24 L171.635,292.12 L173.775,292.12 L174.395,287.56 L175.635,287.56 L175.015,292.12 L177.735,292.12 L178.335,287.56 L179.575,287.56 L178.975,292.12 L180.855,292.12 L180.855,293.24 L178.815,293.24 L178.395,296.28 L180.295,296.28 L180.295,297.4 L178.235,297.4 L177.615,302 L176.375,302 L176.995,297.4 L174.295,297.4 Z M193.645,298.6 L191.165,298.6 L191.165,302 L189.725,302 L189.725,298.6 L183.085,298.6 L183.085,297.36 L189.045,287.56 L191.165,287.56 L191.165,297.36 L193.645,297.36 L193.645,298.6 Z M189.665,289.08 L184.605,297.36 L189.725,297.36 L189.725,289.08 L189.665,289.08 Z M205.035,288.2 L204.415,289.42 C203.755,288.9 203.075,288.6 201.955,288.6 C199.675,288.6 197.555,290.48 197.515,294.64 C198.395,293.72 199.475,292.92 201.475,292.92 C203.635,292.92 205.815,294.44 205.815,297.56 C205.815,300.64 203.555,302.2 201.155,302.2 C198.155,302.2 195.995,300.44 195.995,295.52 C195.995,290.96 198.035,287.36 201.915,287.36 C203.475,287.36 204.615,287.8 205.035,288.2 Z M204.295,297.6 C204.295,295.36 202.795,294.16 201.275,294.16 C199.515,294.16 197.675,295.6 197.555,297.24 C197.635,299.28 198.955,300.96 201.035,300.96 C203.075,300.96 204.295,299.56 204.295,297.6 Z M217.285,287.56 L217.285,288.8 L211.085,288.8 L210.725,293.42 C211.665,292.56 212.665,292.24 213.685,292.24 C216.085,292.24 218.305,293.88 218.305,297.12 C218.305,299.32 216.985,302.2 213.305,302.2 C210.845,302.2 209.605,300.84 208.705,299.44 L210.005,298.76 C210.705,300.06 211.825,300.96 213.345,300.96 C215.245,300.96 216.785,299.84 216.785,297.12 C216.785,295 215.545,293.48 213.545,293.48 C212.145,293.48 211.085,294.32 210.505,295.66 L209.245,295.38 L209.885,287.56 L217.285,287.56 Z M231.055,298.6 L228.575,298.6 L228.575,302 L227.135,302 L227.135,298.6 L220.495,298.6 L220.495,297.36 L226.455,287.56 L228.575,287.56 L228.575,297.36 L231.055,297.36 L231.055,298.6 Z M227.075,289.08 L222.015,297.36 L227.135,297.36 L227.135,289.08 L227.075,289.08 Z M242.445,288.2 L241.825,289.42 C241.165,288.9 240.485,288.6 239.365,288.6 C237.085,288.6 234.965,290.48 234.925,294.64 C235.805,293.72 236.885,292.92 238.885,292.92 C241.045,292.92 243.225,294.44 243.225,297.56 C243.225,300.64 240.965,302.2 238.565,302.2 C235.565,302.2 233.405,300.44 233.405,295.52 C233.405,290.96 235.445,287.36 239.325,287.36 C240.885,287.36 242.025,287.8 242.445,288.2 Z M241.705,297.6 C241.705,295.36 240.205,294.16 238.685,294.16 C236.925,294.16 235.085,295.6 234.965,297.24 C235.045,299.28 236.365,300.96 238.445,300.96 C240.485,300.96 241.705,299.56 241.705,297.6 Z M255.375,300.76 L255.375,302 L245.995,302 L245.995,300.48 C248.495,295.42 253.875,295.12 253.875,291.24 C253.875,289.56 252.795,288.6 250.955,288.6 C248.875,288.6 247.795,290.28 247.555,291.74 L246.135,291.42 C246.595,289.42 247.775,287.36 250.995,287.36 C253.355,287.36 255.395,288.72 255.395,291.2 C255.395,295.6 249.075,296.8 247.515,300.76 L255.375,300.76 Z"/>
    <rect width="427" height="72" y="330" fill="#67757D"/>
    <path fill="#FAFAFF" d="M174.295,365.24 L173.895,368.28 L176.595,368.28 L177.015,365.24 L174.295,365.24 Z M173.735,369.4 L173.115,374 L171.875,374 L172.495,369.4 L170.515,369.4 L170.515,368.28 L172.655,368.28 L173.055,365.24 L171.075,365.24 L171.075,364.12 L173.215,364.12 L173.835,359.56 L175.075,359.56 L174.455,364.12 L177.175,364.12 L177.775,359.56 L179.015,359.56 L178.415,364.12 L180.295,364.12 L180.295,365.24 L178.255,365.24 L177.835,368.28 L179.735,368.28 L179.735,369.4 L177.675,369.4 L177.055,374 L175.815,374 L176.435,369.4 L173.735,369.4 Z M192.005,360.2 L191.385,361.42 C190.725,360.9 190.045,360.6 188.925,360.6 C186.645,360.6 184.525,362.48 184.485,366.64 C185.365,365.72 186.445,364.92 188.445,364.92 C190.605,364.92 192.785,366.44 192.785,369.56 C192.785,372.64 190.525,374.2 188.125,374.2 C185.125,374.2 182.965,372.44 182.965,367.52 C182.965,362.96 185.005,359.36 188.885,359.36 C190.445,359.36 191.585,359.8 192.005,360.2 Z M191.265,369.6 C191.265,367.36 189.765,366.16 188.245,366.16 C186.485,366.16 184.645,367.6 184.525,369.24 C184.605,371.28 185.925,372.96 188.005,372.96 C190.045,372.96 191.265,371.56 191.265,369.6 Z M203.035,360.8 L195.715,360.8 L195.715,359.56 L204.875,359.56 L204.875,360.44 L198.775,374 L197.095,374 L203.035,360.8 Z M215.505,360.8 L208.185,360.8 L208.185,359.56 L217.345,359.56 L217.345,360.44 L211.245,374 L209.565,374 L215.505,360.8 Z M229.195,359.56 L229.195,360.8 L222.995,360.8 L222.635,365.42 C223.575,364.56 224.575,364.24 225.595,364.24 C227.995,364.24 230.215,365.88 230.215,369.12 C230.215,371.32 228.895,374.2 225.215,374.2 C222.755,374.2 221.515,372.84 220.615,371.44 L221.915,370.76 C222.615,372.06 223.735,372.96 225.255,372.96 C227.155,372.96 228.695,371.84 228.695,369.12 C228.695,367 227.455,365.48 225.455,365.48 C224.055,365.48 222.995,366.32 222.415,367.66 L221.155,367.38 L221.795,359.56 L229.195,359.56 Z M240.445,360.8 L233.125,360.8 L233.125,359.56 L242.285,359.56 L242.285,360.44 L236.185,374 L234.505,374 L240.445,360.8 Z M247.715,360.92 L247.715,372.64 L249.875,372.64 C253.195,372.64 254.915,370.66 254.915,366.78 C254.915,362.56 252.915,360.92 249.955,360.92 L247.715,360.92 Z M246.115,374 L246.115,359.56 L249.995,359.56 C253.915,359.56 256.515,362.04 256.515,366.78 C256.515,371.02 254.235,374 249.915,374 L246.115,374 Z"/>
    <rect width="427" height="72" y="402" fill="#89919A"/>
    <path fill="#FAFAFF" d="M174.855,437.24 L174.455,440.28 L177.155,440.28 L177.575,437.24 L174.855,437.24 Z M174.295,441.4 L173.675,446 L172.435,446 L173.055,441.4 L171.075,441.4 L171.075,440.28 L173.215,440.28 L173.615,437.24 L171.635,437.24 L171.635,436.12 L173.775,436.12 L174.395,431.56 L175.635,431.56 L175.015,436.12 L177.735,436.12 L178.335,431.56 L179.575,431.56 L178.975,436.12 L180.855,436.12 L180.855,437.24 L178.815,437.24 L178.395,440.28 L180.295,440.28 L180.295,441.4 L178.235,441.4 L177.615,446 L176.375,446 L176.995,441.4 L174.295,441.4 Z M193.685,442.24 C193.685,444.44 191.965,446.2 188.425,446.2 C184.885,446.2 183.165,444.44 183.165,442.24 C183.165,440.4 184.605,439.12 186.325,438.32 L186.325,438.28 C184.725,437.68 183.765,436.46 183.765,434.96 C183.765,432.6 185.765,431.36 188.425,431.36 C191.085,431.36 193.085,432.6 193.085,434.96 C193.085,436.46 192.125,437.68 190.525,438.28 L190.525,438.32 C192.245,438.94 193.685,440.28 193.685,442.24 Z M184.685,442.24 C184.685,443.52 185.805,444.96 188.425,444.96 C191.045,444.96 192.165,443.52 192.165,442.24 C192.165,440.56 190.445,439.72 188.165,438.96 C186.405,439.72 184.685,440.56 184.685,442.24 Z M191.565,434.88 C191.565,433.28 190.005,432.6 188.425,432.6 C186.845,432.6 185.285,433.28 185.285,434.88 C185.285,436.44 187.245,437.32 188.425,437.66 C190.025,437.26 191.565,436.28 191.565,434.88 Z M196.775,445.36 L197.395,444.14 C198.055,444.66 198.735,444.96 199.855,444.96 C202.135,444.96 204.115,442.92 204.295,438.92 C203.415,439.84 202.335,440.64 200.335,440.64 C198.175,440.64 195.995,439.12 195.995,436 C195.995,432.92 198.255,431.36 200.655,431.36 C203.655,431.36 205.815,433.12 205.815,438.04 C205.815,442.6 203.775,446.2 199.895,446.2 C198.335,446.2 197.195,445.76 196.775,445.36 Z M197.515,435.96 C197.515,438.2 199.015,439.4 200.535,439.4 C202.295,439.4 203.655,438.24 204.215,436.72 C204.175,434.2 202.855,432.6 200.775,432.6 C198.735,432.6 197.515,434 197.515,435.96 Z M209.245,445.36 L209.865,444.14 C210.525,444.66 211.205,444.96 212.325,444.96 C214.605,444.96 216.585,442.92 216.765,438.92 C215.885,439.84 214.805,440.64 212.805,440.64 C210.645,440.64 208.465,439.12 208.465,436 C208.465,432.92 210.725,431.36 213.125,431.36 C216.125,431.36 218.285,433.12 218.285,438.04 C218.285,442.6 216.245,446.2 212.365,446.2 C210.805,446.2 209.665,445.76 209.245,445.36 Z M209.985,435.96 C209.985,438.2 211.485,439.4 213.005,439.4 C214.765,439.4 216.125,438.24 216.685,436.72 C216.645,434.2 215.325,432.6 213.245,432.6 C211.205,432.6 209.985,434 209.985,435.96 Z M229.235,446 L222.835,446 L222.835,444.76 L225.335,444.76 L225.335,433.02 L222.555,433.3 L222.555,432.36 C223.555,432.06 224.695,431.76 225.335,431.36 L226.775,431.36 L226.775,444.76 L229.235,444.76 L229.235,446 Z M234.185,445.36 L234.805,444.14 C235.465,444.66 236.145,444.96 237.265,444.96 C239.545,444.96 241.525,442.92 241.705,438.92 C240.825,439.84 239.745,440.64 237.745,440.64 C235.585,440.64 233.405,439.12 233.405,436 C233.405,432.92 235.665,431.36 238.065,431.36 C241.065,431.36 243.225,433.12 243.225,438.04 C243.225,442.6 241.185,446.2 237.305,446.2 C235.745,446.2 234.605,445.76 234.185,445.36 Z M234.925,435.96 C234.925,438.2 236.425,439.4 237.945,439.4 C239.705,439.4 241.065,438.24 241.625,436.72 C241.585,434.2 240.265,432.6 238.185,432.6 C236.145,432.6 234.925,434 234.925,435.96 Z M250.675,432.68 L248.595,440.12 L252.975,440.12 L250.895,432.68 L250.675,432.68 Z M246.835,446 L245.155,446 L249.595,431.56 L251.975,431.56 L256.415,446 L254.735,446 L253.375,441.48 L248.195,441.48 L246.835,446 Z"/>
    <rect width="427" height="72" y="474" fill="#A7AFB5"/>
    <path fill="#FAFAFF" d="M174.845,509.24 L174.445,512.28 L177.145,512.28 L177.565,509.24 L174.845,509.24 Z M174.285,513.4 L173.665,518 L172.425,518 L173.045,513.4 L171.065,513.4 L171.065,512.28 L173.205,512.28 L173.605,509.24 L171.625,509.24 L171.625,508.12 L173.765,508.12 L174.385,503.56 L175.625,503.56 L175.005,508.12 L177.725,508.12 L178.325,503.56 L179.565,503.56 L178.965,508.12 L180.845,508.12 L180.845,509.24 L178.805,509.24 L178.385,512.28 L180.285,512.28 L180.285,513.4 L178.225,513.4 L177.605,518 L176.365,518 L176.985,513.4 L174.285,513.4 Z M188.315,504.68 L186.235,512.12 L190.615,512.12 L188.535,504.68 L188.315,504.68 Z M184.475,518 L182.795,518 L187.235,503.56 L189.615,503.56 L194.055,518 L192.375,518 L191.015,513.48 L185.835,513.48 L184.475,518 Z M203.585,504.8 L196.265,504.8 L196.265,503.56 L205.425,503.56 L205.425,504.44 L199.325,518 L197.645,518 L203.585,504.8 Z M213.255,504.68 L211.175,512.12 L215.555,512.12 L213.475,504.68 L213.255,504.68 Z M209.415,518 L207.735,518 L212.175,503.56 L214.555,503.56 L218.995,518 L217.315,518 L215.955,513.48 L210.775,513.48 L209.415,518 Z M221.725,503.56 L230.285,503.56 L230.285,504.92 L223.325,504.92 L223.325,509.76 L228.485,509.76 L228.485,511.12 L223.325,511.12 L223.325,518 L221.725,518 L221.725,503.56 Z M233.255,518 L233.255,503.56 L238.575,503.56 C241.095,503.56 242.615,505.16 242.615,507.12 C242.615,508.7 241.915,509.84 240.175,510.44 L240.195,510.48 C241.815,510.88 242.975,512.32 242.975,514.12 C242.975,516.28 241.655,518 237.735,518 L233.255,518 Z M234.855,511.12 L234.855,516.64 L237.855,516.64 C240.215,516.64 241.375,515.84 241.375,514.04 C241.375,512.2 239.895,511.12 237.615,511.12 L234.855,511.12 Z M234.855,504.92 L234.855,509.76 L237.655,509.76 C240.075,509.76 241.015,508.52 241.015,507.3 C241.015,505.68 240.135,504.92 238.295,504.92 L234.855,504.92 Z M254.705,503.56 L254.705,504.8 L248.505,504.8 L248.145,509.42 C249.085,508.56 250.085,508.24 251.105,508.24 C253.505,508.24 255.725,509.88 255.725,513.12 C255.725,515.32 254.405,518.2 250.725,518.2 C248.265,518.2 247.025,516.84 246.125,515.44 L247.425,514.76 C248.125,516.06 249.245,516.96 250.765,516.96 C252.665,516.96 254.205,515.84 254.205,513.12 C254.205,511 252.965,509.48 250.965,509.48 C249.565,509.48 248.505,510.32 247.925,511.66 L246.665,511.38 L247.305,503.56 L254.705,503.56 Z"/>
    <rect width="427" height="72" y="546" fill="#C7CBD0"/>
    <path fill="#2C2C36" d="M173.735,581.24 L173.335,584.28 L176.035,584.28 L176.455,581.24 L173.735,581.24 Z M173.175,585.4 L172.555,590 L171.315,590 L171.935,585.4 L169.955,585.4 L169.955,584.28 L172.095,584.28 L172.495,581.24 L170.515,581.24 L170.515,580.12 L172.655,580.12 L173.275,575.56 L174.515,575.56 L173.895,580.12 L176.615,580.12 L177.215,575.56 L178.455,575.56 L177.855,580.12 L179.735,580.12 L179.735,581.24 L177.695,581.24 L177.275,584.28 L179.175,584.28 L179.175,585.4 L177.115,585.4 L176.495,590 L175.255,590 L175.875,585.4 L173.175,585.4 Z M191.205,585.4 L192.645,585.68 C192.005,588.36 190.525,590.2 187.565,590.2 C184.325,590.2 182.045,587.84 182.045,582.78 C182.045,578.08 184.085,575.36 187.565,575.36 C190.245,575.36 191.805,576.92 192.445,579.56 L190.965,580 C190.445,577.96 189.525,576.72 187.365,576.72 C185.285,576.72 183.645,578.64 183.645,582.78 C183.645,586.96 185.285,588.84 187.685,588.84 C189.905,588.84 190.765,587.16 191.205,585.4 Z M202.475,576.8 L195.155,576.8 L195.155,575.56 L204.315,575.56 L204.315,576.44 L198.215,590 L196.535,590 L202.475,576.8 Z M216.145,585.4 L217.585,585.68 C216.945,588.36 215.465,590.2 212.505,590.2 C209.265,590.2 206.985,587.84 206.985,582.78 C206.985,578.08 209.025,575.36 212.505,575.36 C215.185,575.36 216.745,576.92 217.385,579.56 L215.905,580 C215.385,577.96 214.465,576.72 212.305,576.72 C210.225,576.72 208.585,578.64 208.585,582.78 C208.585,586.96 210.225,588.84 212.625,588.84 C214.845,588.84 215.705,587.16 216.145,585.4 Z M220.775,590 L220.775,575.56 L226.095,575.56 C228.615,575.56 230.135,577.16 230.135,579.12 C230.135,580.7 229.435,581.84 227.695,582.44 L227.715,582.48 C229.335,582.88 230.495,584.32 230.495,586.12 C230.495,588.28 229.175,590 225.255,590 L220.775,590 Z M222.375,583.12 L222.375,588.64 L225.375,588.64 C227.735,588.64 228.895,587.84 228.895,586.04 C228.895,584.2 227.415,583.12 225.135,583.12 L222.375,583.12 Z M222.375,576.92 L222.375,581.76 L225.175,581.76 C227.595,581.76 228.535,580.52 228.535,579.3 C228.535,577.68 227.655,576.92 225.815,576.92 L222.375,576.92 Z M235.805,576.92 L235.805,588.64 L237.965,588.64 C241.285,588.64 243.005,586.66 243.005,582.78 C243.005,578.56 241.005,576.92 238.045,576.92 L235.805,576.92 Z M234.205,590 L234.205,575.56 L238.085,575.56 C242.005,575.56 244.605,578.04 244.605,582.78 C244.605,587.02 242.325,590 238.005,590 L234.205,590 Z M246.795,582.78 C246.795,577.56 248.755,575.36 251.895,575.36 C255.035,575.36 256.995,577.56 256.995,582.78 C256.995,588 255.035,590.2 251.895,590.2 C248.755,590.2 246.795,588 246.795,582.78 Z M248.315,582.78 C248.315,587.16 249.555,588.96 251.895,588.96 C254.235,588.96 255.475,587.16 255.475,582.78 C255.475,578.4 254.235,576.6 251.895,576.6 C249.555,576.6 248.315,578.4 248.315,582.78 Z"/>
    <rect width="427" height="72" y="618" fill="#EBEEED"/>
    <path fill="#2C2C36" d="M173.735,653.24 L173.335,656.28 L176.035,656.28 L176.455,653.24 L173.735,653.24 Z M173.175,657.4 L172.555,662 L171.315,662 L171.935,657.4 L169.955,657.4 L169.955,656.28 L172.095,656.28 L172.495,653.24 L170.515,653.24 L170.515,652.12 L172.655,652.12 L173.275,647.56 L174.515,647.56 L173.895,652.12 L176.615,652.12 L177.215,647.56 L178.455,647.56 L177.855,652.12 L179.735,652.12 L179.735,653.24 L177.695,653.24 L177.275,656.28 L179.175,656.28 L179.175,657.4 L177.115,657.4 L176.495,662 L175.255,662 L175.875,657.4 L173.175,657.4 Z M183.365,647.56 L192.025,647.56 L192.025,648.92 L184.965,648.92 L184.965,653.76 L189.985,653.76 L189.985,655.12 L184.965,655.12 L184.965,660.64 L192.425,660.64 L192.425,662 L183.365,662 L183.365,647.56 Z M195.835,662 L195.835,647.56 L201.155,647.56 C203.675,647.56 205.195,649.16 205.195,651.12 C205.195,652.7 204.495,653.84 202.755,654.44 L202.775,654.48 C204.395,654.88 205.555,656.32 205.555,658.12 C205.555,660.28 204.235,662 200.315,662 L195.835,662 Z M197.435,655.12 L197.435,660.64 L200.435,660.64 C202.795,660.64 203.955,659.84 203.955,658.04 C203.955,656.2 202.475,655.12 200.195,655.12 L197.435,655.12 Z M197.435,648.92 L197.435,653.76 L200.235,653.76 C202.655,653.76 203.595,652.52 203.595,651.3 C203.595,649.68 202.715,648.92 200.875,648.92 L197.435,648.92 Z M209.425,647.56 L218.085,647.56 L218.085,648.92 L211.025,648.92 L211.025,653.76 L216.045,653.76 L216.045,655.12 L211.025,655.12 L211.025,660.64 L218.485,660.64 L218.485,662 L209.425,662 L209.425,647.56 Z M221.895,647.56 L230.555,647.56 L230.555,648.92 L223.495,648.92 L223.495,653.76 L228.515,653.76 L228.515,655.12 L223.495,655.12 L223.495,660.64 L230.955,660.64 L230.955,662 L221.895,662 L221.895,647.56 Z M234.365,647.56 L243.025,647.56 L243.025,648.92 L235.965,648.92 L235.965,653.76 L240.985,653.76 L240.985,655.12 L235.965,655.12 L235.965,660.64 L243.425,660.64 L243.425,662 L234.365,662 L234.365,647.56 Z M248.275,648.92 L248.275,660.64 L250.435,660.64 C253.755,660.64 255.475,658.66 255.475,654.78 C255.475,650.56 253.475,648.92 250.515,648.92 L248.275,648.92 Z M246.675,662 L246.675,647.56 L250.555,647.56 C254.475,647.56 257.075,650.04 257.075,654.78 C257.075,659.02 254.795,662 250.475,662 L246.675,662 Z"/>
    <path fill="#FAFAFF" d="M174.855,35.24 L174.455,38.28 L177.155,38.28 L177.575,35.24 L174.855,35.24 Z M174.295,39.4 L173.675,44 L172.435,44 L173.055,39.4 L171.075,39.4 L171.075,38.28 L173.215,38.28 L173.615,35.24 L171.635,35.24 L171.635,34.12 L173.775,34.12 L174.395,29.56 L175.635,29.56 L175.015,34.12 L177.735,34.12 L178.335,29.56 L179.575,29.56 L178.975,34.12 L180.855,34.12 L180.855,35.24 L178.815,35.24 L178.395,38.28 L180.295,38.28 L180.295,39.4 L178.235,39.4 L177.615,44 L176.375,44 L176.995,39.4 L174.295,39.4 Z M193.025,42.76 L193.025,44 L183.645,44 L183.645,42.48 C186.145,37.42 191.525,37.12 191.525,33.24 C191.525,31.56 190.445,30.6 188.605,30.6 C186.525,30.6 185.445,32.28 185.205,33.74 L183.785,33.42 C184.245,31.42 185.425,29.36 188.645,29.36 C191.005,29.36 193.045,30.72 193.045,33.2 C193.045,37.6 186.725,38.8 185.165,42.76 L193.025,42.76 Z M205.495,42.76 L205.495,44 L196.115,44 L196.115,42.48 C198.615,37.42 203.995,37.12 203.995,33.24 C203.995,31.56 202.915,30.6 201.075,30.6 C198.995,30.6 197.915,32.28 197.675,33.74 L196.255,33.42 C196.715,31.42 197.895,29.36 201.115,29.36 C203.475,29.36 205.515,30.72 205.515,33.2 C205.515,37.6 199.195,38.8 197.635,42.76 L205.495,42.76 Z M207.945,41.36 L209.105,40.56 C210.205,42.04 211.565,42.96 213.065,42.96 C215.185,42.96 216.465,41.88 216.465,40.16 C216.465,38.14 215.265,36.92 212.385,36.92 L210.965,36.92 L210.965,35.68 L211.825,35.68 C214.705,35.68 215.945,34.76 215.945,32.98 C215.945,31.52 214.685,30.6 213.305,30.6 C211.545,30.6 210.785,31.36 209.825,32.6 L208.645,31.8 C209.625,30.44 210.985,29.36 213.305,29.36 C215.865,29.36 217.465,30.68 217.465,32.96 C217.465,34.7 216.345,35.72 215.225,36.16 C217.505,37.04 217.985,38.68 217.985,40 C217.985,42.46 216.085,44.2 213.065,44.2 C210.305,44.2 208.625,42.48 207.945,41.36 Z M228.535,30.8 L221.215,30.8 L221.215,29.56 L230.375,29.56 L230.375,30.44 L224.275,44 L222.595,44 L228.535,30.8 Z M243.525,40.6 L241.045,40.6 L241.045,44 L239.605,44 L239.605,40.6 L232.965,40.6 L232.965,39.36 L238.925,29.56 L241.045,29.56 L241.045,39.36 L243.525,39.36 L243.525,40.6 Z M239.545,31.08 L234.485,39.36 L239.605,39.36 L239.605,31.08 L239.545,31.08 Z M254.915,30.2 L254.295,31.42 C253.635,30.9 252.955,30.6 251.835,30.6 C249.555,30.6 247.435,32.48 247.395,36.64 C248.275,35.72 249.355,34.92 251.355,34.92 C253.515,34.92 255.695,36.44 255.695,39.56 C255.695,42.64 253.435,44.2 251.035,44.2 C248.035,44.2 245.875,42.44 245.875,37.52 C245.875,32.96 247.915,29.36 251.795,29.36 C253.355,29.36 254.495,29.8 254.915,30.2 Z M254.175,39.6 C254.175,37.36 252.675,36.16 251.155,36.16 C249.395,36.16 247.555,37.6 247.435,39.24 C247.515,41.28 248.835,42.96 250.915,42.96 C252.955,42.96 254.175,41.56 254.175,39.6 Z"/>
  </g>
</svg>
