<svg xmlns="http://www.w3.org/2000/svg" width="356" height="690" viewBox="0 0 356 690">
  <g fill="none" fill-rule="evenodd">
    <rect width="356" height="258" y="216" fill="#33C0AE"/>
    <rect width="356" height="72" fill="#CEEBE8"/>
    <path fill="#2C2C36" d="M138.795,35.24 L138.395,38.28 L141.095,38.28 L141.515,35.24 L138.795,35.24 Z M138.235,39.4 L137.615,44 L136.375,44 L136.995,39.4 L135.015,39.4 L135.015,38.28 L137.155,38.28 L137.555,35.24 L135.575,35.24 L135.575,34.12 L137.715,34.12 L138.335,29.56 L139.575,29.56 L138.955,34.12 L141.675,34.12 L142.275,29.56 L143.515,29.56 L142.915,34.12 L144.795,34.12 L144.795,35.24 L142.755,35.24 L142.335,38.28 L144.235,38.28 L144.235,39.4 L142.175,39.4 L141.555,44 L140.315,44 L140.935,39.4 L138.235,39.4 Z M156.265,39.4 L157.705,39.68 C157.065,42.36 155.585,44.2 152.625,44.2 C149.385,44.2 147.105,41.84 147.105,36.78 C147.105,32.08 149.145,29.36 152.625,29.36 C155.305,29.36 156.865,30.92 157.505,33.56 L156.025,34 C155.505,31.96 154.585,30.72 152.425,30.72 C150.345,30.72 148.705,32.64 148.705,36.78 C148.705,40.96 150.345,42.84 152.745,42.84 C154.965,42.84 155.825,41.16 156.265,39.4 Z M160.895,29.56 L169.555,29.56 L169.555,30.92 L162.495,30.92 L162.495,35.76 L167.515,35.76 L167.515,37.12 L162.495,37.12 L162.495,42.64 L169.955,42.64 L169.955,44 L160.895,44 L160.895,29.56 Z M173.365,29.56 L182.025,29.56 L182.025,30.92 L174.965,30.92 L174.965,35.76 L179.985,35.76 L179.985,37.12 L174.965,37.12 L174.965,42.64 L182.425,42.64 L182.425,44 L173.365,44 L173.365,29.56 Z M185.835,44 L185.835,29.56 L191.155,29.56 C193.675,29.56 195.195,31.16 195.195,33.12 C195.195,34.7 194.495,35.84 192.755,36.44 L192.775,36.48 C194.395,36.88 195.555,38.32 195.555,40.12 C195.555,42.28 194.235,44 190.315,44 L185.835,44 Z M187.435,37.12 L187.435,42.64 L190.435,42.64 C192.795,42.64 193.955,41.84 193.955,40.04 C193.955,38.2 192.475,37.12 190.195,37.12 L187.435,37.12 Z M187.435,30.92 L187.435,35.76 L190.235,35.76 C192.655,35.76 193.595,34.52 193.595,33.3 C193.595,31.68 192.715,30.92 190.875,30.92 L187.435,30.92 Z M199.425,29.56 L208.085,29.56 L208.085,30.92 L201.025,30.92 L201.025,35.76 L206.045,35.76 L206.045,37.12 L201.025,37.12 L201.025,42.64 L208.485,42.64 L208.485,44 L199.425,44 L199.425,29.56 Z M221.095,40.24 C221.095,42.44 219.375,44.2 215.835,44.2 C212.295,44.2 210.575,42.44 210.575,40.24 C210.575,38.4 212.015,37.12 213.735,36.32 L213.735,36.28 C212.135,35.68 211.175,34.46 211.175,32.96 C211.175,30.6 213.175,29.36 215.835,29.36 C218.495,29.36 220.495,30.6 220.495,32.96 C220.495,34.46 219.535,35.68 217.935,36.28 L217.935,36.32 C219.655,36.94 221.095,38.28 221.095,40.24 Z M212.095,40.24 C212.095,41.52 213.215,42.96 215.835,42.96 C218.455,42.96 219.575,41.52 219.575,40.24 C219.575,38.56 217.855,37.72 215.575,36.96 C213.815,37.72 212.095,38.56 212.095,40.24 Z M218.975,32.88 C218.975,31.28 217.415,30.6 215.835,30.6 C214.255,30.6 212.695,31.28 212.695,32.88 C212.695,34.44 214.655,35.32 215.835,35.66 C217.435,35.26 218.975,34.28 218.975,32.88 Z"/>
    <rect width="356" height="72" y="72" fill="#A3D9D3"/>
    <path fill="#FAFAFF" d="M138.235,107.24 L137.835,110.28 L140.535,110.28 L140.955,107.24 L138.235,107.24 Z M137.675,111.4 L137.055,116 L135.815,116 L136.435,111.4 L134.455,111.4 L134.455,110.28 L136.595,110.28 L136.995,107.24 L135.015,107.24 L135.015,106.12 L137.155,106.12 L137.775,101.56 L139.015,101.56 L138.395,106.12 L141.115,106.12 L141.715,101.56 L142.955,101.56 L142.355,106.12 L144.235,106.12 L144.235,107.24 L142.195,107.24 L141.775,110.28 L143.675,110.28 L143.675,111.4 L141.615,111.4 L140.995,116 L139.755,116 L140.375,111.4 L137.675,111.4 Z M151.705,102.68 L149.625,110.12 L154.005,110.12 L151.925,102.68 L151.705,102.68 Z M147.865,116 L146.185,116 L150.625,101.56 L153.005,101.56 L157.445,116 L155.765,116 L154.405,111.48 L149.225,111.48 L147.865,116 Z M158.855,113.36 L160.015,112.56 C161.115,114.04 162.475,114.96 163.975,114.96 C166.095,114.96 167.375,113.88 167.375,112.16 C167.375,110.14 166.175,108.92 163.295,108.92 L161.875,108.92 L161.875,107.68 L162.735,107.68 C165.615,107.68 166.855,106.76 166.855,104.98 C166.855,103.52 165.595,102.6 164.215,102.6 C162.455,102.6 161.695,103.36 160.735,104.6 L159.555,103.8 C160.535,102.44 161.895,101.36 164.215,101.36 C166.775,101.36 168.375,102.68 168.375,104.96 C168.375,106.7 167.255,107.72 166.135,108.16 C168.415,109.04 168.895,110.68 168.895,112 C168.895,114.46 166.995,116.2 163.975,116.2 C161.215,116.2 159.535,114.48 158.855,113.36 Z M174.245,102.92 L174.245,114.64 L176.405,114.64 C179.725,114.64 181.445,112.66 181.445,108.78 C181.445,104.56 179.445,102.92 176.485,102.92 L174.245,102.92 Z M172.645,116 L172.645,101.56 L176.525,101.56 C180.445,101.56 183.045,104.04 183.045,108.78 C183.045,113.02 180.765,116 176.445,116 L172.645,116 Z M186.215,115.36 L186.835,114.14 C187.495,114.66 188.175,114.96 189.295,114.96 C191.575,114.96 193.555,112.92 193.735,108.92 C192.855,109.84 191.775,110.64 189.775,110.64 C187.615,110.64 185.435,109.12 185.435,106 C185.435,102.92 187.695,101.36 190.095,101.36 C193.095,101.36 195.255,103.12 195.255,108.04 C195.255,112.6 193.215,116.2 189.335,116.2 C187.775,116.2 186.635,115.76 186.215,115.36 Z M186.955,105.96 C186.955,108.2 188.455,109.4 189.975,109.4 C191.735,109.4 193.095,108.24 193.655,106.72 C193.615,104.2 192.295,102.6 190.215,102.6 C188.175,102.6 186.955,104 186.955,105.96 Z M200.305,102.92 L200.305,114.64 L202.465,114.64 C205.785,114.64 207.505,112.66 207.505,108.78 C207.505,104.56 205.505,102.92 202.545,102.92 L200.305,102.92 Z M198.705,116 L198.705,101.56 L202.585,101.56 C206.505,101.56 209.105,104.04 209.105,108.78 C209.105,113.02 206.825,116 202.505,116 L198.705,116 Z M210.975,113.36 L212.135,112.56 C213.235,114.04 214.595,114.96 216.095,114.96 C218.215,114.96 219.495,113.88 219.495,112.16 C219.495,110.14 218.295,108.92 215.415,108.92 L213.995,108.92 L213.995,107.68 L214.855,107.68 C217.735,107.68 218.975,106.76 218.975,104.98 C218.975,103.52 217.715,102.6 216.335,102.6 C214.575,102.6 213.815,103.36 212.855,104.6 L211.675,103.8 C212.655,102.44 214.015,101.36 216.335,101.36 C218.895,101.36 220.495,102.68 220.495,104.96 C220.495,106.7 219.375,107.72 218.255,108.16 C220.535,109.04 221.015,110.68 221.015,112 C221.015,114.46 219.115,116.2 216.095,116.2 C213.335,116.2 211.655,114.48 210.975,113.36 Z"/>
    <rect width="356" height="72" y="144" fill="#73C9BD"/>
    <path fill="#FAFAFF" d="M138.235,179.24 L137.835,182.28 L140.535,182.28 L140.955,179.24 L138.235,179.24 Z M137.675,183.4 L137.055,188 L135.815,188 L136.435,183.4 L134.455,183.4 L134.455,182.28 L136.595,182.28 L136.995,179.24 L135.015,179.24 L135.015,178.12 L137.155,178.12 L137.775,173.56 L139.015,173.56 L138.395,178.12 L141.115,178.12 L141.715,173.56 L142.955,173.56 L142.355,178.12 L144.235,178.12 L144.235,179.24 L142.195,179.24 L141.775,182.28 L143.675,182.28 L143.675,183.4 L141.615,183.4 L140.995,188 L139.755,188 L140.375,183.4 L137.675,183.4 Z M154.505,174.8 L147.185,174.8 L147.185,173.56 L156.345,173.56 L156.345,174.44 L150.245,188 L148.565,188 L154.505,174.8 Z M158.855,185.36 L160.015,184.56 C161.115,186.04 162.475,186.96 163.975,186.96 C166.095,186.96 167.375,185.88 167.375,184.16 C167.375,182.14 166.175,180.92 163.295,180.92 L161.875,180.92 L161.875,179.68 L162.735,179.68 C165.615,179.68 166.855,178.76 166.855,176.98 C166.855,175.52 165.595,174.6 164.215,174.6 C162.455,174.6 161.695,175.36 160.735,176.6 L159.555,175.8 C160.535,174.44 161.895,173.36 164.215,173.36 C166.775,173.36 168.375,174.68 168.375,176.96 C168.375,178.7 167.255,179.72 166.135,180.16 C168.415,181.04 168.895,182.68 168.895,184 C168.895,186.46 166.995,188.2 163.975,188.2 C161.215,188.2 159.535,186.48 158.855,185.36 Z M180.645,183.4 L182.085,183.68 C181.445,186.36 179.965,188.2 177.005,188.2 C173.765,188.2 171.485,185.84 171.485,180.78 C171.485,176.08 173.525,173.36 177.005,173.36 C179.685,173.36 181.245,174.92 181.885,177.56 L180.405,178 C179.885,175.96 178.965,174.72 176.805,174.72 C174.725,174.72 173.085,176.64 173.085,180.78 C173.085,184.96 174.725,186.84 177.125,186.84 C179.345,186.84 180.205,185.16 180.645,183.4 Z M185.095,187.36 L185.715,186.14 C186.375,186.66 187.055,186.96 188.175,186.96 C190.455,186.96 192.435,184.92 192.615,180.92 C191.735,181.84 190.655,182.64 188.655,182.64 C186.495,182.64 184.315,181.12 184.315,178 C184.315,174.92 186.575,173.36 188.975,173.36 C191.975,173.36 194.135,175.12 194.135,180.04 C194.135,184.6 192.095,188.2 188.215,188.2 C186.655,188.2 185.515,187.76 185.095,187.36 Z M185.835,177.96 C185.835,180.2 187.335,181.4 188.855,181.4 C190.615,181.4 191.975,180.24 192.535,178.72 C192.495,176.2 191.175,174.6 189.095,174.6 C187.055,174.6 185.835,176 185.835,177.96 Z M197.745,188 L197.745,173.56 L203.065,173.56 C205.585,173.56 207.105,175.16 207.105,177.12 C207.105,178.7 206.405,179.84 204.665,180.44 L204.685,180.48 C206.305,180.88 207.465,182.32 207.465,184.12 C207.465,186.28 206.145,188 202.225,188 L197.745,188 Z M199.345,181.12 L199.345,186.64 L202.345,186.64 C204.705,186.64 205.865,185.84 205.865,184.04 C205.865,182.2 204.385,181.12 202.105,181.12 L199.345,181.12 Z M199.345,174.92 L199.345,179.76 L202.145,179.76 C204.565,179.76 205.505,178.52 205.505,177.3 C205.505,175.68 204.625,174.92 202.785,174.92 L199.345,174.92 Z M212.775,174.92 L212.775,186.64 L214.935,186.64 C218.255,186.64 219.975,184.66 219.975,180.78 C219.975,176.56 217.975,174.92 215.015,174.92 L212.775,174.92 Z M211.175,188 L211.175,173.56 L215.055,173.56 C218.975,173.56 221.575,176.04 221.575,180.78 C221.575,185.02 219.295,188 214.975,188 L211.175,188 Z"/>
    <rect width="356" height="72" y="474" fill="#30AD8B"/>
    <path fill="#FAFAFF" d="M138.235,509.24 L137.835,512.28 L140.535,512.28 L140.955,509.24 L138.235,509.24 Z M137.675,513.4 L137.055,518 L135.815,518 L136.435,513.4 L134.455,513.4 L134.455,512.28 L136.595,512.28 L136.995,509.24 L135.015,509.24 L135.015,508.12 L137.155,508.12 L137.775,503.56 L139.015,503.56 L138.395,508.12 L141.115,508.12 L141.715,503.56 L142.955,503.56 L142.355,508.12 L144.235,508.12 L144.235,509.24 L142.195,509.24 L141.775,512.28 L143.675,512.28 L143.675,513.4 L141.615,513.4 L140.995,518 L139.755,518 L140.375,513.4 L137.675,513.4 Z M146.385,515.36 L147.545,514.56 C148.645,516.04 150.005,516.96 151.505,516.96 C153.625,516.96 154.905,515.88 154.905,514.16 C154.905,512.14 153.705,510.92 150.825,510.92 L149.405,510.92 L149.405,509.68 L150.265,509.68 C153.145,509.68 154.385,508.76 154.385,506.98 C154.385,505.52 153.125,504.6 151.745,504.6 C149.985,504.6 149.225,505.36 148.265,506.6 L147.085,505.8 C148.065,504.44 149.425,503.36 151.745,503.36 C154.305,503.36 155.905,504.68 155.905,506.96 C155.905,508.7 154.785,509.72 153.665,510.16 C155.945,511.04 156.425,512.68 156.425,514 C156.425,516.46 154.525,518.2 151.505,518.2 C148.745,518.2 147.065,516.48 146.385,515.36 Z M159.175,510.78 C159.175,505.56 161.135,503.36 164.275,503.36 C167.415,503.36 169.375,505.56 169.375,510.78 C169.375,516 167.415,518.2 164.275,518.2 C161.135,518.2 159.175,516 159.175,510.78 Z M160.695,510.78 C160.695,515.16 161.935,516.96 164.275,516.96 C166.615,516.96 167.855,515.16 167.855,510.78 C167.855,506.4 166.615,504.6 164.275,504.6 C161.935,504.6 160.695,506.4 160.695,510.78 Z M176.645,504.68 L174.565,512.12 L178.945,512.12 L176.865,504.68 L176.645,504.68 Z M172.805,518 L171.125,518 L175.565,503.56 L177.945,503.56 L182.385,518 L180.705,518 L179.345,513.48 L174.165,513.48 L172.805,518 Z M186.715,504.92 L186.715,516.64 L188.875,516.64 C192.195,516.64 193.915,514.66 193.915,510.78 C193.915,506.56 191.915,504.92 188.955,504.92 L186.715,504.92 Z M185.115,518 L185.115,503.56 L188.995,503.56 C192.915,503.56 195.515,506.04 195.515,510.78 C195.515,515.02 193.235,518 188.915,518 L185.115,518 Z M208.065,514.24 C208.065,516.44 206.345,518.2 202.805,518.2 C199.265,518.2 197.545,516.44 197.545,514.24 C197.545,512.4 198.985,511.12 200.705,510.32 L200.705,510.28 C199.105,509.68 198.145,508.46 198.145,506.96 C198.145,504.6 200.145,503.36 202.805,503.36 C205.465,503.36 207.465,504.6 207.465,506.96 C207.465,508.46 206.505,509.68 204.905,510.28 L204.905,510.32 C206.625,510.94 208.065,512.28 208.065,514.24 Z M199.065,514.24 C199.065,515.52 200.185,516.96 202.805,516.96 C205.425,516.96 206.545,515.52 206.545,514.24 C206.545,512.56 204.825,511.72 202.545,510.96 C200.785,511.72 199.065,512.56 199.065,514.24 Z M205.945,506.88 C205.945,505.28 204.385,504.6 202.805,504.6 C201.225,504.6 199.665,505.28 199.665,506.88 C199.665,508.44 201.625,509.32 202.805,509.66 C204.405,509.26 205.945,508.28 205.945,506.88 Z M211.335,518 L211.335,503.56 L216.655,503.56 C219.175,503.56 220.695,505.16 220.695,507.12 C220.695,508.7 219.995,509.84 218.255,510.44 L218.275,510.48 C219.895,510.88 221.055,512.32 221.055,514.12 C221.055,516.28 219.735,518 215.815,518 L211.335,518 Z M212.935,511.12 L212.935,516.64 L215.935,516.64 C218.295,516.64 219.455,515.84 219.455,514.04 C219.455,512.2 217.975,511.12 215.695,511.12 L212.935,511.12 Z M212.935,504.92 L212.935,509.76 L215.735,509.76 C218.155,509.76 219.095,508.52 219.095,507.3 C219.095,505.68 218.215,504.92 216.375,504.92 L212.935,504.92 Z"/>
    <rect width="356" height="72" y="546" fill="#1C8369"/>
    <path fill="#FAFAFF" d="M139.355,581.24 L138.955,584.28 L141.655,584.28 L142.075,581.24 L139.355,581.24 Z M138.795,585.4 L138.175,590 L136.935,590 L137.555,585.4 L135.575,585.4 L135.575,584.28 L137.715,584.28 L138.115,581.24 L136.135,581.24 L136.135,580.12 L138.275,580.12 L138.895,575.56 L140.135,575.56 L139.515,580.12 L142.235,580.12 L142.835,575.56 L144.075,575.56 L143.475,580.12 L145.355,580.12 L145.355,581.24 L143.315,581.24 L142.895,584.28 L144.795,584.28 L144.795,585.4 L142.735,585.4 L142.115,590 L140.875,590 L141.495,585.4 L138.795,585.4 Z M156.325,590 L149.925,590 L149.925,588.76 L152.425,588.76 L152.425,577.02 L149.645,577.3 L149.645,576.36 C150.645,576.06 151.785,575.76 152.425,575.36 L153.865,575.36 L153.865,588.76 L156.325,588.76 L156.325,590 Z M169.295,585.4 L170.735,585.68 C170.095,588.36 168.615,590.2 165.655,590.2 C162.415,590.2 160.135,587.84 160.135,582.78 C160.135,578.08 162.175,575.36 165.655,575.36 C168.335,575.36 169.895,576.92 170.535,579.56 L169.055,580 C168.535,577.96 167.615,576.72 165.455,576.72 C163.375,576.72 161.735,578.64 161.735,582.78 C161.735,586.96 163.375,588.84 165.775,588.84 C167.995,588.84 168.855,587.16 169.295,585.4 Z M183.125,586.24 C183.125,588.44 181.405,590.2 177.865,590.2 C174.325,590.2 172.605,588.44 172.605,586.24 C172.605,584.4 174.045,583.12 175.765,582.32 L175.765,582.28 C174.165,581.68 173.205,580.46 173.205,578.96 C173.205,576.6 175.205,575.36 177.865,575.36 C180.525,575.36 182.525,576.6 182.525,578.96 C182.525,580.46 181.565,581.68 179.965,582.28 L179.965,582.32 C181.685,582.94 183.125,584.28 183.125,586.24 Z M174.125,586.24 C174.125,587.52 175.245,588.96 177.865,588.96 C180.485,588.96 181.605,587.52 181.605,586.24 C181.605,584.56 179.885,583.72 177.605,582.96 C175.845,583.72 174.125,584.56 174.125,586.24 Z M181.005,578.88 C181.005,577.28 179.445,576.6 177.865,576.6 C176.285,576.6 174.725,577.28 174.725,578.88 C174.725,580.44 176.685,581.32 177.865,581.66 C179.465,581.26 181.005,580.28 181.005,578.88 Z M184.915,587.36 L186.075,586.56 C187.175,588.04 188.535,588.96 190.035,588.96 C192.155,588.96 193.435,587.88 193.435,586.16 C193.435,584.14 192.235,582.92 189.355,582.92 L187.935,582.92 L187.935,581.68 L188.795,581.68 C191.675,581.68 192.915,580.76 192.915,578.98 C192.915,577.52 191.655,576.6 190.275,576.6 C188.515,576.6 187.755,577.36 186.795,578.6 L185.615,577.8 C186.595,576.44 187.955,575.36 190.275,575.36 C192.835,575.36 194.435,576.68 194.435,578.96 C194.435,580.7 193.315,581.72 192.195,582.16 C194.475,583.04 194.955,584.68 194.955,586 C194.955,588.46 193.055,590.2 190.035,590.2 C187.275,590.2 185.595,588.48 184.915,587.36 Z M206.945,576.2 L206.325,577.42 C205.665,576.9 204.985,576.6 203.865,576.6 C201.585,576.6 199.465,578.48 199.425,582.64 C200.305,581.72 201.385,580.92 203.385,580.92 C205.545,580.92 207.725,582.44 207.725,585.56 C207.725,588.64 205.465,590.2 203.065,590.2 C200.065,590.2 197.905,588.44 197.905,583.52 C197.905,578.96 199.945,575.36 203.825,575.36 C205.385,575.36 206.525,575.8 206.945,576.2 Z M206.205,585.6 C206.205,583.36 204.705,582.16 203.185,582.16 C201.425,582.16 199.585,583.6 199.465,585.24 C199.545,587.28 200.865,588.96 202.945,588.96 C204.985,588.96 206.205,587.56 206.205,585.6 Z M211.155,589.36 L211.775,588.14 C212.435,588.66 213.115,588.96 214.235,588.96 C216.515,588.96 218.495,586.92 218.675,582.92 C217.795,583.84 216.715,584.64 214.715,584.64 C212.555,584.64 210.375,583.12 210.375,580 C210.375,576.92 212.635,575.36 215.035,575.36 C218.035,575.36 220.195,577.12 220.195,582.04 C220.195,586.6 218.155,590.2 214.275,590.2 C212.715,590.2 211.575,589.76 211.155,589.36 Z M211.895,579.96 C211.895,582.2 213.395,583.4 214.915,583.4 C216.675,583.4 218.035,582.24 218.595,580.72 C218.555,578.2 217.235,576.6 215.155,576.6 C213.115,576.6 211.895,578 211.895,579.96 Z"/>
    <rect width="356" height="72" y="618" fill="#1D5543"/>
    <path fill="#FAFAFF" d="M138.795 653.24L138.395 656.28 141.095 656.28 141.515 653.24 138.795 653.24zM138.235 657.4L137.615 662 136.375 662 136.995 657.4 135.015 657.4 135.015 656.28 137.155 656.28 137.555 653.24 135.575 653.24 135.575 652.12 137.715 652.12 138.335 647.56 139.575 647.56 138.955 652.12 141.675 652.12 142.275 647.56 143.515 647.56 142.915 652.12 144.795 652.12 144.795 653.24 142.755 653.24 142.335 656.28 144.235 656.28 144.235 657.4 142.175 657.4 141.555 662 140.315 662 140.935 657.4 138.235 657.4zM155.765 662L149.365 662 149.365 660.76 151.865 660.76 151.865 649.02 149.085 649.3 149.085 648.36C150.085 648.06 151.225 647.76 151.865 647.36L153.305 647.36 153.305 660.76 155.765 660.76 155.765 662zM162.335 648.92L162.335 660.64 164.495 660.64C167.815 660.64 169.535 658.66 169.535 654.78 169.535 650.56 167.535 648.92 164.575 648.92L162.335 648.92zM160.735 662L160.735 647.56 164.615 647.56C168.535 647.56 171.135 650.04 171.135 654.78 171.135 659.02 168.855 662 164.535 662L160.735 662zM182.345 647.56L182.345 648.8 176.145 648.8 175.785 653.42C176.725 652.56 177.725 652.24 178.745 652.24 181.145 652.24 183.365 653.88 183.365 657.12 183.365 659.32 182.045 662.2 178.365 662.2 175.905 662.2 174.665 660.84 173.765 659.44L175.065 658.76C175.765 660.06 176.885 660.96 178.405 660.96 180.305 660.96 181.845 659.84 181.845 657.12 181.845 655 180.605 653.48 178.605 653.48 177.205 653.48 176.145 654.32 175.565 655.66L174.305 655.38 174.945 647.56 182.345 647.56zM194.815 647.56L194.815 648.8 188.615 648.8 188.255 653.42C189.195 652.56 190.195 652.24 191.215 652.24 193.615 652.24 195.835 653.88 195.835 657.12 195.835 659.32 194.515 662.2 190.835 662.2 188.375 662.2 187.135 660.84 186.235 659.44L187.535 658.76C188.235 660.06 189.355 660.96 190.875 660.96 192.775 660.96 194.315 659.84 194.315 657.12 194.315 655 193.075 653.48 191.075 653.48 189.675 653.48 188.615 654.32 188.035 655.66L186.775 655.38 187.415 647.56 194.815 647.56zM208.585 658.6L206.105 658.6 206.105 662 204.665 662 204.665 658.6 198.025 658.6 198.025 657.36 203.985 647.56 206.105 647.56 206.105 657.36 208.585 657.36 208.585 658.6zM204.605 649.08L199.545 657.36 204.665 657.36 204.665 649.08 204.605 649.08zM210.415 659.36L211.575 658.56C212.675 660.04 214.035 660.96 215.535 660.96 217.655 660.96 218.935 659.88 218.935 658.16 218.935 656.14 217.735 654.92 214.855 654.92L213.435 654.92 213.435 653.68 214.295 653.68C217.175 653.68 218.415 652.76 218.415 650.98 218.415 649.52 217.155 648.6 215.775 648.6 214.015 648.6 213.255 649.36 212.295 650.6L211.115 649.8C212.095 648.44 213.455 647.36 215.775 647.36 218.335 647.36 219.935 648.68 219.935 650.96 219.935 652.7 218.815 653.72 217.695 654.16 219.975 655.04 220.455 656.68 220.455 658 220.455 660.46 218.555 662.2 215.535 662.2 212.775 662.2 211.095 660.48 210.415 659.36zM139.355 251.24L138.955 254.28 141.655 254.28 142.075 251.24 139.355 251.24zM138.795 255.4L138.175 260 136.935 260 137.555 255.4 135.575 255.4 135.575 254.28 137.715 254.28 138.115 251.24 136.135 251.24 136.135 250.12 138.275 250.12 138.895 245.56 140.135 245.56 139.515 250.12 142.235 250.12 142.835 245.56 144.075 245.56 143.475 250.12 145.355 250.12 145.355 251.24 143.315 251.24 142.895 254.28 144.795 254.28 144.795 255.4 142.735 255.4 142.115 260 140.875 260 141.495 255.4 138.795 255.4zM147.505 257.36L148.665 256.56C149.765 258.04 151.125 258.96 152.625 258.96 154.745 258.96 156.025 257.88 156.025 256.16 156.025 254.14 154.825 252.92 151.945 252.92L150.525 252.92 150.525 251.68 151.385 251.68C154.265 251.68 155.505 250.76 155.505 248.98 155.505 247.52 154.245 246.6 152.865 246.6 151.105 246.6 150.345 247.36 149.385 248.6L148.205 247.8C149.185 246.44 150.545 245.36 152.865 245.36 155.425 245.36 157.025 246.68 157.025 248.96 157.025 250.7 155.905 251.72 154.785 252.16 157.065 253.04 157.545 254.68 157.545 256 157.545 258.46 155.645 260.2 152.625 260.2 149.865 260.2 148.185 258.48 147.505 257.36zM159.975 257.36L161.135 256.56C162.235 258.04 163.595 258.96 165.095 258.96 167.215 258.96 168.495 257.88 168.495 256.16 168.495 254.14 167.295 252.92 164.415 252.92L162.995 252.92 162.995 251.68 163.855 251.68C166.735 251.68 167.975 250.76 167.975 248.98 167.975 247.52 166.715 246.6 165.335 246.6 163.575 246.6 162.815 247.36 161.855 248.6L160.675 247.8C161.655 246.44 163.015 245.36 165.335 245.36 167.895 245.36 169.495 246.68 169.495 248.96 169.495 250.7 168.375 251.72 167.255 252.16 169.535 253.04 170.015 254.68 170.015 256 170.015 258.46 168.115 260.2 165.095 260.2 162.335 260.2 160.655 258.48 159.975 257.36zM181.765 255.4L183.205 255.68C182.565 258.36 181.085 260.2 178.125 260.2 174.885 260.2 172.605 257.84 172.605 252.78 172.605 248.08 174.645 245.36 178.125 245.36 180.805 245.36 182.365 246.92 183.005 249.56L181.525 250C181.005 247.96 180.085 246.72 177.925 246.72 175.845 246.72 174.205 248.64 174.205 252.78 174.205 256.96 175.845 258.84 178.245 258.84 180.465 258.84 181.325 257.16 181.765 255.4zM185.235 252.78C185.235 247.56 187.195 245.36 190.335 245.36 193.475 245.36 195.435 247.56 195.435 252.78 195.435 258 193.475 260.2 190.335 260.2 187.195 260.2 185.235 258 185.235 252.78zM186.755 252.78C186.755 257.16 187.995 258.96 190.335 258.96 192.675 258.96 193.915 257.16 193.915 252.78 193.915 248.4 192.675 246.6 190.335 246.6 187.995 246.6 186.755 248.4 186.755 252.78zM202.705 246.68L200.625 254.12 205.005 254.12 202.925 246.68 202.705 246.68zM198.865 260L197.185 260 201.625 245.56 204.005 245.56 208.445 260 206.765 260 205.405 255.48 200.225 255.48 198.865 260zM211.335 245.56L219.995 245.56 219.995 246.92 212.935 246.92 212.935 251.76 217.955 251.76 217.955 253.12 212.935 253.12 212.935 258.64 220.395 258.64 220.395 260 211.335 260 211.335 245.56z"/>
  </g>
</svg>
