<svg xmlns="http://www.w3.org/2000/svg" width="278" height="1029"><defs><linearGradient id="a" x1="52.494%" x2="52.494%" y1="136.038%" y2="0%"><stop offset="0%" stop-color="#F341C3"/><stop offset="100%" stop-color="#FC4748"/></linearGradient><linearGradient id="b" x1="58.831%" x2="58.831%" y1="156.902%" y2="-53.075%"><stop offset="0%" stop-color="#F341C3"/><stop offset="100%" stop-color="#FC4748"/></linearGradient><linearGradient id="c" x1="53.794%" x2="53.794%" y1="133.535%" y2="-51.899%"><stop offset="0%" stop-color="#F341C3"/><stop offset="100%" stop-color="#FC4748"/></linearGradient><linearGradient id="d" x1="50%" x2="50%" y1="100%" y2="-68.719%"><stop offset="0%" stop-color="#F341C3"/><stop offset="100%" stop-color="#FC4748"/></linearGradient></defs><g fill="none" fill-rule="evenodd"><path fill="#D7D7DE" fill-rule="nonzero" d="M54 920v-2h12v2H54zm20 0v-2h12v2H74zm20 0v-2h12v2H94zm20 0v-2h12v2h-12zm20 0v-2h12v2h-12zm20 0v-2h12v2h-12zm20 0v-2h12v2h-12zm20 0v-2h12v2h-12zm20 0v-2h12v2h-12zm20 0v-2h12v2h-12zm20 0v-2h12v2h-12zm20 0v-2h3v2h-3z"/><path fill="url(#a)" fill-rule="nonzero" d="M192.923 42.645c-.925 2.828-1.799 6.679-2.939 12.666-.34 1.785-1.559 8.392-1.8 9.676-1.824 9.677-3.238 15.699-5.017 20.446-4.139 11.039-7.883 14.832-15.887 18.351.053-.023-1.65.72-2.136.937a53.67 53.67 0 0 0-2.17 1.02c-4.23 2.115-7.125 1.536-9.996-1.336-.473-.473-2.515-2.755-3.123-3.364-1.279-1.279-2.535-2.234-4.044-2.989-2.068-1.034-3.062-1.328-6.095-1.996-1.63-.358-2.567-.647-3.628-1.206-2.218-1.17-4.142-3.287-6.47-7.168-2.098-3.498-3.295-11.76-5.14-31.216-.125-1.321-.788-8.404-.981-10.43-1.294-13.568-2.287-21.895-3.557-28.586C118.532 10.035 116.807 6 115.96 6c-.092 0-.822.824-1.701 2.723-1.034 2.231-2.112 5.543-3.238 9.894-1.853 7.161-3.544 15.65-6.303 30.91-3.837 21.22-4.411 24.279-5.994 31.148-2.521 10.942-4.366 15.666-7.744 15.666-4.108 0-5.95-1.626-8.44-5.776-1.834-3.058-2.714-3.834-5.01-3.834-3.925 0-7.225 4.4-9.59 13.862a2 2 0 1 1-3.88-.97c2.76-11.042 7.146-16.892 13.47-16.892 4.108 0 5.95 1.626 8.44 5.776 1.746 2.911 2.627 3.755 4.689 3.829.5-.672.91-1.489 1.344-2.604.876-2.242 1.81-5.556 2.823-9.955 1.562-6.777 2.136-9.836 5.956-30.962 2.777-15.36 4.48-23.91 6.367-31.2C109.875 7.082 112.229 2 115.961 2c3.943 0 6.055 4.94 7.908 14.704 1.301 6.852 2.305 15.263 3.61 28.952.193 2.03.856 9.115.981 10.433 1.736 18.297 2.974 26.843 4.588 29.535 1.986 3.31 3.447 4.918 4.906 5.688.664.35 1.317.55 2.622.838 3.337.734 4.58 1.102 7.025 2.325 1.928.964 3.52 2.175 5.083 3.738.713.713 2.755 2.996 3.123 3.364 1.692 1.693 2.743 1.904 5.377.587.727-.364 1.466-.71 2.33-1.095.502-.225 2.222-.976 2.156-.947 7.044-3.097 10.003-6.094 13.751-16.093 1.673-4.462 3.05-10.328 4.831-19.783.24-1.273 1.46-7.885 1.803-9.683 1.17-6.15 2.072-10.123 3.066-13.162 1.43-4.369 3-6.724 5.624-6.724 3.457 0 4.88 4.746 7.306 18.087.388 2.14.792 4.48 1.289 7.442.262 1.566 1.169 7.044 1.304 7.858 1.747 10.484 2.904 16.608 4.198 21.634.774 3.007 1.536 5.29 2.279 6.803.35.71.678 1.216.955 1.5 1.642.04 2.869-1.03 4.632-3.779.303-.473 2.496-4.112 3.253-5.259 3.423-5.181 7.134-8.419 12.666-10 8.45-2.415 17.745-10.473 27.755-24.24a2 2 0 1 1 3.236 2.351C253.13 71.498 243.21 80.1 233.726 82.81c-4.476 1.28-7.484 3.903-10.427 8.359-.7 1.06-2.875 4.669-3.224 5.214-2.487 3.876-4.686 5.726-8.036 5.726-3.25 0-5.105-3.776-7.07-11.412-1.334-5.177-2.504-11.376-4.27-21.975-.136-.817-1.043-6.293-1.304-7.854-.494-2.946-.895-5.269-1.28-7.387-.94-5.176-1.753-8.915-2.537-11.53-.378-1.26-.741-2.224-1.073-2.863-.568.847-1.072 1.998-1.582 3.558z" transform="translate(0 843)"/><path fill="#2C2C36" d="M.588 855.946c0-2.898 1.008-5.194 3.682-5.194s3.682 2.296 3.682 5.194-1.008 5.194-3.682 5.194-3.682-2.296-3.682-5.194zm1.82 0c0 2.758.756 3.682 1.862 3.682s1.862-.924 1.862-3.682-.756-3.682-1.862-3.682-1.862.924-1.862 3.682zm9.74 5.054h-1.932v-1.988h1.932V861zm3.412-3.724h3.15v-4.508h-.028l-3.122 4.508zm-1.4 1.4v-1.778l4.312-6.006h1.974v6.384h1.428v1.4h-1.428V861H18.71v-2.324h-4.55zm11.714-7.784a2.518 2.518 0 0 1 2.52 2.52 2.518 2.518 0 0 1-2.52 2.52 2.518 2.518 0 0 1-2.52-2.52 2.518 2.518 0 0 1 2.52-2.52zm0 1.372c-.63 0-1.148.546-1.148 1.148 0 .602.518 1.148 1.148 1.148.63 0 1.148-.546 1.148-1.148 0-.602-.518-1.148-1.148-1.148zm6.454 3.696a2.518 2.518 0 0 1 2.52 2.52 2.518 2.518 0 0 1-2.52 2.52 2.518 2.518 0 0 1-2.52-2.52 2.518 2.518 0 0 1 2.52-2.52zm0 1.372c-.63 0-1.148.546-1.148 1.148 0 .602.518 1.148 1.148 1.148.63 0 1.148-.546 1.148-1.148 0-.602-.518-1.148-1.148-1.148zm-6.692 3.808l5.81-10.388h1.19l-5.81 10.388h-1.19zm-12.048 141.806c0-2.898 1.008-5.194 3.682-5.194s3.682 2.296 3.682 5.194-1.008 5.194-3.682 5.194-3.682-2.296-3.682-5.194zm1.82 0c0 2.758.756 3.682 1.862 3.682s1.862-.924 1.862-3.682-.756-3.682-1.862-3.682-1.862.924-1.862 3.682zm9.642-5.054a2.518 2.518 0 0 1 2.52 2.52 2.518 2.518 0 0 1-2.52 2.52 2.518 2.518 0 0 1-2.52-2.52 2.518 2.518 0 0 1 2.52-2.52zm0 1.372c-.63 0-1.148.546-1.148 1.148 0 .602.518 1.148 1.148 1.148.63 0 1.148-.546 1.148-1.148 0-.602-.518-1.148-1.148-1.148zm6.454 3.696a2.518 2.518 0 0 1 2.52 2.52 2.518 2.518 0 0 1-2.52 2.52 2.518 2.518 0 0 1-2.52-2.52 2.518 2.518 0 0 1 2.52-2.52zm0 1.372c-.63 0-1.148.546-1.148 1.148 0 .602.518 1.148 1.148 1.148.63 0 1.148-.546 1.148-1.148 0-.602-.518-1.148-1.148-1.148zm-6.692 3.808l5.81-10.388h1.19l-5.81 10.388h-1.19zm40.428 13.212l-.864.192c-.216-.84-.9-1.512-2.016-1.512-1.008 0-1.608.48-1.62 1.344-.024 1.896 4.872 1.416 4.872 4.2 0 1.26-.708 2.544-2.916 2.544-1.896 0-2.64-1.224-3.096-2.256l.876-.312c.348.912.996 1.752 2.268 1.752 1.272 0 1.908-.672 1.908-1.56 0-2.208-4.872-1.56-4.872-4.296 0-1.248 1.044-2.232 2.604-2.232 1.344 0 2.4.708 2.856 2.136zm6.284 3.528c0-1.608-.66-2.496-1.692-2.496s-1.692.888-1.692 2.496.66 2.496 1.692 2.496 1.692-.888 1.692-2.496zm.864 0c0 1.8-.852 3.24-2.556 3.24-1.704 0-2.556-1.44-2.556-3.24 0-1.8.852-3.24 2.556-3.24 1.704 0 2.556 1.44 2.556 3.24zm6.26-1.548l-.804.288c-.24-.756-.732-1.236-1.476-1.236-1.068 0-1.692.912-1.692 2.496s.624 2.496 1.692 2.496c.792 0 1.236-.264 1.716-1.152l.696.312c-.624 1.056-1.176 1.584-2.412 1.584-1.56 0-2.556-1.224-2.556-3.24s.996-3.24 2.556-3.24c1.284 0 1.884.72 2.28 1.692zm2.42 4.668v-6.24h.864v6.24h-.864zm0-8.784h.864v1.032h-.864v-1.032zm4.04 4.14l-.756-.396c.396-.72 1.164-1.32 2.34-1.32 1.056 0 2.16.504 2.16 1.872v3.144c0 .684.06 1.02.144 1.344h-.888l-.096-.864c-.432.48-1.128.984-2.064.984-.96 0-1.776-.576-1.776-1.716 0-1.368 1.044-2.052 3.816-2.544v-.336c0-.828-.54-1.14-1.284-1.14-.96 0-1.428.552-1.596.972zm2.88 2.988v-1.716c-1.98.348-2.952.924-2.952 1.788 0 .576.552.96 1.032.96.624 0 1.416-.456 1.92-1.032zm3.416-7.008h.864V1028h-.864v-8.664zm13 2.016l-.864.192c-.216-.84-.9-1.512-2.016-1.512-1.008 0-1.608.48-1.62 1.344-.024 1.896 4.872 1.416 4.872 4.2 0 1.26-.708 2.544-2.916 2.544-1.896 0-2.64-1.224-3.096-2.256l.876-.312c.348.912.996 1.752 2.268 1.752 1.272 0 1.908-.672 1.908-1.56 0-2.208-4.872-1.56-4.872-4.296 0-1.248 1.044-2.232 2.604-2.232 1.344 0 2.4.708 2.856 2.136zm2.66-2.016h.864v3.264h.024c.492-.552 1.14-.96 1.848-.96.924 0 1.8.48 1.8 1.824V1028h-.864v-4.512c0-.828-.396-1.104-1.02-1.104-.648 0-1.392.528-1.788.948V1028h-.864v-8.664zm7.544 4.02l-.756-.396c.396-.72 1.164-1.32 2.34-1.32 1.056 0 2.16.504 2.16 1.872v3.144c0 .684.06 1.02.144 1.344h-.888l-.096-.864c-.432.48-1.128.984-2.064.984-.96 0-1.776-.576-1.776-1.716 0-1.368 1.044-2.052 3.816-2.544v-.336c0-.828-.54-1.14-1.284-1.14-.96 0-1.428.552-1.596.972zm2.88 2.988v-1.716c-1.98.348-2.952.924-2.952 1.788 0 .576.552.96 1.032.96.624 0 1.416-.456 1.92-1.032zm3.02 1.656v-6.24h.864v1.236h.024c.48-.852.996-1.332 2.028-1.332v.864c-1.08.024-1.644.732-2.052 2.016V1028h-.864zm8.576-1.68l.672.348c-.408.708-.984 1.452-2.4 1.452-1.392 0-2.712-.96-2.712-3.24 0-2.016 1.008-3.24 2.544-3.24 1.296 0 2.376.84 2.376 2.832v.576h-4.056c0 1.368.816 2.328 1.848 2.328.768 0 1.368-.408 1.728-1.056zm-3.552-2.016h3.168c0-1.152-.552-1.92-1.488-1.92-1.044 0-1.608.768-1.68 1.92zm5.42 2.628l.684-.516c.408.588 1.008.96 1.788.96.936 0 1.344-.504 1.344-1.032 0-1.584-3.696-.744-3.624-3.024.036-1.08.864-1.692 2.064-1.68.816.012 1.716.456 2.136 1.092l-.6.528c-.48-.588-.936-.876-1.608-.876-.732 0-1.128.372-1.128.924 0 1.356 3.624.66 3.624 2.988 0 1.212-1.056 1.824-2.184 1.824-.972 0-1.92-.42-2.496-1.188zm13.204-1.68h-3.024v-.744h3.024v.744zm10.852 2.748h-3.84v-.744h1.5v-7.044l-1.668.168v-.564c.6-.18 1.284-.36 1.668-.6h.864v8.04h1.476v.744zm8.552-.744v.744h-5.628v-.912c1.5-3.036 4.728-3.216 4.728-5.544 0-1.008-.648-1.584-1.752-1.584-1.248 0-1.896 1.008-2.04 1.884l-.852-.192c.276-1.2.984-2.436 2.916-2.436 1.416 0 2.64.816 2.64 2.304 0 2.64-3.792 3.36-4.728 5.736h4.716zm14.272.744h-.864v-7.92h-.036l-2.424 7.92h-.744l-2.436-7.92h-.036v7.92h-.864v-8.664h1.488l2.208 7.008h.024l2.172-7.008h1.512V1028zm6.488-3.12c0-1.608-.66-2.496-1.692-2.496s-1.692.888-1.692 2.496.66 2.496 1.692 2.496 1.692-.888 1.692-2.496zm.864 0c0 1.8-.852 3.24-2.556 3.24-1.704 0-2.556-1.44-2.556-3.24 0-1.8.852-3.24 2.556-3.24 1.704 0 2.556 1.44 2.556 3.24zm2.012-3.12h.864v.84h.024c.492-.552 1.14-.96 1.848-.96.924 0 1.8.48 1.8 1.824V1028h-.864v-4.512c0-.828-.396-1.104-1.02-1.104-.648 0-1.392.528-1.788.948V1028h-.864v-6.24zm6.32 0h1.02v-2.052h.864v2.052h1.44v.744h-1.44v4.44c0 .288.204.432.708.432.288 0 .54-.024.768-.06v.708c-.156.048-.504.096-1.008.096-.936 0-1.332-.24-1.332-1.032v-4.584h-1.02v-.744zm5.348-2.424h.864v3.264h.024c.492-.552 1.14-.96 1.848-.96.924 0 1.8.48 1.8 1.824V1028h-.864v-4.512c0-.828-.396-1.104-1.02-1.104-.648 0-1.392.528-1.788.948V1028h-.864v-8.664zm6.392 7.596l.684-.516c.408.588 1.008.96 1.788.96.936 0 1.344-.504 1.344-1.032 0-1.584-3.696-.744-3.624-3.024.036-1.08.864-1.692 2.064-1.68.816.012 1.716.456 2.136 1.092l-.6.528c-.48-.588-.936-.876-1.608-.876-.732 0-1.128.372-1.128.924 0 1.356 3.624.66 3.624 2.988 0 1.212-1.056 1.824-2.184 1.824-.972 0-1.92-.42-2.496-1.188z"/><path fill="#48484F" d="M54.472 854.93c.369.026.66.335.66.712v145.735H276.61c.392 0 .71.319.71.713a.712.712 0 0 1-.71.713H43.548a.712.712 0 0 1-.71-.713c0-.394.318-.713.71-.713h10.164V856.23H42.71a.712.712 0 0 1-.71-.714c0-.393.318-.713.71-.713h11.357c.15 0 .29.047.405.128z"/><path fill="#D7D7DE" fill-rule="nonzero" d="M49 616v-2h12v2H49zm20 0v-2h12v2H69zm20 0v-2h12v2H89zm20 0v-2h12v2h-12zm20 0v-2h12v2h-12zm20 0v-2h12v2h-12zm20 0v-2h12v2h-12zm20 0v-2h12v2h-12zm20 0v-2h12v2h-12zm20 0v-2h12v2h-12zm20 0v-2h12v2h-12zm20 0v-2h3v2h-3z"/><path fill="url(#b)" fill-rule="nonzero" d="M58.593 80.171a2 2 0 1 1 2.814-2.842C69.98 85.816 76.62 90 81.03 90c1.779 0 2.77-.93 4.502-3.973.036-.063.722-1.282.935-1.652 2.983-5.168 6.055-7.625 11.77-7.625 3.17 0 4.995-4.74 7.594-18.253 1.459-7.583 2.189-10.744 3.443-14.004 1.842-4.786 4.37-7.493 8.08-7.493 3.589 0 6.568 2.672 9.376 7.501 2.04 3.51 3.854 7.802 6.362 14.63.182.497 2.21 6.088 2.789 7.636 1.025 2.746 1.857 4.813 2.647 6.535 1.653 3.599 3.046 5.34 3.679 5.34 2.346 0 4.435-1.71 9.016-6.895 5.455-6.173 7.986-8.247 12.013-8.247 3.085 0 5.757-3.017 9.16-9.645.44-.856 1.946-3.884 2.244-4.47.87-1.706 1.55-2.919 2.231-3.93 4.782-7.101 12.346-8.284 32.602-4.638 13.846 2.493 28.97 3.117 45.376 1.867a2 2 0 1 1 .304 3.989c-16.732 1.274-32.195.636-46.389-1.919-18.841-3.392-24.959-2.435-28.575 2.934-.57.848-1.182 1.94-1.986 3.515-.285.56-1.794 3.594-2.248 4.48-4.086 7.956-7.505 11.817-12.719 11.817-2.345 0-4.434 1.712-9.016 6.896-5.455 6.173-7.986 8.247-12.013 8.247-2.9 0-4.991-2.613-7.314-7.672-.84-1.828-1.703-3.976-2.76-6.805-.585-1.569-2.62-7.175-2.796-7.655C124.409 47.097 120.864 41 117.353 41c-3.172 0-4.995 4.74-7.595 18.253-1.459 7.583-2.189 10.744-3.443 14.004-1.841 4.786-4.37 7.493-8.08 7.493-4.004 0-5.962 1.566-8.304 5.625-.2.347-.878 1.55-.923 1.63C86.626 92.19 84.698 94 81.029 94c-5.786 0-13.165-4.649-22.436-13.829z" transform="translate(0 555)"/><path fill="#2C2C36" d="M1.232 568.268l.378-5.376h5.46v1.568H2.982l-.14 2.296c.322-.336.798-.588 1.89-.588 1.82 0 3.024 1.708 3.024 3.36 0 2.212-1.288 3.612-3.724 3.612-1.596 0-2.716-.756-3.276-1.89l1.512-.784c.308.714 1.106 1.134 1.792 1.148 1.288.042 1.876-.826 1.876-2.086 0-1.036-.658-1.848-1.722-1.848-.714 0-1.246.364-1.526.868l-1.456-.28zm8.41-.322c0-2.898 1.008-5.194 3.682-5.194s3.682 2.296 3.682 5.194-1.008 5.194-3.682 5.194-3.682-2.296-3.682-5.194zm1.82 0c0 2.758.756 3.682 1.862 3.682s1.862-.924 1.862-3.682-.756-3.682-1.862-3.682-1.862.924-1.862 3.682zm9.642-5.054a2.518 2.518 0 0 1 2.52 2.52 2.518 2.518 0 0 1-2.52 2.52 2.518 2.518 0 0 1-2.52-2.52 2.518 2.518 0 0 1 2.52-2.52zm0 1.372c-.63 0-1.148.546-1.148 1.148 0 .602.518 1.148 1.148 1.148.63 0 1.148-.546 1.148-1.148 0-.602-.518-1.148-1.148-1.148zm6.454 3.696a2.518 2.518 0 0 1 2.52 2.52 2.518 2.518 0 0 1-2.52 2.52 2.518 2.518 0 0 1-2.52-2.52 2.518 2.518 0 0 1 2.52-2.52zm0 1.372c-.63 0-1.148.546-1.148 1.148 0 .602.518 1.148 1.148 1.148.63 0 1.148-.546 1.148-1.148 0-.602-.518-1.148-1.148-1.148zm-6.692 3.808l5.81-10.388h1.19l-5.81 10.388h-1.19zM8.588 712.946c0-2.898 1.008-5.194 3.682-5.194s3.682 2.296 3.682 5.194-1.008 5.194-3.682 5.194-3.682-2.296-3.682-5.194zm1.82 0c0 2.758.756 3.682 1.862 3.682s1.862-.924 1.862-3.682-.756-3.682-1.862-3.682-1.862.924-1.862 3.682zm9.642-5.054a2.518 2.518 0 0 1 2.52 2.52 2.518 2.518 0 0 1-2.52 2.52 2.518 2.518 0 0 1-2.52-2.52 2.518 2.518 0 0 1 2.52-2.52zm0 1.372c-.63 0-1.148.546-1.148 1.148 0 .602.518 1.148 1.148 1.148.63 0 1.148-.546 1.148-1.148 0-.602-.518-1.148-1.148-1.148zm6.454 3.696a2.518 2.518 0 0 1 2.52 2.52 2.518 2.518 0 0 1-2.52 2.52 2.518 2.518 0 0 1-2.52-2.52 2.518 2.518 0 0 1 2.52-2.52zm0 1.372c-.63 0-1.148.546-1.148 1.148 0 .602.518 1.148 1.148 1.148.63 0 1.148-.546 1.148-1.148 0-.602-.518-1.148-1.148-1.148zm-6.692 3.808l5.81-10.388h1.19l-5.81 10.388h-1.19zm34.596 18.276l.696-.48c.66.888 1.476 1.44 2.376 1.44 1.272 0 2.04-.648 2.04-1.68 0-1.212-.72-1.944-2.448-1.944h-.852v-.744h.516c1.728 0 2.472-.552 2.472-1.62 0-.876-.756-1.428-1.584-1.428-1.056 0-1.512.456-2.088 1.2l-.708-.48c.588-.816 1.404-1.464 2.796-1.464 1.536 0 2.496.792 2.496 2.16 0 1.044-.672 1.656-1.344 1.92 1.368.528 1.656 1.512 1.656 2.304 0 1.476-1.14 2.52-2.952 2.52a3.591 3.591 0 0 1-3.072-1.704zm10.652-1.908v-2.748h.744v2.748h2.748v.744h-2.748V738h-.744v-2.748h-2.748v-.744h2.748zm10.792-4.356v3.168h1.632c1.596 0 2.124-.552 2.124-1.584s-.612-1.584-1.908-1.584h-1.848zm0 7.848h-.96v-8.664h3.024c1.848 0 2.652 1.056 2.652 2.424 0 1.44-.996 2.376-3.18 2.376h-1.536V738zm7.112-4.644l-.756-.396c.396-.72 1.164-1.32 2.34-1.32 1.056 0 2.16.504 2.16 1.872v3.144c0 .684.06 1.02.144 1.344h-.888l-.096-.864c-.432.48-1.128.984-2.064.984-.96 0-1.776-.576-1.776-1.716 0-1.368 1.044-2.052 3.816-2.544v-.336c0-.828-.54-1.14-1.284-1.14-.96 0-1.428.552-1.596.972zm2.88 2.988v-1.716c-1.98.348-2.952.924-2.952 1.788 0 .576.552.96 1.032.96.624 0 1.416-.456 1.92-1.032zm7.94-4.824v.864c-.36 0-.744.06-.96.168.18.216.432.696.432 1.272 0 1.236-1.02 2.184-2.28 2.184-.504 0-.768-.072-1.104-.168-.336.096-.492.3-.492.576 0 .288.204.456.516.456 2.952 0 3.9.528 3.9 1.752 0 .912-.9 1.68-2.844 1.68-1.752 0-2.688-.48-2.688-1.512 0-.624.384-.924 1.056-1.272-.48-.144-.78-.516-.78-.888 0-.54.36-.768.84-1.068-.588-.444-.852-1.056-.852-1.74 0-1.32 1.032-2.184 2.364-2.184.672 0 1.14.144 1.548.432.372-.264.876-.504 1.344-.552zm-.804 7.14c-.012-.612-.636-.924-2.16-.924-1.356 0-1.74.6-1.74 1.044 0 .468.288.78 2.016.78 1.032 0 1.872-.288 1.884-.9zm-.54-4.788c0-.912-.528-1.488-1.584-1.488-.984 0-1.512.624-1.512 1.44 0 .828.648 1.44 1.608 1.44.984 0 1.488-.648 1.488-1.392zm7.004 2.448l.672.348c-.408.708-.984 1.452-2.4 1.452-1.392 0-2.712-.96-2.712-3.24 0-2.016 1.008-3.24 2.544-3.24 1.296 0 2.376.84 2.376 2.832v.576h-4.056c0 1.368.816 2.328 1.848 2.328.768 0 1.368-.408 1.728-1.056zm-3.552-2.016h3.168c0-1.152-.552-1.92-1.488-1.92-1.044 0-1.608.768-1.68 1.92zM108.076 738l-2.676-8.664h.96l2.136 7.104h.024l2.148-7.104h.972L108.952 738h-.876zm5.516 0v-6.24h.864V738h-.864zm0-8.784h.864v1.032h-.864v-1.032zm7.52 7.104l.672.348c-.408.708-.984 1.452-2.4 1.452-1.392 0-2.712-.96-2.712-3.24 0-2.016 1.008-3.24 2.544-3.24 1.296 0 2.376.84 2.376 2.832v.576h-4.056c0 1.368.816 2.328 1.848 2.328.768 0 1.368-.408 1.728-1.056zm-3.552-2.016h3.168c0-1.152-.552-1.92-1.488-1.92-1.044 0-1.608.768-1.68 1.92zm7.016 3.696l-1.692-6.24h.876l1.26 4.8h.024l1.224-4.8h.876l1.248 4.824h.024l1.212-4.824h.876l-1.668 6.24h-.876l-1.248-4.824h-.024L125.452 738h-.876zm6.908-1.068l.684-.516c.408.588 1.008.96 1.788.96.936 0 1.344-.504 1.344-1.032 0-1.584-3.696-.744-3.624-3.024.036-1.08.864-1.692 2.064-1.68.816.012 1.716.456 2.136 1.092l-.6.528c-.48-.588-.936-.876-1.608-.876-.732 0-1.128.372-1.128.924 0 1.356 3.624.66 3.624 2.988 0 1.212-1.056 1.824-2.184 1.824-.972 0-1.92-.42-2.496-1.188zm13.204-1.68h-3.024v-.744h3.024v.744zM155.54 738h-3.84v-.744h1.5v-7.044l-1.668.168v-.564c.6-.18 1.284-.36 1.668-.6h.864v8.04h1.476V738zm8.552-.744V738h-5.628v-.912c1.5-3.036 4.728-3.216 4.728-5.544 0-1.008-.648-1.584-1.752-1.584-1.248 0-1.896 1.008-2.04 1.884l-.852-.192c.276-1.2.984-2.436 2.916-2.436 1.416 0 2.64.816 2.64 2.304 0 2.64-3.792 3.36-4.728 5.736h4.716zm14.272.744h-.864v-7.92h-.036L175.04 738h-.744l-2.436-7.92h-.036V738h-.864v-8.664h1.488l2.208 7.008h.024l2.172-7.008h1.512V738zm6.488-3.12c0-1.608-.66-2.496-1.692-2.496s-1.692.888-1.692 2.496.66 2.496 1.692 2.496 1.692-.888 1.692-2.496zm.864 0c0 1.8-.852 3.24-2.556 3.24-1.704 0-2.556-1.44-2.556-3.24 0-1.8.852-3.24 2.556-3.24 1.704 0 2.556 1.44 2.556 3.24zm2.012-3.12h.864v.84h.024c.492-.552 1.14-.96 1.848-.96.924 0 1.8.48 1.8 1.824V738h-.864v-4.512c0-.828-.396-1.104-1.02-1.104-.648 0-1.392.528-1.788.948V738h-.864v-6.24zm6.32 0h1.02v-2.052h.864v2.052h1.44v.744h-1.44v4.44c0 .288.204.432.708.432.288 0 .54-.024.768-.06v.708c-.156.048-.504.096-1.008.096-.936 0-1.332-.24-1.332-1.032v-4.584h-1.02v-.744zm5.348-2.424h.864v3.264h.024c.492-.552 1.14-.96 1.848-.96.924 0 1.8.48 1.8 1.824V738h-.864v-4.512c0-.828-.396-1.104-1.02-1.104-.648 0-1.392.528-1.788.948V738h-.864v-8.664zm6.392 7.596l.684-.516c.408.588 1.008.96 1.788.96.936 0 1.344-.504 1.344-1.032 0-1.584-3.696-.744-3.624-3.024.036-1.08.864-1.692 2.064-1.68.816.012 1.716.456 2.136 1.092l-.6.528c-.48-.588-.936-.876-1.608-.876-.732 0-1.128.372-1.128.924 0 1.356 3.624.66 3.624 2.988 0 1.212-1.056 1.824-2.184 1.824-.972 0-1.92-.42-2.496-1.188z"/><path fill="#48484F" d="M49.472 566.127c.37.026.66.335.66.712v145.734h221.482c.392 0 .71.32.71.714a.712.712 0 0 1-.71.713H38.548a.712.712 0 0 1-.71-.713c0-.394.318-.714.71-.714h10.164V567.427H37.71a.712.712 0 0 1-.71-.714c0-.394.318-.713.71-.713h11.357c.15 0 .29.047.405.127z"/><g><path fill="#D7D7DE" fill-rule="nonzero" d="M41 371v-2h12v2H41zm20 0v-2h12v2H61zm20 0v-2h12v2H81zm20 0v-2h12v2h-12zm20 0v-2h12v2h-12zm20 0v-2h12v2h-12zm20 0v-2h12v2h-12zm20 0v-2h12v2h-12zm20 0v-2h12v2h-12zm20 0v-2h12v2h-12zm20 0v-2h12v2h-12zm20 0v-2h3v2h-3z"/><path fill="url(#c)" fill-rule="nonzero" d="M52.797 120.834a2 2 0 0 1-1.594-3.668c18.01-7.824 28.788-11.68 32.981-11.68 1.82 0 3.543.757 5.498 2.184 1.19.868 2.403 1.922 4.807 4.063 4.219 3.666 7.115 5.267 10.52 5.267 2.25 0 5.033-1.493 8.597-4.503 1.409-1.19 2.79-2.471 4.924-4.53 4.726-4.563 5.425-5.217 7.337-6.727 2.84-2.243 5.222-3.43 7.54-3.43 3.87 0 6.035 1.432 9.944 5.393 3.19 3.235 4.655 4.202 7.096 4.202 5.782 0 12.471-5.424 19.217-14.54 1.432-1.936 8.384-12.234 9.655-14.054a174.586 174.586 0 0 1 4.68-6.424c4.304-5.6 7.868-9.242 10.98-10.82 3.782-1.916 9.066-1.664 19.223.052.57.096 1.143.195 1.941.332 9.452 1.633 12.776 2 15.22 1.38 4.326-1.096 9.031-6.46 13.843-16.216a2 2 0 0 1 3.588 1.77c-5.285 10.713-10.677 16.862-16.448 18.324-3.268.828-6.605.459-16.884-1.316l-1.926-.33c-9.162-1.547-14.075-1.782-16.748-.428-2.413 1.223-5.665 4.548-9.618 9.69-1.422 1.85-2.92 3.91-4.572 6.276-1.228 1.758-8.225 12.125-9.718 14.143-7.453 10.072-14.963 16.161-22.433 16.161-3.87 0-6.035-1.43-9.944-5.392-3.19-3.234-4.654-4.202-7.095-4.202-2.303 0-4.718 1.907-12.1 9.033-2.193 2.117-3.627 3.447-5.121 4.709-4.229 3.572-7.725 5.447-11.177 5.447-4.64 0-8.253-1.997-13.145-6.247-5.566-4.836-6.156-5.267-7.68-5.267-3.38 0-14.059 3.82-31.388 11.348z" transform="translate(0 274)"/><path fill="#2C2C36" d="M7.588 292H.784v-1.666c.308-1.582 4.984-3.822 4.984-5.67 0-.882-.574-1.4-1.498-1.4-1.008 0-1.596.672-1.82 1.596l-1.624-.35c.21-1.554 1.666-2.758 3.472-2.758 1.778 0 3.29 1.022 3.29 2.912 0 2.464-2.268 3.472-4.788 5.768h4.788V292zm4.56 0h-1.932v-1.988h1.932V292zm2.264-5.054c0-2.898 1.008-5.194 3.682-5.194s3.682 2.296 3.682 5.194-1.008 5.194-3.682 5.194-3.682-2.296-3.682-5.194zm1.82 0c0 2.758.756 3.682 1.862 3.682s1.862-.924 1.862-3.682-.756-3.682-1.862-3.682-1.862.924-1.862 3.682zM6.986 437H2.044v-1.4h1.568v-6.972H1.82v-1.176c.924-.042 1.736-.252 2.198-.7h1.414v8.848h1.554v1.4zm5.162 0h-1.932v-1.988h1.932V437zm2.264-5.054c0-2.898 1.008-5.194 3.682-5.194s3.682 2.296 3.682 5.194-1.008 5.194-3.682 5.194-3.682-2.296-3.682-5.194zm1.82 0c0 2.758.756 3.682 1.862 3.682s1.862-.924 1.862-3.682-.756-3.682-1.862-3.682-1.862.924-1.862 3.682zm36.008 18.406l-.864.192c-.216-.84-.9-1.512-2.016-1.512-1.008 0-1.608.48-1.62 1.344-.024 1.896 4.872 1.416 4.872 4.2 0 1.26-.708 2.544-2.916 2.544-1.896 0-2.64-1.224-3.096-2.256l.876-.312c.348.912.996 1.752 2.268 1.752 1.272 0 1.908-.672 1.908-1.56 0-2.208-4.872-1.56-4.872-4.296 0-1.248 1.044-2.232 2.604-2.232 1.344 0 2.4.708 2.856 2.136zm6.512 4.968l.672.348c-.408.708-.984 1.452-2.4 1.452-1.392 0-2.712-.96-2.712-3.24 0-2.016 1.008-3.24 2.544-3.24 1.296 0 2.376.84 2.376 2.832v.576h-4.056c0 1.368.816 2.328 1.848 2.328.768 0 1.368-.408 1.728-1.056zm-3.552-2.016h3.168c0-1.152-.552-1.92-1.488-1.92-1.044 0-1.608.768-1.68 1.92zm5.42 2.628l.684-.516c.408.588 1.008.96 1.788.96.936 0 1.344-.504 1.344-1.032 0-1.584-3.696-.744-3.624-3.024.036-1.08.864-1.692 2.064-1.68.816.012 1.716.456 2.136 1.092l-.6.528c-.48-.588-.936-.876-1.608-.876-.732 0-1.128.372-1.128.924 0 1.356 3.624.66 3.624 2.988 0 1.212-1.056 1.824-2.184 1.824-.972 0-1.92-.42-2.496-1.188zm5.828 0l.684-.516c.408.588 1.008.96 1.788.96.936 0 1.344-.504 1.344-1.032 0-1.584-3.696-.744-3.624-3.024.036-1.08.864-1.692 2.064-1.68.816.012 1.716.456 2.136 1.092l-.6.528c-.48-.588-.936-.876-1.608-.876-.732 0-1.128.372-1.128.924 0 1.356 3.624.66 3.624 2.988 0 1.212-1.056 1.824-2.184 1.824-.972 0-1.92-.42-2.496-1.188zM73.224 457v-6.24h.864V457h-.864zm0-8.784h.864v1.032h-.864v-1.032zm7.292 5.664c0-1.608-.66-2.496-1.692-2.496s-1.692.888-1.692 2.496.66 2.496 1.692 2.496 1.692-.888 1.692-2.496zm.864 0c0 1.8-.852 3.24-2.556 3.24-1.704 0-2.556-1.44-2.556-3.24 0-1.8.852-3.24 2.556-3.24 1.704 0 2.556 1.44 2.556 3.24zm2.012-3.12h.864v.84h.024c.492-.552 1.14-.96 1.848-.96.924 0 1.8.48 1.8 1.824V457h-.864v-4.512c0-.828-.396-1.104-1.02-1.104-.648 0-1.392.528-1.788.948V457h-.864v-6.24zm6.392 5.172l.684-.516c.408.588 1.008.96 1.788.96.936 0 1.344-.504 1.344-1.032 0-1.584-3.696-.744-3.624-3.024.036-1.08.864-1.692 2.064-1.68.816.012 1.716.456 2.136 1.092l-.6.528c-.48-.588-.936-.876-1.608-.876-.732 0-1.128.372-1.128.924 0 1.356 3.624.66 3.624 2.988 0 1.212-1.056 1.824-2.184 1.824-.972 0-1.92-.42-2.496-1.188zm11.62 3.372h-.864v-8.544h.864v.732h.024c.324-.468 1.02-.852 1.62-.852 1.104 0 2.556.744 2.556 3.24 0 2.424-1.452 3.24-2.508 3.24-.588 0-1.164-.3-1.644-.696l-.048-.024v2.904zm0-7.08v3.288c.468.516 1.056.864 1.572.864 1.008 0 1.764-.66 1.764-2.544 0-1.584-.684-2.448-1.764-2.448-.552 0-.96.24-1.572.84zm10.172 3.096l.672.348c-.408.708-.984 1.452-2.4 1.452-1.392 0-2.712-.96-2.712-3.24 0-2.016 1.008-3.24 2.544-3.24 1.296 0 2.376.84 2.376 2.832v.576H108c0 1.368.816 2.328 1.848 2.328.768 0 1.368-.408 1.728-1.056zm-3.552-2.016h3.168c0-1.152-.552-1.92-1.488-1.92-1.044 0-1.608.768-1.68 1.92zm5.972 3.696v-6.24h.864v1.236h.024c.48-.852.996-1.332 2.028-1.332v.864c-1.08.024-1.644.732-2.052 2.016V457h-.864zm9.112-8.664h.96v6.12c0 1.008.72 1.848 2.076 1.848s2.076-.84 2.076-1.848v-6.12h.96v6.048c0 1.728-1.248 2.736-3.036 2.736s-3.036-1.008-3.036-2.736v-6.048zm8.156 7.596l.684-.516c.408.588 1.008.96 1.788.96.936 0 1.344-.504 1.344-1.032 0-1.584-3.696-.744-3.624-3.024.036-1.08.864-1.692 2.064-1.68.816.012 1.716.456 2.136 1.092l-.6.528c-.48-.588-.936-.876-1.608-.876-.732 0-1.128.372-1.128.924 0 1.356 3.624.66 3.624 2.988 0 1.212-1.056 1.824-2.184 1.824-.972 0-1.92-.42-2.496-1.188zm10.46-.612l.672.348c-.408.708-.984 1.452-2.4 1.452-1.392 0-2.712-.96-2.712-3.24 0-2.016 1.008-3.24 2.544-3.24 1.296 0 2.376.84 2.376 2.832v.576h-4.056c0 1.368.816 2.328 1.848 2.328.768 0 1.368-.408 1.728-1.056zm-3.552-2.016h3.168c0-1.152-.552-1.92-1.488-1.92-1.044 0-1.608.768-1.68 1.92zm5.972 3.696v-6.24h.864v1.236h.024c.48-.852.996-1.332 2.028-1.332v.864c-1.08.024-1.644.732-2.052 2.016V457h-.864zm11.32-2.748h-3.024v-.744h3.024v.744zM166.316 457h-3.84v-.744h1.5v-7.044l-1.668.168v-.564c.6-.18 1.284-.36 1.668-.6h.864v8.04h1.476V457zm8.552-.744V457h-5.628v-.912c1.5-3.036 4.728-3.216 4.728-5.544 0-1.008-.648-1.584-1.752-1.584-1.248 0-1.896 1.008-2.04 1.884l-.852-.192c.276-1.2.984-2.436 2.916-2.436 1.416 0 2.64.816 2.64 2.304 0 2.64-3.792 3.36-4.728 5.736h4.716zm14.272.744h-.864v-7.92h-.036l-2.424 7.92h-.744l-2.436-7.92h-.036V457h-.864v-8.664h1.488l2.208 7.008h.024l2.172-7.008h1.512V457zm6.488-3.12c0-1.608-.66-2.496-1.692-2.496s-1.692.888-1.692 2.496.66 2.496 1.692 2.496 1.692-.888 1.692-2.496zm.864 0c0 1.8-.852 3.24-2.556 3.24-1.704 0-2.556-1.44-2.556-3.24 0-1.8.852-3.24 2.556-3.24 1.704 0 2.556 1.44 2.556 3.24zm2.012-3.12h.864v.84h.024c.492-.552 1.14-.96 1.848-.96.924 0 1.8.48 1.8 1.824V457h-.864v-4.512c0-.828-.396-1.104-1.02-1.104-.648 0-1.392.528-1.788.948V457h-.864v-6.24zm6.32 0h1.02v-2.052h.864v2.052h1.44v.744h-1.44v4.44c0 .288.204.432.708.432.288 0 .54-.024.768-.06v.708c-.156.048-.504.096-1.008.096-.936 0-1.332-.24-1.332-1.032v-4.584h-1.02v-.744zm5.348-2.424h.864v3.264h.024c.492-.552 1.14-.96 1.848-.96.924 0 1.8.48 1.8 1.824V457h-.864v-4.512c0-.828-.396-1.104-1.02-1.104-.648 0-1.392.528-1.788.948V457h-.864v-8.664zm6.392 7.596l.684-.516c.408.588 1.008.96 1.788.96.936 0 1.344-.504 1.344-1.032 0-1.584-3.696-.744-3.624-3.024.036-1.08.864-1.692 2.064-1.68.816.012 1.716.456 2.136 1.092l-.6.528c-.48-.588-.936-.876-1.608-.876-.732 0-1.128.372-1.128.924 0 1.356 3.624.66 3.624 2.988 0 1.212-1.056 1.824-2.184 1.824-.972 0-1.92-.42-2.496-1.188z"/><path fill="#48484F" d="M41.472 285.127c.37.026.66.335.66.712v145.734h221.482c.392 0 .71.32.71.714a.712.712 0 0 1-.71.713H30.548a.712.712 0 0 1-.71-.713c0-.394.318-.714.71-.714h10.164V286.427H29.71a.712.712 0 0 1-.71-.714c0-.394.318-.713.71-.713h11.357c.15 0 .29.047.405.127z"/></g><path fill="#2C2C36" d="M2.716 6.394V4.882c1.484 0 2.716-.21 2.716-1.414 0-.728-.616-1.204-1.456-1.204-.854 0-1.428.476-1.932 1.008L.84 2.18C1.82 1.144 2.884.752 3.92.752c1.848 0 3.332.896 3.332 2.604 0 1.008-.56 1.764-1.526 2.184 1.204.378 1.862 1.302 1.862 2.562 0 2.114-1.792 3.038-3.584 3.038-1.428 0-2.87-.672-3.57-1.96l1.456-.826c.49.826 1.162 1.274 2.128 1.274.896 0 1.75-.546 1.75-1.526 0-1.652-1.834-1.708-3.052-1.708zM11.868 11h-1.68V.892h2.716l1.946 7.056h.028l1.96-7.056h2.744V11h-1.68V3.048h-.028L15.606 11h-1.47l-2.24-7.952h-.028V11zM.588 152.946c0-2.898 1.008-5.194 3.682-5.194s3.682 2.296 3.682 5.194-1.008 5.194-3.682 5.194-3.682-2.296-3.682-5.194zm1.82 0c0 2.758.756 3.682 1.862 3.682s1.862-.924 1.862-3.682-.756-3.682-1.862-3.682-1.862.924-1.862 3.682zm9.46 5.054h-1.68v-10.108h2.716l1.946 7.056h.028l1.96-7.056h2.744V158h-1.68v-7.952h-.028L15.606 158h-1.47l-2.24-7.952h-.028V158zm31.428 9.336h.96v6.12c0 1.008.72 1.848 2.076 1.848s2.076-.84 2.076-1.848v-6.12h.96v6.048c0 1.728-1.248 2.736-3.036 2.736s-3.036-1.008-3.036-2.736v-6.048zm8.936 2.424h.864v.84h.024c.492-.552 1.14-.96 1.848-.96.924 0 1.8.48 1.8 1.824V176h-.864v-4.512c0-.828-.396-1.104-1.02-1.104-.648 0-1.392.528-1.788.948V176h-.864v-6.24zm7.34 6.24v-6.24h.864V176h-.864zm0-8.784h.864v1.032h-.864v-1.032zm8.216 11.088h-.864V175.4l-.048.024c-.48.396-1.056.696-1.644.696-1.056 0-2.508-.816-2.508-3.24 0-2.496 1.452-3.24 2.556-3.24.744 0 1.296.312 1.656.78l.156-.66h.696v8.544zm-.864-3.792v-3.288c-.612-.6-1.02-.84-1.572-.84-1.08 0-1.764.864-1.764 2.448 0 1.884.756 2.544 1.764 2.544.516 0 1.104-.348 1.572-.864zM74.948 176h-.864v-.84h-.024c-.492.552-1.14.96-1.848.96-.924 0-1.8-.48-1.8-1.824v-4.536h.864v4.512c0 .828.396 1.104 1.02 1.104.648 0 1.392-.528 1.788-.948v-4.668h.864V176zm6.488-1.68l.672.348c-.408.708-.984 1.452-2.4 1.452-1.392 0-2.712-.96-2.712-3.24 0-2.016 1.008-3.24 2.544-3.24 1.296 0 2.376.84 2.376 2.832v.576H77.86c0 1.368.816 2.328 1.848 2.328.768 0 1.368-.408 1.728-1.056zm-3.552-2.016h3.168c0-1.152-.552-1.92-1.488-1.92-1.044 0-1.608.768-1.68 1.92zM90.068 176l-2.676-8.664h.96l2.136 7.104h.024l2.148-7.104h.972L90.944 176h-.876zm5.516 0v-6.24h.864V176h-.864zm0-8.784h.864v1.032h-.864v-1.032zm2.888 7.716l.684-.516c.408.588 1.008.96 1.788.96.936 0 1.344-.504 1.344-1.032 0-1.584-3.696-.744-3.624-3.024.036-1.08.864-1.692 2.064-1.68.816.012 1.716.456 2.136 1.092l-.6.528c-.48-.588-.936-.876-1.608-.876-.732 0-1.128.372-1.128.924 0 1.356 3.624.66 3.624 2.988 0 1.212-1.056 1.824-2.184 1.824-.972 0-1.92-.42-2.496-1.188zm6.776 1.068v-6.24h.864V176h-.864zm0-8.784h.864v1.032h-.864v-1.032zm2.816 2.544h1.02v-2.052h.864v2.052h1.44v.744h-1.44v4.44c0 .288.204.432.708.432.288 0 .54-.024.768-.06v.708c-.156.048-.504.096-1.008.096-.936 0-1.332-.24-1.332-1.032v-4.584h-1.02v-.744zm8.972 3.12c0-1.608-.66-2.496-1.692-2.496s-1.692.888-1.692 2.496.66 2.496 1.692 2.496 1.692-.888 1.692-2.496zm.864 0c0 1.8-.852 3.24-2.556 3.24-1.704 0-2.556-1.44-2.556-3.24 0-1.8.852-3.24 2.556-3.24 1.704 0 2.556 1.44 2.556 3.24zm1.784 3.12v-6.24h.864v1.236h.024c.48-.852.996-1.332 2.028-1.332v.864c-1.08.024-1.644.732-2.052 2.016V176h-.864zm3.944-1.068l.684-.516c.408.588 1.008.96 1.788.96.936 0 1.344-.504 1.344-1.032 0-1.584-3.696-.744-3.624-3.024.036-1.08.864-1.692 2.064-1.68.816.012 1.716.456 2.136 1.092l-.6.528c-.48-.588-.936-.876-1.608-.876-.732 0-1.128.372-1.128.924 0 1.356 3.624.66 3.624 2.988 0 1.212-1.056 1.824-2.184 1.824-.972 0-1.92-.42-2.496-1.188zm13.204-1.68h-3.024v-.744h3.024v.744zM147.684 176h-3.84v-.744h1.5v-7.044l-1.668.168v-.564c.6-.18 1.284-.36 1.668-.6h.864v8.04h1.476V176zm8.552-.744V176h-5.628v-.912c1.5-3.036 4.728-3.216 4.728-5.544 0-1.008-.648-1.584-1.752-1.584-1.248 0-1.896 1.008-2.04 1.884l-.852-.192c.276-1.2.984-2.436 2.916-2.436 1.416 0 2.64.816 2.64 2.304 0 2.64-3.792 3.36-4.728 5.736h4.716zm14.272.744h-.864v-7.92h-.036l-2.424 7.92h-.744l-2.436-7.92h-.036V176h-.864v-8.664h1.488l2.208 7.008h.024l2.172-7.008h1.512V176zm6.488-3.12c0-1.608-.66-2.496-1.692-2.496s-1.692.888-1.692 2.496.66 2.496 1.692 2.496 1.692-.888 1.692-2.496zm.864 0c0 1.8-.852 3.24-2.556 3.24-1.704 0-2.556-1.44-2.556-3.24 0-1.8.852-3.24 2.556-3.24 1.704 0 2.556 1.44 2.556 3.24zm2.012-3.12h.864v.84h.024c.492-.552 1.14-.96 1.848-.96.924 0 1.8.48 1.8 1.824V176h-.864v-4.512c0-.828-.396-1.104-1.02-1.104-.648 0-1.392.528-1.788.948V176h-.864v-6.24zm6.32 0h1.02v-2.052h.864v2.052h1.44v.744h-1.44v4.44c0 .288.204.432.708.432.288 0 .54-.024.768-.06v.708c-.156.048-.504.096-1.008.096-.936 0-1.332-.24-1.332-1.032v-4.584h-1.02v-.744zm5.348-2.424h.864v3.264h.024c.492-.552 1.14-.96 1.848-.96.924 0 1.8.48 1.8 1.824V176h-.864v-4.512c0-.828-.396-1.104-1.02-1.104-.648 0-1.392.528-1.788.948V176h-.864v-8.664zm6.392 7.596l.684-.516c.408.588 1.008.96 1.788.96.936 0 1.344-.504 1.344-1.032 0-1.584-3.696-.744-3.624-3.024.036-1.08.864-1.692 2.064-1.68.816.012 1.716.456 2.136 1.092l-.6.528c-.48-.588-.936-.876-1.608-.876-.732 0-1.128.372-1.128.924 0 1.356 3.624.66 3.624 2.988 0 1.212-1.056 1.824-2.184 1.824-.972 0-1.92-.42-2.496-1.188z"/><path fill="url(#d)" fill-rule="nonzero" d="M182.274 137.377c1.547-6.205 2.034-8.772 5.887-30.093 2.47-13.67 4.048-21.506 5.806-28.1C196.5 69.68 198.79 65 202.439 65c3.053 0 4.838 3.058 6.535 8.932 1.142 3.954 2.07 8.492 3.635 17.177l.526 2.931c2.92 16.246 4.746 23.335 7.065 25.481 1.947 1.803 3.228 3.918 3.994 6.35.629 1.995.807 3.42 1.021 6.718.194 2.98.318 3.272.916 3.272 2.908 0 10.009-4.93 20.51-14.652a2 2 0 0 1 2.718 2.935c-11.368 10.524-18.847 15.717-23.228 15.717-1.996 0-3.441-.956-4.17-2.669-.454-1.067-.589-2.054-.738-4.344-.193-2.976-.345-4.19-.844-5.775-.565-1.792-1.482-3.307-2.897-4.616-3.328-3.081-5.08-9.886-8.284-27.71l-.526-2.929c-1.538-8.544-2.45-13.002-3.541-16.776-.646-2.237-1.29-3.91-1.92-4.99-.468-.802-.767-1.052-.772-1.052-.112 0-.773.698-1.592 2.372-.973 1.986-1.977 4.95-3.015 8.843-1.72 6.452-3.285 14.22-5.735 27.78-3.879 21.464-4.362 24.015-5.941 30.35-1.568 6.29-2.673 8.9-4.765 9.353-1.652.356-2.662-.62-3.405-2.191-.403-.852-.766-1.984-1.174-3.56-.3-1.154-1.378-5.794-1.362-5.727-1.21-5.043-2.301-7.9-3.22-8.468-1.856-1.145-3.923-2.06-7.7-3.509l-1.419-.543c-4.783-1.832-7.118-2.903-9.245-4.478-1.291-.956-2.56-2.817-4.271-5.955a156.924 156.924 0 0 1-2.216-4.258c-.257-.506-1.185-2.348-1.16-2.297a389.94 389.94 0 0 0-1.19-2.34c-2.918-5.686-5.035-9.212-7.054-11.436-1.244-1.37-2.267-2.003-2.966-2.003-.66 0-1.797 1.278-3.073 4.119-1.28 2.85-2.549 6.856-4.105 12.74-.724 2.737-3.275 12.9-3.399 13.385-2.163 8.458-3.86 14.2-5.785 19.102-2.821 7.181-5.044 10.526-7.904 11.46-1.32.432-2.622.315-4.088-.215a18.116 18.116 0 0 1-1.72-.745c-.153-.073-1.333-.654-1.692-.824-2.384-1.13-4.231-1.659-6.505-1.659-3.021 0-5.214.11-8.481.369l-1.267.101c-.487.039-.877.069-1.254.096-4.767.342-8.55.24-14.774-.583-9.05-1.197-15.652-4.864-19.64-11.018a2 2 0 1 1 3.356-2.175c3.302 5.094 8.849 8.175 16.809 9.228 5.95.787 9.462.881 13.963.558.366-.026.747-.056 1.224-.093l1.266-.101c3.364-.267 5.655-.382 8.798-.382 2.96 0 5.345.682 8.219 2.045 3.803 1.803 3.855 1.822 4.543 1.597 1.297-.424 3.033-3.036 5.424-9.121 1.849-4.71 3.508-10.323 5.633-18.631.118-.463 2.675-10.651 3.407-13.417 3.712-14.032 6.32-19.836 11.045-19.836 2.074 0 4 1.19 5.928 3.315 2.332 2.57 4.574 6.302 7.651 12.298 6.92 13.482 6.402 12.53 7.658 13.461 1.732 1.283 3.862 2.26 8.296 3.958l1.421.544c4.002 1.536 6.235 2.523 8.368 3.84 2.271 1.401 3.482 4.57 5.008 10.938-.005-.02 1.06 4.56 1.345 5.657.095.368.187.705.275 1.013.398-1.138.836-2.659 1.315-4.58z" transform="translate(0 -7)"/><path fill="#48484F" d="M41.472 4.127c.37.026.66.335.66.712v145.734h221.482c.392 0 .71.32.71.714a.712.712 0 0 1-.71.713H30.548a.712.712 0 0 1-.71-.713c0-.394.318-.714.71-.714h10.164V5.427H29.71a.712.712 0 0 1-.71-.714c0-.394.318-.713.71-.713h11.357c.15 0 .29.047.405.127z"/></g></svg>