<svg xmlns="http://www.w3.org/2000/svg" width="322" height="98"><g fill="none" fill-rule="evenodd"><path fill="#8B949B" d="M9.473 36.016H3.018L1.553 40H.293l5.38-14.219h1.143L12.197 40h-1.25l-1.474-3.984zM3.389 34.99h5.703L6.24 27.246 3.39 34.99zm15.245 4.219c.371 0 .728-.054 1.07-.161.341-.108.646-.265.913-.474a2.461 2.461 0 0 0 .957-1.836h1.123a3.284 3.284 0 0 1-.376 1.387c-.225.423-.521.788-.889 1.094a4.172 4.172 0 0 1-1.274.718c-.482.172-.99.258-1.524.258-.742 0-1.393-.135-1.953-.405a4.024 4.024 0 0 1-1.411-1.118 4.888 4.888 0 0 1-.86-1.675 7.202 7.202 0 0 1-.288-2.075v-.41c0-.742.097-1.434.289-2.075a4.883 4.883 0 0 1 .854-1.67 4.04 4.04 0 0 1 1.411-1.119c.563-.273 1.213-.41 1.948-.41.567 0 1.093.088 1.578.264.485.176.908.426 1.27.752.36.325.649.72.863 1.186.215.466.336.985.362 1.558h-1.123a3.124 3.124 0 0 0-.279-1.152 2.75 2.75 0 0 0-.634-.87 2.733 2.733 0 0 0-.918-.551 3.24 3.24 0 0 0-1.119-.19c-.605 0-1.118.117-1.538.35-.42.235-.763.551-1.03.948-.267.397-.46.853-.581 1.367a7.045 7.045 0 0 0-.18 1.612v.41c0 .566.06 1.108.18 1.626.12.517.313.973.576 1.367.264.394.609.708 1.035.942.427.235.943.352 1.548.352zm11.017 0c.371 0 .728-.054 1.07-.161.341-.108.646-.265.913-.474a2.461 2.461 0 0 0 .957-1.836h1.123a3.284 3.284 0 0 1-.376 1.387c-.225.423-.521.788-.889 1.094a4.172 4.172 0 0 1-1.274.718c-.482.172-.99.258-1.524.258-.742 0-1.393-.135-1.953-.405a4.024 4.024 0 0 1-1.411-1.118 4.888 4.888 0 0 1-.86-1.675 7.202 7.202 0 0 1-.287-2.075v-.41c0-.742.096-1.434.288-2.075a4.883 4.883 0 0 1 .854-1.67 4.04 4.04 0 0 1 1.411-1.119c.563-.273 1.213-.41 1.948-.41.567 0 1.093.088 1.578.264.485.176.908.426 1.27.752.36.325.649.72.863 1.186.215.466.336.985.362 1.558H32.59a3.124 3.124 0 0 0-.279-1.152 2.75 2.75 0 0 0-.634-.87 2.733 2.733 0 0 0-.918-.551 3.24 3.24 0 0 0-1.119-.19c-.605 0-1.118.117-1.538.35-.42.235-.763.551-1.03.948-.267.397-.46.853-.581 1.367a7.045 7.045 0 0 0-.18 1.612v.41c0 .566.06 1.108.18 1.626.12.517.313.973.576 1.367.264.394.609.708 1.035.942.427.235.943.352 1.548.352zm11.203.986c-.69 0-1.325-.128-1.905-.385a4.46 4.46 0 0 1-1.499-1.075 4.938 4.938 0 0 1-.981-1.635 5.936 5.936 0 0 1-.352-2.08v-.42c0-.814.123-1.551.367-2.212.244-.661.574-1.224.99-1.69a4.445 4.445 0 0 1 1.441-1.079 4.024 4.024 0 0 1 1.724-.38c.67 0 1.266.12 1.787.36.52.241.959.577 1.314 1.006.354.43.623.941.805 1.534.182.592.274 1.24.274 1.943v.713h-7.54v.225c0 .579.088 1.124.264 1.635.176.511.423.956.742 1.333.32.378.7.676 1.143.894.443.218.934.327 1.475.327.625 0 1.176-.114 1.655-.342.478-.228.913-.592 1.304-1.094l.732.557c-.176.254-.38.495-.61.723-.231.228-.5.426-.806.595-.306.17-.651.303-1.035.4a5.237 5.237 0 0 1-1.29.147zm-.215-9.96a2.973 2.973 0 0 0-2.231.976c-.29.312-.528.688-.713 1.128-.186.44-.311.926-.376 1.46h6.338v-.127a4.715 4.715 0 0 0-.215-1.284c-.13-.414-.321-.78-.572-1.099a2.816 2.816 0 0 0-.932-.767c-.371-.192-.804-.288-1.299-.288zm8.283-.801l.039 1.806c.182-.3.392-.573.63-.82a3.834 3.834 0 0 1 2.817-1.182c.527 0 1 .072 1.416.215.417.143.77.371 1.06.684.29.312.51.714.664 1.206.153.491.23 1.085.23 1.782V40h-1.163v-6.885c0-.547-.059-1.002-.176-1.367-.117-.365-.283-.658-.498-.879a1.812 1.812 0 0 0-.786-.473 3.52 3.52 0 0 0-1.03-.142c-.417 0-.795.07-1.133.21-.339.14-.638.327-.899.561a3.74 3.74 0 0 0-.673.806 4.626 4.626 0 0 0-.45.933V40h-1.162V29.434h1.114zm12.403-2.705v2.705h2.188v.957h-2.188v7.04c0 .372.038.67.113.894.075.225.175.4.302.528a.942.942 0 0 0 .44.253c.166.043.34.064.522.064.176 0 .345-.011.508-.034.163-.023.31-.044.44-.064l.048.957c-.143.052-.33.093-.561.122a5.47 5.47 0 0 1-.689.044 3.1 3.1 0 0 1-.922-.132 1.654 1.654 0 0 1-.728-.454c-.202-.214-.36-.5-.474-.854-.114-.355-.17-.796-.17-1.323V30.39H58.21v-.957h1.943v-2.705h1.172zM5.967 63.535l4.346-7.754h1.386l-5.136 8.867V70H5.36v-5.352L.234 55.781H1.66l4.307 7.754zm14.005 3.78c0-.215-.037-.43-.112-.645a1.54 1.54 0 0 0-.42-.61c-.205-.192-.492-.372-.86-.538-.367-.166-.844-.31-1.43-.434a12.34 12.34 0 0 1-1.568-.43 4.511 4.511 0 0 1-1.162-.59 2.334 2.334 0 0 1-.717-.826c-.163-.319-.245-.693-.245-1.123 0-.39.087-.762.26-1.113.172-.352.42-.658.741-.918.323-.26.713-.467 1.172-.62a4.88 4.88 0 0 1 1.548-.23c.612 0 1.16.08 1.646.24.485.159.895.38 1.23.664.335.283.59.616.767 1 .175.385.263.801.263 1.25h-1.171c0-.273-.06-.54-.181-.8-.12-.26-.296-.49-.528-.689a2.728 2.728 0 0 0-.859-.483 3.416 3.416 0 0 0-1.167-.186c-.456 0-.845.056-1.167.166a2.4 2.4 0 0 0-.79.43 1.634 1.634 0 0 0-.592 1.25c0 .234.036.448.108.64.071.192.21.37.415.537.205.166.491.319.86.459.367.14.847.278 1.44.415.638.15 1.188.316 1.65.498.462.182.845.399 1.147.65.303.25.528.536.674.859.147.322.22.695.22 1.118 0 .436-.091.835-.273 1.196-.183.361-.443.67-.782.928a3.807 3.807 0 0 1-1.23.6 5.644 5.644 0 0 1-1.612.215c-.67 0-1.263-.086-1.777-.258a3.984 3.984 0 0 1-1.299-.699 2.939 2.939 0 0 1-.796-1.01 2.758 2.758 0 0 1-.268-1.187h1.172c.026.417.133.763.322 1.04s.423.498.703.664c.28.166.59.285.933.357a4.92 4.92 0 0 0 1.01.107 3.99 3.99 0 0 0 1.172-.156 2.72 2.72 0 0 0 .855-.42c.231-.176.405-.378.522-.606a1.54 1.54 0 0 0 .176-.713zm3.869-2.754c0-.769.112-1.478.337-2.13a5.044 5.044 0 0 1 .952-1.684c.41-.472.905-.841 1.484-1.108.58-.267 1.224-.4 1.934-.4.722 0 1.375.133 1.958.4.582.267 1.079.636 1.489 1.108.41.472.726 1.034.947 1.685.222.65.332 1.36.332 2.129v.322c0 .768-.11 1.478-.332 2.129a4.979 4.979 0 0 1-.947 1.684c-.41.472-.905.84-1.484 1.104-.58.263-1.228.395-1.944.395s-1.364-.132-1.943-.395a4.351 4.351 0 0 1-1.49-1.104 4.998 4.998 0 0 1-.956-1.684 6.488 6.488 0 0 1-.337-2.13v-.321zm1.172.322c0 .58.078 1.131.234 1.655.156.524.384.983.684 1.377.299.394.67.708 1.113.942.443.235.95.352 1.523.352s1.08-.117 1.519-.352c.44-.234.809-.548 1.108-.942.3-.394.528-.853.684-1.377a5.763 5.763 0 0 0 .234-1.655v-.322c0-.567-.078-1.112-.234-1.636a4.322 4.322 0 0 0-.684-1.382 3.363 3.363 0 0 0-1.118-.952c-.446-.238-.955-.357-1.528-.357-.567 0-1.07.12-1.51.357-.439.237-.808.555-1.107.952-.3.397-.528.858-.684 1.382a5.695 5.695 0 0 0-.234 1.636v.322zm19.894-.059c0 .794-.09 1.52-.269 2.178-.18.658-.441 1.222-.786 1.694a3.68 3.68 0 0 1-1.27 1.104c-.501.263-1.07.395-1.709.395-.774 0-1.437-.146-1.987-.44a3.784 3.784 0 0 1-1.353-1.2L37.485 70H36.39V55h1.162v5.967a3.764 3.764 0 0 1 1.338-1.275c.54-.302 1.195-.454 1.963-.454.644 0 1.217.127 1.719.381a3.6 3.6 0 0 1 1.274 1.084c.348.469.612 1.034.791 1.694.179.661.269 1.402.269 2.222v.205zm-1.172-.205c0-.612-.059-1.185-.176-1.719a4.222 4.222 0 0 0-.552-1.386 2.774 2.774 0 0 0-.962-.923c-.39-.225-.86-.337-1.406-.337-.443 0-.833.06-1.172.18a2.93 2.93 0 0 0-1.504 1.177c-.17.26-.306.53-.41.81v4.767a3.9 3.9 0 0 0 .464.786 2.977 2.977 0 0 0 1.533 1.054c.329.101.698.152 1.108.152.528 0 .985-.111 1.373-.332.387-.222.708-.528.961-.918.254-.39.442-.852.562-1.382.12-.53.18-1.105.18-1.724v-.205zm8.556 5.576c-.69 0-1.325-.128-1.905-.385a4.46 4.46 0 0 1-1.499-1.075 4.938 4.938 0 0 1-.981-1.635 5.936 5.936 0 0 1-.352-2.08v-.42c0-.814.122-1.551.367-2.212.244-.661.574-1.224.99-1.69a4.445 4.445 0 0 1 1.441-1.079 4.024 4.024 0 0 1 1.724-.38c.67 0 1.266.12 1.787.36.52.241.959.577 1.313 1.006.355.43.624.941.806 1.534.182.592.274 1.24.274 1.943v.713h-7.54v.225c0 .579.088 1.124.264 1.635.176.511.423.956.742 1.333.32.378.7.676 1.143.894.443.218.934.327 1.475.327.625 0 1.176-.114 1.655-.342.478-.228.913-.592 1.304-1.094l.732.557c-.176.254-.38.495-.61.723-.232.228-.5.426-.806.595-.306.17-.651.303-1.035.4a5.237 5.237 0 0 1-1.29.147zm-.215-9.96a2.973 2.973 0 0 0-2.232.976c-.29.312-.527.688-.712 1.128-.186.44-.311.926-.376 1.46h6.337v-.127a4.715 4.715 0 0 0-.214-1.284c-.13-.414-.321-.78-.572-1.099a2.816 2.816 0 0 0-.932-.767c-.371-.192-.804-.288-1.3-.288zM60.554 70h-1.172V55h1.172v15zm9.739 0V55.781h3.975c.885 0 1.7.153 2.446.46a5.49 5.49 0 0 1 1.924 1.308 6.004 6.004 0 0 1 1.255 2.04c.3.795.449 1.68.449 2.657v1.299c0 .976-.15 1.862-.45 2.656-.299.794-.719 1.473-1.26 2.036a5.54 5.54 0 0 1-1.943 1.304c-.755.306-1.588.459-2.5.459h-3.896zm1.201-13.193v12.177h2.695c.762 0 1.449-.131 2.061-.395a4.422 4.422 0 0 0 1.562-1.113c.43-.479.76-1.052.992-1.72.23-.666.346-1.404.346-2.211v-1.328c0-.82-.117-1.564-.351-2.232a4.919 4.919 0 0 0-.991-1.704 4.397 4.397 0 0 0-1.538-1.089c-.6-.257-1.267-.385-2.002-.385h-2.774zM85.138 70h-1.172V59.434h1.172V70zm-1.377-13.623c0-.221.072-.409.215-.562.143-.153.339-.23.586-.23.247 0 .444.077.59.23.147.153.22.34.22.562a.765.765 0 0 1-.22.557c-.146.15-.343.224-.59.224-.247 0-.443-.075-.586-.224a.774.774 0 0 1-.215-.557zm11.593 10.937c0-.214-.037-.43-.112-.644a1.54 1.54 0 0 0-.42-.61c-.205-.192-.491-.372-.86-.538-.367-.166-.844-.31-1.43-.434a12.34 12.34 0 0 1-1.567-.43 4.511 4.511 0 0 1-1.162-.59 2.334 2.334 0 0 1-.718-.826c-.163-.319-.244-.693-.244-1.123 0-.39.086-.762.258-1.113.173-.352.42-.658.743-.918.322-.26.713-.467 1.172-.62a4.88 4.88 0 0 1 1.547-.23c.612 0 1.16.08 1.646.24.485.159.895.38 1.23.664.336.283.591.616.767 1 .176.385.264.801.264 1.25h-1.172c0-.273-.06-.54-.18-.8-.121-.26-.297-.49-.528-.689a2.728 2.728 0 0 0-.86-.483 3.416 3.416 0 0 0-1.167-.186c-.455 0-.844.056-1.167.166a2.4 2.4 0 0 0-.79.43 1.634 1.634 0 0 0-.591 1.25c0 .234.035.448.107.64s.21.37.415.537c.205.166.492.319.86.459.367.14.847.278 1.44.415.638.15 1.188.316 1.65.498.462.182.845.399 1.148.65.302.25.527.536.674.859.146.322.22.695.22 1.118 0 .436-.092.835-.274 1.196-.183.361-.443.67-.781.928a3.807 3.807 0 0 1-1.23.6 5.644 5.644 0 0 1-1.612.215c-.67 0-1.263-.086-1.778-.258a3.984 3.984 0 0 1-1.298-.699 2.939 2.939 0 0 1-.796-1.01 2.758 2.758 0 0 1-.269-1.187h1.172c.026.417.133.763.322 1.04.19.277.423.498.703.664.28.166.591.285.933.357a4.92 4.92 0 0 0 1.01.107 3.99 3.99 0 0 0 1.173-.156 2.72 2.72 0 0 0 .854-.42c.231-.176.405-.378.523-.606a1.54 1.54 0 0 0 .175-.713zm13.01-2.49c0 .794-.09 1.52-.269 2.178-.179.658-.441 1.222-.786 1.694-.345.472-.767.84-1.265 1.104-.498.263-1.066.395-1.704.395-.755 0-1.408-.135-1.958-.405a3.745 3.745 0 0 1-1.362-1.118v5.39h-1.162V59.434h1.084l.058 1.494c.358-.528.81-.941 1.358-1.24.547-.3 1.198-.45 1.953-.45.644 0 1.219.127 1.723.381.505.254.93.615 1.275 1.084.345.469.607 1.034.786 1.694.179.661.269 1.402.269 2.222v.205zm-1.172-.205c0-.612-.064-1.185-.19-1.719a4.316 4.316 0 0 0-.577-1.386 2.83 2.83 0 0 0-.981-.923c-.397-.225-.863-.337-1.397-.337-.423 0-.797.055-1.123.166a2.99 2.99 0 0 0-.854.444c-.245.186-.453.4-.625.645-.173.244-.315.5-.425.766v5.069c.124.267.278.514.464.742.185.228.403.425.654.59.25.167.535.297.854.391.32.095.678.142 1.075.142.534 0 .996-.112 1.386-.337.391-.225.715-.534.972-.928s.45-.857.576-1.391a7.46 7.46 0 0 0 .19-1.729v-.205zM112.974 70h-1.172V55h1.172v15zm10.558 0a3.357 3.357 0 0 1-.151-.669 9.256 9.256 0 0 1-.073-.806 4.152 4.152 0 0 1-1.436 1.172 4.701 4.701 0 0 1-2.148.498 4.15 4.15 0 0 1-1.402-.224c-.42-.15-.778-.36-1.074-.63a2.846 2.846 0 0 1-.932-2.144c0-.514.11-.978.332-1.391a3.01 3.01 0 0 1 .957-1.055c.416-.29.922-.511 1.518-.664a8.078 8.078 0 0 1 2.007-.23h2.168v-1.2c0-.756-.233-1.35-.698-1.783-.466-.433-1.144-.65-2.036-.65-.41 0-.788.056-1.133.167a2.86 2.86 0 0 0-.894.459 2.18 2.18 0 0 0-.586.678 1.7 1.7 0 0 0-.21.826l-1.172-.01c0-.397.098-.781.293-1.153.196-.37.47-.701.826-.99.354-.29.78-.523 1.279-.699a4.946 4.946 0 0 1 1.655-.264c.56 0 1.076.072 1.548.215.472.143.877.358 1.216.645.338.286.602.644.79 1.074.19.43.284.93.284 1.504v5.117c0 .182.007.371.02.566.013.196.034.384.063.567.03.182.064.356.103.522.039.166.084.311.136.435V70h-1.25zm-3.672-.84c.424 0 .816-.054 1.177-.161.362-.107.689-.256.982-.444.293-.19.547-.409.761-.66a3.32 3.32 0 0 0 .518-.815v-2.324h-2.002a7.27 7.27 0 0 0-1.606.161c-.472.107-.871.262-1.197.464a2.19 2.19 0 0 0-.747.737c-.172.29-.259.617-.259.982 0 .286.056.555.166.805.111.25.269.469.474.655.205.185.454.332.747.439.293.107.622.161.986.161zm11.633-.84l3.086-8.886h1.26l-4.473 12.255c-.091.241-.207.512-.347.811-.14.3-.322.58-.547.84-.224.26-.504.48-.84.659-.335.18-.743.269-1.225.269-.065 0-.14-.005-.225-.015a6.783 6.783 0 0 1-.254-.034 3.97 3.97 0 0 1-.42-.088l-.01-.967c.079.013.185.026.318.04a2.59 2.59 0 0 0 1.118-.103c.241-.082.451-.202.63-.362.18-.16.337-.36.474-.6.136-.241.26-.518.37-.83l.509-1.397-3.985-10.478h1.28l3.28 8.886z"/><path fill="#222" d="M224.125 96v-3.188L235 91.126l-8.625-24.938h-31.313l-8.875 24.938 10.75 1.688V96H173v-3.188l7.438-1.687 32.25-90.5h3.875l32 90.5 8.062 1.688V96h-32.5zm-13.063-74.75l-14 39.438H224.5L211.062 21.25zM302.438 97v-7.125c-1.083 1-2.26 1.98-3.53 2.938a27.154 27.154 0 0 1-4.22 2.593 24.995 24.995 0 0 1-5 1.844c-1.791.458-3.729.688-5.812.688-2.833 0-5.333-.417-7.5-1.25-2.167-.834-4-2-5.5-3.5s-2.635-3.292-3.406-5.376c-.771-2.083-1.157-4.354-1.157-6.812 0-2.833.428-5.292 1.282-7.375.854-2.083 2.041-3.875 3.562-5.375s3.365-2.77 5.531-3.813c2.167-1.041 4.563-1.947 7.188-2.718a92.022 92.022 0 0 1 8.469-2.032c3.02-.583 6.156-1.187 9.406-1.812v-7.063c0-5.375-.906-9.24-2.719-11.593-1.812-2.354-4.74-3.532-8.781-3.532-1.583 0-3.042.178-4.375.532a22.327 22.327 0 0 0-3.625 1.281c-1.083.5-2.031 1.042-2.844 1.625-.812.583-1.469 1.104-1.969 1.563 1.292.833 2.303 1.843 3.032 3.03.729 1.188 1.093 2.449 1.093 3.782 0 2.042-.624 3.635-1.875 4.781C278.437 53.427 276.875 54 275 54c-2.125 0-3.781-.698-4.969-2.094-1.187-1.396-1.781-3.218-1.781-5.468s.625-4.313 1.875-6.188 2.948-3.5 5.094-4.875c2.146-1.375 4.656-2.448 7.531-3.219 2.875-.77 5.937-1.156 9.187-1.156 3.584 0 6.75.406 9.5 1.219 2.75.812 5.063 2.093 6.938 3.843s3.292 3.99 4.25 6.72c.958 2.728 1.437 6.01 1.437 9.843v38.5l7.688 1.563V96l-19.313 1zm-.687-34.438c-4.083.834-7.562 1.667-10.438 2.5-2.875.834-5.218 1.875-7.03 3.126-1.813 1.25-3.147 2.843-4 4.78-.855 1.938-1.282 4.407-1.282 7.407 0 1.625.208 3.115.625 4.469.417 1.354 1.031 2.52 1.844 3.5a8.66 8.66 0 0 0 3 2.312c1.187.563 2.573.844 4.156.844 1.125 0 2.292-.177 3.5-.531a17.84 17.84 0 0 0 3.531-1.469 22.42 22.42 0 0 0 3.313-2.219 17.553 17.553 0 0 0 2.781-2.781V62.562z"/></g></svg>