<svg xmlns="http://www.w3.org/2000/svg" width="300" height="139"><g fill="none" fill-rule="evenodd"><path fill="#303032" fill-opacity=".5" d="M14.591 58.74l13.425 7.561v22.1l18.093 9.888v15.703L14.59 95.38V58.74zm78.794 6.98l12.84-6.98-.583 37.222-31.517 17.448V99.452l19.26-11.632v-22.1zm-65.37-30.243l32.102-18.61 32.685 18.61-13.425 7.56-19.26-10.468-19.261 10.469-12.84-7.561z"/><path fill="#FFF" fill-rule="nonzero" d="M45.817 59.777V47.366L27.15 36.58a1.161 1.161 0 0 1-.001-2.012l32.674-18.925c.363-.21.81-.21 1.173 0L93.7 34.586c.775.449.774 1.565-.002 2.012L75 47.366v12.411l42.32-24.304L60.409 2.509 3.498 35.473l42.32 24.304zm-1.132 2.035L2.335 37.49v65.364l56.906 32.961V86.422l-11.09 6.744v21.444c0 .897-.976 1.457-1.754 1.005L14.004 96.82a1.162 1.162 0 0 1-.58-1.006V58.16c0-.898.978-1.457 1.756-1.004l12.747 7.419c.28.049.525.197.698.407l5.37 3.125 10.69-6.294zm2.324 1.335L28.89 73.814v12.444L58.071 69.5l-11.062-6.353zm1.143-2.029l11.09 6.369V33.811l-11.09 6.375v20.932zm43.774 25.14V73.814l-18.112-10.67L62.746 69.5l29.18 16.758zm-1.148 2.026L61.576 71.513V83.65l18.493 10.947 10.71-6.313zM.598 34.461L59.822.158c.363-.21.81-.21 1.173 0L120.22 34.46a1.16 1.16 0 0 1 .598 1.036v68.026c0 .414-.221.797-.58 1.006l-59.242 34.313c-.362.21-.81.21-1.173 0L.58 104.53A1.162 1.162 0 0 1 0 103.523V35.497a1.16 1.16 0 0 1 .598-1.036zm104.46 59.34V60.17l-10.797 6.293v21.135l10.797 6.201zm-1.162 2.017l-10.795-6.2L75 100.288v12.274l28.896-16.744zM76.136 61.81l10.685 6.294 18.815-10.965a1.167 1.167 0 0 1 1.757 1.004v37.67c0 .415-.221.798-.58 1.006l-32.393 18.77a1.167 1.167 0 0 1-1.755-1.005V92.92l-11.09-6.564v49.46l56.907-32.962V37.49L76.137 61.81zM30.053 88.277l11.081 6.432 18.108-11.012V71.513L30.052 88.277zm42.613-27.159V40.186l-11.09-6.375v33.676l11.09-6.369zm-55.745 34.7l28.897 16.769V100.12L27.721 89.616 16.92 95.819zM15.759 93.8l10.797-6.2V66.47L15.76 60.187V93.8zM59.24 18.67L30.06 35.573l10.697 6.18L59.24 31.125V18.67zm2.335 0v12.455l18.496 10.633 10.713-6.17-29.21-16.918zM31.694 69.46l-2.803-1.631v3.282l2.803-1.65zm14.123-27.933l-2.731 1.57 2.731 1.579v-3.149zm43.304 27.93l2.805 1.653v-3.287l-2.805 1.635zM75 44.68l2.738-1.576L75 41.528v3.151zm0 49.623v3.282l2.778-1.637L75 94.302zm-29.183.284l-2.39 1.454 2.39 1.388v-2.842zm94.973-.368V52.204c0-3.21.817-5.526 2.451-6.945 1.634-1.419 3.619-2.128 5.954-2.128h.42l21.292.837v2.024h-21.292c-3.97 0-5.954 2.07-5.954 6.212v15.214l24.444.488v2.024l-24.444.489v23.799h-2.871zm41.801-8.794V43.13h2.872v42.293c0 2.652.724 4.327 2.171 5.025 1.168.605 2.662.907 4.483.907h20.1v2.862h-20.1c-2.662 0-4.81-.466-6.444-1.396-2.054-1.163-3.082-3.63-3.082-7.398zm36.69-13.54V43.132h2.87v28.754c0 4.792.328 8.595.981 11.41.654 2.815 1.821 4.804 3.502 5.967 1.681 1.164 3.187 1.862 4.518 2.094 1.33.233 3.467.35 6.408.35h.07c5.37 0 8.895-.931 10.576-2.793 2.101-2.326 3.409-5.304 3.922-8.933.327-2.326.49-5.025.49-8.095V43.13h2.942v28.754c0 7.35-.934 12.655-2.801 15.912-.654 1.116-1.273 2.059-1.856 2.826-.584.768-1.366 1.408-2.347 1.92-.98.511-1.809.895-2.486 1.151-.677.256-1.6.454-2.766.593-1.541.186-2.895.28-4.063.28H236.3c-.794 0-1.53-.012-2.207-.035a51.934 51.934 0 0 1-2.871-.21c-1.238-.116-2.183-.302-2.837-.558-.653-.256-1.47-.651-2.451-1.187-.98-.535-1.74-1.174-2.276-1.919-.537-.744-1.133-1.686-1.786-2.826-.654-1.14-1.144-2.455-1.471-3.943-.747-3.77-1.12-7.77-1.12-12.004zm46.143-28.753h3.362l13.798 23.1 14.007-23.1h3.362l-15.478 25.543 15.128 25.544h-3.362l-13.657-22.822-13.588 22.822h-3.362l15.059-25.544-15.269-25.543z"/></g></svg>