<svg xmlns="http://www.w3.org/2000/svg" width="300" height="139"><g fill="none" fill-rule="evenodd"><path fill="#303032" fill-opacity=".25" d="M16 58.874l13.424 7.561v22.1l18.094 9.888v15.703L16 95.515v-36.64zm78.794 6.98l12.84-6.98-.583 37.222-31.518 17.448V99.586l19.26-11.632v-22.1zM29.424 35.61L61.525 17 94.21 35.61l-13.424 7.562-19.26-10.47-19.261 10.47-12.84-7.561z"/><path fill="#39393B" fill-rule="nonzero" d="M45.817 59.777V47.366L27.15 36.58a1.161 1.161 0 0 1-.001-2.012l32.674-18.925c.363-.21.81-.21 1.173 0L93.7 34.586c.776.449.774 1.565-.002 2.012L75 47.366v12.411l42.32-24.304L60.409 2.509 3.498 35.473l42.32 24.304zm-1.132 2.035L2.335 37.49v65.364l56.906 32.961V86.422l-11.09 6.744v21.444c0 .897-.976 1.457-1.754 1.005L14.004 96.82a1.162 1.162 0 0 1-.58-1.006V58.16c0-.898.978-1.457 1.756-1.004l12.747 7.419c.28.049.525.197.698.407l5.37 3.125 10.69-6.294zm2.324 1.335L28.89 73.814v12.444L58.071 69.5 47.01 63.147zm1.143-2.029l11.09 6.369V33.811l-11.09 6.375v20.932zm43.774 25.14V73.814l-18.112-10.67L62.746 69.5l29.18 16.758zm-1.147 2.026L61.576 71.513V83.65L80.07 94.597l10.71-6.313zM.599 34.461L59.821.158c.363-.21.81-.21 1.173 0L120.22 34.46a1.16 1.16 0 0 1 .598 1.036v68.026c0 .414-.22.797-.58 1.006l-59.242 34.313c-.362.21-.81.21-1.173 0L.581 104.53a1.162 1.162 0 0 1-.58-1.006V35.497a1.16 1.16 0 0 1 .598-1.036zm104.46 59.34V60.17L94.26 66.464v21.135l10.798 6.201zm-1.163 2.017l-10.795-6.2-18.1 10.67v12.274l28.895-16.744zM76.136 61.81l10.686 6.294 18.815-10.965a1.167 1.167 0 0 1 1.756 1.004v37.67c0 .415-.22.798-.58 1.006l-32.393 18.77a1.167 1.167 0 0 1-1.754-1.005V92.92l-11.09-6.564v49.46l56.907-32.962V37.49L76.137 61.81zM30.053 88.277l11.082 6.432L59.24 83.697V71.513L30.052 88.277zm42.614-27.159V40.186l-11.09-6.375v33.676l11.09-6.369zm-55.746 34.7l28.897 16.769V100.12L27.721 89.616l-10.8 6.203zM15.76 93.8l10.798-6.2V66.47l-10.798-6.284V93.8zm43.482-75.13L30.06 35.573l10.697 6.18L59.24 31.125V18.67zm2.335 0v12.455l18.496 10.633 10.713-6.17L61.576 18.67zM31.695 69.46L28.89 67.83v3.282l2.804-1.65zm14.122-27.933l-2.731 1.57 2.731 1.579v-3.149zm43.304 27.93l2.805 1.653v-3.287l-2.805 1.635zM75.001 44.68l2.737-1.576L75 41.528v3.151zm0 49.623v3.282l2.778-1.637L75 94.302zm-29.184.284l-2.39 1.454 2.39 1.388v-2.842zm94.973-.368V52.204c0-3.21.817-5.526 2.451-6.945 1.635-1.419 3.62-2.128 5.954-2.128h.42l21.292.837v2.024h-21.292c-3.969 0-5.953 2.07-5.953 6.212v15.214l24.443.488v2.024l-24.443.489v23.799h-2.872zm41.802-8.794V43.13h2.871v42.293c0 2.652.724 4.327 2.171 5.025 1.168.605 2.662.907 4.483.907h20.101v2.862h-20.101c-2.662 0-4.81-.466-6.444-1.396-2.054-1.163-3.081-3.63-3.081-7.398zm36.688-13.54V43.132h2.872v28.754c0 4.792.327 8.595.98 11.41.654 2.815 1.821 4.804 3.502 5.967 1.681 1.164 3.187 1.862 4.518 2.094 1.33.233 3.467.35 6.409.35h.07c5.37 0 8.894-.931 10.575-2.793 2.102-2.326 3.409-5.304 3.923-8.933.326-2.326.49-5.025.49-8.095V43.13h2.942v28.754c0 7.35-.934 12.655-2.802 15.912-.654 1.116-1.272 2.059-1.856 2.826-.584.768-1.366 1.408-2.346 1.92-.98.511-1.81.895-2.487 1.151s-1.599.454-2.766.593c-1.541.186-2.895.28-4.063.28H236.3c-.794 0-1.53-.012-2.206-.035a51.934 51.934 0 0 1-2.872-.21c-1.237-.116-2.183-.302-2.837-.558-.653-.256-1.47-.651-2.451-1.187-.98-.535-1.74-1.174-2.276-1.919-.537-.744-1.133-1.686-1.786-2.826-.654-1.14-1.144-2.455-1.471-3.943-.747-3.77-1.12-7.77-1.12-12.004zm46.144-28.753h3.362l13.798 23.1 14.008-23.1h3.362l-15.48 25.543 15.13 25.544h-3.363l-13.657-22.822-13.588 22.822h-3.362l15.059-25.544-15.269-25.543z"/></g></svg>