<svg xmlns="http://www.w3.org/2000/svg" width="295" height="240"><g fill="none" fill-rule="evenodd"><g transform="translate(260)"><ellipse cx="17.5" cy="119.5" fill="#F66486" rx="17.5" ry="17.631"/><ellipse cx="17.5" cy="170.631" fill="#8CD9E9" rx="17.5" ry="17.631"/><circle cx="18" cy="171" r="2" fill="#FFF"/><ellipse cx="17.5" cy="17.631" fill="#679CFB" rx="17.5" ry="17.631"/><ellipse cx="17.5" cy="68.631" fill="#F56B9A" rx="17.5" ry="17.631"/><circle cx="18" cy="69" r="2" fill="#FFF"/><ellipse cx="17.5" cy="221.369" fill="#FFF" rx="17.5" ry="17.631"/></g><g transform="translate(216.635)"><circle cx="17.595" cy="119.595" r="17.595" fill="#F56B9A"/><circle cx="18" cy="120" r="2" fill="#FFF"/><circle cx="17.595" cy="170.085" r="17.595" fill="#8ADFDF"/><circle cx="17.595" cy="17.595" r="17.595" fill="#749CFA"/><circle cx="17.595" cy="68.425" r="17.595" fill="#FC8D82"/><circle cx="17.595" cy="220.915" r="17.595" fill="#FCFCFD"/></g><g transform="translate(173.27 8.798)"><circle cx="17.595" cy="110.458" r="8.798" fill="#F56FA8"/><circle cx="17.595" cy="161.288" r="8.798" fill="#88E2D9"/><circle cx="17.595" cy="8.798" r="8.798" fill="#7B9BFA"/><circle cx="17.595" cy="59.628" r="8.798" fill="#FD9D75"/><circle cx="17.595" cy="212.118" r="17.095" fill="#EDEDF2" stroke="#979797"/></g><g transform="translate(129.905)"><circle cx="17.595" cy="119.255" r="17.595" fill="#F575B6"/><circle cx="17.595" cy="170.085" r="17.595" fill="#87E6D3"/><circle cx="17.595" cy="17.595" r="17.595" fill="#849BFA"/><circle cx="17.595" cy="68.425" r="17.595" fill="#FDAA6A"/></g><g transform="translate(86.54 8.798)"><circle cx="17.595" cy="110.458" r="8.798" fill="#F57AC5"/><circle cx="17.595" cy="161.288" r="8.798" fill="#86EACD"/><circle cx="17.595" cy="212.118" r="17.595" fill="#E3E4E8" stroke="#979797"/><circle cx="17.595" cy="8.798" r="8.798" fill="#8D9CFA"/><circle cx="17.595" cy="59.628" r="8.798" fill="#FDB760"/></g><g transform="translate(43.175)"><circle cx="17.595" cy="119.255" r="17.595" fill="#F57FD4"/><circle cx="17.595" cy="170.085" r="17.595" fill="#84EEC6"/><circle cx="17.595" cy="220.915" r="17.595" fill="#9BA0AD"/><circle cx="17.595" cy="17.595" r="17.595" fill="#A29BF9"/><circle cx="18" cy="18" r="2" fill="#FFF"/><circle cx="17.595" cy="68.425" r="17.595" fill="#FDC652"/></g><ellipse cx="17.5" cy="119.5" fill="#F486E7" rx="17.5" ry="17.631"/><ellipse cx="17.5" cy="170.434" fill="#82F4BD" rx="17.5" ry="17.631"/><ellipse cx="17.5" cy="17.631" fill="#A29BF9" rx="17.5" ry="17.631"/><ellipse cx="17.5" cy="68.566" fill="#FDDD3E" rx="17.5" ry="17.631"/><ellipse cx="17.5" cy="221.369" fill="#060F24" rx="17.5" ry="17.631"/></g></svg>