<svg xmlns="http://www.w3.org/2000/svg" width="156" height="180"><g fill="none" fill-rule="evenodd"><path fill="#4BB0F8" d="M0 0h156v180H0z"/><path fill="#FAFAFF" d="M15.724 145v-10.4h1.44V145h-1.44zm0-14.64h1.44v1.72h-1.44v-1.72zm5.53 4.24h1.44v1.4h.04c.82-.92 1.9-1.6 3.08-1.6 1.54 0 3 .8 3 3.04V145h-1.44v-7.52c0-1.38-.66-1.84-1.7-1.84-1.08 0-2.32.88-2.98 1.58V145h-1.44v-10.4zm13.33 10.4h-1.44v-9.16h-1.76v-1.24h1.76v-1.18c0-2.46.84-3.06 2.54-3.06.42 0 .86.06 1.28.1v1.28c-.34-.04-.72-.14-1.04-.14-.98 0-1.34.32-1.34 1.48v1.52h2.26v1.24h-2.26V145zm10.99-5.2c0-2.68-1.1-4.16-2.82-4.16-1.72 0-2.82 1.48-2.82 4.16s1.1 4.16 2.82 4.16c1.72 0 2.82-1.48 2.82-4.16zm1.44 0c0 3-1.42 5.4-4.26 5.4s-4.26-2.4-4.26-5.4c0-3 1.42-5.4 4.26-5.4s4.26 2.4 4.26 5.4zm2.39 5.2v-10.4h1.44v2.06h.04c.8-1.42 1.66-2.22 3.38-2.22v1.44c-1.8.04-2.74 1.22-3.42 3.36V145h-1.44zm8.59 0h-1.44v-10.4h1.44v1.38l.08-.08c.88-.98 2.02-1.5 3.02-1.5 1.34 0 2.28.68 2.66 1.64.92-.98 2.08-1.64 3.3-1.64 1.38 0 2.86.58 2.86 3.16V145h-1.44v-7.44c0-1.4-.7-1.92-1.62-1.92-1.28 0-2.12.84-2.9 1.6V145h-1.44v-7.44c0-1.4-.7-1.92-1.62-1.92-1.28 0-2.12.84-2.9 1.6V145zm16.23-7.74l-1.26-.66c.66-1.2 1.94-2.2 3.9-2.2 1.76 0 3.6.84 3.6 3.12v5.24c0 1.14.1 1.7.24 2.24h-1.48l-.16-1.44c-.72.8-1.88 1.64-3.44 1.64-1.6 0-2.96-.96-2.96-2.86 0-2.28 1.74-3.42 6.36-4.24v-.56c0-1.38-.9-1.9-2.14-1.9-1.6 0-2.38.92-2.66 1.62zm4.8 4.98v-2.86c-3.3.58-4.92 1.54-4.92 2.98 0 .96.92 1.6 1.72 1.6 1.04 0 2.36-.76 3.2-1.72zm3.41-7.64h1.7v-3.42h1.44v3.42h2.4v1.24h-2.4v7.4c0 .48.34.72 1.18.72.48 0 .9-.04 1.28-.1v1.18c-.26.08-.84.16-1.68.16-1.56 0-2.22-.4-2.22-1.72v-7.64h-1.7v-1.24zm8.61 10.4v-10.4h1.44V145h-1.44zm0-14.64h1.44v1.72h-1.44v-1.72zm11.57 9.44c0-2.68-1.1-4.16-2.82-4.16-1.72 0-2.82 1.48-2.82 4.16s1.1 4.16 2.82 4.16c1.72 0 2.82-1.48 2.82-4.16zm1.44 0c0 3-1.42 5.4-4.26 5.4s-4.26-2.4-4.26-5.4c0-3 1.42-5.4 4.26-5.4s4.26 2.4 4.26 5.4zm2.77-5.2h1.44v1.4h.04c.82-.92 1.9-1.6 3.08-1.6 1.54 0 3 .8 3 3.04V145h-1.44v-7.52c0-1.38-.66-1.84-1.7-1.84-1.08 0-2.32.88-2.98 1.58V145h-1.44v-10.4z"/></g></svg>