<svg xmlns="http://www.w3.org/2000/svg" width="343" height="106"><path d="M25.455 91.358c0 2.114-.23 4.024-.688 5.73-.46 1.705-1.185 3.152-2.177 4.338-.991 1.187-2.286 2.095-3.884 2.726-1.598.63-3.554.945-5.868.945-1.433 0-2.828-.166-4.188-.5-1.359-.334-2.58-.853-3.664-1.558a9.175 9.175 0 0 1-2.7-2.697c-.716-1.094-1.129-2.402-1.24-3.922h3.472c.184 1.075.542 1.975 1.074 2.698a6.458 6.458 0 0 0 1.929 1.752c.753.445 1.589.77 2.507.973.918.204 1.855.306 2.81.306 3.232 0 5.565-.927 6.997-2.78 1.433-1.855 2.15-4.525 2.15-8.01v-3.894h-.111c-.808 1.78-1.993 3.207-3.554 4.283-1.56 1.075-3.388 1.613-5.482 1.613-2.278 0-4.224-.38-5.84-1.14-1.617-.76-2.948-1.808-3.995-3.143-1.047-1.335-1.81-2.902-2.287-4.7C.24 82.577 0 80.66 0 78.62c0-1.965.285-3.829.854-5.59.57-1.761 1.396-3.3 2.48-4.617 1.083-1.316 2.424-2.355 4.022-3.115 1.597-.76 3.425-1.14 5.482-1.14a9.89 9.89 0 0 1 3.003.445c.936.297 1.79.714 2.562 1.251.771.538 1.46 1.16 2.066 1.864a8.516 8.516 0 0 1 1.405 2.225h.11v-4.95h3.471v26.365zm-12.617-.945c1.506 0 2.828-.325 3.967-.974a9.063 9.063 0 0 0 2.865-2.559c.771-1.056 1.35-2.27 1.736-3.643.385-1.372.578-2.781.578-4.227 0-1.41-.165-2.819-.496-4.228a12.272 12.272 0 0 0-1.598-3.838 8.693 8.693 0 0 0-2.837-2.781c-1.157-.705-2.562-1.057-4.215-1.057s-3.067.343-4.243 1.029a9.079 9.079 0 0 0-2.92 2.698c-.771 1.112-1.331 2.382-1.68 3.81a18.324 18.324 0 0 0-.524 4.367c0 1.446.184 2.855.551 4.227.367 1.372.937 2.587 1.708 3.643a8.875 8.875 0 0 0 2.92 2.56c1.176.648 2.572.973 4.188.973zM35.18 73.78c.11-1.669.46-3.115 1.047-4.339.588-1.224 1.387-2.225 2.397-3.004 1.01-.778 2.195-1.353 3.554-1.724 1.359-.37 2.865-.556 4.518-.556 1.249 0 2.498.12 3.746.361 1.25.241 2.37.696 3.361 1.363.992.668 1.8 1.604 2.425 2.81.624 1.204.936 2.771.936 4.7v15.24c0 1.41.68 2.114 2.04 2.114.403 0 .77-.074 1.101-.222v2.948c-.404.074-.762.13-1.074.167-.313.037-.707.055-1.185.055-.882 0-1.589-.12-2.121-.361-.533-.241-.946-.584-1.24-1.03-.294-.444-.487-.973-.578-1.584a13.738 13.738 0 0 1-.138-2.03h-.11a23.389 23.389 0 0 1-1.901 2.475 9.471 9.471 0 0 1-2.15 1.807c-.789.482-1.689.853-2.699 1.113-1.01.26-2.213.39-3.609.39A14.1 14.1 0 0 1 39.781 94c-1.157-.315-2.167-.815-3.03-1.501-.864-.686-1.543-1.558-2.04-2.615-.495-1.057-.743-2.308-.743-3.754 0-2.003.44-3.57 1.322-4.7.882-1.132 2.048-1.994 3.5-2.587 1.45-.594 3.085-1.01 4.903-1.252 1.818-.24 3.664-.473 5.537-.695a20.03 20.03 0 0 0 1.929-.278c.55-.111 1.01-.306 1.377-.584.368-.278.652-.659.854-1.14.202-.483.303-1.113.303-1.892 0-1.186-.193-2.16-.578-2.92a4.604 4.604 0 0 0-1.598-1.808c-.68-.445-1.47-.75-2.37-.918-.9-.167-1.863-.25-2.892-.25-2.204 0-4.004.528-5.4 1.585-1.395 1.057-2.13 2.754-2.204 5.09h-3.47zm18.513 4.227h-.11c-.22.408-.643.705-1.267.89a12.83 12.83 0 0 1-1.653.39c-1.47.26-2.985.491-4.546.695-1.56.204-2.984.51-4.27.918-1.285.408-2.342.992-3.168 1.752-.826.76-1.24 1.845-1.24 3.254 0 .89.175 1.678.524 2.364.349.686.817 1.28 1.405 1.78.587.5 1.267.88 2.038 1.14a7.38 7.38 0 0 0 2.37.39c1.322 0 2.59-.204 3.801-.612 1.213-.408 2.269-1.001 3.169-1.78a8.632 8.632 0 0 0 2.148-2.837c.533-1.112.8-2.373.8-3.782v-4.562zM73.06 64.992V56.37h-3.47v8.622h-4.96v2.948h4.96v19.636c-.038 2.447.403 4.125 1.321 5.034.919.908 2.535 1.363 4.85 1.363.513 0 1.028-.019 1.542-.056a21.443 21.443 0 0 1 1.543-.056v-2.948a26.67 26.67 0 0 1-2.976.167c-1.249-.074-2.03-.436-2.341-1.085-.313-.649-.469-1.548-.469-2.697V67.94h5.786v-2.948H73.06zm34.685 12.349a12.768 12.768 0 0 0-.69-3.838 10.536 10.536 0 0 0-1.79-3.254 8.89 8.89 0 0 0-2.81-2.28c-1.102-.576-2.35-.863-3.746-.863-1.433 0-2.7.287-3.802.862a8.89 8.89 0 0 0-2.81 2.28c-.772.946-1.387 2.04-1.846 3.283a16.214 16.214 0 0 0-.91 3.81h18.404zm-18.403 2.948c0 1.26.174 2.568.523 3.922.35 1.353.91 2.568 1.68 3.643a9.654 9.654 0 0 0 2.921 2.67c1.175.704 2.59 1.057 4.243 1.057 2.534 0 4.518-.668 5.95-2.003 1.433-1.335 2.424-3.115 2.975-5.34h3.472c-.735 3.264-2.085 5.785-4.05 7.565-1.965 1.78-4.748 2.67-8.347 2.67-2.241 0-4.179-.398-5.813-1.196-1.635-.797-2.966-1.89-3.995-3.282-1.028-1.39-1.79-3.003-2.287-4.839-.495-1.835-.743-3.773-.743-5.813 0-1.89.248-3.745.743-5.562.496-1.817 1.259-3.44 2.287-4.867 1.029-1.428 2.36-2.577 3.995-3.449 1.634-.871 3.572-1.307 5.813-1.307 2.277 0 4.224.463 5.84 1.39 1.616.928 2.93 2.142 3.94 3.644 1.01 1.502 1.735 3.226 2.176 5.173a22.91 22.91 0 0 1 .55 5.924H89.343zm54.024 11.07c0 2.113-.23 4.023-.689 5.729-.46 1.705-1.185 3.152-2.176 4.338-.992 1.187-2.287 2.095-3.885 2.726-1.598.63-3.554.945-5.868.945-1.432 0-2.828-.166-4.187-.5-1.36-.334-2.58-.853-3.664-1.558a9.175 9.175 0 0 1-2.7-2.697c-.716-1.094-1.13-2.402-1.24-3.922h3.471c.184 1.075.542 1.975 1.075 2.698a6.458 6.458 0 0 0 1.928 1.752c.753.445 1.589.77 2.507.973.919.204 1.855.306 2.81.306 3.233 0 5.565-.927 6.998-2.78 1.432-1.855 2.149-4.525 2.149-8.01v-3.894h-.11c-.809 1.78-1.993 3.207-3.555 4.283-1.56 1.075-3.388 1.613-5.482 1.613-2.277 0-4.224-.38-5.84-1.14-1.616-.76-2.948-1.808-3.995-3.143-1.047-1.335-1.809-2.902-2.286-4.7-.478-1.8-.717-3.718-.717-5.758 0-1.965.285-3.829.854-5.59.57-1.761 1.396-3.3 2.48-4.617 1.083-1.316 2.424-2.355 4.022-3.115 1.598-.76 3.425-1.14 5.482-1.14a9.89 9.89 0 0 1 3.003.445c.937.297 1.79.714 2.562 1.251.772.538 1.46 1.16 2.066 1.864a8.516 8.516 0 0 1 1.405 2.225h.11v-4.95h3.472v26.365zm-12.618-.946c1.506 0 2.829-.325 3.967-.974a9.063 9.063 0 0 0 2.865-2.559c.772-1.056 1.35-2.27 1.736-3.643.386-1.372.579-2.781.579-4.227 0-1.41-.166-2.819-.496-4.228a12.272 12.272 0 0 0-1.598-3.838 8.693 8.693 0 0 0-2.838-2.781c-1.157-.705-2.562-1.057-4.215-1.057s-3.067.343-4.242 1.029a9.079 9.079 0 0 0-2.92 2.698c-.772 1.112-1.332 2.382-1.681 3.81a18.324 18.324 0 0 0-.523 4.367c0 1.446.183 2.855.55 4.227.368 1.372.937 2.587 1.709 3.643a8.875 8.875 0 0 0 2.92 2.56c1.175.648 2.571.973 4.187.973zm22.673-25.42v28.701h3.471V78.398c0-1.52.257-2.92.772-4.2a9.671 9.671 0 0 1 2.176-3.31 9.66 9.66 0 0 1 3.334-2.141c1.285-.5 2.718-.714 4.297-.64v-3.504c-2.571-.111-4.784.463-6.64 1.724-1.854 1.261-3.222 3.06-4.104 5.396h-.11v-6.73h-3.196zm31.82 2.113c-1.654 0-3.104.352-4.353 1.057a9.586 9.586 0 0 0-3.113 2.781c-.827 1.15-1.451 2.457-1.874 3.922a16.081 16.081 0 0 0-.633 4.477c0 1.52.21 3.013.633 4.478.423 1.465 1.047 2.772 1.874 3.922a9.586 9.586 0 0 0 3.113 2.78c1.249.705 2.7 1.058 4.352 1.058 1.653 0 3.104-.353 4.353-1.057a9.586 9.586 0 0 0 3.113-2.781c.827-1.15 1.451-2.457 1.874-3.922.422-1.465.633-2.957.633-4.478 0-1.52-.211-3.013-.633-4.477-.423-1.465-1.047-2.772-1.874-3.922a9.586 9.586 0 0 0-3.113-2.781c-1.249-.705-2.7-1.057-4.353-1.057zm0-2.948c2.167 0 4.086.408 5.757 1.224 1.671.815 3.076 1.91 4.215 3.281 1.139 1.373 2.002 2.976 2.59 4.812.588 1.836.881 3.792.881 5.868 0 2.077-.293 4.033-.881 5.869-.588 1.835-1.451 3.44-2.59 4.811-1.139 1.372-2.544 2.457-4.215 3.254-1.671.798-3.59 1.196-5.758 1.196-2.167 0-4.086-.398-5.757-1.196-1.672-.797-3.077-1.882-4.215-3.254-1.14-1.372-2.002-2.976-2.59-4.811-.588-1.836-.882-3.792-.882-5.869 0-2.076.294-4.032.882-5.868.588-1.836 1.45-3.44 2.59-4.812 1.138-1.372 2.543-2.466 4.215-3.281 1.671-.816 3.59-1.224 5.757-1.224zm45.097 29.536V64.992h-3.47v15.074c0 1.447-.166 2.865-.497 4.256-.33 1.39-.845 2.623-1.542 3.699a8.226 8.226 0 0 1-2.645 2.586c-1.065.65-2.351.974-3.857.974-2.755 0-4.693-.668-5.813-2.003s-1.717-3.3-1.79-5.896v-18.69h-3.472v18.634c0 1.706.184 3.227.551 4.562.367 1.335.946 2.466 1.736 3.393.79.927 1.818 1.64 3.085 2.141 1.268.5 2.801.751 4.601.751 2.13 0 4.068-.51 5.813-1.53s3.076-2.493 3.994-4.422h.11v5.173h3.196zm10-28.702h3.196v5.451h.11c.809-2.002 2.122-3.55 3.94-4.644 1.818-1.094 3.885-1.641 6.199-1.641 2.167 0 4.05.408 5.647 1.224a11.611 11.611 0 0 1 3.995 3.31c1.065 1.39 1.855 3.003 2.37 4.839.513 1.835.77 3.773.77 5.812 0 2.04-.257 3.978-.77 5.813-.515 1.836-1.305 3.449-2.37 4.84a11.334 11.334 0 0 1-3.995 3.281c-1.598.798-3.48 1.196-5.647 1.196-1.029 0-2.057-.13-3.086-.39a10.841 10.841 0 0 1-2.865-1.167 9.464 9.464 0 0 1-2.342-1.947 8.316 8.316 0 0 1-1.57-2.726h-.11v16.02h-3.471v-39.27zm22.756 14.351a19.02 19.02 0 0 0-.523-4.422c-.35-1.465-.9-2.772-1.653-3.921a9.141 9.141 0 0 0-2.893-2.81c-1.175-.722-2.59-1.084-4.242-1.084-1.91 0-3.508.334-4.794 1.001-1.286.668-2.314 1.558-3.085 2.67-.772 1.113-1.314 2.41-1.626 3.894a22.638 22.638 0 0 0-.468 4.672c0 1.484.174 2.958.523 4.423.35 1.464.919 2.771 1.708 3.921.79 1.15 1.819 2.086 3.086 2.81 1.267.722 2.819 1.084 4.656 1.084 1.653 0 3.067-.362 4.242-1.085a9.141 9.141 0 0 0 2.893-2.809c.753-1.15 1.304-2.457 1.653-3.921a19.02 19.02 0 0 0 .523-4.423zM298.99 39.07l19.943 13.023-12.378 10.966-22.006-16.45 14.441-7.54zm-45.386-11.652l24.756 3.427 2.063 14.394-26.819-2.742v-15.08zm19.255-14.394l-19.942-4.798V.685l19.254 3.428.688 8.91zm27.507-3.427l15.816 1.37 5.501 8.911-17.879-2.056-3.438-8.225zm13.753 26.046l19.942 2.741L343 52.777l-21.318-2.741-7.564-14.394zm0-8.225l9.627-6.169 16.504 9.596-5.501 5.483-20.63-8.91zm-46.074-8.225l-17.191 6.854-15.817-12.338 17.88-3.427 15.128 8.91zm6.19-15.08L283.86 0l14.44 8.568-9.627 4.455-14.44-8.91z" fill="#2C2C36" fill-rule="evenodd"/></svg>