<svg xmlns="http://www.w3.org/2000/svg" width="294" height="88"><g fill="none" fill-rule="evenodd"><path fill="#8B949B" d="M3.72 32.2h4.82l-2.4-7.56H6.1L3.72 32.2zM.5 38l4.62-14.44h2.02L11.7 38h-1.4l-1.46-4.72H3.38L1.9 38H.5zm15.274 0h-1.2V27.6h1.2v1.64c1.12-1.16 2.04-1.84 3.56-1.84 2.16 0 3.08 1.24 3.08 3.5V38h-1.2v-6.98c0-1.72-.52-2.66-2.12-2.66-1.28 0-2 .78-3.32 1.98V38zM34.05 23.56V38h-.84l-.2-1.36c-.76 1.08-1.92 1.56-3.34 1.56-2.7 0-4.18-1.92-4.18-5.46 0-3.06 1.68-5.34 4.1-5.34 1.4 0 2.24.48 3.26 1.56v-5.4h1.2zm-1.2 11.78v-5.12c-.4-.7-1.76-1.86-2.94-1.86-2.16 0-3.22 1.9-3.22 4.6 0 2.4.96 4.28 3.04 4.28 1.48 0 2.34-.82 3.12-1.9zM39.363 38h-1.2V27.6h1.2v1.98h.04c.56-1.28 1.68-2.18 3-2.18h.54v1.16h-.54c-1.32 0-3.04 1.56-3.04 3.56V38zm9.614-9.64c-2.14 0-3.08 1.62-3.08 4.44 0 2.82.94 4.44 3.08 4.44s3.08-1.62 3.08-4.44c0-2.82-.94-4.44-3.08-4.44zm0-.96c3.24 0 4.28 2.58 4.28 5.4 0 2.82-1.04 5.4-4.28 5.4s-4.28-2.58-4.28-5.4c0-2.82 1.04-5.4 4.28-5.4zm8.534.2V38h-1.2V27.6h1.2zm0-2.28h-1.2v-1.76h1.2v1.76zm11.615-1.76V38h-.84l-.2-1.36c-.76 1.08-1.92 1.56-3.34 1.56-2.7 0-4.18-1.92-4.18-5.46 0-3.06 1.68-5.34 4.1-5.34 1.4 0 2.24.48 3.26 1.56v-5.4h1.2zm-1.2 11.78v-5.12c-.4-.7-1.76-1.86-2.94-1.86-2.16 0-3.22 1.9-3.22 4.6 0 2.4.96 4.28 3.04 4.28 1.48 0 2.34-.82 3.12-1.9zM3.32 54.64v5.68h3.56c1.92 0 3.12-1.06 3.12-2.84 0-1.78-1.04-2.84-3.12-2.84H3.32zm5 6.52L11.86 68h-1.44l-3.36-6.6H3.32V68H2V53.56h4.88c2.84 0 4.44 1.56 4.44 3.92 0 1.9-.94 3.16-3 3.68zm10.734-2.8c-2.14 0-3.08 1.62-3.08 4.44 0 2.82.94 4.44 3.08 4.44s3.08-1.62 3.08-4.44c0-2.82-.94-4.44-3.08-4.44zm0-.96c3.24 0 4.28 2.58 4.28 5.4 0 2.82-1.04 5.4-4.28 5.4s-4.28-2.58-4.28-5.4c0-2.82 1.04-5.4 4.28-5.4zM26.61 68V53.56h1.2v5.4c1.02-1.08 1.86-1.56 3.26-1.56 2.42 0 4.1 2.28 4.1 5.34 0 3.54-1.48 5.46-4.18 5.46-1.42 0-2.58-.48-3.34-1.56l-.2 1.36h-.84zm1.2-7.78v5.12c.78 1.08 1.64 1.9 3.12 1.9 2.08 0 3.04-1.88 3.04-4.28 0-2.7-1.06-4.6-3.22-4.6-1.18 0-2.54 1.16-2.94 1.86zm13.794-1.86c-2.14 0-3.08 1.62-3.08 4.44 0 2.82.94 4.44 3.08 4.44s3.08-1.62 3.08-4.44c0-2.82-.94-4.44-3.08-4.44zm0-.96c3.24 0 4.28 2.58 4.28 5.4 0 2.82-1.04 5.4-4.28 5.4s-4.28-2.58-4.28-5.4c0-2.82 1.04-5.4 4.28-5.4zm5.914.2h1.56v-3.4h1.2v3.4h2.28v.96h-2.28v7.62c0 .7.32 1.06 1.06 1.06.4 0 .84-.1 1.22-.22v1c-.4.06-.82.18-1.22.18-1.7 0-2.26-.56-2.26-1.82v-7.82h-1.56v-.96zm11.074.76c-2.14 0-3.08 1.62-3.08 4.44 0 2.82.94 4.44 3.08 4.44s3.08-1.62 3.08-4.44c0-2.82-.94-4.44-3.08-4.44zm0-.96c3.24 0 4.28 2.58 4.28 5.4 0 2.82-1.04 5.4-4.28 5.4s-4.28-2.58-4.28-5.4c0-2.82 1.04-5.4 4.28-5.4z"/><path fill="#222" d="M209.012 63.734H173.27L165.242 86h-11.601L186.219.687h9.844L228.698 86h-11.543l-8.144-22.266zm-32.344-9.257h29.004L191.14 14.574l-14.473 39.903zM282.625 86c-.39-.781-.703-1.768-.938-2.959a51.201 51.201 0 0 1-.585-3.72 28.87 28.87 0 0 1-3.428 3.017 24.553 24.553 0 0 1-4.16 2.52 23.685 23.685 0 0 1-4.893 1.699c-1.758.41-3.613.615-5.566.615-3.243 0-6.182-.488-8.819-1.465-2.636-.977-4.882-2.305-6.738-3.984a17.553 17.553 0 0 1-4.307-5.948c-1.015-2.285-1.523-4.736-1.523-7.353 0-3.399.664-6.397 1.992-8.994 1.328-2.598 3.233-4.776 5.713-6.533 2.48-1.758 5.479-3.086 8.994-3.985 3.516-.898 7.442-1.347 11.778-1.347h10.78v-4.981c0-3.79-1.132-6.807-3.398-9.053-2.265-2.246-5.605-3.369-10.02-3.369-2.03 0-3.886.274-5.566.82-1.68.547-3.115 1.28-4.306 2.198-1.192.918-2.12 1.982-2.783 3.193-.665 1.211-.997 2.48-.997 3.809h-10.898c0-2.266.596-4.512 1.787-6.739 1.192-2.226 2.881-4.228 5.069-6.005 2.187-1.778 4.833-3.223 7.939-4.336 3.105-1.114 6.572-1.67 10.4-1.67 3.438 0 6.612.44 9.522 1.318 2.91.879 5.4 2.207 7.47 3.984 2.07 1.778 3.692 3.995 4.864 6.65 1.172 2.657 1.758 5.763 1.758 9.317v29.473c0 2.148.185 4.404.556 6.767.371 2.364.928 4.405 1.67 6.124V86h-11.367zm-17.988-8.262c1.953 0 3.789-.273 5.508-.82 1.718-.547 3.28-1.26 4.687-2.139 1.406-.879 2.627-1.884 3.662-3.017 1.035-1.133 1.846-2.305 2.432-3.516V55.238h-9.024c-6.21 0-10.996.967-14.355 2.9-3.36 1.934-5.04 4.854-5.04 8.76 0 1.524.255 2.95.763 4.278a8.965 8.965 0 0 0 2.314 3.428c1.035.957 2.305 1.718 3.809 2.285 1.503.566 3.252.85 5.244.85z"/></g></svg>