<svg xmlns="http://www.w3.org/2000/svg" width="289" height="81"><g fill="none" fill-rule="evenodd"><path fill="#8B949B" d="M2.82 26.6V37h-1.2V26.6h1.2zm0-2.28h-1.2v-1.76h1.2v1.76zm8.994-1.96c3.62 0 5.7 3.16 5.7 7.42s-2.08 7.42-5.7 7.42-5.7-3.16-5.7-7.42 2.08-7.42 5.7-7.42zm0 13.76c2.66 0 4.38-2.28 4.38-6.34 0-4.06-1.72-6.34-4.38-6.34s-4.38 2.28-4.38 6.34c0 4.06 1.72 6.34 4.38 6.34zm8.035-2.78l1.22-.38c.56 2.2 1.84 3.16 4.12 3.16 1.8 0 2.88-1.14 2.88-2.88 0-3.88-7.82-2.36-7.82-7.14 0-2.14 1.48-3.74 4.16-3.74 2.28 0 3.96 1.24 4.62 3.46l-1.14.34c-.52-1.6-1.64-2.72-3.48-2.72-1.68 0-2.84.96-2.84 2.66 0 .98.28 1.68 2.94 2.68 4.06 1.52 4.88 2.52 4.88 4.6 0 2.46-2.06 3.82-4.4 3.82-2.76 0-4.34-1.22-5.14-3.86zM.64 63.34l1.22-.38c.56 2.2 1.84 3.16 4.12 3.16 1.8 0 2.88-1.14 2.88-2.88 0-3.88-7.82-2.36-7.82-7.14 0-2.14 1.48-3.74 4.16-3.74 2.28 0 3.96 1.24 4.62 3.46l-1.14.34c-.52-1.6-1.64-2.72-3.48-2.72-1.68 0-2.84.96-2.84 2.66 0 .98.28 1.68 2.94 2.68 4.06 1.52 4.88 2.52 4.88 4.6 0 2.46-2.06 3.82-4.4 3.82-2.76 0-4.34-1.22-5.14-3.86zM20.314 67h-1.16l-.16-1.26c-1.24.98-2.18 1.46-3.78 1.46-1.62 0-2.86-1-2.86-2.72 0-2.84 2.32-3.36 6.66-4.32v-.72c0-1.38-.6-2.08-2.38-2.08-1.24 0-2.26.68-3.02 1.88l-.8-.48c.9-1.68 2.18-2.36 3.86-2.36 2.36 0 3.48.96 3.48 3.26v5.44c0 .52.04 1.2.16 1.9zm-1.36-2.48v-3.4c-4.76 1.04-5.4 2.02-5.4 3.34 0 1.14.78 1.78 1.86 1.78 1.12 0 2.5-.66 3.54-1.72zM25.39 67h-1.2V56.6h1.2v1.64c1.12-1.16 2.04-1.84 3.56-1.84 2.16 0 3.08 1.24 3.08 3.5V67h-1.2v-6.98c0-1.72-.52-2.66-2.12-2.66-1.28 0-2 .78-3.32 1.98V67zm18.588 0h-1.32V52.56h8.48v1.08h-7.16v5.32h5.22v1.08h-5.22V67zm11.274 0h-1.2V56.6h1.2v1.98h.04c.56-1.28 1.68-2.18 3-2.18h.54v1.16h-.54c-1.32 0-3.04 1.56-3.04 3.56V67zm13.095 0h-1.16l-.16-1.26c-1.24.98-2.18 1.46-3.78 1.46-1.62 0-2.86-1-2.86-2.72 0-2.84 2.32-3.36 6.66-4.32v-.72c0-1.38-.6-2.08-2.38-2.08-1.24 0-2.26.68-3.02 1.88l-.8-.48c.9-1.68 2.18-2.36 3.86-2.36 2.36 0 3.48.96 3.48 3.26v5.44c0 .52.04 1.2.16 1.9zm-1.36-2.48v-3.4c-4.76 1.04-5.4 2.02-5.4 3.34 0 1.14.78 1.78 1.86 1.78 1.12 0 2.5-.66 3.54-1.72zM73.42 67h-1.2V56.6h1.2v1.64c1.12-1.16 2.04-1.84 3.56-1.84 2.16 0 3.08 1.24 3.08 3.5V67h-1.2v-6.98c0-1.72-.52-2.66-2.12-2.66-1.28 0-2 .78-3.32 1.98V67zm17.994-7.78l-1.1.3c-.54-1.2-1.32-2.16-2.7-2.16-1.96 0-3.28 1.22-3.28 4.44 0 2.66 1.2 4.44 3.28 4.44 1.48 0 2.28-.82 3.12-2.16l.96.46c-.88 1.48-2.1 2.66-4.08 2.66-2.92 0-4.48-2.26-4.48-5.4 0-3.58 1.8-5.4 4.48-5.4 1.96 0 3.18 1.1 3.8 2.82zm4.535-2.62V67h-1.2V56.6h1.2zm0-2.28h-1.2v-1.76h1.2v1.76zm2.834 10.78l.88-.62c.98 1.4 1.86 1.76 3.22 1.76 1.32 0 2.32-.86 2.32-1.98 0-3.02-6.12-1.32-6.12-5.02 0-1.96 1.54-2.84 3.3-2.84 1.74 0 2.84.68 3.58 1.88l-.92.64c-.7-.96-1.46-1.56-2.7-1.56-1.16 0-2.06.56-2.06 1.82 0 2.54 6.12 1.04 6.12 5.08 0 1.86-1.72 2.94-3.6 2.94-1.6 0-3.04-.64-4.02-2.1zm18.094-5.88l-1.1.3c-.54-1.2-1.32-2.16-2.7-2.16-1.96 0-3.28 1.22-3.28 4.44 0 2.66 1.2 4.44 3.28 4.44 1.48 0 2.28-.82 3.12-2.16l.96.46c-.88 1.48-2.1 2.66-4.08 2.66-2.92 0-4.48-2.26-4.48-5.4 0-3.58 1.8-5.4 4.48-5.4 1.96 0 3.18 1.1 3.8 2.82zm6.714-1.86c-2.14 0-3.08 1.62-3.08 4.44 0 2.82.94 4.44 3.08 4.44s3.08-1.62 3.08-4.44c0-2.82-.94-4.44-3.08-4.44zm0-.96c3.24 0 4.28 2.58 4.28 5.4 0 2.82-1.04 5.4-4.28 5.4s-4.28-2.58-4.28-5.4c0-2.82 1.04-5.4 4.28-5.4z"/><path fill="#222" d="M167.059 80H154.87L182.761.02h13.067L223.66 80h-12.89l-7.5-22.324h-28.711L167.059 80zm22.148-66.328h-.469l-11.25 34.043h22.969l-11.25-34.043zm69.805 67.324c-11.953 0-20.215-7.441-20.215-18.984 0-10.899 7.558-18.282 21.797-18.282h15.879v-5.859c0-7.207-4.746-10.547-12.246-10.547-7.442 0-10.664 2.93-11.778 7.031h-11.308c.82-10.312 8.847-17.167 23.437-17.167 13.008 0 23.73 5.449 23.73 20.859V80H277v-8.027h-.527c-2.871 4.746-8.32 9.023-17.461 9.023zm3.515-9.96c7.852 0 13.946-5.099 13.946-12.013v-6.68h-14.414c-7.91 0-11.309 3.868-11.309 9.024 0 6.563 5.625 9.668 11.777 9.668z"/></g></svg>