<svg xmlns="http://www.w3.org/2000/svg" width="156" height="180"><g fill="none" fill-rule="evenodd"><path fill="#F6D241" d="M0 0h156v180H0z"/><path fill="#FAFAFF" d="M27.14 149l-2.82-10.4h1.46l2.1 8h.04l2.04-8h1.46l2.08 8.04h.04l2.02-8.04h1.46L34.24 149h-1.46l-2.08-8.04h-.04L28.6 149h-1.46zm12.85-7.74l-1.26-.66c.66-1.2 1.94-2.2 3.9-2.2 1.76 0 3.6.84 3.6 3.12v5.24c0 1.14.1 1.7.24 2.24h-1.48l-.16-1.44c-.72.8-1.88 1.64-3.44 1.64-1.6 0-2.96-.96-2.96-2.86 0-2.28 1.74-3.42 6.36-4.24v-.56c0-1.38-.9-1.9-2.14-1.9-1.6 0-2.38.92-2.66 1.62zm4.8 4.98v-2.86c-3.3.58-4.92 1.54-4.92 2.98 0 .96.92 1.6 1.72 1.6 1.04 0 2.36-.76 3.2-1.72zm4.45 2.76v-10.4h1.44v2.06h.04c.8-1.42 1.66-2.22 3.38-2.22v1.44c-1.8.04-2.74 1.22-3.42 3.36V149h-1.44zm7.29-10.4h1.44v1.4h.04c.82-.92 1.9-1.6 3.08-1.6 1.54 0 3 .8 3 3.04V149h-1.44v-7.52c0-1.38-.66-1.84-1.7-1.84-1.08 0-2.32.88-2.98 1.58V149h-1.44v-10.4zM68.18 149v-10.4h1.44V149h-1.44zm0-14.64h1.44v1.72h-1.44v-1.72zm5.53 4.24h1.44v1.4h.04c.82-.92 1.9-1.6 3.08-1.6 1.54 0 3 .8 3 3.04V149h-1.44v-7.52c0-1.38-.66-1.84-1.7-1.84-1.08 0-2.32.88-2.98 1.58V149h-1.44v-10.4zm19.19-.4v1.44c-.6 0-1.24.1-1.6.28.3.36.72 1.16.72 2.12 0 2.06-1.7 3.64-3.8 3.64-.84 0-1.28-.12-1.84-.28-.56.16-.82.5-.82.96 0 .48.34.76.86.76 4.92 0 6.5.88 6.5 2.92 0 1.52-1.5 2.8-4.74 2.8-2.92 0-4.48-.8-4.48-2.52 0-1.04.64-1.54 1.76-2.12-.8-.24-1.3-.86-1.3-1.48 0-.9.6-1.28 1.4-1.78-.98-.74-1.42-1.76-1.42-2.9 0-2.2 1.72-3.64 3.94-3.64 1.12 0 1.9.24 2.58.72.62-.44 1.46-.84 2.24-.92zm-1.34 11.9c-.02-1.02-1.06-1.54-3.6-1.54-2.26 0-2.9 1-2.9 1.74 0 .78.48 1.3 3.36 1.3 1.72 0 3.12-.48 3.14-1.5zm-.9-7.98c0-1.52-.88-2.48-2.64-2.48-1.64 0-2.52 1.04-2.52 2.4 0 1.38 1.08 2.4 2.68 2.4 1.64 0 2.48-1.08 2.48-2.32z"/></g></svg>