<svg xmlns="http://www.w3.org/2000/svg" width="302" height="89"><g fill="none" fill-rule="evenodd"><path fill="#8B949B" d="M4.14 53L.32 38.56h1.34L4.74 50.6h.04l2.88-12.04h1.32L11.8 50.6h.04l3.14-12.04h1.34L12.46 53h-1.32L8.32 41.12h-.04L5.46 53H4.14zm22.034-5.16h-7.24c0 2.36.98 4.4 3.34 4.4 1.34 0 2-.46 3.04-2.1l.98.52c-1.12 1.84-2.14 2.54-4.12 2.54-2.72 0-4.44-1.74-4.44-5.4 0-3.22 1.64-5.4 4.28-5.4 2.82 0 4.16 2.22 4.16 5.44zm-7.24-.96h6.04c-.24-2.14-1.18-3.5-3-3.52-2.12-.02-3.02 2.14-3.04 3.52zM29.57 53V38.56h1.2v5.4c1.02-1.08 1.86-1.56 3.26-1.56 2.42 0 4.1 2.28 4.1 5.34 0 3.54-1.48 5.46-4.18 5.46-1.42 0-2.58-.48-3.34-1.56l-.2 1.36h-.84zm1.2-7.78v5.12c.78 1.08 1.64 1.9 3.12 1.9 2.08 0 3.04-1.88 3.04-4.28 0-2.7-1.06-4.6-3.22-4.6-1.18 0-2.54 1.16-2.94 1.86zM2 68.56h1.32v9.84c0 2.76 1.34 3.72 3.9 3.72 2.56 0 3.9-.96 3.9-3.72v-9.84h1.32v9.72c0 3.28-1.72 4.92-5.22 4.92S2 81.56 2 78.28v-9.72zM17.994 83h-1.2V72.6h1.2v1.64c1.12-1.16 2.04-1.84 3.56-1.84 2.16 0 3.08 1.24 3.08 3.5V83h-1.2v-6.98c0-1.72-.52-2.66-2.12-2.66-1.28 0-2 .78-3.32 1.98V83zM29.81 72.6V83h-1.2V72.6h1.2zm0-2.28h-1.2v-1.76h1.2v1.76zM35.983 83l-3.56-10.4h1.28l2.84 8.56h.04l2.88-8.56h1.28L37.163 83h-1.18zm14.914-5.16h-7.24c0 2.36.98 4.4 3.34 4.4 1.34 0 2-.46 3.04-2.1l.98.52c-1.12 1.84-2.14 2.54-4.12 2.54-2.72 0-4.44-1.74-4.44-5.4 0-3.22 1.64-5.4 4.28-5.4 2.82 0 4.16 2.22 4.16 5.44zm-7.24-.96h6.04c-.24-2.14-1.18-3.5-3-3.52-2.12-.02-3.02 2.14-3.04 3.52zM55.211 83h-1.2V72.6h1.2v1.98h.04c.56-1.28 1.68-2.18 3-2.18h.54v1.16h-.54c-1.32 0-3.04 1.56-3.04 3.56V83zm5.115-1.9l.88-.62c.98 1.4 1.86 1.76 3.22 1.76 1.32 0 2.32-.86 2.32-1.98 0-3.02-6.12-1.32-6.12-5.02 0-1.96 1.54-2.84 3.3-2.84 1.74 0 2.84.68 3.58 1.88l-.92.64c-.7-.96-1.46-1.56-2.7-1.56-1.16 0-2.06.56-2.06 1.82 0 2.54 6.12 1.04 6.12 5.08 0 1.86-1.72 2.94-3.6 2.94-1.6 0-3.04-.64-4.02-2.1z"/><path fill="#222" d="M153.08 87L189.56.36h12.84L237.44 87h-13.08L215 64.44h-40.2L165.44 87h-12.36zm42.36-74.76l-16.8 42.48h32.76l-15.96-42.48zM301.12 87h-10.2c-.84-3-1.08-5.88-1.08-9-5.4 9.96-13.56 10.92-18.6 10.92-13.8 0-21.24-7.8-21.24-17.76 0-4.8 1.68-12.48 10.56-17.64 6.48-3.6 16.08-3.96 20.88-3.96 2.88 0 4.68.12 8.16.36 0-7.44 0-10.68-2.16-13.32-2.28-3-7.2-3.96-10.44-3.96-11.4 0-12 7.8-12.12 10.2H253.6c.36-3.12.72-7.32 4.2-11.4 4.56-5.04 13.08-6.48 19.44-6.48 8.76 0 18.12 2.76 21.36 8.88 1.92 3.6 2.04 6.48 2.04 9.24l-.48 28.8c0 .96.12 9 .96 15.12zM289.6 57.72c-2.04-.24-3.72-.36-6.48-.36-4.56 0-21.72 0-21.72 12.24 0 3.84 2.4 10.44 12.48 10.44 5.76 0 10.08-2.28 12.84-6.48 2.52-4.08 2.64-7.44 2.88-15.84z"/></g></svg>