<svg xmlns="http://www.w3.org/2000/svg" width="359" height="110"><path d="M26.643 95.62c0 2.212-.24 4.211-.721 5.996-.48 1.786-1.24 3.3-2.278 4.542s-2.393 2.192-4.066 2.852c-1.672.66-3.72.99-6.141.99-1.5 0-2.96-.175-4.383-.524-1.423-.35-2.7-.893-3.835-1.63a9.603 9.603 0 0 1-2.826-2.824c-.75-1.145-1.182-2.513-1.297-4.104h3.633c.192 1.125.567 2.067 1.124 2.823a6.759 6.759 0 0 0 2.019 1.834 8.921 8.921 0 0 0 2.624 1.02c.96.213 1.941.32 2.94.32 3.384 0 5.825-.97 7.325-2.912 1.499-1.94 2.249-4.735 2.249-8.383v-4.075h-.116c-.845 1.863-2.085 3.357-3.72 4.482-1.633 1.126-3.546 1.689-5.737 1.689-2.384 0-4.421-.398-6.113-1.194-1.692-.795-3.085-1.892-4.181-3.29-1.096-1.396-1.894-3.036-2.393-4.919-.5-1.882-.75-3.89-.75-6.025 0-2.057.298-4.008.894-5.851.596-1.844 1.46-3.455 2.595-4.833 1.134-1.377 2.537-2.464 4.21-3.26 1.672-.795 3.585-1.193 5.738-1.193 1.115 0 2.162.155 3.143.465.98.31 1.874.748 2.681 1.31a11.557 11.557 0 0 1 2.163 1.95 8.913 8.913 0 0 1 1.47 2.33h.116v-5.182h3.633V95.62zm-13.206-.99c1.576 0 2.96-.34 4.152-1.019a9.486 9.486 0 0 0 2.999-2.678c.807-1.106 1.413-2.377 1.816-3.813.404-1.436.606-2.911.606-4.425 0-1.475-.173-2.95-.52-4.424a12.844 12.844 0 0 0-1.672-4.018 9.098 9.098 0 0 0-2.97-2.91c-1.21-.738-2.681-1.107-4.411-1.107-1.73 0-3.21.36-4.44 1.077a9.502 9.502 0 0 0-3.057 2.824c-.808 1.164-1.394 2.494-1.759 3.988a19.179 19.179 0 0 0-.548 4.57c0 1.514.192 2.989.577 4.425.384 1.436.98 2.707 1.788 3.813a9.29 9.29 0 0 0 3.056 2.678c1.23.68 2.691 1.02 4.383 1.02zM36.82 77.223c.116-1.747.48-3.26 1.096-4.541.615-1.281 1.451-2.33 2.509-3.144 1.057-.815 2.297-1.417 3.72-1.805 1.422-.388 2.998-.582 4.728-.582 1.307 0 2.614.126 3.921.378 1.308.252 2.48.728 3.518 1.426 1.038.7 1.884 1.68 2.538 2.94.653 1.262.98 2.902.98 4.92v15.952c0 1.475.711 2.212 2.134 2.212.423 0 .807-.077 1.153-.232v3.085c-.423.078-.798.136-1.124.175-.327.039-.74.058-1.24.058-.923 0-1.663-.126-2.22-.378-.558-.253-.99-.612-1.298-1.077-.308-.466-.51-1.02-.606-1.66a14.38 14.38 0 0 1-.144-2.125h-.115a24.48 24.48 0 0 1-1.99 2.591 9.913 9.913 0 0 1-2.249 1.892c-.826.505-1.768.893-2.825 1.165-1.058.271-2.317.407-3.778.407-1.384 0-2.681-.165-3.892-.495-1.211-.33-2.269-.854-3.172-1.572-.904-.718-1.615-1.63-2.134-2.736-.519-1.106-.778-2.416-.778-3.93 0-2.096.46-3.735 1.384-4.92.922-1.183 2.143-2.085 3.662-2.706 1.518-.621 3.229-1.058 5.132-1.31 1.903-.253 3.835-.495 5.796-.728a20.965 20.965 0 0 0 2.018-.291c.577-.117 1.057-.32 1.442-.612.384-.29.682-.688.894-1.193.211-.505.317-1.164.317-1.98 0-1.241-.202-2.26-.606-3.056a4.818 4.818 0 0 0-1.672-1.892c-.711-.466-1.538-.786-2.48-.96a16.606 16.606 0 0 0-3.027-.263c-2.307 0-4.19.553-5.652 1.66-1.46 1.106-2.23 2.881-2.307 5.327h-3.633zm19.377 4.424h-.115c-.231.427-.673.738-1.327.932-.653.194-1.23.33-1.73.407-1.538.272-3.124.515-4.758.728-1.633.214-3.123.534-4.469.96-1.345.428-2.45 1.039-3.316 1.835-.865.795-1.297 1.93-1.297 3.405 0 .932.182 1.757.548 2.475a5.994 5.994 0 0 0 1.47 1.863 6.403 6.403 0 0 0 2.134 1.193 7.725 7.725 0 0 0 2.48.408c1.384 0 2.71-.214 3.979-.64 1.268-.428 2.374-1.049 3.316-1.864a9.035 9.035 0 0 0 2.249-2.969c.557-1.164.836-2.484.836-3.959v-4.774zm20.27-13.623V59h-3.633v9.024h-5.19v3.086h5.19V91.66c-.038 2.562.423 4.318 1.384 5.269.961.95 2.653 1.426 5.075 1.426.538 0 1.077-.02 1.615-.058a22.443 22.443 0 0 1 1.615-.058v-3.086a27.914 27.914 0 0 1-3.115.175c-1.307-.078-2.124-.456-2.45-1.136-.327-.679-.49-1.62-.49-2.823V71.11h6.055v-3.086h-6.056zm36.303 12.925a13.364 13.364 0 0 0-.721-4.017 11.027 11.027 0 0 0-1.874-3.406 9.305 9.305 0 0 0-2.942-2.387c-1.153-.602-2.46-.903-3.921-.903-1.5 0-2.826.301-3.98.903a9.305 9.305 0 0 0-2.94 2.387c-.808.99-1.451 2.134-1.932 3.435a16.97 16.97 0 0 0-.952 3.988h19.262zm-19.262 3.085c0 1.32.183 2.688.548 4.105a11.327 11.327 0 0 0 1.76 3.813 10.104 10.104 0 0 0 3.056 2.795c1.23.737 2.71 1.106 4.44 1.106 2.653 0 4.729-.699 6.228-2.096 1.5-1.397 2.538-3.26 3.114-5.59h3.633c-.768 3.416-2.181 6.056-4.238 7.919-2.057 1.863-4.97 2.794-8.737 2.794-2.345 0-4.373-.417-6.084-1.252-1.71-.834-3.104-1.979-4.18-3.435-1.077-1.455-1.875-3.143-2.394-5.065-.52-1.92-.779-3.949-.779-6.083 0-1.98.26-3.92.779-5.822.519-1.902 1.317-3.6 2.393-5.095 1.077-1.494 2.47-2.697 4.181-3.61 1.71-.911 3.739-1.367 6.084-1.367 2.384 0 4.421.485 6.113 1.455 1.692.97 3.066 2.242 4.123 3.814 1.057 1.571 1.817 3.376 2.278 5.414a23.98 23.98 0 0 1 .577 6.2H93.509zm56.544 11.586c0 2.212-.24 4.211-.72 5.996-.481 1.786-1.24 3.3-2.278 4.542s-2.394 2.192-4.066 2.852c-1.672.66-3.72.99-6.142.99-1.5 0-2.96-.175-4.383-.524-1.422-.35-2.7-.893-3.835-1.63a9.603 9.603 0 0 1-2.825-2.824c-.75-1.145-1.182-2.513-1.298-4.104h3.633c.193 1.125.567 2.067 1.125 2.823a6.759 6.759 0 0 0 2.018 1.834 8.921 8.921 0 0 0 2.624 1.02c.961.213 1.942.32 2.941.32 3.383 0 5.825-.97 7.324-2.912 1.5-1.94 2.25-4.735 2.25-8.383v-4.075h-.116c-.846 1.863-2.086 3.357-3.72 4.482-1.634 1.126-3.546 1.689-5.738 1.689-2.383 0-4.421-.398-6.113-1.194-1.691-.795-3.085-1.892-4.18-3.29-1.096-1.396-1.894-3.036-2.394-4.919-.5-1.882-.75-3.89-.75-6.025 0-2.057.298-4.008.894-5.851.596-1.844 1.461-3.455 2.595-4.833 1.135-1.377 2.538-2.464 4.21-3.26 1.673-.795 3.585-1.193 5.738-1.193 1.115 0 2.163.155 3.143.465.98.31 1.874.748 2.682 1.31a11.557 11.557 0 0 1 2.162 1.95 8.913 8.913 0 0 1 1.47 2.33h.116v-5.182h3.633V95.62zm-13.206-.99c1.577 0 2.96-.34 4.152-1.019a9.486 9.486 0 0 0 3-2.678c.807-1.106 1.412-2.377 1.816-3.813.403-1.436.605-2.911.605-4.425 0-1.475-.173-2.95-.519-4.424a12.844 12.844 0 0 0-1.672-4.018 9.098 9.098 0 0 0-2.97-2.91c-1.211-.738-2.682-1.107-4.412-1.107s-3.21.36-4.44 1.077a9.502 9.502 0 0 0-3.057 2.824c-.807 1.164-1.393 2.494-1.759 3.988a19.179 19.179 0 0 0-.547 4.57c0 1.514.192 2.989.576 4.425.385 1.436.98 2.707 1.788 3.813a9.29 9.29 0 0 0 3.056 2.678c1.23.68 2.692 1.02 4.383 1.02zm23.73-26.606v30.041h3.634v-16.01c0-1.592.27-3.057.807-4.396a10.122 10.122 0 0 1 2.278-3.464 10.11 10.11 0 0 1 3.49-2.241c1.345-.524 2.844-.747 4.497-.67v-3.668c-2.69-.116-5.007.486-6.949 1.805-1.941 1.32-3.373 3.202-4.296 5.647h-.115v-7.044h-3.345zm33.304 2.212c-1.73 0-3.248.369-4.555 1.106a10.034 10.034 0 0 0-3.259 2.911c-.865 1.204-1.518 2.572-1.96 4.105a16.831 16.831 0 0 0-.664 4.687c0 1.59.221 3.153.664 4.686.442 1.533 1.095 2.901 1.96 4.105a10.034 10.034 0 0 0 3.259 2.91c1.307.738 2.825 1.107 4.555 1.107 1.73 0 3.249-.369 4.556-1.106a10.034 10.034 0 0 0 3.258-2.911c.865-1.204 1.519-2.572 1.961-4.105.442-1.533.663-3.095.663-4.686 0-1.592-.22-3.154-.663-4.687-.442-1.533-1.096-2.901-1.96-4.105a10.034 10.034 0 0 0-3.259-2.91c-1.307-.738-2.826-1.107-4.556-1.107zm0-3.085c2.269 0 4.277.427 6.027 1.28 1.749.854 3.22 2 4.411 3.435 1.192 1.437 2.096 3.115 2.71 5.036.616 1.922.923 3.969.923 6.143 0 2.173-.307 4.22-.922 6.142-.615 1.92-1.519 3.6-2.71 5.036-1.192 1.436-2.663 2.57-4.412 3.405-1.75.835-3.758 1.252-6.027 1.252-2.268 0-4.277-.417-6.026-1.252-1.75-.834-3.22-1.97-4.412-3.405-1.191-1.436-2.095-3.115-2.71-5.036-.615-1.922-.923-3.969-.923-6.142 0-2.174.308-4.221.923-6.143.615-1.92 1.519-3.6 2.71-5.036 1.192-1.436 2.663-2.58 4.412-3.434 1.75-.854 3.758-1.281 6.026-1.281zm47.202 30.914V68.024h-3.633v15.777a19.19 19.19 0 0 1-.52 4.454c-.345 1.456-.883 2.746-1.614 3.872a8.61 8.61 0 0 1-2.768 2.707c-1.115.68-2.46 1.019-4.037 1.019-2.883 0-4.911-.699-6.084-2.096-1.172-1.397-1.797-3.454-1.874-6.171V68.024h-3.633v19.503c0 1.786.192 3.377.577 4.774.384 1.398.99 2.581 1.816 3.552.827.97 1.903 1.717 3.23 2.241 1.326.524 2.931.786 4.815.786 2.23 0 4.258-.534 6.084-1.6 1.826-1.068 3.22-2.611 4.18-4.63h.116v5.415h3.345zm10.467-30.041h3.345v5.705h.115c.846-2.095 2.22-3.716 4.123-4.86 1.903-1.146 4.066-1.718 6.488-1.718 2.268 0 4.239.427 5.91 1.28a12.153 12.153 0 0 1 4.182 3.465c1.115 1.455 1.941 3.143 2.48 5.065.538 1.92.807 3.949.807 6.084 0 2.134-.27 4.162-.807 6.083-.539 1.922-1.365 3.61-2.48 5.065a11.862 11.862 0 0 1-4.181 3.435c-1.672.835-3.643 1.252-5.911 1.252-1.077 0-2.153-.136-3.23-.407a11.347 11.347 0 0 1-2.998-1.223 9.906 9.906 0 0 1-2.451-2.038 8.704 8.704 0 0 1-1.644-2.852h-.115v16.767h-3.633V68.024zm23.817 15.02c0-1.552-.183-3.095-.548-4.628-.365-1.533-.942-2.901-1.73-4.104a9.568 9.568 0 0 0-3.028-2.94c-1.23-.757-2.71-1.136-4.44-1.136-2 0-3.672.35-5.017 1.048-1.346.699-2.422 1.63-3.23 2.795-.807 1.164-1.374 2.523-1.7 4.075a23.694 23.694 0 0 0-.491 4.89c0 1.553.183 3.096.548 4.629.365 1.533.96 2.901 1.787 4.104.827 1.204 1.904 2.184 3.23 2.94 1.326.757 2.95 1.136 4.873 1.136 1.73 0 3.21-.379 4.44-1.136a9.568 9.568 0 0 0 3.028-2.94c.788-1.203 1.365-2.57 1.73-4.104.365-1.533.548-3.076.548-4.628zm37.57-42.153l20.872 13.63L320.854 66l-23.032-17.217 15.114-7.892zm-47.504-12.195l25.91 3.587 2.16 15.065-28.07-2.87V28.696zm20.153-15.066L264.713 8.61V.717l20.153 3.587.72 9.326zm28.79-3.587l16.554 1.435 5.758 9.326-18.713-2.152-3.6-8.609zm14.395 27.261l20.872 2.87L359 55.239l-22.312-2.87-7.917-15.065zm0-8.608l10.076-6.457 17.274 10.044-5.758 5.739-21.592-9.326zm-48.223-8.609l-17.994 7.174L246 14.348l18.713-3.587 15.835 9.326zm6.477-15.783L297.102 0l15.115 8.967-10.077 4.663-15.115-9.326z" fill="#2C2C36" fill-rule="evenodd"/></svg>