<svg xmlns="http://www.w3.org/2000/svg" width="919" height="489"><g fill="none" fill-rule="evenodd"><g transform="translate(847)"><circle cx="36" cy="244" r="36" fill="#F66486"/><circle cx="36" cy="348" r="36" fill="#8CD9E9"/><circle cx="36" cy="348" r="4" fill="#FFF"/><circle cx="36" cy="36" r="36" fill="#679CFB"/><circle cx="36" cy="140" r="36" fill="#F56B9A"/><circle cx="36" cy="140" r="4" fill="#FFF"/><circle cx="36" cy="452" r="36" fill="#FFF"/></g><g transform="translate(705.833)"><circle cx="36" cy="244" r="36" fill="#F56B9A"/><circle cx="36" cy="244" r="4" fill="#FFF"/><circle cx="36" cy="348" r="36" fill="#8ADFDF"/><circle cx="36" cy="36" r="36" fill="#749CFA"/><circle cx="36" cy="140" r="36" fill="#FC8D82"/><circle cx="36" cy="452" r="36" fill="#FCFCFD"/></g><g transform="translate(564.667 18)"><circle cx="36" cy="226" r="18" fill="#F56FA8"/><circle cx="36" cy="330" r="18" fill="#88E2D9"/><circle cx="36" cy="18" r="18" fill="#7B9BFA"/><circle cx="36" cy="122" r="18" fill="#FD9D75"/><circle cx="36" cy="434" r="35.5" fill="#EDEDF2" stroke="#979797"/></g><g transform="translate(423.5)"><circle cx="36" cy="244" r="36" fill="#F575B6"/><circle cx="36" cy="348" r="36" fill="#87E6D3"/><circle cx="36" cy="36" r="36" fill="#849BFA"/><circle cx="36" cy="140" r="36" fill="#FDAA6A"/></g><g transform="translate(282.333 18)"><circle cx="36" cy="226" r="18" fill="#F57AC5"/><circle cx="36" cy="330" r="18" fill="#86EACD"/><circle cx="36" cy="434" r="36" fill="#E3E4E8" stroke="#979797"/><circle cx="36" cy="18" r="18" fill="#8D9CFA"/><circle cx="36" cy="122" r="18" fill="#FDB760"/></g><g transform="translate(141.167)"><circle cx="36" cy="244" r="36" fill="#F57FD4"/><circle cx="36" cy="348" r="36" fill="#84EEC6"/><circle cx="36" cy="452" r="36" fill="#9BA0AD"/><circle cx="36" cy="36" r="36" fill="#A29BF9"/><circle cx="36" cy="36" r="4" fill="#FFF"/><circle cx="36" cy="140" r="36" fill="#FDC652"/></g><circle cx="36" cy="244" r="36" fill="#F486E7"/><circle cx="36" cy="348" r="36" fill="#82F4BD"/><circle cx="36" cy="36" r="36" fill="#A29BF9"/><circle cx="36" cy="140" r="36" fill="#FDDD3E"/><circle cx="36" cy="452" r="36" fill="#060F24"/></g></svg>