<svg xmlns="http://www.w3.org/2000/svg" width="230" height="300"><g fill="none" fill-rule="evenodd"><path fill="#8CD9E9" d="M0 0h230v300H0z"/><path fill="#000" fill-opacity=".1" d="M0 228h230v72H0z"/><path fill="#FFF" d="M78.12 264.996h-3.057L74.312 269h-.977l.752-4.004h-2.49v-.908h2.656l.81-4.307H72.34v-.937h2.9l.772-4.063h.976l-.771 4.063h3.066l.772-4.063h.976l-.771 4.063h2.236v.937h-2.412l-.81 4.307h2.49v.908h-2.666L78.345 269h-.977l.752-4.004zm-2.89-.908h3.066l.81-4.307H76.04l-.81 4.307zm18.546-5.645a3.301 3.301 0 0 1-.65 1.988c-.205.276-.45.524-.737.742a3.908 3.908 0 0 1-.957.532c.404.137.772.32 1.104.547.332.228.618.493.859.796a3.456 3.456 0 0 1 .752 2.182c0 .652-.117 1.224-.352 1.72a3.522 3.522 0 0 1-.962 1.24 4.193 4.193 0 0 1-1.435.751c-.55.17-1.141.254-1.773.254a6.067 6.067 0 0 1-1.792-.254 4.193 4.193 0 0 1-1.435-.752 3.473 3.473 0 0 1-.957-1.24c-.231-.495-.347-1.067-.347-1.719a3.56 3.56 0 0 1 .728-2.183c.23-.302.51-.567.84-.795.328-.228.695-.41 1.098-.547a3.818 3.818 0 0 1-.952-.532 3.382 3.382 0 0 1-1.353-2.73c0-.618.105-1.167.313-1.645.208-.479.498-.882.87-1.211a3.757 3.757 0 0 1 1.313-.747 5.176 5.176 0 0 1 1.655-.254c.586 0 1.133.085 1.64.254a3.8 3.8 0 0 1 1.324.747c.374.329.669.732.884 1.21.214.48.322 1.028.322 1.646zm-.801 6.797c0-.455-.086-.87-.259-1.245a2.845 2.845 0 0 0-.708-.957 3.23 3.23 0 0 0-1.07-.615 3.963 3.963 0 0 0-1.332-.22 3.98 3.98 0 0 0-1.348.22c-.41.146-.763.351-1.06.615a2.764 2.764 0 0 0-.693.957c-.166.374-.249.79-.249 1.245 0 .475.083.897.25 1.265.165.368.396.679.693.933.296.253.65.445 1.064.576.414.13.868.195 1.362.195.489 0 .936-.065 1.343-.195a3.06 3.06 0 0 0 1.06-.577c.3-.253.532-.564.698-.932.166-.368.249-.79.249-1.265zm-.371-6.806a2.769 2.769 0 0 0-.86-2.05 2.828 2.828 0 0 0-.947-.592 3.297 3.297 0 0 0-1.191-.21c-.43 0-.827.067-1.192.2a2.77 2.77 0 0 0-.942.567c-.264.244-.47.543-.62.898-.15.355-.225.75-.225 1.187 0 .423.074.805.22 1.147.147.342.352.633.615.874.264.241.58.427.948.557.367.13.77.195 1.206.195.43 0 .826-.065 1.191-.195.365-.13.68-.316.947-.557.267-.24.476-.532.625-.874a2.83 2.83 0 0 0 .225-1.147zm15.119 6.132a6.31 6.31 0 0 1-.508 1.944 4.372 4.372 0 0 1-1.05 1.455c-.44.397-.967.701-1.582.913-.615.212-1.314.317-2.095.317-.807 0-1.54-.153-2.197-.459a4.82 4.82 0 0 1-1.69-1.303c-.468-.564-.83-1.239-1.084-2.027-.253-.788-.38-1.66-.38-2.617v-1.787c0-.957.127-1.831.38-2.622.254-.791.617-1.467 1.09-2.026a4.894 4.894 0 0 1 1.713-1.304c.67-.31 1.423-.464 2.256-.464.755 0 1.436.104 2.041.312a4.342 4.342 0 0 1 1.558.914c.433.4.78.888 1.045 1.464.263.577.43 1.23.503 1.958h-1.211a5.878 5.878 0 0 0-.391-1.538 3.292 3.292 0 0 0-.767-1.137 3.257 3.257 0 0 0-1.172-.704c-.459-.162-.994-.244-1.606-.244-.664 0-1.256.129-1.777.386-.521.257-.964.62-1.328 1.089-.365.469-.643 1.033-.835 1.694a7.877 7.877 0 0 0-.288 2.202v1.807c0 .781.09 1.502.273 2.163.182.661.45 1.23.8 1.71.352.478.785.85 1.3 1.117.514.267 1.103.4 1.767.4 1.257 0 2.204-.3 2.842-.903.638-.602 1.032-1.505 1.182-2.71h1.21zm3.634 4.434v-14.219h3.974c.886 0 1.701.153 2.447.46a5.49 5.49 0 0 1 1.923 1.308 6.004 6.004 0 0 1 1.255 2.04c.3.795.45 1.68.45 2.657v1.299c0 .976-.15 1.862-.45 2.656-.3.794-.72 1.473-1.26 2.036a5.54 5.54 0 0 1-1.943 1.304c-.755.306-1.588.459-2.5.459h-3.896zm1.2-13.193v12.177h2.696c.762 0 1.449-.131 2.06-.395a4.422 4.422 0 0 0 1.563-1.113c.43-.479.76-1.052.991-1.72.232-.666.347-1.404.347-2.211v-1.328c0-.82-.117-1.564-.351-2.232a4.919 4.919 0 0 0-.992-1.704 4.397 4.397 0 0 0-1.538-1.089c-.599-.257-1.266-.385-2.002-.385h-2.773zm14.006 12.285c1.003 0 1.848-.143 2.534-.43.687-.286 1.242-.683 1.665-1.191a4.76 4.76 0 0 0 .923-1.797c.192-.69.298-1.442.318-2.256a4.7 4.7 0 0 1-.674.786 4.158 4.158 0 0 1-2.89 1.138c-.665 0-1.25-.134-1.759-.4a3.904 3.904 0 0 1-1.279-1.065 4.69 4.69 0 0 1-.781-1.523 6.025 6.025 0 0 1-.264-1.778c0-.683.098-1.326.293-1.929a4.911 4.911 0 0 1 .845-1.586 3.995 3.995 0 0 1 1.348-1.08c.53-.263 1.134-.395 1.811-.395.762 0 1.426.14 1.992.42.567.28 1.037.67 1.411 1.172.375.501.655 1.1.84 1.797.186.696.279 1.458.279 2.285v1.133c0 .703-.044 1.381-.132 2.036a9.006 9.006 0 0 1-.44 1.84 6.538 6.538 0 0 1-.805 1.568 4.805 4.805 0 0 1-1.236 1.21 5.848 5.848 0 0 1-1.728.782c-.661.186-1.418.278-2.27.278h-.255l.01-1.015h.244zm2.022-4.756c.442 0 .85-.072 1.22-.215.371-.143.702-.332.992-.566a3.907 3.907 0 0 0 1.216-1.729v-.674c0-.748-.082-1.408-.245-1.977-.162-.57-.392-1.045-.688-1.426a2.928 2.928 0 0 0-1.06-.864 3.094 3.094 0 0 0-1.347-.293c-.495 0-.938.106-1.329.317-.39.212-.722.498-.996.86-.273.36-.481.78-.625 1.254a5.184 5.184 0 0 0-.214 1.504c0 .489.066.96.2 1.416.133.456.328.861.586 1.216.257.355.577.64.962.855.384.215.826.322 1.328.322zm16.232-1.152h-6.65v5.8h7.646V269h-8.848v-14.219h8.799v1.026h-7.598v5.361h6.65v1.016zm5.636 5.908c1.002 0 1.847-.143 2.534-.43.687-.286 1.242-.683 1.665-1.191a4.76 4.76 0 0 0 .923-1.797c.192-.69.298-1.442.317-2.256a4.7 4.7 0 0 1-.674.786 4.158 4.158 0 0 1-2.89 1.138c-.664 0-1.25-.134-1.758-.4a3.904 3.904 0 0 1-1.28-1.065 4.69 4.69 0 0 1-.78-1.523 6.025 6.025 0 0 1-.264-1.778c0-.683.097-1.326.293-1.929a4.911 4.911 0 0 1 .844-1.586 3.995 3.995 0 0 1 1.348-1.08c.53-.263 1.134-.395 1.812-.395.761 0 1.425.14 1.992.42.566.28 1.037.67 1.41 1.172.375.501.655 1.1.84 1.797.186.696.279 1.458.279 2.285v1.133c0 .703-.044 1.381-.132 2.036a9.006 9.006 0 0 1-.44 1.84 6.538 6.538 0 0 1-.805 1.568 4.805 4.805 0 0 1-1.235 1.21 5.848 5.848 0 0 1-1.729.782c-.66.186-1.417.278-2.27.278h-.254l.01-1.015h.244zm2.021-4.756c.443 0 .85-.072 1.22-.215.372-.143.702-.332.992-.566a3.907 3.907 0 0 0 1.216-1.729v-.674c0-.748-.081-1.408-.244-1.977-.163-.57-.392-1.045-.689-1.426a2.928 2.928 0 0 0-1.06-.864 3.094 3.094 0 0 0-1.347-.293c-.495 0-.937.106-1.328.317-.39.212-.723.498-.996.86-.274.36-.482.78-.625 1.254a5.184 5.184 0 0 0-.215 1.504c0 .489.067.96.2 1.416.134.456.329.861.586 1.216.257.355.578.64.962.855.384.215.827.322 1.328.322z"/></g></svg>