<svg xmlns="http://www.w3.org/2000/svg" width="288" height="300"><g fill="none" fill-rule="evenodd"><path fill="#A29BF9" d="M0 0h288v300H0z"/><path fill="#000" fill-opacity=".1" d="M0 228h288v72H0z"/><path fill="#FFF" d="M107.853 264.996h-3.057l-.752 4.004h-.977l.752-4.004h-2.49v-.908h2.656l.81-4.307h-2.724v-.937h2.9l.772-4.063h.977l-.772 4.063h3.067l.771-4.063h.977l-.772 4.063h2.237v.937h-2.413l-.81 4.307h2.49v.908h-2.666l-.752 4.004h-.976l.752-4.004zm-2.891-.908h3.066l.81-4.307h-3.066l-.81 4.307zm18.302.928h-6.455L115.344 269h-1.26l5.381-14.219h1.143l5.38 14.219h-1.25l-1.474-3.984zm-6.084-1.026h5.703l-2.851-7.744-2.852 7.744zm20.06 5.01h-8.906v-.898l4.658-5.284c.436-.494.806-.94 1.108-1.338.303-.397.547-.766.733-1.108.185-.342.319-.664.4-.967.082-.302.122-.604.122-.903 0-.43-.063-.822-.19-1.177a2.553 2.553 0 0 0-.567-.923 2.544 2.544 0 0 0-.932-.605 3.536 3.536 0 0 0-1.28-.215c-.494 0-.939.083-1.332.25-.394.165-.73.395-1.006.688-.277.293-.49.64-.64 1.044-.15.404-.225.844-.225 1.319h-1.162c0-.586.1-1.14.298-1.66.199-.521.487-.977.864-1.368.378-.39.835-.7 1.373-.927.537-.228 1.147-.342 1.83-.342.639 0 1.215.086 1.73.259.513.172.95.423 1.308.752.358.328.633.729.825 1.2.192.473.288 1.008.288 1.607 0 .43-.078.863-.234 1.3-.157.435-.365.868-.625 1.298-.26.43-.56.856-.899 1.28-.338.422-.687.84-1.045 1.25l-3.965 4.482h7.471V269zm4.748-.908c1.002 0 1.847-.143 2.534-.43.687-.286 1.242-.683 1.665-1.191a4.76 4.76 0 0 0 .923-1.797c.192-.69.298-1.442.317-2.256a4.7 4.7 0 0 1-.674.786 4.158 4.158 0 0 1-2.89 1.138c-.664 0-1.25-.134-1.758-.4a3.904 3.904 0 0 1-1.28-1.065 4.69 4.69 0 0 1-.78-1.523 6.025 6.025 0 0 1-.264-1.778c0-.683.097-1.326.293-1.929a4.911 4.911 0 0 1 .844-1.586 3.995 3.995 0 0 1 1.348-1.08c.53-.263 1.134-.395 1.811-.395.762 0 1.426.14 1.993.42.566.28 1.036.67 1.41 1.172.375.501.655 1.1.84 1.797.186.696.279 1.458.279 2.285v1.133c0 .703-.044 1.381-.132 2.036a9.006 9.006 0 0 1-.44 1.84 6.538 6.538 0 0 1-.805 1.568 4.805 4.805 0 0 1-1.235 1.21 5.848 5.848 0 0 1-1.729.782c-.66.186-1.418.278-2.27.278h-.254l.01-1.015h.244zm2.021-4.756c.443 0 .85-.072 1.22-.215.372-.143.702-.332.992-.566a3.907 3.907 0 0 0 1.216-1.729v-.674c0-.748-.082-1.408-.244-1.977-.163-.57-.393-1.045-.689-1.426a2.928 2.928 0 0 0-1.06-.864 3.094 3.094 0 0 0-1.347-.293c-.495 0-.938.106-1.328.317-.39.212-.723.498-.996.86-.274.36-.482.78-.625 1.254a5.184 5.184 0 0 0-.215 1.504c0 .489.067.96.2 1.416.134.456.329.861.586 1.216.257.355.578.64.962.855.384.215.827.322 1.328.322zm8.38 5.664v-14.219h4.2c.722 0 1.37.073 1.943.22.573.146 1.06.371 1.46.674.4.303.708.688.923 1.157.215.469.322 1.025.322 1.67 0 .365-.05.708-.151 1.03-.101.322-.25.617-.445.884s-.431.5-.708.698c-.276.199-.59.357-.942.474a3.55 3.55 0 0 1 1.133.454 3.41 3.41 0 0 1 1.426 1.782c.13.371.195.762.195 1.172 0 .651-.11 1.226-.327 1.724a3.408 3.408 0 0 1-.928 1.255c-.4.338-.88.594-1.44.766a6.28 6.28 0 0 1-1.856.259h-4.805zm1.202-6.836v5.82h3.603c.52 0 .988-.068 1.401-.205a3.013 3.013 0 0 0 1.055-.586c.29-.254.511-.564.664-.932.153-.368.23-.783.23-1.245 0-.398-.065-.77-.196-1.119a2.397 2.397 0 0 0-.6-.908 2.85 2.85 0 0 0-1.016-.605c-.407-.147-.887-.22-1.44-.22h-3.701zm0-1.006h3.28c1.003-.02 1.78-.255 2.33-.708.55-.452.825-1.111.825-1.977 0-.912-.285-1.584-.854-2.017-.57-.433-1.431-.65-2.583-.65h-2.998v5.352zm19.6 1.201h-6.63V269h-1.201v-14.219h8.808v1.026h-7.607v5.527h6.63v1.025zm5.53 5.733c1.002 0 1.847-.143 2.533-.43.687-.286 1.242-.683 1.666-1.191a4.76 4.76 0 0 0 .922-1.797c.192-.69.298-1.442.318-2.256a4.7 4.7 0 0 1-.674.786 4.158 4.158 0 0 1-2.89 1.138c-.665 0-1.25-.134-1.759-.4a3.904 3.904 0 0 1-1.279-1.065 4.69 4.69 0 0 1-.781-1.523 6.025 6.025 0 0 1-.264-1.778c0-.683.098-1.326.293-1.929a4.911 4.911 0 0 1 .845-1.586 3.995 3.995 0 0 1 1.348-1.08c.53-.263 1.134-.395 1.811-.395.762 0 1.426.14 1.992.42.567.28 1.037.67 1.411 1.172.375.501.655 1.1.84 1.797.186.696.279 1.458.279 2.285v1.133c0 .703-.044 1.381-.132 2.036a9.006 9.006 0 0 1-.44 1.84 6.538 6.538 0 0 1-.805 1.568 4.805 4.805 0 0 1-1.236 1.21 5.848 5.848 0 0 1-1.728.782c-.661.186-1.418.278-2.27.278h-.255l.01-1.015h.244zm2.02-4.756c.443 0 .85-.072 1.221-.215.372-.143.702-.332.992-.566a3.907 3.907 0 0 0 1.216-1.729v-.674c0-.748-.082-1.408-.245-1.977-.162-.57-.392-1.045-.688-1.426a2.928 2.928 0 0 0-1.06-.864 3.094 3.094 0 0 0-1.347-.293c-.495 0-.938.106-1.328.317-.391.212-.723.498-.997.86-.273.36-.481.78-.625 1.254a5.184 5.184 0 0 0-.214 1.504c0 .489.066.96.2 1.416.133.456.329.861.586 1.216.257.355.578.64.962.855.384.215.826.322 1.328.322z"/></g></svg>