<svg xmlns="http://www.w3.org/2000/svg" width="311" height="690"><g fill="none" fill-rule="evenodd"><path fill="#F575B6" d="M0 144h311v402H0z"/><path fill="#F590E9" d="M0 0h311v72H0z"/><path fill="#2C2C36" d="M117.405 35.24l-.4 3.04h2.7l.42-3.04h-2.72zm-.56 4.16l-.62 4.6h-1.24l.62-4.6h-1.98v-1.12h2.14l.4-3.04h-1.98v-1.12h2.14l.62-4.56h1.24l-.62 4.56h2.72l.6-4.56h1.24l-.6 4.56h1.88v1.12h-2.04l-.42 3.04h1.9v1.12h-2.06l-.62 4.6h-1.24l.62-4.6h-2.7zm10.03-9.84h8.56v1.36h-6.96v4.84h5.16v1.36h-5.16V44h-1.6V29.56zm19.39 0v1.24h-6.2l-.36 4.62c.94-.86 1.94-1.18 2.96-1.18 2.4 0 4.62 1.64 4.62 4.88 0 2.2-1.32 5.08-5 5.08-2.46 0-3.7-1.36-4.6-2.76l1.3-.68c.7 1.3 1.82 2.2 3.34 2.2 1.9 0 3.44-1.12 3.44-3.84 0-2.12-1.24-3.64-3.24-3.64-1.4 0-2.46.84-3.04 2.18l-1.26-.28.64-7.82h7.4zm4.43 13.8l.62-1.22c.66.52 1.34.82 2.46.82 2.28 0 4.26-2.04 4.44-6.04-.88.92-1.96 1.72-3.96 1.72-2.16 0-4.34-1.52-4.34-4.64 0-3.08 2.26-4.64 4.66-4.64 3 0 5.16 1.76 5.16 6.68 0 4.56-2.04 8.16-5.92 8.16-1.56 0-2.7-.44-3.12-.84zm.74-9.4c0 2.24 1.5 3.44 3.02 3.44 1.76 0 3.12-1.16 3.68-2.68-.04-2.52-1.36-4.12-3.44-4.12-2.04 0-3.26 1.4-3.26 3.36zm10.75 2.82c0-5.22 1.96-7.42 5.1-7.42 3.14 0 5.1 2.2 5.1 7.42s-1.96 7.42-5.1 7.42c-3.14 0-5.1-2.2-5.1-7.42zm1.52 0c0 4.38 1.24 6.18 3.58 6.18s3.58-1.8 3.58-6.18-1.24-6.18-3.58-6.18-3.58 1.8-3.58 6.18zm12.11-7.22h8.66v1.36h-7.06v4.84h5.02v1.36h-5.02v5.52h7.46V44h-9.06V29.56zm12.29 13.8l.62-1.22c.66.52 1.34.82 2.46.82 2.28 0 4.26-2.04 4.44-6.04-.88.92-1.96 1.72-3.96 1.72-2.16 0-4.34-1.52-4.34-4.64 0-3.08 2.26-4.64 4.66-4.64 3 0 5.16 1.76 5.16 6.68 0 4.56-2.04 8.16-5.92 8.16-1.56 0-2.7-.44-3.12-.84zm.74-9.4c0 2.24 1.5 3.44 3.02 3.44 1.76 0 3.12-1.16 3.68-2.68-.04-2.52-1.36-4.12-3.44-4.12-2.04 0-3.26 1.4-3.26 3.36z"/><path fill="#F584D5" d="M0 72h311v72H0z"/><path fill="#FAFAFF" d="M116.845 107.24l-.4 3.04h2.7l.42-3.04h-2.72zm-.56 4.16l-.62 4.6h-1.24l.62-4.6h-1.98v-1.12h2.14l.4-3.04h-1.98v-1.12h2.14l.62-4.56h1.24l-.62 4.56h2.72l.6-4.56h1.24l-.6 4.56h1.88v1.12h-2.04l-.42 3.04h1.9v1.12h-2.06l-.62 4.6h-1.24l.62-4.6h-2.7zm10.03-9.84h8.56v1.36h-6.96v4.84h5.16v1.36h-5.16V116h-1.6v-14.44zm19.39 0v1.24h-6.2l-.36 4.62c.94-.86 1.94-1.18 2.96-1.18 2.4 0 4.62 1.64 4.62 4.88 0 2.2-1.32 5.08-5 5.08-2.46 0-3.7-1.36-4.6-2.76l1.3-.68c.7 1.3 1.82 2.2 3.34 2.2 1.9 0 3.44-1.12 3.44-3.84 0-2.12-1.24-3.64-3.24-3.64-1.4 0-2.46.84-3.04 2.18l-1.26-.28.64-7.82h7.4zm13.81 10.68c0 2.2-1.72 3.96-5.26 3.96s-5.26-1.76-5.26-3.96c0-1.84 1.44-3.12 3.16-3.92v-.04c-1.6-.6-2.56-1.82-2.56-3.32 0-2.36 2-3.6 4.66-3.6s4.66 1.24 4.66 3.6c0 1.5-.96 2.72-2.56 3.32v.04c1.72.62 3.16 1.96 3.16 3.92zm-9 0c0 1.28 1.12 2.72 3.74 2.72s3.74-1.44 3.74-2.72c0-1.68-1.72-2.52-4-3.28-1.76.76-3.48 1.6-3.48 3.28zm6.88-7.36c0-1.6-1.56-2.28-3.14-2.28s-3.14.68-3.14 2.28c0 1.56 1.96 2.44 3.14 2.78 1.6-.4 3.14-1.38 3.14-2.78zm14.55 7.72h-2.48v3.4h-1.44v-3.4h-6.64v-1.24l5.96-9.8h2.12v9.8h2.48v1.24zm-3.98-9.52l-5.06 8.28h5.12v-8.28h-.06zm8.73-.16v11.72h2.16c3.32 0 5.04-1.98 5.04-5.86 0-4.22-2-5.86-4.96-5.86h-2.24zm-1.6 13.08v-14.44h3.88c3.92 0 6.52 2.48 6.52 7.22 0 4.24-2.28 7.22-6.6 7.22h-3.8zm21.61-14.44v1.24h-6.2l-.36 4.62c.94-.86 1.94-1.18 2.96-1.18 2.4 0 4.62 1.64 4.62 4.88 0 2.2-1.32 5.08-5 5.08-2.46 0-3.7-1.36-4.6-2.76l1.3-.68c.7 1.3 1.82 2.2 3.34 2.2 1.9 0 3.44-1.12 3.44-3.84 0-2.12-1.24-3.64-3.24-3.64-1.4 0-2.46.84-3.04 2.18l-1.26-.28.64-7.82h7.4z"/><path fill="#F56796" d="M0 546h311v72H0z"/><path fill="#FAFAFF" d="M117.405 581.24l-.4 3.04h2.7l.42-3.04h-2.72zm-.56 4.16l-.62 4.6h-1.24l.62-4.6h-1.98v-1.12h2.14l.4-3.04h-1.98v-1.12h2.14l.62-4.56h1.24l-.62 4.56h2.72l.6-4.56h1.24l-.6 4.56h1.88v1.12h-2.04l-.42 3.04h1.9v1.12h-2.06l-.62 4.6h-1.24l.62-4.6h-2.7zm10.03-9.84h8.56v1.36h-6.96v4.84h5.16v1.36h-5.16V590h-1.6v-14.44zm19.39 0v1.24h-6.2l-.36 4.62c.94-.86 1.94-1.18 2.96-1.18 2.4 0 4.62 1.64 4.62 4.88 0 2.2-1.32 5.08-5 5.08-2.46 0-3.7-1.36-4.6-2.76l1.3-.68c.7 1.3 1.82 2.2 3.34 2.2 1.9 0 3.44-1.12 3.44-3.84 0-2.12-1.24-3.64-3.24-3.64-1.4 0-2.46.84-3.04 2.18l-1.26-.28.64-7.82h7.4zm12.69.64l-.62 1.22c-.66-.52-1.34-.82-2.46-.82-2.28 0-4.4 1.88-4.44 6.04.88-.92 1.96-1.72 3.96-1.72 2.16 0 4.34 1.52 4.34 4.64 0 3.08-2.26 4.64-4.66 4.64-3 0-5.16-1.76-5.16-6.68 0-4.56 2.04-8.16 5.92-8.16 1.56 0 2.7.44 3.12.84zm-.74 9.4c0-2.24-1.5-3.44-3.02-3.44-1.76 0-3.6 1.44-3.72 3.08.08 2.04 1.4 3.72 3.48 3.72 2.04 0 3.26-1.4 3.26-3.36zm11.77-8.8h-7.32v-1.24h9.16v.88l-6.1 13.56h-1.68l5.94-13.2zm5.65 12.56l.62-1.22c.66.52 1.34.82 2.46.82 2.28 0 4.26-2.04 4.44-6.04-.88.92-1.96 1.72-3.96 1.72-2.16 0-4.34-1.52-4.34-4.64 0-3.08 2.26-4.64 4.66-4.64 3 0 5.16 1.76 5.16 6.68 0 4.56-2.04 8.16-5.92 8.16-1.56 0-2.7-.44-3.12-.84zm.74-9.4c0 2.24 1.5 3.44 3.02 3.44 1.76 0 3.12-1.16 3.68-2.68-.04-2.52-1.36-4.12-3.44-4.12-2.04 0-3.26 1.4-3.26 3.36zm19.99-3.76l-.62 1.22c-.66-.52-1.34-.82-2.46-.82-2.28 0-4.4 1.88-4.44 6.04.88-.92 1.96-1.72 3.96-1.72 2.16 0 4.34 1.52 4.34 4.64 0 3.08-2.26 4.64-4.66 4.64-3 0-5.16-1.76-5.16-6.68 0-4.56 2.04-8.16 5.92-8.16 1.56 0 2.7.44 3.12.84zm-.74 9.4c0-2.24-1.5-3.44-3.02-3.44-1.76 0-3.6 1.44-3.72 3.08.08 2.04 1.4 3.72 3.48 3.72 2.04 0 3.26-1.4 3.26-3.36z"/><path fill="#F55B7F" d="M0 618h311v72H0z"/><path fill="#FAFAFF" d="M117.395 653.24l-.4 3.04h2.7l.42-3.04h-2.72zm-.56 4.16l-.62 4.6h-1.24l.62-4.6h-1.98v-1.12h2.14l.4-3.04h-1.98v-1.12h2.14l.62-4.56h1.24l-.62 4.56h2.72l.6-4.56h1.24l-.6 4.56h1.88v1.12h-2.04l-.42 3.04h1.9v1.12h-2.06l-.62 4.6h-1.24l.62-4.6h-2.7zm10.03-9.84h8.56v1.36h-6.96v4.84h5.16v1.36h-5.16V662h-1.6v-14.44zm19.39 0v1.24h-6.2l-.36 4.62c.94-.86 1.94-1.18 2.96-1.18 2.4 0 4.62 1.64 4.62 4.88 0 2.2-1.32 5.08-5 5.08-2.46 0-3.7-1.36-4.6-2.76l1.3-.68c.7 1.3 1.82 2.2 3.34 2.2 1.9 0 3.44-1.12 3.44-3.84 0-2.12-1.24-3.64-3.24-3.64-1.4 0-2.46.84-3.04 2.18l-1.26-.28.64-7.82h7.4zm12.47 0v1.24h-6.2l-.36 4.62c.94-.86 1.94-1.18 2.96-1.18 2.4 0 4.62 1.64 4.62 4.88 0 2.2-1.32 5.08-5 5.08-2.46 0-3.7-1.36-4.6-2.76l1.3-.68c.7 1.3 1.82 2.2 3.34 2.2 1.9 0 3.44-1.12 3.44-3.84 0-2.12-1.24-3.64-3.24-3.64-1.4 0-2.46.84-3.04 2.18l-1.26-.28.64-7.82h7.4zm4.61 14.44v-14.44h5.32c2.52 0 4.04 1.6 4.04 3.56 0 1.58-.7 2.72-2.44 3.32l.02.04c1.62.4 2.78 1.84 2.78 3.64 0 2.16-1.32 3.88-5.24 3.88h-4.48zm1.6-6.88v5.52h3c2.36 0 3.52-.8 3.52-2.6 0-1.84-1.48-2.92-3.76-2.92h-2.76zm0-6.2v4.84h2.8c2.42 0 3.36-1.24 3.36-2.46 0-1.62-.88-2.38-2.72-2.38h-3.44zm18.63-.12h-7.32v-1.24h9.16v.88l-6.1 13.56h-1.68l5.94-13.2zm5.67-1.24h8.56v1.36h-6.96v4.84h5.16v1.36h-5.16V662h-1.6v-14.44zm-72.39-468.32l-.4 3.04h2.7l.42-3.04h-2.72zm-.56 4.16l-.62 4.6h-1.24l.62-4.6h-1.98v-1.12h2.14l.4-3.04h-1.98v-1.12h2.14l.62-4.56h1.24l-.62 4.56h2.72l.6-4.56h1.24l-.6 4.56h1.88v1.12h-2.04l-.42 3.04h1.9v1.12h-2.06l-.62 4.6h-1.24l.62-4.6h-2.7zm10.03-9.84h8.56v1.36h-6.96v4.84h5.16v1.36h-5.16V188h-1.6v-14.44zm19.39 0v1.24h-6.2l-.36 4.62c.94-.86 1.94-1.18 2.96-1.18 2.4 0 4.62 1.64 4.62 4.88 0 2.2-1.32 5.08-5 5.08-2.46 0-3.7-1.36-4.6-2.76l1.3-.68c.7 1.3 1.82 2.2 3.34 2.2 1.9 0 3.44-1.12 3.44-3.84 0-2.12-1.24-3.64-3.24-3.64-1.4 0-2.46.84-3.04 2.18l-1.26-.28.64-7.82h7.4zm11.25 1.24h-7.32v-1.24h9.16v.88l-6.1 13.56h-1.68l5.94-13.2zm13.69-1.24v1.24h-6.2l-.36 4.62c.94-.86 1.94-1.18 2.96-1.18 2.4 0 4.62 1.64 4.62 4.88 0 2.2-1.32 5.08-5 5.08-2.46 0-3.7-1.36-4.6-2.76l1.3-.68c.7 1.3 1.82 2.2 3.34 2.2 1.9 0 3.44-1.12 3.44-3.84 0-2.12-1.24-3.64-3.24-3.64-1.4 0-2.46.84-3.04 2.18l-1.26-.28.64-7.82h7.4zm4.61 14.44v-14.44h5.32c2.52 0 4.04 1.6 4.04 3.56 0 1.58-.7 2.72-2.44 3.32l.02.04c1.62.4 2.78 1.84 2.78 3.64 0 2.16-1.32 3.88-5.24 3.88h-4.48zm1.6-6.88v5.52h3c2.36 0 3.52-.8 3.52-2.6 0-1.84-1.48-2.92-3.76-2.92h-2.76zm0-6.2v4.84h2.8c2.42 0 3.36-1.24 3.36-2.46 0-1.62-.88-2.38-2.72-2.38h-3.44zm20.07-.72l-.62 1.22c-.66-.52-1.34-.82-2.46-.82-2.28 0-4.4 1.88-4.44 6.04.88-.92 1.96-1.72 3.96-1.72 2.16 0 4.34 1.52 4.34 4.64 0 3.08-2.26 4.64-4.66 4.64-3 0-5.16-1.76-5.16-6.68 0-4.56 2.04-8.16 5.92-8.16 1.56 0 2.7.44 3.12.84zm-.74 9.4c0-2.24-1.5-3.44-3.02-3.44-1.76 0-3.6 1.44-3.72 3.08.08 2.04 1.4 3.72 3.48 3.72 2.04 0 3.26-1.4 3.26-3.36z"/></g></svg>