<svg xmlns="http://www.w3.org/2000/svg" width="600" height="233"><g fill="none" fill-rule="evenodd"><path fill="#8B949B" d="M4.14 16L.32 1.56h1.34L4.74 13.6h.04L7.66 1.56h1.32L11.8 13.6h.04l3.14-12.04h1.34L12.46 16h-1.32L8.32 4.12h-.04L5.46 16H4.14zm22.034-5.16h-7.24c0 2.36.98 4.4 3.34 4.4 1.34 0 2-.46 3.04-2.1l.98.52c-1.12 1.84-2.14 2.54-4.12 2.54-2.72 0-4.44-1.74-4.44-5.4 0-3.22 1.64-5.4 4.28-5.4 2.82 0 4.16 2.22 4.16 5.44zm-7.24-.96h6.04c-.24-2.14-1.18-3.5-3-3.52-2.12-.02-3.02 2.14-3.04 3.52zM29.57 16V1.56h1.2v5.4c1.02-1.08 1.86-1.56 3.26-1.56 2.42 0 4.1 2.28 4.1 5.34 0 3.54-1.48 5.46-4.18 5.46-1.42 0-2.58-.48-3.34-1.56l-.2 1.36h-.84zm1.2-7.78v5.12c.78 1.08 1.64 1.9 3.12 1.9 2.08 0 3.04-1.88 3.04-4.28 0-2.7-1.06-4.6-3.22-4.6-1.18 0-2.54 1.16-2.94 1.86zM2 31.56h1.32v9.84c0 2.76 1.34 3.72 3.9 3.72 2.56 0 3.9-.96 3.9-3.72v-9.84h1.32v9.72c0 3.28-1.72 4.92-5.22 4.92S2 44.56 2 41.28v-9.72zM17.994 46h-1.2V35.6h1.2v1.64c1.12-1.16 2.04-1.84 3.56-1.84 2.16 0 3.08 1.24 3.08 3.5V46h-1.2v-6.98c0-1.72-.52-2.66-2.12-2.66-1.28 0-2 .78-3.32 1.98V46zM29.81 35.6V46h-1.2V35.6h1.2zm0-2.28h-1.2v-1.76h1.2v1.76zM35.983 46l-3.56-10.4h1.28l2.84 8.56h.04l2.88-8.56h1.28L37.163 46h-1.18zm14.914-5.16h-7.24c0 2.36.98 4.4 3.34 4.4 1.34 0 2-.46 3.04-2.1l.98.52c-1.12 1.84-2.14 2.54-4.12 2.54-2.72 0-4.44-1.74-4.44-5.4 0-3.22 1.64-5.4 4.28-5.4 2.82 0 4.16 2.22 4.16 5.44zm-7.24-.96h6.04c-.24-2.14-1.18-3.5-3-3.52-2.12-.02-3.02 2.14-3.04 3.52zM55.211 46h-1.2V35.6h1.2v1.98h.04c.56-1.28 1.68-2.18 3-2.18h.54v1.16h-.54c-1.32 0-3.04 1.56-3.04 3.56V46zm5.115-1.9l.88-.62c.98 1.4 1.86 1.76 3.22 1.76 1.32 0 2.32-.86 2.32-1.98 0-3.02-6.12-1.32-6.12-5.02 0-1.96 1.54-2.84 3.3-2.84 1.74 0 2.84.68 3.58 1.88l-.92.64c-.7-.96-1.46-1.56-2.7-1.56-1.16 0-2.06.56-2.06 1.82 0 2.54 6.12 1.04 6.12 5.08 0 1.86-1.72 2.94-3.6 2.94-1.6 0-3.04-.64-4.02-2.1z"/><path fill="#222" d="M4.08 225l36.48-86.64H53.4L88.44 225H75.36L66 202.44H25.8L16.44 225H4.08zm42.36-74.76l-16.8 42.48H62.4l-15.96-42.48zM152.12 225h-10.2c-.84-3-1.08-5.88-1.08-9-5.4 9.96-13.56 10.92-18.6 10.92-13.8 0-21.24-7.8-21.24-17.76 0-4.8 1.68-12.48 10.56-17.64 6.48-3.6 16.08-3.96 20.88-3.96 2.88 0 4.68.12 8.16.36 0-7.44 0-10.68-2.16-13.32-2.28-3-7.2-3.96-10.44-3.96-11.4 0-12 7.8-12.12 10.2H104.6c.36-3.12.72-7.32 4.2-11.4 4.56-5.04 13.08-6.48 19.44-6.48 8.76 0 18.12 2.76 21.36 8.88 1.92 3.6 2.04 6.48 2.04 9.24l-.48 28.8c0 .96.12 9 .96 15.12zm-11.52-29.28c-2.04-.24-3.72-.36-6.48-.36-4.56 0-21.72 0-21.72 12.24 0 3.84 2.4 10.44 12.48 10.44 5.76 0 10.08-2.28 12.84-6.48 2.52-4.08 2.64-7.44 2.88-15.84zM194.36 30l12.16-28.88h4.28L222.48 30h-4.36L215 22.48h-13.4L198.48 30h-4.12zm14.12-24.92l-5.6 14.16h10.92l-5.32-14.16zM242.04 30h-3.4c-.28-1-.36-1.96-.36-3-1.8 3.32-4.52 3.64-6.2 3.64-4.6 0-7.08-2.6-7.08-5.92 0-1.6.56-4.16 3.52-5.88 2.16-1.2 5.36-1.32 6.96-1.32.96 0 1.56.04 2.72.12 0-2.48 0-3.56-.72-4.44-.76-1-2.4-1.32-3.48-1.32-3.8 0-4 2.6-4.04 3.4h-3.76c.12-1.04.24-2.44 1.4-3.8 1.52-1.68 4.36-2.16 6.48-2.16 2.92 0 6.04.92 7.12 2.96.64 1.2.68 2.16.68 3.08l-.16 9.6c0 .32.04 3 .32 5.04zm-3.84-9.76c-.68-.08-1.24-.12-2.16-.12-1.52 0-7.24 0-7.24 4.08 0 1.28.8 3.48 4.16 3.48 1.92 0 3.36-.76 4.28-2.16.84-1.36.88-2.48.96-5.28zM260.04 30V1.12h10.32c3.52 0 5.48.36 7.28 2.12 1.24 1.2 2.04 2.88 2.04 5.16 0 4.76-3.48 6-4.88 6.52 1.68.48 5.76 1.68 5.76 7.2 0 3.92-2.52 5.92-3.48 6.56-2 1.32-4.24 1.32-6.52 1.32h-10.52zm3.88-25.6v8.92h5.6c1.36 0 6 0 6-4.56 0-4.36-3.64-4.36-5.84-4.36h-5.76zm0 12.36v10h6.84c3.16 0 5.68-1.68 5.68-5 0-2.88-2-5-5.52-5h-7zM290.2 1.12v11.72c.52-.92 2-3.44 6.56-3.44 2 0 4.52.48 6.36 2.56 1 1.16 2.36 3.16 2.36 7.56 0 3.88-.92 6-1.92 7.32-1.6 2.28-4.28 3.44-7.04 3.44-.96 0-2.76-.12-4.48-1.28-1.12-.76-1.56-1.44-1.96-2.04L290 30h-3.64l.08-3.6V1.12h3.76zm11.32 18.64c0-2-.4-7.8-5.64-7.8-5.76 0-5.76 6.72-5.76 8 0 1.32 0 7.6 5.6 7.6 4.64 0 5.8-4.52 5.8-7.8zm42.16-10.84h-4.28c-.16-1-.68-5-6.24-5-6.96 0-8.2 7.12-8.2 11.92 0 5.44 1.56 11.32 8.16 11.32 1.76 0 3.44-.44 4.68-1.72 1.04-1.12 1.28-2.36 1.4-3.04h4.4c-.6 5.68-5.84 8.04-10.8 8.04-10.16 0-12.12-8.96-12.12-14.56 0-6.08 2.36-15.16 12.64-15.16 4.08 0 9.84 1.64 10.36 8.2zm20.24 7.44h-3.8c-.08-.92-.36-4.2-4-4.2-5.2 0-5.2 6.04-5.2 7.56 0 4.12 1 7.96 5 7.96 3.2 0 4.28-2.4 4.36-4.36h3.8c-.24 3.92-3.16 7.2-8.12 7.2-1.36 0-4.48-.28-6.6-2.6-1.2-1.4-2.4-3.52-2.4-7.68 0-8.36 5.12-10.84 9.12-10.84 1.32 0 4.32.28 6.16 2.48 1.48 1.72 1.6 3.36 1.68 4.48zM379.8 30V1.12h8.36c3.88 0 8.44 0 11.64 3.76 2.56 3 3.56 6.96 3.56 10.92 0 6.24-2.6 10.08-4.8 11.84-2.84 2.36-6.4 2.36-10.64 2.36h-8.12zm4-25.56v22.28h3.92c2.76 0 5.64-.16 7.56-1.6 3.68-2.76 3.8-7.48 3.8-9.16 0-1.08-.08-6-2.8-9-1.84-2.04-4.16-2.52-7.68-2.52h-4.8zm38.8 8.2V1.16h3.76V26.8c0 .44.08 2.16.16 3.2h-3.76l-.08-3.2c-.32.56-.76 1.4-1.8 2.12-1.64 1.12-3.6 1.48-4.96 1.48-2.68 0-8.64-1.4-8.64-10.2 0-7.64 4.36-10.96 9.08-10.96 4.32 0 5.76 2.56 6.24 3.4zm.12 7.04c0-2.92-.68-4.52-1.52-5.6-.8-1.04-2.28-2.04-4.4-2.04-5.52 0-5.52 6.68-5.52 8.04 0 3.56.92 7.68 5.52 7.68 5.92 0 5.92-6.52 5.92-8.08zM443.76 30V1.12h18.12v3.4h-14.12v9h13.44v3.36h-13.44v9.6h14.44V30h-18.44zm41.64-9.36h-14.44c-.08 4.16 1.64 7.24 5.76 7.24 2.44 0 4.4-1.28 4.72-4.16h3.76c-.12 1-.28 2.64-1.72 4.2-.88 1-2.88 2.68-6.92 2.68-6.32 0-9.32-3.92-9.32-10.28 0-3.96.8-7.24 3.96-9.44 1.92-1.36 4.32-1.48 5.48-1.48 9 0 8.8 7.96 8.72 11.24zM471.12 18h10.44c.04-1.92-.32-5.92-4.96-5.92-2.44 0-5.4 1.48-5.48 5.92zm31.2 12V1.12h17.2v3.4H506.4v9h12.36v3.36H506.4V30h-4.08zm32-29.08v3c-.64-.04-1.44-.08-2.2-.08-3.04 0-3.04 1.52-3.04 2.92v3.16h4.68v2.72h-4.68V30h-3.72V12.64h-3.96V9.92h3.96V7.64c0-2.76.16-3.76.84-4.8.84-1.28 2.44-2.2 5.04-2.2 1.08 0 2.28.16 3.08.28zm38.32 7.4h-4.36c-.44-2.68-2.6-4.52-6.52-4.52-2.72 0-5 .72-6.52 2.44-2.52 2.8-3.08 6.56-3.08 9.28 0 2.44.52 6.56 2.64 9.08 1.88 2.16 4.8 2.84 7.68 2.84 3.28 0 5.36-.64 6.28-.92v-8.56h-6.6v-3.32h10.6v14.24c-1.68.56-5.36 1.76-10.28 1.76-5.32 0-8.44-1.52-10.48-3.6-2.84-2.88-4.04-6.92-4.04-11 0-2.88.72-9.68 6.2-13.36C557 .76 560.76.64 562.2.64c2.28 0 5.76.28 8.52 3.08 1.72 1.8 1.84 3.48 1.92 4.6zm6.8 23.24h4c.16 2.24 1.12 3.92 4.68 3.92 5.24 0 5.32-3.8 5.32-9.24-1.6 3.32-5.4 3.4-6.6 3.4-1.84 0-4.48-.4-6.16-2.48-1.72-2.04-2.28-4.72-2.28-7.4 0-6.8 4-10.12 8.92-10.12 4.04 0 5.52 2 6.32 3.04l.04-2.76h3.64l-.08 3.64-.04 12.56c0 4.84-.16 6.8-.96 8.32-1.68 3.2-5.6 3.6-8.36 3.6-8.04 0-8.28-3.76-8.44-6.48zm8.36-4.72c2.2 0 3.48-.8 4.4-2 .8-1.04 1.36-2.12 1.36-5.76 0-2.52-.56-3.96-1.56-5-1-1.08-2.6-1.76-4.32-1.76-4.76 0-5.4 4.8-5.4 7.36 0 3.08.92 7.16 5.52 7.16zM197.52 66.12h4v12.4h13.72v-12.4h4V95h-4V81.96h-13.72V95h-4V66.12zM226.4 95V66.16h3.8v11.72c1.24-2.12 3.72-3.32 6.52-3.32 2.12 0 5.16.76 6.32 3.2.4.8.68 1.76.68 4.68V95h-3.84V83.12c0-1.8 0-5.68-4.32-5.68-2.8 0-4.2 1.72-4.72 2.68-.64 1.12-.64 3-.64 4.24V95h-3.8zm35.56 0V66.12h4V95h-4zm10.76-24.68V66.2h4.52v4.12h-4.52zm.4 24.68V74.92h3.76V95h-3.76zm19.52-7.84h4.24c.04 1 .04 2.24.64 3.16.48.76 1.68 1.76 3.72 1.76 1.64 0 3.16-.68 4-2.04.68-1.16.68-3 .68-3.88V66.12h4v21.12c0 5.32-4.2 8.2-8.96 8.2-1.52 0-4.88-.36-6.88-3-1.36-1.84-1.44-4.12-1.44-5.28zm24.68-16.8V66.2h4.56v4.16h-4.56zM314 102.72v-2.68c2.96.12 3.68-.4 3.68-3.6V74.92h3.76v21.96c0 1.92-.08 6-5.12 6-.48 0-1.28-.04-2.32-.16zM340 95V66.12h3.96v12.64L356 66.12h5.48l-12.92 12.92L362.88 95h-5.6l-13.32-15.32V95H340zm26.2 0V65.92h3.72v17.2l7.52-8.2h4.92l-8.48 8.52 9 11.56h-4.92l-8.04-10.84V95h-3.72zm31.6 0V66.12h3.96v25.32h13.44V95h-17.4zm22.12 0V66.16h3.76V95h-3.76zm22.24 0V66.12h7.08l8.16 23.8 8.36-23.8h6.6V95h-3.92V69l-9.48 26h-3.8l-9.12-25.84V95h-3.88zm37.64 0V77.6l-.08-2.68h3.8v2.92c1.92-3.16 4.64-3.44 6.36-3.44 4.44 0 5.84 2.28 6.56 3.76.68-1.12 2.32-3.76 6.76-3.76 2.88 0 7.36 1.2 7.36 7.12V95h-3.8V82.12c0-1.76-.32-2.52-.68-3.04-.64-.92-1.92-1.76-3.84-1.76-2.44 0-3.76 1.4-4.28 2.12-.88 1.24-.88 3.44-.88 4.32V95h-3.8V81.72c0-2.48-1.44-4.4-4.4-4.4-2.56 0-3.96 1.6-4.4 2.2-.84 1.16-.88 2.8-.88 4.08V95h-3.8zm49.2 0V66.12h5.56L548.76 90V66.12h3.68V95h-5.12l-14.68-24.52V95H529zm30.96 0V77.24l-.04-2.32h3.76l.04 3.24c.44-.84 1.88-3.64 6.44-3.64 1.8 0 7.28.68 7.28 6.84V95h-3.84V82.24c0-1.32-.16-2.52-1.08-3.44-.96-.92-2.28-1.36-3.56-1.36-2.72 0-5.24 1.96-5.24 6V95h-3.76zm-363.6 50.76c0-3.28.56-8.12 3.72-11.52 3-3.24 6.96-3.88 9.64-3.88 8 0 13.04 5.12 13.04 14.92 0 7.68-3.08 15.4-13.36 15.4-9.84 0-13.04-7-13.04-14.92zm4.2-.24c0 3.16.56 6.64 2.56 9.12 1.64 2.04 4.12 2.64 6.4 2.64 2.36 0 4.72-.64 6.4-2.64 2.36-2.88 2.6-7.44 2.6-9.4 0-6.56-2.16-11.52-8.76-11.52-7.32 0-9.2 5.88-9.2 11.8zm26.6 4.68c0-4.96 2.32-10.8 10.2-10.8 8.04 0 9.84 6.32 9.84 10.52 0 5.88-3.32 10.76-10.16 10.76-6.64 0-9.88-4.6-9.88-10.48zm3.92-.24c0 4.12 1.76 7.92 6.04 7.92 2.84 0 6.08-2.04 6.08-8.08 0-5-2.32-7.64-5.84-7.64-2.4 0-6.28 1.52-6.28 7.8zM264.2 160v-28.88h9.68c3.52 0 5.92.2 7.88 2.32 1.44 1.48 2.12 3.44 2.12 5.6 0 2.2-.72 4.08-2.28 5.64-1.52 1.52-3.52 2.48-8.72 2.48h-4.68V160h-4zm4-25.64v9.44h4.76c2.64 0 6.68-.2 6.68-4.92 0-4.52-3.76-4.52-5.84-4.52h-5.6zm20.32 33.36V143.2c0-.88-.04-1.36-.12-3.28h3.8l.08 3.32c1.88-3.16 5.2-3.64 6.84-3.64 4.32 0 8.44 2.96 8.44 10.4 0 7.48-4.36 10.76-9.16 10.76-2.92 0-5.08-1.24-6.16-3v9.96h-3.72zm3.6-17.16c0 2.44.36 7.44 5.64 7.44.96 0 2.96-.2 4.24-1.96 1.44-1.96 1.64-4.84 1.64-6.28 0-3.6-1.08-7.36-5.52-7.36-6 0-6 6.36-6 8.16zm58.72 6.28V160h-4.8c-.56 0-3.44.04-5.36.2-1.96.2-4.28.4-5.24.4-6.88 0-12.44-4.6-12.44-14.84 0-3.44.6-8.08 3.6-11.4 2.44-2.68 6.04-3.92 9.68-3.92 9.6 0 12.52 7.64 12.52 14.56 0 2.8-.32 8.52-5.24 12.4.96-.2 2.52-.56 5.16-.56h2.12zm-23.6-11c0 4.76 1.72 11.64 8.6 11.64 8.24 0 8.88-8.8 8.88-11.8 0-7.44-3.2-11.92-8.8-11.92-8 0-8.68 8.92-8.68 12.08zm41.92-5.92h3.8c-.04.8-.08 2.56-.08 3.28v24.52h-3.8v-9.96c-.32.48-.72 1.12-1.64 1.72-1.68 1.16-3.6 1.28-4.52 1.28-4.88 0-9.16-3.44-9.16-10.88 0-7.4 4.2-10.28 8.44-10.28 4.08 0 5.96 2.24 6.84 3.64l.12-3.32zm.04 10.44c0-1.64 0-7.96-6.04-7.96-5.4 0-5.48 5.68-5.48 7.24 0 1.44.2 4.36 1.64 6.4.88 1.28 2.44 1.96 4.32 1.96 4.64 0 5.56-3.64 5.56-7.64zm21.6 9.64v-28.88h10.32c1.48 0 4.52 0 6.64 1.36 2.16 1.36 3.2 3.56 3.2 5.88 0 2.04-.76 3.84-2.04 5.12-1.24 1.24-2.52 1.64-3.4 1.88 2.76.72 4 1.96 4.4 5.56.4 3.4.68 5.88 1.8 9.08h-4.28c-.64-1.92-1.04-5.44-1.32-7.64-.48-4.2-1.48-5.4-6.32-5.4h-5.04V160h-3.96zm3.88-25.52v9.08H401c.44 0 2.72 0 3.8-.64.56-.32 1.96-1.36 1.96-3.76 0-4.68-4.16-4.68-5.76-4.68h-6.32zM417.76 160v-16c0-1.36-.08-2.76-.2-4.08h3.8l.08 3.88c.72-2.8 3.12-3.72 4.8-3.96 1.12-.16 1.96-.12 2.6-.08v3.68c-.2-.08-.44-.12-.72-.16-.28-.04-.64-.04-1.08-.04-4.44 0-5.48 2.64-5.48 6.08V160h-3.8zm25.2-8.44h4.16c.08 2 .32 5.72 6.96 5.72 6 0 6.76-3.72 6.76-5.16 0-3.24-2.6-3.88-6.64-4.88-4.4-1.08-6.36-1.56-7.84-2.56-2.36-1.6-3-3.76-3-5.68 0-5.88 5.56-8.44 11-8.44 1.92 0 5.8.32 8.12 2.84 1.6 1.76 1.68 3.72 1.76 4.92h-4.16c-.2-3.6-3.24-4.4-6.08-4.4-4 0-6.4 1.8-6.4 4.68 0 2.56 1.68 3.44 5.2 4.28 6.88 1.76 7.64 1.92 9.32 3.04 2.68 1.76 2.88 4.56 2.88 5.76 0 5.12-4 9-11.4 9-2.2 0-6.68-.36-8.96-3.28-1.64-2.12-1.68-4.44-1.68-5.84zm26.16 2.48h3.96c-.04 1.52.76 3.64 4.4 3.64 1.56 0 2.72-.28 3.52-1.28.4-.52.64-1.2.64-1.88 0-1.96-1.4-2.32-4.4-3-4.2-.96-7.72-1.8-7.72-6 0-3.68 3.2-6.08 7.84-6.08 2.52 0 6.04.72 7.24 3.12.52 1.12.52 2.08.52 2.92h-3.84c.12-3.04-2.52-3.28-3.88-3.28-.56 0-4.08 0-4.08 2.88 0 1.84 1.8 2.28 2.84 2.56 5.56 1.32 6.76 1.64 7.96 2.76 1.12 1.04 1.52 2.44 1.52 3.72 0 2.24-1.24 4.16-2.72 5.08-1.76 1.08-3.88 1.36-5.96 1.36-4.08 0-7.88-1.68-7.84-6.52zM513 160h-3.96v-25.48h-9.68v-3.4h23.32v3.4H513V160zm10.4-17.4v-2.76h3.56v-4.2l3.72-1.2v5.4h4.48v2.76h-4.48v12.04c0 1 0 2.68 2.68 2.68.76 0 1.48-.12 1.8-.2v2.92c-.68.12-1.76.24-3.12.24-3.44 0-5.08-1-5.08-4.28v-13.4h-3.56zm27.72-11.48h4V149c0 3.08.68 4.36 1.28 5.2 1.8 2.4 4.6 2.84 6.6 2.84 7.8 0 7.8-6.12 7.8-8.2v-17.72h3.88v17.8c0 1.56-.04 4.8-2.36 7.68-2.84 3.56-7.24 4-9.32 4-2.72 0-7.52-.76-10.2-4.6-.88-1.28-1.68-2.96-1.68-7.28v-17.6zm30.52 8.8h3.84v12.92c0 1.96.44 4.44 4.28 4.44 1.88 0 3.64-.64 4.72-2.24.84-1.2.84-2.76.84-3.76v-11.36h3.88v16.32c0 .4.08 2.64.12 3.76h-3.92l-.08-3.44c-.72 1.4-2.08 3.64-6.4 3.64-4.96 0-7.28-2.84-7.28-6.8v-13.48zm-361.76 56.2L209.24 225h-4.4l-10.28-28.88H199l8.2 24.68 8.64-24.68h4.04zm9.68 28.88l-8.4-20.08h4.2l6.4 15.92 6.24-15.92h4.16l-8.8 20.08h-3.8zm24.8-28.88h4.28l6.24 23.76 6.88-23.76h4.96l6.52 23.96 6.56-23.96h3.92L285.16 225h-4.44l-6.68-24.68-7.16 24.68h-4.32l-8.2-28.88zm40.16 8.8h4.12l4.84 16 5.08-16h4.92l4.56 15.84 5.04-15.84h3.88L319.88 225h-4.32l-4.72-16.52L305.6 225h-4.44l-6.64-20.08zm45.92-8.8h5.12l7.8 11.12 7.8-11.12H366l-10.28 13.84 10.8 15.04h-5.04l-8.6-12.4-8.8 12.4h-4.84l11.2-15.12-10-13.76zm40.32 18.6L388.6 225h-4.96l-5.72-8.04-5.68 8.04h-4.4l7.96-10.52-7.52-9.56h4.92l5.36 7.56 5.6-7.56h4.44l-7.84 9.8zM412.28 225v-11.36L401 196.12h4.96l8.52 14.16 8.64-14.16h4.48l-11.28 17.72V225h-4.04zm36.6-20.08l-8.92 20.2-2.88 7.48h-3.88l3.04-7.68-8.36-20h4.24l6.28 15.84 6.4-15.84h4.08zM462.16 225v-4l16.68-21.36H462.6v-3.52h21v3.96l-16.84 21.4h17.12V225h-21.72zm24.24 0v-3.88l10.72-13.36h-10.16v-2.84h14.44v3.2l-11.08 13.96h11.08V225h-15z"/></g></svg>