<svg xmlns="http://www.w3.org/2000/svg" width="604" height="231"><g fill="none" fill-rule="evenodd"><path fill="#8B949B" d="M.797 16V1.781h4.2c.722 0 1.37.073 1.942.22.573.146 1.06.371 1.46.674.4.303.708.688.923 1.157.215.469.323 1.025.323 1.67 0 .365-.05.708-.152 1.03-.1.322-.249.617-.444.884s-.431.5-.708.698c-.277.199-.591.357-.943.474a3.55 3.55 0 0 1 1.133.454 3.41 3.41 0 0 1 1.426 1.782c.13.371.195.762.195 1.172 0 .651-.109 1.226-.327 1.724a3.408 3.408 0 0 1-.928 1.255c-.4.338-.88.594-1.44.766A6.28 6.28 0 0 1 5.602 16H.797zm1.201-6.836v5.82h3.604c.52 0 .988-.068 1.4-.205a3.013 3.013 0 0 0 1.056-.586c.29-.254.51-.564.664-.932.153-.368.23-.783.23-1.245 0-.398-.066-.77-.196-1.119a2.397 2.397 0 0 0-.6-.908 2.85 2.85 0 0 0-1.016-.605c-.407-.147-.887-.22-1.44-.22H1.997zm0-1.006h3.281c1.003-.02 1.78-.255 2.33-.708.55-.452.825-1.111.825-1.977 0-.912-.285-1.584-.855-2.017-.57-.433-1.43-.65-2.583-.65H1.998v5.352zm10.851 2.403c0-.769.112-1.478.337-2.13a5.044 5.044 0 0 1 .952-1.684c.41-.472.905-.841 1.484-1.108.58-.267 1.224-.4 1.934-.4.723 0 1.375.133 1.958.4s1.08.636 1.49 1.108c.41.472.725 1.034.947 1.685.221.65.332 1.36.332 2.129v.322c0 .768-.111 1.478-.332 2.129a4.979 4.979 0 0 1-.948 1.684c-.41.472-.905.84-1.484 1.104-.58.263-1.227.395-1.943.395-.717 0-1.364-.132-1.944-.395a4.351 4.351 0 0 1-1.489-1.104 4.998 4.998 0 0 1-.957-1.684 6.488 6.488 0 0 1-.337-2.13v-.321zm1.172.322c0 .58.078 1.131.234 1.655.157.524.384.983.684 1.377.3.394.67.708 1.113.942.443.235.95.352 1.524.352.573 0 1.079-.117 1.518-.352.44-.234.81-.548 1.109-.942.299-.394.527-.853.683-1.377a5.763 5.763 0 0 0 .235-1.655v-.322c0-.567-.079-1.112-.235-1.636a4.322 4.322 0 0 0-.683-1.382 3.363 3.363 0 0 0-1.119-.952c-.446-.238-.955-.357-1.528-.357-.566 0-1.07.12-1.509.357-.44.237-.809.555-1.108.952-.3.397-.527.858-.684 1.382a5.695 5.695 0 0 0-.234 1.636v.322zm10.92-.264c0-.82.094-1.56.282-2.222.19-.66.46-1.225.811-1.694a3.63 3.63 0 0 1 1.284-1.084c.505-.254 1.073-.38 1.704-.38.749 0 1.392.149 1.929.449.537.299.981.712 1.333 1.24V1h1.162v15h-1.094l-.048-1.406a3.71 3.71 0 0 1-1.343 1.177c-.544.283-1.196.424-1.958.424a3.573 3.573 0 0 1-1.69-.395 3.77 3.77 0 0 1-1.279-1.104c-.352-.472-.622-1.036-.81-1.694a7.874 7.874 0 0 1-.284-2.178v-.205zm1.18.205c0 .619.063 1.193.186 1.724.124.53.313.991.567 1.382.254.39.574.696.962.918.387.221.848.332 1.382.332.397 0 .756-.048 1.079-.142a2.896 2.896 0 0 0 1.514-1.001c.185-.234.343-.488.473-.762v-4.96a4.736 4.736 0 0 0-.43-.772 2.92 2.92 0 0 0-1.484-1.118 3.426 3.426 0 0 0-1.133-.171c-.54 0-1.006.112-1.396.337-.39.224-.713.532-.967.923-.254.39-.443.853-.567 1.386a7.602 7.602 0 0 0-.185 1.72v.204zm14.465 3.496l3.086-8.886h1.26l-4.473 12.255c-.09.241-.206.512-.346.811-.14.3-.323.58-.547.84-.225.26-.505.48-.84.659-.335.18-.744.269-1.226.269-.065 0-.14-.005-.224-.015a6.782 6.782 0 0 1-.254-.034 3.97 3.97 0 0 1-.42-.088l-.01-.967c.078.013.184.026.317.04a2.59 2.59 0 0 0 1.118-.103c.242-.082.451-.202.63-.362.18-.16.337-.36.474-.6.137-.241.26-.518.371-.83l.508-1.397-3.984-10.478h1.279l3.281 8.886zM11.334 46h-1.211v-6.816H1.998V46H.797V31.781h1.201v6.387h8.125v-6.387h1.211V46zm10.724 0a3.357 3.357 0 0 1-.151-.669 9.257 9.257 0 0 1-.074-.806 4.152 4.152 0 0 1-1.435 1.172 4.701 4.701 0 0 1-2.148.498 4.15 4.15 0 0 1-1.402-.224c-.42-.15-.778-.36-1.074-.63a2.846 2.846 0 0 1-.933-2.144c0-.514.11-.978.332-1.391a3.01 3.01 0 0 1 .957-1.055c.417-.29.923-.511 1.519-.664a8.078 8.078 0 0 1 2.007-.23h2.168v-1.2c0-.756-.233-1.35-.699-1.783-.465-.433-1.144-.65-2.036-.65-.41 0-.787.056-1.133.167a2.86 2.86 0 0 0-.893.459 2.18 2.18 0 0 0-.586.678 1.7 1.7 0 0 0-.21.826l-1.172-.01c0-.397.098-.781.293-1.153.195-.37.47-.701.825-.99.355-.29.782-.523 1.28-.699a4.946 4.946 0 0 1 1.655-.264c.56 0 1.076.072 1.548.215.472.143.877.358 1.216.645.338.286.602.644.79 1.074.19.43.284.93.284 1.504v5.117c0 .182.006.371.02.566.012.196.033.384.063.567.03.182.063.356.102.522.04.166.085.311.137.435V46h-1.25zm-3.672-.84c.423 0 .816-.054 1.177-.161.361-.107.688-.256.981-.444.293-.19.547-.409.762-.66a3.32 3.32 0 0 0 .518-.815v-2.324h-2.002a7.27 7.27 0 0 0-1.607.161c-.472.107-.87.262-1.196.464a2.19 2.19 0 0 0-.747.737c-.173.29-.259.617-.259.982 0 .286.055.555.166.805.11.25.269.469.474.655.205.185.454.332.747.439.293.107.622.161.986.161zm13.312-8.73a4.365 4.365 0 0 0-.79-.069c-.398 0-.756.059-1.075.176-.32.117-.6.282-.845.493-.244.212-.45.463-.615.752a4.17 4.17 0 0 0-.396.962V46h-1.162V35.434h1.143l.02 1.68a3.497 3.497 0 0 1 1.166-1.373c.492-.335 1.096-.503 1.812-.503.143 0 .29.013.44.04.15.025.26.055.331.087l-.029 1.065zm3.625-.996l.039 1.718c.175-.286.379-.548.61-.786.231-.237.49-.44.776-.605.287-.166.6-.295.938-.386a4.194 4.194 0 0 1 1.094-.137c.774 0 1.438.163 1.992.489.553.325.947.846 1.181 1.562.17-.293.373-.565.61-.815a3.84 3.84 0 0 1 .811-.65 4.129 4.129 0 0 1 1.001-.43 4.286 4.286 0 0 1 1.182-.156c.547 0 1.035.074 1.465.22.43.146.792.378 1.089.693.296.316.522.718.678 1.206.157.489.235 1.075.235 1.758V46h-1.172v-6.895c0-.56-.062-1.023-.186-1.391-.123-.368-.3-.66-.527-.879-.228-.218-.5-.37-.815-.454a4.01 4.01 0 0 0-1.04-.127c-.495.006-.928.096-1.3.268-.37.173-.685.391-.942.655a2.974 2.974 0 0 0-.6.884 2.98 2.98 0 0 0-.254.947V46h-1.172v-6.982c0-.528-.062-.967-.186-1.319a2.101 2.101 0 0 0-.527-.85 1.962 1.962 0 0 0-.815-.458 3.778 3.778 0 0 0-1.05-.137c-.443 0-.834.07-1.172.21-.339.14-.633.327-.884.561-.25.235-.457.502-.62.801a5.01 5.01 0 0 0-.39.928V46h-1.173V35.434h1.124zm16.73 5.127c0-.769.112-1.478.336-2.13a5.044 5.044 0 0 1 .953-1.684c.41-.472.904-.841 1.484-1.108.58-.267 1.224-.4 1.933-.4.723 0 1.376.133 1.958.4.583.267 1.08.636 1.49 1.108.41.472.726 1.034.947 1.685.221.65.332 1.36.332 2.129v.322c0 .768-.11 1.478-.332 2.129a4.979 4.979 0 0 1-.947 1.684c-.41.472-.905.84-1.485 1.104-.58.263-1.227.395-1.943.395s-1.364-.132-1.943-.395a4.351 4.351 0 0 1-1.49-1.104 4.998 4.998 0 0 1-.957-1.684 6.488 6.488 0 0 1-.337-2.13v-.321zm1.171.322c0 .58.078 1.131.235 1.655.156.524.384.983.683 1.377.3.394.67.708 1.114.942.442.235.95.352 1.523.352s1.08-.117 1.519-.352c.439-.234.808-.548 1.108-.942.3-.394.527-.853.684-1.377a5.763 5.763 0 0 0 .234-1.655v-.322c0-.567-.078-1.112-.234-1.636a4.322 4.322 0 0 0-.684-1.382 3.363 3.363 0 0 0-1.118-.952c-.446-.238-.956-.357-1.529-.357-.566 0-1.069.12-1.508.357-.44.237-.81.555-1.109.952-.3.397-.527.858-.683 1.382a5.695 5.695 0 0 0-.235 1.636v.322zm12.502-5.45l.039 1.807c.182-.3.392-.573.63-.82a3.834 3.834 0 0 1 2.817-1.182c.527 0 1 .072 1.416.215.417.143.77.371 1.06.684.29.312.51.714.664 1.206.153.491.23 1.085.23 1.782V46h-1.163v-6.885c0-.547-.059-1.002-.176-1.367-.117-.365-.283-.658-.498-.879a1.812 1.812 0 0 0-.786-.473 3.52 3.52 0 0 0-1.03-.142c-.417 0-.794.07-1.133.21-.339.14-.638.327-.898.561a3.74 3.74 0 0 0-.674.806 4.626 4.626 0 0 0-.45.933V46h-1.162V35.434h1.114zM77.622 46H76.45V35.434h1.172V46zm-1.377-13.623c0-.221.071-.409.215-.562.143-.153.338-.23.585-.23.248 0 .445.077.591.23.147.153.22.34.22.562a.765.765 0 0 1-.22.557c-.146.15-.343.224-.59.224-.248 0-.443-.075-.586-.224a.774.774 0 0 1-.215-.557zM88.18 46a3.357 3.357 0 0 1-.152-.669 9.257 9.257 0 0 1-.073-.806 4.152 4.152 0 0 1-1.435 1.172 4.701 4.701 0 0 1-2.148.498 4.15 4.15 0 0 1-1.402-.224c-.42-.15-.778-.36-1.074-.63a2.846 2.846 0 0 1-.933-2.144c0-.514.11-.978.332-1.391a3.01 3.01 0 0 1 .957-1.055c.417-.29.923-.511 1.519-.664a8.078 8.078 0 0 1 2.006-.23h2.168v-1.2c0-.756-.232-1.35-.698-1.783-.465-.433-1.144-.65-2.036-.65-.41 0-.788.056-1.133.167a2.86 2.86 0 0 0-.893.459 2.18 2.18 0 0 0-.586.678 1.7 1.7 0 0 0-.21.826l-1.172-.01c0-.397.097-.781.293-1.153.195-.37.47-.701.825-.99.355-.29.781-.523 1.28-.699a4.946 4.946 0 0 1 1.655-.264c.56 0 1.075.072 1.547.215.472.143.878.358 1.216.645.339.286.602.644.791 1.074.189.43.283.93.283 1.504v5.117c0 .182.007.371.02.566.013.196.034.384.063.567.03.182.064.356.103.522.039.166.085.311.137.435V46h-1.25zm-3.672-.84c.423 0 .815-.054 1.177-.161.36-.107.688-.256.981-.444.293-.19.547-.409.762-.66a3.32 3.32 0 0 0 .517-.815v-2.324h-2.002a7.27 7.27 0 0 0-1.606.161c-.472.107-.87.262-1.196.464a2.19 2.19 0 0 0-.747.737c-.173.29-.26.617-.26.982 0 .286.056.555.167.805.11.25.268.469.473.655.205.185.455.332.747.439.293.107.622.161.987.161zm22.327-2.656c0-.39-.064-.737-.19-1.04a2.183 2.183 0 0 0-.645-.83c-.303-.25-.702-.48-1.196-.689a16.065 16.065 0 0 0-1.856-.625 17.344 17.344 0 0 1-1.933-.659 6.048 6.048 0 0 1-1.46-.835 3.46 3.46 0 0 1-.928-1.103c-.218-.417-.327-.905-.327-1.465 0-.547.117-1.045.351-1.494.235-.45.563-.835.987-1.158a4.776 4.776 0 0 1 1.513-.752 6.559 6.559 0 0 1 1.924-.268c.749 0 1.424.11 2.026.332a4.64 4.64 0 0 1 1.539.908 3.98 3.98 0 0 1 1.318 3.008h-1.211c0-.462-.081-.89-.244-1.284a2.838 2.838 0 0 0-.713-1.02 3.347 3.347 0 0 0-1.152-.675c-.456-.162-.977-.244-1.563-.244s-1.102.07-1.548.21c-.446.14-.817.33-1.113.567a2.39 2.39 0 0 0-.674.835 2.32 2.32 0 0 0-.23 1.015c0 .339.064.651.191.938.127.286.34.552.64.796s.693.472 1.181.683c.489.212 1.09.412 1.807.6a16.63 16.63 0 0 1 2.002.684c.586.248 1.08.54 1.484.874.404.336.71.722.918 1.158.209.436.313.94.313 1.513 0 .58-.122 1.099-.366 1.558a3.448 3.448 0 0 1-1.016 1.167 4.769 4.769 0 0 1-1.548.732 7.16 7.16 0 0 1-1.953.254c-.423 0-.848-.035-1.274-.107a6.709 6.709 0 0 1-1.23-.327 5.333 5.333 0 0 1-1.104-.562 3.86 3.86 0 0 1-.89-.815 3.796 3.796 0 0 1-.595-1.084 4 4 0 0 1-.22-1.362h1.202c0 .598.123 1.105.37 1.518.248.413.567.747.958 1.001.39.254.83.438 1.318.552.488.114.977.17 1.465.17.553 0 1.056-.063 1.509-.19.452-.127.84-.307 1.162-.542.322-.234.57-.516.742-.844.173-.33.259-.695.259-1.1zM117.745 46a3.357 3.357 0 0 1-.152-.669 9.257 9.257 0 0 1-.073-.806 4.152 4.152 0 0 1-1.436 1.172 4.701 4.701 0 0 1-2.148.498 4.15 4.15 0 0 1-1.402-.224c-.42-.15-.778-.36-1.074-.63a2.846 2.846 0 0 1-.932-2.144c0-.514.11-.978.332-1.391a3.01 3.01 0 0 1 .957-1.055c.416-.29.923-.511 1.518-.664a8.078 8.078 0 0 1 2.007-.23h2.168v-1.2c0-.756-.233-1.35-.698-1.783-.466-.433-1.144-.65-2.036-.65-.41 0-.788.056-1.133.167a2.86 2.86 0 0 0-.894.459 2.18 2.18 0 0 0-.586.678 1.7 1.7 0 0 0-.21.826l-1.171-.01c0-.397.097-.781.292-1.153.196-.37.47-.701.826-.99.355-.29.78-.523 1.279-.699a4.946 4.946 0 0 1 1.655-.264c.56 0 1.076.072 1.548.215.472.143.877.358 1.216.645.338.286.602.644.791 1.074.189.43.283.93.283 1.504v5.117c0 .182.007.371.02.566.013.196.034.384.063.567.03.182.064.356.103.522.039.166.084.311.136.435V46h-1.25zm-3.672-.84c.423 0 .815-.054 1.176-.161.362-.107.689-.256.982-.444.293-.19.547-.409.761-.66a3.32 3.32 0 0 0 .518-.815v-2.324h-2.002a7.27 7.27 0 0 0-1.606.161c-.472.107-.871.262-1.197.464a2.19 2.19 0 0 0-.747.737c-.172.29-.259.617-.259.982 0 .286.056.555.167.805.11.25.268.469.473.655.205.185.454.332.747.439.293.107.622.161.987.161zm9.542-9.726l.039 1.806c.182-.3.392-.573.63-.82a3.834 3.834 0 0 1 2.817-1.182c.528 0 1 .072 1.416.215.417.143.77.371 1.06.684.29.312.51.714.664 1.206.153.491.23 1.085.23 1.782V46h-1.163v-6.885c0-.547-.058-1.002-.175-1.367-.118-.365-.284-.658-.499-.879a1.812 1.812 0 0 0-.786-.473 3.52 3.52 0 0 0-1.03-.142c-.417 0-.794.07-1.133.21-.338.14-.638.327-.898.561a3.74 3.74 0 0 0-.674.806 4.626 4.626 0 0 0-.45.933V46h-1.161V35.434h1.113zm16.915 7.88c0-.214-.037-.43-.112-.644a1.54 1.54 0 0 0-.42-.61c-.205-.192-.491-.372-.86-.538-.367-.166-.844-.31-1.43-.434a12.34 12.34 0 0 1-1.567-.43 4.511 4.511 0 0 1-1.162-.59 2.334 2.334 0 0 1-.718-.826c-.163-.319-.244-.693-.244-1.123 0-.39.086-.762.259-1.113.172-.352.42-.658.742-.918s.713-.467 1.172-.62a4.88 4.88 0 0 1 1.547-.23c.612 0 1.16.08 1.646.24.485.159.895.38 1.23.664.336.283.591.616.767 1 .176.385.264.801.264 1.25h-1.172c0-.273-.06-.54-.18-.8-.121-.26-.297-.49-.528-.689a2.728 2.728 0 0 0-.86-.483 3.416 3.416 0 0 0-1.167-.186c-.455 0-.844.056-1.167.166a2.4 2.4 0 0 0-.79.43 1.634 1.634 0 0 0-.591 1.25c0 .234.035.448.107.64s.21.37.415.537c.205.166.492.319.86.459.367.14.847.278 1.44.415.638.15 1.188.316 1.65.498.463.182.845.399 1.148.65.302.25.527.536.674.859.146.322.22.695.22 1.118 0 .436-.092.835-.274 1.196-.182.361-.443.67-.781.928a3.807 3.807 0 0 1-1.23.6 5.644 5.644 0 0 1-1.612.215c-.67 0-1.263-.086-1.778-.258a3.984 3.984 0 0 1-1.298-.699 2.939 2.939 0 0 1-.796-1.01 2.758 2.758 0 0 1-.269-1.187h1.172c.026.417.134.763.322 1.04.19.277.423.498.703.664.28.166.591.285.933.357a4.92 4.92 0 0 0 1.01.107 3.99 3.99 0 0 0 1.173-.156 2.72 2.72 0 0 0 .854-.42c.231-.176.405-.378.523-.606a1.54 1.54 0 0 0 .175-.713z"/><path fill="#222" d="M2.945 221l37.53-92.07h9.99L86.915 221H74.63l-9.45-24.84H24.41L14.825 221H2.945zm35.235-60.615l-9.99 25.785H61.4l-9.72-25.92c-1.89-4.995-4.725-13.23-6.345-18.63h-.54c-1.755 5.67-4.59 13.5-6.615 18.765zm127.935-4.05V221H155.45v-8.64h-.27c-4.725 5.67-12.69 10.935-23.625 10.935-17.55 0-33.21-13.635-33.21-34.695 0-19.98 14.58-34.425 33.885-34.425 11.745 0 18.63 6.21 23.085 11.475h.135v-9.315h10.665zm-56.7 32.265c0 12.42 7.695 25.245 23.625 25.245 12.15 0 23.355-10.26 23.355-24.84 0-15.39-10.395-25.515-23.085-25.515-16.2 0-23.895 12.69-23.895 25.11zM245.252 27L255.26 2.448h2.664L267.644 27h-3.276l-2.52-6.624h-10.872L248.42 27h-3.168zm9.396-16.164l-2.664 6.876h8.856l-2.592-6.912a89.17 89.17 0 0 1-1.692-4.968h-.144c-.468 1.512-1.224 3.6-1.764 5.004zm33.116-1.08V27h-2.844v-2.304h-.072c-1.26 1.512-3.384 2.916-6.3 2.916-4.68 0-8.856-3.636-8.856-9.252 0-5.328 3.888-9.18 9.036-9.18 3.132 0 4.968 1.656 6.156 3.06h.036V9.756h2.844zm-15.12 8.604c0 3.312 2.052 6.732 6.3 6.732 3.24 0 6.228-2.736 6.228-6.624 0-4.104-2.772-6.804-6.156-6.804-4.32 0-6.372 3.384-6.372 6.696zM302.912 27V2.448h5.436c5.076 0 8.028 2.448 8.028 6.264 0 2.844-1.872 4.464-3.996 5.22v.072c3.852.396 5.76 3.096 5.76 6.228 0 4.644-3.636 6.768-8.172 6.768h-7.056zm12.132-6.984c0-2.7-1.908-4.356-5.364-4.356h-3.78v8.604h4.284c3.312 0 4.86-1.728 4.86-4.248zm-1.728-11.052c0-2.664-2.16-3.78-4.968-3.78H305.9v7.74h2.664c2.952 0 4.752-1.62 4.752-3.96zM322.672 27V1.08h2.844v11.124h.072c1.152-1.368 2.988-3.024 6.48-3.024 4.86 0 8.676 3.96 8.676 9.18 0 5.616-4.176 9.252-8.604 9.252-3.132 0-5.292-1.404-6.552-2.916h-.072V27h-2.844zm15.12-8.64c0-3.348-2.088-6.696-6.336-6.696-3.456 0-6.192 2.7-6.192 6.804 0 3.924 2.952 6.624 6.264 6.624 4.176 0 6.264-3.42 6.264-6.732zM366.08 1.656c6.768 0 9.936 3.96 11.268 7.092h-3.384c-1.188-2.52-3.888-4.428-7.92-4.428-4.896 0-9.54 3.6-9.54 10.368 0 5.868 4.032 10.44 9.72 10.44 4.032 0 6.804-1.98 8.1-4.896h3.384c-2.124 4.5-5.616 7.56-11.628 7.56-7.56 0-12.672-5.616-12.672-13.14 0-7.524 5.508-12.996 12.672-12.996zm24.332 7.524c4.932 0 7.2 3.024 7.776 5.004h-3.168c-.684-1.44-2.196-2.52-4.608-2.52-3.276 0-6.12 2.232-6.12 6.696 0 3.888 2.664 6.732 6.3 6.732 2.7 0 3.996-1.404 4.68-2.844h3.168c-.9 2.556-3.204 5.364-7.884 5.364-5.328 0-9.216-3.816-9.216-9.288 0-5.04 3.528-9.144 9.072-9.144zm21.844-6.732h7.956c8.856 0 13.392 5.58 13.392 12.276 0 6.66-4.824 12.276-13.464 12.276h-7.884V2.448zm2.988 21.816h5.076c6.804 0 10.188-4.32 10.188-9.54 0-5.616-3.636-9.54-10.188-9.54h-5.076v19.08zM454.84 1.08V27h-2.844v-2.304h-.072c-1.26 1.512-3.384 2.916-6.444 2.916-4.68 0-8.712-3.636-8.712-9.252 0-5.22 3.708-9.18 8.712-9.18 3.24 0 4.968 1.296 6.444 3.024h.072V1.08h2.844zm-15.12 17.28c0 3.312 2.124 6.732 6.264 6.732 3.348 0 6.264-2.7 6.264-6.624 0-4.104-2.736-6.804-6.192-6.804-4.212 0-6.336 3.348-6.336 6.696zm43.732-15.912v2.736h-10.476v7.74h10.08v2.736h-10.08v8.604h10.872V27h-13.86V2.448h13.464zm13.064 6.732c6.264.036 8.532 5.184 8.532 8.964 0 .324-.036.864-.072 1.044H490.9c0 3.132 2.88 5.904 6.12 5.904 2.052 0 3.312-.756 4.428-2.088h3.276c-1.152 2.16-3.564 4.608-7.632 4.608-5.472 0-9.144-4.104-9.144-9.468 0-4.752 3.348-8.964 8.568-8.964zm0 2.484c-3.276 0-5.328 2.52-5.58 5.148h11.124c-.288-2.7-2.412-5.148-5.544-5.148zm35.956-9.216v2.736h-10.476v8.136h10.08v2.736h-10.08V27h-2.988V2.448h13.464zm3.2 9.684V9.756h2.484V6.66c0-3.672 1.872-5.76 5.436-5.76.72 0 1.476.108 2.124.288v2.376c-.648-.216-1.224-.288-1.944-.288-1.872 0-2.736 1.224-2.736 3.06v3.42h3.96v2.376h-3.96V27h-2.88V12.132h-2.484zm32.644 1.764h13.68v.324c0 7.776-4.788 13.572-12.492 13.572-7.596 0-12.708-6.192-12.708-13.068 0-7.128 5.436-13.068 12.744-13.068 6.048 0 9.936 3.06 11.592 7.128h-3.312c-1.26-2.628-4.212-4.464-8.28-4.464-6.012 0-9.648 4.716-9.648 10.26 0 6.408 4.284 10.548 9.864 10.548 5.004 0 8.64-3.636 9.072-8.496h-10.512v-2.736zm34.916-4.14V26.46c0 6.228-2.88 9.792-8.892 9.792-4.788 0-7.776-2.664-8.496-6.588h2.88c.612 2.304 2.196 4.104 5.724 4.104 3.852 0 5.94-2.52 5.94-6.948v-2.196h-.072c-1.26 1.548-3.384 2.988-6.3 2.988-4.716 0-8.856-3.636-8.856-9.252 0-5.328 3.78-9.18 8.82-9.18 3.276 0 5.256 1.728 6.336 3.06h.072V9.756h2.844zm-15.156 8.604c0 3.312 2.16 6.732 6.3 6.732 3.348 0 6.264-2.736 6.264-6.624 0-4.104-2.736-6.804-6.192-6.804-4.212 0-6.372 3.384-6.372 6.696zM264.152 92V80.66h-13.5V92h-2.988V67.448h2.988v10.476h13.5V67.448h2.988V92h-2.988zm8.636 0V66.08h2.844v10.836h.072c1.62-2.052 3.564-2.736 5.436-2.736 3.132 0 6.804 1.908 6.804 7.776V92H285.1v-9.9c0-3.456-1.692-5.364-4.392-5.364-3.096 0-5.076 2.052-5.076 6.048V92h-2.844zm29.908 0V67.448h2.988V92h-2.988zm8.636 0V74.756h2.844V92h-2.844zm-.324-21.384v-3.348h3.528v3.348h-3.528zM333.86 85.7V67.448h2.952v18.216c0 5.076-2.376 7.056-6.12 7.056-1.188 0-2.7-.324-3.528-.72v-2.664c.828.396 2.34.72 3.24.72 2.304 0 3.456-1.08 3.456-4.356zm11.048-10.944v19.44c0 4.716-2.196 6.84-5.652 6.84a8.869 8.869 0 0 1-3.096-.54V98.12c.504.18 1.656.54 2.844.54 1.944 0 3.06-1.224 3.06-4.212V74.756h2.844zm-3.168-4.14v-3.348h3.528v3.348h-3.528zM375.32 92l-9.72-11.88-2.556 2.664V92h-2.988V67.448h2.988v11.52l11.052-11.52h3.96L367.76 77.924 379.28 92h-3.96zm17.78 0l-6.732-8.208-1.656 1.62V92h-2.844V66.08h2.844v15.948l7.2-7.272h3.528l-7.092 7.056L396.664 92H393.1zm15.868 0V67.448h2.988v21.816h10.872V92h-13.86zm17.348 0V66.08h2.844V92h-2.844zm40.456-24.552l2.7 24.552h-2.916l-1.404-14.328c-.18-1.944-.432-4.788-.576-6.516h-.108c-.576 1.908-1.44 4.572-2.088 6.552L457.592 92H455l-4.788-14.688c-.612-1.872-1.476-4.248-1.98-6.156h-.144c-.144 1.98-.324 4.176-.54 6.12L446.036 92h-2.88L446 67.448h3.636l5.328 15.804c.432 1.26 1.008 3.168 1.332 4.5h.144c.324-1.332.936-3.24 1.368-4.5l5.364-15.804h3.6zM473.968 92V74.756h2.844v2.16h.072c1.152-1.548 2.916-2.736 5.148-2.736 2.7 0 4.896 1.548 5.616 3.564.864-1.728 2.952-3.564 5.94-3.564 3.888 0 6.588 2.7 6.588 7.776V92h-2.844V81.74c0-2.664-1.224-5.004-4.14-5.004-2.412 0-4.68 1.728-4.68 5.688V92h-2.88V81.74c0-2.844-1.548-5.004-4.104-5.004-2.88 0-4.716 2.088-4.716 5.688V92h-2.844zm43.948-19.836h-.072c.036 1.332.072 3.852.072 5.148V92h-2.808V67.448h2.808l7.992 11.808c2.844 4.212 4.392 6.588 5.184 8.064h.072c-.072-1.404-.072-3.924-.072-5.22V67.448h2.808V92h-2.808L523.1 80.192c-3.312-4.896-4.392-6.552-5.184-8.028zM539.548 92V74.756h2.844v2.16h.072c1.584-2.052 3.564-2.736 5.436-2.736 3.132 0 6.804 1.944 6.804 7.776V92h-2.844v-9.864c0-3.492-1.692-5.4-4.392-5.4-3.096 0-5.076 2.088-5.076 6.084V92h-2.844zm-290.084 52.724c0 5.976 4.32 10.404 9.9 10.404 5.616 0 9.936-4.428 9.936-10.404 0-5.868-4.032-10.404-9.936-10.404-5.58 0-9.9 4.392-9.9 10.404zm-3.096 0c0-7.02 5.472-13.068 13.032-13.068 8.064 0 12.996 6.192 12.996 13.068 0 7.2-5.58 13.068-12.996 13.068-8.964 0-13.032-6.984-13.032-13.068zm29.192 3.636c0-5.328 4.032-9.18 9.216-9.18 5.364 0 9.216 3.96 9.216 9.18 0 5.076-3.888 9.252-9.216 9.252-5.22 0-9.216-4.032-9.216-9.252zm2.952 0c0 3.888 2.952 6.66 6.264 6.66 3.636 0 6.264-2.88 6.264-6.66 0-3.636-2.484-6.624-6.264-6.624-3.672 0-6.264 2.808-6.264 6.624zm42.508-8.28c0-2.88-1.692-4.896-5.688-4.896h-4.392v9.756h4.284c4.536 0 5.796-2.196 5.796-4.86zM307.952 157v-24.552h7.128c5.256 0 9 2.376 9 7.56 0 4.716-2.808 7.632-9.252 7.632h-3.888V157h-2.988zm19.76 8.46v-25.704h2.844v2.448h.072c1.152-1.368 2.988-3.024 6.48-3.024 5.508 0 8.676 4.5 8.676 9.18 0 5.22-3.744 9.252-8.784 9.252-2.952 0-5.112-1.404-6.372-2.916h-.072v10.764h-2.844zm15.12-17.1c0-3.348-2.088-6.696-6.336-6.696-3.456 0-6.192 2.7-6.192 6.804 0 3.924 2.952 6.624 6.264 6.624 4.176 0 6.264-3.42 6.264-6.732zm38.116 12.204l-3.492-4.212c-1.764.936-3.816 1.44-5.976 1.44-8.964 0-13.032-6.984-13.032-13.068 0-7.02 5.472-13.068 13.032-13.068 8.064 0 12.996 6.192 12.996 13.068 0 3.996-1.728 7.56-4.536 9.972l3.312 3.96-2.304 1.908zm-19.404-15.84c0 5.976 4.32 10.404 9.9 10.404 1.548 0 2.952-.324 4.248-.9l-3.312-3.996 2.304-1.908 3.492 4.212c1.98-1.872 3.204-4.608 3.204-7.812 0-5.868-4.032-10.404-9.936-10.404-5.58 0-9.9 4.392-9.9 10.404zm44.168-4.968v25.704h-2.844v-10.764h-.072c-1.26 1.512-3.384 2.916-6.3 2.916-4.68 0-8.856-3.636-8.856-9.252 0-5.22 3.816-9.18 9.072-9.18 3.132 0 4.932 1.656 6.084 3.024h.072v-2.448h2.844zm-15.12 8.604c0 3.312 2.124 6.732 6.264 6.732 3.348 0 6.264-2.7 6.264-6.624 0-4.104-2.736-6.804-6.192-6.804-4.212 0-6.336 3.348-6.336 6.696zm39.988-1.908L438.32 157h-3.78l-7.416-10.26h-3.276V157h-2.988v-24.552h7.092c6.12 0 8.316 3.816 8.316 7.2 0 3.492-2.592 6.192-5.688 6.804zm2.592-6.804c0-2.88-1.728-4.464-4.896-4.464h-4.428v8.82h4.464c3.24 0 4.86-1.98 4.86-4.356zm17.276-.36v2.628c-.432-.072-.9-.18-1.656-.18-2.484 0-4.428 1.764-4.428 6.12V157h-2.844v-17.244h2.844v2.16h.072c.576-1.152 2.304-2.736 4.572-2.736.612 0 1.044.036 1.44.108zm27.856-1.8H475.1c-.36-1.872-1.8-3.24-4.068-3.24-2.52 0-4.068 1.584-4.068 3.708 0 2.304 1.764 3.492 4.644 4.356 5.544 1.656 7.308 4.284 7.308 8.064 0 3.6-2.628 7.416-7.704 7.416-4.104 0-7.272-2.124-8.316-6.696h3.276c.648 2.484 2.34 4.104 5.076 4.104 3.096 0 4.644-2.412 4.644-4.644 0-2.772-1.728-4.356-5.256-5.436-4.5-1.368-6.696-3.528-6.696-7.164 0-3.492 2.916-6.3 7.092-6.3 4.032 0 6.768 2.592 7.272 5.832zm16.628 6.408h-2.88c-.288-1.332-1.404-2.304-2.772-2.304-1.764 0-2.736 1.044-2.736 2.304 0 1.08.504 1.98 3.636 2.988 3.816 1.224 5.004 3.204 5.004 5.508 0 3.168-2.304 5.22-5.832 5.22-3.816 0-5.724-2.232-6.264-5.22h2.88c.324 1.512 1.368 2.772 3.492 2.772 1.908 0 2.88-1.116 2.88-2.556 0-1.476-.648-2.448-3.852-3.492-3.24-1.044-4.752-2.664-4.752-5.256 0-2.52 1.872-4.68 5.4-4.68 3.528 0 5.22 2.16 5.796 4.716zM513.716 157v-21.816h-6.444v-2.736h15.876v2.736h-6.444V157h-2.988zm10.328-14.868v-2.376h2.268v-5.508h2.844v5.508h4.608v2.376h-4.608v9.108c0 2.808.864 3.564 2.7 3.564.72 0 1.44-.108 2.088-.288v2.34c-.756.252-1.656.36-2.664.36-4.176 0-4.968-2.808-4.968-6.084v-9h-2.268zm32.176 15.66c-4.428 0-8.964-2.736-8.964-10.584v-14.76h2.988v15.192c0 4.356 2.196 7.488 5.976 7.488 4.284 0 5.976-3.132 5.976-7.488v-15.192h2.952v14.688c0 7.848-4.068 10.656-8.928 10.656zm28.688-18.036V157h-2.844v-2.124h-.072c-1.512 2.052-3.42 2.736-5.22 2.736-3.024 0-6.552-1.944-6.552-7.776v-10.08h2.844v9.864c0 3.492 1.656 5.4 4.176 5.4 2.952 0 4.824-2.052 4.824-6.048v-9.216h2.844zm-318.56 57.692L257.168 222h-2.808l-9.18-24.552h3.24l5.796 16.416a359.837 359.837 0 0 1 1.584 4.716h.072c.468-1.512 1.116-3.312 1.62-4.752l5.868-16.38h2.988zm15.8 7.308L275.776 222h-2.7l-6.372-17.244h2.916l3.6 10.044c.504 1.368 1.008 3.06 1.188 3.996h.144c.288-1.224.72-2.736 1.152-3.996l3.564-10.044h2.88zM312.272 222l-3.852-15.624c-.54-2.232-.792-3.456-.972-5.22h-.144c-.252 1.764-.432 2.772-1.008 5.112L302.48 222h-2.988l-6.696-24.552h3.06l4.032 15.84c.612 2.376.792 3.276 1.08 4.788h.144c.288-1.548.504-3.204.972-5.112l3.852-15.516h2.952l3.852 15.768c.504 2.052.756 3.384.972 4.86h.144c.288-1.908.684-3.816.936-4.824l3.78-15.804h3.06L315.476 222h-3.204zm25.448 0l-2.52-10.188a57.54 57.54 0 0 1-.756-3.744h-.144a41.463 41.463 0 0 1-.864 4.464L331.132 222h-3.708l-4.536-17.244h2.88l2.7 11.376c.396 1.728.504 2.268.72 3.42h.144c.216-1.116.504-2.268.828-3.6l2.7-11.196h3.096l2.808 11.34c.36 1.476.54 2.376.756 3.456h.108c.18-1.332.468-2.7.648-3.42l2.772-11.376h2.844L341.356 222h-3.636zm23.248-24.552l4.356 6.732a54.806 54.806 0 0 1 1.728 2.808h.108a46.864 46.864 0 0 1 1.728-2.88l4.284-6.66h3.276l-7.848 11.736L376.808 222h-3.492l-4.392-7.056c-.684-1.08-1.332-2.196-2.016-3.276h-.072l-2.052 3.348-4.32 6.984h-3.312l8.172-12.672-7.884-11.88h3.528zM378.46 222l6.372-8.856-5.976-8.388h3.312l3.06 4.32c.54.792.828 1.332 1.152 1.8h.072c.396-.576.792-1.116 1.188-1.692l2.988-4.428h3.276l-6.012 8.316L394.3 222h-3.348l-3.348-4.788c-.432-.612-.828-1.188-1.26-1.8h-.108l-1.296 1.836L381.7 222h-3.24zm34.768 0v-10.008l-7.704-14.544h3.348l4.68 9c.54 1.044.936 1.872 1.296 2.844h.072c.432-1.008.828-1.692 1.368-2.808l4.464-9.036h3.096l-7.632 14.508V222h-2.988zm25.556-17.244l-9.504 25.704h-2.736l3.132-8.46-6.336-17.244h2.916l3.636 10.044c.324.828.972 2.7 1.152 3.636h.072c.396-1.224.756-2.376 1.188-3.636l3.6-10.044h2.88zm12.16-4.572v-2.736h17.46v2.592l-14.508 19.224h15.084V222h-18.648v-2.556l14.508-19.26h-13.896zm21.956 6.948v-2.376h13.536v2.232l-10.368 12.6h10.8V222h-14.4v-2.268l10.404-12.6H472.9z"/></g></svg>